G04 #@! TF.GenerationSoftware,KiCad,Pcbnew,7.0.9*
G04 #@! TF.CreationDate,2024-01-09T09:24:08+01:00*
G04 #@! TF.ProjectId,ltl,6c746c2e-6b69-4636-9164-5f7063625858,rev?*
G04 #@! TF.SameCoordinates,Original*
G04 #@! TF.FileFunction,Soldermask,Top*
G04 #@! TF.FilePolarity,Negative*
%FSLAX46Y46*%
G04 Gerber Fmt 4.6, Leading zero omitted, Abs format (unit mm)*
G04 Created by KiCad (PCBNEW 7.0.9) date 2024-01-09 09:24:08*
%MOMM*%
%LPD*%
G01*
G04 APERTURE LIST*
G04 Aperture macros list*
%AMRoundRect*
0 Rectangle with rounded corners*
0 $1 Rounding radius*
0 $2 $3 $4 $5 $6 $7 $8 $9 X,Y pos of 4 corners*
0 Add a 4 corners polygon primitive as box body*
4,1,4,$2,$3,$4,$5,$6,$7,$8,$9,$2,$3,0*
0 Add four circle primitives for the rounded corners*
1,1,$1+$1,$2,$3*
1,1,$1+$1,$4,$5*
1,1,$1+$1,$6,$7*
1,1,$1+$1,$8,$9*
0 Add four rect primitives between the rounded corners*
20,1,$1+$1,$2,$3,$4,$5,0*
20,1,$1+$1,$4,$5,$6,$7,0*
20,1,$1+$1,$6,$7,$8,$9,0*
20,1,$1+$1,$8,$9,$2,$3,0*%
G04 Aperture macros list end*
%ADD10C,2.800000*%
%ADD11O,2.800000X2.800000*%
%ADD12RoundRect,0.200000X-0.500000X1.250000X-0.500000X-1.250000X0.500000X-1.250000X0.500000X1.250000X0*%
%ADD13RoundRect,0.200000X-0.900000X0.500000X-0.900000X-0.500000X0.900000X-0.500000X0.900000X0.500000X0*%
%ADD14RoundRect,0.200000X-0.650000X-0.650000X0.650000X-0.650000X0.650000X0.650000X-0.650000X0.650000X0*%
%ADD15C,1.700000*%
%ADD16C,2.400000*%
%ADD17RoundRect,0.200000X-1.500000X-1.500000X1.500000X-1.500000X1.500000X1.500000X-1.500000X1.500000X0*%
%ADD18O,2.662000X3.662000*%
%ADD19RoundRect,0.200000X-0.225000X-0.200000X0.225000X-0.200000X0.225000X0.200000X-0.225000X0.200000X0*%
%ADD20RoundRect,0.200000X-0.225000X-0.250000X0.225000X-0.250000X0.225000X0.250000X-0.225000X0.250000X0*%
%ADD21RoundRect,0.200000X-0.800000X-0.800000X0.800000X-0.800000X0.800000X0.800000X-0.800000X0.800000X0*%
%ADD22C,2.000000*%
%ADD23RoundRect,0.200000X-0.850000X-0.850000X0.850000X-0.850000X0.850000X0.850000X-0.850000X0.850000X0*%
%ADD24RoundRect,0.350000X-0.512500X-0.150000X0.512500X-0.150000X0.512500X0.150000X-0.512500X0.150000X0*%
%ADD25RoundRect,0.200000X-0.525000X-0.750000X0.525000X-0.750000X0.525000X0.750000X-0.525000X0.750000X0*%
%ADD26O,1.450000X1.900000*%
%ADD27O,2.000000X2.000000*%
%ADD28C,1.200000*%
%ADD29C,6.800000*%
%ADD30RoundRect,0.200000X1.100000X0.300000X-1.100000X0.300000X-1.100000X-0.300000X1.100000X-0.300000X0*%
%ADD31RoundRect,0.200000X1.075000X1.725000X-1.075000X1.725000X-1.075000X-1.725000X1.075000X-1.725000X0*%
%ADD32RoundRect,0.200000X0.850000X-0.850000X0.850000X0.850000X-0.850000X0.850000X-0.850000X-0.850000X0*%
%ADD33O,2.100000X2.100000*%
%ADD34RoundRect,0.450000X-0.325000X-0.650000X0.325000X-0.650000X0.325000X0.650000X-0.325000X0.650000X0*%
G04 APERTURE END LIST*
D10*
X133350000Y-107721400D03*
D11*
X146050000Y-107721400D03*
D10*
X133350000Y-103378000D03*
D11*
X146050000Y-103378000D03*
D10*
X133350000Y-81788000D03*
D11*
X146050000Y-81788000D03*
D10*
X133350000Y-86106000D03*
D11*
X146050000Y-86106000D03*
D10*
X133350000Y-94742000D03*
D11*
X146050000Y-94742000D03*
D12*
X165240000Y-91714000D03*
X163240000Y-91714000D03*
X161240000Y-91714000D03*
X159240000Y-91714000D03*
X157240000Y-91714000D03*
X155240000Y-91714000D03*
X153240000Y-91714000D03*
X151240000Y-91714000D03*
D13*
X149740000Y-94314000D03*
X149740000Y-96314000D03*
X149740000Y-98314000D03*
X149740000Y-100314000D03*
X149740000Y-102314000D03*
X149740000Y-104314000D03*
D12*
X151240000Y-106914000D03*
X153240000Y-106914000D03*
X155240000Y-106914000D03*
X157240000Y-106914000D03*
X159240000Y-106914000D03*
X161240000Y-106914000D03*
X163240000Y-106914000D03*
X165240000Y-106914000D03*
D14*
X170688000Y-115570000D03*
D15*
X171958000Y-116840000D03*
X170688000Y-118110000D03*
D16*
X158949000Y-87576800D03*
X158949000Y-81076800D03*
X163449000Y-87576800D03*
X163449000Y-81076800D03*
D17*
X87630000Y-120650000D03*
D18*
X159766000Y-120650000D03*
D16*
X172176000Y-81078000D03*
X172176000Y-87578000D03*
X167676000Y-81078000D03*
X167676000Y-87578000D03*
D10*
X133350000Y-90424000D03*
D11*
X146050000Y-90424000D03*
D19*
X119754000Y-104756000D03*
X119754000Y-105556000D03*
D20*
X120904000Y-105156000D03*
D21*
X153194000Y-87122000D03*
D22*
X155194000Y-87122000D03*
X106172000Y-104140000D03*
X111172000Y-104140000D03*
D23*
X136144000Y-70358000D03*
D10*
X80010000Y-86106000D03*
D11*
X92710000Y-86106000D03*
D23*
X151384000Y-70358000D03*
D19*
X123310000Y-106280000D03*
X123310000Y-107080000D03*
D20*
X124460000Y-106680000D03*
D24*
X84714500Y-100904000D03*
X84714500Y-101854000D03*
X84714500Y-102804000D03*
X86989500Y-102804000D03*
X86989500Y-101854000D03*
X86989500Y-100904000D03*
D10*
X97282000Y-84074000D03*
D11*
X109982000Y-84074000D03*
D25*
X108966000Y-91948000D03*
D26*
X110236000Y-91948000D03*
X111506000Y-91948000D03*
D21*
X96774000Y-92710000D03*
D27*
X104394000Y-92710000D03*
D23*
X161544000Y-70358000D03*
D10*
X80010000Y-90424000D03*
D11*
X92710000Y-90424000D03*
D28*
X78372000Y-72898000D03*
X79074944Y-71200944D03*
X79074944Y-74595056D03*
X80772000Y-70498000D03*
D29*
X80772000Y-72898000D03*
D28*
X80772000Y-75298000D03*
X82469056Y-71200944D03*
X82469056Y-74595056D03*
X83172000Y-72898000D03*
D23*
X143764000Y-70358000D03*
D21*
X103156000Y-74422000D03*
D22*
X105156000Y-74422000D03*
D30*
X103467500Y-108712000D03*
X103467500Y-107442000D03*
X103467500Y-106172000D03*
X103467500Y-104902000D03*
X103467500Y-103632000D03*
D31*
X97167500Y-106172000D03*
D22*
X149428200Y-84103200D03*
X149428200Y-89103200D03*
D32*
X115824000Y-78994000D03*
D33*
X118364000Y-78994000D03*
X120904000Y-78994000D03*
X123444000Y-78994000D03*
X125984000Y-78994000D03*
X128524000Y-78994000D03*
D21*
X98104900Y-99568000D03*
D22*
X100104900Y-99568000D03*
D10*
X128778000Y-99822000D03*
D11*
X116078000Y-99822000D03*
D10*
X97282000Y-88392000D03*
D11*
X109982000Y-88392000D03*
D34*
X97126000Y-74422000D03*
X100076000Y-74422000D03*
D23*
X141224000Y-70358000D03*
D21*
X106994900Y-99568000D03*
D22*
X108994900Y-99568000D03*
D23*
X159004000Y-70358000D03*
X156464000Y-70358000D03*
D10*
X116078000Y-91186000D03*
D11*
X128778000Y-91186000D03*
D10*
X133350000Y-99060000D03*
D11*
X146050000Y-99060000D03*
D21*
X90932000Y-95758000D03*
D22*
X92932000Y-95758000D03*
D10*
X97282000Y-79756000D03*
D11*
X109982000Y-79756000D03*
D10*
X128752600Y-86995000D03*
D11*
X116052600Y-86995000D03*
D22*
X79542000Y-94488000D03*
X84542000Y-94488000D03*
D23*
X138684000Y-70358000D03*
X146304000Y-70358000D03*
D28*
X78372000Y-126619000D03*
X79074944Y-124921944D03*
X79074944Y-128316056D03*
X80772000Y-124219000D03*
D29*
X80772000Y-126619000D03*
D28*
X80772000Y-129019000D03*
X82469056Y-124921944D03*
X82469056Y-128316056D03*
X83172000Y-126619000D03*
D21*
X108998000Y-74422000D03*
D22*
X110998000Y-74422000D03*
D10*
X80010000Y-81788000D03*
D11*
X92710000Y-81788000D03*
D22*
X111172000Y-108204000D03*
X106172000Y-108204000D03*
D10*
X116078000Y-95504000D03*
D11*
X128778000Y-95504000D03*
D23*
X133604000Y-70358000D03*
X153924000Y-70358000D03*
D28*
X167780000Y-72771000D03*
X168482944Y-71073944D03*
X168482944Y-74468056D03*
X170180000Y-70371000D03*
D29*
X170180000Y-72771000D03*
D28*
X170180000Y-75171000D03*
X171877056Y-71073944D03*
X171877056Y-74468056D03*
X172580000Y-72771000D03*
X167780000Y-126619000D03*
X168482944Y-124921944D03*
X168482944Y-128316056D03*
X170180000Y-124219000D03*
D29*
X170180000Y-126619000D03*
D28*
X170180000Y-129019000D03*
X171877056Y-124921944D03*
X171877056Y-128316056D03*
X172580000Y-126619000D03*
D23*
X81026000Y-98801000D03*
D33*
X81026000Y-101341000D03*
D21*
X90964000Y-101854000D03*
D22*
X92964000Y-101854000D03*
D10*
X80264000Y-107188000D03*
D11*
X92964000Y-107188000D03*
D23*
X148844000Y-70358000D03*
M02*
