G04 #@! TF.GenerationSoftware,KiCad,Pcbnew,7.0.9*
G04 #@! TF.CreationDate,2024-01-09T09:24:08+01:00*
G04 #@! TF.ProjectId,ltl,6c746c2e-6b69-4636-9164-5f7063625858,rev?*
G04 #@! TF.SameCoordinates,Original*
G04 #@! TF.FileFunction,Copper,L2,Bot*
G04 #@! TF.FilePolarity,Positive*
%FSLAX46Y46*%
G04 Gerber Fmt 4.6, Leading zero omitted, Abs format (unit mm)*
G04 Created by KiCad (PCBNEW 7.0.9) date 2024-01-09 09:24:08*
%MOMM*%
%LPD*%
G01*
G04 APERTURE LIST*
G04 #@! TA.AperFunction,ComponentPad*
%ADD10C,2.400000*%
G04 #@! TD*
G04 #@! TA.AperFunction,ComponentPad*
%ADD11O,2.400000X2.400000*%
G04 #@! TD*
G04 #@! TA.AperFunction,ComponentPad*
%ADD12R,1.300000X1.300000*%
G04 #@! TD*
G04 #@! TA.AperFunction,ComponentPad*
%ADD13C,1.300000*%
G04 #@! TD*
G04 #@! TA.AperFunction,ComponentPad*
%ADD14C,2.000000*%
G04 #@! TD*
G04 #@! TA.AperFunction,ComponentPad*
%ADD15R,3.000000X3.000000*%
G04 #@! TD*
G04 #@! TA.AperFunction,ComponentPad*
%ADD16O,2.262000X3.262000*%
G04 #@! TD*
G04 #@! TA.AperFunction,ComponentPad*
%ADD17R,1.600000X1.600000*%
G04 #@! TD*
G04 #@! TA.AperFunction,ComponentPad*
%ADD18C,1.600000*%
G04 #@! TD*
G04 #@! TA.AperFunction,ComponentPad*
%ADD19R,1.700000X1.700000*%
G04 #@! TD*
G04 #@! TA.AperFunction,ComponentPad*
%ADD20R,1.050000X1.500000*%
G04 #@! TD*
G04 #@! TA.AperFunction,ComponentPad*
%ADD21O,1.050000X1.500000*%
G04 #@! TD*
G04 #@! TA.AperFunction,ComponentPad*
%ADD22O,1.600000X1.600000*%
G04 #@! TD*
G04 #@! TA.AperFunction,ComponentPad*
%ADD23C,0.800000*%
G04 #@! TD*
G04 #@! TA.AperFunction,ComponentPad*
%ADD24C,6.400000*%
G04 #@! TD*
G04 #@! TA.AperFunction,ComponentPad*
%ADD25O,1.700000X1.700000*%
G04 #@! TD*
G04 #@! TA.AperFunction,ViaPad*
%ADD26C,0.800000*%
G04 #@! TD*
G04 #@! TA.AperFunction,Conductor*
%ADD27C,0.250000*%
G04 #@! TD*
G04 APERTURE END LIST*
D10*
X133350000Y-107721400D03*
D11*
X146050000Y-107721400D03*
D10*
X133350000Y-103378000D03*
D11*
X146050000Y-103378000D03*
D10*
X133350000Y-81788000D03*
D11*
X146050000Y-81788000D03*
D10*
X133350000Y-86106000D03*
D11*
X146050000Y-86106000D03*
D10*
X133350000Y-94742000D03*
D11*
X146050000Y-94742000D03*
D12*
X170688000Y-115570000D03*
D13*
X171958000Y-116840000D03*
X170688000Y-118110000D03*
D14*
X158949000Y-87576800D03*
X158949000Y-81076800D03*
X163449000Y-87576800D03*
X163449000Y-81076800D03*
D15*
X87630000Y-120650000D03*
D16*
X159766000Y-120650000D03*
D14*
X172176000Y-81078000D03*
X172176000Y-87578000D03*
X167676000Y-81078000D03*
X167676000Y-87578000D03*
D10*
X133350000Y-90424000D03*
D11*
X146050000Y-90424000D03*
D17*
X153194000Y-87122000D03*
D18*
X155194000Y-87122000D03*
X106172000Y-104140000D03*
X111172000Y-104140000D03*
D19*
X136144000Y-70358000D03*
D10*
X80010000Y-86106000D03*
D11*
X92710000Y-86106000D03*
D19*
X151384000Y-70358000D03*
D10*
X97282000Y-84074000D03*
D11*
X109982000Y-84074000D03*
D20*
X108966000Y-91948000D03*
D21*
X110236000Y-91948000D03*
X111506000Y-91948000D03*
D17*
X96774000Y-92710000D03*
D22*
X104394000Y-92710000D03*
D19*
X161544000Y-70358000D03*
D10*
X80010000Y-90424000D03*
D11*
X92710000Y-90424000D03*
D23*
X78372000Y-72898000D03*
X79074944Y-71200944D03*
X79074944Y-74595056D03*
X80772000Y-70498000D03*
D24*
X80772000Y-72898000D03*
D23*
X80772000Y-75298000D03*
X82469056Y-71200944D03*
X82469056Y-74595056D03*
X83172000Y-72898000D03*
D19*
X143764000Y-70358000D03*
D17*
X103156000Y-74422000D03*
D18*
X105156000Y-74422000D03*
X149428200Y-84103200D03*
X149428200Y-89103200D03*
D19*
X115824000Y-78994000D03*
D25*
X118364000Y-78994000D03*
X120904000Y-78994000D03*
X123444000Y-78994000D03*
X125984000Y-78994000D03*
X128524000Y-78994000D03*
D17*
X98104900Y-99568000D03*
D18*
X100104900Y-99568000D03*
D10*
X128778000Y-99822000D03*
D11*
X116078000Y-99822000D03*
D10*
X97282000Y-88392000D03*
D11*
X109982000Y-88392000D03*
D19*
X141224000Y-70358000D03*
D17*
X106994900Y-99568000D03*
D18*
X108994900Y-99568000D03*
D19*
X159004000Y-70358000D03*
X156464000Y-70358000D03*
D10*
X116078000Y-91186000D03*
D11*
X128778000Y-91186000D03*
D10*
X133350000Y-99060000D03*
D11*
X146050000Y-99060000D03*
D17*
X90932000Y-95758000D03*
D18*
X92932000Y-95758000D03*
D10*
X97282000Y-79756000D03*
D11*
X109982000Y-79756000D03*
D10*
X128752600Y-86995000D03*
D11*
X116052600Y-86995000D03*
D18*
X79542000Y-94488000D03*
X84542000Y-94488000D03*
D19*
X138684000Y-70358000D03*
X146304000Y-70358000D03*
D23*
X78372000Y-126619000D03*
X79074944Y-124921944D03*
X79074944Y-128316056D03*
X80772000Y-124219000D03*
D24*
X80772000Y-126619000D03*
D23*
X80772000Y-129019000D03*
X82469056Y-124921944D03*
X82469056Y-128316056D03*
X83172000Y-126619000D03*
D17*
X108998000Y-74422000D03*
D18*
X110998000Y-74422000D03*
D10*
X80010000Y-81788000D03*
D11*
X92710000Y-81788000D03*
D18*
X111172000Y-108204000D03*
X106172000Y-108204000D03*
D10*
X116078000Y-95504000D03*
D11*
X128778000Y-95504000D03*
D19*
X133604000Y-70358000D03*
X153924000Y-70358000D03*
D23*
X167780000Y-72771000D03*
X168482944Y-71073944D03*
X168482944Y-74468056D03*
X170180000Y-70371000D03*
D24*
X170180000Y-72771000D03*
D23*
X170180000Y-75171000D03*
X171877056Y-71073944D03*
X171877056Y-74468056D03*
X172580000Y-72771000D03*
X167780000Y-126619000D03*
X168482944Y-124921944D03*
X168482944Y-128316056D03*
X170180000Y-124219000D03*
D24*
X170180000Y-126619000D03*
D23*
X170180000Y-129019000D03*
X171877056Y-124921944D03*
X171877056Y-128316056D03*
X172580000Y-126619000D03*
D19*
X81026000Y-98801000D03*
D25*
X81026000Y-101341000D03*
D17*
X90964000Y-101854000D03*
D18*
X92964000Y-101854000D03*
D10*
X80264000Y-107188000D03*
D11*
X92964000Y-107188000D03*
D19*
X148844000Y-70358000D03*
D26*
X155790900Y-80424500D03*
X148418800Y-87664300D03*
X113781200Y-91035500D03*
X147415400Y-72438800D03*
X124214100Y-95042800D03*
X155240000Y-104602200D03*
X95291700Y-92872300D03*
X153769000Y-108939600D03*
X157819600Y-104602200D03*
X162620600Y-104151900D03*
X152612400Y-104495700D03*
X164267900Y-104520600D03*
X152100700Y-102711400D03*
D27*
X170688000Y-115570000D02*
X170688000Y-114594700D01*
X112353400Y-75777400D02*
X112353400Y-77774300D01*
X92932000Y-95758000D02*
X92964000Y-95790000D01*
X92964000Y-101854000D02*
X92964000Y-107188000D01*
X110236000Y-104140000D02*
X108994900Y-102898900D01*
X117188700Y-78994000D02*
X117188700Y-78186000D01*
X117627800Y-89636200D02*
X117627800Y-86412900D01*
X155194000Y-87260300D02*
X155194000Y-87122000D01*
X108994900Y-102898900D02*
X108994900Y-99568000D01*
X155194000Y-81021400D02*
X155194000Y-87122000D01*
X169033400Y-79720600D02*
X167676000Y-81078000D01*
X149428200Y-89103200D02*
X153351100Y-89103200D01*
X116777000Y-77774300D02*
X112353400Y-77774300D01*
X92964000Y-95790000D02*
X92964000Y-101854000D01*
X123444000Y-91052200D02*
X124627300Y-89868900D01*
X124627300Y-89868900D02*
X124627300Y-78500300D01*
X108994900Y-99568000D02*
X116078000Y-92484900D01*
X163449000Y-81076800D02*
X163449000Y-87576800D01*
X100104900Y-102136900D02*
X100104900Y-99568000D01*
X120347200Y-77818700D02*
X119539300Y-78626600D01*
X170688000Y-114594700D02*
X174194600Y-111088100D01*
X110998000Y-74422000D02*
X112353400Y-75777400D01*
X112353400Y-77774300D02*
X112353400Y-80177300D01*
X174194600Y-111088100D02*
X174194600Y-81193600D01*
X116078000Y-92484900D02*
X116078000Y-91186000D01*
X117627800Y-86412900D02*
X117188700Y-85973800D01*
X172721600Y-79720600D02*
X169033400Y-79720600D01*
X117188700Y-78186000D02*
X116777000Y-77774300D01*
X123444000Y-95334400D02*
X123444000Y-91052200D01*
X124627300Y-78500300D02*
X123945700Y-77818700D01*
X112353400Y-80177300D02*
X109982000Y-82548700D01*
X119539300Y-78626600D02*
X119539300Y-78994000D01*
X118364000Y-78994000D02*
X119539300Y-78994000D01*
X123945700Y-77818700D02*
X120347200Y-77818700D01*
X127931600Y-99822000D02*
X123444000Y-95334400D01*
X110236000Y-104140000D02*
X111172000Y-104140000D01*
X84542000Y-90638000D02*
X80010000Y-86106000D01*
X128778000Y-99822000D02*
X127931600Y-99822000D01*
X109982000Y-84074000D02*
X109982000Y-82548700D01*
X106172000Y-108204000D02*
X110236000Y-104140000D01*
X116078000Y-91186000D02*
X117627800Y-89636200D01*
X84542000Y-94488000D02*
X84542000Y-90638000D01*
X117188700Y-85973800D02*
X117188700Y-78994000D01*
X153351100Y-89103200D02*
X155194000Y-87260300D01*
X174194600Y-81193600D02*
X172721600Y-79720600D01*
X106172000Y-108204000D02*
X100104900Y-102136900D01*
X155790900Y-80424500D02*
X155194000Y-81021400D01*
X118364000Y-78994000D02*
X117188700Y-78994000D01*
X152068700Y-86743700D02*
X152068700Y-87122000D01*
X148418800Y-85112600D02*
X148418800Y-87664300D01*
X133350000Y-86106000D02*
X134901400Y-87657400D01*
X152400000Y-118110000D02*
X133350000Y-99060000D01*
X133350000Y-94742000D02*
X133350000Y-99060000D01*
X134901400Y-87657400D02*
X134901400Y-93190600D01*
X109982000Y-88392000D02*
X111507300Y-88392000D01*
X134901400Y-93190600D02*
X133350000Y-94742000D01*
X105714000Y-109347900D02*
X110028100Y-109347900D01*
X98104900Y-101738800D02*
X105714000Y-109347900D01*
X110028100Y-109347900D02*
X111172000Y-108204000D01*
X133350000Y-81788000D02*
X133350000Y-86106000D01*
X111507300Y-88761600D02*
X113781200Y-91035500D01*
X149428200Y-84103200D02*
X148418800Y-85112600D01*
X149428200Y-84103200D02*
X152068700Y-86743700D01*
X98104900Y-99568000D02*
X98104900Y-101738800D01*
X153194000Y-87122000D02*
X152068700Y-87122000D01*
X111507300Y-88392000D02*
X111507300Y-88761600D01*
X170688000Y-118110000D02*
X152400000Y-118110000D01*
X106432300Y-99568000D02*
X105869600Y-99568000D01*
X106994900Y-99568000D02*
X106432300Y-99568000D01*
X81026000Y-98213300D02*
X87351400Y-98213300D01*
X90932000Y-95758000D02*
X90498000Y-95758000D01*
X106994900Y-103317100D02*
X106994900Y-99568000D01*
X79542000Y-96141700D02*
X79542000Y-94488000D01*
X91652800Y-94603200D02*
X100904800Y-94603200D01*
X81026000Y-97625700D02*
X79542000Y-96141700D01*
X90498000Y-95758000D02*
X91652800Y-94603200D01*
X81026000Y-98801000D02*
X81026000Y-98213300D01*
X81026000Y-98213300D02*
X81026000Y-97625700D01*
X116052600Y-86995000D02*
X116052600Y-88520300D01*
X114527300Y-90045600D02*
X116052600Y-88520300D01*
X114527300Y-91473000D02*
X114527300Y-90045600D01*
X100904800Y-94603200D02*
X105869600Y-99568000D01*
X106432300Y-99568000D02*
X114527300Y-91473000D01*
X90498000Y-95758000D02*
X89806700Y-95758000D01*
X87351400Y-98213300D02*
X89806700Y-95758000D01*
X106172000Y-104140000D02*
X106994900Y-103317100D01*
X78387100Y-92046900D02*
X80010000Y-90424000D01*
X88059600Y-100074900D02*
X80094500Y-100074900D01*
X89838700Y-101854000D02*
X88059600Y-100074900D01*
X80094500Y-100074900D02*
X78387100Y-98367500D01*
X90964000Y-101854000D02*
X89838700Y-101854000D01*
X78387100Y-98367500D02*
X78387100Y-92046900D01*
X158949000Y-81076800D02*
X158949000Y-87576800D01*
X147415400Y-72438800D02*
X146050000Y-73804200D01*
X146050000Y-73804200D02*
X146050000Y-81788000D01*
X172176000Y-87578000D02*
X172176000Y-81078000D01*
X153298300Y-106291600D02*
X148118900Y-101112200D01*
X164796700Y-106291600D02*
X153298300Y-106291600D01*
X165975500Y-105112800D02*
X164796700Y-106291600D01*
X172176000Y-87578000D02*
X169679600Y-87578000D01*
X146050000Y-92584700D02*
X146050000Y-90424000D01*
X169679600Y-87578000D02*
X165975500Y-91282100D01*
X148118900Y-101112200D02*
X148118900Y-94653600D01*
X165975500Y-91282100D02*
X165975500Y-105112800D01*
X148118900Y-94653600D02*
X146050000Y-92584700D01*
X146050000Y-90424000D02*
X146050000Y-86106000D01*
X124214100Y-91533500D02*
X124214100Y-95042800D01*
X128752600Y-86995000D02*
X124214100Y-91533500D01*
X147668700Y-69315300D02*
X147801400Y-69182600D01*
X154921300Y-69182600D02*
X155288700Y-69550000D01*
X147668700Y-71666300D02*
X147668700Y-69315300D01*
X147668600Y-93457400D02*
X147668600Y-73211400D01*
X148140700Y-72138300D02*
X147668700Y-71666300D01*
X148140700Y-72739300D02*
X148140700Y-72138300D01*
X147801400Y-69182600D02*
X154921300Y-69182600D01*
X155288700Y-69550000D02*
X155288700Y-70358000D01*
X155240000Y-104602200D02*
X155240000Y-101028800D01*
X147668600Y-73211400D02*
X148140700Y-72739300D01*
X155240000Y-101028800D02*
X147668600Y-93457400D01*
X156464000Y-70358000D02*
X155288700Y-70358000D01*
X125984000Y-78994000D02*
X125984000Y-80169300D01*
X131444800Y-85630100D02*
X131444800Y-101472800D01*
X125984000Y-80169300D02*
X131444800Y-85630100D01*
X131444800Y-101472800D02*
X133350000Y-103378000D01*
X92710000Y-89661300D02*
X92710000Y-86106000D01*
X93472700Y-90424000D02*
X92710000Y-89661300D01*
X92710000Y-90424000D02*
X93472700Y-90424000D01*
X93472700Y-90424000D02*
X94235300Y-90424000D01*
X94235300Y-91815900D02*
X95291700Y-92872300D01*
X94235300Y-90424000D02*
X94235300Y-91815900D01*
X116078000Y-95504000D02*
X116078000Y-99822000D01*
X136144000Y-70358000D02*
X136144000Y-91314600D01*
X136144000Y-91314600D02*
X153769000Y-108939600D01*
X151384000Y-70358000D02*
X151384000Y-71533300D01*
X156966500Y-97472000D02*
X156966500Y-77115800D01*
X162935300Y-104877300D02*
X163383200Y-104429400D01*
X156966500Y-77115800D02*
X151384000Y-71533300D01*
X158094700Y-104877300D02*
X162935300Y-104877300D01*
X163383200Y-104429400D02*
X163383200Y-103888700D01*
X163383200Y-103888700D02*
X156966500Y-97472000D01*
X157819600Y-104602200D02*
X158094700Y-104877300D01*
X162620600Y-104151900D02*
X156516200Y-98047500D01*
X156516200Y-98047500D02*
X156516200Y-79205500D01*
X156516200Y-79205500D02*
X148844000Y-71533300D01*
X148844000Y-70358000D02*
X148844000Y-71533300D01*
X147575300Y-101267100D02*
X147575300Y-97792600D01*
X146050000Y-94742000D02*
X146050000Y-96267300D01*
X147575300Y-97792600D02*
X146050000Y-96267300D01*
X163148200Y-116840000D02*
X147575300Y-101267100D01*
X171958000Y-116840000D02*
X163148200Y-116840000D01*
X164635000Y-105816400D02*
X153933100Y-105816400D01*
X165469600Y-75458900D02*
X165469600Y-104981800D01*
X165469600Y-104981800D02*
X164635000Y-105816400D01*
X161544000Y-70358000D02*
X161544000Y-71533300D01*
X161544000Y-71533300D02*
X165469600Y-75458900D01*
X153933100Y-105816400D02*
X152612400Y-104495700D01*
X123444000Y-78994000D02*
X123444000Y-80169300D01*
X123444000Y-80169300D02*
X122993700Y-80619600D01*
X122993700Y-97365100D02*
X133350000Y-107721400D01*
X122993700Y-80619600D02*
X122993700Y-97365100D01*
X157416800Y-97285300D02*
X157416800Y-75026100D01*
X153924000Y-70358000D02*
X153924000Y-71533300D01*
X164267900Y-104136400D02*
X157416800Y-97285300D01*
X164267900Y-104520600D02*
X164267900Y-104136400D01*
X157416800Y-75026100D02*
X153924000Y-71533300D01*
X165001400Y-104813100D02*
X164486900Y-105327600D01*
X154716900Y-105327600D02*
X152100700Y-102711400D01*
X159004000Y-70358000D02*
X159004000Y-71533300D01*
X165001400Y-77530700D02*
X165001400Y-104813100D01*
X159004000Y-71533300D02*
X165001400Y-77530700D01*
X164486900Y-105327600D02*
X154716900Y-105327600D01*
X80264000Y-103278300D02*
X80264000Y-107188000D01*
X81026000Y-102516300D02*
X80264000Y-103278300D01*
X81026000Y-101341000D02*
X81026000Y-102516300D01*
X95714400Y-82506400D02*
X97282000Y-84074000D01*
X100074600Y-86866600D02*
X97282000Y-84074000D01*
X100074600Y-89983600D02*
X100074600Y-86866600D01*
X102341400Y-77377300D02*
X97488700Y-77377300D01*
X97488700Y-77377300D02*
X95714400Y-79151600D01*
X105156000Y-74422000D02*
X105156000Y-74562700D01*
X108115700Y-91948000D02*
X106202700Y-93861000D01*
X108966000Y-91948000D02*
X108115700Y-91948000D01*
X105156000Y-74562700D02*
X102341400Y-77377300D01*
X95714400Y-79151600D02*
X95714400Y-82506400D01*
X103952000Y-93861000D02*
X100074600Y-89983600D01*
X106202700Y-93861000D02*
X103952000Y-93861000D01*
X102538700Y-79756000D02*
X97282000Y-79756000D01*
X108948000Y-94311300D02*
X110236000Y-93023300D01*
X108998000Y-74422000D02*
X107872700Y-74422000D01*
X103201300Y-94311300D02*
X108948000Y-94311300D01*
X107872700Y-74422000D02*
X102538700Y-79756000D01*
X110236000Y-91948000D02*
X110236000Y-93023300D01*
X97282000Y-88392000D02*
X103201300Y-94311300D01*
X109982000Y-79756000D02*
X109982000Y-81281300D01*
X104394000Y-92710000D02*
X104394000Y-86869300D01*
X104394000Y-86869300D02*
X109982000Y-81281300D01*
G04 #@! TA.AperFunction,Conductor*
G36*
X174684539Y-68102185D02*
G01*
X174730294Y-68154989D01*
X174741500Y-68206500D01*
X174741500Y-91070000D01*
X174721815Y-91137039D01*
X174669011Y-91182794D01*
X174617500Y-91194000D01*
X166823288Y-91194000D01*
X166756249Y-91174315D01*
X166710494Y-91121511D01*
X166700550Y-91052353D01*
X166729575Y-90988797D01*
X166735607Y-90982319D01*
X168065649Y-89652278D01*
X169778108Y-87939819D01*
X169839431Y-87906334D01*
X169865789Y-87903500D01*
X170926825Y-87903500D01*
X170993864Y-87923185D01*
X171039619Y-87975989D01*
X171046091Y-87993565D01*
X171051768Y-88013519D01*
X171051775Y-88013537D01*
X171150936Y-88212679D01*
X171150943Y-88212691D01*
X171285020Y-88390238D01*
X171449437Y-88540123D01*
X171449439Y-88540125D01*
X171638595Y-88657245D01*
X171638596Y-88657245D01*
X171638599Y-88657247D01*
X171846060Y-88737618D01*
X172064757Y-88778500D01*
X172064759Y-88778500D01*
X172287241Y-88778500D01*
X172287243Y-88778500D01*
X172505940Y-88737618D01*
X172713401Y-88657247D01*
X172902562Y-88540124D01*
X173061207Y-88395500D01*
X173066979Y-88390238D01*
X173067886Y-88389038D01*
X173201058Y-88212689D01*
X173300229Y-88013528D01*
X173361115Y-87799536D01*
X173381643Y-87578000D01*
X173381642Y-87577994D01*
X173361115Y-87356464D01*
X173361114Y-87356462D01*
X173360930Y-87355816D01*
X173300229Y-87142472D01*
X173300224Y-87142461D01*
X173201061Y-86943316D01*
X173201056Y-86943308D01*
X173066979Y-86765761D01*
X172902562Y-86615876D01*
X172902560Y-86615874D01*
X172713404Y-86498754D01*
X172713398Y-86498751D01*
X172600260Y-86454922D01*
X172580704Y-86447346D01*
X172525305Y-86404774D01*
X172501714Y-86339007D01*
X172501500Y-86331720D01*
X172501500Y-82324280D01*
X172521185Y-82257241D01*
X172573989Y-82211486D01*
X172580693Y-82208658D01*
X172713401Y-82157247D01*
X172902562Y-82040124D01*
X173066981Y-81890236D01*
X173201058Y-81712689D01*
X173300229Y-81513528D01*
X173361115Y-81299536D01*
X173381643Y-81078000D01*
X173381642Y-81077994D01*
X173361115Y-80856464D01*
X173361114Y-80856462D01*
X173360773Y-80855264D01*
X173300229Y-80642472D01*
X173300224Y-80642461D01*
X173201061Y-80443316D01*
X173201056Y-80443308D01*
X173066979Y-80265761D01*
X172902562Y-80115876D01*
X172902560Y-80115874D01*
X172713404Y-79998754D01*
X172713398Y-79998752D01*
X172710303Y-79997553D01*
X172505940Y-79918382D01*
X172287243Y-79877500D01*
X172064757Y-79877500D01*
X171846060Y-79918382D01*
X171762997Y-79950561D01*
X171638601Y-79998752D01*
X171638595Y-79998754D01*
X171449439Y-80115874D01*
X171449437Y-80115876D01*
X171285020Y-80265761D01*
X171150943Y-80443308D01*
X171150938Y-80443316D01*
X171051775Y-80642461D01*
X171051769Y-80642476D01*
X170990885Y-80856462D01*
X170990884Y-80856464D01*
X170970357Y-81077999D01*
X170970357Y-81078000D01*
X170990884Y-81299535D01*
X170990885Y-81299537D01*
X171051769Y-81513523D01*
X171051775Y-81513538D01*
X171150938Y-81712683D01*
X171150943Y-81712691D01*
X171285020Y-81890238D01*
X171449437Y-82040123D01*
X171449439Y-82040125D01*
X171638595Y-82157245D01*
X171638601Y-82157248D01*
X171684050Y-82174855D01*
X171771295Y-82208653D01*
X171826695Y-82251226D01*
X171850286Y-82316993D01*
X171850500Y-82324280D01*
X171850500Y-86331720D01*
X171830815Y-86398759D01*
X171778011Y-86444514D01*
X171771306Y-86447341D01*
X171751740Y-86454922D01*
X171638601Y-86498751D01*
X171638595Y-86498754D01*
X171449439Y-86615874D01*
X171449437Y-86615876D01*
X171285020Y-86765761D01*
X171150943Y-86943308D01*
X171150936Y-86943320D01*
X171051775Y-87142462D01*
X171051768Y-87142480D01*
X171046091Y-87162435D01*
X171008811Y-87221528D01*
X170945502Y-87251085D01*
X170926825Y-87252500D01*
X169696510Y-87252500D01*
X169691106Y-87252264D01*
X169685593Y-87251781D01*
X169650792Y-87248736D01*
X169611705Y-87259210D01*
X169606425Y-87260381D01*
X169566557Y-87267411D01*
X169561583Y-87269221D01*
X169544718Y-87276207D01*
X169539913Y-87278447D01*
X169506762Y-87301659D01*
X169502203Y-87304563D01*
X169467145Y-87324805D01*
X169441123Y-87355816D01*
X169437468Y-87359804D01*
X169373224Y-87424047D01*
X169311900Y-87457531D01*
X169242209Y-87452546D01*
X169186275Y-87410675D01*
X169161966Y-87346601D01*
X169160612Y-87330260D01*
X169099587Y-87089282D01*
X168999731Y-86861630D01*
X168899434Y-86708116D01*
X168201929Y-87405622D01*
X168199116Y-87392085D01*
X168129558Y-87257844D01*
X168026362Y-87147348D01*
X167897181Y-87068791D01*
X167845997Y-87054450D01*
X168546057Y-86354390D01*
X168546056Y-86354389D01*
X168499229Y-86317943D01*
X168280614Y-86199635D01*
X168280603Y-86199630D01*
X168045493Y-86118916D01*
X167800293Y-86078000D01*
X167551707Y-86078000D01*
X167306506Y-86118916D01*
X167071396Y-86199630D01*
X167071390Y-86199632D01*
X166852761Y-86317949D01*
X166805942Y-86354388D01*
X166805942Y-86354390D01*
X167504431Y-87052878D01*
X167387542Y-87103651D01*
X167270261Y-87199066D01*
X167183072Y-87322585D01*
X167152645Y-87408197D01*
X166452564Y-86708116D01*
X166352267Y-86861632D01*
X166252412Y-87089282D01*
X166191387Y-87330261D01*
X166191385Y-87330270D01*
X166170859Y-87577994D01*
X166170859Y-87578005D01*
X166191385Y-87825729D01*
X166191387Y-87825738D01*
X166252412Y-88066717D01*
X166352266Y-88294364D01*
X166452564Y-88447882D01*
X167150070Y-87750376D01*
X167152884Y-87763915D01*
X167222442Y-87898156D01*
X167325638Y-88008652D01*
X167454819Y-88087209D01*
X167506002Y-88101549D01*
X166805942Y-88801609D01*
X166852768Y-88838055D01*
X166852770Y-88838056D01*
X167071385Y-88956364D01*
X167071396Y-88956369D01*
X167306507Y-89037083D01*
X167457697Y-89062312D01*
X167520582Y-89092762D01*
X167557022Y-89152377D01*
X167555447Y-89222229D01*
X167524969Y-89272302D01*
X166006781Y-90790491D01*
X165945458Y-90823976D01*
X165875766Y-90818992D01*
X165819833Y-90777120D01*
X165795416Y-90711656D01*
X165795100Y-90702810D01*
X165795100Y-81078005D01*
X166170859Y-81078005D01*
X166191385Y-81325729D01*
X166191387Y-81325738D01*
X166252412Y-81566717D01*
X166352266Y-81794364D01*
X166452564Y-81947882D01*
X167150070Y-81250376D01*
X167152884Y-81263915D01*
X167222442Y-81398156D01*
X167325638Y-81508652D01*
X167454819Y-81587209D01*
X167506002Y-81601549D01*
X166805942Y-82301609D01*
X166852768Y-82338055D01*
X166852770Y-82338056D01*
X167071385Y-82456364D01*
X167071396Y-82456369D01*
X167306506Y-82537083D01*
X167551707Y-82578000D01*
X167800293Y-82578000D01*
X168045493Y-82537083D01*
X168280603Y-82456369D01*
X168280614Y-82456364D01*
X168499228Y-82338057D01*
X168499231Y-82338055D01*
X168546056Y-82301609D01*
X167847568Y-81603121D01*
X167964458Y-81552349D01*
X168081739Y-81456934D01*
X168168928Y-81333415D01*
X168199354Y-81247802D01*
X168899434Y-81947882D01*
X168999731Y-81794369D01*
X169099587Y-81566717D01*
X169160612Y-81325738D01*
X169160614Y-81325729D01*
X169181141Y-81078005D01*
X169181141Y-81077994D01*
X169160614Y-80830270D01*
X169160612Y-80830261D01*
X169099587Y-80589282D01*
X168999731Y-80361630D01*
X168899434Y-80208116D01*
X168201929Y-80905622D01*
X168199116Y-80892085D01*
X168129558Y-80757844D01*
X168026362Y-80647348D01*
X167897181Y-80568791D01*
X167845997Y-80554450D01*
X168546057Y-79854390D01*
X168546056Y-79854389D01*
X168499229Y-79817943D01*
X168280614Y-79699635D01*
X168280603Y-79699630D01*
X168045493Y-79618916D01*
X167800293Y-79578000D01*
X167551707Y-79578000D01*
X167306506Y-79618916D01*
X167071396Y-79699630D01*
X167071390Y-79699632D01*
X166852761Y-79817949D01*
X166805942Y-79854388D01*
X166805942Y-79854390D01*
X167504431Y-80552878D01*
X167387542Y-80603651D01*
X167270261Y-80699066D01*
X167183072Y-80822585D01*
X167152645Y-80908197D01*
X166452564Y-80208116D01*
X166352267Y-80361632D01*
X166252412Y-80589282D01*
X166191387Y-80830261D01*
X166191385Y-80830270D01*
X166170859Y-81077994D01*
X166170859Y-81078005D01*
X165795100Y-81078005D01*
X165795100Y-75475820D01*
X165795336Y-75470413D01*
X165798864Y-75430093D01*
X165792950Y-75408023D01*
X165788382Y-75390976D01*
X165787216Y-75385718D01*
X165780188Y-75345855D01*
X165780186Y-75345852D01*
X165780186Y-75345850D01*
X165778360Y-75340833D01*
X165771420Y-75324076D01*
X165769154Y-75319219D01*
X165769154Y-75319216D01*
X165745939Y-75286062D01*
X165743033Y-75281499D01*
X165722796Y-75246448D01*
X165722795Y-75246447D01*
X165722794Y-75246445D01*
X165691777Y-75220418D01*
X165687793Y-75216767D01*
X163242028Y-72771002D01*
X166774506Y-72771002D01*
X166794469Y-73139196D01*
X166794470Y-73139213D01*
X166854122Y-73503068D01*
X166854128Y-73503094D01*
X166952768Y-73858365D01*
X166952770Y-73858371D01*
X166952772Y-73858377D01*
X166952773Y-73858379D01*
X166954798Y-73863462D01*
X167089255Y-74200926D01*
X167089261Y-74200938D01*
X167261973Y-74526708D01*
X167261976Y-74526713D01*
X167261978Y-74526716D01*
X167323958Y-74618129D01*
X167468909Y-74831916D01*
X167652488Y-75048041D01*
X167707627Y-75112956D01*
X167975330Y-75366538D01*
X168268881Y-75589690D01*
X168584838Y-75779795D01*
X168584840Y-75779796D01*
X168584842Y-75779797D01*
X168584846Y-75779799D01*
X168859348Y-75906797D01*
X168919497Y-75934625D01*
X169268934Y-76052364D01*
X169629052Y-76131632D01*
X169995630Y-76171500D01*
X169995636Y-76171500D01*
X170364364Y-76171500D01*
X170364370Y-76171500D01*
X170730948Y-76131632D01*
X171091066Y-76052364D01*
X171440503Y-75934625D01*
X171775162Y-75779795D01*
X172091119Y-75589690D01*
X172384670Y-75366538D01*
X172652373Y-75112956D01*
X172891090Y-74831917D01*
X173098022Y-74526716D01*
X173270743Y-74200930D01*
X173407227Y-73858379D01*
X173413930Y-73834239D01*
X173430268Y-73775393D01*
X173505875Y-73503081D01*
X173531590Y-73346226D01*
X173565529Y-73139213D01*
X173565529Y-73139210D01*
X173565531Y-73139199D01*
X173585494Y-72771000D01*
X173565531Y-72402801D01*
X173526693Y-72165905D01*
X173505877Y-72038931D01*
X173505876Y-72038930D01*
X173505875Y-72038919D01*
X173442492Y-71810634D01*
X173407231Y-71683634D01*
X173407229Y-71683628D01*
X173407228Y-71683627D01*
X173407227Y-71683621D01*
X173270743Y-71341070D01*
X173098022Y-71015284D01*
X172891090Y-70710083D01*
X172652373Y-70429044D01*
X172384670Y-70175462D01*
X172091119Y-69952310D01*
X171775162Y-69762205D01*
X171775161Y-69762204D01*
X171775157Y-69762202D01*
X171775153Y-69762200D01*
X171440513Y-69607379D01*
X171440508Y-69607377D01*
X171440503Y-69607375D01*
X171232727Y-69537367D01*
X171091065Y-69489635D01*
X170730946Y-69410367D01*
X170364371Y-69370500D01*
X170364370Y-69370500D01*
X169995630Y-69370500D01*
X169995628Y-69370500D01*
X169629053Y-69410367D01*
X169268934Y-69489635D01*
X168998995Y-69580589D01*
X168919497Y-69607375D01*
X168919494Y-69607376D01*
X168919486Y-69607379D01*
X168584846Y-69762200D01*
X168584842Y-69762202D01*
X168373771Y-69889200D01*
X168268881Y-69952310D01*
X168168410Y-70028685D01*
X167975330Y-70175461D01*
X167975330Y-70175462D01*
X167707626Y-70429044D01*
X167468909Y-70710083D01*
X167261979Y-71015282D01*
X167261973Y-71015291D01*
X167089261Y-71341061D01*
X167089255Y-71341073D01*
X166952770Y-71683628D01*
X166952768Y-71683634D01*
X166854128Y-72038905D01*
X166854122Y-72038931D01*
X166794470Y-72402786D01*
X166794469Y-72402803D01*
X166774506Y-72770997D01*
X166774506Y-72771002D01*
X163242028Y-72771002D01*
X162091207Y-71620181D01*
X162057722Y-71558858D01*
X162062706Y-71489166D01*
X162104578Y-71433233D01*
X162170042Y-71408816D01*
X162178888Y-71408500D01*
X162413750Y-71408500D01*
X162413751Y-71408499D01*
X162435009Y-71404271D01*
X162472229Y-71396868D01*
X162472229Y-71396867D01*
X162472231Y-71396867D01*
X162538552Y-71352552D01*
X162582867Y-71286231D01*
X162582867Y-71286229D01*
X162582868Y-71286229D01*
X162594499Y-71227752D01*
X162594500Y-71227750D01*
X162594500Y-69488249D01*
X162594499Y-69488247D01*
X162582868Y-69429770D01*
X162582867Y-69429769D01*
X162538552Y-69363447D01*
X162472230Y-69319132D01*
X162472229Y-69319131D01*
X162413752Y-69307500D01*
X162413748Y-69307500D01*
X160674252Y-69307500D01*
X160674247Y-69307500D01*
X160615770Y-69319131D01*
X160615769Y-69319132D01*
X160549447Y-69363447D01*
X160505132Y-69429769D01*
X160505131Y-69429770D01*
X160493500Y-69488247D01*
X160493500Y-71227752D01*
X160505131Y-71286229D01*
X160505132Y-71286230D01*
X160549447Y-71352552D01*
X160615769Y-71396867D01*
X160615770Y-71396868D01*
X160674247Y-71408499D01*
X160674250Y-71408500D01*
X160674252Y-71408500D01*
X161092853Y-71408500D01*
X161159892Y-71428185D01*
X161205647Y-71480989D01*
X161216381Y-71543311D01*
X161214735Y-71562109D01*
X161225212Y-71601210D01*
X161226383Y-71606490D01*
X161233411Y-71646343D01*
X161235235Y-71651355D01*
X161242197Y-71668161D01*
X161244445Y-71672981D01*
X161244446Y-71672984D01*
X161251894Y-71683621D01*
X161267655Y-71706131D01*
X161270561Y-71710692D01*
X161290806Y-71745755D01*
X161321815Y-71771775D01*
X161325805Y-71775431D01*
X165107781Y-75557407D01*
X165141266Y-75618730D01*
X165144100Y-75645088D01*
X165144100Y-76913711D01*
X165124415Y-76980750D01*
X165071611Y-77026505D01*
X165002453Y-77036449D01*
X164938897Y-77007424D01*
X164932419Y-77001392D01*
X159551207Y-71620181D01*
X159517722Y-71558858D01*
X159522706Y-71489166D01*
X159564578Y-71433233D01*
X159630042Y-71408816D01*
X159638888Y-71408500D01*
X159873750Y-71408500D01*
X159873751Y-71408499D01*
X159895009Y-71404271D01*
X159932229Y-71396868D01*
X159932229Y-71396867D01*
X159932231Y-71396867D01*
X159998552Y-71352552D01*
X160042867Y-71286231D01*
X160042867Y-71286229D01*
X160042868Y-71286229D01*
X160054499Y-71227752D01*
X160054500Y-71227750D01*
X160054500Y-69488249D01*
X160054499Y-69488247D01*
X160042868Y-69429770D01*
X160042867Y-69429769D01*
X159998552Y-69363447D01*
X159932230Y-69319132D01*
X159932229Y-69319131D01*
X159873752Y-69307500D01*
X159873748Y-69307500D01*
X158134252Y-69307500D01*
X158134247Y-69307500D01*
X158075770Y-69319131D01*
X158075769Y-69319132D01*
X158009447Y-69363447D01*
X157965132Y-69429769D01*
X157965131Y-69429770D01*
X157953500Y-69488247D01*
X157953500Y-71227752D01*
X157965131Y-71286229D01*
X157965132Y-71286230D01*
X158009447Y-71352552D01*
X158075769Y-71396867D01*
X158075770Y-71396868D01*
X158134247Y-71408499D01*
X158134250Y-71408500D01*
X158134252Y-71408500D01*
X158552853Y-71408500D01*
X158619892Y-71428185D01*
X158665647Y-71480989D01*
X158676381Y-71543311D01*
X158674735Y-71562109D01*
X158685212Y-71601210D01*
X158686383Y-71606490D01*
X158693411Y-71646343D01*
X158695235Y-71651355D01*
X158702197Y-71668161D01*
X158704445Y-71672981D01*
X158704446Y-71672984D01*
X158711894Y-71683621D01*
X158727655Y-71706131D01*
X158730561Y-71710692D01*
X158750806Y-71745755D01*
X158781815Y-71771775D01*
X158785805Y-71775431D01*
X164639581Y-77629207D01*
X164673066Y-77690530D01*
X164675900Y-77716888D01*
X164675900Y-80152090D01*
X164656215Y-80219129D01*
X164639581Y-80239771D01*
X163974929Y-80904422D01*
X163972116Y-80890885D01*
X163902558Y-80756644D01*
X163799362Y-80646148D01*
X163670181Y-80567591D01*
X163618997Y-80553250D01*
X164319057Y-79853190D01*
X164319056Y-79853189D01*
X164272229Y-79816743D01*
X164053614Y-79698435D01*
X164053603Y-79698430D01*
X163818493Y-79617716D01*
X163573293Y-79576800D01*
X163324707Y-79576800D01*
X163079506Y-79617716D01*
X162844396Y-79698430D01*
X162844390Y-79698432D01*
X162625761Y-79816749D01*
X162578942Y-79853188D01*
X162578942Y-79853190D01*
X163277431Y-80551678D01*
X163160542Y-80602451D01*
X163043261Y-80697866D01*
X162956072Y-80821385D01*
X162925645Y-80906997D01*
X162225564Y-80206916D01*
X162125267Y-80360432D01*
X162025412Y-80588082D01*
X161964387Y-80829061D01*
X161964385Y-80829070D01*
X161943859Y-81076794D01*
X161943859Y-81076805D01*
X161964385Y-81324529D01*
X161964387Y-81324538D01*
X162025412Y-81565517D01*
X162125266Y-81793164D01*
X162225564Y-81946682D01*
X162923070Y-81249176D01*
X162925884Y-81262715D01*
X162995442Y-81396956D01*
X163098638Y-81507452D01*
X163227819Y-81586009D01*
X163279002Y-81600349D01*
X162578942Y-82300409D01*
X162625768Y-82336855D01*
X162625770Y-82336856D01*
X162844385Y-82455164D01*
X162844396Y-82455169D01*
X163079506Y-82535883D01*
X163324707Y-82576800D01*
X163573293Y-82576800D01*
X163818493Y-82535883D01*
X164053603Y-82455169D01*
X164053614Y-82455164D01*
X164272228Y-82336857D01*
X164272231Y-82336855D01*
X164319056Y-82300409D01*
X163620568Y-81601921D01*
X163737458Y-81551149D01*
X163854739Y-81455734D01*
X163941928Y-81332215D01*
X163972354Y-81246601D01*
X164639581Y-81913828D01*
X164673066Y-81975151D01*
X164675900Y-82001509D01*
X164675900Y-86652090D01*
X164656215Y-86719129D01*
X164639581Y-86739771D01*
X163974929Y-87404422D01*
X163972116Y-87390885D01*
X163902558Y-87256644D01*
X163799362Y-87146148D01*
X163670181Y-87067591D01*
X163618997Y-87053250D01*
X164319057Y-86353190D01*
X164319056Y-86353189D01*
X164272229Y-86316743D01*
X164053614Y-86198435D01*
X164053603Y-86198430D01*
X163818493Y-86117716D01*
X163573293Y-86076800D01*
X163324707Y-86076800D01*
X163079506Y-86117716D01*
X162844396Y-86198430D01*
X162844390Y-86198432D01*
X162625761Y-86316749D01*
X162578942Y-86353188D01*
X162578942Y-86353190D01*
X163277431Y-87051678D01*
X163160542Y-87102451D01*
X163043261Y-87197866D01*
X162956072Y-87321385D01*
X162925645Y-87406997D01*
X162225564Y-86706916D01*
X162125267Y-86860432D01*
X162025412Y-87088082D01*
X161964387Y-87329061D01*
X161964385Y-87329070D01*
X161943859Y-87576794D01*
X161943859Y-87576805D01*
X161964385Y-87824529D01*
X161964387Y-87824538D01*
X162025412Y-88065517D01*
X162125266Y-88293164D01*
X162225564Y-88446682D01*
X162923070Y-87749176D01*
X162925884Y-87762715D01*
X162995442Y-87896956D01*
X163098638Y-88007452D01*
X163227819Y-88086009D01*
X163279002Y-88100349D01*
X162578942Y-88800409D01*
X162625768Y-88836855D01*
X162625770Y-88836856D01*
X162844385Y-88955164D01*
X162844396Y-88955169D01*
X163079506Y-89035883D01*
X163324707Y-89076800D01*
X163573293Y-89076800D01*
X163818493Y-89035883D01*
X164053603Y-88955169D01*
X164053614Y-88955164D01*
X164272228Y-88836857D01*
X164272231Y-88836855D01*
X164319056Y-88800409D01*
X163620568Y-88101921D01*
X163737458Y-88051149D01*
X163854739Y-87955734D01*
X163941928Y-87832215D01*
X163972354Y-87746601D01*
X164639581Y-88413828D01*
X164673066Y-88475151D01*
X164675900Y-88501509D01*
X164675900Y-103784712D01*
X164656215Y-103851751D01*
X164603411Y-103897506D01*
X164534253Y-103907450D01*
X164470697Y-103878425D01*
X164464219Y-103872393D01*
X157778619Y-97186793D01*
X157745134Y-97125470D01*
X157742300Y-97099112D01*
X157742300Y-88340922D01*
X157761985Y-88273883D01*
X157814789Y-88228128D01*
X157883947Y-88218184D01*
X157947503Y-88247209D01*
X157965254Y-88266195D01*
X158058020Y-88389038D01*
X158222437Y-88538923D01*
X158222439Y-88538925D01*
X158411595Y-88656045D01*
X158411596Y-88656045D01*
X158411599Y-88656047D01*
X158619060Y-88736418D01*
X158837757Y-88777300D01*
X158837759Y-88777300D01*
X159060241Y-88777300D01*
X159060243Y-88777300D01*
X159278940Y-88736418D01*
X159486401Y-88656047D01*
X159675562Y-88538924D01*
X159836737Y-88391993D01*
X159839979Y-88389038D01*
X159842666Y-88385481D01*
X159974058Y-88211489D01*
X160073229Y-88012328D01*
X160134115Y-87798336D01*
X160154643Y-87576800D01*
X160154642Y-87576794D01*
X160134115Y-87355264D01*
X160134114Y-87355262D01*
X160134031Y-87354971D01*
X160073229Y-87141272D01*
X160072555Y-87139918D01*
X159974061Y-86942116D01*
X159974056Y-86942108D01*
X159839979Y-86764561D01*
X159675562Y-86614676D01*
X159675560Y-86614674D01*
X159486404Y-86497554D01*
X159486398Y-86497551D01*
X159388312Y-86459553D01*
X159353704Y-86446146D01*
X159298305Y-86403574D01*
X159274714Y-86337807D01*
X159274500Y-86330520D01*
X159274500Y-82323080D01*
X159294185Y-82256041D01*
X159346989Y-82210286D01*
X159353693Y-82207458D01*
X159486401Y-82156047D01*
X159675562Y-82038924D01*
X159815282Y-81911551D01*
X159839979Y-81889038D01*
X159876315Y-81840922D01*
X159974058Y-81711489D01*
X160073229Y-81512328D01*
X160134115Y-81298336D01*
X160154643Y-81076800D01*
X160154642Y-81076794D01*
X160134115Y-80855264D01*
X160134114Y-80855262D01*
X160127003Y-80830270D01*
X160073229Y-80641272D01*
X160069515Y-80633813D01*
X159974061Y-80442116D01*
X159974056Y-80442108D01*
X159839979Y-80264561D01*
X159675562Y-80114676D01*
X159675560Y-80114674D01*
X159486404Y-79997554D01*
X159486398Y-79997552D01*
X159278940Y-79917182D01*
X159060243Y-79876300D01*
X158837757Y-79876300D01*
X158619060Y-79917182D01*
X158558947Y-79940470D01*
X158411601Y-79997552D01*
X158411595Y-79997554D01*
X158222439Y-80114674D01*
X158222437Y-80114676D01*
X158058020Y-80264561D01*
X157965254Y-80387404D01*
X157909145Y-80429040D01*
X157839433Y-80433731D01*
X157778251Y-80399989D01*
X157745024Y-80338526D01*
X157742300Y-80312677D01*
X157742300Y-75043012D01*
X157742536Y-75037606D01*
X157746063Y-74997291D01*
X157735585Y-74958190D01*
X157734418Y-74952930D01*
X157727388Y-74913055D01*
X157727387Y-74913053D01*
X157725560Y-74908033D01*
X157718620Y-74891276D01*
X157716354Y-74886419D01*
X157716354Y-74886416D01*
X157693139Y-74853262D01*
X157690233Y-74848699D01*
X157669996Y-74813648D01*
X157669995Y-74813647D01*
X157669994Y-74813645D01*
X157638977Y-74787618D01*
X157634993Y-74783967D01*
X154471207Y-71620181D01*
X154437722Y-71558858D01*
X154442706Y-71489166D01*
X154484578Y-71433233D01*
X154550042Y-71408816D01*
X154558888Y-71408500D01*
X154793750Y-71408500D01*
X154793751Y-71408499D01*
X154815009Y-71404271D01*
X154852229Y-71396868D01*
X154852229Y-71396867D01*
X154852231Y-71396867D01*
X154918552Y-71352552D01*
X154962867Y-71286231D01*
X154962867Y-71286229D01*
X154962868Y-71286229D01*
X154974499Y-71227752D01*
X154974500Y-71227750D01*
X154974500Y-70767225D01*
X154994185Y-70700186D01*
X155046989Y-70654431D01*
X155116147Y-70644487D01*
X155160497Y-70659837D01*
X155175655Y-70668588D01*
X155193447Y-70671724D01*
X155214321Y-70677317D01*
X155231306Y-70683500D01*
X155260225Y-70683500D01*
X155289500Y-70683500D01*
X155356539Y-70703185D01*
X155402294Y-70755989D01*
X155413500Y-70807500D01*
X155413500Y-71227752D01*
X155425131Y-71286229D01*
X155425132Y-71286230D01*
X155469447Y-71352552D01*
X155535769Y-71396867D01*
X155535770Y-71396868D01*
X155594247Y-71408499D01*
X155594250Y-71408500D01*
X155594252Y-71408500D01*
X157333750Y-71408500D01*
X157333751Y-71408499D01*
X157355009Y-71404271D01*
X157392229Y-71396868D01*
X157392229Y-71396867D01*
X157392231Y-71396867D01*
X157458552Y-71352552D01*
X157502867Y-71286231D01*
X157502867Y-71286229D01*
X157502868Y-71286229D01*
X157514499Y-71227752D01*
X157514500Y-71227750D01*
X157514500Y-69488249D01*
X157514499Y-69488247D01*
X157502868Y-69429770D01*
X157502867Y-69429769D01*
X157458552Y-69363447D01*
X157392230Y-69319132D01*
X157392229Y-69319131D01*
X157333752Y-69307500D01*
X157333748Y-69307500D01*
X155594252Y-69307500D01*
X155594250Y-69307500D01*
X155586078Y-69309125D01*
X155516487Y-69302893D01*
X155474213Y-69275187D01*
X155336932Y-69137906D01*
X155163419Y-68964393D01*
X155159774Y-68960414D01*
X155133756Y-68929407D01*
X155133755Y-68929406D01*
X155122358Y-68922826D01*
X155098692Y-68909161D01*
X155094131Y-68906255D01*
X155080987Y-68897052D01*
X155060984Y-68883046D01*
X155060981Y-68883045D01*
X155056161Y-68880797D01*
X155039355Y-68873835D01*
X155034343Y-68872011D01*
X154994490Y-68864983D01*
X154989210Y-68863812D01*
X154950108Y-68853335D01*
X154915192Y-68856390D01*
X154909781Y-68856864D01*
X154904378Y-68857100D01*
X147818313Y-68857100D01*
X147812911Y-68856864D01*
X147805526Y-68856218D01*
X147772592Y-68853336D01*
X147772591Y-68853336D01*
X147733499Y-68863811D01*
X147728219Y-68864982D01*
X147688354Y-68872012D01*
X147683362Y-68873829D01*
X147666517Y-68880806D01*
X147661713Y-68883046D01*
X147628566Y-68906256D01*
X147624006Y-68909162D01*
X147588948Y-68929404D01*
X147588940Y-68929410D01*
X147562923Y-68960415D01*
X147559269Y-68964404D01*
X147450503Y-69073170D01*
X147446514Y-69076825D01*
X147415505Y-69102845D01*
X147395262Y-69137906D01*
X147392356Y-69142466D01*
X147369146Y-69175613D01*
X147366906Y-69180417D01*
X147359929Y-69197261D01*
X147358112Y-69202254D01*
X147355943Y-69214556D01*
X147324914Y-69277158D01*
X147264966Y-69313046D01*
X147209638Y-69314638D01*
X147173749Y-69307500D01*
X147173748Y-69307500D01*
X145434252Y-69307500D01*
X145434247Y-69307500D01*
X145375770Y-69319131D01*
X145375769Y-69319132D01*
X145309447Y-69363447D01*
X145265132Y-69429769D01*
X145265131Y-69429770D01*
X145253500Y-69488247D01*
X145253500Y-71227752D01*
X145265131Y-71286229D01*
X145265132Y-71286230D01*
X145309447Y-71352552D01*
X145375769Y-71396867D01*
X145375770Y-71396868D01*
X145434247Y-71408499D01*
X145434250Y-71408500D01*
X145434252Y-71408500D01*
X147173748Y-71408500D01*
X147195007Y-71404271D01*
X147264598Y-71410497D01*
X147319776Y-71453359D01*
X147343022Y-71519248D01*
X147343200Y-71525888D01*
X147343200Y-71649378D01*
X147342964Y-71654785D01*
X147339435Y-71695107D01*
X147341592Y-71703156D01*
X147339929Y-71773006D01*
X147300765Y-71830868D01*
X147265488Y-71849055D01*
X147266147Y-71850646D01*
X147258639Y-71853755D01*
X147258638Y-71853756D01*
X147210308Y-71873774D01*
X147112560Y-71914263D01*
X146987118Y-72010518D01*
X146890863Y-72135960D01*
X146830356Y-72282037D01*
X146830355Y-72282039D01*
X146809718Y-72438798D01*
X146809718Y-72438801D01*
X146818646Y-72506618D01*
X146807880Y-72575653D01*
X146783388Y-72610484D01*
X145831803Y-73562070D01*
X145827814Y-73565725D01*
X145796805Y-73591745D01*
X145776562Y-73626806D01*
X145773656Y-73631366D01*
X145750446Y-73664513D01*
X145748206Y-73669317D01*
X145741229Y-73686161D01*
X145739410Y-73691159D01*
X145732383Y-73731011D01*
X145731212Y-73736291D01*
X145720735Y-73775391D01*
X145722443Y-73794905D01*
X145723971Y-73812372D01*
X145724264Y-73815713D01*
X145724500Y-73821120D01*
X145724500Y-80330479D01*
X145704815Y-80397518D01*
X145652011Y-80443273D01*
X145640763Y-80447760D01*
X145485504Y-80501061D01*
X145485495Y-80501064D01*
X145281371Y-80611531D01*
X145281365Y-80611535D01*
X145098222Y-80754081D01*
X145098219Y-80754084D01*
X145098216Y-80754086D01*
X145098216Y-80754087D01*
X145065239Y-80789910D01*
X144941016Y-80924852D01*
X144814075Y-81119151D01*
X144720842Y-81331699D01*
X144663866Y-81556691D01*
X144663864Y-81556702D01*
X144644700Y-81787993D01*
X144644700Y-81788006D01*
X144663864Y-82019297D01*
X144663866Y-82019308D01*
X144720842Y-82244300D01*
X144814075Y-82456848D01*
X144941016Y-82651147D01*
X144941019Y-82651151D01*
X144941021Y-82651153D01*
X145098216Y-82821913D01*
X145098219Y-82821915D01*
X145098222Y-82821918D01*
X145281365Y-82964464D01*
X145281371Y-82964468D01*
X145281374Y-82964470D01*
X145485497Y-83074936D01*
X145598328Y-83113671D01*
X145705015Y-83150297D01*
X145705017Y-83150297D01*
X145705019Y-83150298D01*
X145933951Y-83188500D01*
X145933952Y-83188500D01*
X146166048Y-83188500D01*
X146166049Y-83188500D01*
X146394981Y-83150298D01*
X146614503Y-83074936D01*
X146818626Y-82964470D01*
X147001784Y-82821913D01*
X147127871Y-82684945D01*
X147187757Y-82648955D01*
X147257595Y-82651055D01*
X147315211Y-82690578D01*
X147342313Y-82754978D01*
X147343100Y-82768928D01*
X147343100Y-85125071D01*
X147323415Y-85192110D01*
X147270611Y-85237865D01*
X147201453Y-85247809D01*
X147137897Y-85218784D01*
X147127870Y-85209054D01*
X147112272Y-85192110D01*
X147001784Y-85072087D01*
X147001779Y-85072083D01*
X147001777Y-85072081D01*
X146818634Y-84929535D01*
X146818628Y-84929531D01*
X146614504Y-84819064D01*
X146614495Y-84819061D01*
X146394984Y-84743702D01*
X146223282Y-84715050D01*
X146166049Y-84705500D01*
X145933951Y-84705500D01*
X145888164Y-84713140D01*
X145705015Y-84743702D01*
X145485504Y-84819061D01*
X145485495Y-84819064D01*
X145281371Y-84929531D01*
X145281365Y-84929535D01*
X145098222Y-85072081D01*
X145098219Y-85072084D01*
X145098216Y-85072086D01*
X145098216Y-85072087D01*
X145078959Y-85093006D01*
X144941016Y-85242852D01*
X144814075Y-85437151D01*
X144720842Y-85649699D01*
X144663866Y-85874691D01*
X144663864Y-85874702D01*
X144644700Y-86105993D01*
X144644700Y-86106006D01*
X144663864Y-86337297D01*
X144663866Y-86337308D01*
X144720842Y-86562300D01*
X144814075Y-86774848D01*
X144941016Y-86969147D01*
X144941019Y-86969151D01*
X144941021Y-86969153D01*
X145098216Y-87139913D01*
X145098219Y-87139915D01*
X145098222Y-87139918D01*
X145281365Y-87282464D01*
X145281371Y-87282468D01*
X145281374Y-87282470D01*
X145485497Y-87392936D01*
X145600991Y-87432585D01*
X145640763Y-87446239D01*
X145697778Y-87486624D01*
X145723909Y-87551424D01*
X145724500Y-87563520D01*
X145724500Y-88966479D01*
X145704815Y-89033518D01*
X145652011Y-89079273D01*
X145640763Y-89083760D01*
X145485504Y-89137061D01*
X145485495Y-89137064D01*
X145281371Y-89247531D01*
X145281365Y-89247535D01*
X145098222Y-89390081D01*
X145098219Y-89390084D01*
X145098216Y-89390086D01*
X145098216Y-89390087D01*
X145054928Y-89437111D01*
X144941016Y-89560852D01*
X144814075Y-89755151D01*
X144720842Y-89967699D01*
X144663866Y-90192691D01*
X144663864Y-90192702D01*
X144644700Y-90423993D01*
X144644700Y-90424006D01*
X144663864Y-90655297D01*
X144663866Y-90655308D01*
X144720842Y-90880300D01*
X144814075Y-91092848D01*
X144941016Y-91287147D01*
X144941019Y-91287151D01*
X144941021Y-91287153D01*
X145098216Y-91457913D01*
X145098219Y-91457915D01*
X145098222Y-91457918D01*
X145281365Y-91600464D01*
X145281371Y-91600468D01*
X145281374Y-91600470D01*
X145383574Y-91655778D01*
X145482843Y-91709500D01*
X145485497Y-91710936D01*
X145540458Y-91729804D01*
X145640763Y-91764239D01*
X145697778Y-91804624D01*
X145723909Y-91869424D01*
X145724500Y-91881520D01*
X145724500Y-92567778D01*
X145724264Y-92573185D01*
X145720735Y-92613508D01*
X145731212Y-92652610D01*
X145732383Y-92657890D01*
X145739411Y-92697743D01*
X145741235Y-92702755D01*
X145748197Y-92719561D01*
X145750445Y-92724381D01*
X145750446Y-92724384D01*
X145764079Y-92743854D01*
X145773655Y-92757531D01*
X145776561Y-92762092D01*
X145796806Y-92797155D01*
X145827815Y-92823175D01*
X145831805Y-92826831D01*
X146134793Y-93129819D01*
X146168278Y-93191142D01*
X146163294Y-93260834D01*
X146121422Y-93316767D01*
X146055958Y-93341184D01*
X146047112Y-93341500D01*
X145933951Y-93341500D01*
X145888164Y-93349140D01*
X145705015Y-93379702D01*
X145485504Y-93455061D01*
X145485495Y-93455064D01*
X145281371Y-93565531D01*
X145281365Y-93565535D01*
X145098222Y-93708081D01*
X145098219Y-93708084D01*
X144941016Y-93878852D01*
X144814075Y-94073151D01*
X144720842Y-94285699D01*
X144663866Y-94510691D01*
X144663864Y-94510702D01*
X144644700Y-94741993D01*
X144644700Y-94742006D01*
X144663864Y-94973297D01*
X144663866Y-94973308D01*
X144720842Y-95198300D01*
X144814075Y-95410848D01*
X144941016Y-95605147D01*
X144941019Y-95605151D01*
X144941021Y-95605153D01*
X145098216Y-95775913D01*
X145098219Y-95775915D01*
X145098222Y-95775918D01*
X145281365Y-95918464D01*
X145281371Y-95918468D01*
X145281374Y-95918470D01*
X145485497Y-96028936D01*
X145605089Y-96069992D01*
X145640763Y-96082239D01*
X145697778Y-96122624D01*
X145723909Y-96187424D01*
X145724500Y-96199520D01*
X145724500Y-96250378D01*
X145724264Y-96255785D01*
X145720735Y-96296108D01*
X145731212Y-96335210D01*
X145732383Y-96340490D01*
X145739411Y-96380343D01*
X145741235Y-96385355D01*
X145748197Y-96402161D01*
X145750445Y-96406981D01*
X145750446Y-96406984D01*
X145764452Y-96426987D01*
X145773655Y-96440131D01*
X145776561Y-96444692D01*
X145796806Y-96479755D01*
X145827815Y-96505775D01*
X145831805Y-96509431D01*
X147153443Y-97831069D01*
X147186928Y-97892392D01*
X147181944Y-97962084D01*
X147140072Y-98018017D01*
X147074608Y-98042434D01*
X147006335Y-98027582D01*
X146989600Y-98016604D01*
X146818626Y-97883530D01*
X146721687Y-97831069D01*
X146614504Y-97773064D01*
X146614495Y-97773061D01*
X146394984Y-97697702D01*
X146223282Y-97669050D01*
X146166049Y-97659500D01*
X145933951Y-97659500D01*
X145888164Y-97667140D01*
X145705015Y-97697702D01*
X145485504Y-97773061D01*
X145485495Y-97773064D01*
X145281371Y-97883531D01*
X145281365Y-97883535D01*
X145098222Y-98026081D01*
X145098219Y-98026084D01*
X144941016Y-98196852D01*
X144814075Y-98391151D01*
X144720842Y-98603699D01*
X144663866Y-98828691D01*
X144663864Y-98828702D01*
X144644276Y-99065111D01*
X144641966Y-99064919D01*
X144625015Y-99122651D01*
X144572211Y-99168406D01*
X144503053Y-99178350D01*
X144439497Y-99149325D01*
X144433019Y-99143293D01*
X136505819Y-91216093D01*
X136472334Y-91154770D01*
X136469500Y-91128412D01*
X136469500Y-71532500D01*
X136489185Y-71465461D01*
X136541989Y-71419706D01*
X136593500Y-71408500D01*
X137013750Y-71408500D01*
X137013751Y-71408499D01*
X137035009Y-71404271D01*
X137072229Y-71396868D01*
X137072229Y-71396867D01*
X137072231Y-71396867D01*
X137138552Y-71352552D01*
X137182867Y-71286231D01*
X137182867Y-71286229D01*
X137182868Y-71286229D01*
X137194499Y-71227752D01*
X137633500Y-71227752D01*
X137645131Y-71286229D01*
X137645132Y-71286230D01*
X137689447Y-71352552D01*
X137755769Y-71396867D01*
X137755770Y-71396868D01*
X137814247Y-71408499D01*
X137814250Y-71408500D01*
X137814252Y-71408500D01*
X139553750Y-71408500D01*
X139553751Y-71408499D01*
X139575009Y-71404271D01*
X139612229Y-71396868D01*
X139612229Y-71396867D01*
X139612231Y-71396867D01*
X139678552Y-71352552D01*
X139722867Y-71286231D01*
X139722867Y-71286229D01*
X139722868Y-71286229D01*
X139734499Y-71227752D01*
X140173500Y-71227752D01*
X140185131Y-71286229D01*
X140185132Y-71286230D01*
X140229447Y-71352552D01*
X140295769Y-71396867D01*
X140295770Y-71396868D01*
X140354247Y-71408499D01*
X140354250Y-71408500D01*
X140354252Y-71408500D01*
X142093750Y-71408500D01*
X142093751Y-71408499D01*
X142115009Y-71404271D01*
X142152229Y-71396868D01*
X142152229Y-71396867D01*
X142152231Y-71396867D01*
X142218552Y-71352552D01*
X142262867Y-71286231D01*
X142262867Y-71286229D01*
X142262868Y-71286229D01*
X142274499Y-71227752D01*
X142713500Y-71227752D01*
X142725131Y-71286229D01*
X142725132Y-71286230D01*
X142769447Y-71352552D01*
X142835769Y-71396867D01*
X142835770Y-71396868D01*
X142894247Y-71408499D01*
X142894250Y-71408500D01*
X142894252Y-71408500D01*
X144633750Y-71408500D01*
X144633751Y-71408499D01*
X144655009Y-71404271D01*
X144692229Y-71396868D01*
X144692229Y-71396867D01*
X144692231Y-71396867D01*
X144758552Y-71352552D01*
X144802867Y-71286231D01*
X144802867Y-71286229D01*
X144802868Y-71286229D01*
X144814499Y-71227752D01*
X144814500Y-71227750D01*
X144814500Y-69488249D01*
X144814499Y-69488247D01*
X144802868Y-69429770D01*
X144802867Y-69429769D01*
X144758552Y-69363447D01*
X144692230Y-69319132D01*
X144692229Y-69319131D01*
X144633752Y-69307500D01*
X144633748Y-69307500D01*
X142894252Y-69307500D01*
X142894247Y-69307500D01*
X142835770Y-69319131D01*
X142835769Y-69319132D01*
X142769447Y-69363447D01*
X142725132Y-69429769D01*
X142725131Y-69429770D01*
X142713500Y-69488247D01*
X142713500Y-71227752D01*
X142274499Y-71227752D01*
X142274500Y-71227750D01*
X142274500Y-69488249D01*
X142274499Y-69488247D01*
X142262868Y-69429770D01*
X142262867Y-69429769D01*
X142218552Y-69363447D01*
X142152230Y-69319132D01*
X142152229Y-69319131D01*
X142093752Y-69307500D01*
X142093748Y-69307500D01*
X140354252Y-69307500D01*
X140354247Y-69307500D01*
X140295770Y-69319131D01*
X140295769Y-69319132D01*
X140229447Y-69363447D01*
X140185132Y-69429769D01*
X140185131Y-69429770D01*
X140173500Y-69488247D01*
X140173500Y-71227752D01*
X139734499Y-71227752D01*
X139734500Y-71227750D01*
X139734500Y-69488249D01*
X139734499Y-69488247D01*
X139722868Y-69429770D01*
X139722867Y-69429769D01*
X139678552Y-69363447D01*
X139612230Y-69319132D01*
X139612229Y-69319131D01*
X139553752Y-69307500D01*
X139553748Y-69307500D01*
X137814252Y-69307500D01*
X137814247Y-69307500D01*
X137755770Y-69319131D01*
X137755769Y-69319132D01*
X137689447Y-69363447D01*
X137645132Y-69429769D01*
X137645131Y-69429770D01*
X137633500Y-69488247D01*
X137633500Y-71227752D01*
X137194499Y-71227752D01*
X137194500Y-71227750D01*
X137194500Y-69488249D01*
X137194499Y-69488247D01*
X137182868Y-69429770D01*
X137182867Y-69429769D01*
X137138552Y-69363447D01*
X137072230Y-69319132D01*
X137072229Y-69319131D01*
X137013752Y-69307500D01*
X137013748Y-69307500D01*
X135274252Y-69307500D01*
X135274247Y-69307500D01*
X135215770Y-69319131D01*
X135215769Y-69319132D01*
X135149447Y-69363447D01*
X135105132Y-69429769D01*
X135105131Y-69429770D01*
X135093500Y-69488247D01*
X135093500Y-71227752D01*
X135105131Y-71286229D01*
X135105132Y-71286230D01*
X135149447Y-71352552D01*
X135215769Y-71396867D01*
X135215770Y-71396868D01*
X135274247Y-71408499D01*
X135274250Y-71408500D01*
X135274252Y-71408500D01*
X135694500Y-71408500D01*
X135761539Y-71428185D01*
X135807294Y-71480989D01*
X135818500Y-71532500D01*
X135818500Y-91297678D01*
X135818264Y-91303085D01*
X135814735Y-91343408D01*
X135825212Y-91382510D01*
X135826383Y-91387790D01*
X135833411Y-91427643D01*
X135835235Y-91432655D01*
X135842197Y-91449461D01*
X135844445Y-91454281D01*
X135844446Y-91454284D01*
X135852363Y-91465591D01*
X135867655Y-91487431D01*
X135870561Y-91491992D01*
X135890806Y-91527055D01*
X135921815Y-91553075D01*
X135925805Y-91556731D01*
X146134893Y-101765819D01*
X146168378Y-101827142D01*
X146163394Y-101896834D01*
X146121522Y-101952767D01*
X146056058Y-101977184D01*
X146047212Y-101977500D01*
X145933951Y-101977500D01*
X145888164Y-101985140D01*
X145705015Y-102015702D01*
X145485504Y-102091061D01*
X145485495Y-102091064D01*
X145281371Y-102201531D01*
X145281365Y-102201535D01*
X145098222Y-102344081D01*
X145098219Y-102344084D01*
X144941016Y-102514852D01*
X144814075Y-102709151D01*
X144720842Y-102921699D01*
X144663866Y-103146691D01*
X144663864Y-103146702D01*
X144644700Y-103377993D01*
X144644700Y-103378006D01*
X144663864Y-103609297D01*
X144663866Y-103609308D01*
X144720842Y-103834300D01*
X144814075Y-104046848D01*
X144941016Y-104241147D01*
X144941019Y-104241151D01*
X144941021Y-104241153D01*
X145098216Y-104411913D01*
X145098219Y-104411915D01*
X145098222Y-104411918D01*
X145281365Y-104554464D01*
X145281371Y-104554468D01*
X145281374Y-104554470D01*
X145485497Y-104664936D01*
X145583359Y-104698532D01*
X145705015Y-104740297D01*
X145705017Y-104740297D01*
X145705019Y-104740298D01*
X145933951Y-104778500D01*
X145933952Y-104778500D01*
X146166048Y-104778500D01*
X146166049Y-104778500D01*
X146394981Y-104740298D01*
X146614503Y-104664936D01*
X146818626Y-104554470D01*
X146822057Y-104551800D01*
X146930184Y-104467641D01*
X147001784Y-104411913D01*
X147158979Y-104241153D01*
X147285924Y-104046849D01*
X147379157Y-103834300D01*
X147436134Y-103609305D01*
X147455300Y-103378000D01*
X147455299Y-103377992D01*
X147455534Y-103375160D01*
X147480687Y-103309975D01*
X147537089Y-103268736D01*
X147606833Y-103264537D01*
X147666792Y-103297718D01*
X153136988Y-108767914D01*
X153170473Y-108829237D01*
X153172246Y-108871779D01*
X153163318Y-108939597D01*
X153163318Y-108939601D01*
X153183955Y-109096360D01*
X153183956Y-109096362D01*
X153230753Y-109209341D01*
X153244464Y-109242441D01*
X153340718Y-109367882D01*
X153466159Y-109464136D01*
X153612238Y-109524644D01*
X153690619Y-109534963D01*
X153768999Y-109545282D01*
X153769000Y-109545282D01*
X153769001Y-109545282D01*
X153821254Y-109538402D01*
X153925762Y-109524644D01*
X154071841Y-109464136D01*
X154197282Y-109367882D01*
X154293536Y-109242441D01*
X154354044Y-109096362D01*
X154374682Y-108939600D01*
X154359777Y-108826388D01*
X154370542Y-108757356D01*
X154416922Y-108705100D01*
X154484191Y-108686214D01*
X154550991Y-108706694D01*
X154570397Y-108722524D01*
X162906068Y-117058195D01*
X162909723Y-117062184D01*
X162935741Y-117093190D01*
X162935742Y-117093191D01*
X162935745Y-117093194D01*
X162964587Y-117109845D01*
X162970804Y-117113435D01*
X162975354Y-117116333D01*
X163008516Y-117139553D01*
X163008518Y-117139553D01*
X163008519Y-117139554D01*
X163013368Y-117141815D01*
X163030147Y-117148765D01*
X163035152Y-117150587D01*
X163035153Y-117150587D01*
X163035155Y-117150588D01*
X163075029Y-117157618D01*
X163080292Y-117158786D01*
X163092107Y-117161951D01*
X163119393Y-117169263D01*
X163159710Y-117165735D01*
X163165112Y-117165500D01*
X170159403Y-117165500D01*
X170226442Y-117185185D01*
X170272197Y-117237989D01*
X170282141Y-117307147D01*
X170253116Y-117370703D01*
X170232289Y-117389818D01*
X170115768Y-117474475D01*
X169996139Y-117607336D01*
X169929650Y-117722500D01*
X169879083Y-117770716D01*
X169822263Y-117784500D01*
X152586189Y-117784500D01*
X152519150Y-117764815D01*
X152498508Y-117748181D01*
X142471733Y-107721406D01*
X144644700Y-107721406D01*
X144663864Y-107952697D01*
X144663866Y-107952708D01*
X144720842Y-108177700D01*
X144814075Y-108390248D01*
X144941016Y-108584547D01*
X144941019Y-108584551D01*
X144941021Y-108584553D01*
X145098216Y-108755313D01*
X145098219Y-108755315D01*
X145098222Y-108755318D01*
X145281365Y-108897864D01*
X145281371Y-108897868D01*
X145281374Y-108897870D01*
X145485497Y-109008336D01*
X145577466Y-109039909D01*
X145705015Y-109083697D01*
X145705017Y-109083697D01*
X145705019Y-109083698D01*
X145933951Y-109121900D01*
X145933952Y-109121900D01*
X146166048Y-109121900D01*
X146166049Y-109121900D01*
X146394981Y-109083698D01*
X146614503Y-109008336D01*
X146818626Y-108897870D01*
X147001784Y-108755313D01*
X147158979Y-108584553D01*
X147285924Y-108390249D01*
X147379157Y-108177700D01*
X147436134Y-107952705D01*
X147436135Y-107952697D01*
X147455300Y-107721406D01*
X147455300Y-107721393D01*
X147436135Y-107490102D01*
X147436133Y-107490091D01*
X147379157Y-107265099D01*
X147285924Y-107052551D01*
X147158983Y-106858252D01*
X147158980Y-106858249D01*
X147158979Y-106858247D01*
X147001784Y-106687487D01*
X147001779Y-106687483D01*
X147001777Y-106687481D01*
X146818634Y-106544935D01*
X146818628Y-106544931D01*
X146614504Y-106434464D01*
X146614495Y-106434461D01*
X146394984Y-106359102D01*
X146223282Y-106330450D01*
X146166049Y-106320900D01*
X145933951Y-106320900D01*
X145910298Y-106324847D01*
X145705015Y-106359102D01*
X145485504Y-106434461D01*
X145485495Y-106434464D01*
X145281371Y-106544931D01*
X145281365Y-106544935D01*
X145098222Y-106687481D01*
X145098219Y-106687484D01*
X144941016Y-106858252D01*
X144814075Y-107052551D01*
X144720842Y-107265099D01*
X144663866Y-107490091D01*
X144663864Y-107490102D01*
X144644700Y-107721393D01*
X144644700Y-107721406D01*
X142471733Y-107721406D01*
X134613283Y-99862956D01*
X134579798Y-99801633D01*
X134584782Y-99731941D01*
X134587398Y-99725488D01*
X134679157Y-99516300D01*
X134736134Y-99291305D01*
X134736135Y-99291297D01*
X134755300Y-99060006D01*
X134755300Y-99059993D01*
X134736135Y-98828702D01*
X134736133Y-98828691D01*
X134679157Y-98603699D01*
X134585924Y-98391151D01*
X134458983Y-98196852D01*
X134458980Y-98196849D01*
X134458979Y-98196847D01*
X134301784Y-98026087D01*
X134301779Y-98026083D01*
X134301777Y-98026081D01*
X134118634Y-97883535D01*
X134118628Y-97883531D01*
X133914504Y-97773064D01*
X133914495Y-97773061D01*
X133759237Y-97719760D01*
X133702221Y-97679374D01*
X133676091Y-97614575D01*
X133675500Y-97602479D01*
X133675500Y-96199520D01*
X133695185Y-96132481D01*
X133747989Y-96086726D01*
X133759237Y-96082239D01*
X133794911Y-96069992D01*
X133914503Y-96028936D01*
X134118626Y-95918470D01*
X134301784Y-95775913D01*
X134458979Y-95605153D01*
X134585924Y-95410849D01*
X134679157Y-95198300D01*
X134736134Y-94973305D01*
X134739039Y-94938247D01*
X134755300Y-94742006D01*
X134755300Y-94741993D01*
X134736135Y-94510702D01*
X134736133Y-94510691D01*
X134730387Y-94488000D01*
X134679157Y-94285700D01*
X134587406Y-94076531D01*
X134578504Y-94007234D01*
X134608481Y-93944121D01*
X134613264Y-93939060D01*
X135119604Y-93432720D01*
X135123566Y-93429089D01*
X135154594Y-93403055D01*
X135174838Y-93367990D01*
X135177735Y-93363441D01*
X135200954Y-93330284D01*
X135200954Y-93330281D01*
X135203219Y-93325424D01*
X135210147Y-93308699D01*
X135211984Y-93303650D01*
X135211988Y-93303645D01*
X135219019Y-93263762D01*
X135220177Y-93258540D01*
X135230664Y-93219407D01*
X135227135Y-93179081D01*
X135226900Y-93173678D01*
X135226900Y-87674320D01*
X135227136Y-87668913D01*
X135230664Y-87628593D01*
X135226937Y-87614686D01*
X135220182Y-87589476D01*
X135219016Y-87584218D01*
X135211988Y-87544355D01*
X135211986Y-87544352D01*
X135211986Y-87544350D01*
X135210160Y-87539333D01*
X135203220Y-87522576D01*
X135200954Y-87517719D01*
X135200954Y-87517716D01*
X135193100Y-87506500D01*
X135177740Y-87484563D01*
X135174833Y-87479999D01*
X135154596Y-87444948D01*
X135154595Y-87444947D01*
X135154594Y-87444945D01*
X135123577Y-87418918D01*
X135119593Y-87415267D01*
X134613282Y-86908956D01*
X134579797Y-86847633D01*
X134584781Y-86777941D01*
X134587384Y-86771518D01*
X134679157Y-86562300D01*
X134736134Y-86337305D01*
X134736597Y-86331720D01*
X134755300Y-86106006D01*
X134755300Y-86105993D01*
X134736135Y-85874702D01*
X134736133Y-85874691D01*
X134679157Y-85649699D01*
X134585924Y-85437151D01*
X134458983Y-85242852D01*
X134458980Y-85242849D01*
X134458979Y-85242847D01*
X134301784Y-85072087D01*
X134301779Y-85072083D01*
X134301777Y-85072081D01*
X134118634Y-84929535D01*
X134118628Y-84929531D01*
X133914504Y-84819064D01*
X133914495Y-84819061D01*
X133759237Y-84765760D01*
X133702221Y-84725374D01*
X133676091Y-84660575D01*
X133675500Y-84648479D01*
X133675500Y-83245520D01*
X133695185Y-83178481D01*
X133747989Y-83132726D01*
X133759237Y-83128239D01*
X133791465Y-83117175D01*
X133914503Y-83074936D01*
X134118626Y-82964470D01*
X134301784Y-82821913D01*
X134458979Y-82651153D01*
X134585924Y-82456849D01*
X134679157Y-82244300D01*
X134736134Y-82019305D01*
X134739793Y-81975151D01*
X134755300Y-81788006D01*
X134755300Y-81787993D01*
X134736135Y-81556702D01*
X134736133Y-81556691D01*
X134679157Y-81331699D01*
X134585924Y-81119151D01*
X134458983Y-80924852D01*
X134458980Y-80924849D01*
X134458979Y-80924847D01*
X134301784Y-80754087D01*
X134301779Y-80754083D01*
X134301777Y-80754081D01*
X134118634Y-80611535D01*
X134118628Y-80611531D01*
X133914504Y-80501064D01*
X133914495Y-80501061D01*
X133694984Y-80425702D01*
X133523282Y-80397050D01*
X133466049Y-80387500D01*
X133233951Y-80387500D01*
X133188164Y-80395140D01*
X133005015Y-80425702D01*
X132785504Y-80501061D01*
X132785495Y-80501064D01*
X132581371Y-80611531D01*
X132581365Y-80611535D01*
X132398222Y-80754081D01*
X132398219Y-80754084D01*
X132398216Y-80754086D01*
X132398216Y-80754087D01*
X132365239Y-80789910D01*
X132241016Y-80924852D01*
X132114075Y-81119151D01*
X132020842Y-81331699D01*
X131963866Y-81556691D01*
X131963864Y-81556702D01*
X131944700Y-81787993D01*
X131944700Y-81788006D01*
X131963864Y-82019297D01*
X131963866Y-82019308D01*
X132020842Y-82244300D01*
X132114075Y-82456848D01*
X132241016Y-82651147D01*
X132241019Y-82651151D01*
X132241021Y-82651153D01*
X132398216Y-82821913D01*
X132398219Y-82821915D01*
X132398222Y-82821918D01*
X132581365Y-82964464D01*
X132581371Y-82964468D01*
X132581374Y-82964470D01*
X132785497Y-83074936D01*
X132898328Y-83113671D01*
X132940763Y-83128239D01*
X132997778Y-83168624D01*
X133023909Y-83233424D01*
X133024500Y-83245520D01*
X133024500Y-84648479D01*
X133004815Y-84715518D01*
X132952011Y-84761273D01*
X132940763Y-84765760D01*
X132785504Y-84819061D01*
X132785495Y-84819064D01*
X132581371Y-84929531D01*
X132581365Y-84929535D01*
X132398222Y-85072081D01*
X132398219Y-85072084D01*
X132398216Y-85072086D01*
X132398216Y-85072087D01*
X132378959Y-85093006D01*
X132241016Y-85242852D01*
X132114075Y-85437151D01*
X132020841Y-85649702D01*
X132015231Y-85671857D01*
X131979691Y-85732012D01*
X131917270Y-85763404D01*
X131847787Y-85756064D01*
X131793302Y-85712324D01*
X131771113Y-85646071D01*
X131771498Y-85630605D01*
X131774063Y-85601291D01*
X131763586Y-85562192D01*
X131762417Y-85556924D01*
X131755388Y-85517055D01*
X131755387Y-85517054D01*
X131755387Y-85517051D01*
X131753565Y-85512047D01*
X131746615Y-85495268D01*
X131744354Y-85490419D01*
X131744353Y-85490418D01*
X131744353Y-85490416D01*
X131721133Y-85457254D01*
X131718235Y-85452704D01*
X131714645Y-85446487D01*
X131697994Y-85417645D01*
X131697991Y-85417642D01*
X131697990Y-85417641D01*
X131680989Y-85403376D01*
X131666982Y-85391622D01*
X131663010Y-85387983D01*
X126412536Y-80137509D01*
X126379051Y-80076186D01*
X126384035Y-80006494D01*
X126425907Y-79950561D01*
X126441763Y-79940470D01*
X126570450Y-79871685D01*
X126730410Y-79740410D01*
X126861685Y-79580450D01*
X126959232Y-79397954D01*
X127019300Y-79199934D01*
X127039583Y-78994000D01*
X127468417Y-78994000D01*
X127488699Y-79199932D01*
X127488700Y-79199934D01*
X127548768Y-79397954D01*
X127646315Y-79580450D01*
X127646317Y-79580452D01*
X127777589Y-79740410D01*
X127870603Y-79816743D01*
X127937550Y-79871685D01*
X128120046Y-79969232D01*
X128318066Y-80029300D01*
X128318065Y-80029300D01*
X128336529Y-80031118D01*
X128524000Y-80049583D01*
X128729934Y-80029300D01*
X128927954Y-79969232D01*
X129110450Y-79871685D01*
X129270410Y-79740410D01*
X129401685Y-79580450D01*
X129499232Y-79397954D01*
X129559300Y-79199934D01*
X129579583Y-78994000D01*
X129559300Y-78788066D01*
X129499232Y-78590046D01*
X129401685Y-78407550D01*
X129326897Y-78316420D01*
X129270410Y-78247589D01*
X129120121Y-78124252D01*
X129110450Y-78116315D01*
X128927954Y-78018768D01*
X128729934Y-77958700D01*
X128729932Y-77958699D01*
X128729934Y-77958699D01*
X128524000Y-77938417D01*
X128318067Y-77958699D01*
X128120043Y-78018769D01*
X128032114Y-78065769D01*
X127937550Y-78116315D01*
X127937548Y-78116316D01*
X127937547Y-78116317D01*
X127777589Y-78247589D01*
X127646317Y-78407547D01*
X127548769Y-78590043D01*
X127488699Y-78788067D01*
X127468417Y-78994000D01*
X127039583Y-78994000D01*
X127019300Y-78788066D01*
X126959232Y-78590046D01*
X126861685Y-78407550D01*
X126786897Y-78316420D01*
X126730410Y-78247589D01*
X126580121Y-78124252D01*
X126570450Y-78116315D01*
X126387954Y-78018768D01*
X126189934Y-77958700D01*
X126189932Y-77958699D01*
X126189934Y-77958699D01*
X125984000Y-77938417D01*
X125778067Y-77958699D01*
X125580043Y-78018769D01*
X125492114Y-78065769D01*
X125397550Y-78116315D01*
X125397548Y-78116316D01*
X125397547Y-78116317D01*
X125237589Y-78247589D01*
X125106317Y-78407547D01*
X125008769Y-78590043D01*
X124948699Y-78788067D01*
X124928417Y-78994000D01*
X124948699Y-79199932D01*
X124948700Y-79199934D01*
X125008768Y-79397954D01*
X125106315Y-79580450D01*
X125106317Y-79580452D01*
X125237589Y-79740410D01*
X125330603Y-79816743D01*
X125397550Y-79871685D01*
X125580046Y-79969232D01*
X125580051Y-79969233D01*
X125581951Y-79970021D01*
X125582796Y-79970701D01*
X125585419Y-79972104D01*
X125585153Y-79972601D01*
X125636355Y-80013862D01*
X125658421Y-80080156D01*
X125658500Y-80084583D01*
X125658500Y-80152378D01*
X125658264Y-80157785D01*
X125654735Y-80198108D01*
X125654735Y-80198109D01*
X125665212Y-80237210D01*
X125666383Y-80242490D01*
X125673411Y-80282343D01*
X125675235Y-80287355D01*
X125682197Y-80304161D01*
X125684445Y-80308981D01*
X125684446Y-80308984D01*
X125695404Y-80324634D01*
X125707655Y-80342131D01*
X125710561Y-80346692D01*
X125730806Y-80381755D01*
X125761815Y-80407775D01*
X125765805Y-80411431D01*
X131082981Y-85728607D01*
X131116466Y-85789930D01*
X131119300Y-85816288D01*
X131119300Y-101455878D01*
X131119064Y-101461285D01*
X131115535Y-101501608D01*
X131126012Y-101540710D01*
X131127183Y-101545990D01*
X131134211Y-101585843D01*
X131136035Y-101590855D01*
X131142997Y-101607661D01*
X131145245Y-101612481D01*
X131145246Y-101612484D01*
X131155690Y-101627400D01*
X131168455Y-101645631D01*
X131171361Y-101650192D01*
X131191606Y-101685255D01*
X131222615Y-101711275D01*
X131226605Y-101714931D01*
X132086716Y-102575042D01*
X132120201Y-102636365D01*
X132115217Y-102706057D01*
X132112591Y-102712533D01*
X132020843Y-102921699D01*
X131963866Y-103146691D01*
X131963864Y-103146702D01*
X131944700Y-103377993D01*
X131944700Y-103378006D01*
X131963864Y-103609297D01*
X131963866Y-103609308D01*
X132020842Y-103834300D01*
X132114075Y-104046848D01*
X132241016Y-104241147D01*
X132241019Y-104241151D01*
X132241021Y-104241153D01*
X132398216Y-104411913D01*
X132398219Y-104411915D01*
X132398222Y-104411918D01*
X132581365Y-104554464D01*
X132581371Y-104554468D01*
X132581374Y-104554470D01*
X132785497Y-104664936D01*
X132883359Y-104698532D01*
X133005015Y-104740297D01*
X133005017Y-104740297D01*
X133005019Y-104740298D01*
X133233951Y-104778500D01*
X133233952Y-104778500D01*
X133466048Y-104778500D01*
X133466049Y-104778500D01*
X133694981Y-104740298D01*
X133914503Y-104664936D01*
X134118626Y-104554470D01*
X134122057Y-104551800D01*
X134230184Y-104467641D01*
X134301784Y-104411913D01*
X134458979Y-104241153D01*
X134585924Y-104046849D01*
X134679157Y-103834300D01*
X134736134Y-103609305D01*
X134738441Y-103581462D01*
X134755300Y-103378006D01*
X134755300Y-103377993D01*
X134736135Y-103146702D01*
X134736133Y-103146691D01*
X134679157Y-102921699D01*
X134585924Y-102709151D01*
X134458983Y-102514852D01*
X134458980Y-102514849D01*
X134458979Y-102514847D01*
X134301784Y-102344087D01*
X134301779Y-102344083D01*
X134301777Y-102344081D01*
X134118634Y-102201535D01*
X134118628Y-102201531D01*
X133914504Y-102091064D01*
X133914495Y-102091061D01*
X133694984Y-102015702D01*
X133523282Y-101987050D01*
X133466049Y-101977500D01*
X133233951Y-101977500D01*
X133188164Y-101985140D01*
X133005015Y-102015702D01*
X132785501Y-102091062D01*
X132785490Y-102091067D01*
X132696744Y-102139094D01*
X132628416Y-102153689D01*
X132563044Y-102129026D01*
X132550046Y-102117720D01*
X131806619Y-101374293D01*
X131773134Y-101312970D01*
X131770300Y-101286612D01*
X131770300Y-99521716D01*
X131789985Y-99454677D01*
X131842789Y-99408922D01*
X131911947Y-99398978D01*
X131975503Y-99428003D01*
X132013277Y-99486781D01*
X132014506Y-99491276D01*
X132020843Y-99516300D01*
X132114075Y-99728848D01*
X132241016Y-99923147D01*
X132241019Y-99923151D01*
X132241021Y-99923153D01*
X132398216Y-100093913D01*
X132398219Y-100093915D01*
X132398222Y-100093918D01*
X132581365Y-100236464D01*
X132581371Y-100236468D01*
X132581374Y-100236470D01*
X132785497Y-100346936D01*
X132892470Y-100383660D01*
X133005015Y-100422297D01*
X133005017Y-100422297D01*
X133005019Y-100422298D01*
X133233951Y-100460500D01*
X133233952Y-100460500D01*
X133466048Y-100460500D01*
X133466049Y-100460500D01*
X133694981Y-100422298D01*
X133914503Y-100346936D01*
X134003257Y-100298903D01*
X134071580Y-100284309D01*
X134136953Y-100308971D01*
X134149952Y-100320278D01*
X152157868Y-118328195D01*
X152161523Y-118332184D01*
X152187541Y-118363190D01*
X152187543Y-118363191D01*
X152187545Y-118363194D01*
X152222605Y-118383435D01*
X152227159Y-118386337D01*
X152260316Y-118409554D01*
X152260319Y-118409554D01*
X152265176Y-118411820D01*
X152281933Y-118418760D01*
X152286953Y-118420587D01*
X152286955Y-118420588D01*
X152326830Y-118427618D01*
X152332087Y-118428784D01*
X152371193Y-118439263D01*
X152411510Y-118435735D01*
X152416912Y-118435500D01*
X159019771Y-118435500D01*
X159086810Y-118455185D01*
X159132565Y-118507989D01*
X159142509Y-118577147D01*
X159113484Y-118640703D01*
X159067223Y-118674061D01*
X159023255Y-118692272D01*
X159023252Y-118692274D01*
X158804362Y-118826409D01*
X158804361Y-118826410D01*
X158609143Y-118993143D01*
X158442410Y-119188361D01*
X158442409Y-119188362D01*
X158308274Y-119407252D01*
X158308272Y-119407255D01*
X158210032Y-119644430D01*
X158150098Y-119894070D01*
X158135000Y-120085919D01*
X158135000Y-120400000D01*
X159516000Y-120400000D01*
X159516000Y-120900000D01*
X158135000Y-120900000D01*
X158135000Y-121214081D01*
X158150098Y-121405929D01*
X158210032Y-121655569D01*
X158308272Y-121892744D01*
X158308274Y-121892747D01*
X158442409Y-122111637D01*
X158442410Y-122111638D01*
X158609143Y-122306856D01*
X158804361Y-122473589D01*
X158804362Y-122473590D01*
X159023252Y-122607725D01*
X159023255Y-122607727D01*
X159260430Y-122705967D01*
X159510071Y-122765901D01*
X159516000Y-122766368D01*
X159516000Y-121174624D01*
X159530505Y-121247545D01*
X159585760Y-121330240D01*
X159668455Y-121385495D01*
X159766000Y-121404898D01*
X159863545Y-121385495D01*
X159946240Y-121330240D01*
X160001495Y-121247545D01*
X160016000Y-121174624D01*
X160016000Y-122766367D01*
X160021928Y-122765901D01*
X160271569Y-122705967D01*
X160508744Y-122607727D01*
X160508747Y-122607725D01*
X160727637Y-122473590D01*
X160727638Y-122473589D01*
X160922856Y-122306856D01*
X161089589Y-122111638D01*
X161089590Y-122111637D01*
X161223725Y-121892747D01*
X161223727Y-121892744D01*
X161321967Y-121655569D01*
X161381901Y-121405929D01*
X161397000Y-121214081D01*
X161397000Y-120900000D01*
X160016000Y-120900000D01*
X160016000Y-120400000D01*
X161397000Y-120400000D01*
X161397000Y-120085919D01*
X161381901Y-119894070D01*
X161321967Y-119644430D01*
X161223727Y-119407255D01*
X161223725Y-119407252D01*
X161089590Y-119188362D01*
X161089589Y-119188361D01*
X160922856Y-118993143D01*
X160727638Y-118826410D01*
X160727637Y-118826409D01*
X160508747Y-118692274D01*
X160508744Y-118692272D01*
X160464777Y-118674061D01*
X160410373Y-118630220D01*
X160388308Y-118563926D01*
X160405587Y-118496227D01*
X160456724Y-118448616D01*
X160512229Y-118435500D01*
X169822263Y-118435500D01*
X169889302Y-118455185D01*
X169929650Y-118497500D01*
X169996140Y-118612663D01*
X169996139Y-118612663D01*
X170115764Y-118745521D01*
X170115767Y-118745523D01*
X170115770Y-118745526D01*
X170260407Y-118850612D01*
X170423733Y-118923329D01*
X170598609Y-118960500D01*
X170598610Y-118960500D01*
X170777389Y-118960500D01*
X170777391Y-118960500D01*
X170952267Y-118923329D01*
X171115593Y-118850612D01*
X171260230Y-118745526D01*
X171379859Y-118612665D01*
X171469250Y-118457835D01*
X171524497Y-118287803D01*
X171543185Y-118110000D01*
X171524497Y-117932197D01*
X171476003Y-117782948D01*
X171474008Y-117713107D01*
X171510088Y-117653274D01*
X171572789Y-117622446D01*
X171642203Y-117630411D01*
X171644343Y-117631339D01*
X171693733Y-117653329D01*
X171868609Y-117690500D01*
X171868610Y-117690500D01*
X172047389Y-117690500D01*
X172047391Y-117690500D01*
X172222267Y-117653329D01*
X172385593Y-117580612D01*
X172530230Y-117475526D01*
X172531177Y-117474475D01*
X172556148Y-117446741D01*
X172649859Y-117342665D01*
X172739250Y-117187835D01*
X172794497Y-117017803D01*
X172813185Y-116840000D01*
X172794497Y-116662197D01*
X172746507Y-116514500D01*
X172739252Y-116492170D01*
X172739249Y-116492164D01*
X172731176Y-116478181D01*
X172649859Y-116337335D01*
X172587289Y-116267844D01*
X172530235Y-116204478D01*
X172530232Y-116204476D01*
X172530231Y-116204475D01*
X172530230Y-116204474D01*
X172385593Y-116099388D01*
X172222267Y-116026671D01*
X172222265Y-116026670D01*
X172094594Y-115999533D01*
X172047391Y-115989500D01*
X171962000Y-115989500D01*
X171894961Y-115969815D01*
X171849206Y-115917011D01*
X171838000Y-115865500D01*
X171838000Y-115820000D01*
X170967560Y-115820000D01*
X171006278Y-115777941D01*
X171056551Y-115663330D01*
X171066886Y-115538605D01*
X171036163Y-115417281D01*
X170972606Y-115320000D01*
X171838000Y-115320000D01*
X171838000Y-114872172D01*
X171837999Y-114872155D01*
X171831598Y-114812627D01*
X171831596Y-114812620D01*
X171781354Y-114677913D01*
X171781350Y-114677906D01*
X171695190Y-114562812D01*
X171695187Y-114562809D01*
X171580093Y-114476649D01*
X171580086Y-114476645D01*
X171445379Y-114426403D01*
X171445372Y-114426401D01*
X171385844Y-114420000D01*
X170938000Y-114420000D01*
X170938000Y-115289382D01*
X170868948Y-115235637D01*
X170750576Y-115195000D01*
X170656927Y-115195000D01*
X170564554Y-115210414D01*
X170454486Y-115269981D01*
X170438000Y-115287889D01*
X170438000Y-114420000D01*
X169990155Y-114420000D01*
X169930627Y-114426401D01*
X169930620Y-114426403D01*
X169795913Y-114476645D01*
X169795906Y-114476649D01*
X169680812Y-114562809D01*
X169680809Y-114562812D01*
X169594649Y-114677906D01*
X169594645Y-114677913D01*
X169544403Y-114812620D01*
X169544401Y-114812627D01*
X169538000Y-114872155D01*
X169538000Y-115320000D01*
X170408440Y-115320000D01*
X170369722Y-115362059D01*
X170319449Y-115476670D01*
X170309114Y-115601395D01*
X170339837Y-115722719D01*
X170403394Y-115820000D01*
X169538000Y-115820000D01*
X169538000Y-116267844D01*
X169544401Y-116327372D01*
X169544403Y-116327380D01*
X169551783Y-116347165D01*
X169556769Y-116416856D01*
X169523285Y-116478180D01*
X169461962Y-116511666D01*
X169435602Y-116514500D01*
X163334389Y-116514500D01*
X163267350Y-116494815D01*
X163246708Y-116478181D01*
X153597307Y-106828781D01*
X153563822Y-106767458D01*
X153568806Y-106697766D01*
X153610678Y-106641833D01*
X153676142Y-106617416D01*
X153684988Y-106617100D01*
X164779778Y-106617100D01*
X164785181Y-106617335D01*
X164825507Y-106620864D01*
X164864640Y-106610377D01*
X164869862Y-106609219D01*
X164909745Y-106602188D01*
X164909750Y-106602184D01*
X164914799Y-106600347D01*
X164931524Y-106593419D01*
X164936381Y-106591154D01*
X164936384Y-106591154D01*
X164969541Y-106567935D01*
X164974090Y-106565038D01*
X165009155Y-106544794D01*
X165035181Y-106513776D01*
X165038822Y-106509802D01*
X166193704Y-105354920D01*
X166197666Y-105351289D01*
X166228694Y-105325255D01*
X166248938Y-105290190D01*
X166251835Y-105285641D01*
X166275054Y-105252484D01*
X166275054Y-105252481D01*
X166277319Y-105247624D01*
X166284247Y-105230899D01*
X166286087Y-105225846D01*
X166286088Y-105225845D01*
X166293119Y-105185965D01*
X166294280Y-105180728D01*
X166296230Y-105173451D01*
X166332604Y-105113798D01*
X166395455Y-105083278D01*
X166464830Y-105091583D01*
X166518701Y-105136076D01*
X166539965Y-105202631D01*
X166540000Y-105205564D01*
X166540000Y-107434000D01*
X174617622Y-107441868D01*
X174684641Y-107461618D01*
X174730344Y-107514466D01*
X174741500Y-107565868D01*
X174741500Y-131183500D01*
X174721815Y-131250539D01*
X174669011Y-131296294D01*
X174617500Y-131307500D01*
X76334500Y-131307500D01*
X76267461Y-131287815D01*
X76221706Y-131235011D01*
X76210500Y-131183500D01*
X76210500Y-126619002D01*
X77366506Y-126619002D01*
X77386469Y-126987196D01*
X77386470Y-126987213D01*
X77446122Y-127351068D01*
X77446128Y-127351094D01*
X77544768Y-127706365D01*
X77544770Y-127706371D01*
X77681255Y-128048926D01*
X77681261Y-128048938D01*
X77853973Y-128374708D01*
X77853976Y-128374713D01*
X77853978Y-128374716D01*
X78060910Y-128679917D01*
X78299627Y-128960956D01*
X78567330Y-129214538D01*
X78860881Y-129437690D01*
X79176838Y-129627795D01*
X79176840Y-129627796D01*
X79176842Y-129627797D01*
X79176846Y-129627799D01*
X79511486Y-129782620D01*
X79511497Y-129782625D01*
X79860934Y-129900364D01*
X80221052Y-129979632D01*
X80587630Y-130019500D01*
X80587636Y-130019500D01*
X80956364Y-130019500D01*
X80956370Y-130019500D01*
X81322948Y-129979632D01*
X81683066Y-129900364D01*
X82032503Y-129782625D01*
X82367162Y-129627795D01*
X82683119Y-129437690D01*
X82976670Y-129214538D01*
X83244373Y-128960956D01*
X83483090Y-128679917D01*
X83690022Y-128374716D01*
X83862743Y-128048930D01*
X83999227Y-127706379D01*
X84097875Y-127351081D01*
X84157531Y-126987199D01*
X84177494Y-126619002D01*
X166774506Y-126619002D01*
X166794469Y-126987196D01*
X166794470Y-126987213D01*
X166854122Y-127351068D01*
X166854128Y-127351094D01*
X166952768Y-127706365D01*
X166952770Y-127706371D01*
X167089255Y-128048926D01*
X167089261Y-128048938D01*
X167261973Y-128374708D01*
X167261976Y-128374713D01*
X167261978Y-128374716D01*
X167468910Y-128679917D01*
X167707627Y-128960956D01*
X167975330Y-129214538D01*
X168268881Y-129437690D01*
X168584838Y-129627795D01*
X168584840Y-129627796D01*
X168584842Y-129627797D01*
X168584846Y-129627799D01*
X168919486Y-129782620D01*
X168919497Y-129782625D01*
X169268934Y-129900364D01*
X169629052Y-129979632D01*
X169995630Y-130019500D01*
X169995636Y-130019500D01*
X170364364Y-130019500D01*
X170364370Y-130019500D01*
X170730948Y-129979632D01*
X171091066Y-129900364D01*
X171440503Y-129782625D01*
X171775162Y-129627795D01*
X172091119Y-129437690D01*
X172384670Y-129214538D01*
X172652373Y-128960956D01*
X172891090Y-128679917D01*
X173098022Y-128374716D01*
X173270743Y-128048930D01*
X173407227Y-127706379D01*
X173505875Y-127351081D01*
X173565531Y-126987199D01*
X173585494Y-126619000D01*
X173565531Y-126250801D01*
X173505875Y-125886919D01*
X173407227Y-125531621D01*
X173270743Y-125189070D01*
X173098022Y-124863284D01*
X172891090Y-124558083D01*
X172652373Y-124277044D01*
X172384670Y-124023462D01*
X172091119Y-123800310D01*
X171775162Y-123610205D01*
X171775161Y-123610204D01*
X171775157Y-123610202D01*
X171775153Y-123610200D01*
X171440513Y-123455379D01*
X171440508Y-123455377D01*
X171440503Y-123455375D01*
X171270172Y-123397983D01*
X171091065Y-123337635D01*
X170730946Y-123258367D01*
X170364371Y-123218500D01*
X170364370Y-123218500D01*
X169995630Y-123218500D01*
X169995628Y-123218500D01*
X169629053Y-123258367D01*
X169268934Y-123337635D01*
X168998812Y-123428650D01*
X168919497Y-123455375D01*
X168919494Y-123455376D01*
X168919486Y-123455379D01*
X168584846Y-123610200D01*
X168584842Y-123610202D01*
X168349538Y-123751779D01*
X168268881Y-123800310D01*
X168168410Y-123876685D01*
X167975330Y-124023461D01*
X167975330Y-124023462D01*
X167707626Y-124277044D01*
X167468909Y-124558083D01*
X167261979Y-124863282D01*
X167261973Y-124863291D01*
X167089261Y-125189061D01*
X167089255Y-125189073D01*
X166952770Y-125531628D01*
X166952768Y-125531634D01*
X166854128Y-125886905D01*
X166854122Y-125886931D01*
X166794470Y-126250786D01*
X166794469Y-126250803D01*
X166774506Y-126618997D01*
X166774506Y-126619002D01*
X84177494Y-126619002D01*
X84177494Y-126619000D01*
X84157531Y-126250801D01*
X84097875Y-125886919D01*
X83999227Y-125531621D01*
X83862743Y-125189070D01*
X83690022Y-124863284D01*
X83483090Y-124558083D01*
X83244373Y-124277044D01*
X82976670Y-124023462D01*
X82683119Y-123800310D01*
X82367162Y-123610205D01*
X82367161Y-123610204D01*
X82367157Y-123610202D01*
X82367153Y-123610200D01*
X82032513Y-123455379D01*
X82032508Y-123455377D01*
X82032503Y-123455375D01*
X81862172Y-123397983D01*
X81683065Y-123337635D01*
X81322946Y-123258367D01*
X80956371Y-123218500D01*
X80956370Y-123218500D01*
X80587630Y-123218500D01*
X80587628Y-123218500D01*
X80221053Y-123258367D01*
X79860934Y-123337635D01*
X79590812Y-123428650D01*
X79511497Y-123455375D01*
X79511494Y-123455376D01*
X79511486Y-123455379D01*
X79176846Y-123610200D01*
X79176842Y-123610202D01*
X78941538Y-123751779D01*
X78860881Y-123800310D01*
X78760410Y-123876685D01*
X78567330Y-124023461D01*
X78567330Y-124023462D01*
X78299626Y-124277044D01*
X78060909Y-124558083D01*
X77853979Y-124863282D01*
X77853973Y-124863291D01*
X77681261Y-125189061D01*
X77681255Y-125189073D01*
X77544770Y-125531628D01*
X77544768Y-125531634D01*
X77446128Y-125886905D01*
X77446122Y-125886931D01*
X77386470Y-126250786D01*
X77386469Y-126250803D01*
X77366506Y-126618997D01*
X77366506Y-126619002D01*
X76210500Y-126619002D01*
X76210500Y-122169752D01*
X85929500Y-122169752D01*
X85941131Y-122228229D01*
X85941132Y-122228230D01*
X85985447Y-122294552D01*
X86051769Y-122338867D01*
X86051770Y-122338868D01*
X86110247Y-122350499D01*
X86110250Y-122350500D01*
X86110252Y-122350500D01*
X89149750Y-122350500D01*
X89149751Y-122350499D01*
X89164568Y-122347552D01*
X89208229Y-122338868D01*
X89208229Y-122338867D01*
X89208231Y-122338867D01*
X89274552Y-122294552D01*
X89318867Y-122228231D01*
X89318867Y-122228229D01*
X89318868Y-122228229D01*
X89330499Y-122169752D01*
X89330500Y-122169750D01*
X89330500Y-119130249D01*
X89330499Y-119130247D01*
X89318868Y-119071770D01*
X89318867Y-119071769D01*
X89274552Y-119005447D01*
X89208230Y-118961132D01*
X89208229Y-118961131D01*
X89149752Y-118949500D01*
X89149748Y-118949500D01*
X86110252Y-118949500D01*
X86110247Y-118949500D01*
X86051770Y-118961131D01*
X86051769Y-118961132D01*
X85985447Y-119005447D01*
X85941132Y-119071769D01*
X85941131Y-119071770D01*
X85929500Y-119130247D01*
X85929500Y-122169752D01*
X76210500Y-122169752D01*
X76210500Y-98396308D01*
X78057835Y-98396308D01*
X78068312Y-98435410D01*
X78069483Y-98440690D01*
X78076511Y-98480543D01*
X78078335Y-98485555D01*
X78085297Y-98502361D01*
X78087545Y-98507181D01*
X78087546Y-98507184D01*
X78093102Y-98515119D01*
X78110755Y-98540331D01*
X78113661Y-98544892D01*
X78133906Y-98579955D01*
X78164915Y-98605975D01*
X78168905Y-98609631D01*
X79852368Y-100293095D01*
X79856023Y-100297084D01*
X79882041Y-100328090D01*
X79882043Y-100328091D01*
X79882045Y-100328094D01*
X79917105Y-100348335D01*
X79921659Y-100351237D01*
X79954816Y-100374454D01*
X79954819Y-100374454D01*
X79959676Y-100376720D01*
X79976433Y-100383660D01*
X79981453Y-100385487D01*
X79981455Y-100385488D01*
X80021330Y-100392518D01*
X80026587Y-100393684D01*
X80065693Y-100404163D01*
X80106010Y-100400635D01*
X80111412Y-100400400D01*
X80176781Y-100400400D01*
X80243820Y-100420085D01*
X80289575Y-100472889D01*
X80299519Y-100542047D01*
X80272635Y-100603064D01*
X80148317Y-100754547D01*
X80050769Y-100937043D01*
X79990699Y-101135067D01*
X79970417Y-101341000D01*
X79990699Y-101546932D01*
X80020639Y-101645631D01*
X80050768Y-101744954D01*
X80148315Y-101927450D01*
X80148317Y-101927452D01*
X80279589Y-102087410D01*
X80360185Y-102153552D01*
X80439550Y-102218685D01*
X80560095Y-102283118D01*
X80568237Y-102287470D01*
X80618081Y-102336433D01*
X80633541Y-102404571D01*
X80609709Y-102470250D01*
X80597464Y-102484509D01*
X80045803Y-103036170D01*
X80041814Y-103039825D01*
X80010805Y-103065845D01*
X79990562Y-103100906D01*
X79987656Y-103105466D01*
X79964446Y-103138613D01*
X79962206Y-103143417D01*
X79955229Y-103160261D01*
X79953410Y-103165259D01*
X79946383Y-103205111D01*
X79945212Y-103210391D01*
X79934735Y-103249491D01*
X79938264Y-103289813D01*
X79938500Y-103295220D01*
X79938500Y-105730479D01*
X79918815Y-105797518D01*
X79866011Y-105843273D01*
X79854763Y-105847760D01*
X79699504Y-105901061D01*
X79699495Y-105901064D01*
X79495371Y-106011531D01*
X79495365Y-106011535D01*
X79312222Y-106154081D01*
X79312219Y-106154084D01*
X79155016Y-106324852D01*
X79028075Y-106519151D01*
X78934842Y-106731699D01*
X78877866Y-106956691D01*
X78877864Y-106956702D01*
X78858700Y-107187993D01*
X78858700Y-107188006D01*
X78877864Y-107419297D01*
X78877866Y-107419308D01*
X78934842Y-107644300D01*
X79028075Y-107856848D01*
X79155016Y-108051147D01*
X79155019Y-108051151D01*
X79155021Y-108051153D01*
X79312216Y-108221913D01*
X79312219Y-108221915D01*
X79312222Y-108221918D01*
X79495365Y-108364464D01*
X79495371Y-108364468D01*
X79495374Y-108364470D01*
X79617570Y-108430599D01*
X79690139Y-108469872D01*
X79699497Y-108474936D01*
X79767767Y-108498373D01*
X79919015Y-108550297D01*
X79919017Y-108550297D01*
X79919019Y-108550298D01*
X80147951Y-108588500D01*
X80147952Y-108588500D01*
X80380048Y-108588500D01*
X80380049Y-108588500D01*
X80608981Y-108550298D01*
X80828503Y-108474936D01*
X81032626Y-108364470D01*
X81050154Y-108350828D01*
X81105708Y-108307588D01*
X81215784Y-108221913D01*
X81372979Y-108051153D01*
X81499924Y-107856849D01*
X81593157Y-107644300D01*
X81645400Y-107438000D01*
X91277968Y-107438000D01*
X91278274Y-107442079D01*
X91278275Y-107442086D01*
X91334967Y-107690475D01*
X91334973Y-107690494D01*
X91428058Y-107927671D01*
X91428057Y-107927671D01*
X91555455Y-108148328D01*
X91714320Y-108347540D01*
X91901097Y-108520842D01*
X92111616Y-108664371D01*
X92111624Y-108664376D01*
X92341176Y-108774921D01*
X92341174Y-108774921D01*
X92584652Y-108850024D01*
X92584660Y-108850026D01*
X92714000Y-108869520D01*
X92714000Y-107733881D01*
X92807369Y-107772556D01*
X92924677Y-107788000D01*
X93003323Y-107788000D01*
X93120631Y-107772556D01*
X93214000Y-107733881D01*
X93214000Y-108869519D01*
X93343339Y-108850026D01*
X93343347Y-108850024D01*
X93586824Y-108774921D01*
X93816376Y-108664376D01*
X93816377Y-108664375D01*
X94026905Y-108520840D01*
X94213679Y-108347540D01*
X94372544Y-108148328D01*
X94499941Y-107927671D01*
X94593026Y-107690494D01*
X94593032Y-107690475D01*
X94649724Y-107442086D01*
X94649725Y-107442079D01*
X94650032Y-107438000D01*
X93509882Y-107438000D01*
X93548556Y-107344631D01*
X93569177Y-107188000D01*
X93548556Y-107031369D01*
X93509882Y-106938000D01*
X94650031Y-106938000D01*
X94649725Y-106933920D01*
X94649724Y-106933913D01*
X94593032Y-106685524D01*
X94593026Y-106685505D01*
X94499941Y-106448328D01*
X94499942Y-106448328D01*
X94372544Y-106227671D01*
X94213679Y-106028459D01*
X94026905Y-105855159D01*
X93816377Y-105711624D01*
X93816376Y-105711623D01*
X93586823Y-105601078D01*
X93586825Y-105601078D01*
X93343354Y-105525977D01*
X93343348Y-105525976D01*
X93214000Y-105506479D01*
X93214000Y-106642118D01*
X93120631Y-106603444D01*
X93003323Y-106588000D01*
X92924677Y-106588000D01*
X92807369Y-106603444D01*
X92714000Y-106642118D01*
X92714000Y-105506479D01*
X92584651Y-105525976D01*
X92584645Y-105525977D01*
X92341175Y-105601078D01*
X92111624Y-105711623D01*
X92111616Y-105711628D01*
X91901097Y-105855157D01*
X91714320Y-106028459D01*
X91555455Y-106227671D01*
X91428058Y-106448328D01*
X91334973Y-106685505D01*
X91334967Y-106685524D01*
X91278275Y-106933913D01*
X91278274Y-106933920D01*
X91277968Y-106938000D01*
X92418118Y-106938000D01*
X92379444Y-107031369D01*
X92358823Y-107188000D01*
X92379444Y-107344631D01*
X92418118Y-107438000D01*
X91277968Y-107438000D01*
X81645400Y-107438000D01*
X81650134Y-107419305D01*
X81662076Y-107275186D01*
X81669300Y-107188006D01*
X81669300Y-107187993D01*
X81650135Y-106956702D01*
X81650133Y-106956691D01*
X81593157Y-106731699D01*
X81499924Y-106519151D01*
X81372983Y-106324852D01*
X81372980Y-106324849D01*
X81372979Y-106324847D01*
X81215784Y-106154087D01*
X81215779Y-106154083D01*
X81215777Y-106154081D01*
X81032634Y-106011535D01*
X81032628Y-106011531D01*
X80828504Y-105901064D01*
X80828495Y-105901061D01*
X80673237Y-105847760D01*
X80616221Y-105807374D01*
X80590091Y-105742575D01*
X80589500Y-105730479D01*
X80589500Y-103464487D01*
X80609185Y-103397448D01*
X80625815Y-103376810D01*
X81244215Y-102758409D01*
X81248166Y-102754789D01*
X81279194Y-102728755D01*
X81299438Y-102693690D01*
X81302335Y-102689141D01*
X81325554Y-102655984D01*
X81325554Y-102655981D01*
X81327819Y-102651124D01*
X81334747Y-102634399D01*
X81336584Y-102629350D01*
X81336588Y-102629345D01*
X81343619Y-102589462D01*
X81344777Y-102584240D01*
X81355264Y-102545107D01*
X81351735Y-102504778D01*
X81351500Y-102499375D01*
X81351500Y-102431583D01*
X81371185Y-102364544D01*
X81423989Y-102318789D01*
X81428049Y-102317021D01*
X81429945Y-102316234D01*
X81429954Y-102316232D01*
X81612450Y-102218685D01*
X81772410Y-102087410D01*
X81903685Y-101927450D01*
X82001232Y-101744954D01*
X82061300Y-101546934D01*
X82081583Y-101341000D01*
X82061300Y-101135066D01*
X82001232Y-100937046D01*
X81903685Y-100754550D01*
X81815442Y-100647025D01*
X81779365Y-100603064D01*
X81752053Y-100538754D01*
X81763844Y-100469887D01*
X81810997Y-100418327D01*
X81875219Y-100400400D01*
X87873412Y-100400400D01*
X87940451Y-100420085D01*
X87961092Y-100436718D01*
X88779958Y-101255585D01*
X89596568Y-102072195D01*
X89600223Y-102076184D01*
X89626241Y-102107190D01*
X89626243Y-102107191D01*
X89626245Y-102107194D01*
X89661305Y-102127435D01*
X89665859Y-102130337D01*
X89699016Y-102153554D01*
X89699019Y-102153554D01*
X89703876Y-102155820D01*
X89720633Y-102162760D01*
X89725653Y-102164587D01*
X89725655Y-102164588D01*
X89765530Y-102171618D01*
X89770787Y-102172784D01*
X89809893Y-102183263D01*
X89828691Y-102181618D01*
X89897190Y-102195383D01*
X89947374Y-102243998D01*
X89963500Y-102305146D01*
X89963500Y-102673752D01*
X89975131Y-102732229D01*
X89975132Y-102732230D01*
X90019447Y-102798552D01*
X90085769Y-102842867D01*
X90085770Y-102842868D01*
X90144247Y-102854499D01*
X90144250Y-102854500D01*
X90144252Y-102854500D01*
X91783750Y-102854500D01*
X91783751Y-102854499D01*
X91798568Y-102851552D01*
X91842229Y-102842868D01*
X91842229Y-102842867D01*
X91842231Y-102842867D01*
X91908552Y-102798552D01*
X91952867Y-102732231D01*
X91952867Y-102732229D01*
X91952868Y-102732229D01*
X91964499Y-102673752D01*
X91964500Y-102673750D01*
X91964500Y-102551308D01*
X91984185Y-102484269D01*
X92000819Y-102463627D01*
X92566046Y-101898399D01*
X92578835Y-101979148D01*
X92636359Y-102092045D01*
X92725955Y-102181641D01*
X92838852Y-102239165D01*
X92919599Y-102251953D01*
X92238526Y-102933025D01*
X92238526Y-102933026D01*
X92311512Y-102984131D01*
X92311516Y-102984133D01*
X92517673Y-103080265D01*
X92517682Y-103080269D01*
X92737389Y-103139139D01*
X92737400Y-103139141D01*
X92963998Y-103158966D01*
X92964002Y-103158966D01*
X93190599Y-103139141D01*
X93190610Y-103139139D01*
X93410317Y-103080269D01*
X93410331Y-103080264D01*
X93616478Y-102984136D01*
X93689472Y-102933025D01*
X93008401Y-102251953D01*
X93089148Y-102239165D01*
X93202045Y-102181641D01*
X93291641Y-102092045D01*
X93349165Y-101979148D01*
X93361953Y-101898400D01*
X94043025Y-102579472D01*
X94094136Y-102506478D01*
X94190264Y-102300331D01*
X94190269Y-102300317D01*
X94249139Y-102080610D01*
X94249141Y-102080599D01*
X94268966Y-101854002D01*
X94268966Y-101853997D01*
X94249141Y-101627400D01*
X94249139Y-101627389D01*
X94190269Y-101407682D01*
X94190265Y-101407673D01*
X94094133Y-101201516D01*
X94094131Y-101201512D01*
X94043026Y-101128526D01*
X94043025Y-101128526D01*
X93361953Y-101809598D01*
X93349165Y-101728852D01*
X93291641Y-101615955D01*
X93202045Y-101526359D01*
X93089148Y-101468835D01*
X93008400Y-101456046D01*
X93689472Y-100774974D01*
X93689471Y-100774973D01*
X93616483Y-100723866D01*
X93616481Y-100723865D01*
X93410326Y-100627734D01*
X93410317Y-100627730D01*
X93190610Y-100568860D01*
X93190599Y-100568858D01*
X92964002Y-100549034D01*
X92963998Y-100549034D01*
X92737400Y-100568858D01*
X92737389Y-100568860D01*
X92517682Y-100627730D01*
X92517673Y-100627734D01*
X92311513Y-100723868D01*
X92238527Y-100774972D01*
X92238526Y-100774973D01*
X92919600Y-101456046D01*
X92838852Y-101468835D01*
X92725955Y-101526359D01*
X92636359Y-101615955D01*
X92578835Y-101728852D01*
X92566046Y-101809599D01*
X92000819Y-101244372D01*
X91967334Y-101183049D01*
X91964500Y-101156691D01*
X91964500Y-101034249D01*
X91964499Y-101034247D01*
X91952868Y-100975770D01*
X91952867Y-100975769D01*
X91908552Y-100909447D01*
X91842230Y-100865132D01*
X91842229Y-100865131D01*
X91783752Y-100853500D01*
X91783748Y-100853500D01*
X90144252Y-100853500D01*
X90144247Y-100853500D01*
X90085770Y-100865131D01*
X90085769Y-100865132D01*
X90019447Y-100909447D01*
X89975132Y-100975769D01*
X89975131Y-100975770D01*
X89963500Y-101034247D01*
X89963500Y-101219111D01*
X89943815Y-101286150D01*
X89891011Y-101331905D01*
X89821853Y-101341849D01*
X89758297Y-101312824D01*
X89751819Y-101306792D01*
X89397397Y-100952370D01*
X88832778Y-100387752D01*
X97104400Y-100387752D01*
X97116031Y-100446229D01*
X97116032Y-100446230D01*
X97160347Y-100512552D01*
X97226669Y-100556867D01*
X97226670Y-100556868D01*
X97285147Y-100568499D01*
X97285150Y-100568500D01*
X97285152Y-100568500D01*
X97655400Y-100568500D01*
X97722439Y-100588185D01*
X97768194Y-100640989D01*
X97779400Y-100692500D01*
X97779400Y-101721878D01*
X97779164Y-101727285D01*
X97775635Y-101767608D01*
X97786112Y-101806710D01*
X97787283Y-101811990D01*
X97794311Y-101851843D01*
X97796135Y-101856855D01*
X97803097Y-101873661D01*
X97805345Y-101878481D01*
X97805346Y-101878484D01*
X97818195Y-101896834D01*
X97828555Y-101911631D01*
X97831461Y-101916192D01*
X97851706Y-101951255D01*
X97882715Y-101977275D01*
X97886705Y-101980931D01*
X105471868Y-109566095D01*
X105475523Y-109570084D01*
X105501541Y-109601090D01*
X105501542Y-109601091D01*
X105501545Y-109601094D01*
X105530387Y-109617745D01*
X105536604Y-109621335D01*
X105541154Y-109624233D01*
X105574316Y-109647453D01*
X105574318Y-109647453D01*
X105574319Y-109647454D01*
X105579168Y-109649715D01*
X105595947Y-109656665D01*
X105600952Y-109658487D01*
X105600953Y-109658487D01*
X105600955Y-109658488D01*
X105640829Y-109665518D01*
X105646092Y-109666686D01*
X105657907Y-109669851D01*
X105685193Y-109677163D01*
X105725510Y-109673635D01*
X105730912Y-109673400D01*
X110011178Y-109673400D01*
X110016581Y-109673635D01*
X110056907Y-109677164D01*
X110096040Y-109666677D01*
X110101262Y-109665519D01*
X110141145Y-109658488D01*
X110141150Y-109658484D01*
X110146199Y-109656647D01*
X110162924Y-109649719D01*
X110167781Y-109647454D01*
X110167784Y-109647454D01*
X110200941Y-109624235D01*
X110205490Y-109621338D01*
X110240555Y-109601094D01*
X110240559Y-109601090D01*
X110251637Y-109587886D01*
X110266581Y-109570076D01*
X110270222Y-109566102D01*
X110670454Y-109165870D01*
X110731775Y-109132387D01*
X110794126Y-109134892D01*
X110975868Y-109190024D01*
X111172000Y-109209341D01*
X111368132Y-109190024D01*
X111556727Y-109132814D01*
X111730538Y-109039910D01*
X111882883Y-108914883D01*
X112007910Y-108762538D01*
X112075140Y-108636759D01*
X112100811Y-108588733D01*
X112100811Y-108588732D01*
X112100814Y-108588727D01*
X112158024Y-108400132D01*
X112177341Y-108204000D01*
X112158024Y-108007868D01*
X112100814Y-107819273D01*
X112100811Y-107819269D01*
X112100811Y-107819266D01*
X112007913Y-107645467D01*
X112007909Y-107645460D01*
X111882883Y-107493116D01*
X111730539Y-107368090D01*
X111730532Y-107368086D01*
X111556733Y-107275188D01*
X111556727Y-107275186D01*
X111368132Y-107217976D01*
X111368129Y-107217975D01*
X111172000Y-107198659D01*
X110975870Y-107217975D01*
X110787266Y-107275188D01*
X110613467Y-107368086D01*
X110613460Y-107368090D01*
X110461116Y-107493116D01*
X110336090Y-107645460D01*
X110336086Y-107645467D01*
X110243188Y-107819266D01*
X110185975Y-108007870D01*
X110166659Y-108204000D01*
X110185975Y-108400130D01*
X110241106Y-108581870D01*
X110241729Y-108651736D01*
X110210126Y-108705546D01*
X109929591Y-108986082D01*
X109868271Y-109019566D01*
X109841912Y-109022400D01*
X107419406Y-109022400D01*
X107352367Y-109002715D01*
X107306612Y-108949911D01*
X107296668Y-108880753D01*
X107307024Y-108845995D01*
X107398265Y-108650326D01*
X107398269Y-108650317D01*
X107457139Y-108430610D01*
X107457141Y-108430599D01*
X107476966Y-108204002D01*
X107476966Y-108203997D01*
X107457141Y-107977400D01*
X107457139Y-107977389D01*
X107398269Y-107757682D01*
X107398265Y-107757673D01*
X107302133Y-107551516D01*
X107302131Y-107551512D01*
X107251025Y-107478526D01*
X106569953Y-108159598D01*
X106557165Y-108078852D01*
X106499641Y-107965955D01*
X106410045Y-107876359D01*
X106297148Y-107818835D01*
X106216400Y-107806046D01*
X106897472Y-107124974D01*
X106897471Y-107124973D01*
X106824483Y-107073866D01*
X106824481Y-107073865D01*
X106618326Y-106977734D01*
X106618317Y-106977730D01*
X106398610Y-106918860D01*
X106398599Y-106918858D01*
X106172002Y-106899034D01*
X106171998Y-106899034D01*
X105945400Y-106918858D01*
X105945389Y-106918860D01*
X105725682Y-106977730D01*
X105725673Y-106977734D01*
X105519513Y-107073868D01*
X105446527Y-107124972D01*
X105446526Y-107124973D01*
X106127600Y-107806046D01*
X106046852Y-107818835D01*
X105933955Y-107876359D01*
X105844359Y-107965955D01*
X105786835Y-108078852D01*
X105774046Y-108159600D01*
X105092973Y-107478527D01*
X105041868Y-107551513D01*
X104945734Y-107757673D01*
X104945728Y-107757688D01*
X104924897Y-107835429D01*
X104888532Y-107895089D01*
X104825684Y-107925617D01*
X104756309Y-107917322D01*
X104717442Y-107891015D01*
X98466719Y-101640292D01*
X98433234Y-101578969D01*
X98430400Y-101552611D01*
X98430400Y-100692500D01*
X98450085Y-100625461D01*
X98502889Y-100579706D01*
X98554400Y-100568500D01*
X98924650Y-100568500D01*
X98924651Y-100568499D01*
X98939468Y-100565552D01*
X98983129Y-100556868D01*
X98983129Y-100556867D01*
X98983131Y-100556867D01*
X99049452Y-100512552D01*
X99093767Y-100446231D01*
X99093767Y-100446229D01*
X99093768Y-100446229D01*
X99105399Y-100387752D01*
X99105400Y-100387750D01*
X99105400Y-100265308D01*
X99125085Y-100198269D01*
X99141719Y-100177627D01*
X99706946Y-99612399D01*
X99719735Y-99693148D01*
X99777259Y-99806045D01*
X99866855Y-99895641D01*
X99979752Y-99953165D01*
X100060499Y-99965953D01*
X99379426Y-100647025D01*
X99379426Y-100647026D01*
X99452412Y-100698131D01*
X99452416Y-100698133D01*
X99658573Y-100794265D01*
X99658582Y-100794269D01*
X99878289Y-100853139D01*
X99878300Y-100853141D01*
X100104898Y-100872966D01*
X100104902Y-100872966D01*
X100331499Y-100853141D01*
X100331510Y-100853139D01*
X100551217Y-100794269D01*
X100551231Y-100794264D01*
X100757378Y-100698136D01*
X100830372Y-100647025D01*
X100149301Y-99965953D01*
X100230048Y-99953165D01*
X100342945Y-99895641D01*
X100432541Y-99806045D01*
X100490065Y-99693148D01*
X100502853Y-99612400D01*
X101183925Y-100293472D01*
X101235036Y-100220478D01*
X101331164Y-100014331D01*
X101331169Y-100014317D01*
X101390039Y-99794610D01*
X101390041Y-99794599D01*
X101409866Y-99568002D01*
X101409866Y-99567997D01*
X101390041Y-99341400D01*
X101390039Y-99341389D01*
X101331169Y-99121682D01*
X101331165Y-99121673D01*
X101235033Y-98915516D01*
X101235031Y-98915512D01*
X101183926Y-98842526D01*
X101183925Y-98842526D01*
X100502853Y-99523598D01*
X100490065Y-99442852D01*
X100432541Y-99329955D01*
X100342945Y-99240359D01*
X100230048Y-99182835D01*
X100149300Y-99170046D01*
X100830372Y-98488974D01*
X100830371Y-98488973D01*
X100757383Y-98437866D01*
X100757381Y-98437865D01*
X100551226Y-98341734D01*
X100551217Y-98341730D01*
X100331510Y-98282860D01*
X100331499Y-98282858D01*
X100104902Y-98263034D01*
X100104898Y-98263034D01*
X99878300Y-98282858D01*
X99878289Y-98282860D01*
X99658582Y-98341730D01*
X99658573Y-98341734D01*
X99452413Y-98437868D01*
X99379427Y-98488972D01*
X99379426Y-98488973D01*
X100060500Y-99170046D01*
X99979752Y-99182835D01*
X99866855Y-99240359D01*
X99777259Y-99329955D01*
X99719735Y-99442852D01*
X99706946Y-99523599D01*
X99141719Y-98958372D01*
X99108234Y-98897049D01*
X99105400Y-98870691D01*
X99105400Y-98748249D01*
X99105399Y-98748247D01*
X99093768Y-98689770D01*
X99093767Y-98689769D01*
X99049452Y-98623447D01*
X98983130Y-98579132D01*
X98983129Y-98579131D01*
X98924652Y-98567500D01*
X98924648Y-98567500D01*
X97285152Y-98567500D01*
X97285147Y-98567500D01*
X97226670Y-98579131D01*
X97226669Y-98579132D01*
X97160347Y-98623447D01*
X97116032Y-98689769D01*
X97116031Y-98689770D01*
X97104400Y-98748247D01*
X97104400Y-100387752D01*
X88832778Y-100387752D01*
X88301719Y-99856693D01*
X88298074Y-99852714D01*
X88272056Y-99821707D01*
X88272055Y-99821706D01*
X88260658Y-99815126D01*
X88236992Y-99801461D01*
X88232431Y-99798555D01*
X88219287Y-99789352D01*
X88199284Y-99775346D01*
X88199281Y-99775345D01*
X88194461Y-99773097D01*
X88177655Y-99766135D01*
X88172643Y-99764311D01*
X88132790Y-99757283D01*
X88127510Y-99756112D01*
X88088408Y-99745635D01*
X88053492Y-99748690D01*
X88048081Y-99749164D01*
X88042678Y-99749400D01*
X82200500Y-99749400D01*
X82133461Y-99729715D01*
X82087706Y-99676911D01*
X82076500Y-99625400D01*
X82076500Y-98662800D01*
X82096185Y-98595761D01*
X82148989Y-98550006D01*
X82200500Y-98538800D01*
X87334478Y-98538800D01*
X87339881Y-98539035D01*
X87380207Y-98542564D01*
X87419340Y-98532077D01*
X87424562Y-98530919D01*
X87464445Y-98523888D01*
X87464450Y-98523884D01*
X87469499Y-98522047D01*
X87486224Y-98515119D01*
X87491081Y-98512854D01*
X87491084Y-98512854D01*
X87524241Y-98489635D01*
X87528790Y-98486738D01*
X87563855Y-98466494D01*
X87589881Y-98435476D01*
X87593522Y-98431502D01*
X89719821Y-96305204D01*
X89781142Y-96271721D01*
X89850834Y-96276705D01*
X89906767Y-96318577D01*
X89931184Y-96384041D01*
X89931500Y-96392887D01*
X89931500Y-96577752D01*
X89943131Y-96636229D01*
X89943132Y-96636230D01*
X89987447Y-96702552D01*
X90053769Y-96746867D01*
X90053770Y-96746868D01*
X90112247Y-96758499D01*
X90112250Y-96758500D01*
X90112252Y-96758500D01*
X91751750Y-96758500D01*
X91751751Y-96758499D01*
X91766568Y-96755552D01*
X91810229Y-96746868D01*
X91810229Y-96746867D01*
X91810231Y-96746867D01*
X91876552Y-96702552D01*
X91920867Y-96636231D01*
X91920867Y-96636229D01*
X91920868Y-96636229D01*
X91932499Y-96577752D01*
X91932500Y-96577750D01*
X91932500Y-96455308D01*
X91952185Y-96388269D01*
X91968819Y-96367627D01*
X92534045Y-95802399D01*
X92546835Y-95883148D01*
X92604359Y-95996045D01*
X92693955Y-96085641D01*
X92806852Y-96143165D01*
X92887599Y-96155953D01*
X92206526Y-96837025D01*
X92206526Y-96837026D01*
X92279512Y-96888131D01*
X92279516Y-96888133D01*
X92485673Y-96984265D01*
X92485682Y-96984269D01*
X92705389Y-97043139D01*
X92705400Y-97043141D01*
X92931998Y-97062966D01*
X92932002Y-97062966D01*
X93158599Y-97043141D01*
X93158610Y-97043139D01*
X93378317Y-96984269D01*
X93378331Y-96984264D01*
X93584478Y-96888136D01*
X93657472Y-96837025D01*
X92976401Y-96155953D01*
X93057148Y-96143165D01*
X93170045Y-96085641D01*
X93259641Y-95996045D01*
X93317165Y-95883148D01*
X93329953Y-95802400D01*
X94011025Y-96483472D01*
X94062136Y-96410478D01*
X94158264Y-96204331D01*
X94158269Y-96204317D01*
X94217139Y-95984610D01*
X94217141Y-95984599D01*
X94236966Y-95758002D01*
X94236966Y-95757997D01*
X94217141Y-95531400D01*
X94217139Y-95531389D01*
X94158269Y-95311682D01*
X94158265Y-95311673D01*
X94061942Y-95105105D01*
X94051450Y-95036027D01*
X94079970Y-94972243D01*
X94138447Y-94934004D01*
X94174324Y-94928700D01*
X100718612Y-94928700D01*
X100785651Y-94948385D01*
X100806292Y-94965018D01*
X103224840Y-97383567D01*
X105627468Y-99786195D01*
X105631123Y-99790184D01*
X105657141Y-99821190D01*
X105657142Y-99821191D01*
X105657145Y-99821194D01*
X105685987Y-99837845D01*
X105692204Y-99841435D01*
X105696754Y-99844333D01*
X105729916Y-99867553D01*
X105729918Y-99867553D01*
X105729919Y-99867554D01*
X105734768Y-99869815D01*
X105751547Y-99876765D01*
X105756552Y-99878587D01*
X105756553Y-99878587D01*
X105756555Y-99878588D01*
X105796429Y-99885618D01*
X105801692Y-99886786D01*
X105811646Y-99889452D01*
X105840793Y-99897263D01*
X105859591Y-99895618D01*
X105928090Y-99909383D01*
X105978274Y-99957998D01*
X105994400Y-100019146D01*
X105994400Y-100387752D01*
X106006031Y-100446229D01*
X106006032Y-100446230D01*
X106050347Y-100512552D01*
X106116669Y-100556867D01*
X106116670Y-100556868D01*
X106175147Y-100568499D01*
X106175150Y-100568500D01*
X106175152Y-100568500D01*
X106545400Y-100568500D01*
X106612439Y-100588185D01*
X106658194Y-100640989D01*
X106669400Y-100692500D01*
X106669400Y-103078170D01*
X106649715Y-103145209D01*
X106596911Y-103190964D01*
X106527753Y-103200908D01*
X106509405Y-103196831D01*
X106368130Y-103153975D01*
X106172000Y-103134659D01*
X105975870Y-103153975D01*
X105787266Y-103211188D01*
X105613467Y-103304086D01*
X105613460Y-103304090D01*
X105461116Y-103429116D01*
X105336090Y-103581460D01*
X105336086Y-103581467D01*
X105243188Y-103755266D01*
X105185975Y-103943870D01*
X105166659Y-104140000D01*
X105185975Y-104336129D01*
X105185976Y-104336132D01*
X105233729Y-104493553D01*
X105243188Y-104524733D01*
X105336086Y-104698532D01*
X105336090Y-104698539D01*
X105461116Y-104850883D01*
X105613460Y-104975909D01*
X105613467Y-104975913D01*
X105787266Y-105068811D01*
X105787269Y-105068811D01*
X105787273Y-105068814D01*
X105975868Y-105126024D01*
X106172000Y-105145341D01*
X106368132Y-105126024D01*
X106556727Y-105068814D01*
X106730538Y-104975910D01*
X106882883Y-104850883D01*
X107007910Y-104698538D01*
X107054362Y-104611632D01*
X107100811Y-104524733D01*
X107100811Y-104524732D01*
X107100814Y-104524727D01*
X107158024Y-104336132D01*
X107177341Y-104140002D01*
X109867034Y-104140002D01*
X109886858Y-104366599D01*
X109886860Y-104366610D01*
X109945730Y-104586317D01*
X109945734Y-104586326D01*
X110041865Y-104792481D01*
X110041866Y-104792483D01*
X110092973Y-104865471D01*
X110092974Y-104865472D01*
X110774046Y-104184399D01*
X110786835Y-104265148D01*
X110844359Y-104378045D01*
X110933955Y-104467641D01*
X111046852Y-104525165D01*
X111127599Y-104537953D01*
X110446526Y-105219025D01*
X110446526Y-105219026D01*
X110519512Y-105270131D01*
X110519516Y-105270133D01*
X110725673Y-105366265D01*
X110725682Y-105366269D01*
X110945389Y-105425139D01*
X110945400Y-105425141D01*
X111171998Y-105444966D01*
X111172002Y-105444966D01*
X111398599Y-105425141D01*
X111398610Y-105425139D01*
X111618317Y-105366269D01*
X111618331Y-105366264D01*
X111824478Y-105270136D01*
X111897472Y-105219025D01*
X111216401Y-104537953D01*
X111297148Y-104525165D01*
X111410045Y-104467641D01*
X111499641Y-104378045D01*
X111557165Y-104265148D01*
X111569953Y-104184400D01*
X112251025Y-104865472D01*
X112302136Y-104792478D01*
X112398264Y-104586331D01*
X112398269Y-104586317D01*
X112457139Y-104366610D01*
X112457141Y-104366599D01*
X112476966Y-104140002D01*
X112476966Y-104139997D01*
X112457141Y-103913400D01*
X112457139Y-103913389D01*
X112398269Y-103693682D01*
X112398265Y-103693673D01*
X112302133Y-103487516D01*
X112302131Y-103487512D01*
X112251026Y-103414526D01*
X112251025Y-103414526D01*
X111569953Y-104095598D01*
X111557165Y-104014852D01*
X111499641Y-103901955D01*
X111410045Y-103812359D01*
X111297148Y-103754835D01*
X111216400Y-103742046D01*
X111897472Y-103060974D01*
X111897471Y-103060973D01*
X111824483Y-103009866D01*
X111824481Y-103009865D01*
X111618326Y-102913734D01*
X111618317Y-102913730D01*
X111398610Y-102854860D01*
X111398599Y-102854858D01*
X111172002Y-102835034D01*
X111171998Y-102835034D01*
X110945400Y-102854858D01*
X110945389Y-102854860D01*
X110725682Y-102913730D01*
X110725673Y-102913734D01*
X110519513Y-103009868D01*
X110446527Y-103060972D01*
X110446526Y-103060973D01*
X111127600Y-103742046D01*
X111046852Y-103754835D01*
X110933955Y-103812359D01*
X110844359Y-103901955D01*
X110786835Y-104014852D01*
X110774046Y-104095599D01*
X110092973Y-103414526D01*
X110092972Y-103414527D01*
X110041868Y-103487513D01*
X109945734Y-103693673D01*
X109945730Y-103693682D01*
X109886860Y-103913389D01*
X109886858Y-103913400D01*
X109867034Y-104139997D01*
X109867034Y-104140002D01*
X107177341Y-104140002D01*
X107177341Y-104140000D01*
X107158024Y-103943868D01*
X107102892Y-103762126D01*
X107102270Y-103692262D01*
X107133871Y-103638454D01*
X107213110Y-103559215D01*
X107217072Y-103555584D01*
X107248094Y-103529555D01*
X107268344Y-103494479D01*
X107271228Y-103489952D01*
X107294454Y-103456784D01*
X107294454Y-103456781D01*
X107296719Y-103451924D01*
X107303647Y-103435199D01*
X107305487Y-103430146D01*
X107305488Y-103430145D01*
X107312521Y-103390250D01*
X107313677Y-103385037D01*
X107324163Y-103345907D01*
X107320635Y-103305589D01*
X107320400Y-103300186D01*
X107320400Y-100692500D01*
X107340085Y-100625461D01*
X107392889Y-100579706D01*
X107444400Y-100568500D01*
X107814650Y-100568500D01*
X107814651Y-100568499D01*
X107829468Y-100565552D01*
X107873129Y-100556868D01*
X107873129Y-100556867D01*
X107873131Y-100556867D01*
X107939452Y-100512552D01*
X107983767Y-100446231D01*
X107983767Y-100446229D01*
X107983768Y-100446229D01*
X107995399Y-100387752D01*
X107995400Y-100387750D01*
X107995400Y-100265308D01*
X108015085Y-100198269D01*
X108031719Y-100177627D01*
X108596946Y-99612400D01*
X108609735Y-99693148D01*
X108667259Y-99806045D01*
X108756855Y-99895641D01*
X108869752Y-99953165D01*
X108950499Y-99965953D01*
X108269426Y-100647025D01*
X108269426Y-100647026D01*
X108342412Y-100698131D01*
X108342416Y-100698133D01*
X108548573Y-100794265D01*
X108548582Y-100794269D01*
X108768289Y-100853139D01*
X108768300Y-100853141D01*
X108994898Y-100872966D01*
X108994902Y-100872966D01*
X109221499Y-100853141D01*
X109221510Y-100853139D01*
X109441217Y-100794269D01*
X109441231Y-100794264D01*
X109647378Y-100698136D01*
X109720372Y-100647025D01*
X109039301Y-99965953D01*
X109120048Y-99953165D01*
X109232945Y-99895641D01*
X109322541Y-99806045D01*
X109380065Y-99693148D01*
X109392853Y-99612400D01*
X110073925Y-100293472D01*
X110125036Y-100220478D01*
X110221164Y-100014331D01*
X110221169Y-100014317D01*
X110272698Y-99822006D01*
X114672700Y-99822006D01*
X114691864Y-100053297D01*
X114691866Y-100053308D01*
X114748842Y-100278300D01*
X114842075Y-100490848D01*
X114969016Y-100685147D01*
X114969019Y-100685151D01*
X114969021Y-100685153D01*
X115126216Y-100855913D01*
X115126219Y-100855915D01*
X115126222Y-100855918D01*
X115309365Y-100998464D01*
X115309371Y-100998468D01*
X115309374Y-100998470D01*
X115513497Y-101108936D01*
X115570561Y-101128526D01*
X115733015Y-101184297D01*
X115733017Y-101184297D01*
X115733019Y-101184298D01*
X115961951Y-101222500D01*
X115961952Y-101222500D01*
X116194048Y-101222500D01*
X116194049Y-101222500D01*
X116422981Y-101184298D01*
X116642503Y-101108936D01*
X116846626Y-100998470D01*
X116875793Y-100975769D01*
X116939720Y-100926012D01*
X117029784Y-100855913D01*
X117186979Y-100685153D01*
X117313924Y-100490849D01*
X117407157Y-100278300D01*
X117464134Y-100053305D01*
X117464135Y-100053297D01*
X117483300Y-99822006D01*
X117483300Y-99821993D01*
X117464135Y-99590702D01*
X117464133Y-99590691D01*
X117407157Y-99365699D01*
X117313924Y-99153151D01*
X117186983Y-98958852D01*
X117186980Y-98958849D01*
X117186979Y-98958847D01*
X117029784Y-98788087D01*
X117029779Y-98788083D01*
X117029777Y-98788081D01*
X116846634Y-98645535D01*
X116846628Y-98645531D01*
X116642504Y-98535064D01*
X116642495Y-98535061D01*
X116487237Y-98481760D01*
X116430221Y-98441374D01*
X116404091Y-98376575D01*
X116403500Y-98364479D01*
X116403500Y-96961520D01*
X116423185Y-96894481D01*
X116475989Y-96848726D01*
X116487237Y-96844239D01*
X116508250Y-96837025D01*
X116642503Y-96790936D01*
X116846626Y-96680470D01*
X117029784Y-96537913D01*
X117186979Y-96367153D01*
X117313924Y-96172849D01*
X117407157Y-95960300D01*
X117464134Y-95735305D01*
X117465877Y-95714269D01*
X117483300Y-95504006D01*
X117483300Y-95503993D01*
X117464135Y-95272702D01*
X117464133Y-95272691D01*
X117407157Y-95047699D01*
X117313924Y-94835151D01*
X117186983Y-94640852D01*
X117186980Y-94640849D01*
X117186979Y-94640847D01*
X117029784Y-94470087D01*
X117029779Y-94470083D01*
X117029777Y-94470081D01*
X116846634Y-94327535D01*
X116846628Y-94327531D01*
X116642504Y-94217064D01*
X116642495Y-94217061D01*
X116422984Y-94141702D01*
X116251282Y-94113050D01*
X116194049Y-94103500D01*
X115961951Y-94103500D01*
X115916164Y-94111140D01*
X115733015Y-94141702D01*
X115513504Y-94217061D01*
X115513495Y-94217064D01*
X115309371Y-94327531D01*
X115309365Y-94327535D01*
X115126222Y-94470081D01*
X115126219Y-94470084D01*
X115126216Y-94470086D01*
X115126216Y-94470087D01*
X115083540Y-94516446D01*
X114969016Y-94640852D01*
X114842075Y-94835151D01*
X114748842Y-95047699D01*
X114691866Y-95272691D01*
X114691864Y-95272702D01*
X114672700Y-95503993D01*
X114672700Y-95504006D01*
X114691864Y-95735297D01*
X114691866Y-95735308D01*
X114748842Y-95960300D01*
X114842075Y-96172848D01*
X114969016Y-96367147D01*
X114969019Y-96367151D01*
X114969021Y-96367153D01*
X115126216Y-96537913D01*
X115126219Y-96537915D01*
X115126222Y-96537918D01*
X115309365Y-96680464D01*
X115309371Y-96680468D01*
X115309374Y-96680470D01*
X115513497Y-96790936D01*
X115634696Y-96832543D01*
X115668763Y-96844239D01*
X115725778Y-96884624D01*
X115751909Y-96949424D01*
X115752500Y-96961520D01*
X115752500Y-98364479D01*
X115732815Y-98431518D01*
X115680011Y-98477273D01*
X115668763Y-98481760D01*
X115513504Y-98535061D01*
X115513495Y-98535064D01*
X115309371Y-98645531D01*
X115309365Y-98645535D01*
X115126222Y-98788081D01*
X115126219Y-98788084D01*
X115126216Y-98788086D01*
X115126216Y-98788087D01*
X115076102Y-98842526D01*
X114969016Y-98958852D01*
X114842075Y-99153151D01*
X114748842Y-99365699D01*
X114691866Y-99590691D01*
X114691864Y-99590702D01*
X114672700Y-99821993D01*
X114672700Y-99822006D01*
X110272698Y-99822006D01*
X110280039Y-99794610D01*
X110280041Y-99794599D01*
X110299866Y-99568002D01*
X110299866Y-99567997D01*
X110280041Y-99341400D01*
X110280039Y-99341389D01*
X110221169Y-99121682D01*
X110221165Y-99121673D01*
X110125033Y-98915516D01*
X110125031Y-98915512D01*
X110073926Y-98842526D01*
X110073925Y-98842526D01*
X109392853Y-99523598D01*
X109380065Y-99442852D01*
X109322541Y-99329955D01*
X109232945Y-99240359D01*
X109120048Y-99182835D01*
X109039300Y-99170046D01*
X109720372Y-98488974D01*
X109720371Y-98488973D01*
X109647383Y-98437866D01*
X109647381Y-98437865D01*
X109441226Y-98341734D01*
X109441217Y-98341730D01*
X109221510Y-98282860D01*
X109221499Y-98282858D01*
X108994902Y-98263034D01*
X108994898Y-98263034D01*
X108768300Y-98282858D01*
X108768289Y-98282860D01*
X108548582Y-98341730D01*
X108548568Y-98341735D01*
X108380810Y-98419962D01*
X108311733Y-98430454D01*
X108247949Y-98401934D01*
X108209710Y-98343457D01*
X108209156Y-98273590D01*
X108240723Y-98219901D01*
X114425193Y-92035431D01*
X114486512Y-92001949D01*
X114556204Y-92006933D01*
X114612137Y-92048805D01*
X114620257Y-92061115D01*
X114669457Y-92146332D01*
X114711452Y-92198993D01*
X115515226Y-91395219D01*
X115553901Y-91488588D01*
X115650075Y-91613925D01*
X115775412Y-91710099D01*
X115868779Y-91748772D01*
X115064813Y-92552737D01*
X115225623Y-92662375D01*
X115225624Y-92662376D01*
X115455176Y-92772921D01*
X115455174Y-92772921D01*
X115698652Y-92848024D01*
X115698658Y-92848026D01*
X115950595Y-92885999D01*
X115950604Y-92886000D01*
X116205396Y-92886000D01*
X116205404Y-92885999D01*
X116457341Y-92848026D01*
X116457347Y-92848024D01*
X116700824Y-92772921D01*
X116930381Y-92662373D01*
X117091185Y-92552737D01*
X116287220Y-91748772D01*
X116380588Y-91710099D01*
X116505925Y-91613925D01*
X116602099Y-91488589D01*
X116640773Y-91395220D01*
X117444545Y-92198993D01*
X117486545Y-92146327D01*
X117613941Y-91925671D01*
X117707026Y-91688494D01*
X117707031Y-91688477D01*
X117763726Y-91440079D01*
X117782767Y-91186004D01*
X117782767Y-91185995D01*
X117763726Y-90931920D01*
X117707031Y-90683522D01*
X117707026Y-90683505D01*
X117613941Y-90446328D01*
X117613942Y-90446328D01*
X117486544Y-90225671D01*
X117444546Y-90173006D01*
X116640772Y-90976779D01*
X116602099Y-90883412D01*
X116505925Y-90758075D01*
X116380588Y-90661901D01*
X116287219Y-90623226D01*
X117091185Y-89819261D01*
X116930377Y-89709624D01*
X116930376Y-89709623D01*
X116700823Y-89599078D01*
X116700825Y-89599078D01*
X116457347Y-89523975D01*
X116457341Y-89523973D01*
X116205404Y-89486000D01*
X115950593Y-89486000D01*
X115848256Y-89501425D01*
X115779032Y-89491952D01*
X115725918Y-89446557D01*
X115705779Y-89379652D01*
X115725008Y-89312481D01*
X115742089Y-89291135D01*
X116270804Y-88762420D01*
X116274766Y-88758789D01*
X116305794Y-88732755D01*
X116326038Y-88697690D01*
X116328935Y-88693141D01*
X116352154Y-88659984D01*
X116352154Y-88659981D01*
X116354419Y-88655124D01*
X116361347Y-88638399D01*
X116363184Y-88633350D01*
X116363188Y-88633345D01*
X116370219Y-88593462D01*
X116371377Y-88588240D01*
X116381864Y-88549107D01*
X116378335Y-88508781D01*
X116378100Y-88503378D01*
X116378100Y-88452520D01*
X116397785Y-88385481D01*
X116450589Y-88339726D01*
X116461837Y-88335239D01*
X116513147Y-88317624D01*
X116617103Y-88281936D01*
X116821226Y-88171470D01*
X116834735Y-88160956D01*
X116899089Y-88110867D01*
X117004384Y-88028913D01*
X117161579Y-87858153D01*
X117288524Y-87663849D01*
X117381757Y-87451300D01*
X117438734Y-87226305D01*
X117438888Y-87224447D01*
X117457900Y-86995006D01*
X117457900Y-86994993D01*
X117438735Y-86763702D01*
X117438733Y-86763691D01*
X117381757Y-86538699D01*
X117288524Y-86326151D01*
X117161583Y-86131852D01*
X117161580Y-86131849D01*
X117161579Y-86131847D01*
X117004384Y-85961087D01*
X117004379Y-85961083D01*
X117004377Y-85961081D01*
X116821234Y-85818535D01*
X116821228Y-85818531D01*
X116617104Y-85708064D01*
X116617095Y-85708061D01*
X116397584Y-85632702D01*
X116209345Y-85601291D01*
X116168649Y-85594500D01*
X115936551Y-85594500D01*
X115895855Y-85601291D01*
X115707615Y-85632702D01*
X115488104Y-85708061D01*
X115488095Y-85708064D01*
X115283971Y-85818531D01*
X115283965Y-85818535D01*
X115100822Y-85961081D01*
X115100819Y-85961084D01*
X114943616Y-86131852D01*
X114816675Y-86326151D01*
X114723442Y-86538699D01*
X114666466Y-86763691D01*
X114666464Y-86763702D01*
X114647300Y-86994993D01*
X114647300Y-86995006D01*
X114666464Y-87226297D01*
X114666466Y-87226308D01*
X114723442Y-87451300D01*
X114816675Y-87663848D01*
X114943616Y-87858147D01*
X114943619Y-87858151D01*
X114943621Y-87858153D01*
X115100816Y-88028913D01*
X115100819Y-88028915D01*
X115100822Y-88028918D01*
X115283965Y-88171464D01*
X115283971Y-88171468D01*
X115283974Y-88171470D01*
X115423654Y-88247061D01*
X115482588Y-88278955D01*
X115488097Y-88281936D01*
X115514214Y-88290902D01*
X115555215Y-88304978D01*
X115612230Y-88345363D01*
X115638361Y-88410163D01*
X115625310Y-88478803D01*
X115602633Y-88509940D01*
X114309103Y-89803470D01*
X114305114Y-89807125D01*
X114274105Y-89833145D01*
X114253862Y-89868206D01*
X114250956Y-89872766D01*
X114227746Y-89905913D01*
X114225506Y-89910717D01*
X114218529Y-89927561D01*
X114216710Y-89932559D01*
X114209683Y-89972411D01*
X114208512Y-89977691D01*
X114198035Y-90016791D01*
X114199471Y-90033194D01*
X114201193Y-90052880D01*
X114201564Y-90057113D01*
X114201800Y-90062520D01*
X114201800Y-90374162D01*
X114182115Y-90441201D01*
X114129311Y-90486956D01*
X114060153Y-90496900D01*
X114030348Y-90488723D01*
X113937965Y-90450457D01*
X113937960Y-90450455D01*
X113781201Y-90429818D01*
X113781197Y-90429818D01*
X113713379Y-90438746D01*
X113644344Y-90427980D01*
X113609514Y-90403488D01*
X111869119Y-88663092D01*
X111835634Y-88601769D01*
X111832800Y-88575411D01*
X111832800Y-88334606D01*
X111826618Y-88317621D01*
X111821025Y-88296746D01*
X111820393Y-88293164D01*
X111817888Y-88278955D01*
X111808853Y-88263306D01*
X111799719Y-88243718D01*
X111794045Y-88228128D01*
X111793540Y-88226740D01*
X111781924Y-88212897D01*
X111769527Y-88195191D01*
X111760494Y-88179545D01*
X111750871Y-88171470D01*
X111746649Y-88167927D01*
X111731370Y-88152648D01*
X111727249Y-88147737D01*
X111719755Y-88138806D01*
X111719752Y-88138804D01*
X111719751Y-88138803D01*
X111704109Y-88129773D01*
X111686408Y-88117379D01*
X111672561Y-88105760D01*
X111672559Y-88105759D01*
X111672556Y-88105757D01*
X111655576Y-88099577D01*
X111635993Y-88090446D01*
X111630386Y-88087209D01*
X111620345Y-88081412D01*
X111620343Y-88081411D01*
X111620342Y-88081411D01*
X111602552Y-88078274D01*
X111581678Y-88072681D01*
X111564696Y-88066500D01*
X111564694Y-88066500D01*
X111535775Y-88066500D01*
X111440793Y-88066500D01*
X111373754Y-88046815D01*
X111327999Y-87994011D01*
X111320587Y-87972939D01*
X111311157Y-87935700D01*
X111217924Y-87723151D01*
X111090983Y-87528852D01*
X111090980Y-87528849D01*
X111090979Y-87528847D01*
X110933784Y-87358087D01*
X110933779Y-87358083D01*
X110933777Y-87358081D01*
X110750634Y-87215535D01*
X110750628Y-87215531D01*
X110546504Y-87105064D01*
X110546495Y-87105061D01*
X110326984Y-87029702D01*
X110155282Y-87001050D01*
X110098049Y-86991500D01*
X109865951Y-86991500D01*
X109820164Y-86999140D01*
X109637015Y-87029702D01*
X109417504Y-87105061D01*
X109417495Y-87105064D01*
X109213371Y-87215531D01*
X109213365Y-87215535D01*
X109030222Y-87358081D01*
X109030219Y-87358084D01*
X109030216Y-87358086D01*
X109030216Y-87358087D01*
X108998919Y-87392085D01*
X108873016Y-87528852D01*
X108746075Y-87723151D01*
X108652842Y-87935699D01*
X108595866Y-88160691D01*
X108595864Y-88160702D01*
X108576700Y-88391993D01*
X108576700Y-88392006D01*
X108595864Y-88623297D01*
X108595866Y-88623308D01*
X108652842Y-88848300D01*
X108746075Y-89060848D01*
X108873016Y-89255147D01*
X108873019Y-89255151D01*
X108873021Y-89255153D01*
X109030216Y-89425913D01*
X109030219Y-89425915D01*
X109030222Y-89425918D01*
X109213365Y-89568464D01*
X109213371Y-89568468D01*
X109213374Y-89568470D01*
X109417497Y-89678936D01*
X109506885Y-89709623D01*
X109637015Y-89754297D01*
X109637017Y-89754297D01*
X109637019Y-89754298D01*
X109865951Y-89792500D01*
X109865952Y-89792500D01*
X110098048Y-89792500D01*
X110098049Y-89792500D01*
X110326981Y-89754298D01*
X110546503Y-89678936D01*
X110750626Y-89568470D01*
X110803838Y-89527054D01*
X110885126Y-89463785D01*
X110933784Y-89425913D01*
X111090979Y-89255153D01*
X111185106Y-89111079D01*
X111238251Y-89065724D01*
X111307482Y-89056300D01*
X111370818Y-89085801D01*
X111376595Y-89091221D01*
X113149188Y-90863814D01*
X113182673Y-90925137D01*
X113184446Y-90967679D01*
X113175518Y-91035497D01*
X113175518Y-91035501D01*
X113196155Y-91192260D01*
X113196156Y-91192262D01*
X113251791Y-91326578D01*
X113256664Y-91338341D01*
X113352918Y-91463782D01*
X113478359Y-91560036D01*
X113624438Y-91620544D01*
X113635815Y-91622041D01*
X113699709Y-91650305D01*
X113738182Y-91708628D01*
X113739016Y-91778493D01*
X113707311Y-91832661D01*
X107008793Y-98531181D01*
X106947470Y-98564666D01*
X106921112Y-98567500D01*
X106175147Y-98567500D01*
X106116670Y-98579131D01*
X106116669Y-98579132D01*
X106050347Y-98623447D01*
X106006032Y-98689769D01*
X106006031Y-98689770D01*
X105994400Y-98748247D01*
X105994400Y-98933111D01*
X105974715Y-99000150D01*
X105921911Y-99045905D01*
X105852753Y-99055849D01*
X105789197Y-99026824D01*
X105782719Y-99020792D01*
X104630042Y-97868115D01*
X101146919Y-94384993D01*
X101143274Y-94381014D01*
X101117256Y-94350007D01*
X101117255Y-94350006D01*
X101105858Y-94343426D01*
X101082192Y-94329761D01*
X101077631Y-94326855D01*
X101064487Y-94317652D01*
X101044484Y-94303646D01*
X101044481Y-94303645D01*
X101039661Y-94301397D01*
X101022855Y-94294435D01*
X101017843Y-94292611D01*
X100977990Y-94285583D01*
X100972710Y-94284412D01*
X100933608Y-94273935D01*
X100898692Y-94276990D01*
X100893281Y-94277464D01*
X100887878Y-94277700D01*
X91669722Y-94277700D01*
X91664318Y-94277464D01*
X91658907Y-94276990D01*
X91623992Y-94273935D01*
X91623991Y-94273935D01*
X91584891Y-94284412D01*
X91579611Y-94285583D01*
X91539759Y-94292610D01*
X91534761Y-94294429D01*
X91517917Y-94301406D01*
X91513113Y-94303646D01*
X91479966Y-94326856D01*
X91475406Y-94329762D01*
X91440348Y-94350004D01*
X91440345Y-94350006D01*
X91440343Y-94350008D01*
X91440341Y-94350010D01*
X91414324Y-94381015D01*
X91410669Y-94385003D01*
X91325592Y-94470081D01*
X91074491Y-94721182D01*
X91013170Y-94754666D01*
X90986812Y-94757500D01*
X90112247Y-94757500D01*
X90053770Y-94769131D01*
X90053769Y-94769132D01*
X89987447Y-94813447D01*
X89943132Y-94879769D01*
X89943131Y-94879770D01*
X89931500Y-94938247D01*
X89931500Y-95306852D01*
X89911815Y-95373891D01*
X89859011Y-95419646D01*
X89796693Y-95430380D01*
X89777894Y-95428735D01*
X89777891Y-95428735D01*
X89738791Y-95439212D01*
X89733511Y-95440383D01*
X89693659Y-95447410D01*
X89688661Y-95449229D01*
X89671817Y-95456206D01*
X89667013Y-95458446D01*
X89633866Y-95481656D01*
X89629306Y-95484562D01*
X89594248Y-95504804D01*
X89594240Y-95504810D01*
X89568223Y-95535815D01*
X89564568Y-95539804D01*
X88401822Y-96702552D01*
X87252893Y-97851481D01*
X87191570Y-97884966D01*
X87165212Y-97887800D01*
X82141190Y-97887800D01*
X82074151Y-97868115D01*
X82038089Y-97832692D01*
X82020553Y-97806448D01*
X81954230Y-97762132D01*
X81954229Y-97762131D01*
X81895752Y-97750500D01*
X81895748Y-97750500D01*
X81477147Y-97750500D01*
X81410108Y-97730815D01*
X81364353Y-97678011D01*
X81353619Y-97615690D01*
X81354359Y-97607231D01*
X81355264Y-97596893D01*
X81344782Y-97557776D01*
X81343616Y-97552518D01*
X81336588Y-97512655D01*
X81336586Y-97512652D01*
X81336586Y-97512650D01*
X81334760Y-97507633D01*
X81327820Y-97490876D01*
X81325554Y-97486019D01*
X81325554Y-97486016D01*
X81302339Y-97452862D01*
X81299433Y-97448299D01*
X81279196Y-97413248D01*
X81279195Y-97413247D01*
X81279194Y-97413245D01*
X81248177Y-97387218D01*
X81244193Y-97383567D01*
X79903819Y-96043193D01*
X79870334Y-95981870D01*
X79867500Y-95955512D01*
X79867500Y-95522794D01*
X79887185Y-95455755D01*
X79933047Y-95413436D01*
X80100532Y-95323913D01*
X80100538Y-95323910D01*
X80252883Y-95198883D01*
X80377910Y-95046538D01*
X80456677Y-94899175D01*
X80470811Y-94872733D01*
X80470811Y-94872732D01*
X80470814Y-94872727D01*
X80528024Y-94684132D01*
X80547341Y-94488002D01*
X83237034Y-94488002D01*
X83256858Y-94714599D01*
X83256860Y-94714610D01*
X83315730Y-94934317D01*
X83315734Y-94934326D01*
X83411865Y-95140481D01*
X83411866Y-95140483D01*
X83462973Y-95213471D01*
X83462974Y-95213472D01*
X84144046Y-94532399D01*
X84156835Y-94613148D01*
X84214359Y-94726045D01*
X84303955Y-94815641D01*
X84416852Y-94873165D01*
X84497599Y-94885953D01*
X83816526Y-95567025D01*
X83816526Y-95567026D01*
X83889512Y-95618131D01*
X83889516Y-95618133D01*
X84095673Y-95714265D01*
X84095682Y-95714269D01*
X84315389Y-95773139D01*
X84315400Y-95773141D01*
X84541998Y-95792966D01*
X84542002Y-95792966D01*
X84768599Y-95773141D01*
X84768610Y-95773139D01*
X84988317Y-95714269D01*
X84988331Y-95714264D01*
X85194478Y-95618136D01*
X85267472Y-95567025D01*
X84586401Y-94885953D01*
X84667148Y-94873165D01*
X84780045Y-94815641D01*
X84869641Y-94726045D01*
X84927165Y-94613148D01*
X84939953Y-94532400D01*
X85621025Y-95213472D01*
X85672136Y-95140478D01*
X85768264Y-94934331D01*
X85768269Y-94934317D01*
X85827139Y-94714610D01*
X85827141Y-94714599D01*
X85846966Y-94488002D01*
X85846966Y-94487997D01*
X85827141Y-94261400D01*
X85827139Y-94261389D01*
X85768269Y-94041682D01*
X85768265Y-94041673D01*
X85672133Y-93835516D01*
X85672131Y-93835512D01*
X85621026Y-93762526D01*
X85621025Y-93762526D01*
X84939953Y-94443598D01*
X84927165Y-94362852D01*
X84869641Y-94249955D01*
X84780045Y-94160359D01*
X84667148Y-94102835D01*
X84586400Y-94090046D01*
X85267472Y-93408974D01*
X85267471Y-93408973D01*
X85194483Y-93357866D01*
X85194481Y-93357865D01*
X84988326Y-93261734D01*
X84988317Y-93261730D01*
X84768610Y-93202860D01*
X84768599Y-93202858D01*
X84542002Y-93183034D01*
X84541998Y-93183034D01*
X84315400Y-93202858D01*
X84315389Y-93202860D01*
X84095682Y-93261730D01*
X84095673Y-93261734D01*
X83889513Y-93357868D01*
X83816527Y-93408972D01*
X83816526Y-93408973D01*
X84497600Y-94090046D01*
X84416852Y-94102835D01*
X84303955Y-94160359D01*
X84214359Y-94249955D01*
X84156835Y-94362852D01*
X84144046Y-94443599D01*
X83462973Y-93762526D01*
X83462972Y-93762527D01*
X83411868Y-93835513D01*
X83315734Y-94041673D01*
X83315730Y-94041682D01*
X83256860Y-94261389D01*
X83256858Y-94261400D01*
X83237034Y-94487997D01*
X83237034Y-94488002D01*
X80547341Y-94488002D01*
X80547341Y-94488000D01*
X80528024Y-94291868D01*
X80470814Y-94103273D01*
X80470811Y-94103269D01*
X80470811Y-94103266D01*
X80377913Y-93929467D01*
X80377909Y-93929460D01*
X80252883Y-93777116D01*
X80100539Y-93652090D01*
X80100532Y-93652086D01*
X79926733Y-93559188D01*
X79926727Y-93559186D01*
X79765309Y-93510220D01*
X79738129Y-93501975D01*
X79542000Y-93482659D01*
X79345870Y-93501975D01*
X79157266Y-93559188D01*
X78983467Y-93652086D01*
X78983461Y-93652090D01*
X78915264Y-93708058D01*
X78850954Y-93735370D01*
X78782087Y-93723579D01*
X78730527Y-93676426D01*
X78712600Y-93612204D01*
X78712600Y-92233087D01*
X78732285Y-92166048D01*
X78748915Y-92145410D01*
X79210047Y-91684277D01*
X79271368Y-91650794D01*
X79341059Y-91655778D01*
X79356744Y-91662905D01*
X79443950Y-91710099D01*
X79445497Y-91710936D01*
X79500458Y-91729804D01*
X79665015Y-91786297D01*
X79665017Y-91786297D01*
X79665019Y-91786298D01*
X79893951Y-91824500D01*
X79893952Y-91824500D01*
X80126048Y-91824500D01*
X80126049Y-91824500D01*
X80354981Y-91786298D01*
X80574503Y-91710936D01*
X80778626Y-91600470D01*
X80797160Y-91586045D01*
X80840129Y-91552600D01*
X80961784Y-91457913D01*
X81118979Y-91287153D01*
X81245924Y-91092849D01*
X81339157Y-90880300D01*
X81396134Y-90655305D01*
X81401877Y-90586000D01*
X81415300Y-90424006D01*
X91304700Y-90424006D01*
X91323864Y-90655297D01*
X91323866Y-90655308D01*
X91380842Y-90880300D01*
X91474075Y-91092848D01*
X91601016Y-91287147D01*
X91601019Y-91287151D01*
X91601021Y-91287153D01*
X91758216Y-91457913D01*
X91758219Y-91457915D01*
X91758222Y-91457918D01*
X91941365Y-91600464D01*
X91941371Y-91600468D01*
X91941374Y-91600470D01*
X92043574Y-91655778D01*
X92142843Y-91709500D01*
X92145497Y-91710936D01*
X92200458Y-91729804D01*
X92365015Y-91786297D01*
X92365017Y-91786297D01*
X92365019Y-91786298D01*
X92593951Y-91824500D01*
X92593952Y-91824500D01*
X92826048Y-91824500D01*
X92826049Y-91824500D01*
X93054981Y-91786298D01*
X93274503Y-91710936D01*
X93478626Y-91600470D01*
X93497160Y-91586045D01*
X93540129Y-91552600D01*
X93661784Y-91457913D01*
X93694571Y-91422296D01*
X93754457Y-91386307D01*
X93824295Y-91388407D01*
X93881911Y-91427931D01*
X93909013Y-91492330D01*
X93909800Y-91506280D01*
X93909800Y-91798978D01*
X93909564Y-91804385D01*
X93906035Y-91844708D01*
X93916512Y-91883810D01*
X93917683Y-91889090D01*
X93924711Y-91928943D01*
X93926535Y-91933955D01*
X93933497Y-91950761D01*
X93935745Y-91955581D01*
X93935746Y-91955584D01*
X93949752Y-91975587D01*
X93958955Y-91988731D01*
X93961861Y-91993292D01*
X93982106Y-92028355D01*
X94013115Y-92054375D01*
X94017105Y-92058031D01*
X94659688Y-92700614D01*
X94693173Y-92761937D01*
X94694946Y-92804479D01*
X94686018Y-92872297D01*
X94686018Y-92872301D01*
X94706655Y-93029060D01*
X94706656Y-93029062D01*
X94753187Y-93141399D01*
X94767164Y-93175141D01*
X94863418Y-93300582D01*
X94988859Y-93396836D01*
X95134938Y-93457344D01*
X95213319Y-93467663D01*
X95291699Y-93477982D01*
X95291700Y-93477982D01*
X95291701Y-93477982D01*
X95343954Y-93471102D01*
X95448462Y-93457344D01*
X95594541Y-93396836D01*
X95594543Y-93396834D01*
X95602047Y-93393726D01*
X95671516Y-93386257D01*
X95733995Y-93417532D01*
X95769648Y-93477621D01*
X95773500Y-93508287D01*
X95773500Y-93529752D01*
X95785131Y-93588229D01*
X95785132Y-93588230D01*
X95829447Y-93654552D01*
X95895769Y-93698867D01*
X95895770Y-93698868D01*
X95954247Y-93710499D01*
X95954250Y-93710500D01*
X95954252Y-93710500D01*
X97593750Y-93710500D01*
X97593751Y-93710499D01*
X97608568Y-93707552D01*
X97652229Y-93698868D01*
X97652229Y-93698867D01*
X97652231Y-93698867D01*
X97718552Y-93654552D01*
X97762867Y-93588231D01*
X97762867Y-93588229D01*
X97762868Y-93588229D01*
X97773356Y-93535500D01*
X97774500Y-93529748D01*
X97774500Y-91890252D01*
X97774500Y-91890249D01*
X97774499Y-91890247D01*
X97762868Y-91831770D01*
X97762867Y-91831769D01*
X97718552Y-91765447D01*
X97652230Y-91721132D01*
X97652229Y-91721131D01*
X97593752Y-91709500D01*
X97593748Y-91709500D01*
X95954252Y-91709500D01*
X95954247Y-91709500D01*
X95895770Y-91721131D01*
X95895769Y-91721132D01*
X95829447Y-91765447D01*
X95785132Y-91831769D01*
X95785131Y-91831770D01*
X95773500Y-91890247D01*
X95773500Y-92236312D01*
X95753815Y-92303351D01*
X95701011Y-92349106D01*
X95631853Y-92359050D01*
X95602047Y-92350873D01*
X95448462Y-92287256D01*
X95448460Y-92287255D01*
X95291701Y-92266618D01*
X95291697Y-92266618D01*
X95223879Y-92275546D01*
X95154844Y-92264780D01*
X95120014Y-92240288D01*
X94858717Y-91978991D01*
X94597119Y-91717392D01*
X94563634Y-91656069D01*
X94560800Y-91629711D01*
X94560800Y-90366606D01*
X94554618Y-90349621D01*
X94549025Y-90328746D01*
X94545888Y-90310957D01*
X94545888Y-90310955D01*
X94536853Y-90295306D01*
X94527719Y-90275718D01*
X94521540Y-90258740D01*
X94509924Y-90244897D01*
X94497527Y-90227191D01*
X94488494Y-90211545D01*
X94474649Y-90199927D01*
X94459370Y-90184648D01*
X94455827Y-90180426D01*
X94447755Y-90170806D01*
X94447752Y-90170804D01*
X94447751Y-90170803D01*
X94432109Y-90161773D01*
X94414408Y-90149379D01*
X94400561Y-90137760D01*
X94400559Y-90137759D01*
X94400556Y-90137757D01*
X94383576Y-90131577D01*
X94363993Y-90122446D01*
X94348345Y-90113412D01*
X94348343Y-90113411D01*
X94348342Y-90113411D01*
X94330552Y-90110274D01*
X94309678Y-90104681D01*
X94292696Y-90098500D01*
X94292694Y-90098500D01*
X94263775Y-90098500D01*
X94168793Y-90098500D01*
X94101754Y-90078815D01*
X94055999Y-90026011D01*
X94048587Y-90004939D01*
X94039157Y-89967700D01*
X93945924Y-89755151D01*
X93818983Y-89560852D01*
X93818980Y-89560849D01*
X93818979Y-89560847D01*
X93661784Y-89390087D01*
X93661779Y-89390083D01*
X93661777Y-89390081D01*
X93478634Y-89247535D01*
X93478628Y-89247531D01*
X93274504Y-89137064D01*
X93274495Y-89137061D01*
X93119237Y-89083760D01*
X93062221Y-89043374D01*
X93036091Y-88978575D01*
X93035500Y-88966479D01*
X93035500Y-87563520D01*
X93055185Y-87496481D01*
X93107989Y-87450726D01*
X93119237Y-87446239D01*
X93149869Y-87435723D01*
X93274503Y-87392936D01*
X93478626Y-87282470D01*
X93495649Y-87269221D01*
X93564624Y-87215535D01*
X93661784Y-87139913D01*
X93818979Y-86969153D01*
X93945924Y-86774849D01*
X94039157Y-86562300D01*
X94096134Y-86337305D01*
X94096597Y-86331720D01*
X94115300Y-86106006D01*
X94115300Y-86105993D01*
X94096135Y-85874702D01*
X94096133Y-85874691D01*
X94039157Y-85649699D01*
X93945924Y-85437151D01*
X93818983Y-85242852D01*
X93818980Y-85242849D01*
X93818979Y-85242847D01*
X93661784Y-85072087D01*
X93661779Y-85072083D01*
X93661777Y-85072081D01*
X93478634Y-84929535D01*
X93478628Y-84929531D01*
X93274504Y-84819064D01*
X93274495Y-84819061D01*
X93054984Y-84743702D01*
X92883282Y-84715050D01*
X92826049Y-84705500D01*
X92593951Y-84705500D01*
X92548164Y-84713140D01*
X92365015Y-84743702D01*
X92145504Y-84819061D01*
X92145495Y-84819064D01*
X91941371Y-84929531D01*
X91941365Y-84929535D01*
X91758222Y-85072081D01*
X91758219Y-85072084D01*
X91758216Y-85072086D01*
X91758216Y-85072087D01*
X91738959Y-85093006D01*
X91601016Y-85242852D01*
X91474075Y-85437151D01*
X91380842Y-85649699D01*
X91323866Y-85874691D01*
X91323864Y-85874702D01*
X91304700Y-86105993D01*
X91304700Y-86106006D01*
X91323864Y-86337297D01*
X91323866Y-86337308D01*
X91380842Y-86562300D01*
X91474075Y-86774848D01*
X91601016Y-86969147D01*
X91601019Y-86969151D01*
X91601021Y-86969153D01*
X91758216Y-87139913D01*
X91758219Y-87139915D01*
X91758222Y-87139918D01*
X91941365Y-87282464D01*
X91941371Y-87282468D01*
X91941374Y-87282470D01*
X92145497Y-87392936D01*
X92260991Y-87432585D01*
X92300763Y-87446239D01*
X92357778Y-87486624D01*
X92383909Y-87551424D01*
X92384500Y-87563520D01*
X92384500Y-88966479D01*
X92364815Y-89033518D01*
X92312011Y-89079273D01*
X92300763Y-89083760D01*
X92145504Y-89137061D01*
X92145495Y-89137064D01*
X91941371Y-89247531D01*
X91941365Y-89247535D01*
X91758222Y-89390081D01*
X91758219Y-89390084D01*
X91758216Y-89390086D01*
X91758216Y-89390087D01*
X91714928Y-89437111D01*
X91601016Y-89560852D01*
X91474075Y-89755151D01*
X91380842Y-89967699D01*
X91323866Y-90192691D01*
X91323864Y-90192702D01*
X91304700Y-90423993D01*
X91304700Y-90424006D01*
X81415300Y-90424006D01*
X81415300Y-90423993D01*
X81396135Y-90192702D01*
X81396133Y-90192691D01*
X81339157Y-89967699D01*
X81245924Y-89755151D01*
X81118983Y-89560852D01*
X81118980Y-89560849D01*
X81118979Y-89560847D01*
X80961784Y-89390087D01*
X80961779Y-89390083D01*
X80961777Y-89390081D01*
X80778634Y-89247535D01*
X80778628Y-89247531D01*
X80574504Y-89137064D01*
X80574495Y-89137061D01*
X80354984Y-89061702D01*
X80183282Y-89033050D01*
X80126049Y-89023500D01*
X79893951Y-89023500D01*
X79848164Y-89031140D01*
X79665015Y-89061702D01*
X79445504Y-89137061D01*
X79445495Y-89137064D01*
X79241371Y-89247531D01*
X79241365Y-89247535D01*
X79058222Y-89390081D01*
X79058219Y-89390084D01*
X79058216Y-89390086D01*
X79058216Y-89390087D01*
X79014928Y-89437111D01*
X78901016Y-89560852D01*
X78774075Y-89755151D01*
X78680842Y-89967699D01*
X78623866Y-90192691D01*
X78623864Y-90192702D01*
X78604700Y-90423993D01*
X78604700Y-90424006D01*
X78623864Y-90655297D01*
X78623866Y-90655308D01*
X78680842Y-90880300D01*
X78772591Y-91089464D01*
X78781494Y-91158764D01*
X78751517Y-91221876D01*
X78746716Y-91226955D01*
X78168903Y-91804770D01*
X78164914Y-91808425D01*
X78133905Y-91834445D01*
X78113662Y-91869506D01*
X78110756Y-91874066D01*
X78087546Y-91907213D01*
X78085306Y-91912017D01*
X78078329Y-91928861D01*
X78076510Y-91933859D01*
X78069483Y-91973711D01*
X78068312Y-91978991D01*
X78057835Y-92018091D01*
X78059353Y-92035434D01*
X78061330Y-92058031D01*
X78061364Y-92058413D01*
X78061600Y-92063820D01*
X78061600Y-98350578D01*
X78061364Y-98355985D01*
X78057835Y-98396308D01*
X76210500Y-98396308D01*
X76210500Y-86106004D01*
X78305233Y-86106004D01*
X78324273Y-86360079D01*
X78380968Y-86608477D01*
X78380973Y-86608494D01*
X78474058Y-86845671D01*
X78474057Y-86845671D01*
X78601457Y-87066332D01*
X78643452Y-87118993D01*
X78643453Y-87118993D01*
X79447226Y-86315219D01*
X79485901Y-86408588D01*
X79582075Y-86533925D01*
X79707412Y-86630099D01*
X79800779Y-86668772D01*
X78996813Y-87472737D01*
X79157623Y-87582375D01*
X79157624Y-87582376D01*
X79387176Y-87692921D01*
X79387174Y-87692921D01*
X79630652Y-87768024D01*
X79630658Y-87768026D01*
X79882595Y-87805999D01*
X79882604Y-87806000D01*
X80137396Y-87806000D01*
X80137404Y-87805999D01*
X80389341Y-87768026D01*
X80389347Y-87768024D01*
X80632824Y-87692921D01*
X80862381Y-87582373D01*
X81023185Y-87472737D01*
X80219220Y-86668772D01*
X80312588Y-86630099D01*
X80437925Y-86533925D01*
X80534099Y-86408589D01*
X80572773Y-86315220D01*
X81376545Y-87118993D01*
X81418545Y-87066327D01*
X81545941Y-86845671D01*
X81639026Y-86608494D01*
X81639031Y-86608477D01*
X81695726Y-86360079D01*
X81714767Y-86106004D01*
X81714767Y-86105995D01*
X81695726Y-85851920D01*
X81639031Y-85603522D01*
X81639026Y-85603505D01*
X81545941Y-85366328D01*
X81545942Y-85366328D01*
X81418544Y-85145671D01*
X81376546Y-85093006D01*
X80572772Y-85896779D01*
X80534099Y-85803412D01*
X80437925Y-85678075D01*
X80312588Y-85581901D01*
X80219220Y-85543227D01*
X81023185Y-84739261D01*
X80862377Y-84629624D01*
X80862376Y-84629623D01*
X80632823Y-84519078D01*
X80632825Y-84519078D01*
X80389347Y-84443975D01*
X80389341Y-84443973D01*
X80137404Y-84406000D01*
X79882595Y-84406000D01*
X79630658Y-84443973D01*
X79630652Y-84443975D01*
X79387175Y-84519078D01*
X79157624Y-84629623D01*
X79157616Y-84629628D01*
X78996813Y-84739261D01*
X79800779Y-85543227D01*
X79707412Y-85581901D01*
X79582075Y-85678075D01*
X79485901Y-85803411D01*
X79447226Y-85896779D01*
X78643453Y-85093006D01*
X78601455Y-85145670D01*
X78474058Y-85366328D01*
X78380973Y-85603505D01*
X78380968Y-85603522D01*
X78324273Y-85851920D01*
X78305233Y-86105995D01*
X78305233Y-86106004D01*
X76210500Y-86106004D01*
X76210500Y-81788006D01*
X78604700Y-81788006D01*
X78623864Y-82019297D01*
X78623866Y-82019308D01*
X78680842Y-82244300D01*
X78774075Y-82456848D01*
X78901016Y-82651147D01*
X78901019Y-82651151D01*
X78901021Y-82651153D01*
X79058216Y-82821913D01*
X79058219Y-82821915D01*
X79058222Y-82821918D01*
X79241365Y-82964464D01*
X79241371Y-82964468D01*
X79241374Y-82964470D01*
X79445497Y-83074936D01*
X79558328Y-83113671D01*
X79665015Y-83150297D01*
X79665017Y-83150297D01*
X79665019Y-83150298D01*
X79893951Y-83188500D01*
X79893952Y-83188500D01*
X80126048Y-83188500D01*
X80126049Y-83188500D01*
X80354981Y-83150298D01*
X80574503Y-83074936D01*
X80778626Y-82964470D01*
X80961784Y-82821913D01*
X81118979Y-82651153D01*
X81245924Y-82456849D01*
X81339157Y-82244300D01*
X81396134Y-82019305D01*
X81399793Y-81975151D01*
X81415300Y-81788006D01*
X91304700Y-81788006D01*
X91323864Y-82019297D01*
X91323866Y-82019308D01*
X91380842Y-82244300D01*
X91474075Y-82456848D01*
X91601016Y-82651147D01*
X91601019Y-82651151D01*
X91601021Y-82651153D01*
X91758216Y-82821913D01*
X91758219Y-82821915D01*
X91758222Y-82821918D01*
X91941365Y-82964464D01*
X91941371Y-82964468D01*
X91941374Y-82964470D01*
X92145497Y-83074936D01*
X92258328Y-83113671D01*
X92365015Y-83150297D01*
X92365017Y-83150297D01*
X92365019Y-83150298D01*
X92593951Y-83188500D01*
X92593952Y-83188500D01*
X92826048Y-83188500D01*
X92826049Y-83188500D01*
X93054981Y-83150298D01*
X93274503Y-83074936D01*
X93478626Y-82964470D01*
X93661784Y-82821913D01*
X93818979Y-82651153D01*
X93894730Y-82535208D01*
X95385135Y-82535208D01*
X95395612Y-82574310D01*
X95396783Y-82579590D01*
X95403811Y-82619443D01*
X95405635Y-82624455D01*
X95412597Y-82641261D01*
X95414845Y-82646081D01*
X95414846Y-82646084D01*
X95428852Y-82666087D01*
X95438055Y-82679231D01*
X95440961Y-82683792D01*
X95461206Y-82718855D01*
X95492215Y-82744875D01*
X95496205Y-82748531D01*
X96018716Y-83271043D01*
X96052201Y-83332366D01*
X96047217Y-83402058D01*
X96044591Y-83408534D01*
X95952842Y-83617699D01*
X95895866Y-83842691D01*
X95895864Y-83842702D01*
X95876700Y-84073993D01*
X95876700Y-84074006D01*
X95895864Y-84305297D01*
X95895866Y-84305307D01*
X95952842Y-84530300D01*
X96046075Y-84742848D01*
X96173016Y-84937147D01*
X96173019Y-84937151D01*
X96173021Y-84937153D01*
X96330216Y-85107913D01*
X96330219Y-85107915D01*
X96330222Y-85107918D01*
X96513365Y-85250464D01*
X96513371Y-85250468D01*
X96513374Y-85250470D01*
X96717497Y-85360936D01*
X96806903Y-85391629D01*
X96937015Y-85436297D01*
X96937017Y-85436297D01*
X96937019Y-85436298D01*
X97165951Y-85474500D01*
X97165952Y-85474500D01*
X97398048Y-85474500D01*
X97398049Y-85474500D01*
X97626981Y-85436298D01*
X97846503Y-85360936D01*
X97935257Y-85312903D01*
X98003580Y-85298309D01*
X98068953Y-85322971D01*
X98081952Y-85334278D01*
X99712781Y-86965107D01*
X99746266Y-87026430D01*
X99749100Y-87052788D01*
X99749100Y-89966678D01*
X99748864Y-89972085D01*
X99745335Y-90012408D01*
X99755812Y-90051510D01*
X99756983Y-90056791D01*
X99763589Y-90094249D01*
X99755846Y-90163689D01*
X99711790Y-90217919D01*
X99645410Y-90239721D01*
X99577779Y-90222175D01*
X99553792Y-90203465D01*
X98545283Y-89194956D01*
X98511798Y-89133633D01*
X98516782Y-89063941D01*
X98519398Y-89057488D01*
X98611157Y-88848300D01*
X98668134Y-88623305D01*
X98668135Y-88623297D01*
X98687300Y-88392006D01*
X98687300Y-88391993D01*
X98668135Y-88160702D01*
X98668133Y-88160691D01*
X98611157Y-87935699D01*
X98517924Y-87723151D01*
X98390983Y-87528852D01*
X98390980Y-87528849D01*
X98390979Y-87528847D01*
X98233784Y-87358087D01*
X98233779Y-87358083D01*
X98233777Y-87358081D01*
X98050634Y-87215535D01*
X98050628Y-87215531D01*
X97846504Y-87105064D01*
X97846495Y-87105061D01*
X97626984Y-87029702D01*
X97455282Y-87001050D01*
X97398049Y-86991500D01*
X97165951Y-86991500D01*
X97120164Y-86999140D01*
X96937015Y-87029702D01*
X96717504Y-87105061D01*
X96717495Y-87105064D01*
X96513371Y-87215531D01*
X96513365Y-87215535D01*
X96330222Y-87358081D01*
X96330219Y-87358084D01*
X96330216Y-87358086D01*
X96330216Y-87358087D01*
X96298919Y-87392085D01*
X96173016Y-87528852D01*
X96046075Y-87723151D01*
X95952842Y-87935699D01*
X95895866Y-88160691D01*
X95895864Y-88160702D01*
X95876700Y-88391993D01*
X95876700Y-88392006D01*
X95895864Y-88623297D01*
X95895866Y-88623308D01*
X95952842Y-88848300D01*
X96046075Y-89060848D01*
X96173016Y-89255147D01*
X96173019Y-89255151D01*
X96173021Y-89255153D01*
X96330216Y-89425913D01*
X96330219Y-89425915D01*
X96330222Y-89425918D01*
X96513365Y-89568464D01*
X96513371Y-89568468D01*
X96513374Y-89568470D01*
X96717497Y-89678936D01*
X96806885Y-89709623D01*
X96937015Y-89754297D01*
X96937017Y-89754297D01*
X96937019Y-89754298D01*
X97165951Y-89792500D01*
X97165952Y-89792500D01*
X97398048Y-89792500D01*
X97398049Y-89792500D01*
X97626981Y-89754298D01*
X97846503Y-89678936D01*
X97935257Y-89630903D01*
X98003580Y-89616309D01*
X98068953Y-89640971D01*
X98081951Y-89652277D01*
X100575079Y-92145406D01*
X102959168Y-94529495D01*
X102962823Y-94533484D01*
X102988841Y-94564490D01*
X102988843Y-94564491D01*
X102988845Y-94564494D01*
X103023899Y-94584732D01*
X103028459Y-94587637D01*
X103061616Y-94610854D01*
X103061619Y-94610854D01*
X103066476Y-94613120D01*
X103083233Y-94620060D01*
X103088253Y-94621887D01*
X103088255Y-94621888D01*
X103128130Y-94628918D01*
X103133387Y-94630084D01*
X103172493Y-94640563D01*
X103212810Y-94637035D01*
X103218212Y-94636800D01*
X108931078Y-94636800D01*
X108936481Y-94637035D01*
X108976807Y-94640564D01*
X109015940Y-94630077D01*
X109021162Y-94628919D01*
X109061045Y-94621888D01*
X109061050Y-94621884D01*
X109066099Y-94620047D01*
X109082824Y-94613119D01*
X109087681Y-94610854D01*
X109087684Y-94610854D01*
X109120841Y-94587635D01*
X109125390Y-94584738D01*
X109160455Y-94564494D01*
X109160459Y-94564490D01*
X109184657Y-94535650D01*
X109186481Y-94533476D01*
X109190122Y-94529502D01*
X110454204Y-93265420D01*
X110458166Y-93261789D01*
X110489194Y-93235755D01*
X110509438Y-93200690D01*
X110512335Y-93196141D01*
X110535554Y-93162984D01*
X110535554Y-93162981D01*
X110537819Y-93158124D01*
X110544747Y-93141399D01*
X110546584Y-93136350D01*
X110546588Y-93136345D01*
X110553619Y-93096462D01*
X110554777Y-93091240D01*
X110565264Y-93052107D01*
X110561735Y-93011781D01*
X110561500Y-93006378D01*
X110561500Y-92897423D01*
X110581185Y-92830384D01*
X110611449Y-92797962D01*
X110737258Y-92704302D01*
X110774145Y-92660341D01*
X110832314Y-92621640D01*
X110902175Y-92620531D01*
X110954227Y-92649854D01*
X111069809Y-92758901D01*
X111150657Y-92805578D01*
X111216688Y-92843701D01*
X111379161Y-92892342D01*
X111484875Y-92898499D01*
X111548469Y-92902203D01*
X111548469Y-92902202D01*
X111548471Y-92902203D01*
X111715492Y-92872753D01*
X111871219Y-92805579D01*
X112007258Y-92704302D01*
X112116273Y-92574383D01*
X112192388Y-92422825D01*
X112231500Y-92257799D01*
X112231500Y-91680744D01*
X112216750Y-91554549D01*
X112158744Y-91395180D01*
X112065549Y-91253483D01*
X112002501Y-91194000D01*
X111942189Y-91137098D01*
X111795314Y-91052300D01*
X111795313Y-91052299D01*
X111795312Y-91052299D01*
X111698264Y-91023245D01*
X111632840Y-91003658D01*
X111632834Y-91003657D01*
X111463530Y-90993796D01*
X111463528Y-90993797D01*
X111296514Y-91023245D01*
X111296509Y-91023246D01*
X111296508Y-91023247D01*
X111226494Y-91053448D01*
X111140780Y-91090421D01*
X111004745Y-91191695D01*
X111004740Y-91191699D01*
X110967854Y-91235658D01*
X110909683Y-91274359D01*
X110839822Y-91275467D01*
X110787772Y-91246145D01*
X110672190Y-91137098D01*
X110525314Y-91052300D01*
X110525313Y-91052299D01*
X110525312Y-91052299D01*
X110428264Y-91023245D01*
X110362840Y-91003658D01*
X110362834Y-91003657D01*
X110193530Y-90993796D01*
X110193528Y-90993797D01*
X110026514Y-91023245D01*
X110026509Y-91023246D01*
X110026508Y-91023247D01*
X109956494Y-91053448D01*
X109870780Y-91090421D01*
X109834851Y-91117170D01*
X109769322Y-91141413D01*
X109701088Y-91126380D01*
X109657702Y-91086597D01*
X109635552Y-91053447D01*
X109569230Y-91009132D01*
X109569229Y-91009131D01*
X109510752Y-90997500D01*
X109510748Y-90997500D01*
X108421252Y-90997500D01*
X108421247Y-90997500D01*
X108362770Y-91009131D01*
X108362769Y-91009132D01*
X108296447Y-91053447D01*
X108252132Y-91119769D01*
X108252131Y-91119770D01*
X108240500Y-91178247D01*
X108240500Y-91496852D01*
X108220815Y-91563891D01*
X108168011Y-91609646D01*
X108105693Y-91620380D01*
X108086894Y-91618735D01*
X108086891Y-91618735D01*
X108047791Y-91629212D01*
X108042511Y-91630383D01*
X108002659Y-91637410D01*
X107997661Y-91639229D01*
X107980817Y-91646206D01*
X107976013Y-91648446D01*
X107942866Y-91671656D01*
X107938306Y-91674562D01*
X107903248Y-91694804D01*
X107903240Y-91694810D01*
X107877223Y-91725815D01*
X107873568Y-91729804D01*
X106973583Y-92629791D01*
X106104193Y-93499181D01*
X106042870Y-93532666D01*
X106016512Y-93535500D01*
X105272996Y-93535500D01*
X105205957Y-93515815D01*
X105160202Y-93463011D01*
X105150258Y-93393853D01*
X105177143Y-93332835D01*
X105229909Y-93268539D01*
X105229913Y-93268532D01*
X105322811Y-93094733D01*
X105322811Y-93094732D01*
X105322814Y-93094727D01*
X105380024Y-92906132D01*
X105399341Y-92710000D01*
X105380024Y-92513868D01*
X105322814Y-92325273D01*
X105322811Y-92325269D01*
X105322811Y-92325266D01*
X105229913Y-92151467D01*
X105229909Y-92151460D01*
X105104883Y-91999116D01*
X104952539Y-91874090D01*
X104952532Y-91874085D01*
X104785047Y-91784563D01*
X104735202Y-91735601D01*
X104719500Y-91675205D01*
X104719500Y-87055487D01*
X104739185Y-86988448D01*
X104755814Y-86967811D01*
X108108029Y-83615596D01*
X108169348Y-83582114D01*
X108239040Y-83587098D01*
X108294973Y-83628970D01*
X108319390Y-83694434D01*
X108316597Y-83730871D01*
X108296275Y-83819910D01*
X108296274Y-83819920D01*
X108295968Y-83824000D01*
X109436118Y-83824000D01*
X109397444Y-83917369D01*
X109376823Y-84074000D01*
X109397444Y-84230631D01*
X109436118Y-84324000D01*
X108295968Y-84324000D01*
X108296274Y-84328079D01*
X108296275Y-84328086D01*
X108352967Y-84576475D01*
X108352973Y-84576494D01*
X108446058Y-84813671D01*
X108446057Y-84813671D01*
X108573455Y-85034328D01*
X108732320Y-85233540D01*
X108919097Y-85406842D01*
X109129616Y-85550371D01*
X109129624Y-85550376D01*
X109359176Y-85660921D01*
X109359174Y-85660921D01*
X109602652Y-85736024D01*
X109602660Y-85736026D01*
X109732000Y-85755520D01*
X109732000Y-84619881D01*
X109825369Y-84658556D01*
X109942677Y-84674000D01*
X110021323Y-84674000D01*
X110138631Y-84658556D01*
X110232000Y-84619881D01*
X110232000Y-85755519D01*
X110361339Y-85736026D01*
X110361347Y-85736024D01*
X110604824Y-85660921D01*
X110834376Y-85550376D01*
X110834377Y-85550375D01*
X111044905Y-85406840D01*
X111231679Y-85233540D01*
X111390544Y-85034328D01*
X111517941Y-84813671D01*
X111611026Y-84576494D01*
X111611032Y-84576475D01*
X111667724Y-84328086D01*
X111667725Y-84328079D01*
X111668032Y-84324000D01*
X110527882Y-84324000D01*
X110566556Y-84230631D01*
X110587177Y-84074000D01*
X110566556Y-83917369D01*
X110527882Y-83824000D01*
X111668031Y-83824000D01*
X111667725Y-83819920D01*
X111667724Y-83819913D01*
X111611032Y-83571524D01*
X111611026Y-83571505D01*
X111517941Y-83334328D01*
X111517942Y-83334328D01*
X111390544Y-83113671D01*
X111231679Y-82914459D01*
X111044905Y-82741159D01*
X110834377Y-82597624D01*
X110834376Y-82597623D01*
X110604823Y-82487078D01*
X110604825Y-82487078D01*
X110361354Y-82411977D01*
X110361348Y-82411976D01*
X110232000Y-82392479D01*
X110232000Y-83528118D01*
X110138631Y-83489444D01*
X110021323Y-83474000D01*
X109942677Y-83474000D01*
X109825369Y-83489444D01*
X109732000Y-83528118D01*
X109732000Y-82392479D01*
X109731999Y-82392478D01*
X109632625Y-82407457D01*
X109563400Y-82397984D01*
X109510287Y-82352589D01*
X109490147Y-82285685D01*
X109509375Y-82218513D01*
X109526454Y-82197171D01*
X110200210Y-81523415D01*
X110204172Y-81519784D01*
X110235194Y-81493755D01*
X110255444Y-81458678D01*
X110258333Y-81454145D01*
X110281553Y-81420984D01*
X110281555Y-81420976D01*
X110283816Y-81416128D01*
X110290754Y-81399379D01*
X110292583Y-81394352D01*
X110292588Y-81394345D01*
X110299622Y-81354447D01*
X110300779Y-81349229D01*
X110311263Y-81310107D01*
X110307735Y-81269789D01*
X110307500Y-81264386D01*
X110307500Y-81213520D01*
X110327185Y-81146481D01*
X110379989Y-81100726D01*
X110391237Y-81096239D01*
X110444365Y-81078000D01*
X110546503Y-81042936D01*
X110750626Y-80932470D01*
X110803838Y-80891054D01*
X110881933Y-80830270D01*
X110933784Y-80789913D01*
X111090979Y-80619153D01*
X111217924Y-80424849D01*
X111311157Y-80212300D01*
X111368134Y-79987305D01*
X111369221Y-79974191D01*
X111378372Y-79863752D01*
X114773500Y-79863752D01*
X114785131Y-79922229D01*
X114785132Y-79922230D01*
X114829447Y-79988552D01*
X114895769Y-80032867D01*
X114895770Y-80032868D01*
X114954247Y-80044499D01*
X114954250Y-80044500D01*
X114954252Y-80044500D01*
X116693750Y-80044500D01*
X116693751Y-80044499D01*
X116708568Y-80041552D01*
X116752229Y-80032868D01*
X116752229Y-80032867D01*
X116752231Y-80032867D01*
X116818552Y-79988552D01*
X116862867Y-79922231D01*
X116862867Y-79922229D01*
X116862868Y-79922229D01*
X116872922Y-79871682D01*
X116874500Y-79863748D01*
X116874500Y-79553456D01*
X116894185Y-79486417D01*
X116946989Y-79440662D01*
X117016147Y-79430718D01*
X117079703Y-79459743D01*
X117110882Y-79501051D01*
X117190400Y-79671578D01*
X117325894Y-79865082D01*
X117492917Y-80032105D01*
X117686421Y-80167600D01*
X117900507Y-80267429D01*
X117900516Y-80267433D01*
X118114000Y-80324634D01*
X118114000Y-79429501D01*
X118221685Y-79478680D01*
X118328237Y-79494000D01*
X118399763Y-79494000D01*
X118506315Y-79478680D01*
X118614000Y-79429501D01*
X118614000Y-80324633D01*
X118827483Y-80267433D01*
X118827492Y-80267429D01*
X119041578Y-80167600D01*
X119235082Y-80032105D01*
X119402105Y-79865082D01*
X119537600Y-79671578D01*
X119637429Y-79457492D01*
X119637433Y-79457483D01*
X119670158Y-79335350D01*
X119706522Y-79275690D01*
X119769369Y-79245160D01*
X119838745Y-79253454D01*
X119892623Y-79297939D01*
X119908593Y-79331447D01*
X119928768Y-79397954D01*
X120026315Y-79580450D01*
X120026317Y-79580452D01*
X120157589Y-79740410D01*
X120250603Y-79816743D01*
X120317550Y-79871685D01*
X120500046Y-79969232D01*
X120698066Y-80029300D01*
X120698065Y-80029300D01*
X120716529Y-80031118D01*
X120904000Y-80049583D01*
X121109934Y-80029300D01*
X121307954Y-79969232D01*
X121490450Y-79871685D01*
X121650410Y-79740410D01*
X121781685Y-79580450D01*
X121879232Y-79397954D01*
X121939300Y-79199934D01*
X121959583Y-78994000D01*
X122388417Y-78994000D01*
X122408699Y-79199932D01*
X122408700Y-79199934D01*
X122468768Y-79397954D01*
X122566315Y-79580450D01*
X122566317Y-79580452D01*
X122697589Y-79740410D01*
X122790603Y-79816743D01*
X122857550Y-79871685D01*
X122952112Y-79922230D01*
X122986236Y-79940470D01*
X123036080Y-79989433D01*
X123051540Y-80057571D01*
X123027708Y-80123250D01*
X123015463Y-80137509D01*
X122775503Y-80377470D01*
X122771514Y-80381125D01*
X122740505Y-80407145D01*
X122720262Y-80442206D01*
X122717356Y-80446766D01*
X122694146Y-80479913D01*
X122691906Y-80484717D01*
X122684929Y-80501561D01*
X122683110Y-80506559D01*
X122676083Y-80546411D01*
X122674912Y-80551691D01*
X122664435Y-80590791D01*
X122667964Y-80631113D01*
X122668200Y-80636520D01*
X122668200Y-97348178D01*
X122667964Y-97353585D01*
X122664435Y-97393908D01*
X122674912Y-97433010D01*
X122676083Y-97438290D01*
X122683111Y-97478143D01*
X122684935Y-97483155D01*
X122691897Y-97499961D01*
X122694145Y-97504781D01*
X122694146Y-97504784D01*
X122708152Y-97524787D01*
X122717355Y-97537931D01*
X122720261Y-97542492D01*
X122740506Y-97577555D01*
X122771515Y-97603575D01*
X122775505Y-97607231D01*
X132086716Y-106918442D01*
X132120201Y-106979765D01*
X132115217Y-107049457D01*
X132112591Y-107055933D01*
X132020843Y-107265099D01*
X131963866Y-107490091D01*
X131963864Y-107490102D01*
X131944700Y-107721393D01*
X131944700Y-107721406D01*
X131963864Y-107952697D01*
X131963866Y-107952708D01*
X132020842Y-108177700D01*
X132114075Y-108390248D01*
X132241016Y-108584547D01*
X132241019Y-108584551D01*
X132241021Y-108584553D01*
X132398216Y-108755313D01*
X132398219Y-108755315D01*
X132398222Y-108755318D01*
X132581365Y-108897864D01*
X132581371Y-108897868D01*
X132581374Y-108897870D01*
X132785497Y-109008336D01*
X132877466Y-109039909D01*
X133005015Y-109083697D01*
X133005017Y-109083697D01*
X133005019Y-109083698D01*
X133233951Y-109121900D01*
X133233952Y-109121900D01*
X133466048Y-109121900D01*
X133466049Y-109121900D01*
X133694981Y-109083698D01*
X133914503Y-109008336D01*
X134118626Y-108897870D01*
X134301784Y-108755313D01*
X134458979Y-108584553D01*
X134585924Y-108390249D01*
X134679157Y-108177700D01*
X134736134Y-107952705D01*
X134736135Y-107952697D01*
X134755300Y-107721406D01*
X134755300Y-107721393D01*
X134736135Y-107490102D01*
X134736133Y-107490091D01*
X134679157Y-107265099D01*
X134585924Y-107052551D01*
X134458983Y-106858252D01*
X134458980Y-106858249D01*
X134458979Y-106858247D01*
X134301784Y-106687487D01*
X134301779Y-106687483D01*
X134301777Y-106687481D01*
X134118634Y-106544935D01*
X134118628Y-106544931D01*
X133914504Y-106434464D01*
X133914495Y-106434461D01*
X133694984Y-106359102D01*
X133523282Y-106330450D01*
X133466049Y-106320900D01*
X133233951Y-106320900D01*
X133210298Y-106324847D01*
X133005015Y-106359102D01*
X132785501Y-106434462D01*
X132785490Y-106434467D01*
X132696744Y-106482494D01*
X132628416Y-106497089D01*
X132563044Y-106472426D01*
X132550046Y-106461120D01*
X125910930Y-99822004D01*
X127073233Y-99822004D01*
X127092273Y-100076079D01*
X127148968Y-100324477D01*
X127148973Y-100324494D01*
X127242058Y-100561671D01*
X127242057Y-100561671D01*
X127369457Y-100782332D01*
X127411452Y-100834993D01*
X127411453Y-100834993D01*
X128215226Y-100031219D01*
X128253901Y-100124588D01*
X128350075Y-100249925D01*
X128475412Y-100346099D01*
X128568779Y-100384772D01*
X127764813Y-101188737D01*
X127925623Y-101298375D01*
X127925624Y-101298376D01*
X128155176Y-101408921D01*
X128155174Y-101408921D01*
X128398652Y-101484024D01*
X128398658Y-101484026D01*
X128650595Y-101521999D01*
X128650604Y-101522000D01*
X128905396Y-101522000D01*
X128905404Y-101521999D01*
X129157341Y-101484026D01*
X129157347Y-101484024D01*
X129400824Y-101408921D01*
X129630381Y-101298373D01*
X129791185Y-101188737D01*
X128987220Y-100384772D01*
X129080588Y-100346099D01*
X129205925Y-100249925D01*
X129302099Y-100124589D01*
X129340773Y-100031220D01*
X130144545Y-100834993D01*
X130186545Y-100782327D01*
X130313941Y-100561671D01*
X130407026Y-100324494D01*
X130407031Y-100324477D01*
X130463726Y-100076079D01*
X130482767Y-99822004D01*
X130482767Y-99821995D01*
X130463726Y-99567920D01*
X130407031Y-99319522D01*
X130407026Y-99319505D01*
X130313941Y-99082328D01*
X130313942Y-99082328D01*
X130186544Y-98861671D01*
X130144546Y-98809006D01*
X129340772Y-99612779D01*
X129302099Y-99519412D01*
X129205925Y-99394075D01*
X129080588Y-99297901D01*
X128987220Y-99259227D01*
X129791185Y-98455261D01*
X129630377Y-98345624D01*
X129630376Y-98345623D01*
X129400823Y-98235078D01*
X129400825Y-98235078D01*
X129157347Y-98159975D01*
X129157341Y-98159973D01*
X128905404Y-98122000D01*
X128650595Y-98122000D01*
X128398658Y-98159973D01*
X128398652Y-98159975D01*
X128155175Y-98235078D01*
X127925624Y-98345623D01*
X127925616Y-98345628D01*
X127764813Y-98455261D01*
X128568779Y-99259227D01*
X128475412Y-99297901D01*
X128350075Y-99394075D01*
X128253901Y-99519411D01*
X128215227Y-99612779D01*
X127411453Y-98809006D01*
X127369455Y-98861670D01*
X127242058Y-99082328D01*
X127148973Y-99319505D01*
X127148968Y-99319522D01*
X127092273Y-99567920D01*
X127073233Y-99821995D01*
X127073233Y-99822004D01*
X125910930Y-99822004D01*
X123355519Y-97266593D01*
X123322034Y-97205270D01*
X123319200Y-97178912D01*
X123319200Y-95042801D01*
X123608418Y-95042801D01*
X123629055Y-95199560D01*
X123629056Y-95199562D01*
X123689564Y-95345641D01*
X123785818Y-95471082D01*
X123911259Y-95567336D01*
X124057338Y-95627844D01*
X124095378Y-95632852D01*
X124214099Y-95648482D01*
X124214100Y-95648482D01*
X124214101Y-95648482D01*
X124266354Y-95641602D01*
X124370862Y-95627844D01*
X124516941Y-95567336D01*
X124599474Y-95504006D01*
X127372700Y-95504006D01*
X127391864Y-95735297D01*
X127391866Y-95735308D01*
X127448842Y-95960300D01*
X127542075Y-96172848D01*
X127669016Y-96367147D01*
X127669019Y-96367151D01*
X127669021Y-96367153D01*
X127826216Y-96537913D01*
X127826219Y-96537915D01*
X127826222Y-96537918D01*
X128009365Y-96680464D01*
X128009371Y-96680468D01*
X128009374Y-96680470D01*
X128213497Y-96790936D01*
X128327487Y-96830068D01*
X128433015Y-96866297D01*
X128433017Y-96866297D01*
X128433019Y-96866298D01*
X128661951Y-96904500D01*
X128661952Y-96904500D01*
X128894048Y-96904500D01*
X128894049Y-96904500D01*
X129122981Y-96866298D01*
X129342503Y-96790936D01*
X129546626Y-96680470D01*
X129729784Y-96537913D01*
X129886979Y-96367153D01*
X130013924Y-96172849D01*
X130107157Y-95960300D01*
X130164134Y-95735305D01*
X130165877Y-95714269D01*
X130183300Y-95504006D01*
X130183300Y-95503993D01*
X130164135Y-95272702D01*
X130164133Y-95272691D01*
X130107157Y-95047699D01*
X130013924Y-94835151D01*
X129886983Y-94640852D01*
X129886980Y-94640849D01*
X129886979Y-94640847D01*
X129729784Y-94470087D01*
X129729779Y-94470083D01*
X129729777Y-94470081D01*
X129546634Y-94327535D01*
X129546628Y-94327531D01*
X129342504Y-94217064D01*
X129342495Y-94217061D01*
X129122984Y-94141702D01*
X128951282Y-94113050D01*
X128894049Y-94103500D01*
X128661951Y-94103500D01*
X128616164Y-94111140D01*
X128433015Y-94141702D01*
X128213504Y-94217061D01*
X128213495Y-94217064D01*
X128009371Y-94327531D01*
X128009365Y-94327535D01*
X127826222Y-94470081D01*
X127826219Y-94470084D01*
X127826216Y-94470086D01*
X127826216Y-94470087D01*
X127783540Y-94516446D01*
X127669016Y-94640852D01*
X127542075Y-94835151D01*
X127448842Y-95047699D01*
X127391866Y-95272691D01*
X127391864Y-95272702D01*
X127372700Y-95503993D01*
X127372700Y-95504006D01*
X124599474Y-95504006D01*
X124642382Y-95471082D01*
X124738636Y-95345641D01*
X124799144Y-95199562D01*
X124819782Y-95042800D01*
X124818890Y-95036027D01*
X124801668Y-94905207D01*
X124799144Y-94886038D01*
X124738636Y-94739959D01*
X124642382Y-94614518D01*
X124642380Y-94614516D01*
X124642379Y-94614515D01*
X124588112Y-94572874D01*
X124546910Y-94516446D01*
X124539600Y-94474499D01*
X124539600Y-91719688D01*
X124559285Y-91652649D01*
X124575919Y-91632007D01*
X125021920Y-91186006D01*
X127372700Y-91186006D01*
X127391864Y-91417297D01*
X127391866Y-91417308D01*
X127448842Y-91642300D01*
X127542075Y-91854848D01*
X127669016Y-92049147D01*
X127669019Y-92049151D01*
X127669021Y-92049153D01*
X127826216Y-92219913D01*
X127826219Y-92219915D01*
X127826222Y-92219918D01*
X128009365Y-92362464D01*
X128009371Y-92362468D01*
X128009374Y-92362470D01*
X128213497Y-92472936D01*
X128317319Y-92508578D01*
X128433015Y-92548297D01*
X128433017Y-92548297D01*
X128433019Y-92548298D01*
X128661951Y-92586500D01*
X128661952Y-92586500D01*
X128894048Y-92586500D01*
X128894049Y-92586500D01*
X129122981Y-92548298D01*
X129342503Y-92472936D01*
X129546626Y-92362470D01*
X129565521Y-92347764D01*
X129643261Y-92287256D01*
X129729784Y-92219913D01*
X129886979Y-92049153D01*
X130013924Y-91854849D01*
X130107157Y-91642300D01*
X130164134Y-91417305D01*
X130164135Y-91417297D01*
X130183300Y-91186006D01*
X130183300Y-91185993D01*
X130164135Y-90954702D01*
X130164133Y-90954691D01*
X130107157Y-90729699D01*
X130013924Y-90517151D01*
X129886983Y-90322852D01*
X129886980Y-90322849D01*
X129886979Y-90322847D01*
X129729784Y-90152087D01*
X129729779Y-90152083D01*
X129729777Y-90152081D01*
X129546634Y-90009535D01*
X129546628Y-90009531D01*
X129342504Y-89899064D01*
X129342495Y-89899061D01*
X129122984Y-89823702D01*
X128951282Y-89795050D01*
X128894049Y-89785500D01*
X128661951Y-89785500D01*
X128620002Y-89792500D01*
X128433015Y-89823702D01*
X128213504Y-89899061D01*
X128213495Y-89899064D01*
X128009371Y-90009531D01*
X128009365Y-90009535D01*
X127826222Y-90152081D01*
X127826219Y-90152084D01*
X127826216Y-90152086D01*
X127826216Y-90152087D01*
X127788594Y-90192956D01*
X127669016Y-90322852D01*
X127542075Y-90517151D01*
X127448842Y-90729699D01*
X127391866Y-90954691D01*
X127391864Y-90954702D01*
X127372700Y-91185993D01*
X127372700Y-91186006D01*
X125021920Y-91186006D01*
X126245643Y-89962283D01*
X127952648Y-88255277D01*
X128013969Y-88221794D01*
X128083661Y-88226778D01*
X128099345Y-88233906D01*
X128188097Y-88281936D01*
X128292053Y-88317624D01*
X128407615Y-88357297D01*
X128407617Y-88357297D01*
X128407619Y-88357298D01*
X128636551Y-88395500D01*
X128636552Y-88395500D01*
X128868648Y-88395500D01*
X128868649Y-88395500D01*
X129097581Y-88357298D01*
X129317103Y-88281936D01*
X129521226Y-88171470D01*
X129534735Y-88160956D01*
X129599089Y-88110867D01*
X129704384Y-88028913D01*
X129861579Y-87858153D01*
X129988524Y-87663849D01*
X130081757Y-87451300D01*
X130138734Y-87226305D01*
X130138888Y-87224447D01*
X130157900Y-86995006D01*
X130157900Y-86994993D01*
X130138735Y-86763702D01*
X130138733Y-86763691D01*
X130081757Y-86538699D01*
X129988524Y-86326151D01*
X129861583Y-86131852D01*
X129861580Y-86131849D01*
X129861579Y-86131847D01*
X129704384Y-85961087D01*
X129704379Y-85961083D01*
X129704377Y-85961081D01*
X129521234Y-85818535D01*
X129521228Y-85818531D01*
X129317104Y-85708064D01*
X129317095Y-85708061D01*
X129097584Y-85632702D01*
X128909345Y-85601291D01*
X128868649Y-85594500D01*
X128636551Y-85594500D01*
X128595855Y-85601291D01*
X128407615Y-85632702D01*
X128188104Y-85708061D01*
X128188095Y-85708064D01*
X127983971Y-85818531D01*
X127983965Y-85818535D01*
X127800822Y-85961081D01*
X127800819Y-85961084D01*
X127643616Y-86131852D01*
X127516675Y-86326151D01*
X127423442Y-86538699D01*
X127366466Y-86763691D01*
X127366464Y-86763702D01*
X127347300Y-86994993D01*
X127347300Y-86995006D01*
X127366464Y-87226297D01*
X127366466Y-87226308D01*
X127423442Y-87451300D01*
X127515191Y-87660464D01*
X127524094Y-87729764D01*
X127494117Y-87792876D01*
X127489316Y-87797955D01*
X123995903Y-91291370D01*
X123991914Y-91295025D01*
X123960905Y-91321045D01*
X123940662Y-91356106D01*
X123937756Y-91360666D01*
X123914546Y-91393813D01*
X123912306Y-91398617D01*
X123905329Y-91415461D01*
X123903510Y-91420459D01*
X123896483Y-91460311D01*
X123895312Y-91465591D01*
X123884835Y-91504691D01*
X123888364Y-91545013D01*
X123888600Y-91550420D01*
X123888600Y-94474499D01*
X123868915Y-94541538D01*
X123840088Y-94572874D01*
X123785820Y-94614515D01*
X123689563Y-94739960D01*
X123629056Y-94886037D01*
X123629055Y-94886039D01*
X123608418Y-95042798D01*
X123608418Y-95042801D01*
X123319200Y-95042801D01*
X123319200Y-80805788D01*
X123338885Y-80738749D01*
X123355519Y-80718107D01*
X123431165Y-80642461D01*
X123662221Y-80411404D01*
X123666172Y-80407784D01*
X123697194Y-80381755D01*
X123717444Y-80346679D01*
X123720328Y-80342152D01*
X123743554Y-80308984D01*
X123743554Y-80308981D01*
X123745819Y-80304124D01*
X123752747Y-80287399D01*
X123754587Y-80282346D01*
X123754588Y-80282345D01*
X123761621Y-80242450D01*
X123762777Y-80237237D01*
X123773263Y-80198107D01*
X123769736Y-80157785D01*
X123769500Y-80152386D01*
X123769500Y-80084583D01*
X123789185Y-80017544D01*
X123841989Y-79971789D01*
X123846049Y-79970021D01*
X123847945Y-79969234D01*
X123847954Y-79969232D01*
X124030450Y-79871685D01*
X124190410Y-79740410D01*
X124321685Y-79580450D01*
X124419232Y-79397954D01*
X124479300Y-79199934D01*
X124499583Y-78994000D01*
X124479300Y-78788066D01*
X124419232Y-78590046D01*
X124321685Y-78407550D01*
X124246897Y-78316420D01*
X124190410Y-78247589D01*
X124040121Y-78124252D01*
X124030450Y-78116315D01*
X123847954Y-78018768D01*
X123649934Y-77958700D01*
X123649932Y-77958699D01*
X123649934Y-77958699D01*
X123444000Y-77938417D01*
X123238067Y-77958699D01*
X123040043Y-78018769D01*
X122952114Y-78065769D01*
X122857550Y-78116315D01*
X122857548Y-78116316D01*
X122857547Y-78116317D01*
X122697589Y-78247589D01*
X122566317Y-78407547D01*
X122468769Y-78590043D01*
X122408699Y-78788067D01*
X122388417Y-78994000D01*
X121959583Y-78994000D01*
X121939300Y-78788066D01*
X121879232Y-78590046D01*
X121781685Y-78407550D01*
X121706897Y-78316420D01*
X121650410Y-78247589D01*
X121500121Y-78124252D01*
X121490450Y-78116315D01*
X121307954Y-78018768D01*
X121109934Y-77958700D01*
X121109932Y-77958699D01*
X121109934Y-77958699D01*
X120904000Y-77938417D01*
X120698067Y-77958699D01*
X120500043Y-78018769D01*
X120412114Y-78065769D01*
X120317550Y-78116315D01*
X120317548Y-78116316D01*
X120317547Y-78116317D01*
X120157589Y-78247589D01*
X120026317Y-78407547D01*
X119928767Y-78590046D01*
X119908593Y-78656552D01*
X119870296Y-78714990D01*
X119806483Y-78743447D01*
X119737416Y-78732886D01*
X119685023Y-78686661D01*
X119670158Y-78652649D01*
X119637433Y-78530516D01*
X119637429Y-78530507D01*
X119537600Y-78316422D01*
X119537599Y-78316420D01*
X119402113Y-78122926D01*
X119402108Y-78122920D01*
X119235082Y-77955894D01*
X119041578Y-77820399D01*
X118827492Y-77720570D01*
X118827486Y-77720567D01*
X118614000Y-77663364D01*
X118614000Y-78558498D01*
X118506315Y-78509320D01*
X118399763Y-78494000D01*
X118328237Y-78494000D01*
X118221685Y-78509320D01*
X118114000Y-78558498D01*
X118114000Y-77663364D01*
X118113999Y-77663364D01*
X117900513Y-77720567D01*
X117900507Y-77720570D01*
X117686422Y-77820399D01*
X117686420Y-77820400D01*
X117492926Y-77955886D01*
X117492920Y-77955891D01*
X117325891Y-78122920D01*
X117325886Y-78122926D01*
X117190400Y-78316420D01*
X117190399Y-78316422D01*
X117110882Y-78486948D01*
X117064710Y-78539387D01*
X116997516Y-78558539D01*
X116930635Y-78538323D01*
X116885300Y-78485158D01*
X116874500Y-78434543D01*
X116874500Y-78124249D01*
X116874499Y-78124247D01*
X116862868Y-78065770D01*
X116862867Y-78065769D01*
X116818552Y-77999447D01*
X116752230Y-77955132D01*
X116752229Y-77955131D01*
X116693752Y-77943500D01*
X116693748Y-77943500D01*
X114954252Y-77943500D01*
X114954247Y-77943500D01*
X114895770Y-77955131D01*
X114895769Y-77955132D01*
X114829447Y-77999447D01*
X114785132Y-78065769D01*
X114785131Y-78065770D01*
X114773500Y-78124247D01*
X114773500Y-79863752D01*
X111378372Y-79863752D01*
X111387300Y-79756006D01*
X111387300Y-79755993D01*
X111368135Y-79524702D01*
X111368133Y-79524691D01*
X111311157Y-79299699D01*
X111217924Y-79087151D01*
X111090983Y-78892852D01*
X111090980Y-78892849D01*
X111090979Y-78892847D01*
X110933784Y-78722087D01*
X110933779Y-78722083D01*
X110933777Y-78722081D01*
X110750634Y-78579535D01*
X110750628Y-78579531D01*
X110546504Y-78469064D01*
X110546495Y-78469061D01*
X110326984Y-78393702D01*
X110155282Y-78365050D01*
X110098049Y-78355500D01*
X109865951Y-78355500D01*
X109820164Y-78363140D01*
X109637015Y-78393702D01*
X109417504Y-78469061D01*
X109417495Y-78469064D01*
X109213371Y-78579531D01*
X109213365Y-78579535D01*
X109030222Y-78722081D01*
X109030219Y-78722084D01*
X108873016Y-78892852D01*
X108746075Y-79087151D01*
X108652842Y-79299699D01*
X108595866Y-79524691D01*
X108595864Y-79524702D01*
X108576700Y-79755993D01*
X108576700Y-79756006D01*
X108595864Y-79987297D01*
X108595866Y-79987308D01*
X108652842Y-80212300D01*
X108746075Y-80424848D01*
X108873016Y-80619147D01*
X108873019Y-80619151D01*
X108873021Y-80619153D01*
X109030216Y-80789913D01*
X109030219Y-80789915D01*
X109030222Y-80789918D01*
X109213365Y-80932464D01*
X109213371Y-80932468D01*
X109213374Y-80932470D01*
X109417497Y-81042936D01*
X109484615Y-81065977D01*
X109541629Y-81106361D01*
X109567760Y-81171160D01*
X109554710Y-81239800D01*
X109532033Y-81270939D01*
X104175803Y-86627170D01*
X104171814Y-86630825D01*
X104140805Y-86656845D01*
X104120562Y-86691906D01*
X104117656Y-86696466D01*
X104094446Y-86729613D01*
X104092206Y-86734417D01*
X104085229Y-86751261D01*
X104083410Y-86756259D01*
X104076383Y-86796111D01*
X104075212Y-86801391D01*
X104064735Y-86840491D01*
X104068264Y-86880813D01*
X104068500Y-86886220D01*
X104068500Y-91675205D01*
X104048815Y-91742244D01*
X104002953Y-91784563D01*
X103835467Y-91874085D01*
X103835460Y-91874090D01*
X103683116Y-91999116D01*
X103558090Y-92151460D01*
X103558086Y-92151467D01*
X103465188Y-92325266D01*
X103407975Y-92513870D01*
X103402939Y-92565004D01*
X103376777Y-92629791D01*
X103319742Y-92670149D01*
X103249942Y-92673265D01*
X103191855Y-92640529D01*
X100436419Y-89885093D01*
X100402934Y-89823770D01*
X100400100Y-89797412D01*
X100400100Y-86883520D01*
X100400336Y-86878113D01*
X100403864Y-86837793D01*
X100393382Y-86798676D01*
X100392216Y-86793418D01*
X100385188Y-86753555D01*
X100385186Y-86753552D01*
X100385186Y-86753550D01*
X100383360Y-86748533D01*
X100376420Y-86731776D01*
X100374154Y-86726919D01*
X100374154Y-86726916D01*
X100368701Y-86719129D01*
X100350940Y-86693763D01*
X100348033Y-86689199D01*
X100327796Y-86654148D01*
X100327795Y-86654147D01*
X100327794Y-86654145D01*
X100296777Y-86628118D01*
X100292793Y-86624467D01*
X98545282Y-84876956D01*
X98511797Y-84815633D01*
X98516781Y-84745941D01*
X98519384Y-84739518D01*
X98611157Y-84530300D01*
X98663400Y-84324000D01*
X98668134Y-84305307D01*
X98668135Y-84305297D01*
X98687300Y-84074006D01*
X98687300Y-84073993D01*
X98668135Y-83842702D01*
X98668133Y-83842691D01*
X98611157Y-83617699D01*
X98517924Y-83405151D01*
X98390983Y-83210852D01*
X98390980Y-83210849D01*
X98390979Y-83210847D01*
X98233784Y-83040087D01*
X98233779Y-83040083D01*
X98233777Y-83040081D01*
X98050634Y-82897535D01*
X98050628Y-82897531D01*
X97846504Y-82787064D01*
X97846495Y-82787061D01*
X97626984Y-82711702D01*
X97432393Y-82679231D01*
X97398049Y-82673500D01*
X97165951Y-82673500D01*
X97131607Y-82679231D01*
X96937015Y-82711702D01*
X96717501Y-82787062D01*
X96717490Y-82787067D01*
X96628744Y-82835094D01*
X96560416Y-82849689D01*
X96495044Y-82825026D01*
X96482046Y-82813720D01*
X96292781Y-82624455D01*
X96076219Y-82407892D01*
X96042734Y-82346569D01*
X96039900Y-82320211D01*
X96039900Y-80792329D01*
X96059585Y-80725290D01*
X96112389Y-80679535D01*
X96181547Y-80669591D01*
X96245103Y-80698616D01*
X96255125Y-80708342D01*
X96297233Y-80754084D01*
X96330213Y-80789910D01*
X96330222Y-80789918D01*
X96513365Y-80932464D01*
X96513371Y-80932468D01*
X96513374Y-80932470D01*
X96717497Y-81042936D01*
X96819632Y-81077999D01*
X96937015Y-81118297D01*
X96937017Y-81118297D01*
X96937019Y-81118298D01*
X97165951Y-81156500D01*
X97165952Y-81156500D01*
X97398048Y-81156500D01*
X97398049Y-81156500D01*
X97626981Y-81118298D01*
X97846503Y-81042936D01*
X98050626Y-80932470D01*
X98103838Y-80891054D01*
X98181933Y-80830270D01*
X98233784Y-80789913D01*
X98390979Y-80619153D01*
X98517924Y-80424849D01*
X98611157Y-80212300D01*
X98620587Y-80175060D01*
X98656126Y-80114905D01*
X98718546Y-80083512D01*
X98740793Y-80081500D01*
X102521778Y-80081500D01*
X102527181Y-80081735D01*
X102567507Y-80085264D01*
X102606640Y-80074777D01*
X102611862Y-80073619D01*
X102651745Y-80066588D01*
X102651750Y-80066584D01*
X102656799Y-80064747D01*
X102673524Y-80057819D01*
X102678381Y-80055554D01*
X102678384Y-80055554D01*
X102711541Y-80032335D01*
X102716090Y-80029438D01*
X102751155Y-80009194D01*
X102777181Y-79978176D01*
X102780822Y-79974202D01*
X107785821Y-74969204D01*
X107847142Y-74935721D01*
X107916834Y-74940705D01*
X107972767Y-74982577D01*
X107997184Y-75048041D01*
X107997500Y-75056887D01*
X107997500Y-75241752D01*
X108009131Y-75300229D01*
X108009132Y-75300230D01*
X108053447Y-75366552D01*
X108119769Y-75410867D01*
X108119770Y-75410868D01*
X108178247Y-75422499D01*
X108178250Y-75422500D01*
X108178252Y-75422500D01*
X109817750Y-75422500D01*
X109817751Y-75422499D01*
X109832568Y-75419552D01*
X109876229Y-75410868D01*
X109876229Y-75410867D01*
X109876231Y-75410867D01*
X109942552Y-75366552D01*
X109986867Y-75300231D01*
X109986867Y-75300229D01*
X109986868Y-75300229D01*
X109998499Y-75241752D01*
X109998500Y-75241750D01*
X109998500Y-75119308D01*
X110018185Y-75052269D01*
X110034819Y-75031627D01*
X110600046Y-74466399D01*
X110612835Y-74547148D01*
X110670359Y-74660045D01*
X110759955Y-74749641D01*
X110872852Y-74807165D01*
X110953599Y-74819953D01*
X110272526Y-75501025D01*
X110272526Y-75501026D01*
X110345512Y-75552131D01*
X110345516Y-75552133D01*
X110551673Y-75648265D01*
X110551682Y-75648269D01*
X110771389Y-75707139D01*
X110771400Y-75707141D01*
X110997998Y-75726966D01*
X110998002Y-75726966D01*
X111224599Y-75707141D01*
X111224610Y-75707139D01*
X111444317Y-75648269D01*
X111444331Y-75648264D01*
X111650478Y-75552136D01*
X111723472Y-75501025D01*
X111042401Y-74819953D01*
X111123148Y-74807165D01*
X111236045Y-74749641D01*
X111325641Y-74660045D01*
X111383165Y-74547148D01*
X111395953Y-74466400D01*
X112077025Y-75147472D01*
X112128136Y-75074478D01*
X112224264Y-74868331D01*
X112224269Y-74868317D01*
X112283139Y-74648610D01*
X112283141Y-74648599D01*
X112302966Y-74422002D01*
X112302966Y-74421997D01*
X112283141Y-74195400D01*
X112283139Y-74195389D01*
X112224269Y-73975682D01*
X112224265Y-73975673D01*
X112128133Y-73769516D01*
X112128131Y-73769512D01*
X112077026Y-73696526D01*
X112077025Y-73696526D01*
X111395953Y-74377598D01*
X111383165Y-74296852D01*
X111325641Y-74183955D01*
X111236045Y-74094359D01*
X111123148Y-74036835D01*
X111042400Y-74024046D01*
X111723472Y-73342974D01*
X111723471Y-73342973D01*
X111650483Y-73291866D01*
X111650481Y-73291865D01*
X111444326Y-73195734D01*
X111444317Y-73195730D01*
X111224610Y-73136860D01*
X111224599Y-73136858D01*
X110998002Y-73117034D01*
X110997998Y-73117034D01*
X110771400Y-73136858D01*
X110771389Y-73136860D01*
X110551682Y-73195730D01*
X110551673Y-73195734D01*
X110345513Y-73291868D01*
X110272527Y-73342972D01*
X110272526Y-73342973D01*
X110953600Y-74024046D01*
X110872852Y-74036835D01*
X110759955Y-74094359D01*
X110670359Y-74183955D01*
X110612835Y-74296852D01*
X110600046Y-74377599D01*
X110034819Y-73812372D01*
X110001334Y-73751049D01*
X109998500Y-73724691D01*
X109998500Y-73602249D01*
X109998499Y-73602247D01*
X109986868Y-73543770D01*
X109986867Y-73543769D01*
X109942552Y-73477447D01*
X109876230Y-73433132D01*
X109876229Y-73433131D01*
X109817752Y-73421500D01*
X109817748Y-73421500D01*
X108178252Y-73421500D01*
X108178247Y-73421500D01*
X108119770Y-73433131D01*
X108119769Y-73433132D01*
X108053447Y-73477447D01*
X108009132Y-73543769D01*
X108009131Y-73543770D01*
X107997500Y-73602247D01*
X107997500Y-73970853D01*
X107977815Y-74037892D01*
X107925011Y-74083647D01*
X107862694Y-74094381D01*
X107843894Y-74092736D01*
X107843891Y-74092736D01*
X107804799Y-74103211D01*
X107799519Y-74104382D01*
X107759654Y-74111412D01*
X107754662Y-74113229D01*
X107737817Y-74120206D01*
X107733013Y-74122446D01*
X107699866Y-74145656D01*
X107695306Y-74148562D01*
X107660248Y-74168804D01*
X107660240Y-74168810D01*
X107634223Y-74199815D01*
X107630569Y-74203804D01*
X102440193Y-79394181D01*
X102378870Y-79427666D01*
X102352512Y-79430500D01*
X98740793Y-79430500D01*
X98673754Y-79410815D01*
X98627999Y-79358011D01*
X98620587Y-79336939D01*
X98611157Y-79299700D01*
X98517924Y-79087151D01*
X98390983Y-78892852D01*
X98390980Y-78892849D01*
X98390979Y-78892847D01*
X98233784Y-78722087D01*
X98233779Y-78722083D01*
X98233777Y-78722081D01*
X98050634Y-78579535D01*
X98050628Y-78579531D01*
X97846504Y-78469064D01*
X97846495Y-78469061D01*
X97626984Y-78393702D01*
X97455282Y-78365050D01*
X97398049Y-78355500D01*
X97270187Y-78355500D01*
X97203148Y-78335815D01*
X97157393Y-78283011D01*
X97147449Y-78213853D01*
X97176474Y-78150297D01*
X97182506Y-78143819D01*
X97307557Y-78018769D01*
X97587207Y-77739119D01*
X97648530Y-77705634D01*
X97674888Y-77702800D01*
X102324478Y-77702800D01*
X102329881Y-77703035D01*
X102370207Y-77706564D01*
X102409340Y-77696077D01*
X102414562Y-77694919D01*
X102454445Y-77687888D01*
X102454450Y-77687884D01*
X102459499Y-77686047D01*
X102476224Y-77679119D01*
X102481081Y-77676854D01*
X102481084Y-77676854D01*
X102514241Y-77653635D01*
X102518790Y-77650738D01*
X102553855Y-77630494D01*
X102579881Y-77599476D01*
X102583522Y-77595502D01*
X104762407Y-75416618D01*
X104823728Y-75383135D01*
X104886082Y-75385641D01*
X104959868Y-75408024D01*
X105156000Y-75427341D01*
X105352132Y-75408024D01*
X105540727Y-75350814D01*
X105573565Y-75333262D01*
X105714532Y-75257913D01*
X105714538Y-75257910D01*
X105866883Y-75132883D01*
X105991910Y-74980538D01*
X106061126Y-74851045D01*
X106084811Y-74806733D01*
X106084811Y-74806732D01*
X106084814Y-74806727D01*
X106142024Y-74618132D01*
X106161341Y-74422000D01*
X106142024Y-74225868D01*
X106084814Y-74037273D01*
X106084811Y-74037269D01*
X106084811Y-74037266D01*
X105991913Y-73863467D01*
X105991909Y-73863460D01*
X105866883Y-73711116D01*
X105714539Y-73586090D01*
X105714532Y-73586086D01*
X105540733Y-73493188D01*
X105540727Y-73493186D01*
X105352132Y-73435976D01*
X105352129Y-73435975D01*
X105156000Y-73416659D01*
X104959870Y-73435975D01*
X104771266Y-73493188D01*
X104597467Y-73586086D01*
X104597460Y-73586090D01*
X104445116Y-73711116D01*
X104376353Y-73794905D01*
X104318607Y-73834239D01*
X104248763Y-73836110D01*
X104188994Y-73799922D01*
X104158279Y-73737166D01*
X104156500Y-73716240D01*
X104156500Y-73602249D01*
X104156499Y-73602247D01*
X104144868Y-73543770D01*
X104144867Y-73543769D01*
X104100552Y-73477447D01*
X104034230Y-73433132D01*
X104034229Y-73433131D01*
X103975752Y-73421500D01*
X103975748Y-73421500D01*
X102336252Y-73421500D01*
X102336247Y-73421500D01*
X102277770Y-73433131D01*
X102277769Y-73433132D01*
X102211447Y-73477447D01*
X102167132Y-73543769D01*
X102167131Y-73543770D01*
X102155500Y-73602247D01*
X102155500Y-75241752D01*
X102167131Y-75300229D01*
X102167132Y-75300230D01*
X102211447Y-75366552D01*
X102277769Y-75410867D01*
X102277770Y-75410868D01*
X102336247Y-75422499D01*
X102336250Y-75422500D01*
X102336252Y-75422500D01*
X103536511Y-75422500D01*
X103603550Y-75442185D01*
X103649305Y-75494989D01*
X103659249Y-75564147D01*
X103630224Y-75627703D01*
X103624192Y-75634181D01*
X102242893Y-77015481D01*
X102181570Y-77048966D01*
X102155212Y-77051800D01*
X97505613Y-77051800D01*
X97500211Y-77051564D01*
X97492826Y-77050918D01*
X97459892Y-77048036D01*
X97459891Y-77048036D01*
X97420799Y-77058511D01*
X97415519Y-77059682D01*
X97375654Y-77066712D01*
X97370662Y-77068529D01*
X97353817Y-77075506D01*
X97349013Y-77077746D01*
X97315866Y-77100956D01*
X97311306Y-77103862D01*
X97276248Y-77124104D01*
X97276240Y-77124110D01*
X97250223Y-77155115D01*
X97246569Y-77159104D01*
X95496203Y-78909470D01*
X95492214Y-78913125D01*
X95461205Y-78939145D01*
X95440962Y-78974206D01*
X95438056Y-78978766D01*
X95414846Y-79011913D01*
X95412606Y-79016717D01*
X95405629Y-79033561D01*
X95403810Y-79038559D01*
X95396783Y-79078411D01*
X95395612Y-79083691D01*
X95385135Y-79122791D01*
X95388664Y-79163113D01*
X95388900Y-79168520D01*
X95388900Y-82489478D01*
X95388664Y-82494885D01*
X95385135Y-82535208D01*
X93894730Y-82535208D01*
X93945924Y-82456849D01*
X94039157Y-82244300D01*
X94096134Y-82019305D01*
X94099793Y-81975151D01*
X94115300Y-81788006D01*
X94115300Y-81787993D01*
X94096135Y-81556702D01*
X94096133Y-81556691D01*
X94039157Y-81331699D01*
X93945924Y-81119151D01*
X93818983Y-80924852D01*
X93818980Y-80924849D01*
X93818979Y-80924847D01*
X93661784Y-80754087D01*
X93661779Y-80754083D01*
X93661777Y-80754081D01*
X93478634Y-80611535D01*
X93478628Y-80611531D01*
X93274504Y-80501064D01*
X93274495Y-80501061D01*
X93054984Y-80425702D01*
X92883282Y-80397050D01*
X92826049Y-80387500D01*
X92593951Y-80387500D01*
X92548164Y-80395140D01*
X92365015Y-80425702D01*
X92145504Y-80501061D01*
X92145495Y-80501064D01*
X91941371Y-80611531D01*
X91941365Y-80611535D01*
X91758222Y-80754081D01*
X91758219Y-80754084D01*
X91758216Y-80754086D01*
X91758216Y-80754087D01*
X91725239Y-80789910D01*
X91601016Y-80924852D01*
X91474075Y-81119151D01*
X91380842Y-81331699D01*
X91323866Y-81556691D01*
X91323864Y-81556702D01*
X91304700Y-81787993D01*
X91304700Y-81788006D01*
X81415300Y-81788006D01*
X81415300Y-81787993D01*
X81396135Y-81556702D01*
X81396133Y-81556691D01*
X81339157Y-81331699D01*
X81245924Y-81119151D01*
X81118983Y-80924852D01*
X81118980Y-80924849D01*
X81118979Y-80924847D01*
X80961784Y-80754087D01*
X80961779Y-80754083D01*
X80961777Y-80754081D01*
X80778634Y-80611535D01*
X80778628Y-80611531D01*
X80574504Y-80501064D01*
X80574495Y-80501061D01*
X80354984Y-80425702D01*
X80183282Y-80397050D01*
X80126049Y-80387500D01*
X79893951Y-80387500D01*
X79848164Y-80395140D01*
X79665015Y-80425702D01*
X79445504Y-80501061D01*
X79445495Y-80501064D01*
X79241371Y-80611531D01*
X79241365Y-80611535D01*
X79058222Y-80754081D01*
X79058219Y-80754084D01*
X79058216Y-80754086D01*
X79058216Y-80754087D01*
X79025239Y-80789910D01*
X78901016Y-80924852D01*
X78774075Y-81119151D01*
X78680842Y-81331699D01*
X78623866Y-81556691D01*
X78623864Y-81556702D01*
X78604700Y-81787993D01*
X78604700Y-81788006D01*
X76210500Y-81788006D01*
X76210500Y-72898002D01*
X77366506Y-72898002D01*
X77386469Y-73266196D01*
X77386470Y-73266213D01*
X77446122Y-73630068D01*
X77446128Y-73630094D01*
X77544768Y-73985365D01*
X77544770Y-73985371D01*
X77544772Y-73985377D01*
X77544773Y-73985379D01*
X77559364Y-74022000D01*
X77681255Y-74327926D01*
X77681261Y-74327938D01*
X77853973Y-74653708D01*
X77853979Y-74653717D01*
X78060909Y-74958916D01*
X78276126Y-75212288D01*
X78299627Y-75239956D01*
X78567330Y-75493538D01*
X78860881Y-75716690D01*
X79176838Y-75906795D01*
X79176840Y-75906796D01*
X79176842Y-75906797D01*
X79176846Y-75906799D01*
X79511486Y-76061620D01*
X79511497Y-76061625D01*
X79860934Y-76179364D01*
X80221052Y-76258632D01*
X80587630Y-76298500D01*
X80587636Y-76298500D01*
X80956364Y-76298500D01*
X80956370Y-76298500D01*
X81322948Y-76258632D01*
X81683066Y-76179364D01*
X82032503Y-76061625D01*
X82367162Y-75906795D01*
X82683119Y-75716690D01*
X82976670Y-75493538D01*
X83244373Y-75239956D01*
X83483090Y-74958917D01*
X83690022Y-74653716D01*
X83862743Y-74327930D01*
X83999227Y-73985379D01*
X84097875Y-73630081D01*
X84130163Y-73433133D01*
X84157529Y-73266213D01*
X84157529Y-73266210D01*
X84157531Y-73266199D01*
X84177494Y-72898000D01*
X84176199Y-72874124D01*
X84174939Y-72850881D01*
X84157531Y-72529801D01*
X84153730Y-72506618D01*
X84097877Y-72165931D01*
X84097876Y-72165930D01*
X84097875Y-72165919D01*
X84058820Y-72025255D01*
X83999231Y-71810634D01*
X83999229Y-71810628D01*
X83999228Y-71810627D01*
X83999227Y-71810621D01*
X83862743Y-71468070D01*
X83735334Y-71227752D01*
X132553500Y-71227752D01*
X132565131Y-71286229D01*
X132565132Y-71286230D01*
X132609447Y-71352552D01*
X132675769Y-71396867D01*
X132675770Y-71396868D01*
X132734247Y-71408499D01*
X132734250Y-71408500D01*
X132734252Y-71408500D01*
X134473750Y-71408500D01*
X134473751Y-71408499D01*
X134495009Y-71404271D01*
X134532229Y-71396868D01*
X134532229Y-71396867D01*
X134532231Y-71396867D01*
X134598552Y-71352552D01*
X134642867Y-71286231D01*
X134642867Y-71286229D01*
X134642868Y-71286229D01*
X134654499Y-71227752D01*
X134654500Y-71227750D01*
X134654500Y-69488249D01*
X134654499Y-69488247D01*
X134642868Y-69429770D01*
X134642867Y-69429769D01*
X134598552Y-69363447D01*
X134532230Y-69319132D01*
X134532229Y-69319131D01*
X134473752Y-69307500D01*
X134473748Y-69307500D01*
X132734252Y-69307500D01*
X132734247Y-69307500D01*
X132675770Y-69319131D01*
X132675769Y-69319132D01*
X132609447Y-69363447D01*
X132565132Y-69429769D01*
X132565131Y-69429770D01*
X132553500Y-69488247D01*
X132553500Y-71227752D01*
X83735334Y-71227752D01*
X83690022Y-71142284D01*
X83483090Y-70837083D01*
X83244373Y-70556044D01*
X82976670Y-70302462D01*
X82683119Y-70079310D01*
X82367162Y-69889205D01*
X82367161Y-69889204D01*
X82367157Y-69889202D01*
X82367153Y-69889200D01*
X82032513Y-69734379D01*
X82032508Y-69734377D01*
X82032503Y-69734375D01*
X81862172Y-69676983D01*
X81683065Y-69616635D01*
X81322946Y-69537367D01*
X80956371Y-69497500D01*
X80956370Y-69497500D01*
X80587630Y-69497500D01*
X80587628Y-69497500D01*
X80221053Y-69537367D01*
X79860934Y-69616635D01*
X79590812Y-69707650D01*
X79511497Y-69734375D01*
X79511494Y-69734376D01*
X79511486Y-69734379D01*
X79176846Y-69889200D01*
X79176842Y-69889202D01*
X78941538Y-70030779D01*
X78860881Y-70079310D01*
X78760410Y-70155685D01*
X78567330Y-70302461D01*
X78567330Y-70302462D01*
X78299626Y-70556044D01*
X78060909Y-70837083D01*
X77853979Y-71142282D01*
X77853973Y-71142291D01*
X77681261Y-71468061D01*
X77681255Y-71468073D01*
X77544770Y-71810628D01*
X77544768Y-71810634D01*
X77446128Y-72165905D01*
X77446122Y-72165931D01*
X77386470Y-72529786D01*
X77386469Y-72529803D01*
X77366506Y-72897997D01*
X77366506Y-72898002D01*
X76210500Y-72898002D01*
X76210500Y-68206500D01*
X76230185Y-68139461D01*
X76282989Y-68093706D01*
X76334500Y-68082500D01*
X174617500Y-68082500D01*
X174684539Y-68102185D01*
G37*
G04 #@! TD.AperFunction*
G04 #@! TA.AperFunction,Conductor*
G36*
X149050326Y-85034092D02*
G01*
X149232068Y-85089224D01*
X149428200Y-85108541D01*
X149624332Y-85089224D01*
X149806070Y-85034093D01*
X149875937Y-85033470D01*
X149929747Y-85065073D01*
X151706881Y-86842207D01*
X151740366Y-86903530D01*
X151743200Y-86929888D01*
X151743200Y-87179392D01*
X151743201Y-87179397D01*
X151749381Y-87196379D01*
X151754974Y-87217251D01*
X151758111Y-87235044D01*
X151767147Y-87250695D01*
X151776279Y-87270280D01*
X151782457Y-87287254D01*
X151782458Y-87287257D01*
X151782460Y-87287260D01*
X151782462Y-87287262D01*
X151794074Y-87301101D01*
X151806473Y-87318809D01*
X151815505Y-87334455D01*
X151824407Y-87341924D01*
X151829347Y-87346069D01*
X151844630Y-87361352D01*
X151856245Y-87375194D01*
X151866866Y-87381326D01*
X151871889Y-87384226D01*
X151889594Y-87396623D01*
X151898607Y-87404185D01*
X151903439Y-87408240D01*
X151920426Y-87414422D01*
X151940007Y-87423554D01*
X151955655Y-87432588D01*
X151973447Y-87435724D01*
X151994321Y-87441317D01*
X152011306Y-87447500D01*
X152040225Y-87447500D01*
X152069500Y-87447500D01*
X152136539Y-87467185D01*
X152182294Y-87519989D01*
X152193500Y-87571500D01*
X152193500Y-87941752D01*
X152205131Y-88000229D01*
X152205132Y-88000230D01*
X152249447Y-88066552D01*
X152315769Y-88110867D01*
X152315770Y-88110868D01*
X152374247Y-88122499D01*
X152374250Y-88122500D01*
X152374252Y-88122500D01*
X154013750Y-88122500D01*
X154013751Y-88122499D01*
X154028568Y-88119552D01*
X154072229Y-88110868D01*
X154072229Y-88110867D01*
X154072231Y-88110867D01*
X154138552Y-88066552D01*
X154182867Y-88000231D01*
X154182867Y-88000229D01*
X154182868Y-88000229D01*
X154194499Y-87941752D01*
X154194500Y-87941750D01*
X154194500Y-87819308D01*
X154214185Y-87752269D01*
X154230819Y-87731627D01*
X154796046Y-87166399D01*
X154808835Y-87247148D01*
X154866359Y-87360045D01*
X154955955Y-87449641D01*
X155068852Y-87507165D01*
X155149597Y-87519953D01*
X154468526Y-88201025D01*
X154468526Y-88201026D01*
X154541512Y-88252131D01*
X154541516Y-88252133D01*
X154747673Y-88348265D01*
X154747682Y-88348269D01*
X154967389Y-88407139D01*
X154967400Y-88407141D01*
X155193998Y-88426966D01*
X155194002Y-88426966D01*
X155420599Y-88407141D01*
X155420610Y-88407139D01*
X155640317Y-88348269D01*
X155640326Y-88348265D01*
X155846483Y-88252133D01*
X155846489Y-88252129D01*
X155995576Y-88147737D01*
X156061782Y-88125409D01*
X156129549Y-88142419D01*
X156177363Y-88193366D01*
X156190700Y-88249311D01*
X156190700Y-98030578D01*
X156190464Y-98035985D01*
X156186935Y-98076308D01*
X156197412Y-98115410D01*
X156198583Y-98120690D01*
X156205611Y-98160543D01*
X156207435Y-98165555D01*
X156214397Y-98182361D01*
X156216645Y-98187181D01*
X156216646Y-98187184D01*
X156223412Y-98196847D01*
X156239855Y-98220331D01*
X156242761Y-98224892D01*
X156263006Y-98259955D01*
X156294015Y-98285975D01*
X156298005Y-98289631D01*
X161988588Y-103980214D01*
X162022073Y-104041537D01*
X162023846Y-104084079D01*
X162014918Y-104151897D01*
X162014918Y-104151901D01*
X162035555Y-104308660D01*
X162035557Y-104308665D01*
X162065249Y-104380348D01*
X162072718Y-104449817D01*
X162041443Y-104512296D01*
X161981354Y-104547948D01*
X161950688Y-104551800D01*
X158527392Y-104551800D01*
X158460353Y-104532115D01*
X158414598Y-104479311D01*
X158407096Y-104453194D01*
X158406747Y-104453288D01*
X158404644Y-104445439D01*
X158404644Y-104445438D01*
X158344136Y-104299359D01*
X158247882Y-104173918D01*
X158122441Y-104077664D01*
X158120246Y-104076755D01*
X157976362Y-104017156D01*
X157976360Y-104017155D01*
X157819601Y-103996518D01*
X157819599Y-103996518D01*
X157662839Y-104017155D01*
X157662837Y-104017156D01*
X157516760Y-104077663D01*
X157391318Y-104173918D01*
X157295063Y-104299360D01*
X157234556Y-104445437D01*
X157234555Y-104445439D01*
X157213918Y-104602198D01*
X157213918Y-104602201D01*
X157234555Y-104758960D01*
X157234557Y-104758965D01*
X157264249Y-104830648D01*
X157271718Y-104900117D01*
X157240443Y-104962596D01*
X157180354Y-104998248D01*
X157149688Y-105002100D01*
X155909912Y-105002100D01*
X155842873Y-104982415D01*
X155797118Y-104929611D01*
X155787174Y-104860453D01*
X155795351Y-104830648D01*
X155816951Y-104778500D01*
X155825044Y-104758962D01*
X155845682Y-104602200D01*
X155842504Y-104578063D01*
X155826065Y-104453194D01*
X155825044Y-104445438D01*
X155764536Y-104299359D01*
X155668282Y-104173918D01*
X155668280Y-104173916D01*
X155668279Y-104173915D01*
X155614012Y-104132274D01*
X155572810Y-104075846D01*
X155565500Y-104033899D01*
X155565500Y-101045720D01*
X155565736Y-101040313D01*
X155566267Y-101034252D01*
X155569264Y-100999993D01*
X155558782Y-100960876D01*
X155557616Y-100955618D01*
X155550588Y-100915755D01*
X155550586Y-100915752D01*
X155550586Y-100915750D01*
X155548760Y-100910733D01*
X155541820Y-100893976D01*
X155539554Y-100889119D01*
X155539554Y-100889116D01*
X155516339Y-100855962D01*
X155513433Y-100851399D01*
X155493196Y-100816348D01*
X155493195Y-100816347D01*
X155493194Y-100816345D01*
X155462177Y-100790318D01*
X155458193Y-100786667D01*
X148030419Y-93358893D01*
X147996934Y-93297570D01*
X147994100Y-93271212D01*
X147994100Y-89663153D01*
X148013785Y-89596114D01*
X148066589Y-89550359D01*
X148135747Y-89540415D01*
X148199303Y-89569440D01*
X148230482Y-89610748D01*
X148298065Y-89755681D01*
X148298066Y-89755683D01*
X148349173Y-89828671D01*
X148349173Y-89828672D01*
X149030246Y-89147600D01*
X149043035Y-89228348D01*
X149100559Y-89341245D01*
X149190155Y-89430841D01*
X149303052Y-89488365D01*
X149383799Y-89501153D01*
X148702726Y-90182225D01*
X148702726Y-90182226D01*
X148775712Y-90233331D01*
X148775716Y-90233333D01*
X148981873Y-90329465D01*
X148981882Y-90329469D01*
X149201589Y-90388339D01*
X149201600Y-90388341D01*
X149428198Y-90408166D01*
X149428202Y-90408166D01*
X149654799Y-90388341D01*
X149654810Y-90388339D01*
X149874517Y-90329469D01*
X149874531Y-90329464D01*
X150080678Y-90233336D01*
X150153672Y-90182225D01*
X149472601Y-89501153D01*
X149553348Y-89488365D01*
X149666245Y-89430841D01*
X149755841Y-89341245D01*
X149813365Y-89228348D01*
X149826153Y-89147600D01*
X150507225Y-89828672D01*
X150558336Y-89755678D01*
X150654464Y-89549531D01*
X150654469Y-89549517D01*
X150713339Y-89329810D01*
X150713341Y-89329799D01*
X150733166Y-89103202D01*
X150733166Y-89103197D01*
X150713341Y-88876600D01*
X150713339Y-88876589D01*
X150654469Y-88656882D01*
X150654465Y-88656873D01*
X150558333Y-88450716D01*
X150558331Y-88450712D01*
X150507226Y-88377726D01*
X150507225Y-88377726D01*
X149826153Y-89058798D01*
X149813365Y-88978052D01*
X149755841Y-88865155D01*
X149666245Y-88775559D01*
X149553348Y-88718035D01*
X149472600Y-88705246D01*
X150153672Y-88024174D01*
X150153671Y-88024173D01*
X150080683Y-87973066D01*
X150080681Y-87973065D01*
X149874526Y-87876934D01*
X149874517Y-87876930D01*
X149654810Y-87818060D01*
X149654799Y-87818058D01*
X149428202Y-87798234D01*
X149428198Y-87798234D01*
X149201600Y-87818058D01*
X149201590Y-87818060D01*
X149176274Y-87824843D01*
X149106424Y-87823178D01*
X149048563Y-87784014D01*
X149021060Y-87719784D01*
X149021244Y-87688887D01*
X149024482Y-87664300D01*
X149003844Y-87507538D01*
X148943336Y-87361459D01*
X148847082Y-87236018D01*
X148847080Y-87236016D01*
X148847079Y-87236015D01*
X148792812Y-87194374D01*
X148751610Y-87137946D01*
X148744300Y-87095999D01*
X148744300Y-85298787D01*
X148763985Y-85231748D01*
X148780615Y-85211110D01*
X148926652Y-85065072D01*
X148987975Y-85031588D01*
X149050326Y-85034092D01*
G37*
G04 #@! TD.AperFunction*
G04 #@! TA.AperFunction,Conductor*
G36*
X148459892Y-71428185D02*
G01*
X148505647Y-71480989D01*
X148516381Y-71543311D01*
X148514735Y-71562109D01*
X148525212Y-71601210D01*
X148526383Y-71606490D01*
X148533411Y-71646343D01*
X148535235Y-71651355D01*
X148542197Y-71668161D01*
X148544445Y-71672981D01*
X148544446Y-71672984D01*
X148551894Y-71683621D01*
X148567655Y-71706131D01*
X148570561Y-71710692D01*
X148590806Y-71745755D01*
X148621815Y-71771775D01*
X148625805Y-71775431D01*
X156154381Y-79304007D01*
X156187866Y-79365330D01*
X156190700Y-79391688D01*
X156190700Y-85994688D01*
X156171015Y-86061727D01*
X156118211Y-86107482D01*
X156049053Y-86117426D01*
X155995576Y-86096263D01*
X155846482Y-85991866D01*
X155640326Y-85895734D01*
X155640317Y-85895730D01*
X155420610Y-85836860D01*
X155420599Y-85836858D01*
X155194002Y-85817034D01*
X155193998Y-85817034D01*
X154967400Y-85836858D01*
X154967389Y-85836860D01*
X154747682Y-85895730D01*
X154747673Y-85895734D01*
X154541513Y-85991868D01*
X154468526Y-86042973D01*
X155149599Y-86724046D01*
X155068852Y-86736835D01*
X154955955Y-86794359D01*
X154866359Y-86883955D01*
X154808835Y-86996852D01*
X154796046Y-87077599D01*
X154230819Y-86512372D01*
X154197334Y-86451049D01*
X154194500Y-86424691D01*
X154194500Y-86302249D01*
X154194499Y-86302247D01*
X154182868Y-86243770D01*
X154182867Y-86243769D01*
X154138552Y-86177447D01*
X154072230Y-86133132D01*
X154072229Y-86133131D01*
X154013752Y-86121500D01*
X154013748Y-86121500D01*
X152374252Y-86121500D01*
X152374247Y-86121500D01*
X152315770Y-86133131D01*
X152315769Y-86133132D01*
X152249448Y-86177447D01*
X152218565Y-86223667D01*
X152164952Y-86268471D01*
X152095627Y-86277178D01*
X152032600Y-86247023D01*
X152027782Y-86242456D01*
X150390073Y-84604747D01*
X150356588Y-84543424D01*
X150359094Y-84481070D01*
X150390788Y-84376589D01*
X150414224Y-84299332D01*
X150433541Y-84103200D01*
X150414224Y-83907068D01*
X150357014Y-83718473D01*
X150357011Y-83718469D01*
X150357011Y-83718466D01*
X150264113Y-83544667D01*
X150264109Y-83544660D01*
X150139083Y-83392316D01*
X149986739Y-83267290D01*
X149986732Y-83267286D01*
X149812933Y-83174388D01*
X149812927Y-83174386D01*
X149624332Y-83117176D01*
X149624329Y-83117175D01*
X149428200Y-83097859D01*
X149232070Y-83117175D01*
X149043466Y-83174388D01*
X148869667Y-83267286D01*
X148869660Y-83267290D01*
X148717316Y-83392316D01*
X148592290Y-83544660D01*
X148592286Y-83544667D01*
X148499388Y-83718466D01*
X148442175Y-83907070D01*
X148422859Y-84103200D01*
X148442175Y-84299330D01*
X148497306Y-84481070D01*
X148497929Y-84550936D01*
X148466326Y-84604746D01*
X148205781Y-84865292D01*
X148144458Y-84898777D01*
X148074767Y-84893793D01*
X148018833Y-84851922D01*
X147994416Y-84786457D01*
X147994100Y-84777611D01*
X147994100Y-73397588D01*
X148013785Y-73330549D01*
X148030419Y-73309907D01*
X148078385Y-73261941D01*
X148358921Y-72981404D01*
X148362872Y-72977784D01*
X148393894Y-72951755D01*
X148414144Y-72916679D01*
X148417028Y-72912152D01*
X148440254Y-72878984D01*
X148440254Y-72878981D01*
X148442519Y-72874124D01*
X148449447Y-72857399D01*
X148451287Y-72852346D01*
X148451288Y-72852345D01*
X148458321Y-72812450D01*
X148459477Y-72807237D01*
X148469963Y-72768107D01*
X148466435Y-72727789D01*
X148466200Y-72722386D01*
X148466200Y-72155220D01*
X148466436Y-72149813D01*
X148469964Y-72109493D01*
X148459482Y-72070376D01*
X148458316Y-72065118D01*
X148451288Y-72025255D01*
X148451286Y-72025252D01*
X148451286Y-72025250D01*
X148449460Y-72020233D01*
X148442520Y-72003476D01*
X148440254Y-71998619D01*
X148440254Y-71998616D01*
X148417039Y-71965462D01*
X148414133Y-71960899D01*
X148393896Y-71925848D01*
X148393895Y-71925847D01*
X148393894Y-71925845D01*
X148362877Y-71899818D01*
X148358893Y-71896167D01*
X148082907Y-71620181D01*
X148049422Y-71558858D01*
X148054406Y-71489166D01*
X148096278Y-71433233D01*
X148161742Y-71408816D01*
X148170588Y-71408500D01*
X148392853Y-71408500D01*
X148459892Y-71428185D01*
G37*
G04 #@! TD.AperFunction*
M02*
