G04 #@! TF.GenerationSoftware,KiCad,Pcbnew,5.1.5-52549c5~84~ubuntu18.04.1*
G04 #@! TF.CreationDate,2020-04-08T12:20:09+02:00*
G04 #@! TF.ProjectId,ltl,6c746c2e-6b69-4636-9164-5f7063625858,rev?*
G04 #@! TF.SameCoordinates,Original*
G04 #@! TF.FileFunction,Soldermask,Top*
G04 #@! TF.FilePolarity,Negative*
%FSLAX46Y46*%
G04 Gerber Fmt 4.6, Leading zero omitted, Abs format (unit mm)*
G04 Created by KiCad (PCBNEW 5.1.5-52549c5~84~ubuntu18.04.1) date 2020-04-08 12:20:09*
%MOMM*%
%LPD*%
G04 APERTURE LIST*
%ADD10O,2.662000X3.662000*%
%ADD11R,3.400000X3.400000*%
%ADD12C,1.924000*%
%ADD13C,1.100000*%
%ADD14C,4.800000*%
%ADD15O,2.200000X2.200000*%
%ADD16R,2.200000X2.200000*%
%ADD17O,2.000000X2.000000*%
%ADD18C,2.000000*%
%ADD19R,2.000000X2.000000*%
%ADD20C,1.700000*%
%ADD21R,1.700000X1.700000*%
%ADD22C,0.100000*%
%ADD23O,2.100000X2.350000*%
%ADD24R,2.900000X1.500000*%
%ADD25O,2.900000X1.500000*%
%ADD26O,1.500000X2.900000*%
%ADD27C,2.400000*%
G04 APERTURE END LIST*
D10*
X161036000Y-120650000D03*
D11*
X88900000Y-120650000D03*
D12*
X94742000Y-94869000D03*
X94742000Y-107569000D03*
X117602000Y-94564200D03*
X117602000Y-107873800D03*
X117602000Y-105029000D03*
X117602000Y-97409000D03*
D13*
X161948726Y-134723274D03*
X160782000Y-134240000D03*
X159615274Y-134723274D03*
X159132000Y-135890000D03*
X159615274Y-137056726D03*
X160782000Y-137540000D03*
X161948726Y-137056726D03*
X162432000Y-135890000D03*
D14*
X160782000Y-135890000D03*
X160782000Y-93980000D03*
D13*
X162432000Y-93980000D03*
X161948726Y-95146726D03*
X160782000Y-95630000D03*
X159615274Y-95146726D03*
X159132000Y-93980000D03*
X159615274Y-92813274D03*
X160782000Y-92330000D03*
X161948726Y-92813274D03*
D14*
X89154000Y-135890000D03*
D13*
X90804000Y-135890000D03*
X90320726Y-137056726D03*
X89154000Y-137540000D03*
X87987274Y-137056726D03*
X87504000Y-135890000D03*
X87987274Y-134723274D03*
X89154000Y-134240000D03*
X90320726Y-134723274D03*
X90320726Y-92813274D03*
X89154000Y-92330000D03*
X87987274Y-92813274D03*
X87504000Y-93980000D03*
X87987274Y-95146726D03*
X89154000Y-95630000D03*
X90320726Y-95146726D03*
X90804000Y-93980000D03*
D14*
X89154000Y-93980000D03*
D15*
X103632000Y-136398000D03*
D16*
X96012000Y-136398000D03*
D17*
X117602000Y-136398000D03*
D18*
X107442000Y-136398000D03*
D17*
X117602000Y-133096000D03*
D18*
X107442000Y-133096000D03*
D17*
X156210000Y-136398000D03*
D18*
X146050000Y-136398000D03*
D17*
X156210000Y-133096000D03*
D18*
X146050000Y-133096000D03*
D17*
X143320000Y-133096000D03*
D18*
X133160000Y-133096000D03*
X133160000Y-136398000D03*
D17*
X143320000Y-136398000D03*
D19*
X143510000Y-104902000D03*
D18*
X143510000Y-107402000D03*
X104902000Y-133096000D03*
D17*
X94742000Y-133096000D03*
D20*
X160020000Y-106172000D03*
X158750000Y-107442000D03*
D21*
X158750000Y-104902000D03*
D22*
G36*
X128851447Y-133700487D02*
G01*
X128881425Y-133704934D01*
X128910824Y-133712298D01*
X128939358Y-133722508D01*
X128966755Y-133735465D01*
X128992750Y-133751046D01*
X129017092Y-133769100D01*
X129039548Y-133789452D01*
X129059900Y-133811908D01*
X129077954Y-133836250D01*
X129093535Y-133862245D01*
X129106492Y-133889642D01*
X129116702Y-133918176D01*
X129124066Y-133947575D01*
X129128513Y-133977553D01*
X129130000Y-134007823D01*
X129130000Y-135740177D01*
X129128513Y-135770447D01*
X129124066Y-135800425D01*
X129116702Y-135829824D01*
X129106492Y-135858358D01*
X129093535Y-135885755D01*
X129077954Y-135911750D01*
X129059900Y-135936092D01*
X129039548Y-135958548D01*
X129017092Y-135978900D01*
X128992750Y-135996954D01*
X128966755Y-136012535D01*
X128939358Y-136025492D01*
X128910824Y-136035702D01*
X128881425Y-136043066D01*
X128851447Y-136047513D01*
X128821177Y-136049000D01*
X127338823Y-136049000D01*
X127308553Y-136047513D01*
X127278575Y-136043066D01*
X127249176Y-136035702D01*
X127220642Y-136025492D01*
X127193245Y-136012535D01*
X127167250Y-135996954D01*
X127142908Y-135978900D01*
X127120452Y-135958548D01*
X127100100Y-135936092D01*
X127082046Y-135911750D01*
X127066465Y-135885755D01*
X127053508Y-135858358D01*
X127043298Y-135829824D01*
X127035934Y-135800425D01*
X127031487Y-135770447D01*
X127030000Y-135740177D01*
X127030000Y-134007823D01*
X127031487Y-133977553D01*
X127035934Y-133947575D01*
X127043298Y-133918176D01*
X127053508Y-133889642D01*
X127066465Y-133862245D01*
X127082046Y-133836250D01*
X127100100Y-133811908D01*
X127120452Y-133789452D01*
X127142908Y-133769100D01*
X127167250Y-133751046D01*
X127193245Y-133735465D01*
X127220642Y-133722508D01*
X127249176Y-133712298D01*
X127278575Y-133704934D01*
X127308553Y-133700487D01*
X127338823Y-133699000D01*
X128821177Y-133699000D01*
X128851447Y-133700487D01*
G37*
D23*
X125580000Y-134874000D03*
X123080000Y-134874000D03*
D24*
X122363000Y-92837000D03*
D25*
X122363000Y-94837000D03*
X122363000Y-96837000D03*
X122363000Y-98837000D03*
X122363000Y-100837000D03*
X122363000Y-102837000D03*
X122363000Y-104837000D03*
X122363000Y-106837000D03*
X137763000Y-106837000D03*
X137663000Y-104837000D03*
X137763000Y-102837000D03*
X137763000Y-100837000D03*
X137763000Y-98837000D03*
X137763000Y-96837000D03*
X137763000Y-94837000D03*
X137763000Y-92837000D03*
D26*
X125053000Y-108537000D03*
X127053000Y-108537000D03*
X129053000Y-108537000D03*
X131053000Y-108537000D03*
X133053000Y-108537000D03*
X135053000Y-108537000D03*
D27*
X155448000Y-100480000D03*
X150948000Y-100480000D03*
X155448000Y-93980000D03*
X150948000Y-93980000D03*
X142058000Y-93980000D03*
X146558000Y-93980000D03*
X142058000Y-100480000D03*
X146558000Y-100480000D03*
M02*
