G04 #@! TF.GenerationSoftware,KiCad,Pcbnew,7.0.9*
G04 #@! TF.CreationDate,2024-02-02T01:21:52+01:00*
G04 #@! TF.ProjectId,ltl,6c746c2e-6b69-4636-9164-5f7063625858,rev?*
G04 #@! TF.SameCoordinates,Original*
G04 #@! TF.FileFunction,Copper,L2,Bot*
G04 #@! TF.FilePolarity,Positive*
%FSLAX46Y46*%
G04 Gerber Fmt 4.6, Leading zero omitted, Abs format (unit mm)*
G04 Created by KiCad (PCBNEW 7.0.9) date 2024-02-02 01:21:52*
%MOMM*%
%LPD*%
G01*
G04 APERTURE LIST*
G04 #@! TA.AperFunction,ComponentPad*
%ADD10C,1.600000*%
G04 #@! TD*
G04 #@! TA.AperFunction,ComponentPad*
%ADD11O,1.600000X1.600000*%
G04 #@! TD*
G04 #@! TA.AperFunction,ComponentPad*
%ADD12R,3.000000X3.000000*%
G04 #@! TD*
G04 #@! TA.AperFunction,ComponentPad*
%ADD13O,2.262000X3.262000*%
G04 #@! TD*
G04 #@! TA.AperFunction,ComponentPad*
%ADD14R,1.600000X1.600000*%
G04 #@! TD*
G04 #@! TA.AperFunction,ComponentPad*
%ADD15R,1.300000X1.300000*%
G04 #@! TD*
G04 #@! TA.AperFunction,ComponentPad*
%ADD16C,1.300000*%
G04 #@! TD*
G04 #@! TA.AperFunction,ComponentPad*
%ADD17C,0.800000*%
G04 #@! TD*
G04 #@! TA.AperFunction,ComponentPad*
%ADD18C,6.400000*%
G04 #@! TD*
G04 #@! TA.AperFunction,ComponentPad*
%ADD19R,1.050000X1.500000*%
G04 #@! TD*
G04 #@! TA.AperFunction,ComponentPad*
%ADD20O,1.050000X1.500000*%
G04 #@! TD*
G04 #@! TA.AperFunction,ComponentPad*
%ADD21C,2.000000*%
G04 #@! TD*
G04 #@! TA.AperFunction,ComponentPad*
%ADD22R,1.700000X1.700000*%
G04 #@! TD*
G04 #@! TA.AperFunction,ComponentPad*
%ADD23O,1.700000X1.700000*%
G04 #@! TD*
G04 #@! TA.AperFunction,ViaPad*
%ADD24C,0.800000*%
G04 #@! TD*
G04 #@! TA.AperFunction,Conductor*
%ADD25C,0.250000*%
G04 #@! TD*
G04 APERTURE END LIST*
D10*
X133252000Y-105412000D03*
D11*
X143412000Y-105412000D03*
D10*
X133252000Y-102312000D03*
D11*
X143412000Y-102312000D03*
D10*
X133282000Y-86712000D03*
D11*
X143442000Y-86712000D03*
D10*
X133282000Y-89862000D03*
D11*
X143442000Y-89862000D03*
D10*
X133282000Y-96062000D03*
D11*
X143442000Y-96062000D03*
D12*
X89916000Y-118364000D03*
D13*
X162052000Y-118364000D03*
D10*
X133282000Y-92962000D03*
D11*
X143442000Y-92962000D03*
D14*
X155702000Y-86740000D03*
D10*
X155702000Y-84740000D03*
X109260000Y-101092000D03*
X114260000Y-101092000D03*
D15*
X164994000Y-84328000D03*
D16*
X166264000Y-85598000D03*
X164994000Y-86868000D03*
D10*
X83550000Y-88102000D03*
D11*
X93710000Y-88102000D03*
D14*
X117502000Y-97771900D03*
D11*
X117502000Y-105391900D03*
D17*
X120150000Y-133000000D03*
X120852944Y-131302944D03*
X120852944Y-134697056D03*
X122550000Y-130600000D03*
D18*
X122550000Y-133000000D03*
D17*
X122550000Y-135400000D03*
X124247056Y-131302944D03*
X124247056Y-134697056D03*
X124950000Y-133000000D03*
D10*
X119888000Y-97536000D03*
D11*
X130048000Y-97536000D03*
D19*
X127000000Y-105008000D03*
D20*
X128270000Y-105008000D03*
X129540000Y-105008000D03*
D10*
X83550000Y-91202000D03*
D11*
X93710000Y-91202000D03*
D21*
X140006000Y-76418000D03*
X133506000Y-76418000D03*
X140006000Y-71918000D03*
X133506000Y-71918000D03*
D17*
X77600000Y-73000000D03*
X78302944Y-71302944D03*
X78302944Y-74697056D03*
X80000000Y-70600000D03*
D18*
X80000000Y-73000000D03*
D17*
X80000000Y-75400000D03*
X81697056Y-71302944D03*
X81697056Y-74697056D03*
X82400000Y-73000000D03*
X77600000Y-133000000D03*
X78302944Y-131302944D03*
X78302944Y-134697056D03*
X80000000Y-130600000D03*
D18*
X80000000Y-133000000D03*
D17*
X80000000Y-135400000D03*
X81697056Y-131302944D03*
X81697056Y-134697056D03*
X82400000Y-133000000D03*
D22*
X87122000Y-76708000D03*
D23*
X89662000Y-76708000D03*
X92202000Y-76708000D03*
X94742000Y-76708000D03*
D10*
X146032000Y-87020000D03*
X151032000Y-87020000D03*
D14*
X100430900Y-96774000D03*
D10*
X102430900Y-96774000D03*
X104102800Y-84853200D03*
D11*
X114262800Y-84853200D03*
D10*
X119888000Y-100584000D03*
D11*
X130048000Y-100584000D03*
D14*
X106212000Y-96774000D03*
D10*
X108212000Y-96774000D03*
X104107700Y-78628600D03*
D11*
X114267700Y-78628600D03*
D10*
X133252000Y-99212000D03*
D11*
X143412000Y-99212000D03*
D14*
X91650000Y-95552000D03*
D10*
X93650000Y-95552000D03*
X119888000Y-94488000D03*
D11*
X130048000Y-94488000D03*
D22*
X77216000Y-89662000D03*
D23*
X77216000Y-92202000D03*
X77216000Y-94742000D03*
X77216000Y-97282000D03*
X77216000Y-99822000D03*
X77216000Y-102362000D03*
X77216000Y-104902000D03*
X77216000Y-107442000D03*
X77216000Y-109982000D03*
X77216000Y-112522000D03*
X77216000Y-115062000D03*
X77216000Y-117602000D03*
X77216000Y-120142000D03*
X77216000Y-122682000D03*
X77216000Y-125222000D03*
D10*
X104119700Y-75509100D03*
D11*
X114279700Y-75509100D03*
D10*
X84000000Y-98852000D03*
X84000000Y-93852000D03*
D22*
X87122000Y-70358000D03*
D23*
X89662000Y-70358000D03*
X92202000Y-70358000D03*
X94742000Y-70358000D03*
X97282000Y-70358000D03*
X99822000Y-70358000D03*
D17*
X162650000Y-133000000D03*
X163352944Y-131302944D03*
X163352944Y-134697056D03*
X165050000Y-130600000D03*
D18*
X165050000Y-133000000D03*
D17*
X165050000Y-135400000D03*
X166747056Y-131302944D03*
X166747056Y-134697056D03*
X167450000Y-133000000D03*
D10*
X83550000Y-85002000D03*
D11*
X93710000Y-85002000D03*
D10*
X109300000Y-104394000D03*
X114300000Y-104394000D03*
X104102800Y-81738500D03*
D11*
X114262800Y-81738500D03*
D21*
X155702000Y-76200000D03*
X149202000Y-76200000D03*
X155702000Y-71700000D03*
X149202000Y-71700000D03*
D17*
X120100000Y-73000000D03*
X120802944Y-71302944D03*
X120802944Y-74697056D03*
X122500000Y-70600000D03*
D18*
X122500000Y-73000000D03*
D17*
X122500000Y-75400000D03*
X124197056Y-71302944D03*
X124197056Y-74697056D03*
X124900000Y-73000000D03*
X162600000Y-73000000D03*
X163302944Y-71302944D03*
X163302944Y-74697056D03*
X165000000Y-70600000D03*
D18*
X165000000Y-73000000D03*
D17*
X165000000Y-75400000D03*
X166697056Y-71302944D03*
X166697056Y-74697056D03*
X167400000Y-73000000D03*
D22*
X86850000Y-101802000D03*
D23*
X84310000Y-101802000D03*
D14*
X90600000Y-101052000D03*
D10*
X92600000Y-101052000D03*
X83570000Y-105452000D03*
D11*
X93730000Y-105452000D03*
D24*
X128622300Y-99139000D03*
X121403900Y-94627000D03*
X84122700Y-95709900D03*
X147925800Y-109982000D03*
X148174400Y-100469000D03*
X143161800Y-100762000D03*
X146307200Y-106479500D03*
X117198800Y-102786000D03*
X82817700Y-107565300D03*
X92520700Y-92333300D03*
X101897100Y-90910200D03*
X112632500Y-86545500D03*
X104273100Y-100838000D03*
X122511300Y-106552800D03*
X118050100Y-92038700D03*
X82514400Y-95709900D03*
X108259700Y-106145200D03*
X109400700Y-90183300D03*
D25*
X130048000Y-94488000D02*
X130048000Y-95614900D01*
X128622300Y-97040600D02*
X130048000Y-95614900D01*
X128622300Y-99139000D02*
X128622300Y-97040600D01*
X123235100Y-103931100D02*
X119888000Y-100584000D01*
X128270000Y-103931100D02*
X123235100Y-103931100D01*
X128270000Y-105008000D02*
X128270000Y-103931100D01*
X128270000Y-105008000D02*
X128270000Y-106084900D01*
X118706200Y-95669800D02*
X119888000Y-94488000D01*
X118706200Y-98905600D02*
X118706200Y-95669800D01*
X118254100Y-99357700D02*
X118706200Y-98905600D01*
X118254100Y-101202700D02*
X118254100Y-99357700D01*
X123136300Y-106084900D02*
X118254100Y-101202700D01*
X128270000Y-106084900D02*
X123136300Y-106084900D01*
X119888000Y-96142900D02*
X121403900Y-94627000D01*
X119888000Y-97536000D02*
X119888000Y-96142900D01*
X119888000Y-98588200D02*
X119888000Y-97536000D01*
X118707700Y-99768500D02*
X119888000Y-98588200D01*
X118707700Y-101008100D02*
X118707700Y-99768500D01*
X122707600Y-105008000D02*
X118707700Y-101008100D01*
X127000000Y-105008000D02*
X122707600Y-105008000D01*
X84310000Y-104712000D02*
X83570000Y-105452000D01*
X84310000Y-101802000D02*
X84310000Y-104712000D01*
X84310000Y-101802000D02*
X84310000Y-100625100D01*
X84122700Y-95768700D02*
X84122700Y-95709900D01*
X82820800Y-97070600D02*
X84122700Y-95768700D01*
X82820800Y-99379800D02*
X82820800Y-97070600D01*
X84066100Y-100625100D02*
X82820800Y-99379800D01*
X84310000Y-100625100D02*
X84066100Y-100625100D01*
X148174400Y-109733400D02*
X148174400Y-100469000D01*
X147925800Y-109982000D02*
X148174400Y-109733400D01*
X94742000Y-70358000D02*
X95918900Y-70358000D01*
X132578500Y-105412000D02*
X133252000Y-105412000D01*
X125516100Y-98349600D02*
X132578500Y-105412000D01*
X125516100Y-97700200D02*
X125516100Y-98349600D01*
X112684000Y-84868100D02*
X125516100Y-97700200D01*
X112684000Y-81492200D02*
X112684000Y-84868100D01*
X100355700Y-69163900D02*
X112684000Y-81492200D01*
X96745200Y-69163900D02*
X100355700Y-69163900D01*
X95918900Y-69990200D02*
X96745200Y-69163900D01*
X95918900Y-70358000D02*
X95918900Y-69990200D01*
X136644100Y-107279700D02*
X143161800Y-100762000D01*
X122161600Y-107279700D02*
X136644100Y-107279700D01*
X119896700Y-105014800D02*
X122161600Y-107279700D01*
X119896700Y-104455700D02*
X119896700Y-105014800D01*
X117450600Y-102009600D02*
X119896700Y-104455700D01*
X116644400Y-102009600D02*
X117450600Y-102009600D01*
X115931000Y-102723000D02*
X116644400Y-102009600D01*
X114220600Y-102723000D02*
X115931000Y-102723000D01*
X94261600Y-122682000D02*
X114220600Y-102723000D01*
X77216000Y-122682000D02*
X94261600Y-122682000D01*
X143442000Y-96062000D02*
X143442000Y-97188900D01*
X143442000Y-97188900D02*
X146306000Y-100052900D01*
X158213500Y-88145400D02*
X146306000Y-100052900D01*
X165152800Y-88145400D02*
X158213500Y-88145400D01*
X166264000Y-87034200D02*
X165152800Y-88145400D01*
X166264000Y-85598000D02*
X166264000Y-87034200D01*
X146306000Y-106478300D02*
X146307200Y-106479500D01*
X146306000Y-100052900D02*
X146306000Y-106478300D01*
X134471500Y-94151500D02*
X133282000Y-92962000D01*
X134471500Y-105796100D02*
X134471500Y-94151500D01*
X133686400Y-106581200D02*
X134471500Y-105796100D01*
X131965100Y-106581200D02*
X133686400Y-106581200D01*
X130391900Y-105008000D02*
X131965100Y-106581200D01*
X129540000Y-105008000D02*
X130391900Y-105008000D01*
X95118700Y-125222000D02*
X77216000Y-125222000D01*
X117198800Y-103141900D02*
X95118700Y-125222000D01*
X117198800Y-102786000D02*
X117198800Y-103141900D01*
X77216000Y-97282000D02*
X77216000Y-96105100D01*
X77583900Y-96105100D02*
X77216000Y-96105100D01*
X78392900Y-95296100D02*
X77583900Y-96105100D01*
X78392900Y-94742100D02*
X78392900Y-95296100D01*
X83483000Y-89652000D02*
X78392900Y-94742100D01*
X83680400Y-89652000D02*
X83483000Y-89652000D01*
X91343400Y-81989000D02*
X83680400Y-89652000D01*
X91343400Y-78743500D02*
X91343400Y-81989000D01*
X92202000Y-77884900D02*
X91343400Y-78743500D01*
X92202000Y-76708000D02*
X92202000Y-77884900D01*
X77216000Y-99822000D02*
X77216000Y-100998900D01*
X82425000Y-107172600D02*
X82817700Y-107565300D01*
X82425000Y-105394500D02*
X82425000Y-107172600D01*
X78141400Y-101110900D02*
X82425000Y-105394500D01*
X78029400Y-100998900D02*
X78141400Y-101110900D01*
X77216000Y-100998900D02*
X78029400Y-100998900D01*
X91795300Y-80831600D02*
X94742000Y-77884900D01*
X91795300Y-87656500D02*
X91795300Y-80831600D01*
X84468800Y-94983000D02*
X91795300Y-87656500D01*
X83821700Y-94983000D02*
X84468800Y-94983000D01*
X83241300Y-95563400D02*
X83821700Y-94983000D01*
X83241300Y-96011000D02*
X83241300Y-95563400D01*
X78141400Y-101110900D02*
X83241300Y-96011000D01*
X94742000Y-76708000D02*
X94742000Y-77884900D01*
X88090600Y-96763400D02*
X92520700Y-92333300D01*
X88090600Y-105918300D02*
X88090600Y-96763400D01*
X77583800Y-116425100D02*
X88090600Y-105918300D01*
X77216000Y-116425100D02*
X77583800Y-116425100D01*
X77216000Y-117602000D02*
X77216000Y-116425100D01*
X77216000Y-120142000D02*
X77216000Y-118965100D01*
X94989900Y-97817400D02*
X101897100Y-90910200D01*
X94989900Y-101559000D02*
X94989900Y-97817400D01*
X77583800Y-118965100D02*
X94989900Y-101559000D01*
X77216000Y-118965100D02*
X77583800Y-118965100D01*
X107825500Y-81738500D02*
X112632500Y-86545500D01*
X104102800Y-81738500D02*
X107825500Y-81738500D01*
X104273100Y-92253100D02*
X104273100Y-100838000D01*
X97022000Y-85002000D02*
X104273100Y-92253100D01*
X93710000Y-85002000D02*
X97022000Y-85002000D01*
X93710000Y-91202000D02*
X93710000Y-88102000D01*
X122511300Y-106099000D02*
X122511300Y-106552800D01*
X116311600Y-99899300D02*
X122511300Y-106099000D01*
X116311600Y-95361500D02*
X116311600Y-99899300D01*
X104656600Y-83706500D02*
X116311600Y-95361500D01*
X93384400Y-83706500D02*
X104656600Y-83706500D01*
X92577900Y-84513000D02*
X93384400Y-83706500D01*
X92577900Y-85843000D02*
X92577900Y-84513000D01*
X93710000Y-86975100D02*
X92577900Y-85843000D01*
X93710000Y-88102000D02*
X93710000Y-86975100D01*
X96100400Y-71539600D02*
X97282000Y-70358000D01*
X94232700Y-71539600D02*
X96100400Y-71539600D01*
X93526900Y-70833800D02*
X94232700Y-71539600D01*
X93526900Y-69903200D02*
X93526900Y-70833800D01*
X94746400Y-68683700D02*
X93526900Y-69903200D01*
X100514600Y-68683700D02*
X94746400Y-68683700D01*
X113135900Y-81305000D02*
X100514600Y-68683700D01*
X113135900Y-82219000D02*
X113135900Y-81305000D01*
X114212800Y-83295900D02*
X113135900Y-82219000D01*
X114336800Y-83295900D02*
X114212800Y-83295900D01*
X126128500Y-95087600D02*
X114336800Y-83295900D01*
X126128500Y-98312500D02*
X126128500Y-95087600D01*
X130128000Y-102312000D02*
X126128500Y-98312500D01*
X133252000Y-102312000D02*
X130128000Y-102312000D01*
X140006000Y-85299100D02*
X143442000Y-88735100D01*
X140006000Y-76418000D02*
X140006000Y-85299100D01*
X143442000Y-89862000D02*
X143442000Y-88735100D01*
X143442000Y-92962000D02*
X143442000Y-89862000D01*
X143442000Y-81960000D02*
X143442000Y-86712000D01*
X149202000Y-76200000D02*
X143442000Y-81960000D01*
X118050100Y-92038700D02*
X117502000Y-92038700D01*
X117502000Y-90385300D02*
X117502000Y-92038700D01*
X104191500Y-77074800D02*
X117502000Y-90385300D01*
X104091300Y-77074800D02*
X104191500Y-77074800D01*
X99822000Y-72805500D02*
X104091300Y-77074800D01*
X99822000Y-70358000D02*
X99822000Y-72805500D01*
X117502000Y-92038700D02*
X117502000Y-97771900D01*
X82514400Y-92237600D02*
X83550000Y-91202000D01*
X82514400Y-95709900D02*
X82514400Y-92237600D01*
X85773100Y-100625100D02*
X84000000Y-98852000D01*
X86850000Y-100625100D02*
X85773100Y-100625100D01*
X108167700Y-102184300D02*
X109260000Y-101092000D01*
X108167700Y-106053200D02*
X108167700Y-102184300D01*
X108259700Y-106145200D02*
X108167700Y-106053200D01*
X106212000Y-98044000D02*
X106212000Y-96774000D01*
X109260000Y-101092000D02*
X106212000Y-98044000D01*
X86850000Y-101213500D02*
X86850000Y-100625100D01*
X86850000Y-101213500D02*
X86850000Y-101802000D01*
X76037500Y-95920500D02*
X77216000Y-94742000D01*
X76037500Y-102850500D02*
X76037500Y-95920500D01*
X76819000Y-103632000D02*
X76037500Y-102850500D01*
X77819700Y-103632000D02*
X76819000Y-103632000D01*
X82495000Y-108307300D02*
X77819700Y-103632000D01*
X83129000Y-108307300D02*
X82495000Y-108307300D01*
X86850000Y-104586300D02*
X83129000Y-108307300D01*
X86850000Y-101802000D02*
X86850000Y-104586300D01*
X110471600Y-102303600D02*
X109260000Y-101092000D01*
X110471600Y-105643200D02*
X110471600Y-102303600D01*
X97750800Y-118364000D02*
X110471600Y-105643200D01*
X89916000Y-118364000D02*
X97750800Y-118364000D01*
X106212000Y-93372000D02*
X109400700Y-90183300D01*
X106212000Y-96774000D02*
X106212000Y-93372000D01*
X78392900Y-86614000D02*
X87122000Y-77884900D01*
X78392900Y-90657400D02*
X78392900Y-86614000D01*
X78025200Y-91025100D02*
X78392900Y-90657400D01*
X77216000Y-91025100D02*
X78025200Y-91025100D01*
X77216000Y-92202000D02*
X77216000Y-91025100D01*
X87122000Y-76708000D02*
X87122000Y-77884900D01*
X156956900Y-86868000D02*
X156828900Y-86740000D01*
X164994000Y-86868000D02*
X156956900Y-86868000D01*
X156265500Y-86740000D02*
X155942800Y-86740000D01*
X155702000Y-86740000D02*
X155942800Y-86740000D01*
X156265500Y-86740000D02*
X156828900Y-86740000D01*
X147210000Y-88198000D02*
X146032000Y-87020000D01*
X154484800Y-88198000D02*
X147210000Y-88198000D01*
X155942800Y-86740000D02*
X154484800Y-88198000D01*
X100430900Y-99350800D02*
X100430900Y-96774000D01*
X108004600Y-106924500D02*
X100430900Y-99350800D01*
X108545600Y-106924500D02*
X108004600Y-106924500D01*
X109300000Y-106170100D02*
X108545600Y-106924500D01*
X109300000Y-104394000D02*
X109300000Y-106170100D01*
X114267700Y-78628600D02*
X114267700Y-79755500D01*
X133252000Y-96092000D02*
X133282000Y-96062000D01*
X133252000Y-99212000D02*
X133252000Y-96092000D01*
X132126600Y-91017400D02*
X133282000Y-89862000D01*
X132126600Y-94906600D02*
X132126600Y-91017400D01*
X133282000Y-96062000D02*
X132126600Y-94906600D01*
X133282000Y-89862000D02*
X133282000Y-86712000D01*
X127086200Y-92574000D02*
X114267700Y-79755500D01*
X127086200Y-98631100D02*
X127086200Y-92574000D01*
X129039100Y-100584000D02*
X127086200Y-98631100D01*
X130048000Y-100584000D02*
X129039100Y-100584000D01*
X89662000Y-70358000D02*
X89662000Y-76708000D01*
X89662000Y-81990000D02*
X83550000Y-88102000D01*
X89662000Y-76708000D02*
X89662000Y-81990000D01*
X157943800Y-84328000D02*
X157028900Y-83413100D01*
X164994000Y-84328000D02*
X157943800Y-84328000D01*
X157028900Y-73026900D02*
X157028900Y-83413100D01*
X155702000Y-71700000D02*
X157028900Y-73026900D01*
X157028900Y-83413100D02*
X155702000Y-84740000D01*
X153312000Y-84740000D02*
X155702000Y-84740000D01*
X151032000Y-87020000D02*
X153312000Y-84740000D01*
X93650000Y-100002000D02*
X93650000Y-95552000D01*
X92600000Y-101052000D02*
X93650000Y-100002000D01*
X130048000Y-97536000D02*
X130048000Y-96409100D01*
X166399900Y-84328000D02*
X164994000Y-84328000D01*
X167269700Y-85197800D02*
X166399900Y-84328000D01*
X167269700Y-86731200D02*
X167269700Y-85197800D01*
X164871400Y-89129500D02*
X167269700Y-86731200D01*
X162795400Y-89129500D02*
X164871400Y-89129500D01*
X162052000Y-89872900D02*
X162795400Y-89129500D01*
X162052000Y-118364000D02*
X162052000Y-89872900D01*
X102430900Y-96648600D02*
X102430900Y-96774000D01*
X101429400Y-95647100D02*
X102430900Y-96648600D01*
X99495500Y-95647100D02*
X101429400Y-95647100D01*
X99304000Y-95838600D02*
X99495500Y-95647100D01*
X99304000Y-98751100D02*
X99304000Y-95838600D01*
X93730000Y-104325100D02*
X99304000Y-98751100D01*
X93730000Y-105452000D02*
X93730000Y-104325100D01*
X114260000Y-101092000D02*
X109942000Y-96774000D01*
X109942000Y-96774000D02*
X108212000Y-96774000D01*
X110148000Y-96568000D02*
X109942000Y-96774000D01*
X110148000Y-89847300D02*
X110148000Y-96568000D01*
X105153900Y-84853200D02*
X110148000Y-89847300D01*
X104102800Y-84853200D02*
X105153900Y-84853200D01*
X131674700Y-94782400D02*
X130048000Y-96409100D01*
X131674700Y-73749300D02*
X131674700Y-94782400D01*
X133506000Y-71918000D02*
X131674700Y-73749300D01*
G04 #@! TA.AperFunction,Conductor*
G36*
X96902851Y-85347185D02*
G01*
X96923493Y-85363819D01*
X101711285Y-90151611D01*
X101744770Y-90212934D01*
X101739786Y-90282626D01*
X101697914Y-90338559D01*
X101671057Y-90353853D01*
X101594260Y-90385663D01*
X101468818Y-90481918D01*
X101372563Y-90607360D01*
X101312056Y-90753437D01*
X101312055Y-90753439D01*
X101291418Y-90910198D01*
X101291418Y-90910201D01*
X101300346Y-90978018D01*
X101289580Y-91047053D01*
X101265088Y-91081884D01*
X94771703Y-97575270D01*
X94767714Y-97578925D01*
X94736705Y-97604945D01*
X94716462Y-97640006D01*
X94713556Y-97644566D01*
X94690346Y-97677713D01*
X94688106Y-97682517D01*
X94681129Y-97699361D01*
X94679310Y-97704359D01*
X94672283Y-97744211D01*
X94671112Y-97749491D01*
X94660635Y-97788591D01*
X94664164Y-97828913D01*
X94664400Y-97834320D01*
X94664400Y-101372811D01*
X94644715Y-101439850D01*
X94628081Y-101460492D01*
X78476245Y-117612327D01*
X78414922Y-117645812D01*
X78345230Y-117640828D01*
X78289297Y-117598956D01*
X78265161Y-117536800D01*
X78251300Y-117396067D01*
X78239883Y-117358430D01*
X78191232Y-117198046D01*
X78093685Y-117015550D01*
X77962410Y-116855590D01*
X77948591Y-116844249D01*
X77876604Y-116785170D01*
X77837270Y-116727424D01*
X77835399Y-116657580D01*
X77867586Y-116601638D01*
X88308804Y-106160420D01*
X88312766Y-106156789D01*
X88343794Y-106130755D01*
X88364038Y-106095690D01*
X88366935Y-106091141D01*
X88390154Y-106057984D01*
X88390154Y-106057981D01*
X88392419Y-106053124D01*
X88399347Y-106036399D01*
X88401184Y-106031350D01*
X88401188Y-106031345D01*
X88408219Y-105991462D01*
X88409377Y-105986240D01*
X88419864Y-105947107D01*
X88416335Y-105906781D01*
X88416100Y-105901378D01*
X88416100Y-101871752D01*
X89599500Y-101871752D01*
X89611131Y-101930229D01*
X89611132Y-101930230D01*
X89655447Y-101996552D01*
X89721769Y-102040867D01*
X89721770Y-102040868D01*
X89780247Y-102052499D01*
X89780250Y-102052500D01*
X89780252Y-102052500D01*
X91419750Y-102052500D01*
X91419751Y-102052499D01*
X91435247Y-102049417D01*
X91478229Y-102040868D01*
X91478229Y-102040867D01*
X91478231Y-102040867D01*
X91544552Y-101996552D01*
X91588867Y-101930231D01*
X91588867Y-101930229D01*
X91588868Y-101930229D01*
X91600499Y-101871752D01*
X91600500Y-101871750D01*
X91600500Y-101749308D01*
X91620185Y-101682269D01*
X91636819Y-101661627D01*
X92202046Y-101096399D01*
X92214835Y-101177148D01*
X92272359Y-101290045D01*
X92361955Y-101379641D01*
X92474852Y-101437165D01*
X92555599Y-101449953D01*
X91874526Y-102131025D01*
X91874526Y-102131026D01*
X91947512Y-102182131D01*
X91947516Y-102182133D01*
X92153673Y-102278265D01*
X92153682Y-102278269D01*
X92373389Y-102337139D01*
X92373400Y-102337141D01*
X92599998Y-102356966D01*
X92600002Y-102356966D01*
X92826599Y-102337141D01*
X92826610Y-102337139D01*
X93046317Y-102278269D01*
X93046331Y-102278264D01*
X93252478Y-102182136D01*
X93325472Y-102131025D01*
X92644401Y-101449953D01*
X92725148Y-101437165D01*
X92838045Y-101379641D01*
X92927641Y-101290045D01*
X92985165Y-101177148D01*
X92997953Y-101096400D01*
X93679025Y-101777472D01*
X93730136Y-101704478D01*
X93826264Y-101498331D01*
X93826269Y-101498317D01*
X93885139Y-101278610D01*
X93885141Y-101278599D01*
X93904966Y-101052002D01*
X93904966Y-101051997D01*
X93885141Y-100825400D01*
X93885139Y-100825389D01*
X93826269Y-100605682D01*
X93826265Y-100605673D01*
X93730133Y-100399516D01*
X93730131Y-100399512D01*
X93679026Y-100326526D01*
X93679025Y-100326526D01*
X92997953Y-101007598D01*
X92985165Y-100926852D01*
X92927641Y-100813955D01*
X92838045Y-100724359D01*
X92725148Y-100666835D01*
X92644400Y-100654046D01*
X93325472Y-99972974D01*
X93325471Y-99972973D01*
X93252483Y-99921866D01*
X93252481Y-99921865D01*
X93046326Y-99825734D01*
X93046317Y-99825730D01*
X92826610Y-99766860D01*
X92826599Y-99766858D01*
X92600002Y-99747034D01*
X92599998Y-99747034D01*
X92373400Y-99766858D01*
X92373389Y-99766860D01*
X92153682Y-99825730D01*
X92153673Y-99825734D01*
X91947513Y-99921868D01*
X91874527Y-99972972D01*
X91874526Y-99972973D01*
X92555600Y-100654046D01*
X92474852Y-100666835D01*
X92361955Y-100724359D01*
X92272359Y-100813955D01*
X92214835Y-100926852D01*
X92202046Y-101007599D01*
X91636819Y-100442372D01*
X91603334Y-100381049D01*
X91600500Y-100354691D01*
X91600500Y-100232249D01*
X91600499Y-100232247D01*
X91588868Y-100173770D01*
X91588867Y-100173769D01*
X91544552Y-100107447D01*
X91478230Y-100063132D01*
X91478229Y-100063131D01*
X91419752Y-100051500D01*
X91419748Y-100051500D01*
X89780252Y-100051500D01*
X89780247Y-100051500D01*
X89721770Y-100063131D01*
X89721769Y-100063132D01*
X89655447Y-100107447D01*
X89611132Y-100173769D01*
X89611131Y-100173770D01*
X89599500Y-100232247D01*
X89599500Y-101871752D01*
X88416100Y-101871752D01*
X88416100Y-96949587D01*
X88435785Y-96882548D01*
X88452414Y-96861911D01*
X90437819Y-94876505D01*
X90499142Y-94843021D01*
X90568834Y-94848005D01*
X90624767Y-94889877D01*
X90649184Y-94955341D01*
X90649500Y-94964187D01*
X90649500Y-96371752D01*
X90661131Y-96430229D01*
X90661132Y-96430230D01*
X90705447Y-96496552D01*
X90771769Y-96540867D01*
X90771770Y-96540868D01*
X90830247Y-96552499D01*
X90830250Y-96552500D01*
X90830252Y-96552500D01*
X92469750Y-96552500D01*
X92469751Y-96552499D01*
X92484568Y-96549552D01*
X92528229Y-96540868D01*
X92528229Y-96540867D01*
X92528231Y-96540867D01*
X92594552Y-96496552D01*
X92638867Y-96430231D01*
X92638867Y-96430229D01*
X92638868Y-96430229D01*
X92650499Y-96371752D01*
X92650500Y-96371750D01*
X92650500Y-96249308D01*
X92670185Y-96182269D01*
X92686819Y-96161627D01*
X93252046Y-95596399D01*
X93264835Y-95677148D01*
X93322359Y-95790045D01*
X93411955Y-95879641D01*
X93524852Y-95937165D01*
X93605599Y-95949953D01*
X92924526Y-96631025D01*
X92924526Y-96631026D01*
X92997512Y-96682131D01*
X92997516Y-96682133D01*
X93203673Y-96778265D01*
X93203682Y-96778269D01*
X93423389Y-96837139D01*
X93423400Y-96837141D01*
X93649998Y-96856966D01*
X93650002Y-96856966D01*
X93876599Y-96837141D01*
X93876610Y-96837139D01*
X94096317Y-96778269D01*
X94096331Y-96778264D01*
X94302478Y-96682136D01*
X94375472Y-96631025D01*
X93694401Y-95949953D01*
X93775148Y-95937165D01*
X93888045Y-95879641D01*
X93977641Y-95790045D01*
X94035165Y-95677148D01*
X94047953Y-95596400D01*
X94729025Y-96277472D01*
X94780136Y-96204478D01*
X94876264Y-95998331D01*
X94876269Y-95998317D01*
X94935139Y-95778610D01*
X94935141Y-95778599D01*
X94954966Y-95552002D01*
X94954966Y-95551997D01*
X94935141Y-95325400D01*
X94935139Y-95325389D01*
X94876269Y-95105682D01*
X94876265Y-95105673D01*
X94780133Y-94899516D01*
X94780131Y-94899512D01*
X94729026Y-94826526D01*
X94729025Y-94826526D01*
X94047953Y-95507598D01*
X94035165Y-95426852D01*
X93977641Y-95313955D01*
X93888045Y-95224359D01*
X93775148Y-95166835D01*
X93694400Y-95154046D01*
X94375472Y-94472974D01*
X94375471Y-94472973D01*
X94302483Y-94421866D01*
X94302481Y-94421865D01*
X94096326Y-94325734D01*
X94096317Y-94325730D01*
X93876610Y-94266860D01*
X93876599Y-94266858D01*
X93650002Y-94247034D01*
X93649998Y-94247034D01*
X93423400Y-94266858D01*
X93423389Y-94266860D01*
X93203682Y-94325730D01*
X93203673Y-94325734D01*
X92997513Y-94421868D01*
X92924527Y-94472972D01*
X92924526Y-94472973D01*
X93605600Y-95154046D01*
X93524852Y-95166835D01*
X93411955Y-95224359D01*
X93322359Y-95313955D01*
X93264835Y-95426852D01*
X93252046Y-95507599D01*
X92686819Y-94942372D01*
X92653334Y-94881049D01*
X92650500Y-94854691D01*
X92650500Y-94732249D01*
X92650499Y-94732247D01*
X92638868Y-94673770D01*
X92638867Y-94673769D01*
X92594552Y-94607447D01*
X92528230Y-94563132D01*
X92528229Y-94563131D01*
X92469752Y-94551500D01*
X92469748Y-94551500D01*
X91062187Y-94551500D01*
X90995148Y-94531815D01*
X90949393Y-94479011D01*
X90939449Y-94409853D01*
X90968474Y-94346297D01*
X90974506Y-94339819D01*
X91641442Y-93672883D01*
X92349015Y-92965309D01*
X92410336Y-92931826D01*
X92452880Y-92930053D01*
X92520699Y-92938982D01*
X92520700Y-92938982D01*
X92520701Y-92938982D01*
X92572954Y-92932102D01*
X92677462Y-92918344D01*
X92823541Y-92857836D01*
X92948982Y-92761582D01*
X93045236Y-92636141D01*
X93105744Y-92490062D01*
X93122663Y-92361548D01*
X93126382Y-92333301D01*
X93126382Y-92333300D01*
X93126193Y-92331867D01*
X93114160Y-92240468D01*
X93124925Y-92171437D01*
X93171305Y-92119181D01*
X93238573Y-92100295D01*
X93295551Y-92114927D01*
X93325273Y-92130814D01*
X93513868Y-92188024D01*
X93710000Y-92207341D01*
X93906132Y-92188024D01*
X94094727Y-92130814D01*
X94100999Y-92127462D01*
X94226825Y-92060206D01*
X94268538Y-92037910D01*
X94420883Y-91912883D01*
X94545910Y-91760538D01*
X94623408Y-91615550D01*
X94638811Y-91586733D01*
X94638811Y-91586732D01*
X94638814Y-91586727D01*
X94696024Y-91398132D01*
X94715341Y-91202000D01*
X94696024Y-91005868D01*
X94638814Y-90817273D01*
X94638811Y-90817269D01*
X94638811Y-90817266D01*
X94545913Y-90643467D01*
X94545909Y-90643460D01*
X94420883Y-90491116D01*
X94268539Y-90366090D01*
X94268532Y-90366085D01*
X94101047Y-90276563D01*
X94051202Y-90227601D01*
X94035500Y-90167205D01*
X94035500Y-89136794D01*
X94055185Y-89069755D01*
X94101047Y-89027436D01*
X94268532Y-88937913D01*
X94268538Y-88937910D01*
X94420883Y-88812883D01*
X94545910Y-88660538D01*
X94619032Y-88523736D01*
X94638811Y-88486733D01*
X94638811Y-88486732D01*
X94638814Y-88486727D01*
X94696024Y-88298132D01*
X94715341Y-88102000D01*
X94696024Y-87905868D01*
X94638814Y-87717273D01*
X94638811Y-87717269D01*
X94638811Y-87717266D01*
X94545913Y-87543467D01*
X94545909Y-87543460D01*
X94420883Y-87391116D01*
X94268539Y-87266090D01*
X94268532Y-87266085D01*
X94101047Y-87176563D01*
X94051202Y-87127601D01*
X94035500Y-87067205D01*
X94035500Y-86992012D01*
X94035736Y-86986606D01*
X94037026Y-86971868D01*
X94039263Y-86946293D01*
X94039262Y-86946292D01*
X94039263Y-86946291D01*
X94030410Y-86913256D01*
X94028784Y-86907187D01*
X94027618Y-86901930D01*
X94020588Y-86862055D01*
X94020587Y-86862053D01*
X94018760Y-86857033D01*
X94011820Y-86840276D01*
X94009554Y-86835419D01*
X94009554Y-86835416D01*
X93986337Y-86802259D01*
X93983435Y-86797705D01*
X93963194Y-86762645D01*
X93932182Y-86736622D01*
X93928210Y-86732983D01*
X93389331Y-86194104D01*
X93355846Y-86132781D01*
X93360830Y-86063089D01*
X93402702Y-86007156D01*
X93468166Y-85982739D01*
X93507823Y-85987183D01*
X93507893Y-85986836D01*
X93511978Y-85987648D01*
X93513012Y-85987764D01*
X93513868Y-85988024D01*
X93710000Y-86007341D01*
X93906132Y-85988024D01*
X94094727Y-85930814D01*
X94114497Y-85920247D01*
X94256540Y-85844323D01*
X94268538Y-85837910D01*
X94420883Y-85712883D01*
X94545910Y-85560538D01*
X94545910Y-85560536D01*
X94545914Y-85560532D01*
X94635437Y-85393047D01*
X94684399Y-85343202D01*
X94744795Y-85327500D01*
X96835812Y-85327500D01*
X96902851Y-85347185D01*
G37*
G04 #@! TD.AperFunction*
G04 #@! TA.AperFunction,Conductor*
G36*
X102923738Y-84051685D02*
G01*
X102969493Y-84104489D01*
X102979437Y-84173647D01*
X102969081Y-84208405D01*
X102876534Y-84406873D01*
X102876530Y-84406882D01*
X102817660Y-84626589D01*
X102817658Y-84626600D01*
X102797834Y-84853197D01*
X102797834Y-84853202D01*
X102817658Y-85079799D01*
X102817660Y-85079810D01*
X102876530Y-85299517D01*
X102876534Y-85299526D01*
X102972665Y-85505681D01*
X102972666Y-85505683D01*
X103023773Y-85578671D01*
X103023773Y-85578672D01*
X103704845Y-84897599D01*
X103717635Y-84978348D01*
X103775159Y-85091245D01*
X103864755Y-85180841D01*
X103977652Y-85238365D01*
X104058399Y-85251153D01*
X103377326Y-85932225D01*
X103377326Y-85932226D01*
X103450312Y-85983331D01*
X103450316Y-85983333D01*
X103656473Y-86079465D01*
X103656482Y-86079469D01*
X103876189Y-86138339D01*
X103876200Y-86138341D01*
X104102798Y-86158166D01*
X104102802Y-86158166D01*
X104329399Y-86138341D01*
X104329410Y-86138339D01*
X104549117Y-86079469D01*
X104549131Y-86079464D01*
X104755278Y-85983336D01*
X104828272Y-85932225D01*
X104147201Y-85251153D01*
X104227948Y-85238365D01*
X104340845Y-85180841D01*
X104430441Y-85091245D01*
X104487965Y-84978348D01*
X104500753Y-84897600D01*
X105181825Y-85578672D01*
X105232936Y-85505678D01*
X105329064Y-85299531D01*
X105329069Y-85299517D01*
X105370737Y-85144007D01*
X105407101Y-85084347D01*
X105469948Y-85053817D01*
X105539324Y-85062111D01*
X105578193Y-85088419D01*
X115949781Y-95460007D01*
X115983266Y-95521330D01*
X115986100Y-95547688D01*
X115986100Y-99882378D01*
X115985864Y-99887785D01*
X115982335Y-99928108D01*
X115992812Y-99967210D01*
X115993983Y-99972490D01*
X116001011Y-100012343D01*
X116002835Y-100017355D01*
X116009797Y-100034161D01*
X116012045Y-100038981D01*
X116012046Y-100038984D01*
X116018296Y-100047910D01*
X116035255Y-100072131D01*
X116038161Y-100076692D01*
X116058406Y-100111755D01*
X116089415Y-100137775D01*
X116093405Y-100141431D01*
X117424393Y-101472419D01*
X117457878Y-101533742D01*
X117452894Y-101603434D01*
X117411022Y-101659367D01*
X117345558Y-101683784D01*
X117336712Y-101684100D01*
X116661322Y-101684100D01*
X116655918Y-101683864D01*
X116650507Y-101683390D01*
X116615592Y-101680335D01*
X116615591Y-101680335D01*
X116576491Y-101690812D01*
X116571211Y-101691983D01*
X116531359Y-101699010D01*
X116526361Y-101700829D01*
X116509517Y-101707806D01*
X116504713Y-101710046D01*
X116471566Y-101733256D01*
X116467006Y-101736162D01*
X116437035Y-101753467D01*
X116431945Y-101756406D01*
X116431943Y-101756408D01*
X116431941Y-101756410D01*
X116405924Y-101787415D01*
X116402268Y-101791404D01*
X116102526Y-102091148D01*
X115832493Y-102361181D01*
X115771170Y-102394666D01*
X115744812Y-102397500D01*
X115055312Y-102397500D01*
X114988273Y-102377815D01*
X114942518Y-102325011D01*
X114932574Y-102255853D01*
X114961599Y-102192297D01*
X114984188Y-102171926D01*
X114985472Y-102171026D01*
X114985472Y-102171025D01*
X114304401Y-101489953D01*
X114385148Y-101477165D01*
X114498045Y-101419641D01*
X114587641Y-101330045D01*
X114645165Y-101217148D01*
X114657953Y-101136400D01*
X115339025Y-101817472D01*
X115390136Y-101744478D01*
X115486264Y-101538331D01*
X115486269Y-101538317D01*
X115545139Y-101318610D01*
X115545141Y-101318599D01*
X115564966Y-101092002D01*
X115564966Y-101091997D01*
X115545141Y-100865400D01*
X115545139Y-100865389D01*
X115486269Y-100645682D01*
X115486265Y-100645673D01*
X115390133Y-100439516D01*
X115390131Y-100439512D01*
X115339026Y-100366526D01*
X115339025Y-100366526D01*
X114657953Y-101047598D01*
X114645165Y-100966852D01*
X114587641Y-100853955D01*
X114498045Y-100764359D01*
X114385148Y-100706835D01*
X114304400Y-100694046D01*
X114985472Y-100012974D01*
X114985471Y-100012973D01*
X114912483Y-99961866D01*
X114912481Y-99961865D01*
X114706326Y-99865734D01*
X114706317Y-99865730D01*
X114486610Y-99806860D01*
X114486599Y-99806858D01*
X114260002Y-99787034D01*
X114259998Y-99787034D01*
X114033400Y-99806858D01*
X114033389Y-99806860D01*
X113813682Y-99865730D01*
X113813673Y-99865734D01*
X113607513Y-99961868D01*
X113534527Y-100012972D01*
X113534526Y-100012973D01*
X114215600Y-100694046D01*
X114134852Y-100706835D01*
X114021955Y-100764359D01*
X113932359Y-100853955D01*
X113874835Y-100966852D01*
X113862046Y-101047599D01*
X113180973Y-100366526D01*
X113180972Y-100366527D01*
X113129868Y-100439513D01*
X113033734Y-100645673D01*
X113033730Y-100645682D01*
X112974860Y-100865389D01*
X112974858Y-100865400D01*
X112955034Y-101091997D01*
X112955034Y-101092002D01*
X112974858Y-101318599D01*
X112974860Y-101318610D01*
X113033730Y-101538317D01*
X113033734Y-101538326D01*
X113129865Y-101744481D01*
X113129866Y-101744483D01*
X113180973Y-101817471D01*
X113180974Y-101817472D01*
X113862046Y-101136399D01*
X113874835Y-101217148D01*
X113932359Y-101330045D01*
X114021955Y-101419641D01*
X114134852Y-101477165D01*
X114215599Y-101489953D01*
X113534526Y-102171025D01*
X113534526Y-102171026D01*
X113607512Y-102222131D01*
X113607516Y-102222133D01*
X113813673Y-102318265D01*
X113813682Y-102318269D01*
X113883303Y-102336924D01*
X113942964Y-102373289D01*
X113973493Y-102436136D01*
X113965198Y-102505511D01*
X113938891Y-102544380D01*
X111008781Y-105474491D01*
X110947458Y-105507976D01*
X110877766Y-105502992D01*
X110821833Y-105461120D01*
X110797416Y-105395656D01*
X110797100Y-105386810D01*
X110797100Y-102320512D01*
X110797336Y-102315106D01*
X110800863Y-102274791D01*
X110790385Y-102235690D01*
X110789218Y-102230430D01*
X110782188Y-102190555D01*
X110782187Y-102190553D01*
X110780360Y-102185533D01*
X110773420Y-102168776D01*
X110771154Y-102163919D01*
X110771154Y-102163916D01*
X110747939Y-102130762D01*
X110745033Y-102126199D01*
X110724796Y-102091148D01*
X110724795Y-102091147D01*
X110724794Y-102091145D01*
X110693777Y-102065118D01*
X110689793Y-102061467D01*
X110221873Y-101593547D01*
X110188388Y-101532224D01*
X110190894Y-101469870D01*
X110196315Y-101452000D01*
X110246024Y-101288132D01*
X110265341Y-101092000D01*
X110246024Y-100895868D01*
X110188814Y-100707273D01*
X110188811Y-100707269D01*
X110188811Y-100707266D01*
X110095913Y-100533467D01*
X110095909Y-100533460D01*
X109970883Y-100381116D01*
X109818539Y-100256090D01*
X109818532Y-100256086D01*
X109644733Y-100163188D01*
X109644727Y-100163186D01*
X109456132Y-100105976D01*
X109456129Y-100105975D01*
X109260000Y-100086659D01*
X109063869Y-100105975D01*
X108882128Y-100161106D01*
X108812261Y-100161729D01*
X108758452Y-100130126D01*
X106614507Y-97986181D01*
X106581022Y-97924858D01*
X106586006Y-97855166D01*
X106627878Y-97799233D01*
X106693342Y-97774816D01*
X106702188Y-97774500D01*
X107031750Y-97774500D01*
X107031751Y-97774499D01*
X107046568Y-97771552D01*
X107090229Y-97762868D01*
X107090229Y-97762867D01*
X107090231Y-97762867D01*
X107156552Y-97718552D01*
X107200867Y-97652231D01*
X107200867Y-97652229D01*
X107200868Y-97652229D01*
X107212499Y-97593752D01*
X107212500Y-97593750D01*
X107212500Y-97471308D01*
X107232185Y-97404269D01*
X107248819Y-97383627D01*
X107814046Y-96818399D01*
X107826835Y-96899148D01*
X107884359Y-97012045D01*
X107973955Y-97101641D01*
X108086852Y-97159165D01*
X108167599Y-97171953D01*
X107486526Y-97853025D01*
X107486526Y-97853026D01*
X107559512Y-97904131D01*
X107559516Y-97904133D01*
X107765673Y-98000265D01*
X107765682Y-98000269D01*
X107985389Y-98059139D01*
X107985400Y-98059141D01*
X108211998Y-98078966D01*
X108212002Y-98078966D01*
X108438599Y-98059141D01*
X108438610Y-98059139D01*
X108658317Y-98000269D01*
X108658331Y-98000264D01*
X108864478Y-97904136D01*
X108937472Y-97853025D01*
X108256401Y-97171953D01*
X108337148Y-97159165D01*
X108450045Y-97101641D01*
X108539641Y-97012045D01*
X108597165Y-96899148D01*
X108609953Y-96818400D01*
X109291025Y-97499472D01*
X109342136Y-97426478D01*
X109438264Y-97220331D01*
X109438269Y-97220317D01*
X109497139Y-97000610D01*
X109497141Y-97000599D01*
X109516966Y-96774002D01*
X109516966Y-96773997D01*
X109497141Y-96547400D01*
X109497139Y-96547389D01*
X109438269Y-96327682D01*
X109438265Y-96327673D01*
X109342133Y-96121516D01*
X109342131Y-96121512D01*
X109291026Y-96048526D01*
X109291025Y-96048526D01*
X108609953Y-96729598D01*
X108597165Y-96648852D01*
X108539641Y-96535955D01*
X108450045Y-96446359D01*
X108337148Y-96388835D01*
X108256400Y-96376046D01*
X108937472Y-95694974D01*
X108937471Y-95694973D01*
X108864483Y-95643866D01*
X108864481Y-95643865D01*
X108658326Y-95547734D01*
X108658317Y-95547730D01*
X108438610Y-95488860D01*
X108438599Y-95488858D01*
X108212002Y-95469034D01*
X108211998Y-95469034D01*
X107985400Y-95488858D01*
X107985389Y-95488860D01*
X107765682Y-95547730D01*
X107765673Y-95547734D01*
X107559513Y-95643868D01*
X107486527Y-95694972D01*
X107486526Y-95694973D01*
X108167600Y-96376046D01*
X108086852Y-96388835D01*
X107973955Y-96446359D01*
X107884359Y-96535955D01*
X107826835Y-96648852D01*
X107814046Y-96729599D01*
X107248819Y-96164372D01*
X107215334Y-96103049D01*
X107212500Y-96076691D01*
X107212500Y-95954249D01*
X107212499Y-95954247D01*
X107200868Y-95895770D01*
X107200867Y-95895769D01*
X107156552Y-95829447D01*
X107090230Y-95785132D01*
X107090229Y-95785131D01*
X107031752Y-95773500D01*
X107031748Y-95773500D01*
X106661500Y-95773500D01*
X106594461Y-95753815D01*
X106548706Y-95701011D01*
X106537500Y-95649500D01*
X106537500Y-93558187D01*
X106557185Y-93491148D01*
X106573814Y-93470511D01*
X109229015Y-90815309D01*
X109290336Y-90781826D01*
X109332880Y-90780053D01*
X109400699Y-90788982D01*
X109400700Y-90788982D01*
X109400701Y-90788982D01*
X109452954Y-90782102D01*
X109557462Y-90768344D01*
X109703541Y-90707836D01*
X109828982Y-90611582D01*
X109925236Y-90486141D01*
X109985744Y-90340062D01*
X110006382Y-90183300D01*
X109985744Y-90026538D01*
X109925236Y-89880459D01*
X109828982Y-89755018D01*
X109703541Y-89658764D01*
X109557462Y-89598256D01*
X109557460Y-89598255D01*
X109400701Y-89577618D01*
X109400699Y-89577618D01*
X109243939Y-89598255D01*
X109243937Y-89598256D01*
X109097860Y-89658763D01*
X108972418Y-89755018D01*
X108876163Y-89880460D01*
X108815656Y-90026537D01*
X108815655Y-90026539D01*
X108795018Y-90183298D01*
X108795018Y-90183301D01*
X108803946Y-90251118D01*
X108793180Y-90320153D01*
X108768688Y-90354984D01*
X105993803Y-93129870D01*
X105989814Y-93133525D01*
X105958805Y-93159545D01*
X105938562Y-93194606D01*
X105935656Y-93199166D01*
X105912446Y-93232313D01*
X105910206Y-93237117D01*
X105903229Y-93253961D01*
X105901410Y-93258959D01*
X105894383Y-93298811D01*
X105893212Y-93304091D01*
X105882735Y-93343191D01*
X105886264Y-93383513D01*
X105886500Y-93388920D01*
X105886500Y-95649500D01*
X105866815Y-95716539D01*
X105814011Y-95762294D01*
X105762500Y-95773500D01*
X105392247Y-95773500D01*
X105333770Y-95785131D01*
X105333769Y-95785132D01*
X105267447Y-95829447D01*
X105223132Y-95895769D01*
X105223131Y-95895770D01*
X105211500Y-95954247D01*
X105211500Y-97593752D01*
X105223131Y-97652229D01*
X105223132Y-97652230D01*
X105267447Y-97718552D01*
X105333769Y-97762867D01*
X105333770Y-97762868D01*
X105392247Y-97774499D01*
X105392250Y-97774500D01*
X105392252Y-97774500D01*
X105762500Y-97774500D01*
X105829539Y-97794185D01*
X105875294Y-97846989D01*
X105886500Y-97898500D01*
X105886500Y-98027078D01*
X105886264Y-98032485D01*
X105882735Y-98072808D01*
X105893212Y-98111910D01*
X105894383Y-98117190D01*
X105901411Y-98157043D01*
X105903235Y-98162055D01*
X105910197Y-98178861D01*
X105912445Y-98183681D01*
X105912446Y-98183684D01*
X105915806Y-98188482D01*
X105935655Y-98216831D01*
X105938561Y-98221392D01*
X105958806Y-98256455D01*
X105989815Y-98282475D01*
X105993805Y-98286131D01*
X108298126Y-100590452D01*
X108331611Y-100651775D01*
X108329106Y-100714128D01*
X108273975Y-100895869D01*
X108254659Y-101092000D01*
X108273975Y-101288130D01*
X108329106Y-101469870D01*
X108329729Y-101539736D01*
X108298126Y-101593546D01*
X107949503Y-101942170D01*
X107945514Y-101945825D01*
X107914505Y-101971845D01*
X107894262Y-102006906D01*
X107891356Y-102011466D01*
X107868146Y-102044613D01*
X107865906Y-102049417D01*
X107858929Y-102066261D01*
X107857110Y-102071259D01*
X107850083Y-102111111D01*
X107848912Y-102116391D01*
X107838435Y-102155491D01*
X107841964Y-102195813D01*
X107842200Y-102201220D01*
X107842200Y-105660774D01*
X107822515Y-105727813D01*
X107816576Y-105736260D01*
X107735165Y-105842357D01*
X107735164Y-105842358D01*
X107735164Y-105842359D01*
X107731677Y-105850778D01*
X107702972Y-105920076D01*
X107659130Y-105974479D01*
X107592836Y-105996543D01*
X107525136Y-105979263D01*
X107500730Y-105960303D01*
X100792719Y-99252292D01*
X100759234Y-99190969D01*
X100756400Y-99164611D01*
X100756400Y-97898500D01*
X100776085Y-97831461D01*
X100828889Y-97785706D01*
X100880400Y-97774500D01*
X101250650Y-97774500D01*
X101250651Y-97774499D01*
X101265468Y-97771552D01*
X101309129Y-97762868D01*
X101309129Y-97762867D01*
X101309131Y-97762867D01*
X101375452Y-97718552D01*
X101419767Y-97652231D01*
X101419767Y-97652229D01*
X101419768Y-97652229D01*
X101431399Y-97593752D01*
X101431400Y-97593750D01*
X101431400Y-97471308D01*
X101451085Y-97404269D01*
X101467719Y-97383627D01*
X102032946Y-96818399D01*
X102045735Y-96899148D01*
X102103259Y-97012045D01*
X102192855Y-97101641D01*
X102305752Y-97159165D01*
X102386499Y-97171953D01*
X101705426Y-97853025D01*
X101705426Y-97853026D01*
X101778412Y-97904131D01*
X101778416Y-97904133D01*
X101984573Y-98000265D01*
X101984582Y-98000269D01*
X102204289Y-98059139D01*
X102204300Y-98059141D01*
X102430898Y-98078966D01*
X102430902Y-98078966D01*
X102657499Y-98059141D01*
X102657510Y-98059139D01*
X102877217Y-98000269D01*
X102877231Y-98000264D01*
X103083378Y-97904136D01*
X103156372Y-97853025D01*
X102475301Y-97171953D01*
X102556048Y-97159165D01*
X102668945Y-97101641D01*
X102758541Y-97012045D01*
X102816065Y-96899148D01*
X102828853Y-96818400D01*
X103509925Y-97499472D01*
X103561036Y-97426478D01*
X103657164Y-97220331D01*
X103657169Y-97220317D01*
X103703825Y-97046195D01*
X103740190Y-96986534D01*
X103803037Y-96956005D01*
X103872412Y-96964300D01*
X103926290Y-97008785D01*
X103947565Y-97075337D01*
X103947600Y-97078288D01*
X103947600Y-100269699D01*
X103927915Y-100336738D01*
X103899088Y-100368074D01*
X103844820Y-100409715D01*
X103748563Y-100535160D01*
X103688056Y-100681237D01*
X103688055Y-100681239D01*
X103667418Y-100837998D01*
X103667418Y-100838001D01*
X103688055Y-100994760D01*
X103688056Y-100994762D01*
X103736161Y-101110899D01*
X103748564Y-101140841D01*
X103844818Y-101266282D01*
X103970259Y-101362536D01*
X104116338Y-101423044D01*
X104194719Y-101433363D01*
X104273099Y-101443682D01*
X104273100Y-101443682D01*
X104273101Y-101443682D01*
X104325354Y-101436802D01*
X104429862Y-101423044D01*
X104575941Y-101362536D01*
X104701382Y-101266282D01*
X104797636Y-101140841D01*
X104858144Y-100994762D01*
X104875615Y-100862058D01*
X104878782Y-100838001D01*
X104878782Y-100837998D01*
X104862117Y-100711417D01*
X104858144Y-100681238D01*
X104797636Y-100535159D01*
X104701382Y-100409718D01*
X104701380Y-100409716D01*
X104701379Y-100409715D01*
X104647112Y-100368074D01*
X104605910Y-100311646D01*
X104598600Y-100269699D01*
X104598600Y-92270020D01*
X104598836Y-92264613D01*
X104602364Y-92224293D01*
X104598475Y-92209780D01*
X104591882Y-92185176D01*
X104590716Y-92179918D01*
X104583688Y-92140055D01*
X104583686Y-92140052D01*
X104583686Y-92140050D01*
X104581860Y-92135033D01*
X104574920Y-92118276D01*
X104572654Y-92113419D01*
X104572654Y-92113416D01*
X104565162Y-92102717D01*
X104549440Y-92080263D01*
X104546533Y-92075699D01*
X104526296Y-92040648D01*
X104526295Y-92040647D01*
X104526294Y-92040645D01*
X104495277Y-92014618D01*
X104491293Y-92010967D01*
X100878918Y-88398592D01*
X97264119Y-84783793D01*
X97260474Y-84779814D01*
X97234456Y-84748807D01*
X97234455Y-84748806D01*
X97223058Y-84742226D01*
X97199392Y-84728561D01*
X97194831Y-84725655D01*
X97170817Y-84708841D01*
X97161684Y-84702446D01*
X97161681Y-84702445D01*
X97156861Y-84700197D01*
X97140055Y-84693235D01*
X97135043Y-84691411D01*
X97095190Y-84684383D01*
X97089910Y-84683212D01*
X97050808Y-84672735D01*
X97015892Y-84675790D01*
X97010481Y-84676264D01*
X97005078Y-84676500D01*
X94744795Y-84676500D01*
X94677756Y-84656815D01*
X94635437Y-84610953D01*
X94545914Y-84443467D01*
X94545909Y-84443460D01*
X94420883Y-84291116D01*
X94373041Y-84251853D01*
X94333707Y-84194107D01*
X94331836Y-84124262D01*
X94368024Y-84064494D01*
X94430780Y-84033778D01*
X94451706Y-84032000D01*
X102856699Y-84032000D01*
X102923738Y-84051685D01*
G37*
G04 #@! TD.AperFunction*
G04 #@! TA.AperFunction,Conductor*
G36*
X116515528Y-102701311D02*
G01*
X116571461Y-102743183D01*
X116595133Y-102801307D01*
X116613756Y-102942761D01*
X116613757Y-102942765D01*
X116676903Y-103095216D01*
X116684372Y-103164686D01*
X116653096Y-103227165D01*
X116650023Y-103230349D01*
X115764024Y-104116347D01*
X115702701Y-104149832D01*
X115633009Y-104144848D01*
X115577076Y-104102976D01*
X115556568Y-104060759D01*
X115526269Y-103947682D01*
X115526265Y-103947673D01*
X115430133Y-103741516D01*
X115430131Y-103741512D01*
X115379026Y-103668526D01*
X115379025Y-103668526D01*
X114697953Y-104349598D01*
X114685165Y-104268852D01*
X114627641Y-104155955D01*
X114538045Y-104066359D01*
X114425148Y-104008835D01*
X114344400Y-103996046D01*
X115025472Y-103314974D01*
X115025471Y-103314972D01*
X114967063Y-103274075D01*
X114923438Y-103219498D01*
X114916244Y-103150000D01*
X114947767Y-103087645D01*
X115007996Y-103052231D01*
X115038186Y-103048500D01*
X115914078Y-103048500D01*
X115919481Y-103048735D01*
X115959807Y-103052264D01*
X115998940Y-103041777D01*
X116004162Y-103040619D01*
X116044045Y-103033588D01*
X116044050Y-103033584D01*
X116049099Y-103031747D01*
X116065824Y-103024819D01*
X116070681Y-103022554D01*
X116070684Y-103022554D01*
X116103841Y-102999335D01*
X116108390Y-102996438D01*
X116143455Y-102976194D01*
X116169481Y-102945176D01*
X116173122Y-102941202D01*
X116384513Y-102729811D01*
X116445836Y-102696327D01*
X116515528Y-102701311D01*
G37*
G04 #@! TD.AperFunction*
G04 #@! TA.AperFunction,Conductor*
G36*
X83614835Y-93977148D02*
G01*
X83672359Y-94090045D01*
X83761955Y-94179641D01*
X83874852Y-94237165D01*
X83955599Y-94249953D01*
X83274526Y-94931025D01*
X83276658Y-94955397D01*
X83278746Y-94958009D01*
X83285941Y-95027507D01*
X83254421Y-95089862D01*
X83251681Y-95092691D01*
X83087517Y-95256856D01*
X83026193Y-95290341D01*
X82956502Y-95285357D01*
X82924347Y-95267549D01*
X82888412Y-95239974D01*
X82847210Y-95183546D01*
X82839900Y-95141600D01*
X82839900Y-94705701D01*
X82859585Y-94638662D01*
X82881446Y-94619718D01*
X82880087Y-94618359D01*
X83602046Y-93896399D01*
X83614835Y-93977148D01*
G37*
G04 #@! TD.AperFunction*
G04 #@! TA.AperFunction,Conductor*
G36*
X91389134Y-82506105D02*
G01*
X91445067Y-82547977D01*
X91469484Y-82613441D01*
X91469800Y-82622287D01*
X91469800Y-87470311D01*
X91450115Y-87537350D01*
X91433481Y-87557992D01*
X85454113Y-93537359D01*
X85392790Y-93570844D01*
X85323098Y-93565860D01*
X85267165Y-93523988D01*
X85246657Y-93481771D01*
X85226269Y-93405682D01*
X85226265Y-93405673D01*
X85130133Y-93199516D01*
X85130131Y-93199512D01*
X85079026Y-93126526D01*
X85079025Y-93126526D01*
X84397953Y-93807598D01*
X84385165Y-93726852D01*
X84327641Y-93613955D01*
X84238045Y-93524359D01*
X84125148Y-93466835D01*
X84044400Y-93454046D01*
X84725472Y-92772974D01*
X84725471Y-92772973D01*
X84652483Y-92721866D01*
X84652481Y-92721865D01*
X84446326Y-92625734D01*
X84446317Y-92625730D01*
X84226610Y-92566860D01*
X84226599Y-92566858D01*
X84000002Y-92547034D01*
X83999998Y-92547034D01*
X83773400Y-92566858D01*
X83773389Y-92566860D01*
X83553682Y-92625730D01*
X83553673Y-92625734D01*
X83347513Y-92721868D01*
X83274527Y-92772972D01*
X83274526Y-92772973D01*
X83955600Y-93454046D01*
X83874852Y-93466835D01*
X83761955Y-93524359D01*
X83672359Y-93613955D01*
X83614835Y-93726852D01*
X83602046Y-93807599D01*
X82880087Y-93085640D01*
X82881552Y-93084174D01*
X82856018Y-93059432D01*
X82839900Y-92998297D01*
X82839900Y-92423787D01*
X82859585Y-92356748D01*
X82876215Y-92336110D01*
X83048452Y-92163872D01*
X83109775Y-92130388D01*
X83172126Y-92132892D01*
X83353868Y-92188024D01*
X83550000Y-92207341D01*
X83746132Y-92188024D01*
X83934727Y-92130814D01*
X83940999Y-92127462D01*
X84066825Y-92060206D01*
X84108538Y-92037910D01*
X84260883Y-91912883D01*
X84385910Y-91760538D01*
X84463408Y-91615550D01*
X84478811Y-91586733D01*
X84478811Y-91586732D01*
X84478814Y-91586727D01*
X84536024Y-91398132D01*
X84555341Y-91202000D01*
X84536024Y-91005868D01*
X84478814Y-90817273D01*
X84478811Y-90817269D01*
X84478811Y-90817266D01*
X84385913Y-90643467D01*
X84385909Y-90643460D01*
X84260883Y-90491116D01*
X84108539Y-90366090D01*
X84108532Y-90366086D01*
X83934733Y-90273188D01*
X83934727Y-90273186D01*
X83824900Y-90239870D01*
X83746123Y-90215973D01*
X83743781Y-90215508D01*
X83742667Y-90214925D01*
X83740302Y-90214208D01*
X83740438Y-90213759D01*
X83681870Y-90183123D01*
X83647296Y-90122407D01*
X83651037Y-90052637D01*
X83691903Y-89995966D01*
X83735869Y-89974119D01*
X83748337Y-89970778D01*
X83753575Y-89969617D01*
X83793445Y-89962588D01*
X83793447Y-89962586D01*
X83798499Y-89960747D01*
X83815224Y-89953819D01*
X83820081Y-89951554D01*
X83820084Y-89951554D01*
X83853241Y-89928335D01*
X83857790Y-89925438D01*
X83892855Y-89905194D01*
X83918881Y-89874176D01*
X83922522Y-89870202D01*
X91258121Y-82534604D01*
X91319442Y-82501121D01*
X91389134Y-82506105D01*
G37*
G04 #@! TD.AperFunction*
G04 #@! TA.AperFunction,Conductor*
G36*
X168002019Y-68000633D02*
G01*
X168037198Y-68002938D01*
X168083708Y-68005986D01*
X168265459Y-68018985D01*
X168273100Y-68020015D01*
X168366738Y-68038641D01*
X168389420Y-68043153D01*
X168415023Y-68048722D01*
X168533666Y-68074531D01*
X168540383Y-68076395D01*
X168659437Y-68116809D01*
X168756671Y-68153076D01*
X168791741Y-68166157D01*
X168797499Y-68168643D01*
X168912952Y-68225578D01*
X169034906Y-68292170D01*
X169039634Y-68295032D01*
X169146649Y-68366537D01*
X169149358Y-68368454D01*
X169258652Y-68450271D01*
X169262345Y-68453265D01*
X169359502Y-68538469D01*
X169362448Y-68541228D01*
X169458769Y-68637549D01*
X169461526Y-68640492D01*
X169546729Y-68737648D01*
X169549732Y-68741353D01*
X169601564Y-68810592D01*
X169631543Y-68850639D01*
X169633461Y-68853349D01*
X169704962Y-68960357D01*
X169707828Y-68965091D01*
X169774421Y-69087047D01*
X169831355Y-69202499D01*
X169833841Y-69208257D01*
X169863639Y-69288145D01*
X169883196Y-69340578D01*
X169897518Y-69382769D01*
X169923597Y-69459596D01*
X169925472Y-69466352D01*
X169956846Y-69610579D01*
X169979980Y-69726880D01*
X169981015Y-69734560D01*
X169994017Y-69916350D01*
X169994087Y-69917413D01*
X169998923Y-69991202D01*
X169999367Y-69997966D01*
X169999500Y-70002023D01*
X169999500Y-89546000D01*
X169979815Y-89613039D01*
X169927011Y-89658794D01*
X169875500Y-89670000D01*
X162730000Y-89670000D01*
X162730000Y-105910000D01*
X169875500Y-105910000D01*
X169942539Y-105929685D01*
X169988294Y-105982489D01*
X169999500Y-106034000D01*
X169999500Y-135997975D01*
X169999367Y-136002026D01*
X169998923Y-136008799D01*
X169994017Y-136083648D01*
X169981015Y-136265438D01*
X169979980Y-136273118D01*
X169956846Y-136389420D01*
X169925472Y-136533646D01*
X169923597Y-136540401D01*
X169889297Y-136641448D01*
X169883208Y-136659388D01*
X169883195Y-136659425D01*
X169833841Y-136791741D01*
X169831355Y-136797499D01*
X169774421Y-136912952D01*
X169707828Y-137034907D01*
X169704961Y-137039641D01*
X169633461Y-137146649D01*
X169631543Y-137149359D01*
X169549744Y-137258631D01*
X169546723Y-137262357D01*
X169461529Y-137359502D01*
X169458755Y-137362464D01*
X169362464Y-137458755D01*
X169359502Y-137461529D01*
X169262357Y-137546723D01*
X169258631Y-137549744D01*
X169149359Y-137631543D01*
X169146649Y-137633461D01*
X169039641Y-137704961D01*
X169034907Y-137707828D01*
X168912952Y-137774421D01*
X168797499Y-137831355D01*
X168791741Y-137833841D01*
X168670956Y-137878893D01*
X168659418Y-137883197D01*
X168540401Y-137923597D01*
X168533646Y-137925472D01*
X168389420Y-137956846D01*
X168273118Y-137979980D01*
X168265438Y-137981015D01*
X168083648Y-137994017D01*
X168032582Y-137997364D01*
X168002025Y-137999367D01*
X167997976Y-137999500D01*
X77002024Y-137999500D01*
X76997974Y-137999367D01*
X76959954Y-137996875D01*
X76916350Y-137994017D01*
X76734560Y-137981015D01*
X76726880Y-137979980D01*
X76610579Y-137956846D01*
X76466352Y-137925472D01*
X76459596Y-137923597D01*
X76427881Y-137912831D01*
X76340578Y-137883196D01*
X76305768Y-137870212D01*
X76208257Y-137833841D01*
X76202499Y-137831355D01*
X76087047Y-137774421D01*
X75965091Y-137707828D01*
X75960357Y-137704962D01*
X75853349Y-137633461D01*
X75850639Y-137631543D01*
X75810592Y-137601564D01*
X75741353Y-137549732D01*
X75737648Y-137546729D01*
X75640492Y-137461526D01*
X75637549Y-137458769D01*
X75541228Y-137362448D01*
X75538469Y-137359502D01*
X75505450Y-137321851D01*
X75453265Y-137262345D01*
X75450271Y-137258652D01*
X75368454Y-137149358D01*
X75366537Y-137146649D01*
X75295036Y-137039641D01*
X75292170Y-137034906D01*
X75225578Y-136912952D01*
X75168643Y-136797499D01*
X75166157Y-136791741D01*
X75153076Y-136756671D01*
X75116805Y-136659425D01*
X75076395Y-136540383D01*
X75074531Y-136533666D01*
X75043153Y-136389420D01*
X75037426Y-136360632D01*
X75020015Y-136273100D01*
X75018985Y-136265459D01*
X75005986Y-136083708D01*
X75001077Y-136008797D01*
X75000633Y-136002019D01*
X75000500Y-135997964D01*
X75000500Y-133000002D01*
X76594506Y-133000002D01*
X76614469Y-133368196D01*
X76614470Y-133368213D01*
X76674122Y-133732068D01*
X76674128Y-133732094D01*
X76772768Y-134087365D01*
X76772770Y-134087371D01*
X76909255Y-134429926D01*
X76909261Y-134429938D01*
X77081973Y-134755708D01*
X77081976Y-134755713D01*
X77081978Y-134755716D01*
X77288910Y-135060917D01*
X77527627Y-135341956D01*
X77795330Y-135595538D01*
X78088881Y-135818690D01*
X78404838Y-136008795D01*
X78404840Y-136008796D01*
X78404842Y-136008797D01*
X78404846Y-136008799D01*
X78739486Y-136163620D01*
X78739497Y-136163625D01*
X79088934Y-136281364D01*
X79449052Y-136360632D01*
X79815630Y-136400500D01*
X79815636Y-136400500D01*
X80184364Y-136400500D01*
X80184370Y-136400500D01*
X80550948Y-136360632D01*
X80911066Y-136281364D01*
X81260503Y-136163625D01*
X81595162Y-136008795D01*
X81911119Y-135818690D01*
X82204670Y-135595538D01*
X82472373Y-135341956D01*
X82711090Y-135060917D01*
X82918022Y-134755716D01*
X83090743Y-134429930D01*
X83227227Y-134087379D01*
X83325875Y-133732081D01*
X83385531Y-133368199D01*
X83405494Y-133000002D01*
X119144506Y-133000002D01*
X119164469Y-133368196D01*
X119164470Y-133368213D01*
X119224122Y-133732068D01*
X119224128Y-133732094D01*
X119322768Y-134087365D01*
X119322770Y-134087371D01*
X119459255Y-134429926D01*
X119459261Y-134429938D01*
X119631973Y-134755708D01*
X119631976Y-134755713D01*
X119631978Y-134755716D01*
X119838910Y-135060917D01*
X120077627Y-135341956D01*
X120345330Y-135595538D01*
X120638881Y-135818690D01*
X120954838Y-136008795D01*
X120954840Y-136008796D01*
X120954842Y-136008797D01*
X120954846Y-136008799D01*
X121289486Y-136163620D01*
X121289497Y-136163625D01*
X121638934Y-136281364D01*
X121999052Y-136360632D01*
X122365630Y-136400500D01*
X122365636Y-136400500D01*
X122734364Y-136400500D01*
X122734370Y-136400500D01*
X123100948Y-136360632D01*
X123461066Y-136281364D01*
X123810503Y-136163625D01*
X124145162Y-136008795D01*
X124461119Y-135818690D01*
X124754670Y-135595538D01*
X125022373Y-135341956D01*
X125261090Y-135060917D01*
X125468022Y-134755716D01*
X125640743Y-134429930D01*
X125777227Y-134087379D01*
X125875875Y-133732081D01*
X125935531Y-133368199D01*
X125955494Y-133000002D01*
X161644506Y-133000002D01*
X161664469Y-133368196D01*
X161664470Y-133368213D01*
X161724122Y-133732068D01*
X161724128Y-133732094D01*
X161822768Y-134087365D01*
X161822770Y-134087371D01*
X161959255Y-134429926D01*
X161959261Y-134429938D01*
X162131973Y-134755708D01*
X162131976Y-134755713D01*
X162131978Y-134755716D01*
X162338910Y-135060917D01*
X162577627Y-135341956D01*
X162845330Y-135595538D01*
X163138881Y-135818690D01*
X163454838Y-136008795D01*
X163454840Y-136008796D01*
X163454842Y-136008797D01*
X163454846Y-136008799D01*
X163789486Y-136163620D01*
X163789497Y-136163625D01*
X164138934Y-136281364D01*
X164499052Y-136360632D01*
X164865630Y-136400500D01*
X164865636Y-136400500D01*
X165234364Y-136400500D01*
X165234370Y-136400500D01*
X165600948Y-136360632D01*
X165961066Y-136281364D01*
X166310503Y-136163625D01*
X166645162Y-136008795D01*
X166961119Y-135818690D01*
X167254670Y-135595538D01*
X167522373Y-135341956D01*
X167761090Y-135060917D01*
X167968022Y-134755716D01*
X168140743Y-134429930D01*
X168277227Y-134087379D01*
X168375875Y-133732081D01*
X168435531Y-133368199D01*
X168455494Y-133000000D01*
X168435531Y-132631801D01*
X168375875Y-132267919D01*
X168277227Y-131912621D01*
X168140743Y-131570070D01*
X167968022Y-131244284D01*
X167761090Y-130939083D01*
X167522373Y-130658044D01*
X167254670Y-130404462D01*
X166961119Y-130181310D01*
X166645162Y-129991205D01*
X166645161Y-129991204D01*
X166645157Y-129991202D01*
X166645153Y-129991200D01*
X166310513Y-129836379D01*
X166310508Y-129836377D01*
X166310503Y-129836375D01*
X166140172Y-129778983D01*
X165961065Y-129718635D01*
X165600946Y-129639367D01*
X165234371Y-129599500D01*
X165234370Y-129599500D01*
X164865630Y-129599500D01*
X164865628Y-129599500D01*
X164499053Y-129639367D01*
X164138934Y-129718635D01*
X163868812Y-129809650D01*
X163789497Y-129836375D01*
X163789494Y-129836376D01*
X163789486Y-129836379D01*
X163454846Y-129991200D01*
X163454842Y-129991202D01*
X163219538Y-130132779D01*
X163138881Y-130181310D01*
X163038410Y-130257685D01*
X162845330Y-130404461D01*
X162845330Y-130404462D01*
X162577626Y-130658044D01*
X162338909Y-130939083D01*
X162131979Y-131244282D01*
X162131973Y-131244291D01*
X161959261Y-131570061D01*
X161959255Y-131570073D01*
X161822770Y-131912628D01*
X161822768Y-131912634D01*
X161724128Y-132267905D01*
X161724122Y-132267931D01*
X161664470Y-132631786D01*
X161664469Y-132631803D01*
X161644506Y-132999997D01*
X161644506Y-133000002D01*
X125955494Y-133000002D01*
X125955494Y-133000000D01*
X125935531Y-132631801D01*
X125875875Y-132267919D01*
X125777227Y-131912621D01*
X125640743Y-131570070D01*
X125468022Y-131244284D01*
X125261090Y-130939083D01*
X125022373Y-130658044D01*
X124754670Y-130404462D01*
X124461119Y-130181310D01*
X124145162Y-129991205D01*
X124145161Y-129991204D01*
X124145157Y-129991202D01*
X124145153Y-129991200D01*
X123810513Y-129836379D01*
X123810508Y-129836377D01*
X123810503Y-129836375D01*
X123640172Y-129778983D01*
X123461065Y-129718635D01*
X123100946Y-129639367D01*
X122734371Y-129599500D01*
X122734370Y-129599500D01*
X122365630Y-129599500D01*
X122365628Y-129599500D01*
X121999053Y-129639367D01*
X121638934Y-129718635D01*
X121368812Y-129809650D01*
X121289497Y-129836375D01*
X121289494Y-129836376D01*
X121289486Y-129836379D01*
X120954846Y-129991200D01*
X120954842Y-129991202D01*
X120719538Y-130132779D01*
X120638881Y-130181310D01*
X120538410Y-130257685D01*
X120345330Y-130404461D01*
X120345330Y-130404462D01*
X120077626Y-130658044D01*
X119838909Y-130939083D01*
X119631979Y-131244282D01*
X119631973Y-131244291D01*
X119459261Y-131570061D01*
X119459255Y-131570073D01*
X119322770Y-131912628D01*
X119322768Y-131912634D01*
X119224128Y-132267905D01*
X119224122Y-132267931D01*
X119164470Y-132631786D01*
X119164469Y-132631803D01*
X119144506Y-132999997D01*
X119144506Y-133000002D01*
X83405494Y-133000002D01*
X83405494Y-133000000D01*
X83385531Y-132631801D01*
X83325875Y-132267919D01*
X83227227Y-131912621D01*
X83090743Y-131570070D01*
X82918022Y-131244284D01*
X82711090Y-130939083D01*
X82472373Y-130658044D01*
X82204670Y-130404462D01*
X81911119Y-130181310D01*
X81595162Y-129991205D01*
X81595161Y-129991204D01*
X81595157Y-129991202D01*
X81595153Y-129991200D01*
X81260513Y-129836379D01*
X81260508Y-129836377D01*
X81260503Y-129836375D01*
X81090172Y-129778983D01*
X80911065Y-129718635D01*
X80550946Y-129639367D01*
X80184371Y-129599500D01*
X80184370Y-129599500D01*
X79815630Y-129599500D01*
X79815628Y-129599500D01*
X79449053Y-129639367D01*
X79088934Y-129718635D01*
X78818812Y-129809650D01*
X78739497Y-129836375D01*
X78739494Y-129836376D01*
X78739486Y-129836379D01*
X78404846Y-129991200D01*
X78404842Y-129991202D01*
X78169538Y-130132779D01*
X78088881Y-130181310D01*
X77988410Y-130257685D01*
X77795330Y-130404461D01*
X77795330Y-130404462D01*
X77527626Y-130658044D01*
X77288909Y-130939083D01*
X77081979Y-131244282D01*
X77081973Y-131244291D01*
X76909261Y-131570061D01*
X76909255Y-131570073D01*
X76772770Y-131912628D01*
X76772768Y-131912634D01*
X76674128Y-132267905D01*
X76674122Y-132267931D01*
X76614470Y-132631786D01*
X76614469Y-132631803D01*
X76594506Y-132999997D01*
X76594506Y-133000002D01*
X75000500Y-133000002D01*
X75000500Y-112522000D01*
X76160417Y-112522000D01*
X76180699Y-112727932D01*
X76180700Y-112727934D01*
X76240768Y-112925954D01*
X76338315Y-113108450D01*
X76338317Y-113108452D01*
X76469589Y-113268410D01*
X76566209Y-113347702D01*
X76629550Y-113399685D01*
X76812046Y-113497232D01*
X77010066Y-113557300D01*
X77010065Y-113557300D01*
X77028529Y-113559118D01*
X77216000Y-113577583D01*
X77421934Y-113557300D01*
X77619954Y-113497232D01*
X77802450Y-113399685D01*
X77962410Y-113268410D01*
X78093685Y-113108450D01*
X78191232Y-112925954D01*
X78251300Y-112727934D01*
X78271583Y-112522000D01*
X78251300Y-112316066D01*
X78191232Y-112118046D01*
X78093685Y-111935550D01*
X78041702Y-111872209D01*
X77962410Y-111775589D01*
X77802452Y-111644317D01*
X77802453Y-111644317D01*
X77802450Y-111644315D01*
X77619954Y-111546768D01*
X77421934Y-111486700D01*
X77421932Y-111486699D01*
X77421934Y-111486699D01*
X77216000Y-111466417D01*
X77010067Y-111486699D01*
X76812043Y-111546769D01*
X76701898Y-111605643D01*
X76629550Y-111644315D01*
X76629548Y-111644316D01*
X76629547Y-111644317D01*
X76469589Y-111775589D01*
X76338317Y-111935547D01*
X76240769Y-112118043D01*
X76180699Y-112316067D01*
X76160417Y-112522000D01*
X75000500Y-112522000D01*
X75000500Y-109982000D01*
X76160417Y-109982000D01*
X76180699Y-110187932D01*
X76180700Y-110187934D01*
X76240768Y-110385954D01*
X76338315Y-110568450D01*
X76338317Y-110568452D01*
X76469589Y-110728410D01*
X76566209Y-110807702D01*
X76629550Y-110859685D01*
X76812046Y-110957232D01*
X77010066Y-111017300D01*
X77010065Y-111017300D01*
X77028529Y-111019118D01*
X77216000Y-111037583D01*
X77421934Y-111017300D01*
X77619954Y-110957232D01*
X77802450Y-110859685D01*
X77962410Y-110728410D01*
X78093685Y-110568450D01*
X78191232Y-110385954D01*
X78251300Y-110187934D01*
X78271583Y-109982000D01*
X78251300Y-109776066D01*
X78191232Y-109578046D01*
X78093685Y-109395550D01*
X77999695Y-109281022D01*
X77962410Y-109235589D01*
X77802452Y-109104317D01*
X77802453Y-109104317D01*
X77802450Y-109104315D01*
X77619954Y-109006768D01*
X77421934Y-108946700D01*
X77421932Y-108946699D01*
X77421934Y-108946699D01*
X77216000Y-108926417D01*
X77010067Y-108946699D01*
X76812043Y-109006769D01*
X76701898Y-109065643D01*
X76629550Y-109104315D01*
X76629548Y-109104316D01*
X76629547Y-109104317D01*
X76469589Y-109235589D01*
X76339738Y-109393816D01*
X76338315Y-109395550D01*
X76305222Y-109457463D01*
X76240769Y-109578043D01*
X76180699Y-109776067D01*
X76160417Y-109982000D01*
X75000500Y-109982000D01*
X75000500Y-107442000D01*
X76160417Y-107442000D01*
X76180699Y-107647932D01*
X76180700Y-107647934D01*
X76240768Y-107845954D01*
X76338315Y-108028450D01*
X76338317Y-108028452D01*
X76469589Y-108188410D01*
X76566209Y-108267702D01*
X76629550Y-108319685D01*
X76812046Y-108417232D01*
X77010066Y-108477300D01*
X77010065Y-108477300D01*
X77028529Y-108479118D01*
X77216000Y-108497583D01*
X77421934Y-108477300D01*
X77619954Y-108417232D01*
X77802450Y-108319685D01*
X77962410Y-108188410D01*
X78093685Y-108028450D01*
X78191232Y-107845954D01*
X78251300Y-107647934D01*
X78271583Y-107442000D01*
X78251300Y-107236066D01*
X78191232Y-107038046D01*
X78093685Y-106855550D01*
X78006240Y-106748997D01*
X77962410Y-106695589D01*
X77844677Y-106598969D01*
X77802450Y-106564315D01*
X77619954Y-106466768D01*
X77421934Y-106406700D01*
X77421932Y-106406699D01*
X77421934Y-106406699D01*
X77216000Y-106386417D01*
X77010067Y-106406699D01*
X76812043Y-106466769D01*
X76701898Y-106525643D01*
X76629550Y-106564315D01*
X76629548Y-106564316D01*
X76629547Y-106564317D01*
X76469589Y-106695589D01*
X76338317Y-106855547D01*
X76338315Y-106855550D01*
X76324843Y-106880754D01*
X76240769Y-107038043D01*
X76180699Y-107236067D01*
X76160417Y-107442000D01*
X75000500Y-107442000D01*
X75000500Y-102879308D01*
X75708235Y-102879308D01*
X75718712Y-102918410D01*
X75719883Y-102923690D01*
X75726911Y-102963543D01*
X75728735Y-102968555D01*
X75735697Y-102985361D01*
X75737945Y-102990181D01*
X75737946Y-102990184D01*
X75742321Y-102996432D01*
X75761155Y-103023331D01*
X75764061Y-103027892D01*
X75784306Y-103062955D01*
X75815315Y-103088975D01*
X75819305Y-103092631D01*
X76576863Y-103850189D01*
X76580519Y-103854178D01*
X76604476Y-103882729D01*
X76632489Y-103946737D01*
X76621450Y-104015729D01*
X76588152Y-104058288D01*
X76469590Y-104155589D01*
X76340012Y-104313482D01*
X76338315Y-104315550D01*
X76306772Y-104374562D01*
X76240769Y-104498043D01*
X76180699Y-104696067D01*
X76160417Y-104902000D01*
X76180699Y-105107932D01*
X76205550Y-105189854D01*
X76240768Y-105305954D01*
X76338315Y-105488450D01*
X76367599Y-105524133D01*
X76469589Y-105648410D01*
X76534890Y-105702000D01*
X76629550Y-105779685D01*
X76812046Y-105877232D01*
X77010066Y-105937300D01*
X77010065Y-105937300D01*
X77028529Y-105939118D01*
X77216000Y-105957583D01*
X77421934Y-105937300D01*
X77619954Y-105877232D01*
X77802450Y-105779685D01*
X77962410Y-105648410D01*
X78093685Y-105488450D01*
X78191232Y-105305954D01*
X78251300Y-105107934D01*
X78271583Y-104902000D01*
X78266462Y-104850006D01*
X78279481Y-104781361D01*
X78327546Y-104730651D01*
X78395396Y-104713976D01*
X78461491Y-104736632D01*
X78477546Y-104750172D01*
X82252863Y-108525489D01*
X82256518Y-108529478D01*
X82282541Y-108560490D01*
X82282543Y-108560491D01*
X82282545Y-108560494D01*
X82282547Y-108560495D01*
X82282548Y-108560496D01*
X82317599Y-108580733D01*
X82322162Y-108583639D01*
X82355316Y-108606854D01*
X82355319Y-108606854D01*
X82360176Y-108609120D01*
X82376933Y-108616060D01*
X82381953Y-108617887D01*
X82381955Y-108617888D01*
X82417806Y-108624209D01*
X82421808Y-108624915D01*
X82427080Y-108626083D01*
X82466193Y-108636564D01*
X82506522Y-108633035D01*
X82511924Y-108632800D01*
X83112078Y-108632800D01*
X83117481Y-108633035D01*
X83157807Y-108636564D01*
X83196940Y-108626077D01*
X83202162Y-108624919D01*
X83242045Y-108617888D01*
X83242050Y-108617884D01*
X83247099Y-108616047D01*
X83263824Y-108609119D01*
X83268681Y-108606854D01*
X83268684Y-108606854D01*
X83301841Y-108583635D01*
X83306390Y-108580738D01*
X83341455Y-108560494D01*
X83341459Y-108560490D01*
X83367476Y-108529482D01*
X83371122Y-108525502D01*
X87068204Y-104828420D01*
X87072166Y-104824789D01*
X87103194Y-104798755D01*
X87123438Y-104763690D01*
X87126335Y-104759141D01*
X87149554Y-104725984D01*
X87149554Y-104725981D01*
X87151819Y-104721124D01*
X87158747Y-104704399D01*
X87160584Y-104699350D01*
X87160588Y-104699345D01*
X87167619Y-104659462D01*
X87168777Y-104654240D01*
X87179264Y-104615107D01*
X87175735Y-104574778D01*
X87175500Y-104569375D01*
X87175500Y-102976500D01*
X87195185Y-102909461D01*
X87247989Y-102863706D01*
X87299500Y-102852500D01*
X87641100Y-102852500D01*
X87708139Y-102872185D01*
X87753894Y-102924989D01*
X87765100Y-102976500D01*
X87765100Y-105732111D01*
X87745415Y-105799150D01*
X87728781Y-105819792D01*
X78476245Y-115072327D01*
X78414922Y-115105812D01*
X78345230Y-115100828D01*
X78289297Y-115058956D01*
X78265161Y-114996800D01*
X78251300Y-114856067D01*
X78251300Y-114856066D01*
X78191232Y-114658046D01*
X78093685Y-114475550D01*
X78041702Y-114412209D01*
X77962410Y-114315589D01*
X77802452Y-114184317D01*
X77802453Y-114184317D01*
X77802450Y-114184315D01*
X77619954Y-114086768D01*
X77421934Y-114026700D01*
X77421932Y-114026699D01*
X77421934Y-114026699D01*
X77216000Y-114006417D01*
X77010067Y-114026699D01*
X76812043Y-114086769D01*
X76701898Y-114145643D01*
X76629550Y-114184315D01*
X76629548Y-114184316D01*
X76629547Y-114184317D01*
X76469589Y-114315589D01*
X76338317Y-114475547D01*
X76240769Y-114658043D01*
X76180699Y-114856067D01*
X76160417Y-115062000D01*
X76180699Y-115267932D01*
X76180700Y-115267934D01*
X76240768Y-115465954D01*
X76338315Y-115648450D01*
X76338317Y-115648452D01*
X76469589Y-115808410D01*
X76566209Y-115887702D01*
X76629550Y-115939685D01*
X76812046Y-116037232D01*
X76875067Y-116056349D01*
X76933503Y-116094643D01*
X76961960Y-116158455D01*
X76951401Y-116227522D01*
X76934063Y-116254709D01*
X76929763Y-116259833D01*
X76929758Y-116259843D01*
X76923576Y-116276825D01*
X76914448Y-116296401D01*
X76905414Y-116312049D01*
X76905412Y-116312056D01*
X76902275Y-116329847D01*
X76896681Y-116350724D01*
X76890500Y-116367705D01*
X76890500Y-116511417D01*
X76870815Y-116578456D01*
X76818011Y-116624211D01*
X76813951Y-116625979D01*
X76812045Y-116626768D01*
X76754401Y-116657580D01*
X76629550Y-116724315D01*
X76629548Y-116724316D01*
X76629547Y-116724317D01*
X76469589Y-116855589D01*
X76338317Y-117015547D01*
X76240769Y-117198043D01*
X76180699Y-117396067D01*
X76160417Y-117602000D01*
X76180699Y-117807932D01*
X76193475Y-117850049D01*
X76240768Y-118005954D01*
X76338315Y-118188450D01*
X76338317Y-118188452D01*
X76469589Y-118348410D01*
X76566209Y-118427702D01*
X76629550Y-118479685D01*
X76812046Y-118577232D01*
X76875067Y-118596349D01*
X76933503Y-118634643D01*
X76961960Y-118698455D01*
X76951401Y-118767522D01*
X76934063Y-118794709D01*
X76929763Y-118799833D01*
X76929758Y-118799843D01*
X76923576Y-118816825D01*
X76914448Y-118836401D01*
X76905414Y-118852049D01*
X76905412Y-118852056D01*
X76902275Y-118869847D01*
X76896681Y-118890724D01*
X76890500Y-118907705D01*
X76890500Y-119051417D01*
X76870815Y-119118456D01*
X76818011Y-119164211D01*
X76813951Y-119165979D01*
X76812045Y-119166768D01*
X76754401Y-119197580D01*
X76629550Y-119264315D01*
X76629548Y-119264316D01*
X76629547Y-119264317D01*
X76469589Y-119395589D01*
X76338317Y-119555547D01*
X76338315Y-119555550D01*
X76299643Y-119627898D01*
X76240769Y-119738043D01*
X76180699Y-119936067D01*
X76160417Y-120142000D01*
X76180699Y-120347932D01*
X76180700Y-120347934D01*
X76240768Y-120545954D01*
X76338315Y-120728450D01*
X76338317Y-120728452D01*
X76469589Y-120888410D01*
X76566209Y-120967702D01*
X76629550Y-121019685D01*
X76812046Y-121117232D01*
X77010066Y-121177300D01*
X77010065Y-121177300D01*
X77028529Y-121179118D01*
X77216000Y-121197583D01*
X77421934Y-121177300D01*
X77619954Y-121117232D01*
X77802450Y-121019685D01*
X77962410Y-120888410D01*
X78093685Y-120728450D01*
X78191232Y-120545954D01*
X78251300Y-120347934D01*
X78271583Y-120142000D01*
X78251300Y-119936066D01*
X78191232Y-119738046D01*
X78093685Y-119555550D01*
X77962410Y-119395590D01*
X77962409Y-119395589D01*
X77876604Y-119325170D01*
X77837270Y-119267424D01*
X77835399Y-119197580D01*
X77867586Y-119141638D01*
X92508939Y-104500285D01*
X92570260Y-104466802D01*
X92639952Y-104471786D01*
X92695885Y-104513658D01*
X92720302Y-104579122D01*
X92705450Y-104647395D01*
X92698193Y-104659091D01*
X92599868Y-104799512D01*
X92599866Y-104799516D01*
X92503734Y-105005673D01*
X92503730Y-105005682D01*
X92451127Y-105201999D01*
X92451128Y-105202000D01*
X93414314Y-105202000D01*
X93402359Y-105213955D01*
X93344835Y-105326852D01*
X93325014Y-105452000D01*
X93344835Y-105577148D01*
X93402359Y-105690045D01*
X93414314Y-105702000D01*
X92451128Y-105702000D01*
X92503730Y-105898317D01*
X92503734Y-105898326D01*
X92599865Y-106104482D01*
X92730342Y-106290820D01*
X92891179Y-106451657D01*
X93077517Y-106582134D01*
X93283673Y-106678265D01*
X93283682Y-106678269D01*
X93479999Y-106730872D01*
X93480000Y-106730871D01*
X93480000Y-105767686D01*
X93491955Y-105779641D01*
X93604852Y-105837165D01*
X93698519Y-105852000D01*
X93761481Y-105852000D01*
X93855148Y-105837165D01*
X93968045Y-105779641D01*
X93980000Y-105767686D01*
X93980000Y-106730872D01*
X94176317Y-106678269D01*
X94176326Y-106678265D01*
X94382482Y-106582134D01*
X94568820Y-106451657D01*
X94729657Y-106290820D01*
X94860134Y-106104482D01*
X94956265Y-105898326D01*
X94956269Y-105898317D01*
X95008872Y-105702000D01*
X94045686Y-105702000D01*
X94057641Y-105690045D01*
X94115165Y-105577148D01*
X94134986Y-105452000D01*
X94115165Y-105326852D01*
X94057641Y-105213955D01*
X94045686Y-105202000D01*
X95008872Y-105202000D01*
X95008872Y-105201999D01*
X94956269Y-105005682D01*
X94956265Y-105005673D01*
X94860134Y-104799517D01*
X94729657Y-104613179D01*
X94568820Y-104452342D01*
X94382482Y-104321865D01*
X94176328Y-104225734D01*
X93980000Y-104173127D01*
X93980000Y-105136314D01*
X93968045Y-105124359D01*
X93855148Y-105066835D01*
X93761481Y-105052000D01*
X93698519Y-105052000D01*
X93604852Y-105066835D01*
X93491955Y-105124359D01*
X93480000Y-105136314D01*
X93480000Y-104173127D01*
X93283671Y-104225734D01*
X93077516Y-104321866D01*
X93077512Y-104321868D01*
X92937091Y-104420193D01*
X92870885Y-104442520D01*
X92803118Y-104425510D01*
X92755305Y-104374562D01*
X92742627Y-104305852D01*
X92769109Y-104241195D01*
X92778278Y-104230946D01*
X95208104Y-101801120D01*
X95212066Y-101797489D01*
X95243094Y-101771455D01*
X95263338Y-101736390D01*
X95266235Y-101731841D01*
X95289454Y-101698684D01*
X95289454Y-101698681D01*
X95291719Y-101693824D01*
X95298647Y-101677099D01*
X95300484Y-101672050D01*
X95300488Y-101672045D01*
X95307519Y-101632162D01*
X95308677Y-101626940D01*
X95319164Y-101587807D01*
X95315635Y-101547478D01*
X95315400Y-101542075D01*
X95315400Y-98003587D01*
X95335085Y-97936548D01*
X95351714Y-97915911D01*
X101725415Y-91542209D01*
X101786736Y-91508726D01*
X101829280Y-91506953D01*
X101897099Y-91515882D01*
X101897100Y-91515882D01*
X101897101Y-91515882D01*
X101949354Y-91509002D01*
X102053862Y-91495244D01*
X102199941Y-91434736D01*
X102325382Y-91338482D01*
X102421636Y-91213041D01*
X102453447Y-91136240D01*
X102497286Y-91081840D01*
X102563580Y-91059774D01*
X102631279Y-91077053D01*
X102655688Y-91096014D01*
X103911281Y-92351607D01*
X103944766Y-92412930D01*
X103947600Y-92439288D01*
X103947600Y-96469711D01*
X103927915Y-96536750D01*
X103875111Y-96582505D01*
X103805953Y-96592449D01*
X103742397Y-96563424D01*
X103704623Y-96504646D01*
X103703825Y-96501804D01*
X103657169Y-96327682D01*
X103657165Y-96327673D01*
X103561033Y-96121516D01*
X103561031Y-96121512D01*
X103509926Y-96048526D01*
X103509925Y-96048526D01*
X102828853Y-96729598D01*
X102816065Y-96648852D01*
X102758541Y-96535955D01*
X102668945Y-96446359D01*
X102556048Y-96388835D01*
X102475300Y-96376046D01*
X103156372Y-95694974D01*
X103156371Y-95694973D01*
X103083383Y-95643866D01*
X103083381Y-95643865D01*
X102877226Y-95547734D01*
X102877217Y-95547730D01*
X102657510Y-95488860D01*
X102657499Y-95488858D01*
X102430902Y-95469034D01*
X102430898Y-95469034D01*
X102204300Y-95488858D01*
X102204289Y-95488860D01*
X101984582Y-95547730D01*
X101984573Y-95547734D01*
X101778413Y-95643868D01*
X101705427Y-95694972D01*
X101705426Y-95694973D01*
X102386500Y-96376046D01*
X102305752Y-96388835D01*
X102192855Y-96446359D01*
X102103259Y-96535955D01*
X102045735Y-96648852D01*
X102032946Y-96729599D01*
X101467719Y-96164372D01*
X101434234Y-96103049D01*
X101431400Y-96076691D01*
X101431400Y-95954249D01*
X101431399Y-95954247D01*
X101419768Y-95895770D01*
X101419767Y-95895769D01*
X101375452Y-95829447D01*
X101309130Y-95785132D01*
X101309129Y-95785131D01*
X101250652Y-95773500D01*
X101250648Y-95773500D01*
X99611152Y-95773500D01*
X99611147Y-95773500D01*
X99552670Y-95785131D01*
X99552669Y-95785132D01*
X99486347Y-95829447D01*
X99442032Y-95895769D01*
X99442031Y-95895770D01*
X99430400Y-95954247D01*
X99430400Y-97593752D01*
X99442031Y-97652229D01*
X99442032Y-97652230D01*
X99486347Y-97718552D01*
X99552669Y-97762867D01*
X99552670Y-97762868D01*
X99611147Y-97774499D01*
X99611150Y-97774500D01*
X99611152Y-97774500D01*
X99981400Y-97774500D01*
X100048439Y-97794185D01*
X100094194Y-97846989D01*
X100105400Y-97898500D01*
X100105400Y-99333878D01*
X100105164Y-99339285D01*
X100101635Y-99379608D01*
X100112112Y-99418710D01*
X100113283Y-99423990D01*
X100120311Y-99463843D01*
X100122135Y-99468855D01*
X100129097Y-99485661D01*
X100131345Y-99490481D01*
X100131346Y-99490484D01*
X100141816Y-99505437D01*
X100154555Y-99523631D01*
X100157461Y-99528192D01*
X100177706Y-99563255D01*
X100208715Y-99589275D01*
X100212705Y-99592931D01*
X107762468Y-107142695D01*
X107766123Y-107146684D01*
X107792141Y-107177690D01*
X107792143Y-107177691D01*
X107792145Y-107177694D01*
X107827205Y-107197935D01*
X107831759Y-107200837D01*
X107864916Y-107224054D01*
X107864919Y-107224054D01*
X107869776Y-107226320D01*
X107886533Y-107233260D01*
X107891553Y-107235087D01*
X107891555Y-107235088D01*
X107931430Y-107242118D01*
X107936687Y-107243284D01*
X107975793Y-107253763D01*
X108016110Y-107250235D01*
X108021512Y-107250000D01*
X108105112Y-107250000D01*
X108172151Y-107269685D01*
X108217906Y-107322489D01*
X108227850Y-107391647D01*
X108198825Y-107455203D01*
X108192793Y-107461681D01*
X97652293Y-118002181D01*
X97590970Y-118035666D01*
X97564612Y-118038500D01*
X91740500Y-118038500D01*
X91673461Y-118018815D01*
X91627706Y-117966011D01*
X91616500Y-117914500D01*
X91616500Y-116844249D01*
X91616499Y-116844247D01*
X91604868Y-116785770D01*
X91604867Y-116785769D01*
X91560552Y-116719447D01*
X91494230Y-116675132D01*
X91494229Y-116675131D01*
X91435752Y-116663500D01*
X91435748Y-116663500D01*
X88396252Y-116663500D01*
X88396247Y-116663500D01*
X88337770Y-116675131D01*
X88337769Y-116675132D01*
X88271447Y-116719447D01*
X88227132Y-116785769D01*
X88227131Y-116785770D01*
X88215500Y-116844247D01*
X88215500Y-119883752D01*
X88227131Y-119942229D01*
X88227132Y-119942230D01*
X88271447Y-120008552D01*
X88337769Y-120052867D01*
X88337770Y-120052868D01*
X88396247Y-120064499D01*
X88396250Y-120064500D01*
X88396252Y-120064500D01*
X91435750Y-120064500D01*
X91435751Y-120064499D01*
X91450568Y-120061552D01*
X91494229Y-120052868D01*
X91494229Y-120052867D01*
X91494231Y-120052867D01*
X91560552Y-120008552D01*
X91604867Y-119942231D01*
X91604867Y-119942229D01*
X91604868Y-119942229D01*
X91616499Y-119883752D01*
X91616500Y-119883750D01*
X91616500Y-118813500D01*
X91636185Y-118746461D01*
X91688989Y-118700706D01*
X91740500Y-118689500D01*
X97494411Y-118689500D01*
X97561450Y-118709185D01*
X97607205Y-118761989D01*
X97617149Y-118831147D01*
X97588124Y-118894703D01*
X97582092Y-118901181D01*
X94163093Y-122320181D01*
X94101770Y-122353666D01*
X94075412Y-122356500D01*
X78306583Y-122356500D01*
X78239544Y-122336815D01*
X78193789Y-122284011D01*
X78192021Y-122279951D01*
X78191233Y-122278051D01*
X78191232Y-122278046D01*
X78093685Y-122095550D01*
X78041702Y-122032209D01*
X77962410Y-121935589D01*
X77802452Y-121804317D01*
X77802453Y-121804317D01*
X77802450Y-121804315D01*
X77619954Y-121706768D01*
X77421934Y-121646700D01*
X77421932Y-121646699D01*
X77421934Y-121646699D01*
X77216000Y-121626417D01*
X77010067Y-121646699D01*
X76812043Y-121706769D01*
X76701898Y-121765643D01*
X76629550Y-121804315D01*
X76629548Y-121804316D01*
X76629547Y-121804317D01*
X76469589Y-121935589D01*
X76338317Y-122095547D01*
X76240769Y-122278043D01*
X76180699Y-122476067D01*
X76160417Y-122682000D01*
X76180699Y-122887932D01*
X76195036Y-122935194D01*
X76240768Y-123085954D01*
X76338315Y-123268450D01*
X76338317Y-123268452D01*
X76469589Y-123428410D01*
X76566209Y-123507702D01*
X76629550Y-123559685D01*
X76812046Y-123657232D01*
X77010066Y-123717300D01*
X77010065Y-123717300D01*
X77028529Y-123719118D01*
X77216000Y-123737583D01*
X77421934Y-123717300D01*
X77619954Y-123657232D01*
X77802450Y-123559685D01*
X77962410Y-123428410D01*
X78093685Y-123268450D01*
X78191232Y-123085954D01*
X78191234Y-123085945D01*
X78192021Y-123084049D01*
X78192701Y-123083203D01*
X78194104Y-123080581D01*
X78194601Y-123080846D01*
X78235862Y-123029645D01*
X78302156Y-123007579D01*
X78306583Y-123007500D01*
X94244678Y-123007500D01*
X94250081Y-123007735D01*
X94290407Y-123011264D01*
X94329540Y-123000777D01*
X94334762Y-122999619D01*
X94374645Y-122992588D01*
X94374650Y-122992584D01*
X94379699Y-122990747D01*
X94396424Y-122983819D01*
X94401281Y-122981554D01*
X94401284Y-122981554D01*
X94434441Y-122958335D01*
X94438990Y-122955438D01*
X94474055Y-122935194D01*
X94500081Y-122904176D01*
X94503722Y-122900202D01*
X112814065Y-104589861D01*
X112875384Y-104556379D01*
X112945076Y-104561363D01*
X113001009Y-104603235D01*
X113021517Y-104645452D01*
X113073730Y-104840317D01*
X113073734Y-104840326D01*
X113169865Y-105046481D01*
X113169866Y-105046483D01*
X113220973Y-105119471D01*
X113220973Y-105119472D01*
X113902046Y-104438400D01*
X113914835Y-104519148D01*
X113972359Y-104632045D01*
X114061955Y-104721641D01*
X114174852Y-104779165D01*
X114255599Y-104791953D01*
X113574526Y-105473025D01*
X113574526Y-105473026D01*
X113647512Y-105524131D01*
X113647516Y-105524133D01*
X113853673Y-105620265D01*
X113853682Y-105620269D01*
X113966759Y-105650568D01*
X114026420Y-105686933D01*
X114056949Y-105749780D01*
X114048654Y-105819156D01*
X114022347Y-105858024D01*
X95020193Y-124860181D01*
X94958870Y-124893666D01*
X94932512Y-124896500D01*
X78306583Y-124896500D01*
X78239544Y-124876815D01*
X78193789Y-124824011D01*
X78192021Y-124819951D01*
X78191233Y-124818051D01*
X78191232Y-124818046D01*
X78093685Y-124635550D01*
X78041702Y-124572209D01*
X77962410Y-124475589D01*
X77802452Y-124344317D01*
X77802453Y-124344317D01*
X77802450Y-124344315D01*
X77619954Y-124246768D01*
X77421934Y-124186700D01*
X77421932Y-124186699D01*
X77421934Y-124186699D01*
X77216000Y-124166417D01*
X77010067Y-124186699D01*
X76812043Y-124246769D01*
X76701898Y-124305643D01*
X76629550Y-124344315D01*
X76629548Y-124344316D01*
X76629547Y-124344317D01*
X76469589Y-124475589D01*
X76338317Y-124635547D01*
X76240769Y-124818043D01*
X76180699Y-125016067D01*
X76160417Y-125222000D01*
X76180699Y-125427932D01*
X76195036Y-125475194D01*
X76240768Y-125625954D01*
X76338315Y-125808450D01*
X76338317Y-125808452D01*
X76469589Y-125968410D01*
X76566209Y-126047702D01*
X76629550Y-126099685D01*
X76812046Y-126197232D01*
X77010066Y-126257300D01*
X77010065Y-126257300D01*
X77028529Y-126259118D01*
X77216000Y-126277583D01*
X77421934Y-126257300D01*
X77619954Y-126197232D01*
X77802450Y-126099685D01*
X77962410Y-125968410D01*
X78093685Y-125808450D01*
X78191232Y-125625954D01*
X78191234Y-125625945D01*
X78192021Y-125624049D01*
X78192701Y-125623203D01*
X78194104Y-125620581D01*
X78194601Y-125620846D01*
X78235862Y-125569645D01*
X78302156Y-125547579D01*
X78306583Y-125547500D01*
X95101778Y-125547500D01*
X95107181Y-125547735D01*
X95147507Y-125551264D01*
X95186640Y-125540777D01*
X95191862Y-125539619D01*
X95231745Y-125532588D01*
X95231750Y-125532584D01*
X95236799Y-125530747D01*
X95253524Y-125523819D01*
X95258381Y-125521554D01*
X95258384Y-125521554D01*
X95291541Y-125498335D01*
X95296090Y-125495438D01*
X95331155Y-125475194D01*
X95357181Y-125444176D01*
X95360822Y-125440202D01*
X101872943Y-118928081D01*
X160421000Y-118928081D01*
X160436098Y-119119929D01*
X160496032Y-119369569D01*
X160594272Y-119606744D01*
X160594274Y-119606747D01*
X160728409Y-119825637D01*
X160728410Y-119825638D01*
X160895143Y-120020856D01*
X161090361Y-120187589D01*
X161090362Y-120187590D01*
X161309252Y-120321725D01*
X161309255Y-120321727D01*
X161546430Y-120419967D01*
X161796071Y-120479901D01*
X161802000Y-120480368D01*
X161802000Y-118888624D01*
X161816505Y-118961545D01*
X161871760Y-119044240D01*
X161954455Y-119099495D01*
X162052000Y-119118898D01*
X162149545Y-119099495D01*
X162232240Y-119044240D01*
X162287495Y-118961545D01*
X162302000Y-118888624D01*
X162302000Y-120480367D01*
X162307928Y-120479901D01*
X162557569Y-120419967D01*
X162794744Y-120321727D01*
X162794747Y-120321725D01*
X163013637Y-120187590D01*
X163013638Y-120187589D01*
X163208856Y-120020856D01*
X163375589Y-119825638D01*
X163375590Y-119825637D01*
X163509725Y-119606747D01*
X163509727Y-119606744D01*
X163607967Y-119369569D01*
X163667901Y-119119929D01*
X163683000Y-118928081D01*
X163683000Y-118614000D01*
X162302000Y-118614000D01*
X162302000Y-118114000D01*
X163683000Y-118114000D01*
X163683000Y-117799919D01*
X163667901Y-117608068D01*
X163667900Y-117608062D01*
X163607967Y-117358430D01*
X163509727Y-117121255D01*
X163509725Y-117121252D01*
X163375590Y-116902362D01*
X163375589Y-116902361D01*
X163208856Y-116707143D01*
X163013638Y-116540410D01*
X163013637Y-116540409D01*
X162794747Y-116406274D01*
X162794744Y-116406272D01*
X162557569Y-116308032D01*
X162307934Y-116248099D01*
X162302000Y-116247631D01*
X162302000Y-117839376D01*
X162287495Y-117766455D01*
X162232240Y-117683760D01*
X162149545Y-117628505D01*
X162052000Y-117609102D01*
X161954455Y-117628505D01*
X161871760Y-117683760D01*
X161816505Y-117766455D01*
X161802000Y-117839376D01*
X161802000Y-116247631D01*
X161796068Y-116248099D01*
X161796063Y-116248099D01*
X161546430Y-116308032D01*
X161309255Y-116406272D01*
X161309252Y-116406274D01*
X161090362Y-116540409D01*
X161090361Y-116540410D01*
X160895143Y-116707143D01*
X160728410Y-116902361D01*
X160728409Y-116902362D01*
X160594274Y-117121252D01*
X160594272Y-117121255D01*
X160496032Y-117358430D01*
X160436100Y-117608062D01*
X160436098Y-117608068D01*
X160421000Y-117799919D01*
X160421000Y-118114000D01*
X161802000Y-118114000D01*
X161802000Y-118614000D01*
X160421000Y-118614000D01*
X160421000Y-118928081D01*
X101872943Y-118928081D01*
X110819023Y-109982001D01*
X147320118Y-109982001D01*
X147340755Y-110138760D01*
X147340756Y-110138762D01*
X147401264Y-110284841D01*
X147497518Y-110410282D01*
X147622959Y-110506536D01*
X147769038Y-110567044D01*
X147847419Y-110577363D01*
X147925799Y-110587682D01*
X147925800Y-110587682D01*
X147925801Y-110587682D01*
X147978054Y-110580802D01*
X148082562Y-110567044D01*
X148228641Y-110506536D01*
X148354082Y-110410282D01*
X148450336Y-110284841D01*
X148510844Y-110138762D01*
X148531482Y-109982000D01*
X148510844Y-109825238D01*
X148510843Y-109825236D01*
X148508740Y-109817387D01*
X148510283Y-109816973D01*
X148503007Y-109769696D01*
X148503663Y-109762204D01*
X148500136Y-109721892D01*
X148499900Y-109716486D01*
X148499900Y-101037298D01*
X148519585Y-100970259D01*
X148548410Y-100938925D01*
X148602682Y-100897282D01*
X148698936Y-100771841D01*
X148759444Y-100625762D01*
X148780082Y-100469000D01*
X148778786Y-100459159D01*
X148761894Y-100330850D01*
X148759444Y-100312238D01*
X148698936Y-100166159D01*
X148602682Y-100040718D01*
X148477241Y-99944464D01*
X148450409Y-99933350D01*
X148331162Y-99883956D01*
X148331160Y-99883955D01*
X148174401Y-99863318D01*
X148174399Y-99863318D01*
X148017639Y-99883955D01*
X148017637Y-99883956D01*
X147871560Y-99944463D01*
X147746118Y-100040718D01*
X147649863Y-100166160D01*
X147589356Y-100312237D01*
X147589355Y-100312239D01*
X147568718Y-100468998D01*
X147568718Y-100469001D01*
X147589355Y-100625760D01*
X147589356Y-100625762D01*
X147624835Y-100711417D01*
X147649864Y-100771841D01*
X147746118Y-100897282D01*
X147800387Y-100938924D01*
X147841589Y-100995349D01*
X147848900Y-101037298D01*
X147848900Y-109281022D01*
X147829215Y-109348061D01*
X147776411Y-109393816D01*
X147772353Y-109395583D01*
X147622960Y-109457463D01*
X147497518Y-109553718D01*
X147401263Y-109679160D01*
X147340756Y-109825237D01*
X147340755Y-109825239D01*
X147320118Y-109981998D01*
X147320118Y-109982001D01*
X110819023Y-109982001D01*
X115409124Y-105391900D01*
X116496659Y-105391900D01*
X116515975Y-105588029D01*
X116530345Y-105635400D01*
X116561607Y-105738458D01*
X116573188Y-105776633D01*
X116666086Y-105950432D01*
X116666090Y-105950439D01*
X116791116Y-106102783D01*
X116943460Y-106227809D01*
X116943467Y-106227813D01*
X117117266Y-106320711D01*
X117117269Y-106320711D01*
X117117273Y-106320714D01*
X117305868Y-106377924D01*
X117502000Y-106397241D01*
X117698132Y-106377924D01*
X117886727Y-106320714D01*
X118060538Y-106227810D01*
X118212883Y-106102783D01*
X118337910Y-105950438D01*
X118393843Y-105845794D01*
X118430811Y-105776633D01*
X118430811Y-105776632D01*
X118430814Y-105776627D01*
X118488024Y-105588032D01*
X118507341Y-105391900D01*
X118488024Y-105195768D01*
X118430814Y-105007173D01*
X118430811Y-105007169D01*
X118430811Y-105007166D01*
X118337913Y-104833367D01*
X118337909Y-104833360D01*
X118212883Y-104681016D01*
X118060539Y-104555990D01*
X118060532Y-104555986D01*
X117886733Y-104463088D01*
X117886727Y-104463086D01*
X117698132Y-104405876D01*
X117698129Y-104405875D01*
X117502000Y-104386559D01*
X117305870Y-104405875D01*
X117117266Y-104463088D01*
X116943467Y-104555986D01*
X116943460Y-104555990D01*
X116791116Y-104681016D01*
X116666090Y-104833360D01*
X116666086Y-104833367D01*
X116573188Y-105007166D01*
X116515975Y-105195770D01*
X116496659Y-105391900D01*
X115409124Y-105391900D01*
X117417004Y-103384020D01*
X117420965Y-103380390D01*
X117451994Y-103354355D01*
X117451995Y-103354352D01*
X117458967Y-103346045D01*
X117461372Y-103348063D01*
X117495259Y-103315742D01*
X117494601Y-103314601D01*
X117501636Y-103310539D01*
X117501638Y-103310536D01*
X117501641Y-103310536D01*
X117627082Y-103214282D01*
X117723336Y-103088841D01*
X117753712Y-103015506D01*
X117797551Y-102961104D01*
X117863845Y-102939039D01*
X117931545Y-102956318D01*
X117955953Y-102975279D01*
X119534881Y-104554207D01*
X119568366Y-104615530D01*
X119571200Y-104641888D01*
X119571200Y-104997878D01*
X119570964Y-105003285D01*
X119567435Y-105043608D01*
X119577912Y-105082710D01*
X119579083Y-105087990D01*
X119586111Y-105127843D01*
X119587935Y-105132855D01*
X119594897Y-105149661D01*
X119597145Y-105154481D01*
X119597146Y-105154484D01*
X119611152Y-105174487D01*
X119620355Y-105187631D01*
X119623261Y-105192192D01*
X119643506Y-105227255D01*
X119674515Y-105253275D01*
X119678505Y-105256931D01*
X121919468Y-107497895D01*
X121923123Y-107501884D01*
X121949141Y-107532890D01*
X121949143Y-107532891D01*
X121949145Y-107532894D01*
X121984199Y-107553132D01*
X121988759Y-107556037D01*
X122021916Y-107579254D01*
X122021919Y-107579254D01*
X122026776Y-107581520D01*
X122043533Y-107588460D01*
X122048553Y-107590287D01*
X122048555Y-107590288D01*
X122088430Y-107597318D01*
X122093687Y-107598484D01*
X122132793Y-107608963D01*
X122173110Y-107605435D01*
X122178512Y-107605200D01*
X136627178Y-107605200D01*
X136632581Y-107605435D01*
X136672907Y-107608964D01*
X136712040Y-107598477D01*
X136717262Y-107597319D01*
X136757145Y-107590288D01*
X136757150Y-107590284D01*
X136762199Y-107588447D01*
X136778924Y-107581519D01*
X136783781Y-107579254D01*
X136783784Y-107579254D01*
X136816941Y-107556035D01*
X136821490Y-107553138D01*
X136856555Y-107532894D01*
X136856559Y-107532890D01*
X136867637Y-107519686D01*
X136882581Y-107501876D01*
X136886222Y-107497902D01*
X138972124Y-105412000D01*
X142406659Y-105412000D01*
X142425975Y-105608129D01*
X142432301Y-105628982D01*
X142478015Y-105779682D01*
X142483188Y-105796733D01*
X142576086Y-105970532D01*
X142576090Y-105970539D01*
X142701116Y-106122883D01*
X142853460Y-106247909D01*
X142853467Y-106247913D01*
X143027266Y-106340811D01*
X143027269Y-106340811D01*
X143027273Y-106340814D01*
X143215868Y-106398024D01*
X143412000Y-106417341D01*
X143608132Y-106398024D01*
X143796727Y-106340814D01*
X143834332Y-106320714D01*
X143955964Y-106255700D01*
X143970538Y-106247910D01*
X144122883Y-106122883D01*
X144247910Y-105970538D01*
X144318851Y-105837817D01*
X144340811Y-105796733D01*
X144340811Y-105796732D01*
X144340814Y-105796727D01*
X144398024Y-105608132D01*
X144417341Y-105412000D01*
X144398024Y-105215868D01*
X144340814Y-105027273D01*
X144340811Y-105027269D01*
X144340811Y-105027266D01*
X144247913Y-104853467D01*
X144247909Y-104853460D01*
X144122883Y-104701116D01*
X143970539Y-104576090D01*
X143970532Y-104576086D01*
X143796733Y-104483188D01*
X143796727Y-104483186D01*
X143662670Y-104442520D01*
X143608129Y-104425975D01*
X143412000Y-104406659D01*
X143215870Y-104425975D01*
X143027266Y-104483188D01*
X142853467Y-104576086D01*
X142853460Y-104576090D01*
X142701116Y-104701116D01*
X142576090Y-104853460D01*
X142576086Y-104853467D01*
X142483188Y-105027266D01*
X142425975Y-105215870D01*
X142406659Y-105412000D01*
X138972124Y-105412000D01*
X142198156Y-102185968D01*
X142259477Y-102152485D01*
X142329169Y-102157469D01*
X142385102Y-102199341D01*
X142409519Y-102264805D01*
X142409238Y-102285801D01*
X142406659Y-102311994D01*
X142406659Y-102311999D01*
X142406659Y-102312000D01*
X142407361Y-102319126D01*
X142425975Y-102508129D01*
X142425976Y-102508132D01*
X142478015Y-102679682D01*
X142483188Y-102696733D01*
X142576086Y-102870532D01*
X142576090Y-102870539D01*
X142701116Y-103022883D01*
X142853460Y-103147909D01*
X142853467Y-103147913D01*
X143027266Y-103240811D01*
X143027269Y-103240811D01*
X143027273Y-103240814D01*
X143215868Y-103298024D01*
X143412000Y-103317341D01*
X143608132Y-103298024D01*
X143796727Y-103240814D01*
X143798840Y-103239685D01*
X143939152Y-103164686D01*
X143970538Y-103147910D01*
X144122883Y-103022883D01*
X144247910Y-102870538D01*
X144340814Y-102696727D01*
X144398024Y-102508132D01*
X144417341Y-102312000D01*
X144398024Y-102115868D01*
X144340814Y-101927273D01*
X144340811Y-101927269D01*
X144340811Y-101927266D01*
X144247913Y-101753467D01*
X144247909Y-101753460D01*
X144122883Y-101601116D01*
X143970539Y-101476090D01*
X143970532Y-101476086D01*
X143796728Y-101383186D01*
X143680474Y-101347920D01*
X143622036Y-101309623D01*
X143593579Y-101245810D01*
X143604140Y-101176743D01*
X143618090Y-101153780D01*
X143686336Y-101064841D01*
X143746844Y-100918762D01*
X143765095Y-100780129D01*
X143767482Y-100762001D01*
X143767482Y-100761998D01*
X143752376Y-100647256D01*
X143746844Y-100605238D01*
X143686336Y-100459159D01*
X143686335Y-100459158D01*
X143686335Y-100459157D01*
X143631634Y-100387870D01*
X143618094Y-100370224D01*
X143592900Y-100305057D01*
X143606938Y-100236612D01*
X143655752Y-100186622D01*
X143680467Y-100176080D01*
X143796727Y-100140814D01*
X143799158Y-100139515D01*
X143942058Y-100063133D01*
X143970538Y-100047910D01*
X144122883Y-99922883D01*
X144247910Y-99770538D01*
X144334723Y-99608122D01*
X144340811Y-99596733D01*
X144340811Y-99596732D01*
X144340814Y-99596727D01*
X144398024Y-99408132D01*
X144417341Y-99212000D01*
X144398024Y-99015868D01*
X144362928Y-98900172D01*
X144362304Y-98830305D01*
X144399552Y-98771192D01*
X144462846Y-98741601D01*
X144532090Y-98750926D01*
X144569269Y-98776495D01*
X145944181Y-100151407D01*
X145977666Y-100212730D01*
X145980500Y-100239088D01*
X145980500Y-105912120D01*
X145960815Y-105979159D01*
X145931987Y-106010495D01*
X145878922Y-106051214D01*
X145878920Y-106051216D01*
X145878918Y-106051218D01*
X145828177Y-106117345D01*
X145782663Y-106176660D01*
X145722156Y-106322737D01*
X145722155Y-106322739D01*
X145701518Y-106479498D01*
X145701518Y-106479501D01*
X145722155Y-106636260D01*
X145722156Y-106636262D01*
X145746730Y-106695590D01*
X145782664Y-106782341D01*
X145878918Y-106907782D01*
X146004359Y-107004036D01*
X146150438Y-107064544D01*
X146228819Y-107074863D01*
X146307199Y-107085182D01*
X146307200Y-107085182D01*
X146307201Y-107085182D01*
X146359454Y-107078302D01*
X146463962Y-107064544D01*
X146610041Y-107004036D01*
X146735482Y-106907782D01*
X146831736Y-106782341D01*
X146892244Y-106636262D01*
X146912882Y-106479500D01*
X146909216Y-106451657D01*
X146894266Y-106338094D01*
X146892244Y-106322738D01*
X146831736Y-106176659D01*
X146735482Y-106051218D01*
X146680011Y-106008654D01*
X146638811Y-105952228D01*
X146631500Y-105910280D01*
X146631500Y-100239088D01*
X146651185Y-100172049D01*
X146667819Y-100151407D01*
X158312007Y-88507219D01*
X158373330Y-88473734D01*
X158399688Y-88470900D01*
X165135878Y-88470900D01*
X165141281Y-88471135D01*
X165181607Y-88474664D01*
X165220740Y-88464177D01*
X165225962Y-88463019D01*
X165265845Y-88455988D01*
X165265850Y-88455984D01*
X165270899Y-88454147D01*
X165287624Y-88447219D01*
X165292481Y-88444954D01*
X165292484Y-88444954D01*
X165325641Y-88421735D01*
X165330190Y-88418838D01*
X165365255Y-88398594D01*
X165391281Y-88367576D01*
X165394922Y-88363602D01*
X166482204Y-87276320D01*
X166486166Y-87272689D01*
X166517194Y-87246655D01*
X166537438Y-87211590D01*
X166540335Y-87207041D01*
X166563554Y-87173884D01*
X166563554Y-87173881D01*
X166565819Y-87169024D01*
X166572747Y-87152299D01*
X166574587Y-87147246D01*
X166574588Y-87147245D01*
X166581621Y-87107350D01*
X166582777Y-87102137D01*
X166593263Y-87063007D01*
X166589735Y-87022689D01*
X166589500Y-87017286D01*
X166589500Y-86464593D01*
X166609185Y-86397554D01*
X166661989Y-86351799D01*
X166663007Y-86351338D01*
X166691593Y-86338612D01*
X166836230Y-86233526D01*
X166837177Y-86232475D01*
X166871726Y-86194104D01*
X166955859Y-86100665D01*
X167045250Y-85945835D01*
X167100497Y-85775803D01*
X167119185Y-85598000D01*
X167100497Y-85420197D01*
X167061290Y-85299531D01*
X167045252Y-85250170D01*
X167045249Y-85250164D01*
X167038437Y-85238365D01*
X166955859Y-85095335D01*
X166893289Y-85025844D01*
X166836235Y-84962478D01*
X166836232Y-84962476D01*
X166836231Y-84962475D01*
X166836230Y-84962474D01*
X166691593Y-84857388D01*
X166528267Y-84784671D01*
X166528265Y-84784670D01*
X166400594Y-84757533D01*
X166353391Y-84747500D01*
X166268000Y-84747500D01*
X166200961Y-84727815D01*
X166155206Y-84675011D01*
X166144000Y-84623500D01*
X166144000Y-84578000D01*
X165273560Y-84578000D01*
X165312278Y-84535941D01*
X165362551Y-84421330D01*
X165372886Y-84296605D01*
X165342163Y-84175281D01*
X165278606Y-84078000D01*
X166144000Y-84078000D01*
X166144000Y-83630172D01*
X166143999Y-83630155D01*
X166137598Y-83570627D01*
X166137596Y-83570620D01*
X166087354Y-83435913D01*
X166087350Y-83435906D01*
X166001190Y-83320812D01*
X166001187Y-83320809D01*
X165886093Y-83234649D01*
X165886086Y-83234645D01*
X165751379Y-83184403D01*
X165751372Y-83184401D01*
X165691844Y-83178000D01*
X165244000Y-83178000D01*
X165244000Y-84047382D01*
X165174948Y-83993637D01*
X165056576Y-83953000D01*
X164962927Y-83953000D01*
X164870554Y-83968414D01*
X164760486Y-84027981D01*
X164744000Y-84045889D01*
X164744000Y-83178000D01*
X164296155Y-83178000D01*
X164236627Y-83184401D01*
X164236620Y-83184403D01*
X164101913Y-83234645D01*
X164101906Y-83234649D01*
X163986812Y-83320809D01*
X163986809Y-83320812D01*
X163900649Y-83435906D01*
X163900645Y-83435913D01*
X163850403Y-83570620D01*
X163850401Y-83570627D01*
X163844000Y-83630155D01*
X163844000Y-84078000D01*
X164714440Y-84078000D01*
X164675722Y-84120059D01*
X164625449Y-84234670D01*
X164615114Y-84359395D01*
X164645837Y-84480719D01*
X164709394Y-84578000D01*
X163844000Y-84578000D01*
X163844000Y-85025844D01*
X163850401Y-85085372D01*
X163850403Y-85085379D01*
X163900645Y-85220086D01*
X163900649Y-85220093D01*
X163986809Y-85335187D01*
X163986812Y-85335190D01*
X164101906Y-85421350D01*
X164101913Y-85421354D01*
X164236620Y-85471596D01*
X164236627Y-85471598D01*
X164296155Y-85477999D01*
X164296172Y-85478000D01*
X164744000Y-85478000D01*
X164744000Y-84608617D01*
X164813052Y-84662363D01*
X164931424Y-84703000D01*
X165025073Y-84703000D01*
X165117446Y-84687586D01*
X165227514Y-84628019D01*
X165244000Y-84610110D01*
X165244000Y-85478000D01*
X165284815Y-85478000D01*
X165351854Y-85497685D01*
X165397609Y-85550489D01*
X165406574Y-85591701D01*
X165408136Y-85591537D01*
X165427503Y-85775805D01*
X165427504Y-85775807D01*
X165475996Y-85925051D01*
X165477991Y-85994893D01*
X165441910Y-86054725D01*
X165379209Y-86085553D01*
X165309795Y-86077588D01*
X165307656Y-86076660D01*
X165258267Y-86054671D01*
X165258265Y-86054670D01*
X165130594Y-86027533D01*
X165083391Y-86017500D01*
X164904609Y-86017500D01*
X164873954Y-86024015D01*
X164729733Y-86054670D01*
X164729728Y-86054672D01*
X164566408Y-86127387D01*
X164421768Y-86232475D01*
X164302139Y-86365336D01*
X164235650Y-86480500D01*
X164185083Y-86528716D01*
X164128263Y-86542500D01*
X157145910Y-86542500D01*
X157078871Y-86522815D01*
X157050921Y-86498206D01*
X157041358Y-86486809D01*
X157041356Y-86486807D01*
X157041355Y-86486806D01*
X157025547Y-86477679D01*
X157006292Y-86466561D01*
X157001731Y-86463655D01*
X156988587Y-86454452D01*
X156968584Y-86440446D01*
X156968581Y-86440445D01*
X156963761Y-86438197D01*
X156946955Y-86431235D01*
X156941943Y-86429411D01*
X156902090Y-86422383D01*
X156896810Y-86421212D01*
X156857707Y-86410735D01*
X156837307Y-86412520D01*
X156768807Y-86398753D01*
X156718624Y-86350138D01*
X156702500Y-86288992D01*
X156702500Y-85920249D01*
X156702499Y-85920247D01*
X156690868Y-85861770D01*
X156690867Y-85861769D01*
X156646552Y-85795447D01*
X156580230Y-85751132D01*
X156580229Y-85751131D01*
X156521752Y-85739500D01*
X156521748Y-85739500D01*
X156399308Y-85739500D01*
X156332269Y-85719815D01*
X156311627Y-85703181D01*
X155746401Y-85137953D01*
X155827148Y-85125165D01*
X155940045Y-85067641D01*
X156029641Y-84978045D01*
X156087165Y-84865148D01*
X156099953Y-84784400D01*
X156781025Y-85465472D01*
X156832136Y-85392478D01*
X156928264Y-85186331D01*
X156928269Y-85186317D01*
X156987139Y-84966610D01*
X156987141Y-84966599D01*
X157006966Y-84740002D01*
X157006966Y-84739997D01*
X156987141Y-84513400D01*
X156987139Y-84513389D01*
X156928269Y-84293682D01*
X156928265Y-84293673D01*
X156832133Y-84087516D01*
X156832131Y-84087512D01*
X156781026Y-84014526D01*
X156781025Y-84014526D01*
X156099953Y-84695598D01*
X156087165Y-84614852D01*
X156029641Y-84501955D01*
X155940045Y-84412359D01*
X155827148Y-84354835D01*
X155746400Y-84342046D01*
X156427472Y-83660974D01*
X156427471Y-83660973D01*
X156354483Y-83609866D01*
X156354481Y-83609865D01*
X156148326Y-83513734D01*
X156148317Y-83513730D01*
X155928610Y-83454860D01*
X155928599Y-83454858D01*
X155702002Y-83435034D01*
X155701998Y-83435034D01*
X155475400Y-83454858D01*
X155475389Y-83454860D01*
X155255682Y-83513730D01*
X155255673Y-83513734D01*
X155049513Y-83609868D01*
X154976527Y-83660972D01*
X154976526Y-83660973D01*
X155657600Y-84342046D01*
X155576852Y-84354835D01*
X155463955Y-84412359D01*
X155374359Y-84501955D01*
X155316835Y-84614852D01*
X155304046Y-84695599D01*
X154622973Y-84014526D01*
X154622972Y-84014527D01*
X154571868Y-84087513D01*
X154475734Y-84293673D01*
X154475730Y-84293682D01*
X154416860Y-84513389D01*
X154416858Y-84513400D01*
X154397034Y-84739997D01*
X154397034Y-84740002D01*
X154416858Y-84966599D01*
X154416860Y-84966610D01*
X154475730Y-85186317D01*
X154475734Y-85186326D01*
X154571865Y-85392481D01*
X154571866Y-85392483D01*
X154622973Y-85465471D01*
X154622974Y-85465472D01*
X155304046Y-84784399D01*
X155316835Y-84865148D01*
X155374359Y-84978045D01*
X155463955Y-85067641D01*
X155576852Y-85125165D01*
X155657598Y-85137953D01*
X155092373Y-85703181D01*
X155031050Y-85736666D01*
X155004692Y-85739500D01*
X154882247Y-85739500D01*
X154823770Y-85751131D01*
X154823769Y-85751132D01*
X154757447Y-85795447D01*
X154713132Y-85861769D01*
X154713131Y-85861770D01*
X154701500Y-85920247D01*
X154701500Y-87469611D01*
X154681815Y-87536650D01*
X154665181Y-87557292D01*
X154386293Y-87836181D01*
X154324970Y-87869666D01*
X154298612Y-87872500D01*
X152260282Y-87872500D01*
X152193243Y-87852815D01*
X152147488Y-87800011D01*
X152137544Y-87730853D01*
X152158710Y-87677373D01*
X152162131Y-87672487D01*
X152162133Y-87672483D01*
X152258265Y-87466326D01*
X152258269Y-87466317D01*
X152317139Y-87246610D01*
X152317141Y-87246599D01*
X152336966Y-87020002D01*
X152336966Y-87019997D01*
X152317141Y-86793400D01*
X152317139Y-86793389D01*
X152258269Y-86573682D01*
X152258265Y-86573673D01*
X152162133Y-86367516D01*
X152162131Y-86367512D01*
X152111025Y-86294526D01*
X151429953Y-86975598D01*
X151417165Y-86894852D01*
X151359641Y-86781955D01*
X151270045Y-86692359D01*
X151157148Y-86634835D01*
X151076400Y-86622046D01*
X151757472Y-85940974D01*
X151757471Y-85940973D01*
X151684483Y-85889866D01*
X151684481Y-85889865D01*
X151478326Y-85793734D01*
X151478317Y-85793730D01*
X151258610Y-85734860D01*
X151258599Y-85734858D01*
X151032002Y-85715034D01*
X151031998Y-85715034D01*
X150805400Y-85734858D01*
X150805389Y-85734860D01*
X150585682Y-85793730D01*
X150585673Y-85793734D01*
X150379513Y-85889868D01*
X150306527Y-85940972D01*
X150306526Y-85940973D01*
X150987600Y-86622046D01*
X150906852Y-86634835D01*
X150793955Y-86692359D01*
X150704359Y-86781955D01*
X150646835Y-86894852D01*
X150634046Y-86975600D01*
X149952973Y-86294527D01*
X149901868Y-86367513D01*
X149805734Y-86573673D01*
X149805730Y-86573682D01*
X149746860Y-86793389D01*
X149746858Y-86793400D01*
X149727034Y-87019997D01*
X149727034Y-87020002D01*
X149746858Y-87246599D01*
X149746860Y-87246610D01*
X149805730Y-87466317D01*
X149805734Y-87466326D01*
X149901866Y-87672483D01*
X149901868Y-87672487D01*
X149905290Y-87677373D01*
X149927620Y-87743578D01*
X149910612Y-87811346D01*
X149859666Y-87859161D01*
X149803718Y-87872500D01*
X147396188Y-87872500D01*
X147329149Y-87852815D01*
X147308507Y-87836181D01*
X146993873Y-87521547D01*
X146960388Y-87460224D01*
X146962894Y-87397870D01*
X147018024Y-87216132D01*
X147037341Y-87020000D01*
X147018024Y-86823868D01*
X146960814Y-86635273D01*
X146960811Y-86635269D01*
X146960811Y-86635266D01*
X146867913Y-86461467D01*
X146867909Y-86461460D01*
X146742883Y-86309116D01*
X146590539Y-86184090D01*
X146590532Y-86184086D01*
X146416733Y-86091188D01*
X146416727Y-86091186D01*
X146228132Y-86033976D01*
X146228129Y-86033975D01*
X146032000Y-86014659D01*
X145835870Y-86033975D01*
X145647266Y-86091188D01*
X145473467Y-86184086D01*
X145473460Y-86184090D01*
X145321116Y-86309116D01*
X145196090Y-86461460D01*
X145196086Y-86461467D01*
X145103188Y-86635266D01*
X145045975Y-86823870D01*
X145026659Y-87020000D01*
X145045975Y-87216129D01*
X145045976Y-87216132D01*
X145099057Y-87391117D01*
X145103188Y-87404733D01*
X145196086Y-87578532D01*
X145196090Y-87578539D01*
X145321116Y-87730883D01*
X145473460Y-87855909D01*
X145473467Y-87855913D01*
X145647266Y-87948811D01*
X145647269Y-87948811D01*
X145647273Y-87948814D01*
X145835868Y-88006024D01*
X146032000Y-88025341D01*
X146228132Y-88006024D01*
X146409870Y-87950893D01*
X146479737Y-87950270D01*
X146533547Y-87981873D01*
X146967863Y-88416189D01*
X146971518Y-88420178D01*
X146997541Y-88451190D01*
X146997543Y-88451191D01*
X146997545Y-88451194D01*
X146997547Y-88451195D01*
X146997548Y-88451196D01*
X147032599Y-88471433D01*
X147037162Y-88474339D01*
X147070316Y-88497554D01*
X147070319Y-88497554D01*
X147075176Y-88499820D01*
X147091933Y-88506760D01*
X147096953Y-88508587D01*
X147096955Y-88508588D01*
X147132806Y-88514909D01*
X147136808Y-88515615D01*
X147142080Y-88516783D01*
X147181193Y-88527264D01*
X147221522Y-88523735D01*
X147226924Y-88523500D01*
X154467878Y-88523500D01*
X154473281Y-88523735D01*
X154513607Y-88527264D01*
X154552740Y-88516777D01*
X154557962Y-88515619D01*
X154597845Y-88508588D01*
X154597850Y-88508584D01*
X154602899Y-88506747D01*
X154619624Y-88499819D01*
X154624481Y-88497554D01*
X154624484Y-88497554D01*
X154657641Y-88474335D01*
X154662190Y-88471438D01*
X154697255Y-88451194D01*
X154697259Y-88451190D01*
X154708337Y-88437986D01*
X154723281Y-88420176D01*
X154726922Y-88416202D01*
X155366307Y-87776819D01*
X155427630Y-87743334D01*
X155453988Y-87740500D01*
X156521750Y-87740500D01*
X156521751Y-87740499D01*
X156536568Y-87737552D01*
X156580229Y-87728868D01*
X156580229Y-87728867D01*
X156580231Y-87728867D01*
X156646552Y-87684552D01*
X156690867Y-87618231D01*
X156690867Y-87618229D01*
X156690868Y-87618229D01*
X156702499Y-87559752D01*
X156702500Y-87559750D01*
X156702500Y-87301440D01*
X156722185Y-87234401D01*
X156774989Y-87188646D01*
X156844147Y-87178702D01*
X156848012Y-87179321D01*
X156883708Y-87185614D01*
X156888987Y-87186784D01*
X156928093Y-87197263D01*
X156968410Y-87193735D01*
X156973812Y-87193500D01*
X164128263Y-87193500D01*
X164195302Y-87213185D01*
X164235650Y-87255500D01*
X164302140Y-87370663D01*
X164302139Y-87370663D01*
X164421764Y-87503521D01*
X164421767Y-87503523D01*
X164421770Y-87503526D01*
X164548473Y-87595582D01*
X164591138Y-87650913D01*
X164597117Y-87720526D01*
X164564511Y-87782321D01*
X164503672Y-87816678D01*
X164475587Y-87819900D01*
X158230422Y-87819900D01*
X158225018Y-87819664D01*
X158219607Y-87819190D01*
X158184692Y-87816135D01*
X158184691Y-87816135D01*
X158145591Y-87826612D01*
X158140311Y-87827783D01*
X158100459Y-87834810D01*
X158095461Y-87836629D01*
X158078617Y-87843606D01*
X158073813Y-87845846D01*
X158040666Y-87869056D01*
X158036106Y-87871962D01*
X158001048Y-87892204D01*
X158001040Y-87892210D01*
X157975023Y-87923215D01*
X157971369Y-87927204D01*
X146393680Y-99504892D01*
X146332357Y-99538377D01*
X146262665Y-99533393D01*
X146218318Y-99504892D01*
X143865130Y-97151704D01*
X143831645Y-97090381D01*
X143836629Y-97020689D01*
X143878501Y-96964756D01*
X143894358Y-96954665D01*
X143994914Y-96900916D01*
X144000538Y-96897910D01*
X144152883Y-96772883D01*
X144277910Y-96620538D01*
X144370814Y-96446727D01*
X144428024Y-96258132D01*
X144447341Y-96062000D01*
X144428024Y-95865868D01*
X144370814Y-95677273D01*
X144370811Y-95677269D01*
X144370811Y-95677266D01*
X144277913Y-95503467D01*
X144277909Y-95503460D01*
X144152883Y-95351116D01*
X144000539Y-95226090D01*
X144000532Y-95226086D01*
X143826733Y-95133188D01*
X143826727Y-95133186D01*
X143638132Y-95075976D01*
X143638129Y-95075975D01*
X143442000Y-95056659D01*
X143245870Y-95075975D01*
X143057266Y-95133188D01*
X142883467Y-95226086D01*
X142883460Y-95226090D01*
X142731116Y-95351116D01*
X142606090Y-95503460D01*
X142606086Y-95503467D01*
X142513188Y-95677266D01*
X142455975Y-95865870D01*
X142436659Y-96062000D01*
X142455975Y-96258129D01*
X142463510Y-96282969D01*
X142513074Y-96446359D01*
X142513188Y-96446733D01*
X142606086Y-96620532D01*
X142606090Y-96620539D01*
X142731116Y-96772883D01*
X142883460Y-96897909D01*
X142883467Y-96897913D01*
X143050953Y-96987436D01*
X143100797Y-97036398D01*
X143116500Y-97096794D01*
X143116500Y-97171978D01*
X143116264Y-97177385D01*
X143112735Y-97217708D01*
X143123212Y-97256810D01*
X143124383Y-97262090D01*
X143131411Y-97301943D01*
X143133235Y-97306955D01*
X143140197Y-97323761D01*
X143142445Y-97328581D01*
X143142446Y-97328584D01*
X143150584Y-97340206D01*
X143165655Y-97361731D01*
X143168561Y-97366292D01*
X143188806Y-97401355D01*
X143219815Y-97427375D01*
X143223805Y-97431031D01*
X143847504Y-98054730D01*
X143880989Y-98116053D01*
X143876005Y-98185745D01*
X143834133Y-98241678D01*
X143768669Y-98266095D01*
X143723828Y-98261072D01*
X143608130Y-98225975D01*
X143412000Y-98206659D01*
X143215870Y-98225975D01*
X143027266Y-98283188D01*
X142853467Y-98376086D01*
X142853460Y-98376090D01*
X142701116Y-98501116D01*
X142576090Y-98653460D01*
X142576086Y-98653467D01*
X142483188Y-98827266D01*
X142425975Y-99015870D01*
X142406659Y-99212000D01*
X142425975Y-99408129D01*
X142425976Y-99408132D01*
X142482034Y-99592931D01*
X142483188Y-99596733D01*
X142576086Y-99770532D01*
X142576090Y-99770539D01*
X142701116Y-99922883D01*
X142854709Y-100048934D01*
X142894043Y-100106680D01*
X142895914Y-100176524D01*
X142859726Y-100236293D01*
X142851531Y-100243162D01*
X142733520Y-100333715D01*
X142637263Y-100459160D01*
X142576756Y-100605237D01*
X142576755Y-100605239D01*
X142556118Y-100761998D01*
X142556118Y-100762001D01*
X142565046Y-100829818D01*
X142554280Y-100898853D01*
X142529788Y-100933684D01*
X136545593Y-106917881D01*
X136484270Y-106951366D01*
X136457912Y-106954200D01*
X134073087Y-106954200D01*
X134006048Y-106934515D01*
X133960293Y-106881711D01*
X133950349Y-106812553D01*
X133979374Y-106748997D01*
X133985406Y-106742519D01*
X134145791Y-106582134D01*
X134689715Y-106038209D01*
X134693666Y-106034589D01*
X134724694Y-106008555D01*
X134744938Y-105973490D01*
X134747835Y-105968941D01*
X134771054Y-105935784D01*
X134771054Y-105935781D01*
X134773319Y-105930924D01*
X134780247Y-105914199D01*
X134782084Y-105909150D01*
X134782088Y-105909145D01*
X134789119Y-105869262D01*
X134790277Y-105864040D01*
X134800764Y-105824907D01*
X134797235Y-105784581D01*
X134797000Y-105779178D01*
X134797000Y-94168420D01*
X134797236Y-94163013D01*
X134800764Y-94122693D01*
X134790282Y-94083576D01*
X134789116Y-94078318D01*
X134782088Y-94038455D01*
X134782086Y-94038452D01*
X134782086Y-94038450D01*
X134780260Y-94033433D01*
X134773320Y-94016676D01*
X134771054Y-94011819D01*
X134771054Y-94011816D01*
X134761168Y-93997698D01*
X134747840Y-93978663D01*
X134744933Y-93974099D01*
X134724696Y-93939048D01*
X134724695Y-93939047D01*
X134724694Y-93939045D01*
X134693677Y-93913018D01*
X134689693Y-93909367D01*
X134243873Y-93463547D01*
X134210388Y-93402224D01*
X134212894Y-93339870D01*
X134268024Y-93158132D01*
X134287341Y-92962000D01*
X134268024Y-92765868D01*
X134210814Y-92577273D01*
X134210811Y-92577269D01*
X134210811Y-92577266D01*
X134117913Y-92403467D01*
X134117909Y-92403460D01*
X133992883Y-92251116D01*
X133840539Y-92126090D01*
X133840532Y-92126086D01*
X133666733Y-92033188D01*
X133666727Y-92033186D01*
X133478132Y-91975976D01*
X133478129Y-91975975D01*
X133282000Y-91956659D01*
X133085870Y-91975975D01*
X132897266Y-92033188D01*
X132723467Y-92126086D01*
X132723461Y-92126090D01*
X132654764Y-92182468D01*
X132590454Y-92209780D01*
X132521587Y-92197989D01*
X132470027Y-92150836D01*
X132452100Y-92086614D01*
X132452100Y-91203587D01*
X132471785Y-91136548D01*
X132488415Y-91115910D01*
X132780452Y-90823872D01*
X132841775Y-90790388D01*
X132904126Y-90792892D01*
X133085868Y-90848024D01*
X133282000Y-90867341D01*
X133478132Y-90848024D01*
X133666727Y-90790814D01*
X133670155Y-90788982D01*
X133763926Y-90738860D01*
X133840538Y-90697910D01*
X133992883Y-90572883D01*
X134117910Y-90420538D01*
X134196670Y-90273188D01*
X134210811Y-90246733D01*
X134210811Y-90246732D01*
X134210814Y-90246727D01*
X134268024Y-90058132D01*
X134287341Y-89862000D01*
X134268024Y-89665868D01*
X134210814Y-89477273D01*
X134210811Y-89477269D01*
X134210811Y-89477266D01*
X134117913Y-89303467D01*
X134117909Y-89303460D01*
X133992883Y-89151116D01*
X133840539Y-89026090D01*
X133840532Y-89026085D01*
X133673047Y-88936563D01*
X133623202Y-88887601D01*
X133607500Y-88827205D01*
X133607500Y-87746794D01*
X133627185Y-87679755D01*
X133673047Y-87637436D01*
X133818387Y-87559750D01*
X133840538Y-87547910D01*
X133992883Y-87422883D01*
X134117910Y-87270538D01*
X134183812Y-87147245D01*
X134210811Y-87096733D01*
X134210811Y-87096732D01*
X134210814Y-87096727D01*
X134268024Y-86908132D01*
X134287341Y-86712000D01*
X134268024Y-86515868D01*
X134210814Y-86327273D01*
X134210811Y-86327269D01*
X134210811Y-86327266D01*
X134117913Y-86153467D01*
X134117909Y-86153460D01*
X133992883Y-86001116D01*
X133840539Y-85876090D01*
X133840532Y-85876086D01*
X133666733Y-85783188D01*
X133666727Y-85783186D01*
X133513372Y-85736666D01*
X133478129Y-85725975D01*
X133282000Y-85706659D01*
X133085870Y-85725975D01*
X132897266Y-85783188D01*
X132723467Y-85876086D01*
X132723460Y-85876090D01*
X132571116Y-86001116D01*
X132446090Y-86153460D01*
X132446086Y-86153467D01*
X132353188Y-86327266D01*
X132295975Y-86515870D01*
X132276659Y-86712000D01*
X132295975Y-86908129D01*
X132353188Y-87096733D01*
X132446086Y-87270532D01*
X132446090Y-87270539D01*
X132571116Y-87422883D01*
X132723460Y-87547909D01*
X132723467Y-87547913D01*
X132890953Y-87637436D01*
X132940797Y-87686398D01*
X132956500Y-87746794D01*
X132956500Y-88827205D01*
X132936815Y-88894244D01*
X132890953Y-88936563D01*
X132723467Y-89026085D01*
X132723460Y-89026090D01*
X132571116Y-89151116D01*
X132446090Y-89303460D01*
X132446086Y-89303467D01*
X132353188Y-89477266D01*
X132295975Y-89665870D01*
X132276659Y-89862000D01*
X132295975Y-90058130D01*
X132351106Y-90239870D01*
X132351729Y-90309736D01*
X132320126Y-90363546D01*
X131908403Y-90775270D01*
X131904414Y-90778925D01*
X131873405Y-90804945D01*
X131853162Y-90840006D01*
X131850256Y-90844566D01*
X131827046Y-90877713D01*
X131824806Y-90882517D01*
X131817829Y-90899361D01*
X131816010Y-90904359D01*
X131808983Y-90944211D01*
X131807812Y-90949491D01*
X131797335Y-90988591D01*
X131800864Y-91028913D01*
X131801100Y-91034320D01*
X131801100Y-94889678D01*
X131800864Y-94895085D01*
X131797335Y-94935408D01*
X131807812Y-94974510D01*
X131808983Y-94979790D01*
X131816011Y-95019643D01*
X131817835Y-95024655D01*
X131824797Y-95041461D01*
X131827045Y-95046281D01*
X131827046Y-95046284D01*
X131834311Y-95056659D01*
X131850255Y-95079431D01*
X131853161Y-95083992D01*
X131873406Y-95119055D01*
X131904415Y-95145075D01*
X131908405Y-95148731D01*
X132320126Y-95560452D01*
X132353611Y-95621775D01*
X132351106Y-95684128D01*
X132295975Y-95865869D01*
X132276659Y-96062000D01*
X132295975Y-96258129D01*
X132303510Y-96282969D01*
X132353074Y-96446359D01*
X132353188Y-96446733D01*
X132446086Y-96620532D01*
X132446090Y-96620539D01*
X132571116Y-96772883D01*
X132723460Y-96897909D01*
X132723463Y-96897911D01*
X132744956Y-96909399D01*
X132860954Y-96971401D01*
X132910797Y-97020361D01*
X132926500Y-97080758D01*
X132926500Y-98177205D01*
X132906815Y-98244244D01*
X132860953Y-98286563D01*
X132693467Y-98376085D01*
X132693460Y-98376090D01*
X132541116Y-98501116D01*
X132416090Y-98653460D01*
X132416086Y-98653467D01*
X132323188Y-98827266D01*
X132265975Y-99015870D01*
X132246659Y-99212000D01*
X132265975Y-99408129D01*
X132265976Y-99408132D01*
X132322034Y-99592931D01*
X132323188Y-99596733D01*
X132416086Y-99770532D01*
X132416090Y-99770539D01*
X132541116Y-99922883D01*
X132693460Y-100047909D01*
X132693467Y-100047913D01*
X132867266Y-100140811D01*
X132867269Y-100140811D01*
X132867273Y-100140814D01*
X133055868Y-100198024D01*
X133252000Y-100217341D01*
X133448132Y-100198024D01*
X133636727Y-100140814D01*
X133639158Y-100139515D01*
X133782058Y-100063133D01*
X133810538Y-100047910D01*
X133901847Y-99972974D01*
X133943335Y-99938926D01*
X134007645Y-99911613D01*
X134076512Y-99923404D01*
X134128073Y-99970556D01*
X134146000Y-100034779D01*
X134146000Y-101489220D01*
X134126315Y-101556259D01*
X134073511Y-101602014D01*
X134004353Y-101611958D01*
X133943335Y-101585073D01*
X133826537Y-101489220D01*
X133810538Y-101476090D01*
X133810536Y-101476089D01*
X133810532Y-101476086D01*
X133636733Y-101383188D01*
X133636727Y-101383186D01*
X133448132Y-101325976D01*
X133448129Y-101325975D01*
X133252000Y-101306659D01*
X133055870Y-101325975D01*
X132867266Y-101383188D01*
X132693467Y-101476086D01*
X132693460Y-101476090D01*
X132541116Y-101601116D01*
X132416090Y-101753460D01*
X132416085Y-101753467D01*
X132326563Y-101920953D01*
X132277601Y-101970798D01*
X132217205Y-101986500D01*
X130314188Y-101986500D01*
X130247149Y-101966815D01*
X130226507Y-101950181D01*
X130067401Y-101791075D01*
X130033916Y-101729752D01*
X130038900Y-101660060D01*
X130080772Y-101604127D01*
X130142927Y-101579991D01*
X130244132Y-101570024D01*
X130432727Y-101512814D01*
X130447137Y-101505112D01*
X130574256Y-101437165D01*
X130606538Y-101419910D01*
X130758883Y-101294883D01*
X130883910Y-101142538D01*
X130976814Y-100968727D01*
X131034024Y-100780132D01*
X131053341Y-100584000D01*
X131034024Y-100387868D01*
X130976814Y-100199273D01*
X130976811Y-100199269D01*
X130976811Y-100199266D01*
X130883913Y-100025467D01*
X130883909Y-100025460D01*
X130758883Y-99873116D01*
X130606539Y-99748090D01*
X130606532Y-99748086D01*
X130432733Y-99655188D01*
X130432727Y-99655186D01*
X130303766Y-99616066D01*
X130244129Y-99597975D01*
X130048000Y-99578659D01*
X129851870Y-99597975D01*
X129663266Y-99655188D01*
X129489467Y-99748086D01*
X129489460Y-99748090D01*
X129337116Y-99873116D01*
X129212090Y-100025460D01*
X129212088Y-100025464D01*
X129196437Y-100054745D01*
X129147474Y-100104589D01*
X129079336Y-100120049D01*
X129013656Y-100096217D01*
X128999398Y-100083972D01*
X128811579Y-99896153D01*
X128778094Y-99834830D01*
X128783078Y-99765138D01*
X128824950Y-99709205D01*
X128851804Y-99693913D01*
X128925141Y-99663536D01*
X129050582Y-99567282D01*
X129146836Y-99441841D01*
X129207344Y-99295762D01*
X129227982Y-99139000D01*
X129224897Y-99115570D01*
X129207344Y-98982239D01*
X129207344Y-98982238D01*
X129146836Y-98836159D01*
X129066557Y-98731538D01*
X129041365Y-98666371D01*
X129055403Y-98597927D01*
X129104217Y-98547937D01*
X129172308Y-98532273D01*
X129236059Y-98554479D01*
X129395517Y-98666134D01*
X129601673Y-98762265D01*
X129601682Y-98762269D01*
X129797999Y-98814872D01*
X129798000Y-98814871D01*
X129798000Y-97851686D01*
X129809955Y-97863641D01*
X129922852Y-97921165D01*
X130016519Y-97936000D01*
X130079481Y-97936000D01*
X130173148Y-97921165D01*
X130286045Y-97863641D01*
X130298000Y-97851686D01*
X130298000Y-98814872D01*
X130494317Y-98762269D01*
X130494326Y-98762265D01*
X130700482Y-98666134D01*
X130886820Y-98535657D01*
X131047657Y-98374820D01*
X131178134Y-98188482D01*
X131274265Y-97982326D01*
X131274269Y-97982317D01*
X131326872Y-97786000D01*
X130363686Y-97786000D01*
X130375641Y-97774045D01*
X130433165Y-97661148D01*
X130452986Y-97536000D01*
X130433165Y-97410852D01*
X130375641Y-97297955D01*
X130363686Y-97286000D01*
X131326872Y-97286000D01*
X131326872Y-97285999D01*
X131274269Y-97089682D01*
X131274265Y-97089673D01*
X131178134Y-96883517D01*
X131047657Y-96697179D01*
X130886820Y-96536342D01*
X130700482Y-96405865D01*
X130494326Y-96309734D01*
X130494317Y-96309730D01*
X130274610Y-96250860D01*
X130274600Y-96250858D01*
X130169632Y-96241675D01*
X130104564Y-96216222D01*
X130063585Y-96159632D01*
X130059707Y-96089870D01*
X130092757Y-96030468D01*
X130266210Y-95857015D01*
X130270172Y-95853384D01*
X130301194Y-95827355D01*
X130321444Y-95792279D01*
X130324328Y-95787752D01*
X130347554Y-95754584D01*
X130347554Y-95754581D01*
X130349819Y-95749724D01*
X130356747Y-95732999D01*
X130358587Y-95727946D01*
X130358588Y-95727945D01*
X130365621Y-95688050D01*
X130366777Y-95682837D01*
X130377263Y-95643707D01*
X130373735Y-95603389D01*
X130373500Y-95597986D01*
X130373500Y-95522794D01*
X130393185Y-95455755D01*
X130439047Y-95413436D01*
X130555639Y-95351116D01*
X130606538Y-95323910D01*
X130758883Y-95198883D01*
X130883910Y-95046538D01*
X130946286Y-94929841D01*
X130976811Y-94872733D01*
X130976811Y-94872732D01*
X130976814Y-94872727D01*
X131034024Y-94684132D01*
X131053341Y-94488000D01*
X131034024Y-94291868D01*
X130976814Y-94103273D01*
X130976811Y-94103269D01*
X130976811Y-94103266D01*
X130883913Y-93929467D01*
X130883909Y-93929460D01*
X130758883Y-93777116D01*
X130606539Y-93652090D01*
X130606532Y-93652086D01*
X130432733Y-93559188D01*
X130432727Y-93559186D01*
X130244132Y-93501976D01*
X130244129Y-93501975D01*
X130048000Y-93482659D01*
X129851870Y-93501975D01*
X129663266Y-93559188D01*
X129489467Y-93652086D01*
X129489460Y-93652090D01*
X129337116Y-93777116D01*
X129212090Y-93929460D01*
X129212086Y-93929467D01*
X129119188Y-94103266D01*
X129061975Y-94291870D01*
X129042659Y-94488000D01*
X129061975Y-94684129D01*
X129061976Y-94684132D01*
X129109442Y-94840607D01*
X129119188Y-94872733D01*
X129212086Y-95046532D01*
X129212090Y-95046539D01*
X129337116Y-95198883D01*
X129435726Y-95279810D01*
X129489462Y-95323910D01*
X129595643Y-95380664D01*
X129645485Y-95429626D01*
X129660946Y-95497763D01*
X129637115Y-95563443D01*
X129624869Y-95577703D01*
X128404103Y-96798470D01*
X128400114Y-96802125D01*
X128369105Y-96828145D01*
X128348862Y-96863206D01*
X128345956Y-96867766D01*
X128322746Y-96900913D01*
X128320506Y-96905717D01*
X128313529Y-96922561D01*
X128311710Y-96927559D01*
X128304683Y-96967411D01*
X128303512Y-96972691D01*
X128293035Y-97011791D01*
X128296564Y-97052113D01*
X128296800Y-97057520D01*
X128296800Y-98570699D01*
X128277115Y-98637738D01*
X128248288Y-98669074D01*
X128194020Y-98710715D01*
X128097763Y-98836160D01*
X128067388Y-98909492D01*
X128023546Y-98963896D01*
X127957252Y-98985960D01*
X127889553Y-98968680D01*
X127865146Y-98949720D01*
X127448019Y-98532593D01*
X127414534Y-98471270D01*
X127411700Y-98444912D01*
X127411700Y-92590920D01*
X127411936Y-92585513D01*
X127415464Y-92545193D01*
X127404982Y-92506076D01*
X127403816Y-92500818D01*
X127396788Y-92460955D01*
X127396786Y-92460952D01*
X127396786Y-92460950D01*
X127394960Y-92455933D01*
X127388020Y-92439176D01*
X127385754Y-92434319D01*
X127385754Y-92434316D01*
X127362539Y-92401162D01*
X127359633Y-92396599D01*
X127339396Y-92361548D01*
X127339395Y-92361547D01*
X127339394Y-92361545D01*
X127308377Y-92335518D01*
X127304393Y-92331867D01*
X114690830Y-79718304D01*
X114657345Y-79656981D01*
X114662329Y-79587289D01*
X114704201Y-79531356D01*
X114720058Y-79521265D01*
X114826232Y-79464513D01*
X114826238Y-79464510D01*
X114978583Y-79339483D01*
X115103610Y-79187138D01*
X115163593Y-79074917D01*
X115196511Y-79013333D01*
X115196511Y-79013332D01*
X115196514Y-79013327D01*
X115253724Y-78824732D01*
X115273041Y-78628600D01*
X115253724Y-78432468D01*
X115196514Y-78243873D01*
X115196511Y-78243869D01*
X115196511Y-78243866D01*
X115103613Y-78070067D01*
X115103609Y-78070060D01*
X114978583Y-77917716D01*
X114826239Y-77792690D01*
X114826232Y-77792686D01*
X114652433Y-77699788D01*
X114652427Y-77699786D01*
X114463832Y-77642576D01*
X114463829Y-77642575D01*
X114267700Y-77623259D01*
X114071570Y-77642575D01*
X113882966Y-77699788D01*
X113709167Y-77792686D01*
X113709160Y-77792690D01*
X113556816Y-77917716D01*
X113431790Y-78070060D01*
X113431786Y-78070067D01*
X113338888Y-78243866D01*
X113281675Y-78432470D01*
X113262359Y-78628600D01*
X113281675Y-78824729D01*
X113281676Y-78824732D01*
X113329429Y-78982153D01*
X113338888Y-79013333D01*
X113431786Y-79187132D01*
X113431790Y-79187139D01*
X113556816Y-79339483D01*
X113709160Y-79464509D01*
X113709167Y-79464513D01*
X113876653Y-79554036D01*
X113926497Y-79602998D01*
X113942200Y-79663394D01*
X113942200Y-79738578D01*
X113941964Y-79743985D01*
X113938435Y-79784308D01*
X113948912Y-79823410D01*
X113950083Y-79828690D01*
X113957111Y-79868543D01*
X113958935Y-79873555D01*
X113965897Y-79890361D01*
X113968145Y-79895181D01*
X113968146Y-79895184D01*
X113981138Y-79913739D01*
X113991355Y-79928331D01*
X113994261Y-79932892D01*
X114014506Y-79967955D01*
X114045515Y-79993975D01*
X114049505Y-79997631D01*
X114604714Y-80552840D01*
X114638199Y-80614163D01*
X114633215Y-80683855D01*
X114591343Y-80739788D01*
X114525879Y-80764205D01*
X114481038Y-80759182D01*
X114474116Y-80757082D01*
X114458930Y-80752475D01*
X114262800Y-80733159D01*
X114066670Y-80752475D01*
X113878066Y-80809688D01*
X113704267Y-80902586D01*
X113704260Y-80902590D01*
X113551920Y-81027613D01*
X113533648Y-81049877D01*
X113475900Y-81089210D01*
X113406056Y-81091078D01*
X113350116Y-81058890D01*
X107800326Y-75509100D01*
X113274359Y-75509100D01*
X113293675Y-75705229D01*
X113293676Y-75705232D01*
X113334027Y-75838252D01*
X113350888Y-75893833D01*
X113443786Y-76067632D01*
X113443790Y-76067639D01*
X113568816Y-76219983D01*
X113721160Y-76345009D01*
X113721167Y-76345013D01*
X113894966Y-76437911D01*
X113894969Y-76437911D01*
X113894973Y-76437914D01*
X114083568Y-76495124D01*
X114279700Y-76514441D01*
X114475832Y-76495124D01*
X114664427Y-76437914D01*
X114701684Y-76418000D01*
X132300357Y-76418000D01*
X132320884Y-76639535D01*
X132320885Y-76639537D01*
X132381769Y-76853523D01*
X132381775Y-76853538D01*
X132480938Y-77052683D01*
X132480943Y-77052691D01*
X132615020Y-77230238D01*
X132756943Y-77359617D01*
X132777236Y-77378117D01*
X132779437Y-77380123D01*
X132779439Y-77380125D01*
X132968595Y-77497245D01*
X132968596Y-77497245D01*
X132968599Y-77497247D01*
X133176060Y-77577618D01*
X133394757Y-77618500D01*
X133394759Y-77618500D01*
X133617241Y-77618500D01*
X133617243Y-77618500D01*
X133835940Y-77577618D01*
X134043401Y-77497247D01*
X134232562Y-77380124D01*
X134396981Y-77230236D01*
X134531058Y-77052689D01*
X134630229Y-76853528D01*
X134691115Y-76639536D01*
X134711643Y-76418000D01*
X138800357Y-76418000D01*
X138820884Y-76639535D01*
X138820885Y-76639537D01*
X138881769Y-76853523D01*
X138881775Y-76853538D01*
X138980938Y-77052683D01*
X138980943Y-77052691D01*
X139115020Y-77230238D01*
X139256943Y-77359617D01*
X139277236Y-77378117D01*
X139279437Y-77380123D01*
X139279439Y-77380125D01*
X139468595Y-77497245D01*
X139468601Y-77497248D01*
X139514050Y-77514855D01*
X139601295Y-77548653D01*
X139656695Y-77591226D01*
X139680286Y-77656993D01*
X139680500Y-77664280D01*
X139680500Y-85282178D01*
X139680264Y-85287585D01*
X139676735Y-85327908D01*
X139687212Y-85367010D01*
X139688383Y-85372290D01*
X139695411Y-85412143D01*
X139697235Y-85417155D01*
X139704197Y-85433961D01*
X139706445Y-85438781D01*
X139706446Y-85438784D01*
X139720452Y-85458787D01*
X139729655Y-85471931D01*
X139732561Y-85476492D01*
X139752806Y-85511555D01*
X139783815Y-85537575D01*
X139787805Y-85541231D01*
X143018869Y-88772295D01*
X143052354Y-88833618D01*
X143047370Y-88903310D01*
X143005498Y-88959243D01*
X142989642Y-88969334D01*
X142883464Y-89026088D01*
X142883460Y-89026090D01*
X142731116Y-89151116D01*
X142606090Y-89303460D01*
X142606086Y-89303467D01*
X142513188Y-89477266D01*
X142455975Y-89665870D01*
X142436659Y-89862000D01*
X142455975Y-90058129D01*
X142475046Y-90120997D01*
X142503321Y-90214208D01*
X142513188Y-90246733D01*
X142606086Y-90420532D01*
X142606090Y-90420539D01*
X142731116Y-90572883D01*
X142883460Y-90697909D01*
X142883467Y-90697913D01*
X143050953Y-90787436D01*
X143100797Y-90836398D01*
X143116500Y-90896794D01*
X143116500Y-91927205D01*
X143096815Y-91994244D01*
X143050953Y-92036563D01*
X142883467Y-92126085D01*
X142883460Y-92126090D01*
X142731116Y-92251116D01*
X142606090Y-92403460D01*
X142606086Y-92403467D01*
X142513188Y-92577266D01*
X142455975Y-92765870D01*
X142436659Y-92962000D01*
X142455975Y-93158129D01*
X142455976Y-93158132D01*
X142512113Y-93343191D01*
X142513188Y-93346733D01*
X142606086Y-93520532D01*
X142606090Y-93520539D01*
X142731116Y-93672883D01*
X142883460Y-93797909D01*
X142883467Y-93797913D01*
X143057266Y-93890811D01*
X143057269Y-93890811D01*
X143057273Y-93890814D01*
X143245868Y-93948024D01*
X143442000Y-93967341D01*
X143638132Y-93948024D01*
X143826727Y-93890814D01*
X143876300Y-93864317D01*
X143913632Y-93844362D01*
X144000538Y-93797910D01*
X144152883Y-93672883D01*
X144277910Y-93520538D01*
X144349708Y-93386213D01*
X144370811Y-93346733D01*
X144370811Y-93346732D01*
X144370814Y-93346727D01*
X144428024Y-93158132D01*
X144447341Y-92962000D01*
X144428024Y-92765868D01*
X144370814Y-92577273D01*
X144370811Y-92577269D01*
X144370811Y-92577266D01*
X144277913Y-92403467D01*
X144277909Y-92403460D01*
X144152883Y-92251116D01*
X144000539Y-92126090D01*
X144000532Y-92126085D01*
X143833047Y-92036563D01*
X143783202Y-91987601D01*
X143767500Y-91927205D01*
X143767500Y-90896794D01*
X143787185Y-90829755D01*
X143833047Y-90787436D01*
X143896651Y-90753439D01*
X144000538Y-90697910D01*
X144152883Y-90572883D01*
X144277910Y-90420538D01*
X144356670Y-90273188D01*
X144370811Y-90246733D01*
X144370811Y-90246732D01*
X144370814Y-90246727D01*
X144428024Y-90058132D01*
X144447341Y-89862000D01*
X144428024Y-89665868D01*
X144370814Y-89477273D01*
X144370811Y-89477269D01*
X144370811Y-89477266D01*
X144277913Y-89303467D01*
X144277909Y-89303460D01*
X144152883Y-89151116D01*
X144000539Y-89026090D01*
X144000532Y-89026085D01*
X143833047Y-88936563D01*
X143783202Y-88887601D01*
X143767500Y-88827205D01*
X143767500Y-88752020D01*
X143767736Y-88746613D01*
X143771264Y-88706293D01*
X143770816Y-88704620D01*
X143760782Y-88667176D01*
X143759616Y-88661918D01*
X143752588Y-88622055D01*
X143752586Y-88622052D01*
X143752586Y-88622050D01*
X143750760Y-88617033D01*
X143743820Y-88600276D01*
X143741554Y-88595419D01*
X143741554Y-88595416D01*
X143718339Y-88562262D01*
X143715433Y-88557699D01*
X143695196Y-88522648D01*
X143695195Y-88522647D01*
X143695194Y-88522645D01*
X143664177Y-88496618D01*
X143660193Y-88492967D01*
X143049558Y-87882332D01*
X143016073Y-87821009D01*
X143021057Y-87751317D01*
X143062929Y-87695384D01*
X143128393Y-87670967D01*
X143173235Y-87675991D01*
X143188838Y-87680724D01*
X143245868Y-87698024D01*
X143442000Y-87717341D01*
X143638132Y-87698024D01*
X143826727Y-87640814D01*
X144000538Y-87547910D01*
X144152883Y-87422883D01*
X144277910Y-87270538D01*
X144343812Y-87147245D01*
X144370811Y-87096733D01*
X144370811Y-87096732D01*
X144370814Y-87096727D01*
X144428024Y-86908132D01*
X144447341Y-86712000D01*
X144428024Y-86515868D01*
X144370814Y-86327273D01*
X144370811Y-86327269D01*
X144370811Y-86327266D01*
X144277913Y-86153467D01*
X144277909Y-86153460D01*
X144152883Y-86001116D01*
X144000539Y-85876090D01*
X144000532Y-85876085D01*
X143833047Y-85786563D01*
X143783202Y-85737601D01*
X143767500Y-85677205D01*
X143767500Y-82146187D01*
X143787185Y-82079148D01*
X143803814Y-82058511D01*
X148548709Y-77313615D01*
X148610030Y-77280132D01*
X148679722Y-77285116D01*
X148681140Y-77285655D01*
X148872060Y-77359618D01*
X149090757Y-77400500D01*
X149090759Y-77400500D01*
X149313241Y-77400500D01*
X149313243Y-77400500D01*
X149531940Y-77359618D01*
X149739401Y-77279247D01*
X149928562Y-77162124D01*
X150092981Y-77012236D01*
X150227058Y-76834689D01*
X150245101Y-76798455D01*
X150326224Y-76635538D01*
X150326223Y-76635538D01*
X150326229Y-76635528D01*
X150387115Y-76421536D01*
X150407643Y-76200000D01*
X154496357Y-76200000D01*
X154516884Y-76421535D01*
X154516885Y-76421537D01*
X154577769Y-76635523D01*
X154577775Y-76635538D01*
X154676938Y-76834683D01*
X154676943Y-76834691D01*
X154811020Y-77012238D01*
X154975437Y-77162123D01*
X154975439Y-77162125D01*
X155164595Y-77279245D01*
X155164596Y-77279245D01*
X155164599Y-77279247D01*
X155372060Y-77359618D01*
X155590757Y-77400500D01*
X155590759Y-77400500D01*
X155813241Y-77400500D01*
X155813243Y-77400500D01*
X156031940Y-77359618D01*
X156239401Y-77279247D01*
X156428562Y-77162124D01*
X156592981Y-77012236D01*
X156727058Y-76834689D01*
X156745101Y-76798455D01*
X156826224Y-76635538D01*
X156826223Y-76635538D01*
X156826229Y-76635528D01*
X156887115Y-76421536D01*
X156907643Y-76200000D01*
X156895377Y-76067632D01*
X156887115Y-75978464D01*
X156887114Y-75978462D01*
X156882313Y-75961589D01*
X156826229Y-75764472D01*
X156810443Y-75732769D01*
X156727061Y-75565316D01*
X156727056Y-75565308D01*
X156592979Y-75387761D01*
X156428562Y-75237876D01*
X156428560Y-75237874D01*
X156239404Y-75120754D01*
X156239398Y-75120752D01*
X156031940Y-75040382D01*
X155813243Y-74999500D01*
X155590757Y-74999500D01*
X155372060Y-75040382D01*
X155240864Y-75091207D01*
X155164601Y-75120752D01*
X155164595Y-75120754D01*
X154975439Y-75237874D01*
X154975437Y-75237876D01*
X154811020Y-75387761D01*
X154676943Y-75565308D01*
X154676938Y-75565316D01*
X154577775Y-75764461D01*
X154577769Y-75764476D01*
X154516885Y-75978462D01*
X154516884Y-75978464D01*
X154496357Y-76199999D01*
X154496357Y-76200000D01*
X150407643Y-76200000D01*
X150395377Y-76067632D01*
X150387115Y-75978464D01*
X150387114Y-75978462D01*
X150382313Y-75961589D01*
X150326229Y-75764472D01*
X150310443Y-75732769D01*
X150227061Y-75565316D01*
X150227056Y-75565308D01*
X150092979Y-75387761D01*
X149928562Y-75237876D01*
X149928560Y-75237874D01*
X149739404Y-75120754D01*
X149739398Y-75120752D01*
X149531940Y-75040382D01*
X149313243Y-74999500D01*
X149090757Y-74999500D01*
X148872060Y-75040382D01*
X148740864Y-75091207D01*
X148664601Y-75120752D01*
X148664595Y-75120754D01*
X148475439Y-75237874D01*
X148475437Y-75237876D01*
X148311020Y-75387761D01*
X148176943Y-75565308D01*
X148176938Y-75565316D01*
X148077775Y-75764461D01*
X148077769Y-75764476D01*
X148016885Y-75978462D01*
X148016884Y-75978464D01*
X147996357Y-76199999D01*
X147996357Y-76200000D01*
X148016884Y-76421535D01*
X148016885Y-76421537D01*
X148077769Y-76635523D01*
X148077770Y-76635525D01*
X148077771Y-76635528D01*
X148084987Y-76650019D01*
X148113918Y-76708120D01*
X148126179Y-76776906D01*
X148099306Y-76841401D01*
X148090599Y-76851073D01*
X143223803Y-81717870D01*
X143219814Y-81721525D01*
X143188805Y-81747545D01*
X143168562Y-81782606D01*
X143165656Y-81787166D01*
X143142446Y-81820313D01*
X143140206Y-81825117D01*
X143133229Y-81841961D01*
X143131410Y-81846959D01*
X143124383Y-81886811D01*
X143123212Y-81892091D01*
X143112735Y-81931191D01*
X143116264Y-81971513D01*
X143116500Y-81976920D01*
X143116500Y-85677205D01*
X143096815Y-85744244D01*
X143050953Y-85786563D01*
X142883467Y-85876085D01*
X142883460Y-85876090D01*
X142731116Y-86001116D01*
X142606090Y-86153460D01*
X142606086Y-86153467D01*
X142513188Y-86327266D01*
X142455975Y-86515870D01*
X142436659Y-86712000D01*
X142455975Y-86908130D01*
X142478009Y-86980765D01*
X142478632Y-87050632D01*
X142441384Y-87109745D01*
X142378089Y-87139336D01*
X142308845Y-87130009D01*
X142271667Y-87104441D01*
X140367819Y-85200593D01*
X140334334Y-85139270D01*
X140331500Y-85112912D01*
X140331500Y-77664280D01*
X140351185Y-77597241D01*
X140403989Y-77551486D01*
X140410693Y-77548658D01*
X140543401Y-77497247D01*
X140732562Y-77380124D01*
X140896981Y-77230236D01*
X141031058Y-77052689D01*
X141130229Y-76853528D01*
X141191115Y-76639536D01*
X141211643Y-76418000D01*
X141204879Y-76345009D01*
X141191115Y-76196464D01*
X141191114Y-76196462D01*
X141137718Y-76008795D01*
X141130229Y-75982472D01*
X141130224Y-75982461D01*
X141031061Y-75783316D01*
X141031056Y-75783308D01*
X140896979Y-75605761D01*
X140732562Y-75455876D01*
X140732560Y-75455874D01*
X140543404Y-75338754D01*
X140543398Y-75338752D01*
X140335940Y-75258382D01*
X140117243Y-75217500D01*
X139894757Y-75217500D01*
X139676060Y-75258382D01*
X139544864Y-75309207D01*
X139468601Y-75338752D01*
X139468595Y-75338754D01*
X139279439Y-75455874D01*
X139279437Y-75455876D01*
X139115020Y-75605761D01*
X138980943Y-75783308D01*
X138980938Y-75783316D01*
X138881775Y-75982461D01*
X138881769Y-75982476D01*
X138820885Y-76196462D01*
X138820884Y-76196464D01*
X138800357Y-76417999D01*
X138800357Y-76418000D01*
X134711643Y-76418000D01*
X134704879Y-76345009D01*
X134691115Y-76196464D01*
X134691114Y-76196462D01*
X134637718Y-76008795D01*
X134630229Y-75982472D01*
X134630224Y-75982461D01*
X134531061Y-75783316D01*
X134531056Y-75783308D01*
X134396979Y-75605761D01*
X134232562Y-75455876D01*
X134232560Y-75455874D01*
X134043404Y-75338754D01*
X134043398Y-75338752D01*
X133835940Y-75258382D01*
X133617243Y-75217500D01*
X133394757Y-75217500D01*
X133176060Y-75258382D01*
X133044864Y-75309207D01*
X132968601Y-75338752D01*
X132968595Y-75338754D01*
X132779439Y-75455874D01*
X132779437Y-75455876D01*
X132615020Y-75605761D01*
X132480943Y-75783308D01*
X132480938Y-75783316D01*
X132381775Y-75982461D01*
X132381769Y-75982476D01*
X132320885Y-76196462D01*
X132320884Y-76196464D01*
X132300357Y-76417999D01*
X132300357Y-76418000D01*
X114701684Y-76418000D01*
X114838232Y-76345013D01*
X114838238Y-76345010D01*
X114990583Y-76219983D01*
X115115610Y-76067638D01*
X115208514Y-75893827D01*
X115265724Y-75705232D01*
X115285041Y-75509100D01*
X115265724Y-75312968D01*
X115208514Y-75124373D01*
X115208511Y-75124369D01*
X115208511Y-75124366D01*
X115115613Y-74950567D01*
X115115609Y-74950560D01*
X114990583Y-74798216D01*
X114838239Y-74673190D01*
X114838232Y-74673186D01*
X114664433Y-74580288D01*
X114664427Y-74580286D01*
X114475832Y-74523076D01*
X114475829Y-74523075D01*
X114279700Y-74503759D01*
X114083570Y-74523075D01*
X113894966Y-74580288D01*
X113721167Y-74673186D01*
X113721160Y-74673190D01*
X113568816Y-74798216D01*
X113443790Y-74950560D01*
X113443786Y-74950567D01*
X113350888Y-75124366D01*
X113293675Y-75312970D01*
X113274359Y-75509100D01*
X107800326Y-75509100D01*
X107089442Y-74798216D01*
X105291228Y-73000002D01*
X119094506Y-73000002D01*
X119114469Y-73368196D01*
X119114470Y-73368213D01*
X119174122Y-73732068D01*
X119174128Y-73732094D01*
X119272768Y-74087365D01*
X119272770Y-74087371D01*
X119409255Y-74429926D01*
X119409261Y-74429938D01*
X119581973Y-74755708D01*
X119581976Y-74755713D01*
X119581978Y-74755716D01*
X119685444Y-74908316D01*
X119788909Y-75060916D01*
X119956639Y-75258382D01*
X120027627Y-75341956D01*
X120295330Y-75595538D01*
X120588881Y-75818690D01*
X120904838Y-76008795D01*
X120904840Y-76008796D01*
X120904842Y-76008797D01*
X120904846Y-76008799D01*
X121206898Y-76148543D01*
X121239497Y-76163625D01*
X121588934Y-76281364D01*
X121949052Y-76360632D01*
X122315630Y-76400500D01*
X122315636Y-76400500D01*
X122684364Y-76400500D01*
X122684370Y-76400500D01*
X123050948Y-76360632D01*
X123411066Y-76281364D01*
X123760503Y-76163625D01*
X124095162Y-76008795D01*
X124411119Y-75818690D01*
X124704670Y-75595538D01*
X124972373Y-75341956D01*
X125211090Y-75060917D01*
X125418022Y-74755716D01*
X125590743Y-74429930D01*
X125727227Y-74087379D01*
X125825875Y-73732081D01*
X125844237Y-73620077D01*
X125885529Y-73368213D01*
X125885529Y-73368210D01*
X125885531Y-73368199D01*
X125905494Y-73000000D01*
X125904566Y-72982892D01*
X125901078Y-72918545D01*
X125885531Y-72631801D01*
X125850212Y-72416369D01*
X125825877Y-72267931D01*
X125825876Y-72267930D01*
X125825875Y-72267919D01*
X125757084Y-72020156D01*
X125728722Y-71918005D01*
X132000859Y-71918005D01*
X132021385Y-72165729D01*
X132021387Y-72165738D01*
X132082412Y-72406717D01*
X132182266Y-72634364D01*
X132282564Y-72787882D01*
X132980070Y-72090376D01*
X132982884Y-72103915D01*
X133052442Y-72238156D01*
X133155638Y-72348652D01*
X133284819Y-72427209D01*
X133336002Y-72441549D01*
X132635942Y-73141609D01*
X132682768Y-73178055D01*
X132682770Y-73178056D01*
X132901385Y-73296364D01*
X132901396Y-73296369D01*
X133136506Y-73377083D01*
X133381707Y-73418000D01*
X133630293Y-73418000D01*
X133875493Y-73377083D01*
X134110603Y-73296369D01*
X134110614Y-73296364D01*
X134329228Y-73178057D01*
X134329231Y-73178055D01*
X134376056Y-73141609D01*
X133677568Y-72443121D01*
X133794458Y-72392349D01*
X133911739Y-72296934D01*
X133998928Y-72173415D01*
X134029354Y-72087802D01*
X134729434Y-72787882D01*
X134829731Y-72634369D01*
X134929587Y-72406717D01*
X134990612Y-72165738D01*
X134990614Y-72165729D01*
X135011141Y-71918005D01*
X138500859Y-71918005D01*
X138521385Y-72165729D01*
X138521387Y-72165738D01*
X138582412Y-72406717D01*
X138682266Y-72634364D01*
X138782564Y-72787882D01*
X139480070Y-72090376D01*
X139482884Y-72103915D01*
X139552442Y-72238156D01*
X139655638Y-72348652D01*
X139784819Y-72427209D01*
X139836002Y-72441549D01*
X139135942Y-73141609D01*
X139182768Y-73178055D01*
X139182770Y-73178056D01*
X139401385Y-73296364D01*
X139401396Y-73296369D01*
X139636506Y-73377083D01*
X139881707Y-73418000D01*
X140130293Y-73418000D01*
X140375493Y-73377083D01*
X140610603Y-73296369D01*
X140610614Y-73296364D01*
X140829228Y-73178057D01*
X140829231Y-73178055D01*
X140876056Y-73141609D01*
X140177568Y-72443121D01*
X140294458Y-72392349D01*
X140411739Y-72296934D01*
X140498928Y-72173415D01*
X140529354Y-72087802D01*
X141229434Y-72787882D01*
X141329731Y-72634369D01*
X141429587Y-72406717D01*
X141490612Y-72165738D01*
X141490614Y-72165729D01*
X141511141Y-71918005D01*
X141511141Y-71917994D01*
X141493078Y-71700005D01*
X147696859Y-71700005D01*
X147717385Y-71947729D01*
X147717387Y-71947738D01*
X147778412Y-72188717D01*
X147878266Y-72416364D01*
X147978564Y-72569882D01*
X148676070Y-71872376D01*
X148678884Y-71885915D01*
X148748442Y-72020156D01*
X148851638Y-72130652D01*
X148980819Y-72209209D01*
X149032002Y-72223549D01*
X148331942Y-72923609D01*
X148378768Y-72960055D01*
X148378770Y-72960056D01*
X148597385Y-73078364D01*
X148597396Y-73078369D01*
X148832506Y-73159083D01*
X149077707Y-73200000D01*
X149326293Y-73200000D01*
X149571493Y-73159083D01*
X149806603Y-73078369D01*
X149806614Y-73078364D01*
X150025228Y-72960057D01*
X150025231Y-72960055D01*
X150072056Y-72923609D01*
X149373568Y-72225121D01*
X149490458Y-72174349D01*
X149607739Y-72078934D01*
X149694928Y-71955415D01*
X149725354Y-71869802D01*
X150425434Y-72569882D01*
X150525731Y-72416369D01*
X150625587Y-72188717D01*
X150686612Y-71947738D01*
X150686614Y-71947729D01*
X150707141Y-71700005D01*
X154196859Y-71700005D01*
X154217385Y-71947729D01*
X154217387Y-71947738D01*
X154278412Y-72188717D01*
X154378266Y-72416364D01*
X154478564Y-72569882D01*
X155176070Y-71872376D01*
X155178884Y-71885915D01*
X155248442Y-72020156D01*
X155351638Y-72130652D01*
X155480819Y-72209209D01*
X155532002Y-72223549D01*
X154831942Y-72923609D01*
X154878768Y-72960055D01*
X154878770Y-72960056D01*
X155097385Y-73078364D01*
X155097396Y-73078369D01*
X155332506Y-73159083D01*
X155577707Y-73200000D01*
X155826293Y-73200000D01*
X156071493Y-73159083D01*
X156306603Y-73078369D01*
X156306614Y-73078364D01*
X156451415Y-73000002D01*
X161594506Y-73000002D01*
X161614469Y-73368196D01*
X161614470Y-73368213D01*
X161674122Y-73732068D01*
X161674128Y-73732094D01*
X161772768Y-74087365D01*
X161772770Y-74087371D01*
X161909255Y-74429926D01*
X161909261Y-74429938D01*
X162081973Y-74755708D01*
X162081976Y-74755713D01*
X162081978Y-74755716D01*
X162185444Y-74908316D01*
X162288909Y-75060916D01*
X162456639Y-75258382D01*
X162527627Y-75341956D01*
X162795330Y-75595538D01*
X163088881Y-75818690D01*
X163404838Y-76008795D01*
X163404840Y-76008796D01*
X163404842Y-76008797D01*
X163404846Y-76008799D01*
X163706898Y-76148543D01*
X163739497Y-76163625D01*
X164088934Y-76281364D01*
X164449052Y-76360632D01*
X164815630Y-76400500D01*
X164815636Y-76400500D01*
X165184364Y-76400500D01*
X165184370Y-76400500D01*
X165550948Y-76360632D01*
X165911066Y-76281364D01*
X166260503Y-76163625D01*
X166595162Y-76008795D01*
X166911119Y-75818690D01*
X167204670Y-75595538D01*
X167472373Y-75341956D01*
X167711090Y-75060917D01*
X167918022Y-74755716D01*
X168090743Y-74429930D01*
X168227227Y-74087379D01*
X168325875Y-73732081D01*
X168344237Y-73620077D01*
X168385529Y-73368213D01*
X168385529Y-73368210D01*
X168385531Y-73368199D01*
X168405494Y-73000000D01*
X168404566Y-72982892D01*
X168401078Y-72918545D01*
X168385531Y-72631801D01*
X168350212Y-72416369D01*
X168325877Y-72267931D01*
X168325876Y-72267930D01*
X168325875Y-72267919D01*
X168257084Y-72020156D01*
X168227231Y-71912634D01*
X168227229Y-71912628D01*
X168227228Y-71912627D01*
X168227227Y-71912621D01*
X168090743Y-71570070D01*
X167998917Y-71396868D01*
X167918026Y-71244291D01*
X167918024Y-71244288D01*
X167918022Y-71244284D01*
X167711090Y-70939083D01*
X167472373Y-70658044D01*
X167204670Y-70404462D01*
X166911119Y-70181310D01*
X166595162Y-69991205D01*
X166595161Y-69991204D01*
X166595157Y-69991202D01*
X166595153Y-69991200D01*
X166260513Y-69836379D01*
X166260508Y-69836377D01*
X166260503Y-69836375D01*
X166068109Y-69771550D01*
X165911065Y-69718635D01*
X165550946Y-69639367D01*
X165184371Y-69599500D01*
X165184370Y-69599500D01*
X164815630Y-69599500D01*
X164815628Y-69599500D01*
X164449053Y-69639367D01*
X164088934Y-69718635D01*
X163851778Y-69798543D01*
X163739497Y-69836375D01*
X163739494Y-69836376D01*
X163739486Y-69836379D01*
X163404846Y-69991200D01*
X163404842Y-69991202D01*
X163306021Y-70050661D01*
X163088881Y-70181310D01*
X163064295Y-70200000D01*
X162795330Y-70404461D01*
X162795330Y-70404462D01*
X162527626Y-70658044D01*
X162288909Y-70939083D01*
X162081979Y-71244282D01*
X162081973Y-71244291D01*
X161909261Y-71570061D01*
X161909255Y-71570073D01*
X161772770Y-71912628D01*
X161772768Y-71912634D01*
X161674128Y-72267905D01*
X161674122Y-72267931D01*
X161614470Y-72631786D01*
X161614469Y-72631803D01*
X161594506Y-72999997D01*
X161594506Y-73000002D01*
X156451415Y-73000002D01*
X156525228Y-72960057D01*
X156525231Y-72960055D01*
X156572056Y-72923609D01*
X155873568Y-72225121D01*
X155990458Y-72174349D01*
X156107739Y-72078934D01*
X156194928Y-71955415D01*
X156225354Y-71869802D01*
X156925434Y-72569882D01*
X157025731Y-72416369D01*
X157125587Y-72188717D01*
X157186612Y-71947738D01*
X157186614Y-71947729D01*
X157207141Y-71700005D01*
X157207141Y-71699994D01*
X157186614Y-71452270D01*
X157186612Y-71452261D01*
X157125587Y-71211282D01*
X157025731Y-70983630D01*
X156925434Y-70830116D01*
X156227929Y-71527622D01*
X156225116Y-71514085D01*
X156155558Y-71379844D01*
X156052362Y-71269348D01*
X155923181Y-71190791D01*
X155871997Y-71176450D01*
X156572057Y-70476390D01*
X156572056Y-70476389D01*
X156525229Y-70439943D01*
X156306614Y-70321635D01*
X156306603Y-70321630D01*
X156071493Y-70240916D01*
X155826293Y-70200000D01*
X155577707Y-70200000D01*
X155332506Y-70240916D01*
X155097396Y-70321630D01*
X155097390Y-70321632D01*
X154878761Y-70439949D01*
X154831942Y-70476388D01*
X154831942Y-70476390D01*
X155530431Y-71174878D01*
X155413542Y-71225651D01*
X155296261Y-71321066D01*
X155209072Y-71444585D01*
X155178645Y-71530197D01*
X154478564Y-70830116D01*
X154378267Y-70983632D01*
X154278412Y-71211282D01*
X154217387Y-71452261D01*
X154217385Y-71452270D01*
X154196859Y-71699994D01*
X154196859Y-71700005D01*
X150707141Y-71700005D01*
X150707141Y-71699994D01*
X150686614Y-71452270D01*
X150686612Y-71452261D01*
X150625587Y-71211282D01*
X150525731Y-70983630D01*
X150425434Y-70830116D01*
X149727929Y-71527622D01*
X149725116Y-71514085D01*
X149655558Y-71379844D01*
X149552362Y-71269348D01*
X149423181Y-71190791D01*
X149371997Y-71176450D01*
X150072057Y-70476390D01*
X150072056Y-70476389D01*
X150025229Y-70439943D01*
X149806614Y-70321635D01*
X149806603Y-70321630D01*
X149571493Y-70240916D01*
X149326293Y-70200000D01*
X149077707Y-70200000D01*
X148832506Y-70240916D01*
X148597396Y-70321630D01*
X148597390Y-70321632D01*
X148378761Y-70439949D01*
X148331942Y-70476388D01*
X148331942Y-70476390D01*
X149030431Y-71174878D01*
X148913542Y-71225651D01*
X148796261Y-71321066D01*
X148709072Y-71444585D01*
X148678645Y-71530197D01*
X147978564Y-70830116D01*
X147878267Y-70983632D01*
X147778412Y-71211282D01*
X147717387Y-71452261D01*
X147717385Y-71452270D01*
X147696859Y-71699994D01*
X147696859Y-71700005D01*
X141493078Y-71700005D01*
X141490614Y-71670270D01*
X141490612Y-71670261D01*
X141429587Y-71429282D01*
X141329731Y-71201630D01*
X141229434Y-71048116D01*
X140531929Y-71745622D01*
X140529116Y-71732085D01*
X140459558Y-71597844D01*
X140356362Y-71487348D01*
X140227181Y-71408791D01*
X140175997Y-71394450D01*
X140876057Y-70694390D01*
X140876056Y-70694389D01*
X140829229Y-70657943D01*
X140610614Y-70539635D01*
X140610603Y-70539630D01*
X140375493Y-70458916D01*
X140130293Y-70418000D01*
X139881707Y-70418000D01*
X139636506Y-70458916D01*
X139401396Y-70539630D01*
X139401390Y-70539632D01*
X139182761Y-70657949D01*
X139135942Y-70694388D01*
X139135942Y-70694390D01*
X139834431Y-71392878D01*
X139717542Y-71443651D01*
X139600261Y-71539066D01*
X139513072Y-71662585D01*
X139482645Y-71748197D01*
X138782564Y-71048116D01*
X138682267Y-71201632D01*
X138582412Y-71429282D01*
X138521387Y-71670261D01*
X138521385Y-71670270D01*
X138500859Y-71917994D01*
X138500859Y-71918005D01*
X135011141Y-71918005D01*
X135011141Y-71917994D01*
X134990614Y-71670270D01*
X134990612Y-71670261D01*
X134929587Y-71429282D01*
X134829731Y-71201630D01*
X134729434Y-71048116D01*
X134031929Y-71745622D01*
X134029116Y-71732085D01*
X133959558Y-71597844D01*
X133856362Y-71487348D01*
X133727181Y-71408791D01*
X133675997Y-71394450D01*
X134376057Y-70694390D01*
X134376056Y-70694389D01*
X134329229Y-70657943D01*
X134110614Y-70539635D01*
X134110603Y-70539630D01*
X133875493Y-70458916D01*
X133630293Y-70418000D01*
X133381707Y-70418000D01*
X133136506Y-70458916D01*
X132901396Y-70539630D01*
X132901390Y-70539632D01*
X132682761Y-70657949D01*
X132635942Y-70694388D01*
X132635942Y-70694390D01*
X133334431Y-71392878D01*
X133217542Y-71443651D01*
X133100261Y-71539066D01*
X133013072Y-71662585D01*
X132982645Y-71748197D01*
X132282564Y-71048116D01*
X132182267Y-71201632D01*
X132082412Y-71429282D01*
X132021387Y-71670261D01*
X132021385Y-71670270D01*
X132000859Y-71917994D01*
X132000859Y-71918005D01*
X125728722Y-71918005D01*
X125727231Y-71912634D01*
X125727229Y-71912628D01*
X125727228Y-71912627D01*
X125727227Y-71912621D01*
X125590743Y-71570070D01*
X125498917Y-71396868D01*
X125418026Y-71244291D01*
X125418024Y-71244288D01*
X125418022Y-71244284D01*
X125211090Y-70939083D01*
X124972373Y-70658044D01*
X124704670Y-70404462D01*
X124411119Y-70181310D01*
X124095162Y-69991205D01*
X124095161Y-69991204D01*
X124095157Y-69991202D01*
X124095153Y-69991200D01*
X123760513Y-69836379D01*
X123760508Y-69836377D01*
X123760503Y-69836375D01*
X123568109Y-69771550D01*
X123411065Y-69718635D01*
X123050946Y-69639367D01*
X122684371Y-69599500D01*
X122684370Y-69599500D01*
X122315630Y-69599500D01*
X122315628Y-69599500D01*
X121949053Y-69639367D01*
X121588934Y-69718635D01*
X121351778Y-69798543D01*
X121239497Y-69836375D01*
X121239494Y-69836376D01*
X121239486Y-69836379D01*
X120904846Y-69991200D01*
X120904842Y-69991202D01*
X120806021Y-70050661D01*
X120588881Y-70181310D01*
X120564295Y-70200000D01*
X120295330Y-70404461D01*
X120295330Y-70404462D01*
X120027626Y-70658044D01*
X119788909Y-70939083D01*
X119581979Y-71244282D01*
X119581973Y-71244291D01*
X119409261Y-71570061D01*
X119409255Y-71570073D01*
X119272770Y-71912628D01*
X119272768Y-71912634D01*
X119174128Y-72267905D01*
X119174122Y-72267931D01*
X119114470Y-72631786D01*
X119114469Y-72631803D01*
X119094506Y-72999997D01*
X119094506Y-73000002D01*
X105291228Y-73000002D01*
X100756719Y-68465493D01*
X100753074Y-68461514D01*
X100727056Y-68430507D01*
X100727055Y-68430506D01*
X100715658Y-68423926D01*
X100691992Y-68410261D01*
X100687431Y-68407355D01*
X100674287Y-68398152D01*
X100654284Y-68384146D01*
X100654281Y-68384145D01*
X100649461Y-68381897D01*
X100632655Y-68374935D01*
X100627643Y-68373111D01*
X100587790Y-68366083D01*
X100582510Y-68364912D01*
X100543408Y-68354435D01*
X100508492Y-68357490D01*
X100503081Y-68357964D01*
X100497678Y-68358200D01*
X94763310Y-68358200D01*
X94757906Y-68357964D01*
X94752393Y-68357481D01*
X94717592Y-68354436D01*
X94678505Y-68364910D01*
X94673225Y-68366081D01*
X94633357Y-68373111D01*
X94628383Y-68374921D01*
X94611518Y-68381907D01*
X94606713Y-68384147D01*
X94573562Y-68407359D01*
X94569003Y-68410263D01*
X94533945Y-68430505D01*
X94507923Y-68461515D01*
X94504269Y-68465503D01*
X93308703Y-69661070D01*
X93304714Y-69664725D01*
X93273705Y-69690745D01*
X93255772Y-69721805D01*
X93205203Y-69770019D01*
X93136595Y-69783239D01*
X93071732Y-69757269D01*
X93052533Y-69738465D01*
X92948410Y-69611589D01*
X92830677Y-69514969D01*
X92788450Y-69480315D01*
X92605954Y-69382768D01*
X92407934Y-69322700D01*
X92407932Y-69322699D01*
X92407934Y-69322699D01*
X92202000Y-69302417D01*
X91996067Y-69322699D01*
X91798043Y-69382769D01*
X91710114Y-69429769D01*
X91615550Y-69480315D01*
X91615548Y-69480316D01*
X91615547Y-69480317D01*
X91455589Y-69611589D01*
X91330908Y-69763516D01*
X91324315Y-69771550D01*
X91309887Y-69798543D01*
X91226767Y-69954046D01*
X91206593Y-70020552D01*
X91168296Y-70078990D01*
X91104483Y-70107447D01*
X91035416Y-70096886D01*
X90983023Y-70050661D01*
X90968158Y-70016649D01*
X90935433Y-69894516D01*
X90935429Y-69894507D01*
X90835600Y-69680422D01*
X90835599Y-69680420D01*
X90700113Y-69486926D01*
X90700108Y-69486920D01*
X90533082Y-69319894D01*
X90339578Y-69184399D01*
X90125492Y-69084570D01*
X90125486Y-69084567D01*
X89912000Y-69027364D01*
X89912000Y-69922498D01*
X89804315Y-69873320D01*
X89697763Y-69858000D01*
X89626237Y-69858000D01*
X89519685Y-69873320D01*
X89412000Y-69922498D01*
X89412000Y-69027364D01*
X89411999Y-69027364D01*
X89198513Y-69084567D01*
X89198507Y-69084570D01*
X88984422Y-69184399D01*
X88984420Y-69184400D01*
X88790926Y-69319886D01*
X88790920Y-69319891D01*
X88623891Y-69486920D01*
X88623886Y-69486926D01*
X88488400Y-69680420D01*
X88488399Y-69680422D01*
X88408882Y-69850948D01*
X88362710Y-69903387D01*
X88295516Y-69922539D01*
X88228635Y-69902323D01*
X88183300Y-69849158D01*
X88172500Y-69798543D01*
X88172500Y-69488249D01*
X88172499Y-69488247D01*
X88160868Y-69429770D01*
X88160867Y-69429769D01*
X88116552Y-69363447D01*
X88050230Y-69319132D01*
X88050229Y-69319131D01*
X87991752Y-69307500D01*
X87991748Y-69307500D01*
X86252252Y-69307500D01*
X86252247Y-69307500D01*
X86193770Y-69319131D01*
X86193769Y-69319132D01*
X86127447Y-69363447D01*
X86083132Y-69429769D01*
X86083131Y-69429770D01*
X86071500Y-69488247D01*
X86071500Y-71227752D01*
X86083131Y-71286229D01*
X86083132Y-71286230D01*
X86127447Y-71352552D01*
X86193769Y-71396867D01*
X86193770Y-71396868D01*
X86252247Y-71408499D01*
X86252250Y-71408500D01*
X86252252Y-71408500D01*
X87991750Y-71408500D01*
X87991751Y-71408499D01*
X88006568Y-71405552D01*
X88050229Y-71396868D01*
X88050229Y-71396867D01*
X88050231Y-71396867D01*
X88116552Y-71352552D01*
X88160867Y-71286231D01*
X88160867Y-71286229D01*
X88160868Y-71286229D01*
X88170922Y-71235682D01*
X88172500Y-71227748D01*
X88172500Y-70917456D01*
X88192185Y-70850417D01*
X88244989Y-70804662D01*
X88314147Y-70794718D01*
X88377703Y-70823743D01*
X88408882Y-70865051D01*
X88488400Y-71035578D01*
X88623894Y-71229082D01*
X88790917Y-71396105D01*
X88984421Y-71531600D01*
X89198507Y-71631429D01*
X89198516Y-71631433D01*
X89412000Y-71688634D01*
X89412000Y-70793501D01*
X89519685Y-70842680D01*
X89626237Y-70858000D01*
X89697763Y-70858000D01*
X89804315Y-70842680D01*
X89912000Y-70793501D01*
X89912000Y-71688633D01*
X90125483Y-71631433D01*
X90125492Y-71631429D01*
X90339578Y-71531600D01*
X90533082Y-71396105D01*
X90700105Y-71229082D01*
X90835600Y-71035578D01*
X90935429Y-70821492D01*
X90935433Y-70821483D01*
X90968158Y-70699350D01*
X91004522Y-70639690D01*
X91067369Y-70609160D01*
X91136745Y-70617454D01*
X91190623Y-70661939D01*
X91206593Y-70695447D01*
X91226768Y-70761954D01*
X91324315Y-70944450D01*
X91355172Y-70982049D01*
X91455589Y-71104410D01*
X91529926Y-71165416D01*
X91615550Y-71235685D01*
X91798046Y-71333232D01*
X91996066Y-71393300D01*
X91996065Y-71393300D01*
X92014529Y-71395118D01*
X92202000Y-71413583D01*
X92407934Y-71393300D01*
X92605954Y-71333232D01*
X92788450Y-71235685D01*
X92948410Y-71104410D01*
X93044710Y-70987067D01*
X93102455Y-70947733D01*
X93172299Y-70945862D01*
X93232068Y-70982049D01*
X93242140Y-70994612D01*
X93250556Y-71006632D01*
X93253462Y-71011193D01*
X93259792Y-71022156D01*
X93273706Y-71046255D01*
X93296612Y-71065475D01*
X93304715Y-71072275D01*
X93308705Y-71075931D01*
X93990563Y-71757789D01*
X93994218Y-71761778D01*
X94020241Y-71792790D01*
X94020243Y-71792791D01*
X94020245Y-71792794D01*
X94020247Y-71792795D01*
X94020248Y-71792796D01*
X94055299Y-71813033D01*
X94059862Y-71815939D01*
X94093016Y-71839154D01*
X94093019Y-71839154D01*
X94097876Y-71841420D01*
X94114633Y-71848360D01*
X94119650Y-71850186D01*
X94119652Y-71850186D01*
X94119655Y-71850188D01*
X94159518Y-71857216D01*
X94164776Y-71858382D01*
X94203893Y-71868864D01*
X94244218Y-71865335D01*
X94249622Y-71865100D01*
X96083478Y-71865100D01*
X96088881Y-71865335D01*
X96129207Y-71868864D01*
X96168340Y-71858377D01*
X96173562Y-71857219D01*
X96213445Y-71850188D01*
X96213450Y-71850184D01*
X96218499Y-71848347D01*
X96235224Y-71841419D01*
X96240081Y-71839154D01*
X96240084Y-71839154D01*
X96273241Y-71815935D01*
X96277790Y-71813038D01*
X96312855Y-71792794D01*
X96312859Y-71792790D01*
X96338876Y-71761782D01*
X96342522Y-71757802D01*
X96741005Y-71359319D01*
X96802326Y-71325836D01*
X96872018Y-71330820D01*
X96876132Y-71332439D01*
X96878038Y-71333227D01*
X96878046Y-71333232D01*
X97076066Y-71393300D01*
X97076065Y-71393300D01*
X97094529Y-71395118D01*
X97282000Y-71413583D01*
X97487934Y-71393300D01*
X97685954Y-71333232D01*
X97868450Y-71235685D01*
X98028410Y-71104410D01*
X98159685Y-70944450D01*
X98257232Y-70761954D01*
X98317300Y-70563934D01*
X98337583Y-70358000D01*
X98317300Y-70152066D01*
X98257232Y-69954046D01*
X98159685Y-69771550D01*
X98133707Y-69739896D01*
X98094454Y-69692065D01*
X98067141Y-69627755D01*
X98078932Y-69558887D01*
X98126084Y-69507327D01*
X98190307Y-69489400D01*
X98913693Y-69489400D01*
X98980732Y-69509085D01*
X99026487Y-69561889D01*
X99036431Y-69631047D01*
X99009546Y-69692065D01*
X98944317Y-69771546D01*
X98846769Y-69954043D01*
X98786699Y-70152067D01*
X98766417Y-70358000D01*
X98786699Y-70563932D01*
X98786700Y-70563934D01*
X98846768Y-70761954D01*
X98944315Y-70944450D01*
X98975172Y-70982049D01*
X99075589Y-71104410D01*
X99149926Y-71165416D01*
X99235550Y-71235685D01*
X99418046Y-71333232D01*
X99418051Y-71333233D01*
X99419951Y-71334021D01*
X99420796Y-71334701D01*
X99423419Y-71336104D01*
X99423153Y-71336601D01*
X99474355Y-71377862D01*
X99496421Y-71444156D01*
X99496500Y-71448583D01*
X99496500Y-72788578D01*
X99496264Y-72793985D01*
X99492735Y-72834308D01*
X99503212Y-72873410D01*
X99504383Y-72878690D01*
X99511411Y-72918543D01*
X99513235Y-72923555D01*
X99520197Y-72940361D01*
X99522445Y-72945181D01*
X99522446Y-72945184D01*
X99532860Y-72960057D01*
X99545655Y-72978331D01*
X99548561Y-72982892D01*
X99568806Y-73017955D01*
X99599815Y-73043975D01*
X99603805Y-73047631D01*
X103743847Y-77187673D01*
X103777332Y-77248996D01*
X103772348Y-77318688D01*
X103730476Y-77374621D01*
X103688260Y-77395129D01*
X103661380Y-77402331D01*
X103661373Y-77402334D01*
X103455213Y-77498468D01*
X103382226Y-77549573D01*
X104063299Y-78230646D01*
X103982552Y-78243435D01*
X103869655Y-78300959D01*
X103780059Y-78390555D01*
X103722535Y-78503452D01*
X103709746Y-78584199D01*
X103028673Y-77903126D01*
X103028672Y-77903127D01*
X102977568Y-77976113D01*
X102881434Y-78182273D01*
X102881430Y-78182282D01*
X102822560Y-78401989D01*
X102822558Y-78402000D01*
X102802734Y-78628597D01*
X102802734Y-78628602D01*
X102822558Y-78855199D01*
X102822560Y-78855210D01*
X102881430Y-79074917D01*
X102881434Y-79074926D01*
X102977565Y-79281081D01*
X102977566Y-79281083D01*
X103028673Y-79354071D01*
X103028674Y-79354072D01*
X103709746Y-78672999D01*
X103722535Y-78753748D01*
X103780059Y-78866645D01*
X103869655Y-78956241D01*
X103982552Y-79013765D01*
X104063299Y-79026553D01*
X103382226Y-79707625D01*
X103382226Y-79707626D01*
X103455212Y-79758731D01*
X103455216Y-79758733D01*
X103661373Y-79854865D01*
X103661382Y-79854869D01*
X103881089Y-79913739D01*
X103881100Y-79913741D01*
X104107698Y-79933566D01*
X104107702Y-79933566D01*
X104334299Y-79913741D01*
X104334310Y-79913739D01*
X104554017Y-79854869D01*
X104554031Y-79854864D01*
X104760178Y-79758736D01*
X104833172Y-79707625D01*
X104152101Y-79026553D01*
X104232848Y-79013765D01*
X104345745Y-78956241D01*
X104435341Y-78866645D01*
X104492865Y-78753748D01*
X104505653Y-78673000D01*
X105186725Y-79354072D01*
X105237836Y-79281078D01*
X105333964Y-79074931D01*
X105333969Y-79074917D01*
X105362345Y-78969015D01*
X105398709Y-78909355D01*
X105461556Y-78878825D01*
X105530932Y-78887119D01*
X105569801Y-78913427D01*
X107857693Y-81201319D01*
X107891178Y-81262642D01*
X107886194Y-81332334D01*
X107844322Y-81388267D01*
X107778858Y-81412684D01*
X107770012Y-81413000D01*
X105137595Y-81413000D01*
X105070556Y-81393315D01*
X105028237Y-81347453D01*
X104938714Y-81179967D01*
X104938709Y-81179960D01*
X104813683Y-81027616D01*
X104661339Y-80902590D01*
X104661332Y-80902586D01*
X104487533Y-80809688D01*
X104487527Y-80809686D01*
X104298932Y-80752476D01*
X104298929Y-80752475D01*
X104102800Y-80733159D01*
X103906670Y-80752475D01*
X103718066Y-80809688D01*
X103544267Y-80902586D01*
X103544260Y-80902590D01*
X103391916Y-81027616D01*
X103266890Y-81179960D01*
X103266886Y-81179967D01*
X103173988Y-81353766D01*
X103116775Y-81542370D01*
X103097459Y-81738500D01*
X103116775Y-81934629D01*
X103173988Y-82123233D01*
X103266886Y-82297032D01*
X103266890Y-82297039D01*
X103391916Y-82449383D01*
X103544260Y-82574409D01*
X103544267Y-82574413D01*
X103718066Y-82667311D01*
X103718069Y-82667311D01*
X103718073Y-82667314D01*
X103906668Y-82724524D01*
X104102800Y-82743841D01*
X104298932Y-82724524D01*
X104487527Y-82667314D01*
X104661338Y-82574410D01*
X104813683Y-82449383D01*
X104938710Y-82297038D01*
X104938710Y-82297036D01*
X104938714Y-82297032D01*
X105028237Y-82129547D01*
X105077199Y-82079702D01*
X105137595Y-82064000D01*
X107639312Y-82064000D01*
X107706351Y-82083685D01*
X107726993Y-82100319D01*
X112000488Y-86373814D01*
X112033973Y-86435137D01*
X112035746Y-86477679D01*
X112026818Y-86545497D01*
X112026818Y-86545501D01*
X112047455Y-86702260D01*
X112047456Y-86702262D01*
X112088876Y-86802260D01*
X112107964Y-86848341D01*
X112204218Y-86973782D01*
X112329659Y-87070036D01*
X112475738Y-87130544D01*
X112542520Y-87139336D01*
X112632499Y-87151182D01*
X112632500Y-87151182D01*
X112632501Y-87151182D01*
X112696282Y-87142785D01*
X112789262Y-87130544D01*
X112935341Y-87070036D01*
X113060782Y-86973782D01*
X113157036Y-86848341D01*
X113187852Y-86773943D01*
X113231690Y-86719544D01*
X113297983Y-86697478D01*
X113365683Y-86714756D01*
X113390092Y-86733718D01*
X117140181Y-90483807D01*
X117173666Y-90545130D01*
X117176500Y-90571488D01*
X117176500Y-96647400D01*
X117156815Y-96714439D01*
X117104011Y-96760194D01*
X117052500Y-96771400D01*
X116761100Y-96771400D01*
X116694061Y-96751715D01*
X116648306Y-96698911D01*
X116637100Y-96647400D01*
X116637100Y-95378420D01*
X116637336Y-95373013D01*
X116637662Y-95369294D01*
X116640864Y-95332693D01*
X116630382Y-95293576D01*
X116629216Y-95288318D01*
X116622188Y-95248455D01*
X116622186Y-95248452D01*
X116622186Y-95248450D01*
X116620360Y-95243433D01*
X116613420Y-95226676D01*
X116611154Y-95221819D01*
X116611154Y-95221816D01*
X116587939Y-95188662D01*
X116585033Y-95184099D01*
X116564796Y-95149048D01*
X116564795Y-95149047D01*
X116564794Y-95149045D01*
X116533777Y-95123018D01*
X116529793Y-95119367D01*
X110733163Y-89322737D01*
X104898719Y-83488293D01*
X104895074Y-83484314D01*
X104869056Y-83453307D01*
X104869055Y-83453306D01*
X104857658Y-83446726D01*
X104833992Y-83433061D01*
X104829431Y-83430155D01*
X104816287Y-83420952D01*
X104796284Y-83406946D01*
X104796281Y-83406945D01*
X104791461Y-83404697D01*
X104774655Y-83397735D01*
X104769643Y-83395911D01*
X104729790Y-83388883D01*
X104724510Y-83387712D01*
X104685408Y-83377235D01*
X104650492Y-83380290D01*
X104645081Y-83380764D01*
X104639678Y-83381000D01*
X93401313Y-83381000D01*
X93395911Y-83380764D01*
X93388526Y-83380118D01*
X93355592Y-83377236D01*
X93355591Y-83377236D01*
X93316499Y-83387711D01*
X93311219Y-83388882D01*
X93271354Y-83395912D01*
X93266362Y-83397729D01*
X93249517Y-83404706D01*
X93244713Y-83406946D01*
X93211563Y-83430158D01*
X93207002Y-83433064D01*
X93171948Y-83453304D01*
X93171945Y-83453306D01*
X93171943Y-83453307D01*
X93171942Y-83453309D01*
X93145923Y-83484315D01*
X93142269Y-83488303D01*
X92359702Y-84270870D01*
X92355713Y-84274525D01*
X92324507Y-84300711D01*
X92260499Y-84328725D01*
X92191507Y-84317687D01*
X92139435Y-84271100D01*
X92120800Y-84205723D01*
X92120800Y-81017787D01*
X92140485Y-80950748D01*
X92157114Y-80930111D01*
X94960204Y-78127020D01*
X94964166Y-78123389D01*
X94995194Y-78097355D01*
X95015438Y-78062290D01*
X95018335Y-78057741D01*
X95041554Y-78024584D01*
X95041554Y-78024581D01*
X95043819Y-78019724D01*
X95050747Y-78002999D01*
X95052587Y-77997946D01*
X95052588Y-77997945D01*
X95059621Y-77958050D01*
X95060777Y-77952837D01*
X95071263Y-77913707D01*
X95067735Y-77873389D01*
X95067500Y-77867986D01*
X95067500Y-77798583D01*
X95087185Y-77731544D01*
X95139989Y-77685789D01*
X95144049Y-77684021D01*
X95145945Y-77683234D01*
X95145954Y-77683232D01*
X95328450Y-77585685D01*
X95488410Y-77454410D01*
X95619685Y-77294450D01*
X95717232Y-77111954D01*
X95777300Y-76913934D01*
X95797583Y-76708000D01*
X95777300Y-76502066D01*
X95717232Y-76304046D01*
X95619685Y-76121550D01*
X95544897Y-76030420D01*
X95488410Y-75961589D01*
X95338121Y-75838252D01*
X95328450Y-75830315D01*
X95145954Y-75732768D01*
X94947934Y-75672700D01*
X94947932Y-75672699D01*
X94947934Y-75672699D01*
X94742000Y-75652417D01*
X94536067Y-75672699D01*
X94338043Y-75732769D01*
X94243478Y-75783316D01*
X94155550Y-75830315D01*
X94155548Y-75830316D01*
X94155547Y-75830317D01*
X93995589Y-75961589D01*
X93864317Y-76121547D01*
X93766769Y-76304043D01*
X93706699Y-76502067D01*
X93686417Y-76708000D01*
X93706699Y-76913932D01*
X93706700Y-76913934D01*
X93766768Y-77111954D01*
X93864315Y-77294450D01*
X93891844Y-77327994D01*
X93995589Y-77454410D01*
X94155548Y-77585684D01*
X94155550Y-77585685D01*
X94250110Y-77636229D01*
X94285279Y-77655027D01*
X94335124Y-77703989D01*
X94350584Y-77772127D01*
X94326752Y-77837807D01*
X94314507Y-77852066D01*
X91880581Y-80285993D01*
X91819258Y-80319478D01*
X91749566Y-80314494D01*
X91693633Y-80272622D01*
X91669216Y-80207158D01*
X91668900Y-80198312D01*
X91668900Y-78929687D01*
X91688585Y-78862648D01*
X91705215Y-78842010D01*
X92420215Y-78127009D01*
X92424166Y-78123389D01*
X92455194Y-78097355D01*
X92475438Y-78062290D01*
X92478335Y-78057741D01*
X92501554Y-78024584D01*
X92501554Y-78024581D01*
X92503819Y-78019724D01*
X92510747Y-78002999D01*
X92512584Y-77997950D01*
X92512588Y-77997945D01*
X92519619Y-77958062D01*
X92520777Y-77952840D01*
X92531264Y-77913707D01*
X92527735Y-77873378D01*
X92527500Y-77867975D01*
X92527500Y-77798583D01*
X92547185Y-77731544D01*
X92599989Y-77685789D01*
X92604049Y-77684021D01*
X92605945Y-77683234D01*
X92605954Y-77683232D01*
X92788450Y-77585685D01*
X92948410Y-77454410D01*
X93079685Y-77294450D01*
X93177232Y-77111954D01*
X93237300Y-76913934D01*
X93257583Y-76708000D01*
X93237300Y-76502066D01*
X93177232Y-76304046D01*
X93079685Y-76121550D01*
X93004897Y-76030420D01*
X92948410Y-75961589D01*
X92798121Y-75838252D01*
X92788450Y-75830315D01*
X92605954Y-75732768D01*
X92407934Y-75672700D01*
X92407932Y-75672699D01*
X92407934Y-75672699D01*
X92202000Y-75652417D01*
X91996067Y-75672699D01*
X91798043Y-75732769D01*
X91703478Y-75783316D01*
X91615550Y-75830315D01*
X91615548Y-75830316D01*
X91615547Y-75830317D01*
X91455589Y-75961589D01*
X91324317Y-76121547D01*
X91226767Y-76304046D01*
X91206593Y-76370552D01*
X91168296Y-76428990D01*
X91104483Y-76457447D01*
X91035416Y-76446886D01*
X90983023Y-76400661D01*
X90968158Y-76366649D01*
X90935433Y-76244516D01*
X90935429Y-76244507D01*
X90835600Y-76030422D01*
X90835599Y-76030420D01*
X90700113Y-75836926D01*
X90700108Y-75836920D01*
X90533082Y-75669894D01*
X90339578Y-75534399D01*
X90125492Y-75434570D01*
X90125486Y-75434567D01*
X89912000Y-75377364D01*
X89912000Y-76272498D01*
X89804315Y-76223320D01*
X89697763Y-76208000D01*
X89626237Y-76208000D01*
X89519685Y-76223320D01*
X89412000Y-76272498D01*
X89412000Y-75377364D01*
X89411999Y-75377364D01*
X89198513Y-75434567D01*
X89198507Y-75434570D01*
X88984422Y-75534399D01*
X88984420Y-75534400D01*
X88790926Y-75669886D01*
X88790920Y-75669891D01*
X88623891Y-75836920D01*
X88623886Y-75836926D01*
X88488400Y-76030420D01*
X88488399Y-76030422D01*
X88408882Y-76200948D01*
X88362710Y-76253387D01*
X88295516Y-76272539D01*
X88228635Y-76252323D01*
X88183300Y-76199158D01*
X88172500Y-76148543D01*
X88172500Y-75838249D01*
X88172499Y-75838247D01*
X88160868Y-75779770D01*
X88160867Y-75779769D01*
X88116552Y-75713447D01*
X88050230Y-75669132D01*
X88050229Y-75669131D01*
X87991752Y-75657500D01*
X87991748Y-75657500D01*
X86252252Y-75657500D01*
X86252247Y-75657500D01*
X86193770Y-75669131D01*
X86193769Y-75669132D01*
X86127447Y-75713447D01*
X86083132Y-75779769D01*
X86083131Y-75779770D01*
X86071500Y-75838247D01*
X86071500Y-77577752D01*
X86083131Y-77636229D01*
X86083132Y-77636230D01*
X86127447Y-77702552D01*
X86193769Y-77746867D01*
X86193770Y-77746868D01*
X86252247Y-77758499D01*
X86252250Y-77758500D01*
X86252252Y-77758500D01*
X86488712Y-77758500D01*
X86555751Y-77778185D01*
X86601506Y-77830989D01*
X86611450Y-77900147D01*
X86582425Y-77963703D01*
X86576393Y-77970180D01*
X82249541Y-82297032D01*
X78174703Y-86371870D01*
X78170714Y-86375525D01*
X78139705Y-86401545D01*
X78119462Y-86436606D01*
X78116556Y-86441166D01*
X78093346Y-86474313D01*
X78091106Y-86479117D01*
X78084129Y-86495961D01*
X78082310Y-86500959D01*
X78075283Y-86540811D01*
X78074112Y-86546091D01*
X78063635Y-86585191D01*
X78067164Y-86625513D01*
X78067400Y-86630920D01*
X78067400Y-88188000D01*
X78047715Y-88255039D01*
X77994911Y-88300794D01*
X77943400Y-88312000D01*
X77466000Y-88312000D01*
X77466000Y-89226498D01*
X77358315Y-89177320D01*
X77251763Y-89162000D01*
X77180237Y-89162000D01*
X77073685Y-89177320D01*
X76966000Y-89226498D01*
X76966000Y-88312000D01*
X76318155Y-88312000D01*
X76258627Y-88318401D01*
X76258620Y-88318403D01*
X76123913Y-88368645D01*
X76123906Y-88368649D01*
X76008812Y-88454809D01*
X76008809Y-88454812D01*
X75922649Y-88569906D01*
X75922645Y-88569913D01*
X75872403Y-88704620D01*
X75872401Y-88704627D01*
X75866000Y-88764155D01*
X75866000Y-89412000D01*
X76782314Y-89412000D01*
X76756507Y-89452156D01*
X76716000Y-89590111D01*
X76716000Y-89733889D01*
X76756507Y-89871844D01*
X76782314Y-89912000D01*
X75866000Y-89912000D01*
X75866000Y-90559844D01*
X75872401Y-90619372D01*
X75872403Y-90619379D01*
X75922645Y-90754086D01*
X75922649Y-90754093D01*
X76008809Y-90869187D01*
X76008812Y-90869190D01*
X76123906Y-90955350D01*
X76123913Y-90955354D01*
X76258620Y-91005596D01*
X76258627Y-91005598D01*
X76318155Y-91011999D01*
X76318172Y-91012000D01*
X76718813Y-91012000D01*
X76785852Y-91031685D01*
X76831607Y-91084489D01*
X76841551Y-91153647D01*
X76812526Y-91217203D01*
X76777267Y-91245357D01*
X76629550Y-91324315D01*
X76629548Y-91324316D01*
X76629547Y-91324317D01*
X76469589Y-91455589D01*
X76338318Y-91615546D01*
X76338315Y-91615550D01*
X76320042Y-91649736D01*
X76240769Y-91798043D01*
X76180699Y-91996067D01*
X76160417Y-92202000D01*
X76180699Y-92407932D01*
X76197023Y-92461745D01*
X76240768Y-92605954D01*
X76338315Y-92788450D01*
X76338317Y-92788452D01*
X76469589Y-92948410D01*
X76566209Y-93027702D01*
X76629550Y-93079685D01*
X76812046Y-93177232D01*
X77010066Y-93237300D01*
X77010065Y-93237300D01*
X77028529Y-93239118D01*
X77216000Y-93257583D01*
X77421934Y-93237300D01*
X77619954Y-93177232D01*
X77802450Y-93079685D01*
X77962410Y-92948410D01*
X78093685Y-92788450D01*
X78191232Y-92605954D01*
X78251300Y-92407934D01*
X78271583Y-92202000D01*
X78251300Y-91996066D01*
X78191232Y-91798046D01*
X78093685Y-91615550D01*
X78089473Y-91610418D01*
X78033227Y-91541881D01*
X78005914Y-91477571D01*
X78017705Y-91408703D01*
X78064857Y-91357143D01*
X78107544Y-91341100D01*
X78138245Y-91335688D01*
X78138250Y-91335684D01*
X78143299Y-91333847D01*
X78160024Y-91326919D01*
X78164881Y-91324654D01*
X78164884Y-91324654D01*
X78198041Y-91301435D01*
X78202590Y-91298538D01*
X78237655Y-91278294D01*
X78263681Y-91247276D01*
X78267321Y-91243303D01*
X78611110Y-90899515D01*
X78615072Y-90895884D01*
X78646094Y-90869855D01*
X78666344Y-90834779D01*
X78669228Y-90830252D01*
X78692454Y-90797084D01*
X78692454Y-90797081D01*
X78694719Y-90792224D01*
X78701647Y-90775499D01*
X78703487Y-90770446D01*
X78703488Y-90770445D01*
X78710521Y-90730550D01*
X78711677Y-90725337D01*
X78722163Y-90686207D01*
X78718635Y-90645889D01*
X78718400Y-90640486D01*
X78718400Y-86800187D01*
X78738085Y-86733148D01*
X78754714Y-86712511D01*
X80465225Y-85002000D01*
X82544659Y-85002000D01*
X82563975Y-85198129D01*
X82566591Y-85206753D01*
X82605551Y-85335187D01*
X82621188Y-85386733D01*
X82714086Y-85560532D01*
X82714090Y-85560539D01*
X82839116Y-85712883D01*
X82991460Y-85837909D01*
X82991467Y-85837913D01*
X83165266Y-85930811D01*
X83165269Y-85930811D01*
X83165273Y-85930814D01*
X83353868Y-85988024D01*
X83550000Y-86007341D01*
X83746132Y-85988024D01*
X83934727Y-85930814D01*
X83954497Y-85920247D01*
X84096540Y-85844323D01*
X84108538Y-85837910D01*
X84260883Y-85712883D01*
X84385910Y-85560538D01*
X84450989Y-85438784D01*
X84478811Y-85386733D01*
X84478811Y-85386732D01*
X84478814Y-85386727D01*
X84536024Y-85198132D01*
X84555341Y-85002000D01*
X84536024Y-84805868D01*
X84478814Y-84617273D01*
X84478811Y-84617269D01*
X84478811Y-84617266D01*
X84385913Y-84443467D01*
X84385909Y-84443460D01*
X84260883Y-84291116D01*
X84108539Y-84166090D01*
X84108532Y-84166086D01*
X83934733Y-84073188D01*
X83934727Y-84073186D01*
X83750464Y-84017290D01*
X83746129Y-84015975D01*
X83550000Y-83996659D01*
X83353870Y-84015975D01*
X83165266Y-84073188D01*
X82991467Y-84166086D01*
X82991460Y-84166090D01*
X82839116Y-84291116D01*
X82714090Y-84443460D01*
X82714086Y-84443467D01*
X82621188Y-84617266D01*
X82563975Y-84805870D01*
X82544659Y-85002000D01*
X80465225Y-85002000D01*
X87340204Y-78127020D01*
X87344166Y-78123389D01*
X87375194Y-78097355D01*
X87395438Y-78062290D01*
X87398335Y-78057741D01*
X87421554Y-78024584D01*
X87421554Y-78024581D01*
X87423819Y-78019724D01*
X87430747Y-78002999D01*
X87432584Y-77997950D01*
X87432588Y-77997945D01*
X87439619Y-77958062D01*
X87440777Y-77952840D01*
X87451264Y-77913707D01*
X87451263Y-77913702D01*
X87451264Y-77913701D01*
X87449480Y-77893306D01*
X87463247Y-77824806D01*
X87511863Y-77774624D01*
X87573008Y-77758500D01*
X87991750Y-77758500D01*
X87991751Y-77758499D01*
X88006568Y-77755552D01*
X88050229Y-77746868D01*
X88050229Y-77746867D01*
X88050231Y-77746867D01*
X88116552Y-77702552D01*
X88160867Y-77636231D01*
X88160867Y-77636229D01*
X88160868Y-77636229D01*
X88170922Y-77585682D01*
X88172500Y-77577748D01*
X88172500Y-77267456D01*
X88192185Y-77200417D01*
X88244989Y-77154662D01*
X88314147Y-77144718D01*
X88377703Y-77173743D01*
X88408882Y-77215051D01*
X88488400Y-77385578D01*
X88623894Y-77579082D01*
X88790917Y-77746105D01*
X88984421Y-77881600D01*
X89198507Y-77981429D01*
X89198516Y-77981433D01*
X89412000Y-78038634D01*
X89412000Y-77143501D01*
X89519685Y-77192680D01*
X89626237Y-77208000D01*
X89697763Y-77208000D01*
X89804315Y-77192680D01*
X89912000Y-77143501D01*
X89912000Y-78038633D01*
X90125483Y-77981433D01*
X90125492Y-77981429D01*
X90339578Y-77881600D01*
X90533082Y-77746105D01*
X90700105Y-77579082D01*
X90835600Y-77385578D01*
X90935429Y-77171492D01*
X90935433Y-77171483D01*
X90968158Y-77049350D01*
X91004522Y-76989690D01*
X91067369Y-76959160D01*
X91136745Y-76967454D01*
X91190623Y-77011939D01*
X91206593Y-77045447D01*
X91226768Y-77111954D01*
X91324315Y-77294450D01*
X91351844Y-77327994D01*
X91455589Y-77454410D01*
X91615548Y-77585684D01*
X91615550Y-77585685D01*
X91710110Y-77636229D01*
X91745279Y-77655027D01*
X91795124Y-77703989D01*
X91810584Y-77772127D01*
X91786752Y-77837807D01*
X91774507Y-77852066D01*
X91125203Y-78501370D01*
X91121214Y-78505025D01*
X91090205Y-78531045D01*
X91069962Y-78566106D01*
X91067056Y-78570666D01*
X91043846Y-78603813D01*
X91041606Y-78608617D01*
X91034629Y-78625461D01*
X91032810Y-78630459D01*
X91025783Y-78670311D01*
X91024612Y-78675591D01*
X91014135Y-78714691D01*
X91017664Y-78755013D01*
X91017900Y-78760420D01*
X91017900Y-81802811D01*
X90998215Y-81869850D01*
X90981581Y-81890492D01*
X85021146Y-87850926D01*
X84959823Y-87884411D01*
X84890131Y-87879427D01*
X84834198Y-87837555D01*
X84813690Y-87795339D01*
X84776268Y-87655679D01*
X84776265Y-87655673D01*
X84680133Y-87449516D01*
X84680131Y-87449512D01*
X84629026Y-87376526D01*
X84629025Y-87376526D01*
X83947953Y-88057598D01*
X83935165Y-87976852D01*
X83877641Y-87863955D01*
X83788045Y-87774359D01*
X83675148Y-87716835D01*
X83594400Y-87704046D01*
X84275472Y-87022974D01*
X84275471Y-87022973D01*
X84202483Y-86971866D01*
X84202481Y-86971865D01*
X83996326Y-86875734D01*
X83996317Y-86875730D01*
X83776610Y-86816860D01*
X83776599Y-86816858D01*
X83550002Y-86797034D01*
X83549998Y-86797034D01*
X83323400Y-86816858D01*
X83323389Y-86816860D01*
X83103682Y-86875730D01*
X83103673Y-86875734D01*
X82897513Y-86971868D01*
X82824527Y-87022972D01*
X82824526Y-87022973D01*
X83505600Y-87704046D01*
X83424852Y-87716835D01*
X83311955Y-87774359D01*
X83222359Y-87863955D01*
X83164835Y-87976852D01*
X83152046Y-88057599D01*
X82470973Y-87376526D01*
X82470972Y-87376527D01*
X82419868Y-87449513D01*
X82323734Y-87655673D01*
X82323730Y-87655682D01*
X82264860Y-87875389D01*
X82264858Y-87875400D01*
X82245034Y-88101997D01*
X82245034Y-88102002D01*
X82264858Y-88328599D01*
X82264860Y-88328610D01*
X82323730Y-88548317D01*
X82323734Y-88548326D01*
X82419865Y-88754481D01*
X82419866Y-88754483D01*
X82470973Y-88827471D01*
X82470974Y-88827472D01*
X83152046Y-88146399D01*
X83164835Y-88227148D01*
X83222359Y-88340045D01*
X83311955Y-88429641D01*
X83424852Y-88487165D01*
X83505599Y-88499953D01*
X82824526Y-89181025D01*
X82824526Y-89181026D01*
X82897512Y-89232131D01*
X82897516Y-89232133D01*
X83108582Y-89330555D01*
X83107479Y-89332918D01*
X83154972Y-89367864D01*
X83179927Y-89433126D01*
X83165637Y-89501518D01*
X83144001Y-89530670D01*
X78360101Y-94314571D01*
X78298778Y-94348056D01*
X78229086Y-94343072D01*
X78173153Y-94301200D01*
X78163062Y-94285344D01*
X78145239Y-94252000D01*
X78093685Y-94155550D01*
X78034632Y-94083593D01*
X77962410Y-93995589D01*
X77802452Y-93864317D01*
X77802453Y-93864317D01*
X77802450Y-93864315D01*
X77619954Y-93766768D01*
X77421934Y-93706700D01*
X77421932Y-93706699D01*
X77421934Y-93706699D01*
X77216000Y-93686417D01*
X77010067Y-93706699D01*
X76812043Y-93766769D01*
X76753778Y-93797913D01*
X76629550Y-93864315D01*
X76629548Y-93864316D01*
X76629547Y-93864317D01*
X76469589Y-93995589D01*
X76356971Y-94132817D01*
X76338315Y-94155550D01*
X76316870Y-94195670D01*
X76240769Y-94338043D01*
X76180699Y-94536067D01*
X76160417Y-94742000D01*
X76180699Y-94947932D01*
X76188774Y-94974550D01*
X76240768Y-95145954D01*
X76240772Y-95145962D01*
X76241559Y-95147862D01*
X76241675Y-95148941D01*
X76242537Y-95151783D01*
X76241998Y-95151946D01*
X76249027Y-95217331D01*
X76217751Y-95279810D01*
X76214678Y-95282994D01*
X75819303Y-95678370D01*
X75815314Y-95682025D01*
X75784305Y-95708045D01*
X75764062Y-95743106D01*
X75761156Y-95747666D01*
X75737946Y-95780813D01*
X75735706Y-95785617D01*
X75728729Y-95802461D01*
X75726910Y-95807459D01*
X75719883Y-95847311D01*
X75718712Y-95852591D01*
X75708235Y-95891691D01*
X75711764Y-95932013D01*
X75712000Y-95937420D01*
X75712000Y-102833578D01*
X75711764Y-102838985D01*
X75708235Y-102879308D01*
X75000500Y-102879308D01*
X75000500Y-73000002D01*
X76594506Y-73000002D01*
X76614469Y-73368196D01*
X76614470Y-73368213D01*
X76674122Y-73732068D01*
X76674128Y-73732094D01*
X76772768Y-74087365D01*
X76772770Y-74087371D01*
X76909255Y-74429926D01*
X76909261Y-74429938D01*
X77081973Y-74755708D01*
X77081976Y-74755713D01*
X77081978Y-74755716D01*
X77185444Y-74908316D01*
X77288909Y-75060916D01*
X77456639Y-75258382D01*
X77527627Y-75341956D01*
X77795330Y-75595538D01*
X78088881Y-75818690D01*
X78404838Y-76008795D01*
X78404840Y-76008796D01*
X78404842Y-76008797D01*
X78404846Y-76008799D01*
X78706898Y-76148543D01*
X78739497Y-76163625D01*
X79088934Y-76281364D01*
X79449052Y-76360632D01*
X79815630Y-76400500D01*
X79815636Y-76400500D01*
X80184364Y-76400500D01*
X80184370Y-76400500D01*
X80550948Y-76360632D01*
X80911066Y-76281364D01*
X81260503Y-76163625D01*
X81595162Y-76008795D01*
X81911119Y-75818690D01*
X82204670Y-75595538D01*
X82472373Y-75341956D01*
X82711090Y-75060917D01*
X82918022Y-74755716D01*
X83090743Y-74429930D01*
X83227227Y-74087379D01*
X83325875Y-73732081D01*
X83344237Y-73620077D01*
X83385529Y-73368213D01*
X83385529Y-73368210D01*
X83385531Y-73368199D01*
X83405494Y-73000000D01*
X83404566Y-72982892D01*
X83401078Y-72918545D01*
X83385531Y-72631801D01*
X83350212Y-72416369D01*
X83325877Y-72267931D01*
X83325876Y-72267930D01*
X83325875Y-72267919D01*
X83257084Y-72020156D01*
X83227231Y-71912634D01*
X83227229Y-71912628D01*
X83227228Y-71912627D01*
X83227227Y-71912621D01*
X83090743Y-71570070D01*
X82998917Y-71396868D01*
X82918026Y-71244291D01*
X82918024Y-71244288D01*
X82918022Y-71244284D01*
X82711090Y-70939083D01*
X82472373Y-70658044D01*
X82204670Y-70404462D01*
X81911119Y-70181310D01*
X81595162Y-69991205D01*
X81595161Y-69991204D01*
X81595157Y-69991202D01*
X81595153Y-69991200D01*
X81260513Y-69836379D01*
X81260508Y-69836377D01*
X81260503Y-69836375D01*
X81068109Y-69771550D01*
X80911065Y-69718635D01*
X80550946Y-69639367D01*
X80184371Y-69599500D01*
X80184370Y-69599500D01*
X79815630Y-69599500D01*
X79815628Y-69599500D01*
X79449053Y-69639367D01*
X79088934Y-69718635D01*
X78851778Y-69798543D01*
X78739497Y-69836375D01*
X78739494Y-69836376D01*
X78739486Y-69836379D01*
X78404846Y-69991200D01*
X78404842Y-69991202D01*
X78306021Y-70050661D01*
X78088881Y-70181310D01*
X78064295Y-70200000D01*
X77795330Y-70404461D01*
X77795330Y-70404462D01*
X77527626Y-70658044D01*
X77288909Y-70939083D01*
X77081979Y-71244282D01*
X77081973Y-71244291D01*
X76909261Y-71570061D01*
X76909255Y-71570073D01*
X76772770Y-71912628D01*
X76772768Y-71912634D01*
X76674128Y-72267905D01*
X76674122Y-72267931D01*
X76614470Y-72631786D01*
X76614469Y-72631803D01*
X76594506Y-72999997D01*
X76594506Y-73000002D01*
X75000500Y-73000002D01*
X75000500Y-70002035D01*
X75000633Y-69997980D01*
X75003512Y-69954043D01*
X75005989Y-69916244D01*
X75018986Y-69734536D01*
X75020014Y-69726903D01*
X75043153Y-69610579D01*
X75045563Y-69599500D01*
X75074533Y-69466323D01*
X75076392Y-69459625D01*
X75116815Y-69340543D01*
X75166159Y-69208251D01*
X75168633Y-69202520D01*
X75225583Y-69087036D01*
X75292179Y-68965076D01*
X75295019Y-68960384D01*
X75366563Y-68853311D01*
X75368428Y-68850676D01*
X75450291Y-68741321D01*
X75453244Y-68737678D01*
X75538503Y-68640459D01*
X75541198Y-68637581D01*
X75637581Y-68541198D01*
X75640459Y-68538503D01*
X75737678Y-68453244D01*
X75741321Y-68450291D01*
X75850676Y-68368428D01*
X75853311Y-68366563D01*
X75960384Y-68295019D01*
X75965076Y-68292179D01*
X76087036Y-68225583D01*
X76202520Y-68168633D01*
X76208251Y-68166159D01*
X76340543Y-68116815D01*
X76459625Y-68076392D01*
X76466323Y-68074533D01*
X76610579Y-68043153D01*
X76616728Y-68041929D01*
X76726903Y-68020014D01*
X76734536Y-68018986D01*
X76916244Y-68005989D01*
X76969211Y-68002517D01*
X76997981Y-68000633D01*
X77002036Y-68000500D01*
X167997964Y-68000500D01*
X168002019Y-68000633D01*
G37*
G04 #@! TD.AperFunction*
M02*
