G04 #@! TF.FileFunction,Copper,L2,Bot,Signal*
%FSLAX46Y46*%
G04 Gerber Fmt 4.6, Leading zero omitted, Abs format (unit mm)*
G04 Created by KiCad (PCBNEW 4.0.6+dfsg1-1) date Thu Nov  9 23:11:41 2017*
%MOMM*%
%LPD*%
G01*
G04 APERTURE LIST*
%ADD10C,0.100000*%
%ADD11R,5.000000X5.000000*%
%ADD12R,1.600000X1.600000*%
%ADD13C,1.600000*%
%ADD14R,3.200000X3.200000*%
%ADD15O,3.200000X3.200000*%
%ADD16R,1.350000X1.350000*%
%ADD17O,1.350000X1.350000*%
%ADD18C,4.800000*%
%ADD19R,4.800000X4.800000*%
%ADD20O,1.600000X1.600000*%
%ADD21R,2.500000X1.100000*%
%ADD22O,2.500000X1.100000*%
%ADD23O,1.100000X2.500000*%
%ADD24O,0.899160X1.501140*%
%ADD25R,0.899160X1.501140*%
%ADD26C,0.250000*%
%ADD27C,0.254000*%
G04 APERTURE END LIST*
D10*
D11*
X158750000Y-105410000D03*
X92710000Y-105410000D03*
D12*
X115570000Y-90170000D03*
D13*
X118070000Y-90170000D03*
D14*
X99060000Y-92710000D03*
D15*
X91440000Y-92710000D03*
D16*
X105410000Y-77470000D03*
D17*
X107410000Y-77470000D03*
X109410000Y-77470000D03*
D18*
X97790000Y-78990000D03*
D19*
X97790000Y-85090000D03*
D18*
X92710000Y-81280000D03*
D13*
X130000000Y-85000000D03*
D20*
X130000000Y-74840000D03*
D13*
X125730000Y-74930000D03*
D20*
X125730000Y-85090000D03*
D13*
X121920000Y-85090000D03*
D20*
X121920000Y-74930000D03*
D13*
X118110000Y-85090000D03*
D20*
X118110000Y-74930000D03*
D13*
X120650000Y-88900000D03*
D20*
X130810000Y-88900000D03*
D12*
X104140000Y-81280000D03*
D20*
X111760000Y-83820000D03*
X104140000Y-83820000D03*
X111760000Y-81280000D03*
D12*
X104140000Y-88900000D03*
D20*
X111760000Y-91440000D03*
X104140000Y-91440000D03*
X111760000Y-88900000D03*
D21*
X134300000Y-80000000D03*
D22*
X134300000Y-82000000D03*
X134300000Y-84000000D03*
X134300000Y-86000000D03*
X134300000Y-88000000D03*
X134300000Y-90000000D03*
X134300000Y-92000000D03*
X134300000Y-94000000D03*
X149700000Y-94000000D03*
X149600000Y-92000000D03*
X149700000Y-90000000D03*
X149700000Y-88000000D03*
X149700000Y-86000000D03*
X149700000Y-84000000D03*
X149700000Y-82000000D03*
X149700000Y-80000000D03*
D23*
X136990000Y-95700000D03*
X138990000Y-95700000D03*
X140990000Y-95700000D03*
X142990000Y-95700000D03*
X144990000Y-95700000D03*
X146990000Y-95700000D03*
D24*
X156210000Y-76200000D03*
X157480000Y-76200000D03*
D25*
X154940000Y-76200000D03*
D26*
X93365300Y-92240000D02*
X93365300Y-92710000D01*
X97790000Y-87815300D02*
X93365300Y-92240000D01*
X97790000Y-85090000D02*
X97790000Y-87815300D01*
X91440000Y-92710000D02*
X92402700Y-92710000D01*
X92402700Y-92710000D02*
X93365300Y-92710000D01*
X92402700Y-102277400D02*
X92710000Y-102584700D01*
X92402700Y-92710000D02*
X92402700Y-102277400D01*
X92710000Y-105410000D02*
X92710000Y-102584700D01*
X111760000Y-91440000D02*
X111760000Y-88900000D01*
X111760000Y-88900000D02*
X111760000Y-83820000D01*
X111760000Y-81280000D02*
X111760000Y-83820000D01*
X109220000Y-81280000D02*
X111760000Y-81280000D01*
X105410000Y-77470000D02*
X109220000Y-81280000D01*
X149542900Y-94000000D02*
X149000000Y-94000000D01*
X154940000Y-88602900D02*
X149542900Y-94000000D01*
X154940000Y-76200000D02*
X154940000Y-88602900D01*
X126636100Y-94886100D02*
X120650000Y-88900000D01*
X135607800Y-94886100D02*
X126636100Y-94886100D01*
X136493900Y-94000000D02*
X135607800Y-94886100D01*
X149000000Y-94000000D02*
X136493900Y-94000000D01*
X115570000Y-90170000D02*
X115570000Y-89044700D01*
X114444700Y-90451300D02*
X114444700Y-90170000D01*
X112186000Y-92710000D02*
X114444700Y-90451300D01*
X99060000Y-92710000D02*
X112186000Y-92710000D01*
X115570000Y-90170000D02*
X114444700Y-90170000D01*
X118110000Y-86504700D02*
X118110000Y-86239400D01*
X115570000Y-89044700D02*
X118110000Y-86504700D01*
X118110000Y-86239400D02*
X118110000Y-85090000D01*
X135000000Y-94000000D02*
X132724700Y-94000000D01*
X128760600Y-90035900D02*
X132724700Y-94000000D01*
X128760600Y-86239400D02*
X128760600Y-90035900D01*
X130000000Y-85000000D02*
X128760600Y-86239400D01*
X126922800Y-76122800D02*
X125730000Y-74930000D01*
X126922800Y-86239400D02*
X126922800Y-76122800D01*
X128760600Y-86239400D02*
X126922800Y-86239400D01*
X126922800Y-86239400D02*
X118110000Y-86239400D01*
X114631900Y-73248400D02*
X110410300Y-77470000D01*
X139373100Y-73248400D02*
X114631900Y-73248400D01*
X148124700Y-82000000D02*
X139373100Y-73248400D01*
X149000000Y-82000000D02*
X148124700Y-82000000D01*
X109410000Y-77470000D02*
X110410300Y-77470000D01*
X104140000Y-83820000D02*
X104140000Y-81280000D01*
X135000000Y-80000000D02*
X135160000Y-80000000D01*
X131125300Y-75965300D02*
X130000000Y-75965300D01*
X135160000Y-80000000D02*
X131125300Y-75965300D01*
X130000000Y-74840000D02*
X130000000Y-75965300D01*
X135875300Y-80715300D02*
X135160000Y-80000000D01*
X135875300Y-86000000D02*
X135875300Y-80715300D01*
X135000000Y-86000000D02*
X135875300Y-86000000D01*
X104140000Y-91440000D02*
X104140000Y-88900000D01*
X125730000Y-79865300D02*
X121920000Y-76055300D01*
X125730000Y-85090000D02*
X125730000Y-79865300D01*
X121920000Y-74930000D02*
X121920000Y-76055300D01*
X156210000Y-76200000D02*
X156210000Y-75124100D01*
X149642000Y-84000000D02*
X149000000Y-84000000D01*
X152692100Y-80949900D02*
X149642000Y-84000000D01*
X152692100Y-76781300D02*
X152692100Y-80949900D01*
X154349300Y-75124100D02*
X152692100Y-76781300D01*
X156210000Y-75124100D02*
X154349300Y-75124100D01*
X120465500Y-73699800D02*
X119235300Y-74930000D01*
X137824500Y-73699800D02*
X120465500Y-73699800D01*
X148124700Y-84000000D02*
X137824500Y-73699800D01*
X149000000Y-84000000D02*
X148124700Y-84000000D01*
X118110000Y-74930000D02*
X119235300Y-74930000D01*
D27*
G36*
X132273000Y-72488400D02*
X114631900Y-72488400D01*
X114341061Y-72546252D01*
X114094499Y-72710999D01*
X110307034Y-76498464D01*
X109911315Y-76234054D01*
X109410000Y-76134336D01*
X108908685Y-76234054D01*
X108483690Y-76518026D01*
X108410000Y-76628311D01*
X108336310Y-76518026D01*
X107911315Y-76234054D01*
X107410000Y-76134336D01*
X106908685Y-76234054D01*
X106616986Y-76428961D01*
X106444699Y-76256673D01*
X106211310Y-76160000D01*
X105695750Y-76160000D01*
X105537000Y-76318750D01*
X105537000Y-77343000D01*
X105557000Y-77343000D01*
X105557000Y-77597000D01*
X105537000Y-77597000D01*
X105537000Y-78621250D01*
X105695750Y-78780000D01*
X106211310Y-78780000D01*
X106444699Y-78683327D01*
X106616986Y-78511039D01*
X106908685Y-78705946D01*
X107410000Y-78805664D01*
X107911315Y-78705946D01*
X108336310Y-78421974D01*
X108410000Y-78311689D01*
X108483690Y-78421974D01*
X108908685Y-78705946D01*
X109410000Y-78805664D01*
X109911315Y-78705946D01*
X110336310Y-78421974D01*
X110472903Y-78217547D01*
X110701139Y-78172148D01*
X110947701Y-78007401D01*
X114946702Y-74008400D01*
X117014311Y-74008400D01*
X116784233Y-74352736D01*
X116675000Y-74901887D01*
X116675000Y-74958113D01*
X116784233Y-75507264D01*
X117095302Y-75972811D01*
X117560849Y-76283880D01*
X118110000Y-76393113D01*
X118659151Y-76283880D01*
X119124698Y-75972811D01*
X119325679Y-75672022D01*
X119526139Y-75632148D01*
X119772701Y-75467401D01*
X120521447Y-74718655D01*
X120485000Y-74901887D01*
X120485000Y-74958113D01*
X120594233Y-75507264D01*
X120905302Y-75972811D01*
X121180118Y-76156437D01*
X121217852Y-76346139D01*
X121382599Y-76592701D01*
X124970000Y-80180102D01*
X124970000Y-83877005D01*
X124715302Y-84047189D01*
X124404233Y-84512736D01*
X124295000Y-85061887D01*
X124295000Y-85118113D01*
X124366865Y-85479400D01*
X123312101Y-85479400D01*
X123354750Y-85376691D01*
X123355248Y-84805813D01*
X123137243Y-84278200D01*
X122733923Y-83874176D01*
X122206691Y-83655250D01*
X121635813Y-83654752D01*
X121108200Y-83872757D01*
X120704176Y-84276077D01*
X120485250Y-84803309D01*
X120484752Y-85374187D01*
X120528225Y-85479400D01*
X119502101Y-85479400D01*
X119544750Y-85376691D01*
X119545248Y-84805813D01*
X119327243Y-84278200D01*
X118923923Y-83874176D01*
X118396691Y-83655250D01*
X117825813Y-83654752D01*
X117298200Y-83872757D01*
X116894176Y-84276077D01*
X116675250Y-84803309D01*
X116674752Y-85374187D01*
X116892757Y-85901800D01*
X117265103Y-86274795D01*
X115032599Y-88507299D01*
X114888767Y-88722560D01*
X114770000Y-88722560D01*
X114534683Y-88766838D01*
X114318559Y-88905910D01*
X114173569Y-89118110D01*
X114122560Y-89370000D01*
X114122560Y-89488767D01*
X113907299Y-89632599D01*
X113742552Y-89879161D01*
X113693019Y-90128179D01*
X113028407Y-90792791D01*
X112991041Y-90702577D01*
X112615134Y-90287611D01*
X112366633Y-90170000D01*
X112615134Y-90052389D01*
X112991041Y-89637423D01*
X113151904Y-89249039D01*
X113029915Y-89027000D01*
X111887000Y-89027000D01*
X111887000Y-91313000D01*
X111907000Y-91313000D01*
X111907000Y-91567000D01*
X111887000Y-91567000D01*
X111887000Y-91587000D01*
X111633000Y-91587000D01*
X111633000Y-91567000D01*
X110490085Y-91567000D01*
X110368096Y-91789039D01*
X110434764Y-91950000D01*
X105501668Y-91950000D01*
X105603113Y-91440000D01*
X105493880Y-90890849D01*
X105182811Y-90425302D01*
X105038535Y-90328899D01*
X105175317Y-90303162D01*
X105391441Y-90164090D01*
X105536431Y-89951890D01*
X105587440Y-89700000D01*
X105587440Y-89249039D01*
X110368096Y-89249039D01*
X110528959Y-89637423D01*
X110904866Y-90052389D01*
X111153367Y-90170000D01*
X110904866Y-90287611D01*
X110528959Y-90702577D01*
X110368096Y-91090961D01*
X110490085Y-91313000D01*
X111633000Y-91313000D01*
X111633000Y-89027000D01*
X110490085Y-89027000D01*
X110368096Y-89249039D01*
X105587440Y-89249039D01*
X105587440Y-88550961D01*
X110368096Y-88550961D01*
X110490085Y-88773000D01*
X111633000Y-88773000D01*
X111633000Y-87629371D01*
X111887000Y-87629371D01*
X111887000Y-88773000D01*
X113029915Y-88773000D01*
X113151904Y-88550961D01*
X112991041Y-88162577D01*
X112615134Y-87747611D01*
X112109041Y-87508086D01*
X111887000Y-87629371D01*
X111633000Y-87629371D01*
X111410959Y-87508086D01*
X110904866Y-87747611D01*
X110528959Y-88162577D01*
X110368096Y-88550961D01*
X105587440Y-88550961D01*
X105587440Y-88100000D01*
X105543162Y-87864683D01*
X105404090Y-87648559D01*
X105191890Y-87503569D01*
X104940000Y-87452560D01*
X103340000Y-87452560D01*
X103104683Y-87496838D01*
X102888559Y-87635910D01*
X102743569Y-87848110D01*
X102692560Y-88100000D01*
X102692560Y-89700000D01*
X102736838Y-89935317D01*
X102875910Y-90151441D01*
X103088110Y-90296431D01*
X103243089Y-90327815D01*
X103097189Y-90425302D01*
X102786120Y-90890849D01*
X102676887Y-91440000D01*
X102778332Y-91950000D01*
X101307440Y-91950000D01*
X101307440Y-91110000D01*
X101263162Y-90874683D01*
X101124090Y-90658559D01*
X100911890Y-90513569D01*
X100660000Y-90462560D01*
X97460000Y-90462560D01*
X97224683Y-90506838D01*
X97008559Y-90645910D01*
X96863569Y-90858110D01*
X96812560Y-91110000D01*
X96812560Y-94310000D01*
X96856838Y-94545317D01*
X96995910Y-94761441D01*
X97208110Y-94906431D01*
X97460000Y-94957440D01*
X100660000Y-94957440D01*
X100895317Y-94913162D01*
X101111441Y-94774090D01*
X101256431Y-94561890D01*
X101307440Y-94310000D01*
X101307440Y-93470000D01*
X112186000Y-93470000D01*
X112476839Y-93412148D01*
X112723401Y-93247401D01*
X114450540Y-91520262D01*
X114518110Y-91566431D01*
X114770000Y-91617440D01*
X116370000Y-91617440D01*
X116605317Y-91573162D01*
X116821441Y-91434090D01*
X116966431Y-91221890D01*
X116975370Y-91177745D01*
X117241861Y-91177745D01*
X117315995Y-91423864D01*
X117853223Y-91616965D01*
X118423454Y-91589778D01*
X118824005Y-91423864D01*
X118898139Y-91177745D01*
X118070000Y-90349605D01*
X117241861Y-91177745D01*
X116975370Y-91177745D01*
X117014646Y-90983799D01*
X117062255Y-90998139D01*
X117890395Y-90170000D01*
X118249605Y-90170000D01*
X119077745Y-90998139D01*
X119323864Y-90924005D01*
X119516965Y-90386777D01*
X119494127Y-89907745D01*
X119821861Y-89907745D01*
X119895995Y-90153864D01*
X120433223Y-90346965D01*
X121003454Y-90319778D01*
X121404005Y-90153864D01*
X121478139Y-89907745D01*
X120650000Y-89079605D01*
X119821861Y-89907745D01*
X119494127Y-89907745D01*
X119489778Y-89816546D01*
X119426202Y-89663061D01*
X119642255Y-89728139D01*
X120470395Y-88900000D01*
X120829605Y-88900000D01*
X121657745Y-89728139D01*
X121903864Y-89654005D01*
X122096965Y-89116777D01*
X122069778Y-88546546D01*
X121903864Y-88145995D01*
X121657745Y-88071861D01*
X120829605Y-88900000D01*
X120470395Y-88900000D01*
X119642255Y-88071861D01*
X119396136Y-88145995D01*
X119203035Y-88683223D01*
X119230222Y-89253454D01*
X119293798Y-89406939D01*
X119077745Y-89341861D01*
X118249605Y-90170000D01*
X117890395Y-90170000D01*
X117062255Y-89341861D01*
X117014833Y-89356145D01*
X116978351Y-89162255D01*
X117241861Y-89162255D01*
X118070000Y-89990395D01*
X118898139Y-89162255D01*
X118824005Y-88916136D01*
X118286777Y-88723035D01*
X117716546Y-88750222D01*
X117315995Y-88916136D01*
X117241861Y-89162255D01*
X116978351Y-89162255D01*
X116973162Y-89134683D01*
X116834090Y-88918559D01*
X116796576Y-88892926D01*
X117797247Y-87892255D01*
X119821861Y-87892255D01*
X120650000Y-88720395D01*
X121478139Y-87892255D01*
X121404005Y-87646136D01*
X120866777Y-87453035D01*
X120296546Y-87480222D01*
X119895995Y-87646136D01*
X119821861Y-87892255D01*
X117797247Y-87892255D01*
X118647401Y-87042101D01*
X118675933Y-86999400D01*
X128000600Y-86999400D01*
X128000600Y-90035900D01*
X128058452Y-90326739D01*
X128223199Y-90573301D01*
X132187299Y-94537401D01*
X132433861Y-94702148D01*
X132665171Y-94748159D01*
X132725149Y-94837922D01*
X133109591Y-95094797D01*
X133563071Y-95185000D01*
X135036929Y-95185000D01*
X135490409Y-95094797D01*
X135823003Y-94872566D01*
X135805000Y-94963071D01*
X135805000Y-96436929D01*
X135895203Y-96890409D01*
X136152078Y-97274851D01*
X136536520Y-97531726D01*
X136990000Y-97621929D01*
X137443480Y-97531726D01*
X137827922Y-97274851D01*
X137990000Y-97032283D01*
X138152078Y-97274851D01*
X138536520Y-97531726D01*
X138990000Y-97621929D01*
X139443480Y-97531726D01*
X139827922Y-97274851D01*
X139990000Y-97032283D01*
X140152078Y-97274851D01*
X140536520Y-97531726D01*
X140990000Y-97621929D01*
X141443480Y-97531726D01*
X141827922Y-97274851D01*
X141990000Y-97032283D01*
X142152078Y-97274851D01*
X142536520Y-97531726D01*
X142990000Y-97621929D01*
X143443480Y-97531726D01*
X143827922Y-97274851D01*
X143990000Y-97032283D01*
X144152078Y-97274851D01*
X144536520Y-97531726D01*
X144990000Y-97621929D01*
X145443480Y-97531726D01*
X145827922Y-97274851D01*
X145990000Y-97032283D01*
X146152078Y-97274851D01*
X146536520Y-97531726D01*
X146990000Y-97621929D01*
X147443480Y-97531726D01*
X147827922Y-97274851D01*
X148084797Y-96890409D01*
X148175000Y-96436929D01*
X148175000Y-94963071D01*
X148144190Y-94808177D01*
X148429187Y-95046196D01*
X148873000Y-95185000D01*
X149573000Y-95185000D01*
X149573000Y-94127000D01*
X149827000Y-94127000D01*
X149827000Y-95185000D01*
X150527000Y-95185000D01*
X150970813Y-95046196D01*
X151327724Y-94748118D01*
X151543398Y-94336146D01*
X151543803Y-94309744D01*
X151418361Y-94127000D01*
X149827000Y-94127000D01*
X149573000Y-94127000D01*
X147981639Y-94127000D01*
X147904371Y-94239564D01*
X147827922Y-94125149D01*
X147443480Y-93868274D01*
X146990000Y-93778071D01*
X146536520Y-93868274D01*
X146152078Y-94125149D01*
X145990000Y-94367717D01*
X145827922Y-94125149D01*
X145443480Y-93868274D01*
X144990000Y-93778071D01*
X144536520Y-93868274D01*
X144152078Y-94125149D01*
X143990000Y-94367717D01*
X143827922Y-94125149D01*
X143443480Y-93868274D01*
X142990000Y-93778071D01*
X142536520Y-93868274D01*
X142152078Y-94125149D01*
X141990000Y-94367717D01*
X141827922Y-94125149D01*
X141443480Y-93868274D01*
X140990000Y-93778071D01*
X140536520Y-93868274D01*
X140152078Y-94125149D01*
X139990000Y-94367717D01*
X139827922Y-94125149D01*
X139443480Y-93868274D01*
X138990000Y-93778071D01*
X138536520Y-93868274D01*
X138152078Y-94125149D01*
X137990000Y-94367717D01*
X137827922Y-94125149D01*
X137443480Y-93868274D01*
X136990000Y-93778071D01*
X136536520Y-93868274D01*
X136203926Y-94090505D01*
X136221929Y-94000000D01*
X136131726Y-93546520D01*
X135874851Y-93162078D01*
X135632283Y-93000000D01*
X135874851Y-92837922D01*
X136131726Y-92453480D01*
X136221929Y-92000000D01*
X136131726Y-91546520D01*
X135874851Y-91162078D01*
X135632283Y-91000000D01*
X135874851Y-90837922D01*
X136131726Y-90453480D01*
X136221929Y-90000000D01*
X136131726Y-89546520D01*
X135874851Y-89162078D01*
X135632283Y-89000000D01*
X135874851Y-88837922D01*
X136131726Y-88453480D01*
X136221929Y-88000000D01*
X136131726Y-87546520D01*
X135874851Y-87162078D01*
X135632283Y-87000000D01*
X135874851Y-86837922D01*
X135934829Y-86748159D01*
X136166139Y-86702148D01*
X136412701Y-86537401D01*
X136577448Y-86290839D01*
X136635300Y-86000000D01*
X136635300Y-80715300D01*
X136577448Y-80424461D01*
X136412701Y-80177899D01*
X136197440Y-79962638D01*
X136197440Y-79450000D01*
X136153162Y-79214683D01*
X136014090Y-78998559D01*
X135801890Y-78853569D01*
X135550000Y-78802560D01*
X135037362Y-78802560D01*
X134361802Y-78127000D01*
X141176898Y-78127000D01*
X147587299Y-84537401D01*
X147833861Y-84702148D01*
X148065171Y-84748159D01*
X148125149Y-84837922D01*
X148367717Y-85000000D01*
X148125149Y-85162078D01*
X147868274Y-85546520D01*
X147778071Y-86000000D01*
X147868274Y-86453480D01*
X148125149Y-86837922D01*
X148367717Y-87000000D01*
X148125149Y-87162078D01*
X147868274Y-87546520D01*
X147778071Y-88000000D01*
X147868274Y-88453480D01*
X148125149Y-88837922D01*
X148367717Y-89000000D01*
X148125149Y-89162078D01*
X147868274Y-89546520D01*
X147778071Y-90000000D01*
X147868274Y-90453480D01*
X148125149Y-90837922D01*
X148317717Y-90966591D01*
X148025149Y-91162078D01*
X147768274Y-91546520D01*
X147678071Y-92000000D01*
X147768274Y-92453480D01*
X148025149Y-92837922D01*
X148326691Y-93039405D01*
X148072276Y-93251882D01*
X147856602Y-93663854D01*
X147856197Y-93690256D01*
X147981639Y-93873000D01*
X149573000Y-93873000D01*
X149573000Y-93853000D01*
X149827000Y-93853000D01*
X149827000Y-93873000D01*
X151418361Y-93873000D01*
X151543803Y-93690256D01*
X151543398Y-93663854D01*
X151327724Y-93251882D01*
X150984417Y-92965165D01*
X151174851Y-92837922D01*
X151431726Y-92453480D01*
X151521929Y-92000000D01*
X151431726Y-91546520D01*
X151174851Y-91162078D01*
X150982283Y-91033409D01*
X151274851Y-90837922D01*
X151531726Y-90453480D01*
X151621929Y-90000000D01*
X151531726Y-89546520D01*
X151274851Y-89162078D01*
X151032283Y-89000000D01*
X151274851Y-88837922D01*
X151531726Y-88453480D01*
X151621929Y-88000000D01*
X151531726Y-87546520D01*
X151274851Y-87162078D01*
X151032283Y-87000000D01*
X151274851Y-86837922D01*
X151531726Y-86453480D01*
X151621929Y-86000000D01*
X151531726Y-85546520D01*
X151274851Y-85162078D01*
X151032283Y-85000000D01*
X151274851Y-84837922D01*
X151531726Y-84453480D01*
X151621929Y-84000000D01*
X151531726Y-83546520D01*
X151386952Y-83329850D01*
X153229501Y-81487301D01*
X153394248Y-81240739D01*
X153452100Y-80949900D01*
X153452100Y-77096102D01*
X153855420Y-76692782D01*
X153855420Y-77076880D01*
X153952093Y-77310269D01*
X154130722Y-77488897D01*
X154364111Y-77585570D01*
X154654250Y-77585570D01*
X154813000Y-77426820D01*
X154813000Y-76327000D01*
X154793000Y-76327000D01*
X154793000Y-76073000D01*
X154813000Y-76073000D01*
X154813000Y-76053000D01*
X155067000Y-76053000D01*
X155067000Y-76073000D01*
X155087000Y-76073000D01*
X155087000Y-76327000D01*
X155067000Y-76327000D01*
X155067000Y-77426820D01*
X155225750Y-77585570D01*
X155515889Y-77585570D01*
X155739353Y-77493008D01*
X155794949Y-77530156D01*
X156210000Y-77612715D01*
X156625051Y-77530156D01*
X156845000Y-77383191D01*
X157064949Y-77530156D01*
X157480000Y-77612715D01*
X157895051Y-77530156D01*
X158246914Y-77295049D01*
X158482021Y-76943186D01*
X158564580Y-76528135D01*
X158564580Y-75871865D01*
X158482021Y-75456814D01*
X158246914Y-75104951D01*
X157895051Y-74869844D01*
X157480000Y-74787285D01*
X157064949Y-74869844D01*
X156936497Y-74955673D01*
X156912148Y-74833261D01*
X156747401Y-74586699D01*
X156500839Y-74421952D01*
X156210000Y-74364100D01*
X154349300Y-74364100D01*
X154058461Y-74421952D01*
X153811899Y-74586699D01*
X152154699Y-76243899D01*
X151989952Y-76490461D01*
X151932100Y-76781300D01*
X151932100Y-80635098D01*
X151327029Y-81240169D01*
X151274851Y-81162078D01*
X151032283Y-81000000D01*
X151274851Y-80837922D01*
X151531726Y-80453480D01*
X151621929Y-80000000D01*
X151531726Y-79546520D01*
X151274851Y-79162078D01*
X150890409Y-78905203D01*
X150436929Y-78815000D01*
X148963071Y-78815000D01*
X148509591Y-78905203D01*
X148125149Y-79162078D01*
X147868274Y-79546520D01*
X147778071Y-80000000D01*
X147868274Y-80453480D01*
X148125149Y-80837922D01*
X148367717Y-81000000D01*
X148266879Y-81067377D01*
X145326502Y-78127000D01*
X151700000Y-78127000D01*
X151749410Y-78116994D01*
X151791035Y-78088553D01*
X151818315Y-78046159D01*
X151827000Y-78000000D01*
X151827000Y-71110000D01*
X161290000Y-71110000D01*
X161290000Y-102270660D01*
X161250000Y-102262560D01*
X156250000Y-102262560D01*
X156014683Y-102306838D01*
X155798559Y-102445910D01*
X155653569Y-102658110D01*
X155602560Y-102910000D01*
X155602560Y-107910000D01*
X155646838Y-108145317D01*
X155785910Y-108361441D01*
X155998110Y-108506431D01*
X156250000Y-108557440D01*
X161250000Y-108557440D01*
X161290000Y-108549913D01*
X161290000Y-115690000D01*
X89710000Y-115690000D01*
X89710000Y-108305635D01*
X89745910Y-108361441D01*
X89958110Y-108506431D01*
X90210000Y-108557440D01*
X95210000Y-108557440D01*
X95445317Y-108513162D01*
X95661441Y-108374090D01*
X95806431Y-108161890D01*
X95857440Y-107910000D01*
X95857440Y-102910000D01*
X95813162Y-102674683D01*
X95674090Y-102458559D01*
X95461890Y-102313569D01*
X95210000Y-102262560D01*
X93391233Y-102262560D01*
X93247401Y-102047299D01*
X93162700Y-101962598D01*
X93162700Y-94142923D01*
X93548657Y-93565297D01*
X93575947Y-93428099D01*
X93656139Y-93412148D01*
X93902701Y-93247401D01*
X94067448Y-93000839D01*
X94125300Y-92710000D01*
X94125300Y-92554802D01*
X98327401Y-88352701D01*
X98471233Y-88137440D01*
X100190000Y-88137440D01*
X100425317Y-88093162D01*
X100641441Y-87954090D01*
X100786431Y-87741890D01*
X100837440Y-87490000D01*
X100837440Y-83820000D01*
X102676887Y-83820000D01*
X102786120Y-84369151D01*
X103097189Y-84834698D01*
X103562736Y-85145767D01*
X104111887Y-85255000D01*
X104168113Y-85255000D01*
X104717264Y-85145767D01*
X105182811Y-84834698D01*
X105493880Y-84369151D01*
X105533684Y-84169039D01*
X110368096Y-84169039D01*
X110528959Y-84557423D01*
X110904866Y-84972389D01*
X111410959Y-85211914D01*
X111633000Y-85090629D01*
X111633000Y-83947000D01*
X111887000Y-83947000D01*
X111887000Y-85090629D01*
X112109041Y-85211914D01*
X112615134Y-84972389D01*
X112991041Y-84557423D01*
X113151904Y-84169039D01*
X113029915Y-83947000D01*
X111887000Y-83947000D01*
X111633000Y-83947000D01*
X110490085Y-83947000D01*
X110368096Y-84169039D01*
X105533684Y-84169039D01*
X105603113Y-83820000D01*
X105493880Y-83270849D01*
X105182811Y-82805302D01*
X105038535Y-82708899D01*
X105175317Y-82683162D01*
X105391441Y-82544090D01*
X105536431Y-82331890D01*
X105587440Y-82080000D01*
X105587440Y-81629039D01*
X110368096Y-81629039D01*
X110528959Y-82017423D01*
X110904866Y-82432389D01*
X111153367Y-82550000D01*
X110904866Y-82667611D01*
X110528959Y-83082577D01*
X110368096Y-83470961D01*
X110490085Y-83693000D01*
X111633000Y-83693000D01*
X111633000Y-81407000D01*
X111887000Y-81407000D01*
X111887000Y-83693000D01*
X113029915Y-83693000D01*
X113151904Y-83470961D01*
X112991041Y-83082577D01*
X112615134Y-82667611D01*
X112366633Y-82550000D01*
X112615134Y-82432389D01*
X112991041Y-82017423D01*
X113151904Y-81629039D01*
X113029915Y-81407000D01*
X111887000Y-81407000D01*
X111633000Y-81407000D01*
X110490085Y-81407000D01*
X110368096Y-81629039D01*
X105587440Y-81629039D01*
X105587440Y-80930961D01*
X110368096Y-80930961D01*
X110490085Y-81153000D01*
X111633000Y-81153000D01*
X111633000Y-80009371D01*
X111887000Y-80009371D01*
X111887000Y-81153000D01*
X113029915Y-81153000D01*
X113151904Y-80930961D01*
X112991041Y-80542577D01*
X112615134Y-80127611D01*
X112109041Y-79888086D01*
X111887000Y-80009371D01*
X111633000Y-80009371D01*
X111410959Y-79888086D01*
X110904866Y-80127611D01*
X110528959Y-80542577D01*
X110368096Y-80930961D01*
X105587440Y-80930961D01*
X105587440Y-80480000D01*
X105543162Y-80244683D01*
X105404090Y-80028559D01*
X105191890Y-79883569D01*
X104940000Y-79832560D01*
X103340000Y-79832560D01*
X103104683Y-79876838D01*
X102888559Y-80015910D01*
X102743569Y-80228110D01*
X102692560Y-80480000D01*
X102692560Y-82080000D01*
X102736838Y-82315317D01*
X102875910Y-82531441D01*
X103088110Y-82676431D01*
X103243089Y-82707815D01*
X103097189Y-82805302D01*
X102786120Y-83270849D01*
X102676887Y-83820000D01*
X100837440Y-83820000D01*
X100837440Y-82690000D01*
X100793162Y-82454683D01*
X100654090Y-82238559D01*
X100441890Y-82093569D01*
X100190000Y-82042560D01*
X95679607Y-82042560D01*
X95744472Y-81886347D01*
X95745058Y-81214550D01*
X95805887Y-81153721D01*
X96075400Y-81566010D01*
X97191713Y-82026072D01*
X98399109Y-82023919D01*
X99504600Y-81566010D01*
X99774114Y-81153719D01*
X97790000Y-79169605D01*
X97775858Y-79183748D01*
X97596253Y-79004143D01*
X97610395Y-78990000D01*
X97969605Y-78990000D01*
X99953719Y-80974114D01*
X100366010Y-80704600D01*
X100826072Y-79588287D01*
X100823919Y-78380891D01*
X100564978Y-77755750D01*
X104100000Y-77755750D01*
X104100000Y-78271309D01*
X104196673Y-78504698D01*
X104375301Y-78683327D01*
X104608690Y-78780000D01*
X105124250Y-78780000D01*
X105283000Y-78621250D01*
X105283000Y-77597000D01*
X104258750Y-77597000D01*
X104100000Y-77755750D01*
X100564978Y-77755750D01*
X100366010Y-77275400D01*
X99953719Y-77005886D01*
X97969605Y-78990000D01*
X97610395Y-78990000D01*
X95626281Y-77005886D01*
X95213990Y-77275400D01*
X94753928Y-78391713D01*
X94755071Y-79032755D01*
X94431434Y-78708553D01*
X93316347Y-78245528D01*
X92108950Y-78244474D01*
X90993057Y-78705552D01*
X90138553Y-79558566D01*
X89710000Y-80590635D01*
X89710000Y-76826281D01*
X95805886Y-76826281D01*
X97790000Y-78810395D01*
X99774114Y-76826281D01*
X99671098Y-76668691D01*
X104100000Y-76668691D01*
X104100000Y-77184250D01*
X104258750Y-77343000D01*
X105283000Y-77343000D01*
X105283000Y-76318750D01*
X105124250Y-76160000D01*
X104608690Y-76160000D01*
X104375301Y-76256673D01*
X104196673Y-76435302D01*
X104100000Y-76668691D01*
X99671098Y-76668691D01*
X99504600Y-76413990D01*
X98388287Y-75953928D01*
X97180891Y-75956081D01*
X96075400Y-76413990D01*
X95805886Y-76826281D01*
X89710000Y-76826281D01*
X89710000Y-71110000D01*
X132273000Y-71110000D01*
X132273000Y-72488400D01*
X132273000Y-72488400D01*
G37*
X132273000Y-72488400D02*
X114631900Y-72488400D01*
X114341061Y-72546252D01*
X114094499Y-72710999D01*
X110307034Y-76498464D01*
X109911315Y-76234054D01*
X109410000Y-76134336D01*
X108908685Y-76234054D01*
X108483690Y-76518026D01*
X108410000Y-76628311D01*
X108336310Y-76518026D01*
X107911315Y-76234054D01*
X107410000Y-76134336D01*
X106908685Y-76234054D01*
X106616986Y-76428961D01*
X106444699Y-76256673D01*
X106211310Y-76160000D01*
X105695750Y-76160000D01*
X105537000Y-76318750D01*
X105537000Y-77343000D01*
X105557000Y-77343000D01*
X105557000Y-77597000D01*
X105537000Y-77597000D01*
X105537000Y-78621250D01*
X105695750Y-78780000D01*
X106211310Y-78780000D01*
X106444699Y-78683327D01*
X106616986Y-78511039D01*
X106908685Y-78705946D01*
X107410000Y-78805664D01*
X107911315Y-78705946D01*
X108336310Y-78421974D01*
X108410000Y-78311689D01*
X108483690Y-78421974D01*
X108908685Y-78705946D01*
X109410000Y-78805664D01*
X109911315Y-78705946D01*
X110336310Y-78421974D01*
X110472903Y-78217547D01*
X110701139Y-78172148D01*
X110947701Y-78007401D01*
X114946702Y-74008400D01*
X117014311Y-74008400D01*
X116784233Y-74352736D01*
X116675000Y-74901887D01*
X116675000Y-74958113D01*
X116784233Y-75507264D01*
X117095302Y-75972811D01*
X117560849Y-76283880D01*
X118110000Y-76393113D01*
X118659151Y-76283880D01*
X119124698Y-75972811D01*
X119325679Y-75672022D01*
X119526139Y-75632148D01*
X119772701Y-75467401D01*
X120521447Y-74718655D01*
X120485000Y-74901887D01*
X120485000Y-74958113D01*
X120594233Y-75507264D01*
X120905302Y-75972811D01*
X121180118Y-76156437D01*
X121217852Y-76346139D01*
X121382599Y-76592701D01*
X124970000Y-80180102D01*
X124970000Y-83877005D01*
X124715302Y-84047189D01*
X124404233Y-84512736D01*
X124295000Y-85061887D01*
X124295000Y-85118113D01*
X124366865Y-85479400D01*
X123312101Y-85479400D01*
X123354750Y-85376691D01*
X123355248Y-84805813D01*
X123137243Y-84278200D01*
X122733923Y-83874176D01*
X122206691Y-83655250D01*
X121635813Y-83654752D01*
X121108200Y-83872757D01*
X120704176Y-84276077D01*
X120485250Y-84803309D01*
X120484752Y-85374187D01*
X120528225Y-85479400D01*
X119502101Y-85479400D01*
X119544750Y-85376691D01*
X119545248Y-84805813D01*
X119327243Y-84278200D01*
X118923923Y-83874176D01*
X118396691Y-83655250D01*
X117825813Y-83654752D01*
X117298200Y-83872757D01*
X116894176Y-84276077D01*
X116675250Y-84803309D01*
X116674752Y-85374187D01*
X116892757Y-85901800D01*
X117265103Y-86274795D01*
X115032599Y-88507299D01*
X114888767Y-88722560D01*
X114770000Y-88722560D01*
X114534683Y-88766838D01*
X114318559Y-88905910D01*
X114173569Y-89118110D01*
X114122560Y-89370000D01*
X114122560Y-89488767D01*
X113907299Y-89632599D01*
X113742552Y-89879161D01*
X113693019Y-90128179D01*
X113028407Y-90792791D01*
X112991041Y-90702577D01*
X112615134Y-90287611D01*
X112366633Y-90170000D01*
X112615134Y-90052389D01*
X112991041Y-89637423D01*
X113151904Y-89249039D01*
X113029915Y-89027000D01*
X111887000Y-89027000D01*
X111887000Y-91313000D01*
X111907000Y-91313000D01*
X111907000Y-91567000D01*
X111887000Y-91567000D01*
X111887000Y-91587000D01*
X111633000Y-91587000D01*
X111633000Y-91567000D01*
X110490085Y-91567000D01*
X110368096Y-91789039D01*
X110434764Y-91950000D01*
X105501668Y-91950000D01*
X105603113Y-91440000D01*
X105493880Y-90890849D01*
X105182811Y-90425302D01*
X105038535Y-90328899D01*
X105175317Y-90303162D01*
X105391441Y-90164090D01*
X105536431Y-89951890D01*
X105587440Y-89700000D01*
X105587440Y-89249039D01*
X110368096Y-89249039D01*
X110528959Y-89637423D01*
X110904866Y-90052389D01*
X111153367Y-90170000D01*
X110904866Y-90287611D01*
X110528959Y-90702577D01*
X110368096Y-91090961D01*
X110490085Y-91313000D01*
X111633000Y-91313000D01*
X111633000Y-89027000D01*
X110490085Y-89027000D01*
X110368096Y-89249039D01*
X105587440Y-89249039D01*
X105587440Y-88550961D01*
X110368096Y-88550961D01*
X110490085Y-88773000D01*
X111633000Y-88773000D01*
X111633000Y-87629371D01*
X111887000Y-87629371D01*
X111887000Y-88773000D01*
X113029915Y-88773000D01*
X113151904Y-88550961D01*
X112991041Y-88162577D01*
X112615134Y-87747611D01*
X112109041Y-87508086D01*
X111887000Y-87629371D01*
X111633000Y-87629371D01*
X111410959Y-87508086D01*
X110904866Y-87747611D01*
X110528959Y-88162577D01*
X110368096Y-88550961D01*
X105587440Y-88550961D01*
X105587440Y-88100000D01*
X105543162Y-87864683D01*
X105404090Y-87648559D01*
X105191890Y-87503569D01*
X104940000Y-87452560D01*
X103340000Y-87452560D01*
X103104683Y-87496838D01*
X102888559Y-87635910D01*
X102743569Y-87848110D01*
X102692560Y-88100000D01*
X102692560Y-89700000D01*
X102736838Y-89935317D01*
X102875910Y-90151441D01*
X103088110Y-90296431D01*
X103243089Y-90327815D01*
X103097189Y-90425302D01*
X102786120Y-90890849D01*
X102676887Y-91440000D01*
X102778332Y-91950000D01*
X101307440Y-91950000D01*
X101307440Y-91110000D01*
X101263162Y-90874683D01*
X101124090Y-90658559D01*
X100911890Y-90513569D01*
X100660000Y-90462560D01*
X97460000Y-90462560D01*
X97224683Y-90506838D01*
X97008559Y-90645910D01*
X96863569Y-90858110D01*
X96812560Y-91110000D01*
X96812560Y-94310000D01*
X96856838Y-94545317D01*
X96995910Y-94761441D01*
X97208110Y-94906431D01*
X97460000Y-94957440D01*
X100660000Y-94957440D01*
X100895317Y-94913162D01*
X101111441Y-94774090D01*
X101256431Y-94561890D01*
X101307440Y-94310000D01*
X101307440Y-93470000D01*
X112186000Y-93470000D01*
X112476839Y-93412148D01*
X112723401Y-93247401D01*
X114450540Y-91520262D01*
X114518110Y-91566431D01*
X114770000Y-91617440D01*
X116370000Y-91617440D01*
X116605317Y-91573162D01*
X116821441Y-91434090D01*
X116966431Y-91221890D01*
X116975370Y-91177745D01*
X117241861Y-91177745D01*
X117315995Y-91423864D01*
X117853223Y-91616965D01*
X118423454Y-91589778D01*
X118824005Y-91423864D01*
X118898139Y-91177745D01*
X118070000Y-90349605D01*
X117241861Y-91177745D01*
X116975370Y-91177745D01*
X117014646Y-90983799D01*
X117062255Y-90998139D01*
X117890395Y-90170000D01*
X118249605Y-90170000D01*
X119077745Y-90998139D01*
X119323864Y-90924005D01*
X119516965Y-90386777D01*
X119494127Y-89907745D01*
X119821861Y-89907745D01*
X119895995Y-90153864D01*
X120433223Y-90346965D01*
X121003454Y-90319778D01*
X121404005Y-90153864D01*
X121478139Y-89907745D01*
X120650000Y-89079605D01*
X119821861Y-89907745D01*
X119494127Y-89907745D01*
X119489778Y-89816546D01*
X119426202Y-89663061D01*
X119642255Y-89728139D01*
X120470395Y-88900000D01*
X120829605Y-88900000D01*
X121657745Y-89728139D01*
X121903864Y-89654005D01*
X122096965Y-89116777D01*
X122069778Y-88546546D01*
X121903864Y-88145995D01*
X121657745Y-88071861D01*
X120829605Y-88900000D01*
X120470395Y-88900000D01*
X119642255Y-88071861D01*
X119396136Y-88145995D01*
X119203035Y-88683223D01*
X119230222Y-89253454D01*
X119293798Y-89406939D01*
X119077745Y-89341861D01*
X118249605Y-90170000D01*
X117890395Y-90170000D01*
X117062255Y-89341861D01*
X117014833Y-89356145D01*
X116978351Y-89162255D01*
X117241861Y-89162255D01*
X118070000Y-89990395D01*
X118898139Y-89162255D01*
X118824005Y-88916136D01*
X118286777Y-88723035D01*
X117716546Y-88750222D01*
X117315995Y-88916136D01*
X117241861Y-89162255D01*
X116978351Y-89162255D01*
X116973162Y-89134683D01*
X116834090Y-88918559D01*
X116796576Y-88892926D01*
X117797247Y-87892255D01*
X119821861Y-87892255D01*
X120650000Y-88720395D01*
X121478139Y-87892255D01*
X121404005Y-87646136D01*
X120866777Y-87453035D01*
X120296546Y-87480222D01*
X119895995Y-87646136D01*
X119821861Y-87892255D01*
X117797247Y-87892255D01*
X118647401Y-87042101D01*
X118675933Y-86999400D01*
X128000600Y-86999400D01*
X128000600Y-90035900D01*
X128058452Y-90326739D01*
X128223199Y-90573301D01*
X132187299Y-94537401D01*
X132433861Y-94702148D01*
X132665171Y-94748159D01*
X132725149Y-94837922D01*
X133109591Y-95094797D01*
X133563071Y-95185000D01*
X135036929Y-95185000D01*
X135490409Y-95094797D01*
X135823003Y-94872566D01*
X135805000Y-94963071D01*
X135805000Y-96436929D01*
X135895203Y-96890409D01*
X136152078Y-97274851D01*
X136536520Y-97531726D01*
X136990000Y-97621929D01*
X137443480Y-97531726D01*
X137827922Y-97274851D01*
X137990000Y-97032283D01*
X138152078Y-97274851D01*
X138536520Y-97531726D01*
X138990000Y-97621929D01*
X139443480Y-97531726D01*
X139827922Y-97274851D01*
X139990000Y-97032283D01*
X140152078Y-97274851D01*
X140536520Y-97531726D01*
X140990000Y-97621929D01*
X141443480Y-97531726D01*
X141827922Y-97274851D01*
X141990000Y-97032283D01*
X142152078Y-97274851D01*
X142536520Y-97531726D01*
X142990000Y-97621929D01*
X143443480Y-97531726D01*
X143827922Y-97274851D01*
X143990000Y-97032283D01*
X144152078Y-97274851D01*
X144536520Y-97531726D01*
X144990000Y-97621929D01*
X145443480Y-97531726D01*
X145827922Y-97274851D01*
X145990000Y-97032283D01*
X146152078Y-97274851D01*
X146536520Y-97531726D01*
X146990000Y-97621929D01*
X147443480Y-97531726D01*
X147827922Y-97274851D01*
X148084797Y-96890409D01*
X148175000Y-96436929D01*
X148175000Y-94963071D01*
X148144190Y-94808177D01*
X148429187Y-95046196D01*
X148873000Y-95185000D01*
X149573000Y-95185000D01*
X149573000Y-94127000D01*
X149827000Y-94127000D01*
X149827000Y-95185000D01*
X150527000Y-95185000D01*
X150970813Y-95046196D01*
X151327724Y-94748118D01*
X151543398Y-94336146D01*
X151543803Y-94309744D01*
X151418361Y-94127000D01*
X149827000Y-94127000D01*
X149573000Y-94127000D01*
X147981639Y-94127000D01*
X147904371Y-94239564D01*
X147827922Y-94125149D01*
X147443480Y-93868274D01*
X146990000Y-93778071D01*
X146536520Y-93868274D01*
X146152078Y-94125149D01*
X145990000Y-94367717D01*
X145827922Y-94125149D01*
X145443480Y-93868274D01*
X144990000Y-93778071D01*
X144536520Y-93868274D01*
X144152078Y-94125149D01*
X143990000Y-94367717D01*
X143827922Y-94125149D01*
X143443480Y-93868274D01*
X142990000Y-93778071D01*
X142536520Y-93868274D01*
X142152078Y-94125149D01*
X141990000Y-94367717D01*
X141827922Y-94125149D01*
X141443480Y-93868274D01*
X140990000Y-93778071D01*
X140536520Y-93868274D01*
X140152078Y-94125149D01*
X139990000Y-94367717D01*
X139827922Y-94125149D01*
X139443480Y-93868274D01*
X138990000Y-93778071D01*
X138536520Y-93868274D01*
X138152078Y-94125149D01*
X137990000Y-94367717D01*
X137827922Y-94125149D01*
X137443480Y-93868274D01*
X136990000Y-93778071D01*
X136536520Y-93868274D01*
X136203926Y-94090505D01*
X136221929Y-94000000D01*
X136131726Y-93546520D01*
X135874851Y-93162078D01*
X135632283Y-93000000D01*
X135874851Y-92837922D01*
X136131726Y-92453480D01*
X136221929Y-92000000D01*
X136131726Y-91546520D01*
X135874851Y-91162078D01*
X135632283Y-91000000D01*
X135874851Y-90837922D01*
X136131726Y-90453480D01*
X136221929Y-90000000D01*
X136131726Y-89546520D01*
X135874851Y-89162078D01*
X135632283Y-89000000D01*
X135874851Y-88837922D01*
X136131726Y-88453480D01*
X136221929Y-88000000D01*
X136131726Y-87546520D01*
X135874851Y-87162078D01*
X135632283Y-87000000D01*
X135874851Y-86837922D01*
X135934829Y-86748159D01*
X136166139Y-86702148D01*
X136412701Y-86537401D01*
X136577448Y-86290839D01*
X136635300Y-86000000D01*
X136635300Y-80715300D01*
X136577448Y-80424461D01*
X136412701Y-80177899D01*
X136197440Y-79962638D01*
X136197440Y-79450000D01*
X136153162Y-79214683D01*
X136014090Y-78998559D01*
X135801890Y-78853569D01*
X135550000Y-78802560D01*
X135037362Y-78802560D01*
X134361802Y-78127000D01*
X141176898Y-78127000D01*
X147587299Y-84537401D01*
X147833861Y-84702148D01*
X148065171Y-84748159D01*
X148125149Y-84837922D01*
X148367717Y-85000000D01*
X148125149Y-85162078D01*
X147868274Y-85546520D01*
X147778071Y-86000000D01*
X147868274Y-86453480D01*
X148125149Y-86837922D01*
X148367717Y-87000000D01*
X148125149Y-87162078D01*
X147868274Y-87546520D01*
X147778071Y-88000000D01*
X147868274Y-88453480D01*
X148125149Y-88837922D01*
X148367717Y-89000000D01*
X148125149Y-89162078D01*
X147868274Y-89546520D01*
X147778071Y-90000000D01*
X147868274Y-90453480D01*
X148125149Y-90837922D01*
X148317717Y-90966591D01*
X148025149Y-91162078D01*
X147768274Y-91546520D01*
X147678071Y-92000000D01*
X147768274Y-92453480D01*
X148025149Y-92837922D01*
X148326691Y-93039405D01*
X148072276Y-93251882D01*
X147856602Y-93663854D01*
X147856197Y-93690256D01*
X147981639Y-93873000D01*
X149573000Y-93873000D01*
X149573000Y-93853000D01*
X149827000Y-93853000D01*
X149827000Y-93873000D01*
X151418361Y-93873000D01*
X151543803Y-93690256D01*
X151543398Y-93663854D01*
X151327724Y-93251882D01*
X150984417Y-92965165D01*
X151174851Y-92837922D01*
X151431726Y-92453480D01*
X151521929Y-92000000D01*
X151431726Y-91546520D01*
X151174851Y-91162078D01*
X150982283Y-91033409D01*
X151274851Y-90837922D01*
X151531726Y-90453480D01*
X151621929Y-90000000D01*
X151531726Y-89546520D01*
X151274851Y-89162078D01*
X151032283Y-89000000D01*
X151274851Y-88837922D01*
X151531726Y-88453480D01*
X151621929Y-88000000D01*
X151531726Y-87546520D01*
X151274851Y-87162078D01*
X151032283Y-87000000D01*
X151274851Y-86837922D01*
X151531726Y-86453480D01*
X151621929Y-86000000D01*
X151531726Y-85546520D01*
X151274851Y-85162078D01*
X151032283Y-85000000D01*
X151274851Y-84837922D01*
X151531726Y-84453480D01*
X151621929Y-84000000D01*
X151531726Y-83546520D01*
X151386952Y-83329850D01*
X153229501Y-81487301D01*
X153394248Y-81240739D01*
X153452100Y-80949900D01*
X153452100Y-77096102D01*
X153855420Y-76692782D01*
X153855420Y-77076880D01*
X153952093Y-77310269D01*
X154130722Y-77488897D01*
X154364111Y-77585570D01*
X154654250Y-77585570D01*
X154813000Y-77426820D01*
X154813000Y-76327000D01*
X154793000Y-76327000D01*
X154793000Y-76073000D01*
X154813000Y-76073000D01*
X154813000Y-76053000D01*
X155067000Y-76053000D01*
X155067000Y-76073000D01*
X155087000Y-76073000D01*
X155087000Y-76327000D01*
X155067000Y-76327000D01*
X155067000Y-77426820D01*
X155225750Y-77585570D01*
X155515889Y-77585570D01*
X155739353Y-77493008D01*
X155794949Y-77530156D01*
X156210000Y-77612715D01*
X156625051Y-77530156D01*
X156845000Y-77383191D01*
X157064949Y-77530156D01*
X157480000Y-77612715D01*
X157895051Y-77530156D01*
X158246914Y-77295049D01*
X158482021Y-76943186D01*
X158564580Y-76528135D01*
X158564580Y-75871865D01*
X158482021Y-75456814D01*
X158246914Y-75104951D01*
X157895051Y-74869844D01*
X157480000Y-74787285D01*
X157064949Y-74869844D01*
X156936497Y-74955673D01*
X156912148Y-74833261D01*
X156747401Y-74586699D01*
X156500839Y-74421952D01*
X156210000Y-74364100D01*
X154349300Y-74364100D01*
X154058461Y-74421952D01*
X153811899Y-74586699D01*
X152154699Y-76243899D01*
X151989952Y-76490461D01*
X151932100Y-76781300D01*
X151932100Y-80635098D01*
X151327029Y-81240169D01*
X151274851Y-81162078D01*
X151032283Y-81000000D01*
X151274851Y-80837922D01*
X151531726Y-80453480D01*
X151621929Y-80000000D01*
X151531726Y-79546520D01*
X151274851Y-79162078D01*
X150890409Y-78905203D01*
X150436929Y-78815000D01*
X148963071Y-78815000D01*
X148509591Y-78905203D01*
X148125149Y-79162078D01*
X147868274Y-79546520D01*
X147778071Y-80000000D01*
X147868274Y-80453480D01*
X148125149Y-80837922D01*
X148367717Y-81000000D01*
X148266879Y-81067377D01*
X145326502Y-78127000D01*
X151700000Y-78127000D01*
X151749410Y-78116994D01*
X151791035Y-78088553D01*
X151818315Y-78046159D01*
X151827000Y-78000000D01*
X151827000Y-71110000D01*
X161290000Y-71110000D01*
X161290000Y-102270660D01*
X161250000Y-102262560D01*
X156250000Y-102262560D01*
X156014683Y-102306838D01*
X155798559Y-102445910D01*
X155653569Y-102658110D01*
X155602560Y-102910000D01*
X155602560Y-107910000D01*
X155646838Y-108145317D01*
X155785910Y-108361441D01*
X155998110Y-108506431D01*
X156250000Y-108557440D01*
X161250000Y-108557440D01*
X161290000Y-108549913D01*
X161290000Y-115690000D01*
X89710000Y-115690000D01*
X89710000Y-108305635D01*
X89745910Y-108361441D01*
X89958110Y-108506431D01*
X90210000Y-108557440D01*
X95210000Y-108557440D01*
X95445317Y-108513162D01*
X95661441Y-108374090D01*
X95806431Y-108161890D01*
X95857440Y-107910000D01*
X95857440Y-102910000D01*
X95813162Y-102674683D01*
X95674090Y-102458559D01*
X95461890Y-102313569D01*
X95210000Y-102262560D01*
X93391233Y-102262560D01*
X93247401Y-102047299D01*
X93162700Y-101962598D01*
X93162700Y-94142923D01*
X93548657Y-93565297D01*
X93575947Y-93428099D01*
X93656139Y-93412148D01*
X93902701Y-93247401D01*
X94067448Y-93000839D01*
X94125300Y-92710000D01*
X94125300Y-92554802D01*
X98327401Y-88352701D01*
X98471233Y-88137440D01*
X100190000Y-88137440D01*
X100425317Y-88093162D01*
X100641441Y-87954090D01*
X100786431Y-87741890D01*
X100837440Y-87490000D01*
X100837440Y-83820000D01*
X102676887Y-83820000D01*
X102786120Y-84369151D01*
X103097189Y-84834698D01*
X103562736Y-85145767D01*
X104111887Y-85255000D01*
X104168113Y-85255000D01*
X104717264Y-85145767D01*
X105182811Y-84834698D01*
X105493880Y-84369151D01*
X105533684Y-84169039D01*
X110368096Y-84169039D01*
X110528959Y-84557423D01*
X110904866Y-84972389D01*
X111410959Y-85211914D01*
X111633000Y-85090629D01*
X111633000Y-83947000D01*
X111887000Y-83947000D01*
X111887000Y-85090629D01*
X112109041Y-85211914D01*
X112615134Y-84972389D01*
X112991041Y-84557423D01*
X113151904Y-84169039D01*
X113029915Y-83947000D01*
X111887000Y-83947000D01*
X111633000Y-83947000D01*
X110490085Y-83947000D01*
X110368096Y-84169039D01*
X105533684Y-84169039D01*
X105603113Y-83820000D01*
X105493880Y-83270849D01*
X105182811Y-82805302D01*
X105038535Y-82708899D01*
X105175317Y-82683162D01*
X105391441Y-82544090D01*
X105536431Y-82331890D01*
X105587440Y-82080000D01*
X105587440Y-81629039D01*
X110368096Y-81629039D01*
X110528959Y-82017423D01*
X110904866Y-82432389D01*
X111153367Y-82550000D01*
X110904866Y-82667611D01*
X110528959Y-83082577D01*
X110368096Y-83470961D01*
X110490085Y-83693000D01*
X111633000Y-83693000D01*
X111633000Y-81407000D01*
X111887000Y-81407000D01*
X111887000Y-83693000D01*
X113029915Y-83693000D01*
X113151904Y-83470961D01*
X112991041Y-83082577D01*
X112615134Y-82667611D01*
X112366633Y-82550000D01*
X112615134Y-82432389D01*
X112991041Y-82017423D01*
X113151904Y-81629039D01*
X113029915Y-81407000D01*
X111887000Y-81407000D01*
X111633000Y-81407000D01*
X110490085Y-81407000D01*
X110368096Y-81629039D01*
X105587440Y-81629039D01*
X105587440Y-80930961D01*
X110368096Y-80930961D01*
X110490085Y-81153000D01*
X111633000Y-81153000D01*
X111633000Y-80009371D01*
X111887000Y-80009371D01*
X111887000Y-81153000D01*
X113029915Y-81153000D01*
X113151904Y-80930961D01*
X112991041Y-80542577D01*
X112615134Y-80127611D01*
X112109041Y-79888086D01*
X111887000Y-80009371D01*
X111633000Y-80009371D01*
X111410959Y-79888086D01*
X110904866Y-80127611D01*
X110528959Y-80542577D01*
X110368096Y-80930961D01*
X105587440Y-80930961D01*
X105587440Y-80480000D01*
X105543162Y-80244683D01*
X105404090Y-80028559D01*
X105191890Y-79883569D01*
X104940000Y-79832560D01*
X103340000Y-79832560D01*
X103104683Y-79876838D01*
X102888559Y-80015910D01*
X102743569Y-80228110D01*
X102692560Y-80480000D01*
X102692560Y-82080000D01*
X102736838Y-82315317D01*
X102875910Y-82531441D01*
X103088110Y-82676431D01*
X103243089Y-82707815D01*
X103097189Y-82805302D01*
X102786120Y-83270849D01*
X102676887Y-83820000D01*
X100837440Y-83820000D01*
X100837440Y-82690000D01*
X100793162Y-82454683D01*
X100654090Y-82238559D01*
X100441890Y-82093569D01*
X100190000Y-82042560D01*
X95679607Y-82042560D01*
X95744472Y-81886347D01*
X95745058Y-81214550D01*
X95805887Y-81153721D01*
X96075400Y-81566010D01*
X97191713Y-82026072D01*
X98399109Y-82023919D01*
X99504600Y-81566010D01*
X99774114Y-81153719D01*
X97790000Y-79169605D01*
X97775858Y-79183748D01*
X97596253Y-79004143D01*
X97610395Y-78990000D01*
X97969605Y-78990000D01*
X99953719Y-80974114D01*
X100366010Y-80704600D01*
X100826072Y-79588287D01*
X100823919Y-78380891D01*
X100564978Y-77755750D01*
X104100000Y-77755750D01*
X104100000Y-78271309D01*
X104196673Y-78504698D01*
X104375301Y-78683327D01*
X104608690Y-78780000D01*
X105124250Y-78780000D01*
X105283000Y-78621250D01*
X105283000Y-77597000D01*
X104258750Y-77597000D01*
X104100000Y-77755750D01*
X100564978Y-77755750D01*
X100366010Y-77275400D01*
X99953719Y-77005886D01*
X97969605Y-78990000D01*
X97610395Y-78990000D01*
X95626281Y-77005886D01*
X95213990Y-77275400D01*
X94753928Y-78391713D01*
X94755071Y-79032755D01*
X94431434Y-78708553D01*
X93316347Y-78245528D01*
X92108950Y-78244474D01*
X90993057Y-78705552D01*
X90138553Y-79558566D01*
X89710000Y-80590635D01*
X89710000Y-76826281D01*
X95805886Y-76826281D01*
X97790000Y-78810395D01*
X99774114Y-76826281D01*
X99671098Y-76668691D01*
X104100000Y-76668691D01*
X104100000Y-77184250D01*
X104258750Y-77343000D01*
X105283000Y-77343000D01*
X105283000Y-76318750D01*
X105124250Y-76160000D01*
X104608690Y-76160000D01*
X104375301Y-76256673D01*
X104196673Y-76435302D01*
X104100000Y-76668691D01*
X99671098Y-76668691D01*
X99504600Y-76413990D01*
X98388287Y-75953928D01*
X97180891Y-75956081D01*
X96075400Y-76413990D01*
X95805886Y-76826281D01*
X89710000Y-76826281D01*
X89710000Y-71110000D01*
X132273000Y-71110000D01*
X132273000Y-72488400D01*
M02*
