M48
; DRILL file {KiCad 7.0.9} date 
; FORMAT={-:-/ absolute / inch / decimal}
; #@! TF.CreationDate,2024-02-20T00:43:14+01:00
; #@! TF.GenerationSoftware,Kicad,Pcbnew,7.0.9
; #@! TF.FileFunction,Plated,1,2,PTH
FMAT,2
INCH
; #@! TA.AperFunction,Plated,PTH,ViaDrill
T1C0.0157
; #@! TA.AperFunction,Plated,PTH,ComponentDrill
T2C0.0197
; #@! TA.AperFunction,Plated,PTH,ComponentDrill
T3C0.0295
; #@! TA.AperFunction,Plated,PTH,ComponentDrill
T4C0.0315
; #@! TA.AperFunction,Plated,PTH,ComponentDrill
T5C0.0354
; #@! TA.AperFunction,Plated,PTH,ComponentDrill
T6C0.0394
; #@! TA.AperFunction,Plated,PTH,ComponentDrill
T7C0.0433
; #@! TA.AperFunction,Plated,PTH,ComponentDrill
T8C0.1260
%
G90
G05
T1
X3.0795Y-4.4735
X3.4275Y-4.3238
X3.4757Y-4.1681
X3.5252Y-4.268
X3.6617Y-3.8175
X3.7404Y-3.9291
X4.12Y-3.97
X4.2098Y-3.4405
X4.8708Y-3.5141
X5.3799Y-4.2291
X5.7601Y-4.1492
X5.9807Y-3.3067
X5.9946Y-4.2197
X6.0089Y-3.6216
T2
X3.0552Y-2.8741
X3.0552Y-5.2363
X3.0829Y-2.8073
X3.0829Y-2.9409
X3.0829Y-5.1695
X3.0829Y-5.3031
X3.1497Y-2.7796
X3.1497Y-2.9686
X3.1497Y-5.1418
X3.1497Y-5.3308
X3.2165Y-2.8073
X3.2165Y-2.9409
X3.2165Y-5.1695
X3.2165Y-5.3031
X3.2442Y-2.8741
X3.2442Y-5.2363
X4.7285Y-2.8741
X4.7304Y-5.2363
X4.7561Y-2.8073
X4.7561Y-2.9409
X4.7581Y-5.1695
X4.7581Y-5.3031
X4.8229Y-2.7796
X4.8229Y-2.9686
X4.8249Y-5.1418
X4.8249Y-5.3308
X4.8898Y-2.8073
X4.8898Y-2.9409
X4.8917Y-5.1695
X4.8917Y-5.3031
X4.9174Y-2.8741
X4.9194Y-5.2363
X6.4017Y-2.8741
X6.4037Y-5.2363
X6.4294Y-2.8073
X6.4294Y-2.9409
X6.4313Y-5.1695
X6.4313Y-5.3031
X6.4962Y-2.7796
X6.4962Y-2.9686
X6.4981Y-5.1418
X6.4981Y-5.3308
X6.563Y-2.8073
X6.563Y-2.9409
X6.565Y-5.1695
X6.565Y-5.3031
X6.5907Y-2.8741
X6.5926Y-5.2363
T3
X6.511Y-3.3618
X6.561Y-3.4118
X6.611Y-3.3618
T4
X3.2894Y-3.3465
X3.2894Y-3.4686
X3.2894Y-3.5906
X3.2902Y-4.1517
X3.3071Y-3.695
X3.3071Y-3.8918
X3.5669Y-3.9784
X3.6083Y-3.7619
X3.6457Y-3.9784
X3.687Y-3.7619
X3.6894Y-3.3465
X3.6894Y-3.4686
X3.6894Y-3.5906
X3.6902Y-4.1517
X3.954Y-3.81
X4.0327Y-3.81
X4.0902Y-2.748
X4.0985Y-3.2181
X4.0985Y-3.3407
X4.0987Y-3.0956
X4.0992Y-2.9728
X4.1816Y-3.81
X4.2603Y-3.81
X4.3016Y-3.98
X4.3031Y-4.11
X4.4902Y-2.748
X4.4984Y-3.98
X4.4985Y-3.2181
X4.4985Y-3.3407
X4.4987Y-3.0956
X4.4992Y-2.9728
X4.5Y-4.11
X4.6261Y-3.8493
X4.6261Y-4.1493
X4.6543Y-3.1161
X4.72Y-3.72
X4.72Y-3.84
X4.72Y-3.96
X4.8193Y-4.1342
X4.9193Y-4.1342
X5.0193Y-4.1342
X5.0543Y-3.1161
X5.12Y-3.72
X5.12Y-3.84
X5.12Y-3.96
X5.2441Y-3.4016
X5.2441Y-3.5256
X5.2441Y-3.6516
X5.2441Y-3.7756
X5.2441Y-3.8996
X5.2441Y-4.0236
X5.2441Y-4.1496
X5.6441Y-3.4016
X5.6441Y-3.5256
X5.6441Y-3.6516
X5.6441Y-3.7756
X5.6441Y-3.8996
X5.6441Y-4.0236
X5.6441Y-4.1496
X5.7493Y-3.3937
X5.9461Y-3.3937
X6.13Y-3.3362
X6.13Y-3.415
T5
X3.0482Y-3.2067
X3.1482Y-3.2067
X4.9852Y-3.3268
X5.0852Y-3.3268
T6
X3.04Y-3.53
X3.04Y-3.63
X3.04Y-3.73
X3.04Y-3.83
X3.04Y-3.93
X3.04Y-4.03
X3.04Y-4.13
X3.04Y-4.23
X3.04Y-4.33
X3.04Y-4.43
X3.04Y-4.53
X3.04Y-4.63
X3.04Y-4.73
X3.04Y-4.83
X3.04Y-4.93
X3.3193Y-4.008
X3.4035Y-2.7657
X3.4193Y-4.008
X3.43Y-3.02
X3.5035Y-2.7657
X3.53Y-3.02
X3.6035Y-2.7657
X3.63Y-3.02
X3.7035Y-2.7657
X3.73Y-3.02
X3.8035Y-2.7657
X3.9035Y-2.7657
X3.9488Y-3.2874
X3.9488Y-3.5197
X4.6516Y-3.3406
X5.1083Y-2.9232
X5.1327Y-5.2362
X5.2327Y-5.2362
X5.3327Y-5.2362
X6.2165Y-2.9213
T7
X5.252Y-2.8307
X5.252Y-3.0079
X5.5079Y-2.8307
X5.5079Y-3.0079
X5.811Y-2.8307
X5.811Y-3.0079
X6.0669Y-2.8307
X6.0669Y-3.0079
T8
X3.1497Y-2.8741
X3.1497Y-5.2363
X4.8229Y-2.8741
X4.8249Y-5.2363
X6.4962Y-2.8741
X6.4981Y-5.2363
T0
M30
