G04 #@! TF.GenerationSoftware,KiCad,Pcbnew,5.1.5-52549c5~84~ubuntu18.04.1*
G04 #@! TF.CreationDate,2020-03-26T15:43:45+01:00*
G04 #@! TF.ProjectId,ltl,6c746c2e-6b69-4636-9164-5f7063625858,rev?*
G04 #@! TF.SameCoordinates,Original*
G04 #@! TF.FileFunction,Copper,L2,Bot*
G04 #@! TF.FilePolarity,Positive*
%FSLAX46Y46*%
G04 Gerber Fmt 4.6, Leading zero omitted, Abs format (unit mm)*
G04 Created by KiCad (PCBNEW 5.1.5-52549c5~84~ubuntu18.04.1) date 2020-03-26 15:43:45*
%MOMM*%
%LPD*%
G04 APERTURE LIST*
%ADD10C,1.524000*%
%ADD11C,0.700000*%
%ADD12C,4.400000*%
%ADD13O,2.262000X3.262000*%
%ADD14R,3.000000X3.000000*%
%ADD15O,1.800000X1.800000*%
%ADD16R,1.800000X1.800000*%
%ADD17O,1.600000X1.600000*%
%ADD18C,1.600000*%
%ADD19R,1.600000X1.600000*%
%ADD20C,1.300000*%
%ADD21R,1.300000X1.300000*%
%ADD22C,0.100000*%
%ADD23O,1.700000X1.950000*%
%ADD24R,2.500000X1.100000*%
%ADD25O,2.500000X1.100000*%
%ADD26O,1.100000X2.500000*%
%ADD27C,2.000000*%
%ADD28C,0.250000*%
%ADD29C,0.254000*%
G04 APERTURE END LIST*
D10*
X94742000Y-94869000D03*
X94742000Y-107569000D03*
X117602000Y-94564200D03*
X117602000Y-107873800D03*
X117602000Y-105029000D03*
X117602000Y-97409000D03*
D11*
X161948726Y-134723274D03*
X160782000Y-134240000D03*
X159615274Y-134723274D03*
X159132000Y-135890000D03*
X159615274Y-137056726D03*
X160782000Y-137540000D03*
X161948726Y-137056726D03*
X162432000Y-135890000D03*
D12*
X160782000Y-135890000D03*
X160782000Y-93980000D03*
D11*
X162432000Y-93980000D03*
X161948726Y-95146726D03*
X160782000Y-95630000D03*
X159615274Y-95146726D03*
X159132000Y-93980000D03*
X159615274Y-92813274D03*
X160782000Y-92330000D03*
X161948726Y-92813274D03*
D12*
X89154000Y-135890000D03*
D11*
X90804000Y-135890000D03*
X90320726Y-137056726D03*
X89154000Y-137540000D03*
X87987274Y-137056726D03*
X87504000Y-135890000D03*
X87987274Y-134723274D03*
X89154000Y-134240000D03*
X90320726Y-134723274D03*
X90320726Y-92813274D03*
X89154000Y-92330000D03*
X87987274Y-92813274D03*
X87504000Y-93980000D03*
X87987274Y-95146726D03*
X89154000Y-95630000D03*
X90320726Y-95146726D03*
X90804000Y-93980000D03*
D12*
X89154000Y-93980000D03*
D13*
X89408000Y-120650000D03*
D14*
X160528000Y-120650000D03*
D15*
X89662000Y-100965000D03*
D16*
X89662000Y-108585000D03*
D17*
X117602000Y-136144000D03*
D18*
X107442000Y-136144000D03*
D17*
X117602000Y-132842000D03*
D18*
X107442000Y-132842000D03*
D17*
X151638000Y-101092000D03*
D18*
X161798000Y-101092000D03*
D17*
X151892000Y-108712000D03*
D18*
X141732000Y-108712000D03*
D17*
X143320000Y-133096000D03*
D18*
X133160000Y-133096000D03*
X133160000Y-136398000D03*
D17*
X143320000Y-136398000D03*
D19*
X143637000Y-94234000D03*
D18*
X143637000Y-96734000D03*
X104902000Y-132842000D03*
D17*
X94742000Y-132842000D03*
D20*
X152718000Y-94361000D03*
X153988000Y-95631000D03*
D21*
X151448000Y-95631000D03*
G04 #@! TA.AperFunction,ComponentPad*
D22*
G36*
X128704504Y-134281204D02*
G01*
X128728773Y-134284804D01*
X128752571Y-134290765D01*
X128775671Y-134299030D01*
X128797849Y-134309520D01*
X128818893Y-134322133D01*
X128838598Y-134336747D01*
X128856777Y-134353223D01*
X128873253Y-134371402D01*
X128887867Y-134391107D01*
X128900480Y-134412151D01*
X128910970Y-134434329D01*
X128919235Y-134457429D01*
X128925196Y-134481227D01*
X128928796Y-134505496D01*
X128930000Y-134530000D01*
X128930000Y-135980000D01*
X128928796Y-136004504D01*
X128925196Y-136028773D01*
X128919235Y-136052571D01*
X128910970Y-136075671D01*
X128900480Y-136097849D01*
X128887867Y-136118893D01*
X128873253Y-136138598D01*
X128856777Y-136156777D01*
X128838598Y-136173253D01*
X128818893Y-136187867D01*
X128797849Y-136200480D01*
X128775671Y-136210970D01*
X128752571Y-136219235D01*
X128728773Y-136225196D01*
X128704504Y-136228796D01*
X128680000Y-136230000D01*
X127480000Y-136230000D01*
X127455496Y-136228796D01*
X127431227Y-136225196D01*
X127407429Y-136219235D01*
X127384329Y-136210970D01*
X127362151Y-136200480D01*
X127341107Y-136187867D01*
X127321402Y-136173253D01*
X127303223Y-136156777D01*
X127286747Y-136138598D01*
X127272133Y-136118893D01*
X127259520Y-136097849D01*
X127249030Y-136075671D01*
X127240765Y-136052571D01*
X127234804Y-136028773D01*
X127231204Y-136004504D01*
X127230000Y-135980000D01*
X127230000Y-134530000D01*
X127231204Y-134505496D01*
X127234804Y-134481227D01*
X127240765Y-134457429D01*
X127249030Y-134434329D01*
X127259520Y-134412151D01*
X127272133Y-134391107D01*
X127286747Y-134371402D01*
X127303223Y-134353223D01*
X127321402Y-134336747D01*
X127341107Y-134322133D01*
X127362151Y-134309520D01*
X127384329Y-134299030D01*
X127407429Y-134290765D01*
X127431227Y-134284804D01*
X127455496Y-134281204D01*
X127480000Y-134280000D01*
X128680000Y-134280000D01*
X128704504Y-134281204D01*
G37*
G04 #@! TD.AperFunction*
D23*
X125580000Y-135255000D03*
X123080000Y-135255000D03*
D24*
X122363000Y-92837000D03*
D25*
X122363000Y-94837000D03*
X122363000Y-96837000D03*
X122363000Y-98837000D03*
X122363000Y-100837000D03*
X122363000Y-102837000D03*
X122363000Y-104837000D03*
X122363000Y-106837000D03*
X137763000Y-106837000D03*
X137663000Y-104837000D03*
X137763000Y-102837000D03*
X137763000Y-100837000D03*
X137763000Y-98837000D03*
X137763000Y-96837000D03*
X137763000Y-94837000D03*
X137763000Y-92837000D03*
D26*
X125053000Y-108537000D03*
X127053000Y-108537000D03*
X129053000Y-108537000D03*
X131053000Y-108537000D03*
X133053000Y-108537000D03*
X135053000Y-108537000D03*
D27*
X155044000Y-108712000D03*
X155044000Y-104212000D03*
X161544000Y-108712000D03*
X161544000Y-104212000D03*
X148844000Y-100910000D03*
X148844000Y-105410000D03*
X142344000Y-100910000D03*
X142344000Y-105410000D03*
D28*
X160528000Y-120650000D02*
X160528000Y-118824700D01*
X160528000Y-118824700D02*
X160299800Y-118824700D01*
X160299800Y-118824700D02*
X144762400Y-103287300D01*
X144762400Y-103287300D02*
X144762400Y-93235200D01*
X144762400Y-93235200D02*
X143483000Y-91955800D01*
X143483000Y-91955800D02*
X133482700Y-91955800D01*
X133482700Y-91955800D02*
X125677400Y-99761100D01*
X125677400Y-99761100D02*
X119954100Y-99761100D01*
X119954100Y-99761100D02*
X117602000Y-97409000D01*
X105850500Y-132842000D02*
X104902000Y-132842000D01*
X128080000Y-135255000D02*
X126029200Y-137305800D01*
X126029200Y-137305800D02*
X110314300Y-137305800D01*
X110314300Y-137305800D02*
X105850500Y-132842000D01*
X117602000Y-107873800D02*
X105850500Y-119625300D01*
X105850500Y-119625300D02*
X105850500Y-132842000D01*
X151448000Y-95631000D02*
X151448000Y-96606300D01*
X151448000Y-96606300D02*
X148844000Y-99210300D01*
X148844000Y-99210300D02*
X148844000Y-100910000D01*
X143637000Y-94234000D02*
X143637000Y-95359300D01*
X141732000Y-108712000D02*
X140993500Y-107973500D01*
X140993500Y-107973500D02*
X140993500Y-97721500D01*
X140993500Y-97721500D02*
X143355700Y-95359300D01*
X143355700Y-95359300D02*
X143637000Y-95359300D01*
X89662000Y-108585000D02*
X89662000Y-109810300D01*
X107442000Y-136144000D02*
X106578300Y-136144000D01*
X106578300Y-136144000D02*
X90887300Y-120453000D01*
X90887300Y-120453000D02*
X90887300Y-111035600D01*
X90887300Y-111035600D02*
X89662000Y-109810300D01*
X137063000Y-100837000D02*
X136187700Y-100837000D01*
X136187700Y-100837000D02*
X130053000Y-106971700D01*
X130053000Y-106971700D02*
X130053000Y-110231000D01*
X130053000Y-110231000D02*
X107442000Y-132842000D01*
X117602000Y-136144000D02*
X117602000Y-135018700D01*
X137063000Y-96837000D02*
X137748700Y-96837000D01*
X137748700Y-96837000D02*
X139355000Y-98443300D01*
X139355000Y-98443300D02*
X139355000Y-101247200D01*
X139355000Y-101247200D02*
X138765200Y-101837000D01*
X138765200Y-101837000D02*
X136799000Y-101837000D01*
X136799000Y-101837000D02*
X134138300Y-104497700D01*
X134138300Y-104497700D02*
X134138300Y-118482400D01*
X134138300Y-118482400D02*
X117602000Y-135018700D01*
X143320000Y-133096000D02*
X143320000Y-131970700D01*
X137063000Y-94837000D02*
X137733600Y-94837000D01*
X137733600Y-94837000D02*
X139867700Y-96971100D01*
X139867700Y-96971100D02*
X139867700Y-128518400D01*
X139867700Y-128518400D02*
X143320000Y-131970700D01*
X143320000Y-135272700D02*
X144445300Y-134147400D01*
X144445300Y-134147400D02*
X144445300Y-130842900D01*
X144445300Y-130842900D02*
X140318100Y-126715700D01*
X140318100Y-126715700D02*
X140318100Y-95440200D01*
X140318100Y-95440200D02*
X137714900Y-92837000D01*
X137714900Y-92837000D02*
X137063000Y-92837000D01*
X143320000Y-136398000D02*
X143320000Y-135272700D01*
X123063000Y-96837000D02*
X123938300Y-96837000D01*
X123938300Y-96837000D02*
X123938300Y-92837000D01*
X123063000Y-98837000D02*
X123063000Y-96837000D01*
X123063000Y-92837000D02*
X123938300Y-92837000D01*
X151892000Y-108712000D02*
X151892000Y-107586700D01*
X148844000Y-105410000D02*
X151020700Y-107586700D01*
X151020700Y-107586700D02*
X151892000Y-107586700D01*
X155044000Y-108712000D02*
X151638000Y-105306000D01*
X151638000Y-105306000D02*
X151638000Y-101092000D01*
D29*
G36*
X125362599Y-99001100D02*
G01*
X124237570Y-99001100D01*
X124253733Y-98837000D01*
X124230853Y-98604700D01*
X124163094Y-98381326D01*
X124053058Y-98175464D01*
X123904975Y-97995025D01*
X123823000Y-97927750D01*
X123823000Y-97746250D01*
X123904975Y-97678975D01*
X123971953Y-97597362D01*
X123975633Y-97597000D01*
X124087286Y-97586003D01*
X124230547Y-97542546D01*
X124362576Y-97471974D01*
X124478301Y-97377001D01*
X124573274Y-97261276D01*
X124643846Y-97129247D01*
X124687303Y-96985986D01*
X124701977Y-96837000D01*
X124698300Y-96799667D01*
X124698300Y-92874333D01*
X124701977Y-92837000D01*
X124687303Y-92688014D01*
X124643846Y-92544753D01*
X124573274Y-92412724D01*
X124478301Y-92296999D01*
X124362576Y-92202026D01*
X124230547Y-92131454D01*
X124229271Y-92131067D01*
X124202502Y-92042820D01*
X124143537Y-91932506D01*
X124064185Y-91835815D01*
X123967494Y-91756463D01*
X123857180Y-91697498D01*
X123737482Y-91661188D01*
X123613000Y-91648928D01*
X121113000Y-91648928D01*
X120988518Y-91661188D01*
X120868820Y-91697498D01*
X120758506Y-91756463D01*
X120661815Y-91835815D01*
X120582463Y-91932506D01*
X120523498Y-92042820D01*
X120487188Y-92162518D01*
X120474928Y-92287000D01*
X120474928Y-93387000D01*
X120487188Y-93511482D01*
X120523498Y-93631180D01*
X120582463Y-93741494D01*
X120661815Y-93838185D01*
X120758506Y-93917537D01*
X120853544Y-93968337D01*
X120821025Y-93995025D01*
X120672942Y-94175464D01*
X120562906Y-94381326D01*
X120495147Y-94604700D01*
X120472267Y-94837000D01*
X120495147Y-95069300D01*
X120562906Y-95292674D01*
X120672942Y-95498536D01*
X120821025Y-95678975D01*
X121001464Y-95827058D01*
X121020064Y-95837000D01*
X121001464Y-95846942D01*
X120821025Y-95995025D01*
X120672942Y-96175464D01*
X120562906Y-96381326D01*
X120495147Y-96604700D01*
X120472267Y-96837000D01*
X120495147Y-97069300D01*
X120562906Y-97292674D01*
X120672942Y-97498536D01*
X120821025Y-97678975D01*
X121001464Y-97827058D01*
X121020064Y-97837000D01*
X121001464Y-97846942D01*
X120821025Y-97995025D01*
X120672942Y-98175464D01*
X120562906Y-98381326D01*
X120495147Y-98604700D01*
X120472267Y-98837000D01*
X120488430Y-99001100D01*
X120268902Y-99001100D01*
X118968372Y-97700570D01*
X118999000Y-97546592D01*
X118999000Y-97271408D01*
X118945314Y-97001510D01*
X118840005Y-96747273D01*
X118687120Y-96518465D01*
X118492535Y-96323880D01*
X118263727Y-96170995D01*
X118009490Y-96065686D01*
X117739592Y-96012000D01*
X117464408Y-96012000D01*
X117194510Y-96065686D01*
X116940273Y-96170995D01*
X116711465Y-96323880D01*
X116516880Y-96518465D01*
X116363995Y-96747273D01*
X116258686Y-97001510D01*
X116205000Y-97271408D01*
X116205000Y-97546592D01*
X116258686Y-97816490D01*
X116363995Y-98070727D01*
X116516880Y-98299535D01*
X116711465Y-98494120D01*
X116940273Y-98647005D01*
X117194510Y-98752314D01*
X117464408Y-98806000D01*
X117739592Y-98806000D01*
X117893570Y-98775372D01*
X119390301Y-100272103D01*
X119414099Y-100301101D01*
X119529824Y-100396074D01*
X119661853Y-100466646D01*
X119805114Y-100510103D01*
X119916767Y-100521100D01*
X119916775Y-100521100D01*
X119954100Y-100524776D01*
X119991425Y-100521100D01*
X120520506Y-100521100D01*
X120495147Y-100604700D01*
X120472267Y-100837000D01*
X120495147Y-101069300D01*
X120562906Y-101292674D01*
X120672942Y-101498536D01*
X120821025Y-101678975D01*
X121001464Y-101827058D01*
X121020064Y-101837000D01*
X121001464Y-101846942D01*
X120821025Y-101995025D01*
X120672942Y-102175464D01*
X120562906Y-102381326D01*
X120495147Y-102604700D01*
X120472267Y-102837000D01*
X120495147Y-103069300D01*
X120562906Y-103292674D01*
X120672942Y-103498536D01*
X120821025Y-103678975D01*
X121001464Y-103827058D01*
X121020064Y-103837000D01*
X121001464Y-103846942D01*
X120821025Y-103995025D01*
X120672942Y-104175464D01*
X120562906Y-104381326D01*
X120495147Y-104604700D01*
X120472267Y-104837000D01*
X120495147Y-105069300D01*
X120562906Y-105292674D01*
X120672942Y-105498536D01*
X120821025Y-105678975D01*
X121001464Y-105827058D01*
X121020064Y-105837000D01*
X121001464Y-105846942D01*
X120821025Y-105995025D01*
X120672942Y-106175464D01*
X120562906Y-106381326D01*
X120495147Y-106604700D01*
X120472267Y-106837000D01*
X120495147Y-107069300D01*
X120562906Y-107292674D01*
X120672942Y-107498536D01*
X120821025Y-107678975D01*
X121001464Y-107827058D01*
X121207326Y-107937094D01*
X121430700Y-108004853D01*
X121604793Y-108022000D01*
X123121207Y-108022000D01*
X123295300Y-108004853D01*
X123518674Y-107937094D01*
X123724536Y-107827058D01*
X123875445Y-107703210D01*
X123868000Y-107778794D01*
X123868000Y-109295207D01*
X123885147Y-109469300D01*
X123952906Y-109692674D01*
X124062943Y-109898536D01*
X124211026Y-110078975D01*
X124391465Y-110227058D01*
X124597327Y-110337094D01*
X124820701Y-110404853D01*
X125053000Y-110427733D01*
X125285300Y-110404853D01*
X125508674Y-110337094D01*
X125714536Y-110227058D01*
X125894975Y-110078975D01*
X126043058Y-109898536D01*
X126053000Y-109879935D01*
X126062943Y-109898536D01*
X126211026Y-110078975D01*
X126391465Y-110227058D01*
X126597327Y-110337094D01*
X126820701Y-110404853D01*
X127053000Y-110427733D01*
X127285300Y-110404853D01*
X127508674Y-110337094D01*
X127714536Y-110227058D01*
X127894975Y-110078975D01*
X128043058Y-109898536D01*
X128053000Y-109879935D01*
X128062943Y-109898536D01*
X128211026Y-110078975D01*
X128391465Y-110227058D01*
X128597327Y-110337094D01*
X128808152Y-110401046D01*
X107765887Y-131443312D01*
X107583335Y-131407000D01*
X107300665Y-131407000D01*
X107023426Y-131462147D01*
X106762273Y-131570320D01*
X106527241Y-131727363D01*
X106327363Y-131927241D01*
X106171085Y-132161128D01*
X106138671Y-132100486D01*
X105894702Y-132028903D01*
X105081605Y-132842000D01*
X105894702Y-133655097D01*
X106138671Y-133583514D01*
X106169194Y-133519008D01*
X106170320Y-133521727D01*
X106327363Y-133756759D01*
X106527241Y-133956637D01*
X106762273Y-134113680D01*
X107023426Y-134221853D01*
X107300665Y-134277000D01*
X107583335Y-134277000D01*
X107860574Y-134221853D01*
X108121727Y-134113680D01*
X108356759Y-133956637D01*
X108556637Y-133756759D01*
X108713680Y-133521727D01*
X108821853Y-133260574D01*
X108877000Y-132983335D01*
X108877000Y-132700665D01*
X108840688Y-132518113D01*
X130564003Y-110794799D01*
X130593001Y-110771001D01*
X130687974Y-110655276D01*
X130758546Y-110523247D01*
X130796671Y-110397564D01*
X130820701Y-110404853D01*
X131053000Y-110427733D01*
X131285300Y-110404853D01*
X131508674Y-110337094D01*
X131714536Y-110227058D01*
X131894975Y-110078975D01*
X132043058Y-109898536D01*
X132053000Y-109879935D01*
X132062943Y-109898536D01*
X132211026Y-110078975D01*
X132391465Y-110227058D01*
X132597327Y-110337094D01*
X132820701Y-110404853D01*
X133053000Y-110427733D01*
X133285300Y-110404853D01*
X133378300Y-110376642D01*
X133378301Y-118167597D01*
X119005184Y-132540715D01*
X118981853Y-132423426D01*
X118873680Y-132162273D01*
X118716637Y-131927241D01*
X118516759Y-131727363D01*
X118281727Y-131570320D01*
X118020574Y-131462147D01*
X117743335Y-131407000D01*
X117460665Y-131407000D01*
X117183426Y-131462147D01*
X116922273Y-131570320D01*
X116687241Y-131727363D01*
X116487363Y-131927241D01*
X116330320Y-132162273D01*
X116222147Y-132423426D01*
X116167000Y-132700665D01*
X116167000Y-132983335D01*
X116222147Y-133260574D01*
X116330320Y-133521727D01*
X116487363Y-133756759D01*
X116687241Y-133956637D01*
X116922273Y-134113680D01*
X117183426Y-134221853D01*
X117300715Y-134245184D01*
X117090998Y-134454901D01*
X117062000Y-134478699D01*
X117038202Y-134507697D01*
X117038201Y-134507698D01*
X116967026Y-134594424D01*
X116896454Y-134726454D01*
X116879492Y-134782374D01*
X116858085Y-134852946D01*
X116852998Y-134869715D01*
X116847843Y-134922052D01*
X116687241Y-135029363D01*
X116487363Y-135229241D01*
X116330320Y-135464273D01*
X116222147Y-135725426D01*
X116167000Y-136002665D01*
X116167000Y-136285335D01*
X116222147Y-136562574D01*
X116330320Y-136823727D01*
X116487363Y-137058759D01*
X116687241Y-137258637D01*
X116922273Y-137415680D01*
X117183426Y-137523853D01*
X117460665Y-137579000D01*
X117743335Y-137579000D01*
X118020574Y-137523853D01*
X118281727Y-137415680D01*
X118516759Y-137258637D01*
X118716637Y-137058759D01*
X118873680Y-136823727D01*
X118981853Y-136562574D01*
X119037000Y-136285335D01*
X119037000Y-136002665D01*
X118981853Y-135725426D01*
X118873680Y-135464273D01*
X118716637Y-135229241D01*
X118591449Y-135104053D01*
X118638452Y-135057050D01*
X121595000Y-135057050D01*
X121595000Y-135452949D01*
X121616487Y-135671110D01*
X121701401Y-135951033D01*
X121839294Y-136209013D01*
X122024866Y-136435134D01*
X122250986Y-136620706D01*
X122508966Y-136758599D01*
X122788889Y-136843513D01*
X123080000Y-136872185D01*
X123371110Y-136843513D01*
X123651033Y-136758599D01*
X123909013Y-136620706D01*
X124135134Y-136435134D01*
X124320706Y-136209014D01*
X124330000Y-136191626D01*
X124339294Y-136209013D01*
X124524866Y-136435134D01*
X124750986Y-136620706D01*
X125008966Y-136758599D01*
X125288889Y-136843513D01*
X125580000Y-136872185D01*
X125871110Y-136843513D01*
X126151033Y-136758599D01*
X126409013Y-136620706D01*
X126629945Y-136439392D01*
X126640498Y-136474180D01*
X126699463Y-136584494D01*
X126778815Y-136681185D01*
X126875506Y-136760537D01*
X126985820Y-136819502D01*
X127105518Y-136855812D01*
X127230000Y-136868072D01*
X127794250Y-136865000D01*
X127953000Y-136706250D01*
X127953000Y-135382000D01*
X128207000Y-135382000D01*
X128207000Y-136706250D01*
X128365750Y-136865000D01*
X128930000Y-136868072D01*
X129054482Y-136855812D01*
X129174180Y-136819502D01*
X129284494Y-136760537D01*
X129381185Y-136681185D01*
X129460537Y-136584494D01*
X129519502Y-136474180D01*
X129555812Y-136354482D01*
X129565445Y-136256665D01*
X131725000Y-136256665D01*
X131725000Y-136539335D01*
X131780147Y-136816574D01*
X131888320Y-137077727D01*
X132045363Y-137312759D01*
X132245241Y-137512637D01*
X132480273Y-137669680D01*
X132741426Y-137777853D01*
X133018665Y-137833000D01*
X133301335Y-137833000D01*
X133578574Y-137777853D01*
X133839727Y-137669680D01*
X134074759Y-137512637D01*
X134274637Y-137312759D01*
X134431680Y-137077727D01*
X134539853Y-136816574D01*
X134595000Y-136539335D01*
X134595000Y-136256665D01*
X134539853Y-135979426D01*
X134431680Y-135718273D01*
X134274637Y-135483241D01*
X134074759Y-135283363D01*
X133839727Y-135126320D01*
X133578574Y-135018147D01*
X133301335Y-134963000D01*
X133018665Y-134963000D01*
X132741426Y-135018147D01*
X132480273Y-135126320D01*
X132245241Y-135283363D01*
X132045363Y-135483241D01*
X131888320Y-135718273D01*
X131780147Y-135979426D01*
X131725000Y-136256665D01*
X129565445Y-136256665D01*
X129568072Y-136230000D01*
X129565000Y-135540750D01*
X129406250Y-135382000D01*
X128207000Y-135382000D01*
X127953000Y-135382000D01*
X127933000Y-135382000D01*
X127933000Y-135128000D01*
X127953000Y-135128000D01*
X127953000Y-133803750D01*
X128207000Y-133803750D01*
X128207000Y-135128000D01*
X129406250Y-135128000D01*
X129565000Y-134969250D01*
X129568072Y-134280000D01*
X129555812Y-134155518D01*
X129519502Y-134035820D01*
X129460537Y-133925506D01*
X129381185Y-133828815D01*
X129284494Y-133749463D01*
X129174180Y-133690498D01*
X129054482Y-133654188D01*
X128930000Y-133641928D01*
X128365750Y-133645000D01*
X128207000Y-133803750D01*
X127953000Y-133803750D01*
X127794250Y-133645000D01*
X127230000Y-133641928D01*
X127105518Y-133654188D01*
X126985820Y-133690498D01*
X126875506Y-133749463D01*
X126778815Y-133828815D01*
X126699463Y-133925506D01*
X126640498Y-134035820D01*
X126629945Y-134070608D01*
X126409014Y-133889294D01*
X126151034Y-133751401D01*
X125871111Y-133666487D01*
X125580000Y-133637815D01*
X125288890Y-133666487D01*
X125008967Y-133751401D01*
X124750987Y-133889294D01*
X124524866Y-134074866D01*
X124339294Y-134300986D01*
X124330000Y-134318374D01*
X124320706Y-134300986D01*
X124135134Y-134074866D01*
X123909014Y-133889294D01*
X123651034Y-133751401D01*
X123371111Y-133666487D01*
X123080000Y-133637815D01*
X122788890Y-133666487D01*
X122508967Y-133751401D01*
X122250987Y-133889294D01*
X122024866Y-134074866D01*
X121839294Y-134300986D01*
X121701401Y-134558966D01*
X121616487Y-134838889D01*
X121595000Y-135057050D01*
X118638452Y-135057050D01*
X120740837Y-132954665D01*
X131725000Y-132954665D01*
X131725000Y-133237335D01*
X131780147Y-133514574D01*
X131888320Y-133775727D01*
X132045363Y-134010759D01*
X132245241Y-134210637D01*
X132480273Y-134367680D01*
X132741426Y-134475853D01*
X133018665Y-134531000D01*
X133301335Y-134531000D01*
X133578574Y-134475853D01*
X133839727Y-134367680D01*
X134074759Y-134210637D01*
X134274637Y-134010759D01*
X134431680Y-133775727D01*
X134539853Y-133514574D01*
X134595000Y-133237335D01*
X134595000Y-132954665D01*
X134539853Y-132677426D01*
X134431680Y-132416273D01*
X134274637Y-132181241D01*
X134074759Y-131981363D01*
X133839727Y-131824320D01*
X133578574Y-131716147D01*
X133301335Y-131661000D01*
X133018665Y-131661000D01*
X132741426Y-131716147D01*
X132480273Y-131824320D01*
X132245241Y-131981363D01*
X132045363Y-132181241D01*
X131888320Y-132416273D01*
X131780147Y-132677426D01*
X131725000Y-132954665D01*
X120740837Y-132954665D01*
X134649303Y-119046199D01*
X134678301Y-119022401D01*
X134773274Y-118906676D01*
X134843846Y-118774647D01*
X134887303Y-118631386D01*
X134898300Y-118519733D01*
X134898300Y-118519725D01*
X134901976Y-118482400D01*
X134898300Y-118445075D01*
X134898300Y-110412496D01*
X135053000Y-110427733D01*
X135285300Y-110404853D01*
X135508674Y-110337094D01*
X135714536Y-110227058D01*
X135894975Y-110078975D01*
X136043058Y-109898536D01*
X136153094Y-109692674D01*
X136220853Y-109469300D01*
X136238000Y-109295207D01*
X136238000Y-107778793D01*
X136228239Y-107679694D01*
X136299052Y-107751734D01*
X136492187Y-107883196D01*
X136707258Y-107974454D01*
X136936000Y-108022000D01*
X137636000Y-108022000D01*
X137636000Y-106964000D01*
X136044639Y-106964000D01*
X135964876Y-107080199D01*
X135894975Y-106995025D01*
X135714535Y-106846942D01*
X135508673Y-106736906D01*
X135285299Y-106669147D01*
X135053000Y-106646267D01*
X134898300Y-106661504D01*
X134898300Y-104812501D01*
X136135743Y-103575059D01*
X136221025Y-103678975D01*
X136376695Y-103806730D01*
X136301464Y-103846942D01*
X136121025Y-103995025D01*
X135972942Y-104175464D01*
X135862906Y-104381326D01*
X135795147Y-104604700D01*
X135772267Y-104837000D01*
X135795147Y-105069300D01*
X135862906Y-105292674D01*
X135972942Y-105498536D01*
X136121025Y-105678975D01*
X136301464Y-105827058D01*
X136378461Y-105868214D01*
X136299052Y-105922266D01*
X136135275Y-106088881D01*
X136007150Y-106284246D01*
X135919601Y-106500853D01*
X135919197Y-106527256D01*
X136044639Y-106710000D01*
X137636000Y-106710000D01*
X137636000Y-106690000D01*
X137890000Y-106690000D01*
X137890000Y-106710000D01*
X137910000Y-106710000D01*
X137910000Y-106964000D01*
X137890000Y-106964000D01*
X137890000Y-108022000D01*
X138590000Y-108022000D01*
X138818742Y-107974454D01*
X139033813Y-107883196D01*
X139107700Y-107832903D01*
X139107701Y-128481067D01*
X139104024Y-128518400D01*
X139118698Y-128667385D01*
X139162154Y-128810646D01*
X139232726Y-128942676D01*
X139303901Y-129029402D01*
X139327700Y-129058401D01*
X139356698Y-129082199D01*
X142330551Y-132056053D01*
X142205363Y-132181241D01*
X142048320Y-132416273D01*
X141940147Y-132677426D01*
X141885000Y-132954665D01*
X141885000Y-133237335D01*
X141940147Y-133514574D01*
X142048320Y-133775727D01*
X142205363Y-134010759D01*
X142405241Y-134210637D01*
X142640273Y-134367680D01*
X142901426Y-134475853D01*
X143018715Y-134499184D01*
X142808998Y-134708901D01*
X142780000Y-134732699D01*
X142756202Y-134761697D01*
X142756201Y-134761698D01*
X142685026Y-134848424D01*
X142614454Y-134980454D01*
X142584180Y-135080258D01*
X142570998Y-135123714D01*
X142565843Y-135176052D01*
X142405241Y-135283363D01*
X142205363Y-135483241D01*
X142048320Y-135718273D01*
X141940147Y-135979426D01*
X141885000Y-136256665D01*
X141885000Y-136539335D01*
X141940147Y-136816574D01*
X142048320Y-137077727D01*
X142205363Y-137312759D01*
X142405241Y-137512637D01*
X142640273Y-137669680D01*
X142901426Y-137777853D01*
X143178665Y-137833000D01*
X143461335Y-137833000D01*
X143738574Y-137777853D01*
X143999727Y-137669680D01*
X144234759Y-137512637D01*
X144434637Y-137312759D01*
X144591680Y-137077727D01*
X144699853Y-136816574D01*
X144755000Y-136539335D01*
X144755000Y-136256665D01*
X144699853Y-135979426D01*
X144591680Y-135718273D01*
X144434637Y-135483241D01*
X144309449Y-135358053D01*
X144956304Y-134711198D01*
X144985301Y-134687401D01*
X145080274Y-134571676D01*
X145150846Y-134439647D01*
X145194303Y-134296386D01*
X145205300Y-134184733D01*
X145205300Y-134184732D01*
X145208977Y-134147400D01*
X145205300Y-134110067D01*
X145205300Y-130880222D01*
X145208976Y-130842899D01*
X145205300Y-130805576D01*
X145205300Y-130805567D01*
X145194303Y-130693914D01*
X145150846Y-130550653D01*
X145080274Y-130418624D01*
X144985301Y-130302899D01*
X144956303Y-130279101D01*
X141078100Y-126400899D01*
X141078100Y-109994378D01*
X141313426Y-110091853D01*
X141590665Y-110147000D01*
X141873335Y-110147000D01*
X142150574Y-110091853D01*
X142411727Y-109983680D01*
X142646759Y-109826637D01*
X142846637Y-109626759D01*
X143003680Y-109391727D01*
X143111853Y-109130574D01*
X143167000Y-108853335D01*
X143167000Y-108570665D01*
X143111853Y-108293426D01*
X143003680Y-108032273D01*
X142846637Y-107797241D01*
X142646759Y-107597363D01*
X142411727Y-107440320D01*
X142150574Y-107332147D01*
X141873335Y-107277000D01*
X141753500Y-107277000D01*
X141753500Y-106935118D01*
X141867088Y-106982168D01*
X142182967Y-107045000D01*
X142505033Y-107045000D01*
X142820912Y-106982168D01*
X143118463Y-106858918D01*
X143386252Y-106679987D01*
X143613987Y-106452252D01*
X143792918Y-106184463D01*
X143916168Y-105886912D01*
X143979000Y-105571033D01*
X143979000Y-105248967D01*
X143916168Y-104933088D01*
X143792918Y-104635537D01*
X143613987Y-104367748D01*
X143386252Y-104140013D01*
X143118463Y-103961082D01*
X142820912Y-103837832D01*
X142505033Y-103775000D01*
X142182967Y-103775000D01*
X141867088Y-103837832D01*
X141753500Y-103884882D01*
X141753500Y-102440940D01*
X141773571Y-102450704D01*
X142085108Y-102532384D01*
X142406595Y-102551718D01*
X142725675Y-102507961D01*
X143030088Y-102402795D01*
X143204044Y-102309814D01*
X143299808Y-102045413D01*
X142344000Y-101089605D01*
X142329858Y-101103748D01*
X142150253Y-100924143D01*
X142164395Y-100910000D01*
X142523605Y-100910000D01*
X143479413Y-101865808D01*
X143743814Y-101770044D01*
X143884704Y-101480429D01*
X143966384Y-101168892D01*
X143985718Y-100847405D01*
X143941961Y-100528325D01*
X143836795Y-100223912D01*
X143743814Y-100049956D01*
X143479413Y-99954192D01*
X142523605Y-100910000D01*
X142164395Y-100910000D01*
X142150253Y-100895858D01*
X142329858Y-100716253D01*
X142344000Y-100730395D01*
X143299808Y-99774587D01*
X143204044Y-99510186D01*
X142914429Y-99369296D01*
X142602892Y-99287616D01*
X142281405Y-99268282D01*
X141962325Y-99312039D01*
X141753500Y-99384182D01*
X141753500Y-98036301D01*
X142370359Y-97419443D01*
X142400329Y-97475514D01*
X142644298Y-97547097D01*
X143457395Y-96734000D01*
X143443253Y-96719858D01*
X143622858Y-96540253D01*
X143637000Y-96554395D01*
X143651143Y-96540253D01*
X143830748Y-96719858D01*
X143816605Y-96734000D01*
X143830748Y-96748143D01*
X143651143Y-96927748D01*
X143637000Y-96913605D01*
X142823903Y-97726702D01*
X142895486Y-97970671D01*
X143150996Y-98091571D01*
X143425184Y-98160300D01*
X143707512Y-98174217D01*
X143987130Y-98132787D01*
X144002401Y-98127326D01*
X144002400Y-103249978D01*
X143998724Y-103287300D01*
X144002400Y-103324622D01*
X144002400Y-103324632D01*
X144013397Y-103436285D01*
X144040585Y-103525912D01*
X144056854Y-103579546D01*
X144127426Y-103711576D01*
X144145848Y-103734023D01*
X144222399Y-103827301D01*
X144251403Y-103851104D01*
X158922606Y-118522308D01*
X158903518Y-118524188D01*
X158783820Y-118560498D01*
X158673506Y-118619463D01*
X158576815Y-118698815D01*
X158497463Y-118795506D01*
X158438498Y-118905820D01*
X158402188Y-119025518D01*
X158389928Y-119150000D01*
X158389928Y-122150000D01*
X158402188Y-122274482D01*
X158438498Y-122394180D01*
X158497463Y-122504494D01*
X158576815Y-122601185D01*
X158673506Y-122680537D01*
X158783820Y-122739502D01*
X158903518Y-122775812D01*
X159028000Y-122788072D01*
X162028000Y-122788072D01*
X162152482Y-122775812D01*
X162272180Y-122739502D01*
X162382494Y-122680537D01*
X162479185Y-122601185D01*
X162558537Y-122504494D01*
X162617502Y-122394180D01*
X162653812Y-122274482D01*
X162666072Y-122150000D01*
X162666072Y-119150000D01*
X162653812Y-119025518D01*
X162617502Y-118905820D01*
X162558537Y-118795506D01*
X162479185Y-118698815D01*
X162382494Y-118619463D01*
X162272180Y-118560498D01*
X162152482Y-118524188D01*
X162028000Y-118511928D01*
X161222575Y-118511928D01*
X161162974Y-118400424D01*
X161068001Y-118284699D01*
X160952276Y-118189726D01*
X160820247Y-118119154D01*
X160676986Y-118075697D01*
X160619985Y-118070083D01*
X152544754Y-109994853D01*
X152571727Y-109983680D01*
X152806759Y-109826637D01*
X153006637Y-109626759D01*
X153163680Y-109391727D01*
X153271853Y-109130574D01*
X153327000Y-108853335D01*
X153327000Y-108570665D01*
X153271853Y-108293426D01*
X153163680Y-108032273D01*
X153006637Y-107797241D01*
X152806759Y-107597363D01*
X152646158Y-107490053D01*
X152641003Y-107437714D01*
X152617530Y-107360332D01*
X153477823Y-108220625D01*
X153471832Y-108235088D01*
X153409000Y-108550967D01*
X153409000Y-108873033D01*
X153471832Y-109188912D01*
X153595082Y-109486463D01*
X153774013Y-109754252D01*
X154001748Y-109981987D01*
X154269537Y-110160918D01*
X154567088Y-110284168D01*
X154882967Y-110347000D01*
X155205033Y-110347000D01*
X155520912Y-110284168D01*
X155818463Y-110160918D01*
X156086252Y-109981987D01*
X156313987Y-109754252D01*
X156492918Y-109486463D01*
X156616168Y-109188912D01*
X156679000Y-108873033D01*
X156679000Y-108550967D01*
X156616168Y-108235088D01*
X156492918Y-107937537D01*
X156313987Y-107669748D01*
X156086252Y-107442013D01*
X155818463Y-107263082D01*
X155520912Y-107139832D01*
X155205033Y-107077000D01*
X154882967Y-107077000D01*
X154567088Y-107139832D01*
X154552625Y-107145823D01*
X152754215Y-105347413D01*
X154088192Y-105347413D01*
X154183956Y-105611814D01*
X154473571Y-105752704D01*
X154785108Y-105834384D01*
X155106595Y-105853718D01*
X155425675Y-105809961D01*
X155730088Y-105704795D01*
X155904044Y-105611814D01*
X155999808Y-105347413D01*
X160588192Y-105347413D01*
X160683956Y-105611814D01*
X160973571Y-105752704D01*
X161285108Y-105834384D01*
X161606595Y-105853718D01*
X161925675Y-105809961D01*
X162230088Y-105704795D01*
X162404044Y-105611814D01*
X162499808Y-105347413D01*
X161544000Y-104391605D01*
X160588192Y-105347413D01*
X155999808Y-105347413D01*
X155044000Y-104391605D01*
X154088192Y-105347413D01*
X152754215Y-105347413D01*
X152398000Y-104991199D01*
X152398000Y-104274595D01*
X153402282Y-104274595D01*
X153446039Y-104593675D01*
X153551205Y-104898088D01*
X153644186Y-105072044D01*
X153908587Y-105167808D01*
X154864395Y-104212000D01*
X155223605Y-104212000D01*
X156179413Y-105167808D01*
X156443814Y-105072044D01*
X156584704Y-104782429D01*
X156666384Y-104470892D01*
X156678189Y-104274595D01*
X159902282Y-104274595D01*
X159946039Y-104593675D01*
X160051205Y-104898088D01*
X160144186Y-105072044D01*
X160408587Y-105167808D01*
X161364395Y-104212000D01*
X160408587Y-103256192D01*
X160144186Y-103351956D01*
X160003296Y-103641571D01*
X159921616Y-103953108D01*
X159902282Y-104274595D01*
X156678189Y-104274595D01*
X156685718Y-104149405D01*
X156641961Y-103830325D01*
X156536795Y-103525912D01*
X156443814Y-103351956D01*
X156179413Y-103256192D01*
X155223605Y-104212000D01*
X154864395Y-104212000D01*
X153908587Y-103256192D01*
X153644186Y-103351956D01*
X153503296Y-103641571D01*
X153421616Y-103953108D01*
X153402282Y-104274595D01*
X152398000Y-104274595D01*
X152398000Y-103076587D01*
X154088192Y-103076587D01*
X155044000Y-104032395D01*
X155999808Y-103076587D01*
X160588192Y-103076587D01*
X161544000Y-104032395D01*
X162499808Y-103076587D01*
X162404044Y-102812186D01*
X162114429Y-102671296D01*
X161802892Y-102589616D01*
X161481405Y-102570282D01*
X161162325Y-102614039D01*
X160857912Y-102719205D01*
X160683956Y-102812186D01*
X160588192Y-103076587D01*
X155999808Y-103076587D01*
X155904044Y-102812186D01*
X155614429Y-102671296D01*
X155302892Y-102589616D01*
X154981405Y-102570282D01*
X154662325Y-102614039D01*
X154357912Y-102719205D01*
X154183956Y-102812186D01*
X154088192Y-103076587D01*
X152398000Y-103076587D01*
X152398000Y-102310043D01*
X152552759Y-102206637D01*
X152752637Y-102006759D01*
X152909680Y-101771727D01*
X153017853Y-101510574D01*
X153073000Y-101233335D01*
X153073000Y-100950665D01*
X153017853Y-100673426D01*
X152909680Y-100412273D01*
X152752637Y-100177241D01*
X152552759Y-99977363D01*
X152317727Y-99820320D01*
X152056574Y-99712147D01*
X151779335Y-99657000D01*
X151496665Y-99657000D01*
X151219426Y-99712147D01*
X150958273Y-99820320D01*
X150723241Y-99977363D01*
X150523363Y-100177241D01*
X150389753Y-100377203D01*
X150336795Y-100223912D01*
X150243814Y-100049956D01*
X149979413Y-99954192D01*
X149023605Y-100910000D01*
X149979413Y-101865808D01*
X150243814Y-101770044D01*
X150309605Y-101634804D01*
X150366320Y-101771727D01*
X150523363Y-102006759D01*
X150723241Y-102206637D01*
X150878001Y-102310044D01*
X150878000Y-105268677D01*
X150874324Y-105306000D01*
X150878000Y-105343322D01*
X150878000Y-105343332D01*
X150888997Y-105454985D01*
X150920545Y-105558985D01*
X150932454Y-105598246D01*
X151003026Y-105730276D01*
X151042871Y-105778826D01*
X151097999Y-105846001D01*
X151127003Y-105869804D01*
X152118369Y-106861170D01*
X152040986Y-106837697D01*
X151929333Y-106826700D01*
X151892000Y-106823023D01*
X151854667Y-106826700D01*
X151335502Y-106826700D01*
X150410177Y-105901376D01*
X150416168Y-105886912D01*
X150479000Y-105571033D01*
X150479000Y-105248967D01*
X150416168Y-104933088D01*
X150292918Y-104635537D01*
X150113987Y-104367748D01*
X149886252Y-104140013D01*
X149618463Y-103961082D01*
X149320912Y-103837832D01*
X149005033Y-103775000D01*
X148682967Y-103775000D01*
X148367088Y-103837832D01*
X148069537Y-103961082D01*
X147801748Y-104140013D01*
X147574013Y-104367748D01*
X147395082Y-104635537D01*
X147333679Y-104783777D01*
X145522400Y-102972499D01*
X145522400Y-102045413D01*
X147888192Y-102045413D01*
X147983956Y-102309814D01*
X148273571Y-102450704D01*
X148585108Y-102532384D01*
X148906595Y-102551718D01*
X149225675Y-102507961D01*
X149530088Y-102402795D01*
X149704044Y-102309814D01*
X149799808Y-102045413D01*
X148844000Y-101089605D01*
X147888192Y-102045413D01*
X145522400Y-102045413D01*
X145522400Y-100972595D01*
X147202282Y-100972595D01*
X147246039Y-101291675D01*
X147351205Y-101596088D01*
X147444186Y-101770044D01*
X147708587Y-101865808D01*
X148664395Y-100910000D01*
X147708587Y-99954192D01*
X147444186Y-100049956D01*
X147303296Y-100339571D01*
X147221616Y-100651108D01*
X147202282Y-100972595D01*
X145522400Y-100972595D01*
X145522400Y-99774587D01*
X147888192Y-99774587D01*
X148844000Y-100730395D01*
X149799808Y-99774587D01*
X149704044Y-99510186D01*
X149414429Y-99369296D01*
X149102892Y-99287616D01*
X148781405Y-99268282D01*
X148462325Y-99312039D01*
X148157912Y-99417205D01*
X147983956Y-99510186D01*
X147888192Y-99774587D01*
X145522400Y-99774587D01*
X145522400Y-96281000D01*
X150159928Y-96281000D01*
X150172188Y-96405482D01*
X150208498Y-96525180D01*
X150267463Y-96635494D01*
X150346815Y-96732185D01*
X150443506Y-96811537D01*
X150553820Y-96870502D01*
X150673518Y-96906812D01*
X150798000Y-96919072D01*
X151162250Y-96916000D01*
X151321000Y-96757250D01*
X151321000Y-95758000D01*
X150321750Y-95758000D01*
X150163000Y-95916750D01*
X150159928Y-96281000D01*
X145522400Y-96281000D01*
X145522400Y-94981000D01*
X150159928Y-94981000D01*
X150163000Y-95345250D01*
X150321750Y-95504000D01*
X151321000Y-95504000D01*
X151321000Y-95484000D01*
X151575000Y-95484000D01*
X151575000Y-95504000D01*
X151595000Y-95504000D01*
X151595000Y-95758000D01*
X151575000Y-95758000D01*
X151575000Y-96757250D01*
X151733750Y-96916000D01*
X152098000Y-96919072D01*
X152222482Y-96906812D01*
X152342180Y-96870502D01*
X152452494Y-96811537D01*
X152549185Y-96732185D01*
X152628537Y-96635494D01*
X152687502Y-96525180D01*
X152723812Y-96405482D01*
X152736072Y-96281000D01*
X152733000Y-95916750D01*
X152574252Y-95758002D01*
X152703088Y-95758002D01*
X152752381Y-96005821D01*
X152849247Y-96239676D01*
X152989875Y-96450140D01*
X153168860Y-96629125D01*
X153379324Y-96769753D01*
X153613179Y-96866619D01*
X153861439Y-96916000D01*
X154114561Y-96916000D01*
X154362821Y-96866619D01*
X154596676Y-96769753D01*
X154807140Y-96629125D01*
X154986125Y-96450140D01*
X155126753Y-96239676D01*
X155223619Y-96005821D01*
X155273000Y-95757561D01*
X155273000Y-95504439D01*
X155223619Y-95256179D01*
X155126753Y-95022324D01*
X154986125Y-94811860D01*
X154807140Y-94632875D01*
X154596676Y-94492247D01*
X154362821Y-94395381D01*
X154114561Y-94346000D01*
X154003000Y-94346000D01*
X154003000Y-94234439D01*
X153953619Y-93986179D01*
X153856753Y-93752324D01*
X153716125Y-93541860D01*
X153537140Y-93362875D01*
X153326676Y-93222247D01*
X153092821Y-93125381D01*
X152844561Y-93076000D01*
X152591439Y-93076000D01*
X152343179Y-93125381D01*
X152109324Y-93222247D01*
X151898860Y-93362875D01*
X151719875Y-93541860D01*
X151579247Y-93752324D01*
X151482381Y-93986179D01*
X151433000Y-94234439D01*
X151433000Y-94346000D01*
X151320998Y-94346000D01*
X151320998Y-94504748D01*
X151162250Y-94346000D01*
X150798000Y-94342928D01*
X150673518Y-94355188D01*
X150553820Y-94391498D01*
X150443506Y-94450463D01*
X150346815Y-94529815D01*
X150267463Y-94626506D01*
X150208498Y-94736820D01*
X150172188Y-94856518D01*
X150159928Y-94981000D01*
X145522400Y-94981000D01*
X145522400Y-93272523D01*
X145526076Y-93235200D01*
X145522400Y-93197877D01*
X145522400Y-93197867D01*
X145511403Y-93086214D01*
X145467946Y-92942953D01*
X145397374Y-92810924D01*
X145302401Y-92695199D01*
X145273403Y-92671401D01*
X144244001Y-91642000D01*
X159178200Y-91642000D01*
X158974793Y-91777912D01*
X158579912Y-92172793D01*
X158269656Y-92637124D01*
X158055948Y-93153061D01*
X157947000Y-93700777D01*
X157947000Y-94259223D01*
X158055948Y-94806939D01*
X158269656Y-95322876D01*
X158579912Y-95787207D01*
X158974793Y-96182088D01*
X159439124Y-96492344D01*
X159955061Y-96706052D01*
X160502777Y-96815000D01*
X161061223Y-96815000D01*
X161608939Y-96706052D01*
X162124876Y-96492344D01*
X162589207Y-96182088D01*
X162984088Y-95787207D01*
X163120001Y-95583799D01*
X163120001Y-100533758D01*
X163069680Y-100412273D01*
X162912637Y-100177241D01*
X162712759Y-99977363D01*
X162477727Y-99820320D01*
X162216574Y-99712147D01*
X161939335Y-99657000D01*
X161656665Y-99657000D01*
X161379426Y-99712147D01*
X161118273Y-99820320D01*
X160883241Y-99977363D01*
X160683363Y-100177241D01*
X160526320Y-100412273D01*
X160418147Y-100673426D01*
X160363000Y-100950665D01*
X160363000Y-101233335D01*
X160418147Y-101510574D01*
X160526320Y-101771727D01*
X160683363Y-102006759D01*
X160883241Y-102206637D01*
X161118273Y-102363680D01*
X161379426Y-102471853D01*
X161656665Y-102527000D01*
X161939335Y-102527000D01*
X162216574Y-102471853D01*
X162477727Y-102363680D01*
X162712759Y-102206637D01*
X162912637Y-102006759D01*
X163069680Y-101771727D01*
X163120001Y-101650242D01*
X163120001Y-103766759D01*
X163036795Y-103525912D01*
X162943814Y-103351956D01*
X162679413Y-103256192D01*
X161723605Y-104212000D01*
X162679413Y-105167808D01*
X162943814Y-105072044D01*
X163084704Y-104782429D01*
X163120001Y-104647803D01*
X163120001Y-108254356D01*
X163116168Y-108235088D01*
X162992918Y-107937537D01*
X162813987Y-107669748D01*
X162586252Y-107442013D01*
X162318463Y-107263082D01*
X162020912Y-107139832D01*
X161705033Y-107077000D01*
X161382967Y-107077000D01*
X161067088Y-107139832D01*
X160769537Y-107263082D01*
X160501748Y-107442013D01*
X160274013Y-107669748D01*
X160095082Y-107937537D01*
X159971832Y-108235088D01*
X159909000Y-108550967D01*
X159909000Y-108873033D01*
X159971832Y-109188912D01*
X160095082Y-109486463D01*
X160274013Y-109754252D01*
X160501748Y-109981987D01*
X160769537Y-110160918D01*
X161067088Y-110284168D01*
X161382967Y-110347000D01*
X161705033Y-110347000D01*
X162020912Y-110284168D01*
X162318463Y-110160918D01*
X162586252Y-109981987D01*
X162813987Y-109754252D01*
X162992918Y-109486463D01*
X163116168Y-109188912D01*
X163120001Y-109169644D01*
X163120000Y-134286200D01*
X162984088Y-134082793D01*
X162589207Y-133687912D01*
X162124876Y-133377656D01*
X161608939Y-133163948D01*
X161061223Y-133055000D01*
X160502777Y-133055000D01*
X159955061Y-133163948D01*
X159439124Y-133377656D01*
X158974793Y-133687912D01*
X158579912Y-134082793D01*
X158269656Y-134547124D01*
X158055948Y-135063061D01*
X157947000Y-135610777D01*
X157947000Y-136169223D01*
X158055948Y-136716939D01*
X158269656Y-137232876D01*
X158579912Y-137697207D01*
X158974793Y-138092088D01*
X159178200Y-138228000D01*
X90757800Y-138228000D01*
X90961207Y-138092088D01*
X91356088Y-137697207D01*
X91666344Y-137232876D01*
X91880052Y-136716939D01*
X91989000Y-136169223D01*
X91989000Y-135610777D01*
X91880052Y-135063061D01*
X91666344Y-134547124D01*
X91356088Y-134082793D01*
X90961207Y-133687912D01*
X90496876Y-133377656D01*
X89980939Y-133163948D01*
X89433223Y-133055000D01*
X88874777Y-133055000D01*
X88327061Y-133163948D01*
X87811124Y-133377656D01*
X87346793Y-133687912D01*
X86951912Y-134082793D01*
X86816000Y-134286200D01*
X86816000Y-132700665D01*
X93307000Y-132700665D01*
X93307000Y-132983335D01*
X93362147Y-133260574D01*
X93470320Y-133521727D01*
X93627363Y-133756759D01*
X93827241Y-133956637D01*
X94062273Y-134113680D01*
X94323426Y-134221853D01*
X94600665Y-134277000D01*
X94883335Y-134277000D01*
X95160574Y-134221853D01*
X95421727Y-134113680D01*
X95656759Y-133956637D01*
X95856637Y-133756759D01*
X96013680Y-133521727D01*
X96121853Y-133260574D01*
X96177000Y-132983335D01*
X96177000Y-132700665D01*
X96121853Y-132423426D01*
X96013680Y-132162273D01*
X95856637Y-131927241D01*
X95656759Y-131727363D01*
X95421727Y-131570320D01*
X95160574Y-131462147D01*
X94883335Y-131407000D01*
X94600665Y-131407000D01*
X94323426Y-131462147D01*
X94062273Y-131570320D01*
X93827241Y-131727363D01*
X93627363Y-131927241D01*
X93470320Y-132162273D01*
X93362147Y-132423426D01*
X93307000Y-132700665D01*
X86816000Y-132700665D01*
X86816000Y-120063250D01*
X87642000Y-120063250D01*
X87642000Y-121236749D01*
X87667553Y-121496195D01*
X87768535Y-121829088D01*
X87932521Y-122135883D01*
X88153208Y-122404792D01*
X88422116Y-122625479D01*
X88728911Y-122789465D01*
X89061804Y-122890447D01*
X89408000Y-122924544D01*
X89754195Y-122890447D01*
X90087088Y-122789465D01*
X90393883Y-122625479D01*
X90662792Y-122404792D01*
X90883479Y-122135884D01*
X91047465Y-121829089D01*
X91080311Y-121720812D01*
X106014501Y-136655003D01*
X106038299Y-136684001D01*
X106067297Y-136707799D01*
X106150629Y-136776189D01*
X106170320Y-136823727D01*
X106327363Y-137058759D01*
X106527241Y-137258637D01*
X106762273Y-137415680D01*
X107023426Y-137523853D01*
X107300665Y-137579000D01*
X107583335Y-137579000D01*
X107860574Y-137523853D01*
X108121727Y-137415680D01*
X108356759Y-137258637D01*
X108556637Y-137058759D01*
X108713680Y-136823727D01*
X108821853Y-136562574D01*
X108877000Y-136285335D01*
X108877000Y-136002665D01*
X108821853Y-135725426D01*
X108713680Y-135464273D01*
X108556637Y-135229241D01*
X108356759Y-135029363D01*
X108121727Y-134872320D01*
X107860574Y-134764147D01*
X107583335Y-134709000D01*
X107300665Y-134709000D01*
X107023426Y-134764147D01*
X106762273Y-134872320D01*
X106533969Y-135024867D01*
X105607189Y-134098087D01*
X105643514Y-134078671D01*
X105715097Y-133834702D01*
X104902000Y-133021605D01*
X104887858Y-133035748D01*
X104708253Y-132856143D01*
X104722395Y-132842000D01*
X103909298Y-132028903D01*
X103665329Y-132100486D01*
X103647425Y-132138324D01*
X103358399Y-131849298D01*
X104088903Y-131849298D01*
X104902000Y-132662395D01*
X105715097Y-131849298D01*
X105643514Y-131605329D01*
X105388004Y-131484429D01*
X105113816Y-131415700D01*
X104831488Y-131401783D01*
X104551870Y-131443213D01*
X104285708Y-131538397D01*
X104160486Y-131605329D01*
X104088903Y-131849298D01*
X103358399Y-131849298D01*
X91647300Y-120138199D01*
X91647300Y-111072923D01*
X91650976Y-111035600D01*
X91647300Y-110998277D01*
X91647300Y-110998267D01*
X91636303Y-110886614D01*
X91592846Y-110743353D01*
X91592124Y-110742003D01*
X91522274Y-110611323D01*
X91451099Y-110524597D01*
X91427301Y-110495599D01*
X91398303Y-110471801D01*
X90930524Y-110004023D01*
X91013185Y-109936185D01*
X91092537Y-109839494D01*
X91151502Y-109729180D01*
X91187812Y-109609482D01*
X91200072Y-109485000D01*
X91200072Y-107685000D01*
X91187812Y-107560518D01*
X91151502Y-107440820D01*
X91146472Y-107431408D01*
X93345000Y-107431408D01*
X93345000Y-107706592D01*
X93398686Y-107976490D01*
X93503995Y-108230727D01*
X93656880Y-108459535D01*
X93851465Y-108654120D01*
X94080273Y-108807005D01*
X94334510Y-108912314D01*
X94604408Y-108966000D01*
X94879592Y-108966000D01*
X95149490Y-108912314D01*
X95325603Y-108839365D01*
X116816040Y-108839365D01*
X116883020Y-109079456D01*
X117132048Y-109196556D01*
X117399135Y-109262823D01*
X117674017Y-109275710D01*
X117946133Y-109234722D01*
X118205023Y-109141436D01*
X118320980Y-109079456D01*
X118387960Y-108839365D01*
X117602000Y-108053405D01*
X116816040Y-108839365D01*
X95325603Y-108839365D01*
X95403727Y-108807005D01*
X95632535Y-108654120D01*
X95827120Y-108459535D01*
X95980005Y-108230727D01*
X96085314Y-107976490D01*
X96091415Y-107945817D01*
X116200090Y-107945817D01*
X116241078Y-108217933D01*
X116334364Y-108476823D01*
X116396344Y-108592780D01*
X116636435Y-108659760D01*
X117422395Y-107873800D01*
X117781605Y-107873800D01*
X118567565Y-108659760D01*
X118807656Y-108592780D01*
X118924756Y-108343752D01*
X118991023Y-108076665D01*
X119003910Y-107801783D01*
X118962922Y-107529667D01*
X118869636Y-107270777D01*
X118807656Y-107154820D01*
X118567565Y-107087840D01*
X117781605Y-107873800D01*
X117422395Y-107873800D01*
X116636435Y-107087840D01*
X116396344Y-107154820D01*
X116279244Y-107403848D01*
X116212977Y-107670935D01*
X116200090Y-107945817D01*
X96091415Y-107945817D01*
X96139000Y-107706592D01*
X96139000Y-107431408D01*
X96085314Y-107161510D01*
X95980404Y-106908235D01*
X116816040Y-106908235D01*
X117602000Y-107694195D01*
X118387960Y-106908235D01*
X118320980Y-106668144D01*
X118071952Y-106551044D01*
X117804865Y-106484777D01*
X117529983Y-106471890D01*
X117257867Y-106512878D01*
X116998977Y-106606164D01*
X116883020Y-106668144D01*
X116816040Y-106908235D01*
X95980404Y-106908235D01*
X95980005Y-106907273D01*
X95827120Y-106678465D01*
X95632535Y-106483880D01*
X95403727Y-106330995D01*
X95149490Y-106225686D01*
X94879592Y-106172000D01*
X94604408Y-106172000D01*
X94334510Y-106225686D01*
X94080273Y-106330995D01*
X93851465Y-106483880D01*
X93656880Y-106678465D01*
X93503995Y-106907273D01*
X93398686Y-107161510D01*
X93345000Y-107431408D01*
X91146472Y-107431408D01*
X91092537Y-107330506D01*
X91013185Y-107233815D01*
X90916494Y-107154463D01*
X90806180Y-107095498D01*
X90686482Y-107059188D01*
X90562000Y-107046928D01*
X88762000Y-107046928D01*
X88637518Y-107059188D01*
X88517820Y-107095498D01*
X88407506Y-107154463D01*
X88310815Y-107233815D01*
X88231463Y-107330506D01*
X88172498Y-107440820D01*
X88136188Y-107560518D01*
X88123928Y-107685000D01*
X88123928Y-109485000D01*
X88136188Y-109609482D01*
X88172498Y-109729180D01*
X88231463Y-109839494D01*
X88310815Y-109936185D01*
X88407506Y-110015537D01*
X88517820Y-110074502D01*
X88637518Y-110110812D01*
X88762000Y-110123072D01*
X88967425Y-110123072D01*
X89027026Y-110234576D01*
X89098201Y-110321302D01*
X89122000Y-110350301D01*
X89150998Y-110374099D01*
X90127301Y-111350403D01*
X90127300Y-118532028D01*
X90087089Y-118510535D01*
X89754196Y-118409553D01*
X89408000Y-118375456D01*
X89061805Y-118409553D01*
X88728912Y-118510535D01*
X88422117Y-118674521D01*
X88153209Y-118895208D01*
X87932522Y-119164116D01*
X87768535Y-119470911D01*
X87667553Y-119803804D01*
X87642000Y-120063250D01*
X86816000Y-120063250D01*
X86816000Y-104891408D01*
X116205000Y-104891408D01*
X116205000Y-105166592D01*
X116258686Y-105436490D01*
X116363995Y-105690727D01*
X116516880Y-105919535D01*
X116711465Y-106114120D01*
X116940273Y-106267005D01*
X117194510Y-106372314D01*
X117464408Y-106426000D01*
X117739592Y-106426000D01*
X118009490Y-106372314D01*
X118263727Y-106267005D01*
X118492535Y-106114120D01*
X118687120Y-105919535D01*
X118840005Y-105690727D01*
X118945314Y-105436490D01*
X118999000Y-105166592D01*
X118999000Y-104891408D01*
X118945314Y-104621510D01*
X118840005Y-104367273D01*
X118687120Y-104138465D01*
X118492535Y-103943880D01*
X118263727Y-103790995D01*
X118009490Y-103685686D01*
X117739592Y-103632000D01*
X117464408Y-103632000D01*
X117194510Y-103685686D01*
X116940273Y-103790995D01*
X116711465Y-103943880D01*
X116516880Y-104138465D01*
X116363995Y-104367273D01*
X116258686Y-104621510D01*
X116205000Y-104891408D01*
X86816000Y-104891408D01*
X86816000Y-100813816D01*
X88127000Y-100813816D01*
X88127000Y-101116184D01*
X88185989Y-101412743D01*
X88301701Y-101692095D01*
X88469688Y-101943505D01*
X88683495Y-102157312D01*
X88934905Y-102325299D01*
X89214257Y-102441011D01*
X89510816Y-102500000D01*
X89813184Y-102500000D01*
X90109743Y-102441011D01*
X90389095Y-102325299D01*
X90640505Y-102157312D01*
X90854312Y-101943505D01*
X91022299Y-101692095D01*
X91138011Y-101412743D01*
X91197000Y-101116184D01*
X91197000Y-100813816D01*
X91138011Y-100517257D01*
X91022299Y-100237905D01*
X90854312Y-99986495D01*
X90640505Y-99772688D01*
X90389095Y-99604701D01*
X90109743Y-99488989D01*
X89813184Y-99430000D01*
X89510816Y-99430000D01*
X89214257Y-99488989D01*
X88934905Y-99604701D01*
X88683495Y-99772688D01*
X88469688Y-99986495D01*
X88301701Y-100237905D01*
X88185989Y-100517257D01*
X88127000Y-100813816D01*
X86816000Y-100813816D01*
X86816000Y-95583800D01*
X86951912Y-95787207D01*
X87346793Y-96182088D01*
X87811124Y-96492344D01*
X88327061Y-96706052D01*
X88874777Y-96815000D01*
X89433223Y-96815000D01*
X89980939Y-96706052D01*
X90496876Y-96492344D01*
X90961207Y-96182088D01*
X91356088Y-95787207D01*
X91666344Y-95322876D01*
X91880052Y-94806939D01*
X91895076Y-94731408D01*
X93345000Y-94731408D01*
X93345000Y-95006592D01*
X93398686Y-95276490D01*
X93503995Y-95530727D01*
X93656880Y-95759535D01*
X93851465Y-95954120D01*
X94080273Y-96107005D01*
X94334510Y-96212314D01*
X94604408Y-96266000D01*
X94879592Y-96266000D01*
X95149490Y-96212314D01*
X95403727Y-96107005D01*
X95632535Y-95954120D01*
X95827120Y-95759535D01*
X95980005Y-95530727D01*
X96085314Y-95276490D01*
X96139000Y-95006592D01*
X96139000Y-94731408D01*
X96085314Y-94461510D01*
X96070858Y-94426608D01*
X116205000Y-94426608D01*
X116205000Y-94701792D01*
X116258686Y-94971690D01*
X116363995Y-95225927D01*
X116516880Y-95454735D01*
X116711465Y-95649320D01*
X116940273Y-95802205D01*
X117194510Y-95907514D01*
X117464408Y-95961200D01*
X117739592Y-95961200D01*
X118009490Y-95907514D01*
X118263727Y-95802205D01*
X118492535Y-95649320D01*
X118687120Y-95454735D01*
X118840005Y-95225927D01*
X118945314Y-94971690D01*
X118999000Y-94701792D01*
X118999000Y-94426608D01*
X118945314Y-94156710D01*
X118840005Y-93902473D01*
X118687120Y-93673665D01*
X118492535Y-93479080D01*
X118263727Y-93326195D01*
X118009490Y-93220886D01*
X117739592Y-93167200D01*
X117464408Y-93167200D01*
X117194510Y-93220886D01*
X116940273Y-93326195D01*
X116711465Y-93479080D01*
X116516880Y-93673665D01*
X116363995Y-93902473D01*
X116258686Y-94156710D01*
X116205000Y-94426608D01*
X96070858Y-94426608D01*
X95980005Y-94207273D01*
X95827120Y-93978465D01*
X95632535Y-93783880D01*
X95403727Y-93630995D01*
X95149490Y-93525686D01*
X94879592Y-93472000D01*
X94604408Y-93472000D01*
X94334510Y-93525686D01*
X94080273Y-93630995D01*
X93851465Y-93783880D01*
X93656880Y-93978465D01*
X93503995Y-94207273D01*
X93398686Y-94461510D01*
X93345000Y-94731408D01*
X91895076Y-94731408D01*
X91989000Y-94259223D01*
X91989000Y-93700777D01*
X91880052Y-93153061D01*
X91666344Y-92637124D01*
X91356088Y-92172793D01*
X90961207Y-91777912D01*
X90757800Y-91642000D01*
X132721698Y-91642000D01*
X125362599Y-99001100D01*
G37*
X125362599Y-99001100D02*
X124237570Y-99001100D01*
X124253733Y-98837000D01*
X124230853Y-98604700D01*
X124163094Y-98381326D01*
X124053058Y-98175464D01*
X123904975Y-97995025D01*
X123823000Y-97927750D01*
X123823000Y-97746250D01*
X123904975Y-97678975D01*
X123971953Y-97597362D01*
X123975633Y-97597000D01*
X124087286Y-97586003D01*
X124230547Y-97542546D01*
X124362576Y-97471974D01*
X124478301Y-97377001D01*
X124573274Y-97261276D01*
X124643846Y-97129247D01*
X124687303Y-96985986D01*
X124701977Y-96837000D01*
X124698300Y-96799667D01*
X124698300Y-92874333D01*
X124701977Y-92837000D01*
X124687303Y-92688014D01*
X124643846Y-92544753D01*
X124573274Y-92412724D01*
X124478301Y-92296999D01*
X124362576Y-92202026D01*
X124230547Y-92131454D01*
X124229271Y-92131067D01*
X124202502Y-92042820D01*
X124143537Y-91932506D01*
X124064185Y-91835815D01*
X123967494Y-91756463D01*
X123857180Y-91697498D01*
X123737482Y-91661188D01*
X123613000Y-91648928D01*
X121113000Y-91648928D01*
X120988518Y-91661188D01*
X120868820Y-91697498D01*
X120758506Y-91756463D01*
X120661815Y-91835815D01*
X120582463Y-91932506D01*
X120523498Y-92042820D01*
X120487188Y-92162518D01*
X120474928Y-92287000D01*
X120474928Y-93387000D01*
X120487188Y-93511482D01*
X120523498Y-93631180D01*
X120582463Y-93741494D01*
X120661815Y-93838185D01*
X120758506Y-93917537D01*
X120853544Y-93968337D01*
X120821025Y-93995025D01*
X120672942Y-94175464D01*
X120562906Y-94381326D01*
X120495147Y-94604700D01*
X120472267Y-94837000D01*
X120495147Y-95069300D01*
X120562906Y-95292674D01*
X120672942Y-95498536D01*
X120821025Y-95678975D01*
X121001464Y-95827058D01*
X121020064Y-95837000D01*
X121001464Y-95846942D01*
X120821025Y-95995025D01*
X120672942Y-96175464D01*
X120562906Y-96381326D01*
X120495147Y-96604700D01*
X120472267Y-96837000D01*
X120495147Y-97069300D01*
X120562906Y-97292674D01*
X120672942Y-97498536D01*
X120821025Y-97678975D01*
X121001464Y-97827058D01*
X121020064Y-97837000D01*
X121001464Y-97846942D01*
X120821025Y-97995025D01*
X120672942Y-98175464D01*
X120562906Y-98381326D01*
X120495147Y-98604700D01*
X120472267Y-98837000D01*
X120488430Y-99001100D01*
X120268902Y-99001100D01*
X118968372Y-97700570D01*
X118999000Y-97546592D01*
X118999000Y-97271408D01*
X118945314Y-97001510D01*
X118840005Y-96747273D01*
X118687120Y-96518465D01*
X118492535Y-96323880D01*
X118263727Y-96170995D01*
X118009490Y-96065686D01*
X117739592Y-96012000D01*
X117464408Y-96012000D01*
X117194510Y-96065686D01*
X116940273Y-96170995D01*
X116711465Y-96323880D01*
X116516880Y-96518465D01*
X116363995Y-96747273D01*
X116258686Y-97001510D01*
X116205000Y-97271408D01*
X116205000Y-97546592D01*
X116258686Y-97816490D01*
X116363995Y-98070727D01*
X116516880Y-98299535D01*
X116711465Y-98494120D01*
X116940273Y-98647005D01*
X117194510Y-98752314D01*
X117464408Y-98806000D01*
X117739592Y-98806000D01*
X117893570Y-98775372D01*
X119390301Y-100272103D01*
X119414099Y-100301101D01*
X119529824Y-100396074D01*
X119661853Y-100466646D01*
X119805114Y-100510103D01*
X119916767Y-100521100D01*
X119916775Y-100521100D01*
X119954100Y-100524776D01*
X119991425Y-100521100D01*
X120520506Y-100521100D01*
X120495147Y-100604700D01*
X120472267Y-100837000D01*
X120495147Y-101069300D01*
X120562906Y-101292674D01*
X120672942Y-101498536D01*
X120821025Y-101678975D01*
X121001464Y-101827058D01*
X121020064Y-101837000D01*
X121001464Y-101846942D01*
X120821025Y-101995025D01*
X120672942Y-102175464D01*
X120562906Y-102381326D01*
X120495147Y-102604700D01*
X120472267Y-102837000D01*
X120495147Y-103069300D01*
X120562906Y-103292674D01*
X120672942Y-103498536D01*
X120821025Y-103678975D01*
X121001464Y-103827058D01*
X121020064Y-103837000D01*
X121001464Y-103846942D01*
X120821025Y-103995025D01*
X120672942Y-104175464D01*
X120562906Y-104381326D01*
X120495147Y-104604700D01*
X120472267Y-104837000D01*
X120495147Y-105069300D01*
X120562906Y-105292674D01*
X120672942Y-105498536D01*
X120821025Y-105678975D01*
X121001464Y-105827058D01*
X121020064Y-105837000D01*
X121001464Y-105846942D01*
X120821025Y-105995025D01*
X120672942Y-106175464D01*
X120562906Y-106381326D01*
X120495147Y-106604700D01*
X120472267Y-106837000D01*
X120495147Y-107069300D01*
X120562906Y-107292674D01*
X120672942Y-107498536D01*
X120821025Y-107678975D01*
X121001464Y-107827058D01*
X121207326Y-107937094D01*
X121430700Y-108004853D01*
X121604793Y-108022000D01*
X123121207Y-108022000D01*
X123295300Y-108004853D01*
X123518674Y-107937094D01*
X123724536Y-107827058D01*
X123875445Y-107703210D01*
X123868000Y-107778794D01*
X123868000Y-109295207D01*
X123885147Y-109469300D01*
X123952906Y-109692674D01*
X124062943Y-109898536D01*
X124211026Y-110078975D01*
X124391465Y-110227058D01*
X124597327Y-110337094D01*
X124820701Y-110404853D01*
X125053000Y-110427733D01*
X125285300Y-110404853D01*
X125508674Y-110337094D01*
X125714536Y-110227058D01*
X125894975Y-110078975D01*
X126043058Y-109898536D01*
X126053000Y-109879935D01*
X126062943Y-109898536D01*
X126211026Y-110078975D01*
X126391465Y-110227058D01*
X126597327Y-110337094D01*
X126820701Y-110404853D01*
X127053000Y-110427733D01*
X127285300Y-110404853D01*
X127508674Y-110337094D01*
X127714536Y-110227058D01*
X127894975Y-110078975D01*
X128043058Y-109898536D01*
X128053000Y-109879935D01*
X128062943Y-109898536D01*
X128211026Y-110078975D01*
X128391465Y-110227058D01*
X128597327Y-110337094D01*
X128808152Y-110401046D01*
X107765887Y-131443312D01*
X107583335Y-131407000D01*
X107300665Y-131407000D01*
X107023426Y-131462147D01*
X106762273Y-131570320D01*
X106527241Y-131727363D01*
X106327363Y-131927241D01*
X106171085Y-132161128D01*
X106138671Y-132100486D01*
X105894702Y-132028903D01*
X105081605Y-132842000D01*
X105894702Y-133655097D01*
X106138671Y-133583514D01*
X106169194Y-133519008D01*
X106170320Y-133521727D01*
X106327363Y-133756759D01*
X106527241Y-133956637D01*
X106762273Y-134113680D01*
X107023426Y-134221853D01*
X107300665Y-134277000D01*
X107583335Y-134277000D01*
X107860574Y-134221853D01*
X108121727Y-134113680D01*
X108356759Y-133956637D01*
X108556637Y-133756759D01*
X108713680Y-133521727D01*
X108821853Y-133260574D01*
X108877000Y-132983335D01*
X108877000Y-132700665D01*
X108840688Y-132518113D01*
X130564003Y-110794799D01*
X130593001Y-110771001D01*
X130687974Y-110655276D01*
X130758546Y-110523247D01*
X130796671Y-110397564D01*
X130820701Y-110404853D01*
X131053000Y-110427733D01*
X131285300Y-110404853D01*
X131508674Y-110337094D01*
X131714536Y-110227058D01*
X131894975Y-110078975D01*
X132043058Y-109898536D01*
X132053000Y-109879935D01*
X132062943Y-109898536D01*
X132211026Y-110078975D01*
X132391465Y-110227058D01*
X132597327Y-110337094D01*
X132820701Y-110404853D01*
X133053000Y-110427733D01*
X133285300Y-110404853D01*
X133378300Y-110376642D01*
X133378301Y-118167597D01*
X119005184Y-132540715D01*
X118981853Y-132423426D01*
X118873680Y-132162273D01*
X118716637Y-131927241D01*
X118516759Y-131727363D01*
X118281727Y-131570320D01*
X118020574Y-131462147D01*
X117743335Y-131407000D01*
X117460665Y-131407000D01*
X117183426Y-131462147D01*
X116922273Y-131570320D01*
X116687241Y-131727363D01*
X116487363Y-131927241D01*
X116330320Y-132162273D01*
X116222147Y-132423426D01*
X116167000Y-132700665D01*
X116167000Y-132983335D01*
X116222147Y-133260574D01*
X116330320Y-133521727D01*
X116487363Y-133756759D01*
X116687241Y-133956637D01*
X116922273Y-134113680D01*
X117183426Y-134221853D01*
X117300715Y-134245184D01*
X117090998Y-134454901D01*
X117062000Y-134478699D01*
X117038202Y-134507697D01*
X117038201Y-134507698D01*
X116967026Y-134594424D01*
X116896454Y-134726454D01*
X116879492Y-134782374D01*
X116858085Y-134852946D01*
X116852998Y-134869715D01*
X116847843Y-134922052D01*
X116687241Y-135029363D01*
X116487363Y-135229241D01*
X116330320Y-135464273D01*
X116222147Y-135725426D01*
X116167000Y-136002665D01*
X116167000Y-136285335D01*
X116222147Y-136562574D01*
X116330320Y-136823727D01*
X116487363Y-137058759D01*
X116687241Y-137258637D01*
X116922273Y-137415680D01*
X117183426Y-137523853D01*
X117460665Y-137579000D01*
X117743335Y-137579000D01*
X118020574Y-137523853D01*
X118281727Y-137415680D01*
X118516759Y-137258637D01*
X118716637Y-137058759D01*
X118873680Y-136823727D01*
X118981853Y-136562574D01*
X119037000Y-136285335D01*
X119037000Y-136002665D01*
X118981853Y-135725426D01*
X118873680Y-135464273D01*
X118716637Y-135229241D01*
X118591449Y-135104053D01*
X118638452Y-135057050D01*
X121595000Y-135057050D01*
X121595000Y-135452949D01*
X121616487Y-135671110D01*
X121701401Y-135951033D01*
X121839294Y-136209013D01*
X122024866Y-136435134D01*
X122250986Y-136620706D01*
X122508966Y-136758599D01*
X122788889Y-136843513D01*
X123080000Y-136872185D01*
X123371110Y-136843513D01*
X123651033Y-136758599D01*
X123909013Y-136620706D01*
X124135134Y-136435134D01*
X124320706Y-136209014D01*
X124330000Y-136191626D01*
X124339294Y-136209013D01*
X124524866Y-136435134D01*
X124750986Y-136620706D01*
X125008966Y-136758599D01*
X125288889Y-136843513D01*
X125580000Y-136872185D01*
X125871110Y-136843513D01*
X126151033Y-136758599D01*
X126409013Y-136620706D01*
X126629945Y-136439392D01*
X126640498Y-136474180D01*
X126699463Y-136584494D01*
X126778815Y-136681185D01*
X126875506Y-136760537D01*
X126985820Y-136819502D01*
X127105518Y-136855812D01*
X127230000Y-136868072D01*
X127794250Y-136865000D01*
X127953000Y-136706250D01*
X127953000Y-135382000D01*
X128207000Y-135382000D01*
X128207000Y-136706250D01*
X128365750Y-136865000D01*
X128930000Y-136868072D01*
X129054482Y-136855812D01*
X129174180Y-136819502D01*
X129284494Y-136760537D01*
X129381185Y-136681185D01*
X129460537Y-136584494D01*
X129519502Y-136474180D01*
X129555812Y-136354482D01*
X129565445Y-136256665D01*
X131725000Y-136256665D01*
X131725000Y-136539335D01*
X131780147Y-136816574D01*
X131888320Y-137077727D01*
X132045363Y-137312759D01*
X132245241Y-137512637D01*
X132480273Y-137669680D01*
X132741426Y-137777853D01*
X133018665Y-137833000D01*
X133301335Y-137833000D01*
X133578574Y-137777853D01*
X133839727Y-137669680D01*
X134074759Y-137512637D01*
X134274637Y-137312759D01*
X134431680Y-137077727D01*
X134539853Y-136816574D01*
X134595000Y-136539335D01*
X134595000Y-136256665D01*
X134539853Y-135979426D01*
X134431680Y-135718273D01*
X134274637Y-135483241D01*
X134074759Y-135283363D01*
X133839727Y-135126320D01*
X133578574Y-135018147D01*
X133301335Y-134963000D01*
X133018665Y-134963000D01*
X132741426Y-135018147D01*
X132480273Y-135126320D01*
X132245241Y-135283363D01*
X132045363Y-135483241D01*
X131888320Y-135718273D01*
X131780147Y-135979426D01*
X131725000Y-136256665D01*
X129565445Y-136256665D01*
X129568072Y-136230000D01*
X129565000Y-135540750D01*
X129406250Y-135382000D01*
X128207000Y-135382000D01*
X127953000Y-135382000D01*
X127933000Y-135382000D01*
X127933000Y-135128000D01*
X127953000Y-135128000D01*
X127953000Y-133803750D01*
X128207000Y-133803750D01*
X128207000Y-135128000D01*
X129406250Y-135128000D01*
X129565000Y-134969250D01*
X129568072Y-134280000D01*
X129555812Y-134155518D01*
X129519502Y-134035820D01*
X129460537Y-133925506D01*
X129381185Y-133828815D01*
X129284494Y-133749463D01*
X129174180Y-133690498D01*
X129054482Y-133654188D01*
X128930000Y-133641928D01*
X128365750Y-133645000D01*
X128207000Y-133803750D01*
X127953000Y-133803750D01*
X127794250Y-133645000D01*
X127230000Y-133641928D01*
X127105518Y-133654188D01*
X126985820Y-133690498D01*
X126875506Y-133749463D01*
X126778815Y-133828815D01*
X126699463Y-133925506D01*
X126640498Y-134035820D01*
X126629945Y-134070608D01*
X126409014Y-133889294D01*
X126151034Y-133751401D01*
X125871111Y-133666487D01*
X125580000Y-133637815D01*
X125288890Y-133666487D01*
X125008967Y-133751401D01*
X124750987Y-133889294D01*
X124524866Y-134074866D01*
X124339294Y-134300986D01*
X124330000Y-134318374D01*
X124320706Y-134300986D01*
X124135134Y-134074866D01*
X123909014Y-133889294D01*
X123651034Y-133751401D01*
X123371111Y-133666487D01*
X123080000Y-133637815D01*
X122788890Y-133666487D01*
X122508967Y-133751401D01*
X122250987Y-133889294D01*
X122024866Y-134074866D01*
X121839294Y-134300986D01*
X121701401Y-134558966D01*
X121616487Y-134838889D01*
X121595000Y-135057050D01*
X118638452Y-135057050D01*
X120740837Y-132954665D01*
X131725000Y-132954665D01*
X131725000Y-133237335D01*
X131780147Y-133514574D01*
X131888320Y-133775727D01*
X132045363Y-134010759D01*
X132245241Y-134210637D01*
X132480273Y-134367680D01*
X132741426Y-134475853D01*
X133018665Y-134531000D01*
X133301335Y-134531000D01*
X133578574Y-134475853D01*
X133839727Y-134367680D01*
X134074759Y-134210637D01*
X134274637Y-134010759D01*
X134431680Y-133775727D01*
X134539853Y-133514574D01*
X134595000Y-133237335D01*
X134595000Y-132954665D01*
X134539853Y-132677426D01*
X134431680Y-132416273D01*
X134274637Y-132181241D01*
X134074759Y-131981363D01*
X133839727Y-131824320D01*
X133578574Y-131716147D01*
X133301335Y-131661000D01*
X133018665Y-131661000D01*
X132741426Y-131716147D01*
X132480273Y-131824320D01*
X132245241Y-131981363D01*
X132045363Y-132181241D01*
X131888320Y-132416273D01*
X131780147Y-132677426D01*
X131725000Y-132954665D01*
X120740837Y-132954665D01*
X134649303Y-119046199D01*
X134678301Y-119022401D01*
X134773274Y-118906676D01*
X134843846Y-118774647D01*
X134887303Y-118631386D01*
X134898300Y-118519733D01*
X134898300Y-118519725D01*
X134901976Y-118482400D01*
X134898300Y-118445075D01*
X134898300Y-110412496D01*
X135053000Y-110427733D01*
X135285300Y-110404853D01*
X135508674Y-110337094D01*
X135714536Y-110227058D01*
X135894975Y-110078975D01*
X136043058Y-109898536D01*
X136153094Y-109692674D01*
X136220853Y-109469300D01*
X136238000Y-109295207D01*
X136238000Y-107778793D01*
X136228239Y-107679694D01*
X136299052Y-107751734D01*
X136492187Y-107883196D01*
X136707258Y-107974454D01*
X136936000Y-108022000D01*
X137636000Y-108022000D01*
X137636000Y-106964000D01*
X136044639Y-106964000D01*
X135964876Y-107080199D01*
X135894975Y-106995025D01*
X135714535Y-106846942D01*
X135508673Y-106736906D01*
X135285299Y-106669147D01*
X135053000Y-106646267D01*
X134898300Y-106661504D01*
X134898300Y-104812501D01*
X136135743Y-103575059D01*
X136221025Y-103678975D01*
X136376695Y-103806730D01*
X136301464Y-103846942D01*
X136121025Y-103995025D01*
X135972942Y-104175464D01*
X135862906Y-104381326D01*
X135795147Y-104604700D01*
X135772267Y-104837000D01*
X135795147Y-105069300D01*
X135862906Y-105292674D01*
X135972942Y-105498536D01*
X136121025Y-105678975D01*
X136301464Y-105827058D01*
X136378461Y-105868214D01*
X136299052Y-105922266D01*
X136135275Y-106088881D01*
X136007150Y-106284246D01*
X135919601Y-106500853D01*
X135919197Y-106527256D01*
X136044639Y-106710000D01*
X137636000Y-106710000D01*
X137636000Y-106690000D01*
X137890000Y-106690000D01*
X137890000Y-106710000D01*
X137910000Y-106710000D01*
X137910000Y-106964000D01*
X137890000Y-106964000D01*
X137890000Y-108022000D01*
X138590000Y-108022000D01*
X138818742Y-107974454D01*
X139033813Y-107883196D01*
X139107700Y-107832903D01*
X139107701Y-128481067D01*
X139104024Y-128518400D01*
X139118698Y-128667385D01*
X139162154Y-128810646D01*
X139232726Y-128942676D01*
X139303901Y-129029402D01*
X139327700Y-129058401D01*
X139356698Y-129082199D01*
X142330551Y-132056053D01*
X142205363Y-132181241D01*
X142048320Y-132416273D01*
X141940147Y-132677426D01*
X141885000Y-132954665D01*
X141885000Y-133237335D01*
X141940147Y-133514574D01*
X142048320Y-133775727D01*
X142205363Y-134010759D01*
X142405241Y-134210637D01*
X142640273Y-134367680D01*
X142901426Y-134475853D01*
X143018715Y-134499184D01*
X142808998Y-134708901D01*
X142780000Y-134732699D01*
X142756202Y-134761697D01*
X142756201Y-134761698D01*
X142685026Y-134848424D01*
X142614454Y-134980454D01*
X142584180Y-135080258D01*
X142570998Y-135123714D01*
X142565843Y-135176052D01*
X142405241Y-135283363D01*
X142205363Y-135483241D01*
X142048320Y-135718273D01*
X141940147Y-135979426D01*
X141885000Y-136256665D01*
X141885000Y-136539335D01*
X141940147Y-136816574D01*
X142048320Y-137077727D01*
X142205363Y-137312759D01*
X142405241Y-137512637D01*
X142640273Y-137669680D01*
X142901426Y-137777853D01*
X143178665Y-137833000D01*
X143461335Y-137833000D01*
X143738574Y-137777853D01*
X143999727Y-137669680D01*
X144234759Y-137512637D01*
X144434637Y-137312759D01*
X144591680Y-137077727D01*
X144699853Y-136816574D01*
X144755000Y-136539335D01*
X144755000Y-136256665D01*
X144699853Y-135979426D01*
X144591680Y-135718273D01*
X144434637Y-135483241D01*
X144309449Y-135358053D01*
X144956304Y-134711198D01*
X144985301Y-134687401D01*
X145080274Y-134571676D01*
X145150846Y-134439647D01*
X145194303Y-134296386D01*
X145205300Y-134184733D01*
X145205300Y-134184732D01*
X145208977Y-134147400D01*
X145205300Y-134110067D01*
X145205300Y-130880222D01*
X145208976Y-130842899D01*
X145205300Y-130805576D01*
X145205300Y-130805567D01*
X145194303Y-130693914D01*
X145150846Y-130550653D01*
X145080274Y-130418624D01*
X144985301Y-130302899D01*
X144956303Y-130279101D01*
X141078100Y-126400899D01*
X141078100Y-109994378D01*
X141313426Y-110091853D01*
X141590665Y-110147000D01*
X141873335Y-110147000D01*
X142150574Y-110091853D01*
X142411727Y-109983680D01*
X142646759Y-109826637D01*
X142846637Y-109626759D01*
X143003680Y-109391727D01*
X143111853Y-109130574D01*
X143167000Y-108853335D01*
X143167000Y-108570665D01*
X143111853Y-108293426D01*
X143003680Y-108032273D01*
X142846637Y-107797241D01*
X142646759Y-107597363D01*
X142411727Y-107440320D01*
X142150574Y-107332147D01*
X141873335Y-107277000D01*
X141753500Y-107277000D01*
X141753500Y-106935118D01*
X141867088Y-106982168D01*
X142182967Y-107045000D01*
X142505033Y-107045000D01*
X142820912Y-106982168D01*
X143118463Y-106858918D01*
X143386252Y-106679987D01*
X143613987Y-106452252D01*
X143792918Y-106184463D01*
X143916168Y-105886912D01*
X143979000Y-105571033D01*
X143979000Y-105248967D01*
X143916168Y-104933088D01*
X143792918Y-104635537D01*
X143613987Y-104367748D01*
X143386252Y-104140013D01*
X143118463Y-103961082D01*
X142820912Y-103837832D01*
X142505033Y-103775000D01*
X142182967Y-103775000D01*
X141867088Y-103837832D01*
X141753500Y-103884882D01*
X141753500Y-102440940D01*
X141773571Y-102450704D01*
X142085108Y-102532384D01*
X142406595Y-102551718D01*
X142725675Y-102507961D01*
X143030088Y-102402795D01*
X143204044Y-102309814D01*
X143299808Y-102045413D01*
X142344000Y-101089605D01*
X142329858Y-101103748D01*
X142150253Y-100924143D01*
X142164395Y-100910000D01*
X142523605Y-100910000D01*
X143479413Y-101865808D01*
X143743814Y-101770044D01*
X143884704Y-101480429D01*
X143966384Y-101168892D01*
X143985718Y-100847405D01*
X143941961Y-100528325D01*
X143836795Y-100223912D01*
X143743814Y-100049956D01*
X143479413Y-99954192D01*
X142523605Y-100910000D01*
X142164395Y-100910000D01*
X142150253Y-100895858D01*
X142329858Y-100716253D01*
X142344000Y-100730395D01*
X143299808Y-99774587D01*
X143204044Y-99510186D01*
X142914429Y-99369296D01*
X142602892Y-99287616D01*
X142281405Y-99268282D01*
X141962325Y-99312039D01*
X141753500Y-99384182D01*
X141753500Y-98036301D01*
X142370359Y-97419443D01*
X142400329Y-97475514D01*
X142644298Y-97547097D01*
X143457395Y-96734000D01*
X143443253Y-96719858D01*
X143622858Y-96540253D01*
X143637000Y-96554395D01*
X143651143Y-96540253D01*
X143830748Y-96719858D01*
X143816605Y-96734000D01*
X143830748Y-96748143D01*
X143651143Y-96927748D01*
X143637000Y-96913605D01*
X142823903Y-97726702D01*
X142895486Y-97970671D01*
X143150996Y-98091571D01*
X143425184Y-98160300D01*
X143707512Y-98174217D01*
X143987130Y-98132787D01*
X144002401Y-98127326D01*
X144002400Y-103249978D01*
X143998724Y-103287300D01*
X144002400Y-103324622D01*
X144002400Y-103324632D01*
X144013397Y-103436285D01*
X144040585Y-103525912D01*
X144056854Y-103579546D01*
X144127426Y-103711576D01*
X144145848Y-103734023D01*
X144222399Y-103827301D01*
X144251403Y-103851104D01*
X158922606Y-118522308D01*
X158903518Y-118524188D01*
X158783820Y-118560498D01*
X158673506Y-118619463D01*
X158576815Y-118698815D01*
X158497463Y-118795506D01*
X158438498Y-118905820D01*
X158402188Y-119025518D01*
X158389928Y-119150000D01*
X158389928Y-122150000D01*
X158402188Y-122274482D01*
X158438498Y-122394180D01*
X158497463Y-122504494D01*
X158576815Y-122601185D01*
X158673506Y-122680537D01*
X158783820Y-122739502D01*
X158903518Y-122775812D01*
X159028000Y-122788072D01*
X162028000Y-122788072D01*
X162152482Y-122775812D01*
X162272180Y-122739502D01*
X162382494Y-122680537D01*
X162479185Y-122601185D01*
X162558537Y-122504494D01*
X162617502Y-122394180D01*
X162653812Y-122274482D01*
X162666072Y-122150000D01*
X162666072Y-119150000D01*
X162653812Y-119025518D01*
X162617502Y-118905820D01*
X162558537Y-118795506D01*
X162479185Y-118698815D01*
X162382494Y-118619463D01*
X162272180Y-118560498D01*
X162152482Y-118524188D01*
X162028000Y-118511928D01*
X161222575Y-118511928D01*
X161162974Y-118400424D01*
X161068001Y-118284699D01*
X160952276Y-118189726D01*
X160820247Y-118119154D01*
X160676986Y-118075697D01*
X160619985Y-118070083D01*
X152544754Y-109994853D01*
X152571727Y-109983680D01*
X152806759Y-109826637D01*
X153006637Y-109626759D01*
X153163680Y-109391727D01*
X153271853Y-109130574D01*
X153327000Y-108853335D01*
X153327000Y-108570665D01*
X153271853Y-108293426D01*
X153163680Y-108032273D01*
X153006637Y-107797241D01*
X152806759Y-107597363D01*
X152646158Y-107490053D01*
X152641003Y-107437714D01*
X152617530Y-107360332D01*
X153477823Y-108220625D01*
X153471832Y-108235088D01*
X153409000Y-108550967D01*
X153409000Y-108873033D01*
X153471832Y-109188912D01*
X153595082Y-109486463D01*
X153774013Y-109754252D01*
X154001748Y-109981987D01*
X154269537Y-110160918D01*
X154567088Y-110284168D01*
X154882967Y-110347000D01*
X155205033Y-110347000D01*
X155520912Y-110284168D01*
X155818463Y-110160918D01*
X156086252Y-109981987D01*
X156313987Y-109754252D01*
X156492918Y-109486463D01*
X156616168Y-109188912D01*
X156679000Y-108873033D01*
X156679000Y-108550967D01*
X156616168Y-108235088D01*
X156492918Y-107937537D01*
X156313987Y-107669748D01*
X156086252Y-107442013D01*
X155818463Y-107263082D01*
X155520912Y-107139832D01*
X155205033Y-107077000D01*
X154882967Y-107077000D01*
X154567088Y-107139832D01*
X154552625Y-107145823D01*
X152754215Y-105347413D01*
X154088192Y-105347413D01*
X154183956Y-105611814D01*
X154473571Y-105752704D01*
X154785108Y-105834384D01*
X155106595Y-105853718D01*
X155425675Y-105809961D01*
X155730088Y-105704795D01*
X155904044Y-105611814D01*
X155999808Y-105347413D01*
X160588192Y-105347413D01*
X160683956Y-105611814D01*
X160973571Y-105752704D01*
X161285108Y-105834384D01*
X161606595Y-105853718D01*
X161925675Y-105809961D01*
X162230088Y-105704795D01*
X162404044Y-105611814D01*
X162499808Y-105347413D01*
X161544000Y-104391605D01*
X160588192Y-105347413D01*
X155999808Y-105347413D01*
X155044000Y-104391605D01*
X154088192Y-105347413D01*
X152754215Y-105347413D01*
X152398000Y-104991199D01*
X152398000Y-104274595D01*
X153402282Y-104274595D01*
X153446039Y-104593675D01*
X153551205Y-104898088D01*
X153644186Y-105072044D01*
X153908587Y-105167808D01*
X154864395Y-104212000D01*
X155223605Y-104212000D01*
X156179413Y-105167808D01*
X156443814Y-105072044D01*
X156584704Y-104782429D01*
X156666384Y-104470892D01*
X156678189Y-104274595D01*
X159902282Y-104274595D01*
X159946039Y-104593675D01*
X160051205Y-104898088D01*
X160144186Y-105072044D01*
X160408587Y-105167808D01*
X161364395Y-104212000D01*
X160408587Y-103256192D01*
X160144186Y-103351956D01*
X160003296Y-103641571D01*
X159921616Y-103953108D01*
X159902282Y-104274595D01*
X156678189Y-104274595D01*
X156685718Y-104149405D01*
X156641961Y-103830325D01*
X156536795Y-103525912D01*
X156443814Y-103351956D01*
X156179413Y-103256192D01*
X155223605Y-104212000D01*
X154864395Y-104212000D01*
X153908587Y-103256192D01*
X153644186Y-103351956D01*
X153503296Y-103641571D01*
X153421616Y-103953108D01*
X153402282Y-104274595D01*
X152398000Y-104274595D01*
X152398000Y-103076587D01*
X154088192Y-103076587D01*
X155044000Y-104032395D01*
X155999808Y-103076587D01*
X160588192Y-103076587D01*
X161544000Y-104032395D01*
X162499808Y-103076587D01*
X162404044Y-102812186D01*
X162114429Y-102671296D01*
X161802892Y-102589616D01*
X161481405Y-102570282D01*
X161162325Y-102614039D01*
X160857912Y-102719205D01*
X160683956Y-102812186D01*
X160588192Y-103076587D01*
X155999808Y-103076587D01*
X155904044Y-102812186D01*
X155614429Y-102671296D01*
X155302892Y-102589616D01*
X154981405Y-102570282D01*
X154662325Y-102614039D01*
X154357912Y-102719205D01*
X154183956Y-102812186D01*
X154088192Y-103076587D01*
X152398000Y-103076587D01*
X152398000Y-102310043D01*
X152552759Y-102206637D01*
X152752637Y-102006759D01*
X152909680Y-101771727D01*
X153017853Y-101510574D01*
X153073000Y-101233335D01*
X153073000Y-100950665D01*
X153017853Y-100673426D01*
X152909680Y-100412273D01*
X152752637Y-100177241D01*
X152552759Y-99977363D01*
X152317727Y-99820320D01*
X152056574Y-99712147D01*
X151779335Y-99657000D01*
X151496665Y-99657000D01*
X151219426Y-99712147D01*
X150958273Y-99820320D01*
X150723241Y-99977363D01*
X150523363Y-100177241D01*
X150389753Y-100377203D01*
X150336795Y-100223912D01*
X150243814Y-100049956D01*
X149979413Y-99954192D01*
X149023605Y-100910000D01*
X149979413Y-101865808D01*
X150243814Y-101770044D01*
X150309605Y-101634804D01*
X150366320Y-101771727D01*
X150523363Y-102006759D01*
X150723241Y-102206637D01*
X150878001Y-102310044D01*
X150878000Y-105268677D01*
X150874324Y-105306000D01*
X150878000Y-105343322D01*
X150878000Y-105343332D01*
X150888997Y-105454985D01*
X150920545Y-105558985D01*
X150932454Y-105598246D01*
X151003026Y-105730276D01*
X151042871Y-105778826D01*
X151097999Y-105846001D01*
X151127003Y-105869804D01*
X152118369Y-106861170D01*
X152040986Y-106837697D01*
X151929333Y-106826700D01*
X151892000Y-106823023D01*
X151854667Y-106826700D01*
X151335502Y-106826700D01*
X150410177Y-105901376D01*
X150416168Y-105886912D01*
X150479000Y-105571033D01*
X150479000Y-105248967D01*
X150416168Y-104933088D01*
X150292918Y-104635537D01*
X150113987Y-104367748D01*
X149886252Y-104140013D01*
X149618463Y-103961082D01*
X149320912Y-103837832D01*
X149005033Y-103775000D01*
X148682967Y-103775000D01*
X148367088Y-103837832D01*
X148069537Y-103961082D01*
X147801748Y-104140013D01*
X147574013Y-104367748D01*
X147395082Y-104635537D01*
X147333679Y-104783777D01*
X145522400Y-102972499D01*
X145522400Y-102045413D01*
X147888192Y-102045413D01*
X147983956Y-102309814D01*
X148273571Y-102450704D01*
X148585108Y-102532384D01*
X148906595Y-102551718D01*
X149225675Y-102507961D01*
X149530088Y-102402795D01*
X149704044Y-102309814D01*
X149799808Y-102045413D01*
X148844000Y-101089605D01*
X147888192Y-102045413D01*
X145522400Y-102045413D01*
X145522400Y-100972595D01*
X147202282Y-100972595D01*
X147246039Y-101291675D01*
X147351205Y-101596088D01*
X147444186Y-101770044D01*
X147708587Y-101865808D01*
X148664395Y-100910000D01*
X147708587Y-99954192D01*
X147444186Y-100049956D01*
X147303296Y-100339571D01*
X147221616Y-100651108D01*
X147202282Y-100972595D01*
X145522400Y-100972595D01*
X145522400Y-99774587D01*
X147888192Y-99774587D01*
X148844000Y-100730395D01*
X149799808Y-99774587D01*
X149704044Y-99510186D01*
X149414429Y-99369296D01*
X149102892Y-99287616D01*
X148781405Y-99268282D01*
X148462325Y-99312039D01*
X148157912Y-99417205D01*
X147983956Y-99510186D01*
X147888192Y-99774587D01*
X145522400Y-99774587D01*
X145522400Y-96281000D01*
X150159928Y-96281000D01*
X150172188Y-96405482D01*
X150208498Y-96525180D01*
X150267463Y-96635494D01*
X150346815Y-96732185D01*
X150443506Y-96811537D01*
X150553820Y-96870502D01*
X150673518Y-96906812D01*
X150798000Y-96919072D01*
X151162250Y-96916000D01*
X151321000Y-96757250D01*
X151321000Y-95758000D01*
X150321750Y-95758000D01*
X150163000Y-95916750D01*
X150159928Y-96281000D01*
X145522400Y-96281000D01*
X145522400Y-94981000D01*
X150159928Y-94981000D01*
X150163000Y-95345250D01*
X150321750Y-95504000D01*
X151321000Y-95504000D01*
X151321000Y-95484000D01*
X151575000Y-95484000D01*
X151575000Y-95504000D01*
X151595000Y-95504000D01*
X151595000Y-95758000D01*
X151575000Y-95758000D01*
X151575000Y-96757250D01*
X151733750Y-96916000D01*
X152098000Y-96919072D01*
X152222482Y-96906812D01*
X152342180Y-96870502D01*
X152452494Y-96811537D01*
X152549185Y-96732185D01*
X152628537Y-96635494D01*
X152687502Y-96525180D01*
X152723812Y-96405482D01*
X152736072Y-96281000D01*
X152733000Y-95916750D01*
X152574252Y-95758002D01*
X152703088Y-95758002D01*
X152752381Y-96005821D01*
X152849247Y-96239676D01*
X152989875Y-96450140D01*
X153168860Y-96629125D01*
X153379324Y-96769753D01*
X153613179Y-96866619D01*
X153861439Y-96916000D01*
X154114561Y-96916000D01*
X154362821Y-96866619D01*
X154596676Y-96769753D01*
X154807140Y-96629125D01*
X154986125Y-96450140D01*
X155126753Y-96239676D01*
X155223619Y-96005821D01*
X155273000Y-95757561D01*
X155273000Y-95504439D01*
X155223619Y-95256179D01*
X155126753Y-95022324D01*
X154986125Y-94811860D01*
X154807140Y-94632875D01*
X154596676Y-94492247D01*
X154362821Y-94395381D01*
X154114561Y-94346000D01*
X154003000Y-94346000D01*
X154003000Y-94234439D01*
X153953619Y-93986179D01*
X153856753Y-93752324D01*
X153716125Y-93541860D01*
X153537140Y-93362875D01*
X153326676Y-93222247D01*
X153092821Y-93125381D01*
X152844561Y-93076000D01*
X152591439Y-93076000D01*
X152343179Y-93125381D01*
X152109324Y-93222247D01*
X151898860Y-93362875D01*
X151719875Y-93541860D01*
X151579247Y-93752324D01*
X151482381Y-93986179D01*
X151433000Y-94234439D01*
X151433000Y-94346000D01*
X151320998Y-94346000D01*
X151320998Y-94504748D01*
X151162250Y-94346000D01*
X150798000Y-94342928D01*
X150673518Y-94355188D01*
X150553820Y-94391498D01*
X150443506Y-94450463D01*
X150346815Y-94529815D01*
X150267463Y-94626506D01*
X150208498Y-94736820D01*
X150172188Y-94856518D01*
X150159928Y-94981000D01*
X145522400Y-94981000D01*
X145522400Y-93272523D01*
X145526076Y-93235200D01*
X145522400Y-93197877D01*
X145522400Y-93197867D01*
X145511403Y-93086214D01*
X145467946Y-92942953D01*
X145397374Y-92810924D01*
X145302401Y-92695199D01*
X145273403Y-92671401D01*
X144244001Y-91642000D01*
X159178200Y-91642000D01*
X158974793Y-91777912D01*
X158579912Y-92172793D01*
X158269656Y-92637124D01*
X158055948Y-93153061D01*
X157947000Y-93700777D01*
X157947000Y-94259223D01*
X158055948Y-94806939D01*
X158269656Y-95322876D01*
X158579912Y-95787207D01*
X158974793Y-96182088D01*
X159439124Y-96492344D01*
X159955061Y-96706052D01*
X160502777Y-96815000D01*
X161061223Y-96815000D01*
X161608939Y-96706052D01*
X162124876Y-96492344D01*
X162589207Y-96182088D01*
X162984088Y-95787207D01*
X163120001Y-95583799D01*
X163120001Y-100533758D01*
X163069680Y-100412273D01*
X162912637Y-100177241D01*
X162712759Y-99977363D01*
X162477727Y-99820320D01*
X162216574Y-99712147D01*
X161939335Y-99657000D01*
X161656665Y-99657000D01*
X161379426Y-99712147D01*
X161118273Y-99820320D01*
X160883241Y-99977363D01*
X160683363Y-100177241D01*
X160526320Y-100412273D01*
X160418147Y-100673426D01*
X160363000Y-100950665D01*
X160363000Y-101233335D01*
X160418147Y-101510574D01*
X160526320Y-101771727D01*
X160683363Y-102006759D01*
X160883241Y-102206637D01*
X161118273Y-102363680D01*
X161379426Y-102471853D01*
X161656665Y-102527000D01*
X161939335Y-102527000D01*
X162216574Y-102471853D01*
X162477727Y-102363680D01*
X162712759Y-102206637D01*
X162912637Y-102006759D01*
X163069680Y-101771727D01*
X163120001Y-101650242D01*
X163120001Y-103766759D01*
X163036795Y-103525912D01*
X162943814Y-103351956D01*
X162679413Y-103256192D01*
X161723605Y-104212000D01*
X162679413Y-105167808D01*
X162943814Y-105072044D01*
X163084704Y-104782429D01*
X163120001Y-104647803D01*
X163120001Y-108254356D01*
X163116168Y-108235088D01*
X162992918Y-107937537D01*
X162813987Y-107669748D01*
X162586252Y-107442013D01*
X162318463Y-107263082D01*
X162020912Y-107139832D01*
X161705033Y-107077000D01*
X161382967Y-107077000D01*
X161067088Y-107139832D01*
X160769537Y-107263082D01*
X160501748Y-107442013D01*
X160274013Y-107669748D01*
X160095082Y-107937537D01*
X159971832Y-108235088D01*
X159909000Y-108550967D01*
X159909000Y-108873033D01*
X159971832Y-109188912D01*
X160095082Y-109486463D01*
X160274013Y-109754252D01*
X160501748Y-109981987D01*
X160769537Y-110160918D01*
X161067088Y-110284168D01*
X161382967Y-110347000D01*
X161705033Y-110347000D01*
X162020912Y-110284168D01*
X162318463Y-110160918D01*
X162586252Y-109981987D01*
X162813987Y-109754252D01*
X162992918Y-109486463D01*
X163116168Y-109188912D01*
X163120001Y-109169644D01*
X163120000Y-134286200D01*
X162984088Y-134082793D01*
X162589207Y-133687912D01*
X162124876Y-133377656D01*
X161608939Y-133163948D01*
X161061223Y-133055000D01*
X160502777Y-133055000D01*
X159955061Y-133163948D01*
X159439124Y-133377656D01*
X158974793Y-133687912D01*
X158579912Y-134082793D01*
X158269656Y-134547124D01*
X158055948Y-135063061D01*
X157947000Y-135610777D01*
X157947000Y-136169223D01*
X158055948Y-136716939D01*
X158269656Y-137232876D01*
X158579912Y-137697207D01*
X158974793Y-138092088D01*
X159178200Y-138228000D01*
X90757800Y-138228000D01*
X90961207Y-138092088D01*
X91356088Y-137697207D01*
X91666344Y-137232876D01*
X91880052Y-136716939D01*
X91989000Y-136169223D01*
X91989000Y-135610777D01*
X91880052Y-135063061D01*
X91666344Y-134547124D01*
X91356088Y-134082793D01*
X90961207Y-133687912D01*
X90496876Y-133377656D01*
X89980939Y-133163948D01*
X89433223Y-133055000D01*
X88874777Y-133055000D01*
X88327061Y-133163948D01*
X87811124Y-133377656D01*
X87346793Y-133687912D01*
X86951912Y-134082793D01*
X86816000Y-134286200D01*
X86816000Y-132700665D01*
X93307000Y-132700665D01*
X93307000Y-132983335D01*
X93362147Y-133260574D01*
X93470320Y-133521727D01*
X93627363Y-133756759D01*
X93827241Y-133956637D01*
X94062273Y-134113680D01*
X94323426Y-134221853D01*
X94600665Y-134277000D01*
X94883335Y-134277000D01*
X95160574Y-134221853D01*
X95421727Y-134113680D01*
X95656759Y-133956637D01*
X95856637Y-133756759D01*
X96013680Y-133521727D01*
X96121853Y-133260574D01*
X96177000Y-132983335D01*
X96177000Y-132700665D01*
X96121853Y-132423426D01*
X96013680Y-132162273D01*
X95856637Y-131927241D01*
X95656759Y-131727363D01*
X95421727Y-131570320D01*
X95160574Y-131462147D01*
X94883335Y-131407000D01*
X94600665Y-131407000D01*
X94323426Y-131462147D01*
X94062273Y-131570320D01*
X93827241Y-131727363D01*
X93627363Y-131927241D01*
X93470320Y-132162273D01*
X93362147Y-132423426D01*
X93307000Y-132700665D01*
X86816000Y-132700665D01*
X86816000Y-120063250D01*
X87642000Y-120063250D01*
X87642000Y-121236749D01*
X87667553Y-121496195D01*
X87768535Y-121829088D01*
X87932521Y-122135883D01*
X88153208Y-122404792D01*
X88422116Y-122625479D01*
X88728911Y-122789465D01*
X89061804Y-122890447D01*
X89408000Y-122924544D01*
X89754195Y-122890447D01*
X90087088Y-122789465D01*
X90393883Y-122625479D01*
X90662792Y-122404792D01*
X90883479Y-122135884D01*
X91047465Y-121829089D01*
X91080311Y-121720812D01*
X106014501Y-136655003D01*
X106038299Y-136684001D01*
X106067297Y-136707799D01*
X106150629Y-136776189D01*
X106170320Y-136823727D01*
X106327363Y-137058759D01*
X106527241Y-137258637D01*
X106762273Y-137415680D01*
X107023426Y-137523853D01*
X107300665Y-137579000D01*
X107583335Y-137579000D01*
X107860574Y-137523853D01*
X108121727Y-137415680D01*
X108356759Y-137258637D01*
X108556637Y-137058759D01*
X108713680Y-136823727D01*
X108821853Y-136562574D01*
X108877000Y-136285335D01*
X108877000Y-136002665D01*
X108821853Y-135725426D01*
X108713680Y-135464273D01*
X108556637Y-135229241D01*
X108356759Y-135029363D01*
X108121727Y-134872320D01*
X107860574Y-134764147D01*
X107583335Y-134709000D01*
X107300665Y-134709000D01*
X107023426Y-134764147D01*
X106762273Y-134872320D01*
X106533969Y-135024867D01*
X105607189Y-134098087D01*
X105643514Y-134078671D01*
X105715097Y-133834702D01*
X104902000Y-133021605D01*
X104887858Y-133035748D01*
X104708253Y-132856143D01*
X104722395Y-132842000D01*
X103909298Y-132028903D01*
X103665329Y-132100486D01*
X103647425Y-132138324D01*
X103358399Y-131849298D01*
X104088903Y-131849298D01*
X104902000Y-132662395D01*
X105715097Y-131849298D01*
X105643514Y-131605329D01*
X105388004Y-131484429D01*
X105113816Y-131415700D01*
X104831488Y-131401783D01*
X104551870Y-131443213D01*
X104285708Y-131538397D01*
X104160486Y-131605329D01*
X104088903Y-131849298D01*
X103358399Y-131849298D01*
X91647300Y-120138199D01*
X91647300Y-111072923D01*
X91650976Y-111035600D01*
X91647300Y-110998277D01*
X91647300Y-110998267D01*
X91636303Y-110886614D01*
X91592846Y-110743353D01*
X91592124Y-110742003D01*
X91522274Y-110611323D01*
X91451099Y-110524597D01*
X91427301Y-110495599D01*
X91398303Y-110471801D01*
X90930524Y-110004023D01*
X91013185Y-109936185D01*
X91092537Y-109839494D01*
X91151502Y-109729180D01*
X91187812Y-109609482D01*
X91200072Y-109485000D01*
X91200072Y-107685000D01*
X91187812Y-107560518D01*
X91151502Y-107440820D01*
X91146472Y-107431408D01*
X93345000Y-107431408D01*
X93345000Y-107706592D01*
X93398686Y-107976490D01*
X93503995Y-108230727D01*
X93656880Y-108459535D01*
X93851465Y-108654120D01*
X94080273Y-108807005D01*
X94334510Y-108912314D01*
X94604408Y-108966000D01*
X94879592Y-108966000D01*
X95149490Y-108912314D01*
X95325603Y-108839365D01*
X116816040Y-108839365D01*
X116883020Y-109079456D01*
X117132048Y-109196556D01*
X117399135Y-109262823D01*
X117674017Y-109275710D01*
X117946133Y-109234722D01*
X118205023Y-109141436D01*
X118320980Y-109079456D01*
X118387960Y-108839365D01*
X117602000Y-108053405D01*
X116816040Y-108839365D01*
X95325603Y-108839365D01*
X95403727Y-108807005D01*
X95632535Y-108654120D01*
X95827120Y-108459535D01*
X95980005Y-108230727D01*
X96085314Y-107976490D01*
X96091415Y-107945817D01*
X116200090Y-107945817D01*
X116241078Y-108217933D01*
X116334364Y-108476823D01*
X116396344Y-108592780D01*
X116636435Y-108659760D01*
X117422395Y-107873800D01*
X117781605Y-107873800D01*
X118567565Y-108659760D01*
X118807656Y-108592780D01*
X118924756Y-108343752D01*
X118991023Y-108076665D01*
X119003910Y-107801783D01*
X118962922Y-107529667D01*
X118869636Y-107270777D01*
X118807656Y-107154820D01*
X118567565Y-107087840D01*
X117781605Y-107873800D01*
X117422395Y-107873800D01*
X116636435Y-107087840D01*
X116396344Y-107154820D01*
X116279244Y-107403848D01*
X116212977Y-107670935D01*
X116200090Y-107945817D01*
X96091415Y-107945817D01*
X96139000Y-107706592D01*
X96139000Y-107431408D01*
X96085314Y-107161510D01*
X95980404Y-106908235D01*
X116816040Y-106908235D01*
X117602000Y-107694195D01*
X118387960Y-106908235D01*
X118320980Y-106668144D01*
X118071952Y-106551044D01*
X117804865Y-106484777D01*
X117529983Y-106471890D01*
X117257867Y-106512878D01*
X116998977Y-106606164D01*
X116883020Y-106668144D01*
X116816040Y-106908235D01*
X95980404Y-106908235D01*
X95980005Y-106907273D01*
X95827120Y-106678465D01*
X95632535Y-106483880D01*
X95403727Y-106330995D01*
X95149490Y-106225686D01*
X94879592Y-106172000D01*
X94604408Y-106172000D01*
X94334510Y-106225686D01*
X94080273Y-106330995D01*
X93851465Y-106483880D01*
X93656880Y-106678465D01*
X93503995Y-106907273D01*
X93398686Y-107161510D01*
X93345000Y-107431408D01*
X91146472Y-107431408D01*
X91092537Y-107330506D01*
X91013185Y-107233815D01*
X90916494Y-107154463D01*
X90806180Y-107095498D01*
X90686482Y-107059188D01*
X90562000Y-107046928D01*
X88762000Y-107046928D01*
X88637518Y-107059188D01*
X88517820Y-107095498D01*
X88407506Y-107154463D01*
X88310815Y-107233815D01*
X88231463Y-107330506D01*
X88172498Y-107440820D01*
X88136188Y-107560518D01*
X88123928Y-107685000D01*
X88123928Y-109485000D01*
X88136188Y-109609482D01*
X88172498Y-109729180D01*
X88231463Y-109839494D01*
X88310815Y-109936185D01*
X88407506Y-110015537D01*
X88517820Y-110074502D01*
X88637518Y-110110812D01*
X88762000Y-110123072D01*
X88967425Y-110123072D01*
X89027026Y-110234576D01*
X89098201Y-110321302D01*
X89122000Y-110350301D01*
X89150998Y-110374099D01*
X90127301Y-111350403D01*
X90127300Y-118532028D01*
X90087089Y-118510535D01*
X89754196Y-118409553D01*
X89408000Y-118375456D01*
X89061805Y-118409553D01*
X88728912Y-118510535D01*
X88422117Y-118674521D01*
X88153209Y-118895208D01*
X87932522Y-119164116D01*
X87768535Y-119470911D01*
X87667553Y-119803804D01*
X87642000Y-120063250D01*
X86816000Y-120063250D01*
X86816000Y-104891408D01*
X116205000Y-104891408D01*
X116205000Y-105166592D01*
X116258686Y-105436490D01*
X116363995Y-105690727D01*
X116516880Y-105919535D01*
X116711465Y-106114120D01*
X116940273Y-106267005D01*
X117194510Y-106372314D01*
X117464408Y-106426000D01*
X117739592Y-106426000D01*
X118009490Y-106372314D01*
X118263727Y-106267005D01*
X118492535Y-106114120D01*
X118687120Y-105919535D01*
X118840005Y-105690727D01*
X118945314Y-105436490D01*
X118999000Y-105166592D01*
X118999000Y-104891408D01*
X118945314Y-104621510D01*
X118840005Y-104367273D01*
X118687120Y-104138465D01*
X118492535Y-103943880D01*
X118263727Y-103790995D01*
X118009490Y-103685686D01*
X117739592Y-103632000D01*
X117464408Y-103632000D01*
X117194510Y-103685686D01*
X116940273Y-103790995D01*
X116711465Y-103943880D01*
X116516880Y-104138465D01*
X116363995Y-104367273D01*
X116258686Y-104621510D01*
X116205000Y-104891408D01*
X86816000Y-104891408D01*
X86816000Y-100813816D01*
X88127000Y-100813816D01*
X88127000Y-101116184D01*
X88185989Y-101412743D01*
X88301701Y-101692095D01*
X88469688Y-101943505D01*
X88683495Y-102157312D01*
X88934905Y-102325299D01*
X89214257Y-102441011D01*
X89510816Y-102500000D01*
X89813184Y-102500000D01*
X90109743Y-102441011D01*
X90389095Y-102325299D01*
X90640505Y-102157312D01*
X90854312Y-101943505D01*
X91022299Y-101692095D01*
X91138011Y-101412743D01*
X91197000Y-101116184D01*
X91197000Y-100813816D01*
X91138011Y-100517257D01*
X91022299Y-100237905D01*
X90854312Y-99986495D01*
X90640505Y-99772688D01*
X90389095Y-99604701D01*
X90109743Y-99488989D01*
X89813184Y-99430000D01*
X89510816Y-99430000D01*
X89214257Y-99488989D01*
X88934905Y-99604701D01*
X88683495Y-99772688D01*
X88469688Y-99986495D01*
X88301701Y-100237905D01*
X88185989Y-100517257D01*
X88127000Y-100813816D01*
X86816000Y-100813816D01*
X86816000Y-95583800D01*
X86951912Y-95787207D01*
X87346793Y-96182088D01*
X87811124Y-96492344D01*
X88327061Y-96706052D01*
X88874777Y-96815000D01*
X89433223Y-96815000D01*
X89980939Y-96706052D01*
X90496876Y-96492344D01*
X90961207Y-96182088D01*
X91356088Y-95787207D01*
X91666344Y-95322876D01*
X91880052Y-94806939D01*
X91895076Y-94731408D01*
X93345000Y-94731408D01*
X93345000Y-95006592D01*
X93398686Y-95276490D01*
X93503995Y-95530727D01*
X93656880Y-95759535D01*
X93851465Y-95954120D01*
X94080273Y-96107005D01*
X94334510Y-96212314D01*
X94604408Y-96266000D01*
X94879592Y-96266000D01*
X95149490Y-96212314D01*
X95403727Y-96107005D01*
X95632535Y-95954120D01*
X95827120Y-95759535D01*
X95980005Y-95530727D01*
X96085314Y-95276490D01*
X96139000Y-95006592D01*
X96139000Y-94731408D01*
X96085314Y-94461510D01*
X96070858Y-94426608D01*
X116205000Y-94426608D01*
X116205000Y-94701792D01*
X116258686Y-94971690D01*
X116363995Y-95225927D01*
X116516880Y-95454735D01*
X116711465Y-95649320D01*
X116940273Y-95802205D01*
X117194510Y-95907514D01*
X117464408Y-95961200D01*
X117739592Y-95961200D01*
X118009490Y-95907514D01*
X118263727Y-95802205D01*
X118492535Y-95649320D01*
X118687120Y-95454735D01*
X118840005Y-95225927D01*
X118945314Y-94971690D01*
X118999000Y-94701792D01*
X118999000Y-94426608D01*
X118945314Y-94156710D01*
X118840005Y-93902473D01*
X118687120Y-93673665D01*
X118492535Y-93479080D01*
X118263727Y-93326195D01*
X118009490Y-93220886D01*
X117739592Y-93167200D01*
X117464408Y-93167200D01*
X117194510Y-93220886D01*
X116940273Y-93326195D01*
X116711465Y-93479080D01*
X116516880Y-93673665D01*
X116363995Y-93902473D01*
X116258686Y-94156710D01*
X116205000Y-94426608D01*
X96070858Y-94426608D01*
X95980005Y-94207273D01*
X95827120Y-93978465D01*
X95632535Y-93783880D01*
X95403727Y-93630995D01*
X95149490Y-93525686D01*
X94879592Y-93472000D01*
X94604408Y-93472000D01*
X94334510Y-93525686D01*
X94080273Y-93630995D01*
X93851465Y-93783880D01*
X93656880Y-93978465D01*
X93503995Y-94207273D01*
X93398686Y-94461510D01*
X93345000Y-94731408D01*
X91895076Y-94731408D01*
X91989000Y-94259223D01*
X91989000Y-93700777D01*
X91880052Y-93153061D01*
X91666344Y-92637124D01*
X91356088Y-92172793D01*
X90961207Y-91777912D01*
X90757800Y-91642000D01*
X132721698Y-91642000D01*
X125362599Y-99001100D01*
M02*
