G04 #@! TF.GenerationSoftware,KiCad,Pcbnew,7.0.9*
G04 #@! TF.CreationDate,2024-03-14T23:24:22+01:00*
G04 #@! TF.ProjectId,ltl,6c746c2e-6b69-4636-9164-5f7063625858,rev?*
G04 #@! TF.SameCoordinates,Original*
G04 #@! TF.FileFunction,Soldermask,Top*
G04 #@! TF.FilePolarity,Negative*
%FSLAX46Y46*%
G04 Gerber Fmt 4.6, Leading zero omitted, Abs format (unit mm)*
G04 Created by KiCad (PCBNEW 7.0.9) date 2024-03-14 23:24:22*
%MOMM*%
%LPD*%
G01*
G04 APERTURE LIST*
G04 Aperture macros list*
%AMRoundRect*
0 Rectangle with rounded corners*
0 $1 Rounding radius*
0 $2 $3 $4 $5 $6 $7 $8 $9 X,Y pos of 4 corners*
0 Add a 4 corners polygon primitive as box body*
4,1,4,$2,$3,$4,$5,$6,$7,$8,$9,$2,$3,0*
0 Add four circle primitives for the rounded corners*
1,1,$1+$1,$2,$3*
1,1,$1+$1,$4,$5*
1,1,$1+$1,$6,$7*
1,1,$1+$1,$8,$9*
0 Add four rect primitives between the rounded corners*
20,1,$1+$1,$2,$3,$4,$5,0*
20,1,$1+$1,$4,$5,$6,$7,0*
20,1,$1+$1,$6,$7,$8,$9,0*
20,1,$1+$1,$8,$9,$2,$3,0*%
G04 Aperture macros list end*
%ADD10C,1.600000*%
%ADD11O,1.600000X1.600000*%
%ADD12R,0.450000X0.400000*%
%ADD13R,0.450000X0.500000*%
%ADD14R,1.600000X1.600000*%
%ADD15C,0.800000*%
%ADD16C,6.400000*%
%ADD17R,1.300000X1.300000*%
%ADD18C,1.300000*%
%ADD19RoundRect,0.150000X-0.512500X-0.150000X0.512500X-0.150000X0.512500X0.150000X-0.512500X0.150000X0*%
%ADD20C,2.000000*%
%ADD21R,1.500000X1.500000*%
%ADD22C,1.500000*%
%ADD23RoundRect,0.102000X3.730000X3.235000X-3.730000X3.235000X-3.730000X-3.235000X3.730000X-3.235000X0*%
%ADD24RoundRect,0.250001X-0.462499X-0.624999X0.462499X-0.624999X0.462499X0.624999X-0.462499X0.624999X0*%
%ADD25R,1.700000X1.700000*%
%ADD26O,1.700000X1.700000*%
%ADD27R,2.200000X0.600000*%
%ADD28R,2.150000X3.450000*%
%ADD29RoundRect,0.250000X-0.325000X-0.650000X0.325000X-0.650000X0.325000X0.650000X-0.325000X0.650000X0*%
%ADD30R,1.000000X2.500000*%
%ADD31R,1.800000X1.000000*%
G04 APERTURE END LIST*
D10*
X133200000Y-105400000D03*
D11*
X143360000Y-105400000D03*
D10*
X133200000Y-102200000D03*
D11*
X143360000Y-102200000D03*
D10*
X133200000Y-86400000D03*
D11*
X143360000Y-86400000D03*
D10*
X133200000Y-89550000D03*
D11*
X143360000Y-89550000D03*
D10*
X133200000Y-95900000D03*
D11*
X143360000Y-95900000D03*
D10*
X133200000Y-92750000D03*
D11*
X143360000Y-92750000D03*
D12*
X106929700Y-88242600D03*
X106929700Y-89042600D03*
D13*
X108079700Y-88642600D03*
D14*
X155702000Y-86740000D03*
D10*
X155702000Y-84740000D03*
X109260000Y-101092000D03*
X114260000Y-101092000D03*
D15*
X162602900Y-73002900D03*
X163305844Y-71305844D03*
X163305844Y-74699956D03*
X165002900Y-70602900D03*
D16*
X165002900Y-73002900D03*
D15*
X165002900Y-75402900D03*
X166699956Y-71305844D03*
X166699956Y-74699956D03*
X167402900Y-73002900D03*
D17*
X167920000Y-85390000D03*
D18*
X166650000Y-86660000D03*
X165380000Y-85390000D03*
D10*
X83550000Y-88102000D03*
D11*
X93710000Y-88102000D03*
D14*
X117502000Y-97771900D03*
D11*
X117502000Y-105391900D03*
D12*
X109469700Y-88242600D03*
X109469700Y-89042600D03*
D13*
X110619700Y-88642600D03*
D19*
X86475000Y-93552000D03*
X86475000Y-94502000D03*
X86475000Y-95452000D03*
X88750000Y-95452000D03*
X88750000Y-94502000D03*
X88750000Y-93552000D03*
D10*
X119888000Y-97536000D03*
D11*
X130048000Y-97536000D03*
D20*
X118150000Y-84850000D03*
D21*
X122410000Y-105008000D03*
D22*
X124950000Y-105008000D03*
X127490000Y-105008000D03*
D10*
X83550000Y-91202000D03*
D11*
X93710000Y-91202000D03*
D20*
X139900000Y-76400000D03*
X133400000Y-76400000D03*
X139900000Y-71900000D03*
X133400000Y-71900000D03*
D23*
X164170000Y-118300000D03*
X84830000Y-118300000D03*
D24*
X128612500Y-133000000D03*
X131587500Y-133000000D03*
D25*
X87122000Y-76708000D03*
D26*
X89662000Y-76708000D03*
X92202000Y-76708000D03*
X94742000Y-76708000D03*
D15*
X120102900Y-73002900D03*
X120805844Y-71305844D03*
X120805844Y-74699956D03*
X122502900Y-70602900D03*
D16*
X122502900Y-73002900D03*
D15*
X122502900Y-75402900D03*
X124199956Y-71305844D03*
X124199956Y-74699956D03*
X124902900Y-73002900D03*
D27*
X106555500Y-105918000D03*
X106555500Y-104648000D03*
X106555500Y-103378000D03*
X106555500Y-102108000D03*
X106555500Y-100838000D03*
D28*
X100255500Y-103378000D03*
D20*
X100300000Y-89400000D03*
X157900000Y-74200000D03*
D10*
X146032000Y-86200000D03*
X151032000Y-86200000D03*
D14*
X100430900Y-96774000D03*
D10*
X102430900Y-96774000D03*
X104102800Y-84853200D03*
D11*
X114262800Y-84853200D03*
D10*
X119888000Y-100584000D03*
D11*
X130048000Y-100584000D03*
D25*
X143950000Y-133000000D03*
D26*
X141410000Y-133000000D03*
X138870000Y-133000000D03*
X136330000Y-133000000D03*
D29*
X117192000Y-90678000D03*
X120142000Y-90678000D03*
D14*
X106212000Y-96774000D03*
D10*
X108212000Y-96774000D03*
D29*
X127352000Y-90678000D03*
X130302000Y-90678000D03*
X122272000Y-90678000D03*
X125222000Y-90678000D03*
D15*
X77602900Y-133002900D03*
X78305844Y-131305844D03*
X78305844Y-134699956D03*
X80002900Y-130602900D03*
D16*
X80002900Y-133002900D03*
D15*
X80002900Y-135402900D03*
X81699956Y-131305844D03*
X81699956Y-134699956D03*
X82402900Y-133002900D03*
D10*
X104107700Y-78628600D03*
D11*
X114267700Y-78628600D03*
D10*
X133200000Y-99050000D03*
D11*
X143360000Y-99050000D03*
D15*
X120152900Y-133002900D03*
X120855844Y-131305844D03*
X120855844Y-134699956D03*
X122552900Y-130602900D03*
D16*
X122552900Y-133002900D03*
D15*
X122552900Y-135402900D03*
X124249956Y-131305844D03*
X124249956Y-134699956D03*
X124952900Y-133002900D03*
D14*
X91650000Y-95552000D03*
D10*
X93650000Y-95552000D03*
X119888000Y-94488000D03*
D11*
X130048000Y-94488000D03*
D10*
X104119700Y-75509100D03*
D11*
X114279700Y-75509100D03*
D10*
X84000000Y-98852000D03*
X84000000Y-93852000D03*
D25*
X99150000Y-70250000D03*
D26*
X96610000Y-70250000D03*
X94070000Y-70250000D03*
X91530000Y-70250000D03*
X88990000Y-70250000D03*
X86450000Y-70250000D03*
D20*
X129300000Y-74250000D03*
D10*
X83550000Y-85002000D03*
D11*
X93710000Y-85002000D03*
D15*
X77602900Y-73002900D03*
X78305844Y-71305844D03*
X78305844Y-74699956D03*
X80002900Y-70602900D03*
D16*
X80002900Y-73002900D03*
D15*
X80002900Y-75402900D03*
X81699956Y-71305844D03*
X81699956Y-74699956D03*
X82402900Y-73002900D03*
D20*
X100300000Y-83500000D03*
D10*
X109300000Y-104394000D03*
X114300000Y-104394000D03*
X104102800Y-81738500D03*
D11*
X114262800Y-81738500D03*
D20*
X154100000Y-76400000D03*
X147600000Y-76400000D03*
X154100000Y-71900000D03*
X147600000Y-71900000D03*
D25*
X86850000Y-101802000D03*
D26*
X84310000Y-101802000D03*
D14*
X90600000Y-101052000D03*
D10*
X92600000Y-101052000D03*
X83570000Y-105452000D03*
D11*
X93730000Y-105452000D03*
D25*
X77100000Y-87100000D03*
D26*
X77100000Y-89640000D03*
X77100000Y-92180000D03*
X77100000Y-94720000D03*
X77100000Y-97260000D03*
X77100000Y-99800000D03*
X77100000Y-102340000D03*
X77100000Y-104880000D03*
X77100000Y-107420000D03*
X77100000Y-109960000D03*
X77100000Y-112500000D03*
X77100000Y-115040000D03*
X77100000Y-117580000D03*
X77100000Y-120120000D03*
X77100000Y-122660000D03*
X77100000Y-125200000D03*
D15*
X162652900Y-133002900D03*
X163355844Y-131305844D03*
X163355844Y-134699956D03*
X165052900Y-130602900D03*
D16*
X165052900Y-133002900D03*
D15*
X165052900Y-135402900D03*
X166749956Y-131305844D03*
X166749956Y-134699956D03*
X167452900Y-133002900D03*
D30*
X161430000Y-90190000D03*
X159430000Y-90190000D03*
X157430000Y-90190000D03*
X155430000Y-90190000D03*
X153430000Y-90190000D03*
X151430000Y-90190000D03*
X149430000Y-90190000D03*
X147430000Y-90190000D03*
X147430000Y-105390000D03*
X149430000Y-105390000D03*
X151430000Y-105390000D03*
X153430000Y-105390000D03*
X155430000Y-105390000D03*
X157430000Y-105390000D03*
X159430000Y-105390000D03*
X161430000Y-105390000D03*
D31*
X145930000Y-92790000D03*
X145930000Y-94790000D03*
X145930000Y-96790000D03*
X145930000Y-98790000D03*
X145930000Y-100790000D03*
X145930000Y-102790000D03*
M02*
