G04 #@! TF.GenerationSoftware,KiCad,Pcbnew,5.1.5-52549c5~84~ubuntu18.04.1*
G04 #@! TF.CreationDate,2020-03-26T15:43:45+01:00*
G04 #@! TF.ProjectId,ltl,6c746c2e-6b69-4636-9164-5f7063625858,rev?*
G04 #@! TF.SameCoordinates,Original*
G04 #@! TF.FileFunction,Legend,Bot*
G04 #@! TF.FilePolarity,Positive*
%FSLAX46Y46*%
G04 Gerber Fmt 4.6, Leading zero omitted, Abs format (unit mm)*
G04 Created by KiCad (PCBNEW 5.1.5-52549c5~84~ubuntu18.04.1) date 2020-03-26 15:43:45*
%MOMM*%
%LPD*%
G04 APERTURE LIST*
%ADD10C,0.100000*%
%ADD11C,0.150000*%
%ADD12C,0.300000*%
G04 APERTURE END LIST*
D10*
G36*
X141732000Y-129286000D02*
G01*
X137922000Y-129286000D01*
X137922000Y-124206000D01*
X141732000Y-124206000D01*
X141732000Y-129286000D01*
G37*
X141732000Y-129286000D02*
X137922000Y-129286000D01*
X137922000Y-124206000D01*
X141732000Y-124206000D01*
X141732000Y-129286000D01*
G36*
X137414000Y-129286000D02*
G01*
X133604000Y-129286000D01*
X133604000Y-124206000D01*
X137414000Y-124206000D01*
X137414000Y-129286000D01*
G37*
X137414000Y-129286000D02*
X133604000Y-129286000D01*
X133604000Y-124206000D01*
X137414000Y-124206000D01*
X137414000Y-129286000D01*
G36*
X133096000Y-129286000D02*
G01*
X129286000Y-129286000D01*
X129286000Y-124206000D01*
X133096000Y-124206000D01*
X133096000Y-129286000D01*
G37*
X133096000Y-129286000D02*
X129286000Y-129286000D01*
X129286000Y-124206000D01*
X133096000Y-124206000D01*
X133096000Y-129286000D01*
D11*
X105918000Y-129540000D02*
X141986000Y-129540000D01*
X142240000Y-129794000D02*
X105664000Y-129794000D01*
X141986000Y-123952000D02*
X105918000Y-123952000D01*
X137668000Y-129540000D02*
X137668000Y-123952000D01*
X133350000Y-129540000D02*
X133350000Y-123952000D01*
X129032000Y-129540000D02*
X129032000Y-123952000D01*
D12*
X127506809Y-127650761D02*
X128173476Y-126698380D01*
X128649666Y-127650761D02*
X128649666Y-125650761D01*
X127887761Y-125650761D01*
X127697285Y-125746000D01*
X127602047Y-125841238D01*
X127506809Y-126031714D01*
X127506809Y-126317428D01*
X127602047Y-126507904D01*
X127697285Y-126603142D01*
X127887761Y-126698380D01*
X128649666Y-126698380D01*
X125887761Y-127555523D02*
X126078238Y-127650761D01*
X126459190Y-127650761D01*
X126649666Y-127555523D01*
X126744904Y-127365047D01*
X126744904Y-126603142D01*
X126649666Y-126412666D01*
X126459190Y-126317428D01*
X126078238Y-126317428D01*
X125887761Y-126412666D01*
X125792523Y-126603142D01*
X125792523Y-126793619D01*
X126744904Y-126984095D01*
X125125857Y-126317428D02*
X124649666Y-127650761D01*
X124173476Y-126317428D01*
X123411571Y-127460285D02*
X123316333Y-127555523D01*
X123411571Y-127650761D01*
X123506809Y-127555523D01*
X123411571Y-127460285D01*
X123411571Y-127650761D01*
X121411571Y-127650761D02*
X122554428Y-127650761D01*
X121983000Y-127650761D02*
X121983000Y-125650761D01*
X122173476Y-125936476D01*
X122363952Y-126126952D01*
X122554428Y-126222190D01*
X120554428Y-127460285D02*
X120459190Y-127555523D01*
X120554428Y-127650761D01*
X120649666Y-127555523D01*
X120554428Y-127460285D01*
X120554428Y-127650761D01*
X119697285Y-125841238D02*
X119602047Y-125746000D01*
X119411571Y-125650761D01*
X118935380Y-125650761D01*
X118744904Y-125746000D01*
X118649666Y-125841238D01*
X118554428Y-126031714D01*
X118554428Y-126222190D01*
X118649666Y-126507904D01*
X119792523Y-127650761D01*
X118554428Y-127650761D01*
X115221095Y-127650761D02*
X116173476Y-127650761D01*
X116173476Y-125650761D01*
X114840142Y-126317428D02*
X114078238Y-126317428D01*
X114554428Y-127650761D02*
X114554428Y-125936476D01*
X114459190Y-125746000D01*
X114268714Y-125650761D01*
X114078238Y-125650761D01*
X112554428Y-127650761D02*
X112554428Y-125650761D01*
X112554428Y-127555523D02*
X112744904Y-127650761D01*
X113125857Y-127650761D01*
X113316333Y-127555523D01*
X113411571Y-127460285D01*
X113506809Y-127269809D01*
X113506809Y-126698380D01*
X113411571Y-126507904D01*
X113316333Y-126412666D01*
X113125857Y-126317428D01*
X112744904Y-126317428D01*
X112554428Y-126412666D01*
X111602047Y-127460285D02*
X111506809Y-127555523D01*
X111602047Y-127650761D01*
X111697285Y-127555523D01*
X111602047Y-127460285D01*
X111602047Y-127650761D01*
X110649666Y-127650761D02*
X110649666Y-125650761D01*
X109506809Y-127650761D01*
X109506809Y-125650761D01*
X108554428Y-127650761D02*
X108554428Y-126317428D01*
X108554428Y-126698380D02*
X108459190Y-126507904D01*
X108363952Y-126412666D01*
X108173476Y-126317428D01*
X107983000Y-126317428D01*
X107316333Y-127460285D02*
X107221095Y-127555523D01*
X107316333Y-127650761D01*
X107411571Y-127555523D01*
X107316333Y-127460285D01*
X107316333Y-127650761D01*
D11*
X105918000Y-123952000D02*
X105918000Y-129540000D01*
X141986000Y-129540000D02*
X141986000Y-123952000D01*
X142240000Y-123698000D02*
X142240000Y-129794000D01*
X105664000Y-123698000D02*
X142240000Y-123698000D01*
X105664000Y-129794000D02*
X105664000Y-123698000D01*
M02*
