G04 #@! TF.GenerationSoftware,KiCad,Pcbnew,5.1.5-52549c5~84~ubuntu18.04.1*
G04 #@! TF.CreationDate,2020-03-15T13:10:28+01:00*
G04 #@! TF.ProjectId,ltl,6c746c2e-6b69-4636-9164-5f7063625858,rev?*
G04 #@! TF.SameCoordinates,Original*
G04 #@! TF.FileFunction,Legend,Top*
G04 #@! TF.FilePolarity,Positive*
%FSLAX46Y46*%
G04 Gerber Fmt 4.6, Leading zero omitted, Abs format (unit mm)*
G04 Created by KiCad (PCBNEW 5.1.5-52549c5~84~ubuntu18.04.1) date 2020-03-15 13:10:28*
%MOMM*%
%LPD*%
G04 APERTURE LIST*
%ADD10C,0.250000*%
%ADD11C,0.100000*%
%ADD12C,0.150000*%
%ADD13C,0.300000*%
%ADD14C,0.120000*%
%ADD15C,0.152400*%
G04 APERTURE END LIST*
D10*
X83772523Y-84288380D02*
X84343952Y-84288380D01*
X84058238Y-85288380D02*
X84058238Y-84288380D01*
X84582047Y-85288380D02*
X85105857Y-84621714D01*
X84582047Y-84621714D02*
X85105857Y-85288380D01*
X85486809Y-85288380D02*
X85486809Y-84288380D01*
X85724904Y-84288380D01*
X85867761Y-84336000D01*
X85963000Y-84431238D01*
X86010619Y-84526476D01*
X86058238Y-84716952D01*
X86058238Y-84859809D01*
X86010619Y-85050285D01*
X85963000Y-85145523D01*
X85867761Y-85240761D01*
X85724904Y-85288380D01*
X85486809Y-85288380D01*
X84367761Y-82748380D02*
X84034428Y-82272190D01*
X83796333Y-82748380D02*
X83796333Y-81748380D01*
X84177285Y-81748380D01*
X84272523Y-81796000D01*
X84320142Y-81843619D01*
X84367761Y-81938857D01*
X84367761Y-82081714D01*
X84320142Y-82176952D01*
X84272523Y-82224571D01*
X84177285Y-82272190D01*
X83796333Y-82272190D01*
X84701095Y-82748380D02*
X85224904Y-82081714D01*
X84701095Y-82081714D02*
X85224904Y-82748380D01*
X85605857Y-82748380D02*
X85605857Y-81748380D01*
X85843952Y-81748380D01*
X85986809Y-81796000D01*
X86082047Y-81891238D01*
X86129666Y-81986476D01*
X86177285Y-82176952D01*
X86177285Y-82319809D01*
X86129666Y-82510285D01*
X86082047Y-82605523D01*
X85986809Y-82700761D01*
X85843952Y-82748380D01*
X85605857Y-82748380D01*
X84201095Y-79129000D02*
X84105857Y-79081380D01*
X83963000Y-79081380D01*
X83820142Y-79129000D01*
X83724904Y-79224238D01*
X83677285Y-79319476D01*
X83629666Y-79509952D01*
X83629666Y-79652809D01*
X83677285Y-79843285D01*
X83724904Y-79938523D01*
X83820142Y-80033761D01*
X83963000Y-80081380D01*
X84058238Y-80081380D01*
X84201095Y-80033761D01*
X84248714Y-79986142D01*
X84248714Y-79652809D01*
X84058238Y-79652809D01*
X84677285Y-80081380D02*
X84677285Y-79081380D01*
X85248714Y-80081380D01*
X85248714Y-79081380D01*
X85724904Y-80081380D02*
X85724904Y-79081380D01*
X85963000Y-79081380D01*
X86105857Y-79129000D01*
X86201095Y-79224238D01*
X86248714Y-79319476D01*
X86296333Y-79509952D01*
X86296333Y-79652809D01*
X86248714Y-79843285D01*
X86201095Y-79938523D01*
X86105857Y-80033761D01*
X85963000Y-80081380D01*
X85724904Y-80081380D01*
D11*
G36*
X116586000Y-74422000D02*
G01*
X113284000Y-74422000D01*
X113284000Y-70358000D01*
X116586000Y-70358000D01*
X116586000Y-74422000D01*
G37*
X116586000Y-74422000D02*
X113284000Y-74422000D01*
X113284000Y-70358000D01*
X116586000Y-70358000D01*
X116586000Y-74422000D01*
G36*
X112776000Y-74422000D02*
G01*
X109474000Y-74422000D01*
X109474000Y-70358000D01*
X112776000Y-70358000D01*
X112776000Y-74422000D01*
G37*
X112776000Y-74422000D02*
X109474000Y-74422000D01*
X109474000Y-70358000D01*
X112776000Y-70358000D01*
X112776000Y-74422000D01*
G36*
X108966000Y-74422000D02*
G01*
X105664000Y-74422000D01*
X105664000Y-70358000D01*
X108966000Y-70358000D01*
X108966000Y-74422000D01*
G37*
X108966000Y-74422000D02*
X105664000Y-74422000D01*
X105664000Y-70358000D01*
X108966000Y-70358000D01*
X108966000Y-74422000D01*
D12*
X81534000Y-70104000D02*
X116840000Y-70104000D01*
X117094000Y-69850000D02*
X81280000Y-69850000D01*
X116840000Y-74676000D02*
X81534000Y-74676000D01*
X113030000Y-70104000D02*
X113030000Y-74676000D01*
X109220000Y-70104000D02*
X109220000Y-74676000D01*
X105410000Y-70104000D02*
X105410000Y-74676000D01*
D13*
X83686285Y-73068571D02*
X83186285Y-72354285D01*
X82829142Y-73068571D02*
X82829142Y-71568571D01*
X83400571Y-71568571D01*
X83543428Y-71640000D01*
X83614857Y-71711428D01*
X83686285Y-71854285D01*
X83686285Y-72068571D01*
X83614857Y-72211428D01*
X83543428Y-72282857D01*
X83400571Y-72354285D01*
X82829142Y-72354285D01*
X84900571Y-72997142D02*
X84757714Y-73068571D01*
X84472000Y-73068571D01*
X84329142Y-72997142D01*
X84257714Y-72854285D01*
X84257714Y-72282857D01*
X84329142Y-72140000D01*
X84472000Y-72068571D01*
X84757714Y-72068571D01*
X84900571Y-72140000D01*
X84972000Y-72282857D01*
X84972000Y-72425714D01*
X84257714Y-72568571D01*
X85472000Y-72068571D02*
X85829142Y-73068571D01*
X86186285Y-72068571D01*
X86757714Y-72925714D02*
X86829142Y-72997142D01*
X86757714Y-73068571D01*
X86686285Y-72997142D01*
X86757714Y-72925714D01*
X86757714Y-73068571D01*
X89400571Y-73068571D02*
X88543428Y-73068571D01*
X88972000Y-73068571D02*
X88972000Y-71568571D01*
X88829142Y-71782857D01*
X88686285Y-71925714D01*
X88543428Y-71997142D01*
X90043428Y-72925714D02*
X90114857Y-72997142D01*
X90043428Y-73068571D01*
X89972000Y-72997142D01*
X90043428Y-72925714D01*
X90043428Y-73068571D01*
X91043428Y-71568571D02*
X91186285Y-71568571D01*
X91329142Y-71640000D01*
X91400571Y-71711428D01*
X91472000Y-71854285D01*
X91543428Y-72140000D01*
X91543428Y-72497142D01*
X91472000Y-72782857D01*
X91400571Y-72925714D01*
X91329142Y-72997142D01*
X91186285Y-73068571D01*
X91043428Y-73068571D01*
X90900571Y-72997142D01*
X90829142Y-72925714D01*
X90757714Y-72782857D01*
X90686285Y-72497142D01*
X90686285Y-72140000D01*
X90757714Y-71854285D01*
X90829142Y-71711428D01*
X90900571Y-71640000D01*
X91043428Y-71568571D01*
X96329142Y-73068571D02*
X95614857Y-73068571D01*
X95614857Y-71568571D01*
X96614857Y-72068571D02*
X97186285Y-72068571D01*
X96829142Y-73068571D02*
X96829142Y-71782857D01*
X96900571Y-71640000D01*
X97043428Y-71568571D01*
X97186285Y-71568571D01*
X98329142Y-73068571D02*
X98329142Y-71568571D01*
X98329142Y-72997142D02*
X98186285Y-73068571D01*
X97900571Y-73068571D01*
X97757714Y-72997142D01*
X97686285Y-72925714D01*
X97614857Y-72782857D01*
X97614857Y-72354285D01*
X97686285Y-72211428D01*
X97757714Y-72140000D01*
X97900571Y-72068571D01*
X98186285Y-72068571D01*
X98329142Y-72140000D01*
X99043428Y-72925714D02*
X99114857Y-72997142D01*
X99043428Y-73068571D01*
X98972000Y-72997142D01*
X99043428Y-72925714D01*
X99043428Y-73068571D01*
X100900571Y-73068571D02*
X100900571Y-71568571D01*
X101757714Y-73068571D01*
X101757714Y-71568571D01*
X102472000Y-73068571D02*
X102472000Y-72068571D01*
X102472000Y-72354285D02*
X102543428Y-72211428D01*
X102614857Y-72140000D01*
X102757714Y-72068571D01*
X102900571Y-72068571D01*
X103400571Y-72925714D02*
X103472000Y-72997142D01*
X103400571Y-73068571D01*
X103329142Y-72997142D01*
X103400571Y-72925714D01*
X103400571Y-73068571D01*
X104114857Y-72925714D02*
X104186285Y-72997142D01*
X104114857Y-73068571D01*
X104043428Y-72997142D01*
X104114857Y-72925714D01*
X104114857Y-73068571D01*
X104114857Y-72140000D02*
X104186285Y-72211428D01*
X104114857Y-72282857D01*
X104043428Y-72211428D01*
X104114857Y-72140000D01*
X104114857Y-72282857D01*
D12*
X81534000Y-74676000D02*
X81534000Y-70104000D01*
X116840000Y-70104000D02*
X116840000Y-74676000D01*
X117094000Y-74930000D02*
X117094000Y-69850000D01*
X81280000Y-74930000D02*
X117094000Y-74930000D01*
X81280000Y-69850000D02*
X81280000Y-74930000D01*
D14*
X123849000Y-78105000D02*
X124619000Y-78105000D01*
X131929000Y-78105000D02*
X131159000Y-78105000D01*
X124619000Y-79475000D02*
X131159000Y-79475000D01*
X124619000Y-76735000D02*
X124619000Y-79475000D01*
X131159000Y-76735000D02*
X124619000Y-76735000D01*
X131159000Y-79475000D02*
X131159000Y-76735000D01*
X123849000Y-85852000D02*
X124619000Y-85852000D01*
X131929000Y-85852000D02*
X131159000Y-85852000D01*
X124619000Y-87222000D02*
X131159000Y-87222000D01*
X124619000Y-84482000D02*
X124619000Y-87222000D01*
X131159000Y-84482000D02*
X124619000Y-84482000D01*
X131159000Y-87222000D02*
X131159000Y-84482000D01*
X123849000Y-81915000D02*
X124619000Y-81915000D01*
X131929000Y-81915000D02*
X131159000Y-81915000D01*
X124619000Y-83285000D02*
X131159000Y-83285000D01*
X124619000Y-80545000D02*
X124619000Y-83285000D01*
X131159000Y-80545000D02*
X124619000Y-80545000D01*
X131159000Y-83285000D02*
X131159000Y-80545000D01*
X145264000Y-71120000D02*
X144494000Y-71120000D01*
X137184000Y-71120000D02*
X137954000Y-71120000D01*
X144494000Y-69750000D02*
X137954000Y-69750000D01*
X144494000Y-72490000D02*
X144494000Y-69750000D01*
X137954000Y-72490000D02*
X144494000Y-72490000D01*
X137954000Y-69750000D02*
X137954000Y-72490000D01*
X152249000Y-100965000D02*
X151479000Y-100965000D01*
X144169000Y-100965000D02*
X144939000Y-100965000D01*
X151479000Y-99595000D02*
X144939000Y-99595000D01*
X151479000Y-102335000D02*
X151479000Y-99595000D01*
X144939000Y-102335000D02*
X151479000Y-102335000D01*
X144939000Y-99595000D02*
X144939000Y-102335000D01*
X144939000Y-95785000D02*
X144939000Y-98525000D01*
X144939000Y-98525000D02*
X151479000Y-98525000D01*
X151479000Y-98525000D02*
X151479000Y-95785000D01*
X151479000Y-95785000D02*
X144939000Y-95785000D01*
X144169000Y-97155000D02*
X144939000Y-97155000D01*
X152249000Y-97155000D02*
X151479000Y-97155000D01*
X134588000Y-91674000D02*
G75*
G03X134588000Y-91674000I-3270000J0D01*
G01*
X134548000Y-91674000D02*
X128088000Y-91674000D01*
X134548000Y-91714000D02*
X128088000Y-91714000D01*
X134548000Y-91754000D02*
X128088000Y-91754000D01*
X134546000Y-91794000D02*
X128090000Y-91794000D01*
X134545000Y-91834000D02*
X128091000Y-91834000D01*
X134542000Y-91874000D02*
X128094000Y-91874000D01*
X134540000Y-91914000D02*
X132358000Y-91914000D01*
X130278000Y-91914000D02*
X128096000Y-91914000D01*
X134536000Y-91954000D02*
X132358000Y-91954000D01*
X130278000Y-91954000D02*
X128100000Y-91954000D01*
X134533000Y-91994000D02*
X132358000Y-91994000D01*
X130278000Y-91994000D02*
X128103000Y-91994000D01*
X134529000Y-92034000D02*
X132358000Y-92034000D01*
X130278000Y-92034000D02*
X128107000Y-92034000D01*
X134524000Y-92074000D02*
X132358000Y-92074000D01*
X130278000Y-92074000D02*
X128112000Y-92074000D01*
X134519000Y-92114000D02*
X132358000Y-92114000D01*
X130278000Y-92114000D02*
X128117000Y-92114000D01*
X134513000Y-92154000D02*
X132358000Y-92154000D01*
X130278000Y-92154000D02*
X128123000Y-92154000D01*
X134507000Y-92194000D02*
X132358000Y-92194000D01*
X130278000Y-92194000D02*
X128129000Y-92194000D01*
X134500000Y-92234000D02*
X132358000Y-92234000D01*
X130278000Y-92234000D02*
X128136000Y-92234000D01*
X134493000Y-92274000D02*
X132358000Y-92274000D01*
X130278000Y-92274000D02*
X128143000Y-92274000D01*
X134485000Y-92314000D02*
X132358000Y-92314000D01*
X130278000Y-92314000D02*
X128151000Y-92314000D01*
X134477000Y-92354000D02*
X132358000Y-92354000D01*
X130278000Y-92354000D02*
X128159000Y-92354000D01*
X134468000Y-92395000D02*
X132358000Y-92395000D01*
X130278000Y-92395000D02*
X128168000Y-92395000D01*
X134459000Y-92435000D02*
X132358000Y-92435000D01*
X130278000Y-92435000D02*
X128177000Y-92435000D01*
X134449000Y-92475000D02*
X132358000Y-92475000D01*
X130278000Y-92475000D02*
X128187000Y-92475000D01*
X134439000Y-92515000D02*
X132358000Y-92515000D01*
X130278000Y-92515000D02*
X128197000Y-92515000D01*
X134428000Y-92555000D02*
X132358000Y-92555000D01*
X130278000Y-92555000D02*
X128208000Y-92555000D01*
X134416000Y-92595000D02*
X132358000Y-92595000D01*
X130278000Y-92595000D02*
X128220000Y-92595000D01*
X134404000Y-92635000D02*
X132358000Y-92635000D01*
X130278000Y-92635000D02*
X128232000Y-92635000D01*
X134392000Y-92675000D02*
X132358000Y-92675000D01*
X130278000Y-92675000D02*
X128244000Y-92675000D01*
X134379000Y-92715000D02*
X132358000Y-92715000D01*
X130278000Y-92715000D02*
X128257000Y-92715000D01*
X134365000Y-92755000D02*
X132358000Y-92755000D01*
X130278000Y-92755000D02*
X128271000Y-92755000D01*
X134351000Y-92795000D02*
X132358000Y-92795000D01*
X130278000Y-92795000D02*
X128285000Y-92795000D01*
X134336000Y-92835000D02*
X132358000Y-92835000D01*
X130278000Y-92835000D02*
X128300000Y-92835000D01*
X134320000Y-92875000D02*
X132358000Y-92875000D01*
X130278000Y-92875000D02*
X128316000Y-92875000D01*
X134304000Y-92915000D02*
X132358000Y-92915000D01*
X130278000Y-92915000D02*
X128332000Y-92915000D01*
X134288000Y-92955000D02*
X132358000Y-92955000D01*
X130278000Y-92955000D02*
X128348000Y-92955000D01*
X134270000Y-92995000D02*
X132358000Y-92995000D01*
X130278000Y-92995000D02*
X128366000Y-92995000D01*
X134252000Y-93035000D02*
X132358000Y-93035000D01*
X130278000Y-93035000D02*
X128384000Y-93035000D01*
X134234000Y-93075000D02*
X132358000Y-93075000D01*
X130278000Y-93075000D02*
X128402000Y-93075000D01*
X134214000Y-93115000D02*
X132358000Y-93115000D01*
X130278000Y-93115000D02*
X128422000Y-93115000D01*
X134194000Y-93155000D02*
X132358000Y-93155000D01*
X130278000Y-93155000D02*
X128442000Y-93155000D01*
X134174000Y-93195000D02*
X132358000Y-93195000D01*
X130278000Y-93195000D02*
X128462000Y-93195000D01*
X134152000Y-93235000D02*
X132358000Y-93235000D01*
X130278000Y-93235000D02*
X128484000Y-93235000D01*
X134130000Y-93275000D02*
X132358000Y-93275000D01*
X130278000Y-93275000D02*
X128506000Y-93275000D01*
X134108000Y-93315000D02*
X132358000Y-93315000D01*
X130278000Y-93315000D02*
X128528000Y-93315000D01*
X134084000Y-93355000D02*
X132358000Y-93355000D01*
X130278000Y-93355000D02*
X128552000Y-93355000D01*
X134060000Y-93395000D02*
X132358000Y-93395000D01*
X130278000Y-93395000D02*
X128576000Y-93395000D01*
X134034000Y-93435000D02*
X132358000Y-93435000D01*
X130278000Y-93435000D02*
X128602000Y-93435000D01*
X134008000Y-93475000D02*
X132358000Y-93475000D01*
X130278000Y-93475000D02*
X128628000Y-93475000D01*
X133982000Y-93515000D02*
X132358000Y-93515000D01*
X130278000Y-93515000D02*
X128654000Y-93515000D01*
X133954000Y-93555000D02*
X132358000Y-93555000D01*
X130278000Y-93555000D02*
X128682000Y-93555000D01*
X133925000Y-93595000D02*
X132358000Y-93595000D01*
X130278000Y-93595000D02*
X128711000Y-93595000D01*
X133896000Y-93635000D02*
X132358000Y-93635000D01*
X130278000Y-93635000D02*
X128740000Y-93635000D01*
X133866000Y-93675000D02*
X132358000Y-93675000D01*
X130278000Y-93675000D02*
X128770000Y-93675000D01*
X133834000Y-93715000D02*
X132358000Y-93715000D01*
X130278000Y-93715000D02*
X128802000Y-93715000D01*
X133802000Y-93755000D02*
X132358000Y-93755000D01*
X130278000Y-93755000D02*
X128834000Y-93755000D01*
X133768000Y-93795000D02*
X132358000Y-93795000D01*
X130278000Y-93795000D02*
X128868000Y-93795000D01*
X133734000Y-93835000D02*
X132358000Y-93835000D01*
X130278000Y-93835000D02*
X128902000Y-93835000D01*
X133698000Y-93875000D02*
X132358000Y-93875000D01*
X130278000Y-93875000D02*
X128938000Y-93875000D01*
X133661000Y-93915000D02*
X132358000Y-93915000D01*
X130278000Y-93915000D02*
X128975000Y-93915000D01*
X133623000Y-93955000D02*
X132358000Y-93955000D01*
X130278000Y-93955000D02*
X129013000Y-93955000D01*
X133583000Y-93995000D02*
X129053000Y-93995000D01*
X133542000Y-94035000D02*
X129094000Y-94035000D01*
X133500000Y-94075000D02*
X129136000Y-94075000D01*
X133455000Y-94115000D02*
X129181000Y-94115000D01*
X133410000Y-94155000D02*
X129226000Y-94155000D01*
X133362000Y-94195000D02*
X129274000Y-94195000D01*
X133313000Y-94235000D02*
X129323000Y-94235000D01*
X133262000Y-94275000D02*
X129374000Y-94275000D01*
X133208000Y-94315000D02*
X129428000Y-94315000D01*
X133152000Y-94355000D02*
X129484000Y-94355000D01*
X133094000Y-94395000D02*
X129542000Y-94395000D01*
X133032000Y-94435000D02*
X129604000Y-94435000D01*
X132968000Y-94475000D02*
X129668000Y-94475000D01*
X132899000Y-94515000D02*
X129737000Y-94515000D01*
X132827000Y-94555000D02*
X129809000Y-94555000D01*
X132750000Y-94595000D02*
X129886000Y-94595000D01*
X132668000Y-94635000D02*
X129968000Y-94635000D01*
X132580000Y-94675000D02*
X130056000Y-94675000D01*
X132483000Y-94715000D02*
X130153000Y-94715000D01*
X132377000Y-94755000D02*
X130259000Y-94755000D01*
X132258000Y-94795000D02*
X130378000Y-94795000D01*
X132120000Y-94835000D02*
X130516000Y-94835000D01*
X131951000Y-94875000D02*
X130685000Y-94875000D01*
X131720000Y-94915000D02*
X130916000Y-94915000D01*
X133157000Y-88173759D02*
X133157000Y-88803759D01*
X133472000Y-88488759D02*
X132842000Y-88488759D01*
X92440000Y-85256000D02*
X96940000Y-85256000D01*
X91190000Y-81256000D02*
X91190000Y-82756000D01*
X96940000Y-78756000D02*
X92440000Y-78756000D01*
X98190000Y-82756000D02*
X98190000Y-81256000D01*
X106156000Y-85256000D02*
X110656000Y-85256000D01*
X104906000Y-81256000D02*
X104906000Y-82756000D01*
X110656000Y-78756000D02*
X106156000Y-78756000D01*
X111906000Y-82756000D02*
X111906000Y-81256000D01*
X124619000Y-96674000D02*
X124619000Y-99414000D01*
X124619000Y-99414000D02*
X131159000Y-99414000D01*
X131159000Y-99414000D02*
X131159000Y-96674000D01*
X131159000Y-96674000D02*
X124619000Y-96674000D01*
X123849000Y-98044000D02*
X124619000Y-98044000D01*
X131929000Y-98044000D02*
X131159000Y-98044000D01*
X124692000Y-73986000D02*
X128292000Y-73986000D01*
X124653522Y-73974478D02*
G75*
G02X126492000Y-69536000I1838478J1838478D01*
G01*
X128330478Y-73974478D02*
G75*
G03X126492000Y-69536000I-1838478J1838478D01*
G01*
X91524000Y-91754000D02*
X91524000Y-90704000D01*
X90474000Y-90704000D02*
X91524000Y-90704000D01*
X85424000Y-100104000D02*
X76624000Y-100104000D01*
X76624000Y-100104000D02*
X76624000Y-90904000D01*
X91324000Y-97404000D02*
X91324000Y-100104000D01*
X91324000Y-100104000D02*
X89424000Y-100104000D01*
X76624000Y-90904000D02*
X91324000Y-90904000D01*
X91324000Y-90904000D02*
X91324000Y-93504000D01*
X109980000Y-97474000D02*
X109980000Y-93534000D01*
X109980000Y-93534000D02*
X100840000Y-93534000D01*
X100840000Y-93534000D02*
X100840000Y-97474000D01*
X100840000Y-97474000D02*
X109980000Y-97474000D01*
X110120000Y-95504000D02*
X109980000Y-95504000D01*
X100700000Y-95504000D02*
X100840000Y-95504000D01*
X108525000Y-97474000D02*
X108525000Y-93534000D01*
X108405000Y-97474000D02*
X108405000Y-93534000D01*
X108645000Y-97474000D02*
X108645000Y-93534000D01*
X82724000Y-77196000D02*
X76754000Y-77196000D01*
X76754000Y-77196000D02*
X76754000Y-87316000D01*
X76754000Y-87316000D02*
X82724000Y-87316000D01*
X82724000Y-87316000D02*
X82724000Y-77196000D01*
X82714000Y-80506000D02*
X81964000Y-80506000D01*
X81964000Y-80506000D02*
X81964000Y-84006000D01*
X81964000Y-84006000D02*
X82714000Y-84006000D01*
X82714000Y-84006000D02*
X82714000Y-80506000D01*
X82714000Y-77206000D02*
X81964000Y-77206000D01*
X81964000Y-77206000D02*
X81964000Y-79006000D01*
X81964000Y-79006000D02*
X82714000Y-79006000D01*
X82714000Y-79006000D02*
X82714000Y-77206000D01*
X82714000Y-85506000D02*
X81964000Y-85506000D01*
X81964000Y-85506000D02*
X81964000Y-87306000D01*
X81964000Y-87306000D02*
X82714000Y-87306000D01*
X82714000Y-87306000D02*
X82714000Y-85506000D01*
X80464000Y-77206000D02*
X80464000Y-77956000D01*
X80464000Y-77956000D02*
X77514000Y-77956000D01*
X77514000Y-77956000D02*
X77514000Y-82256000D01*
X80464000Y-87306000D02*
X80464000Y-86556000D01*
X80464000Y-86556000D02*
X77514000Y-86556000D01*
X77514000Y-86556000D02*
X77514000Y-82256000D01*
X83014000Y-78156000D02*
X83014000Y-76906000D01*
X83014000Y-76906000D02*
X81764000Y-76906000D01*
D15*
X138811000Y-76708000D02*
X138049000Y-76708000D01*
X138049000Y-76708000D02*
X138049000Y-92710000D01*
X138049000Y-92710000D02*
X138811000Y-92710000D01*
D14*
X157004000Y-118248000D02*
X161364000Y-118248000D01*
X157004000Y-104368000D02*
X157004000Y-111368000D01*
X79724000Y-104368000D02*
X157004000Y-104368000D01*
X79724000Y-111368000D02*
X79724000Y-104368000D01*
X157004000Y-125248000D02*
X157004000Y-118248000D01*
X79724000Y-125248000D02*
X157004000Y-125248000D01*
X79724000Y-118248000D02*
X79724000Y-125228000D01*
X74614000Y-120808000D02*
X77114000Y-120808000D01*
X162114000Y-120808000D02*
X159614000Y-120808000D01*
X160864000Y-119558000D02*
X160864000Y-122058000D01*
X108362000Y-89154000D02*
G75*
G03X108362000Y-89154000I-920000J0D01*
G01*
X108362000Y-89154000D02*
X108982000Y-89154000D01*
D12*
X158305714Y-75001380D02*
X158305714Y-74001380D01*
X158639047Y-74715666D01*
X158972380Y-74001380D01*
X158972380Y-75001380D01*
X159448571Y-75001380D02*
X159448571Y-74001380D01*
X159448571Y-74477571D02*
X160020000Y-74477571D01*
X160020000Y-75001380D02*
X160020000Y-74001380D01*
X160258095Y-75096619D02*
X161020000Y-75096619D01*
X161210476Y-74096619D02*
X161258095Y-74049000D01*
X161353333Y-74001380D01*
X161591428Y-74001380D01*
X161686666Y-74049000D01*
X161734285Y-74096619D01*
X161781904Y-74191857D01*
X161781904Y-74287095D01*
X161734285Y-74429952D01*
X161162857Y-75001380D01*
X161781904Y-75001380D01*
X153860714Y-128341380D02*
X153860714Y-127341380D01*
X154194047Y-128055666D01*
X154527380Y-127341380D01*
X154527380Y-128341380D01*
X155003571Y-128341380D02*
X155003571Y-127341380D01*
X155003571Y-127817571D02*
X155575000Y-127817571D01*
X155575000Y-128341380D02*
X155575000Y-127341380D01*
X155813095Y-128436619D02*
X156575000Y-128436619D01*
X156717857Y-127341380D02*
X157336904Y-127341380D01*
X157003571Y-127722333D01*
X157146428Y-127722333D01*
X157241666Y-127769952D01*
X157289285Y-127817571D01*
X157336904Y-127912809D01*
X157336904Y-128150904D01*
X157289285Y-128246142D01*
X157241666Y-128293761D01*
X157146428Y-128341380D01*
X156860714Y-128341380D01*
X156765476Y-128293761D01*
X156717857Y-128246142D01*
X79819714Y-128341380D02*
X79819714Y-127341380D01*
X80153047Y-128055666D01*
X80486380Y-127341380D01*
X80486380Y-128341380D01*
X80962571Y-128341380D02*
X80962571Y-127341380D01*
X80962571Y-127817571D02*
X81534000Y-127817571D01*
X81534000Y-128341380D02*
X81534000Y-127341380D01*
X81772095Y-128436619D02*
X82534000Y-128436619D01*
X83200666Y-127674714D02*
X83200666Y-128341380D01*
X82962571Y-127293761D02*
X82724476Y-128008047D01*
X83343523Y-128008047D01*
X75120714Y-75255380D02*
X75120714Y-74255380D01*
X75454047Y-74969666D01*
X75787380Y-74255380D01*
X75787380Y-75255380D01*
X76263571Y-75255380D02*
X76263571Y-74255380D01*
X76263571Y-74731571D02*
X76835000Y-74731571D01*
X76835000Y-75255380D02*
X76835000Y-74255380D01*
X77073095Y-75350619D02*
X77835000Y-75350619D01*
X78596904Y-75255380D02*
X78025476Y-75255380D01*
X78311190Y-75255380D02*
X78311190Y-74255380D01*
X78215952Y-74398238D01*
X78120714Y-74493476D01*
X78025476Y-74541095D01*
X120229333Y-78557380D02*
X119896000Y-78081190D01*
X119657904Y-78557380D02*
X119657904Y-77557380D01*
X120038857Y-77557380D01*
X120134095Y-77605000D01*
X120181714Y-77652619D01*
X120229333Y-77747857D01*
X120229333Y-77890714D01*
X120181714Y-77985952D01*
X120134095Y-78033571D01*
X120038857Y-78081190D01*
X119657904Y-78081190D01*
X121086476Y-77890714D02*
X121086476Y-78557380D01*
X120848380Y-77509761D02*
X120610285Y-78224047D01*
X121229333Y-78224047D01*
X126484238Y-77652619D02*
X126531857Y-77605000D01*
X126627095Y-77557380D01*
X126865190Y-77557380D01*
X126960428Y-77605000D01*
X127008047Y-77652619D01*
X127055666Y-77747857D01*
X127055666Y-77843095D01*
X127008047Y-77985952D01*
X126436619Y-78557380D01*
X127055666Y-78557380D01*
X127531857Y-78509761D02*
X127531857Y-78557380D01*
X127484238Y-78652619D01*
X127436619Y-78700238D01*
X127912809Y-77652619D02*
X127960428Y-77605000D01*
X128055666Y-77557380D01*
X128293761Y-77557380D01*
X128389000Y-77605000D01*
X128436619Y-77652619D01*
X128484238Y-77747857D01*
X128484238Y-77843095D01*
X128436619Y-77985952D01*
X127865190Y-78557380D01*
X128484238Y-78557380D01*
X128912809Y-78557380D02*
X128912809Y-77557380D01*
X129008047Y-78176428D02*
X129293761Y-78557380D01*
X129293761Y-77890714D02*
X128912809Y-78271666D01*
X120229333Y-86304380D02*
X119896000Y-85828190D01*
X119657904Y-86304380D02*
X119657904Y-85304380D01*
X120038857Y-85304380D01*
X120134095Y-85352000D01*
X120181714Y-85399619D01*
X120229333Y-85494857D01*
X120229333Y-85637714D01*
X120181714Y-85732952D01*
X120134095Y-85780571D01*
X120038857Y-85828190D01*
X119657904Y-85828190D01*
X120562666Y-85304380D02*
X121181714Y-85304380D01*
X120848380Y-85685333D01*
X120991238Y-85685333D01*
X121086476Y-85732952D01*
X121134095Y-85780571D01*
X121181714Y-85875809D01*
X121181714Y-86113904D01*
X121134095Y-86209142D01*
X121086476Y-86256761D01*
X120991238Y-86304380D01*
X120705523Y-86304380D01*
X120610285Y-86256761D01*
X120562666Y-86209142D01*
X126484238Y-85399619D02*
X126531857Y-85352000D01*
X126627095Y-85304380D01*
X126865190Y-85304380D01*
X126960428Y-85352000D01*
X127008047Y-85399619D01*
X127055666Y-85494857D01*
X127055666Y-85590095D01*
X127008047Y-85732952D01*
X126436619Y-86304380D01*
X127055666Y-86304380D01*
X127531857Y-86256761D02*
X127531857Y-86304380D01*
X127484238Y-86399619D01*
X127436619Y-86447238D01*
X127912809Y-85399619D02*
X127960428Y-85352000D01*
X128055666Y-85304380D01*
X128293761Y-85304380D01*
X128389000Y-85352000D01*
X128436619Y-85399619D01*
X128484238Y-85494857D01*
X128484238Y-85590095D01*
X128436619Y-85732952D01*
X127865190Y-86304380D01*
X128484238Y-86304380D01*
X128912809Y-86304380D02*
X128912809Y-85304380D01*
X129008047Y-85923428D02*
X129293761Y-86304380D01*
X129293761Y-85637714D02*
X128912809Y-86018666D01*
X120356333Y-82367380D02*
X120023000Y-81891190D01*
X119784904Y-82367380D02*
X119784904Y-81367380D01*
X120165857Y-81367380D01*
X120261095Y-81415000D01*
X120308714Y-81462619D01*
X120356333Y-81557857D01*
X120356333Y-81700714D01*
X120308714Y-81795952D01*
X120261095Y-81843571D01*
X120165857Y-81891190D01*
X119784904Y-81891190D01*
X120737285Y-81462619D02*
X120784904Y-81415000D01*
X120880142Y-81367380D01*
X121118238Y-81367380D01*
X121213476Y-81415000D01*
X121261095Y-81462619D01*
X121308714Y-81557857D01*
X121308714Y-81653095D01*
X121261095Y-81795952D01*
X120689666Y-82367380D01*
X121308714Y-82367380D01*
X126484238Y-81462619D02*
X126531857Y-81415000D01*
X126627095Y-81367380D01*
X126865190Y-81367380D01*
X126960428Y-81415000D01*
X127008047Y-81462619D01*
X127055666Y-81557857D01*
X127055666Y-81653095D01*
X127008047Y-81795952D01*
X126436619Y-82367380D01*
X127055666Y-82367380D01*
X127531857Y-82319761D02*
X127531857Y-82367380D01*
X127484238Y-82462619D01*
X127436619Y-82510238D01*
X127912809Y-81462619D02*
X127960428Y-81415000D01*
X128055666Y-81367380D01*
X128293761Y-81367380D01*
X128389000Y-81415000D01*
X128436619Y-81462619D01*
X128484238Y-81557857D01*
X128484238Y-81653095D01*
X128436619Y-81795952D01*
X127865190Y-82367380D01*
X128484238Y-82367380D01*
X128912809Y-82367380D02*
X128912809Y-81367380D01*
X129008047Y-81986428D02*
X129293761Y-82367380D01*
X129293761Y-81700714D02*
X128912809Y-82081666D01*
X133564333Y-71572380D02*
X133231000Y-71096190D01*
X132992904Y-71572380D02*
X132992904Y-70572380D01*
X133373857Y-70572380D01*
X133469095Y-70620000D01*
X133516714Y-70667619D01*
X133564333Y-70762857D01*
X133564333Y-70905714D01*
X133516714Y-71000952D01*
X133469095Y-71048571D01*
X133373857Y-71096190D01*
X132992904Y-71096190D01*
X134516714Y-71572380D02*
X133945285Y-71572380D01*
X134231000Y-71572380D02*
X134231000Y-70572380D01*
X134135761Y-70715238D01*
X134040523Y-70810476D01*
X133945285Y-70858095D01*
X139946238Y-70667619D02*
X139993857Y-70620000D01*
X140089095Y-70572380D01*
X140327190Y-70572380D01*
X140422428Y-70620000D01*
X140470047Y-70667619D01*
X140517666Y-70762857D01*
X140517666Y-70858095D01*
X140470047Y-71000952D01*
X139898619Y-71572380D01*
X140517666Y-71572380D01*
X140993857Y-71524761D02*
X140993857Y-71572380D01*
X140946238Y-71667619D01*
X140898619Y-71715238D01*
X141374809Y-70667619D02*
X141422428Y-70620000D01*
X141517666Y-70572380D01*
X141755761Y-70572380D01*
X141851000Y-70620000D01*
X141898619Y-70667619D01*
X141946238Y-70762857D01*
X141946238Y-70858095D01*
X141898619Y-71000952D01*
X141327190Y-71572380D01*
X141946238Y-71572380D01*
X142374809Y-71572380D02*
X142374809Y-70572380D01*
X142470047Y-71191428D02*
X142755761Y-71572380D01*
X142755761Y-70905714D02*
X142374809Y-71286666D01*
X140422333Y-101417380D02*
X140089000Y-100941190D01*
X139850904Y-101417380D02*
X139850904Y-100417380D01*
X140231857Y-100417380D01*
X140327095Y-100465000D01*
X140374714Y-100512619D01*
X140422333Y-100607857D01*
X140422333Y-100750714D01*
X140374714Y-100845952D01*
X140327095Y-100893571D01*
X140231857Y-100941190D01*
X139850904Y-100941190D01*
X141279476Y-100417380D02*
X141089000Y-100417380D01*
X140993761Y-100465000D01*
X140946142Y-100512619D01*
X140850904Y-100655476D01*
X140803285Y-100845952D01*
X140803285Y-101226904D01*
X140850904Y-101322142D01*
X140898523Y-101369761D01*
X140993761Y-101417380D01*
X141184238Y-101417380D01*
X141279476Y-101369761D01*
X141327095Y-101322142D01*
X141374714Y-101226904D01*
X141374714Y-100988809D01*
X141327095Y-100893571D01*
X141279476Y-100845952D01*
X141184238Y-100798333D01*
X140993761Y-100798333D01*
X140898523Y-100845952D01*
X140850904Y-100893571D01*
X140803285Y-100988809D01*
X148089952Y-101417380D02*
X147518523Y-101417380D01*
X147804238Y-101417380D02*
X147804238Y-100417380D01*
X147709000Y-100560238D01*
X147613761Y-100655476D01*
X147518523Y-100703095D01*
X148518523Y-101417380D02*
X148518523Y-100417380D01*
X148613761Y-101036428D02*
X148899476Y-101417380D01*
X148899476Y-100750714D02*
X148518523Y-101131666D01*
X140295333Y-97607380D02*
X139962000Y-97131190D01*
X139723904Y-97607380D02*
X139723904Y-96607380D01*
X140104857Y-96607380D01*
X140200095Y-96655000D01*
X140247714Y-96702619D01*
X140295333Y-96797857D01*
X140295333Y-96940714D01*
X140247714Y-97035952D01*
X140200095Y-97083571D01*
X140104857Y-97131190D01*
X139723904Y-97131190D01*
X140628666Y-96607380D02*
X141295333Y-96607380D01*
X140866761Y-97607380D01*
X148089952Y-97607380D02*
X147518523Y-97607380D01*
X147804238Y-97607380D02*
X147804238Y-96607380D01*
X147709000Y-96750238D01*
X147613761Y-96845476D01*
X147518523Y-96893095D01*
X148518523Y-97607380D02*
X148518523Y-96607380D01*
X148613761Y-97226428D02*
X148899476Y-97607380D01*
X148899476Y-96940714D02*
X148518523Y-97321666D01*
X126071333Y-92686142D02*
X126023714Y-92733761D01*
X125880857Y-92781380D01*
X125785619Y-92781380D01*
X125642761Y-92733761D01*
X125547523Y-92638523D01*
X125499904Y-92543285D01*
X125452285Y-92352809D01*
X125452285Y-92209952D01*
X125499904Y-92019476D01*
X125547523Y-91924238D01*
X125642761Y-91829000D01*
X125785619Y-91781380D01*
X125880857Y-91781380D01*
X126023714Y-91829000D01*
X126071333Y-91876619D01*
X127023714Y-92781380D02*
X126452285Y-92781380D01*
X126738000Y-92781380D02*
X126738000Y-91781380D01*
X126642761Y-91924238D01*
X126547523Y-92019476D01*
X126452285Y-92067095D01*
X122999761Y-90876380D02*
X122428333Y-90876380D01*
X122714047Y-90876380D02*
X122714047Y-89876380D01*
X122618809Y-90019238D01*
X122523571Y-90114476D01*
X122428333Y-90162095D01*
X123618809Y-89876380D02*
X123714047Y-89876380D01*
X123809285Y-89924000D01*
X123856904Y-89971619D01*
X123904523Y-90066857D01*
X123952142Y-90257333D01*
X123952142Y-90495428D01*
X123904523Y-90685904D01*
X123856904Y-90781142D01*
X123809285Y-90828761D01*
X123714047Y-90876380D01*
X123618809Y-90876380D01*
X123523571Y-90828761D01*
X123475952Y-90781142D01*
X123428333Y-90685904D01*
X123380714Y-90495428D01*
X123380714Y-90257333D01*
X123428333Y-90066857D01*
X123475952Y-89971619D01*
X123523571Y-89924000D01*
X123618809Y-89876380D01*
X124571190Y-89876380D02*
X124666428Y-89876380D01*
X124761666Y-89924000D01*
X124809285Y-89971619D01*
X124856904Y-90066857D01*
X124904523Y-90257333D01*
X124904523Y-90495428D01*
X124856904Y-90685904D01*
X124809285Y-90781142D01*
X124761666Y-90828761D01*
X124666428Y-90876380D01*
X124571190Y-90876380D01*
X124475952Y-90828761D01*
X124428333Y-90781142D01*
X124380714Y-90685904D01*
X124333095Y-90495428D01*
X124333095Y-90257333D01*
X124380714Y-90066857D01*
X124428333Y-89971619D01*
X124475952Y-89924000D01*
X124571190Y-89876380D01*
X125523571Y-89876380D02*
X125618809Y-89876380D01*
X125714047Y-89924000D01*
X125761666Y-89971619D01*
X125809285Y-90066857D01*
X125856904Y-90257333D01*
X125856904Y-90495428D01*
X125809285Y-90685904D01*
X125761666Y-90781142D01*
X125714047Y-90828761D01*
X125618809Y-90876380D01*
X125523571Y-90876380D01*
X125428333Y-90828761D01*
X125380714Y-90781142D01*
X125333095Y-90685904D01*
X125285476Y-90495428D01*
X125285476Y-90257333D01*
X125333095Y-90066857D01*
X125380714Y-89971619D01*
X125428333Y-89924000D01*
X125523571Y-89876380D01*
X126285476Y-90209714D02*
X126285476Y-91209714D01*
X126761666Y-90733523D02*
X126809285Y-90828761D01*
X126904523Y-90876380D01*
X126285476Y-90733523D02*
X126333095Y-90828761D01*
X126428333Y-90876380D01*
X126618809Y-90876380D01*
X126714047Y-90828761D01*
X126761666Y-90733523D01*
X126761666Y-90209714D01*
X127666428Y-90352571D02*
X127333095Y-90352571D01*
X127333095Y-90876380D02*
X127333095Y-89876380D01*
X127809285Y-89876380D01*
X93162619Y-77668380D02*
X92829285Y-77192190D01*
X92591190Y-77668380D02*
X92591190Y-76668380D01*
X92972142Y-76668380D01*
X93067380Y-76716000D01*
X93115000Y-76763619D01*
X93162619Y-76858857D01*
X93162619Y-77001714D01*
X93115000Y-77096952D01*
X93067380Y-77144571D01*
X92972142Y-77192190D01*
X92591190Y-77192190D01*
X93591190Y-77144571D02*
X93924523Y-77144571D01*
X94067380Y-77668380D02*
X93591190Y-77668380D01*
X93591190Y-76668380D01*
X94067380Y-76668380D01*
X94448333Y-77620761D02*
X94591190Y-77668380D01*
X94829285Y-77668380D01*
X94924523Y-77620761D01*
X94972142Y-77573142D01*
X95019761Y-77477904D01*
X95019761Y-77382666D01*
X94972142Y-77287428D01*
X94924523Y-77239809D01*
X94829285Y-77192190D01*
X94638809Y-77144571D01*
X94543571Y-77096952D01*
X94495952Y-77049333D01*
X94448333Y-76954095D01*
X94448333Y-76858857D01*
X94495952Y-76763619D01*
X94543571Y-76716000D01*
X94638809Y-76668380D01*
X94876904Y-76668380D01*
X95019761Y-76716000D01*
X95448333Y-77144571D02*
X95781666Y-77144571D01*
X95924523Y-77668380D02*
X95448333Y-77668380D01*
X95448333Y-76668380D01*
X95924523Y-76668380D01*
X96210238Y-76668380D02*
X96781666Y-76668380D01*
X96495952Y-77668380D02*
X96495952Y-76668380D01*
X106386523Y-77144571D02*
X106053190Y-77144571D01*
X106053190Y-77668380D02*
X106053190Y-76668380D01*
X106529380Y-76668380D01*
X107386523Y-77668380D02*
X106910333Y-77668380D01*
X106910333Y-76668380D01*
X107672238Y-77382666D02*
X108148428Y-77382666D01*
X107577000Y-77668380D02*
X107910333Y-76668380D01*
X108243666Y-77668380D01*
X108529380Y-77620761D02*
X108672238Y-77668380D01*
X108910333Y-77668380D01*
X109005571Y-77620761D01*
X109053190Y-77573142D01*
X109100809Y-77477904D01*
X109100809Y-77382666D01*
X109053190Y-77287428D01*
X109005571Y-77239809D01*
X108910333Y-77192190D01*
X108719857Y-77144571D01*
X108624619Y-77096952D01*
X108577000Y-77049333D01*
X108529380Y-76954095D01*
X108529380Y-76858857D01*
X108577000Y-76763619D01*
X108624619Y-76716000D01*
X108719857Y-76668380D01*
X108957952Y-76668380D01*
X109100809Y-76716000D01*
X109529380Y-77668380D02*
X109529380Y-76668380D01*
X109529380Y-77144571D02*
X110100809Y-77144571D01*
X110100809Y-77668380D02*
X110100809Y-76668380D01*
X119848333Y-98496380D02*
X119515000Y-98020190D01*
X119276904Y-98496380D02*
X119276904Y-97496380D01*
X119657857Y-97496380D01*
X119753095Y-97544000D01*
X119800714Y-97591619D01*
X119848333Y-97686857D01*
X119848333Y-97829714D01*
X119800714Y-97924952D01*
X119753095Y-97972571D01*
X119657857Y-98020190D01*
X119276904Y-98020190D01*
X120753095Y-97496380D02*
X120276904Y-97496380D01*
X120229285Y-97972571D01*
X120276904Y-97924952D01*
X120372142Y-97877333D01*
X120610238Y-97877333D01*
X120705476Y-97924952D01*
X120753095Y-97972571D01*
X120800714Y-98067809D01*
X120800714Y-98305904D01*
X120753095Y-98401142D01*
X120705476Y-98448761D01*
X120610238Y-98496380D01*
X120372142Y-98496380D01*
X120276904Y-98448761D01*
X120229285Y-98401142D01*
X126484238Y-97591619D02*
X126531857Y-97544000D01*
X126627095Y-97496380D01*
X126865190Y-97496380D01*
X126960428Y-97544000D01*
X127008047Y-97591619D01*
X127055666Y-97686857D01*
X127055666Y-97782095D01*
X127008047Y-97924952D01*
X126436619Y-98496380D01*
X127055666Y-98496380D01*
X127531857Y-98448761D02*
X127531857Y-98496380D01*
X127484238Y-98591619D01*
X127436619Y-98639238D01*
X127912809Y-97591619D02*
X127960428Y-97544000D01*
X128055666Y-97496380D01*
X128293761Y-97496380D01*
X128389000Y-97544000D01*
X128436619Y-97591619D01*
X128484238Y-97686857D01*
X128484238Y-97782095D01*
X128436619Y-97924952D01*
X127865190Y-98496380D01*
X128484238Y-98496380D01*
X128912809Y-98496380D02*
X128912809Y-97496380D01*
X129008047Y-98115428D02*
X129293761Y-98496380D01*
X129293761Y-97829714D02*
X128912809Y-98210666D01*
X121666095Y-71461380D02*
X121666095Y-72270904D01*
X121713714Y-72366142D01*
X121761333Y-72413761D01*
X121856571Y-72461380D01*
X122047047Y-72461380D01*
X122142285Y-72413761D01*
X122189904Y-72366142D01*
X122237523Y-72270904D01*
X122237523Y-71461380D01*
X122666095Y-71556619D02*
X122713714Y-71509000D01*
X122808952Y-71461380D01*
X123047047Y-71461380D01*
X123142285Y-71509000D01*
X123189904Y-71556619D01*
X123237523Y-71651857D01*
X123237523Y-71747095D01*
X123189904Y-71889952D01*
X122618476Y-72461380D01*
X123237523Y-72461380D01*
X123095142Y-75636380D02*
X123095142Y-74636380D01*
X123333238Y-74636380D01*
X123476095Y-74684000D01*
X123571333Y-74779238D01*
X123618952Y-74874476D01*
X123666571Y-75064952D01*
X123666571Y-75207809D01*
X123618952Y-75398285D01*
X123571333Y-75493523D01*
X123476095Y-75588761D01*
X123333238Y-75636380D01*
X123095142Y-75636380D01*
X124047523Y-75588761D02*
X124190380Y-75636380D01*
X124428476Y-75636380D01*
X124523714Y-75588761D01*
X124571333Y-75541142D01*
X124618952Y-75445904D01*
X124618952Y-75350666D01*
X124571333Y-75255428D01*
X124523714Y-75207809D01*
X124428476Y-75160190D01*
X124238000Y-75112571D01*
X124142761Y-75064952D01*
X124095142Y-75017333D01*
X124047523Y-74922095D01*
X124047523Y-74826857D01*
X124095142Y-74731619D01*
X124142761Y-74684000D01*
X124238000Y-74636380D01*
X124476095Y-74636380D01*
X124618952Y-74684000D01*
X125571333Y-75636380D02*
X124999904Y-75636380D01*
X125285619Y-75636380D02*
X125285619Y-74636380D01*
X125190380Y-74779238D01*
X125095142Y-74874476D01*
X124999904Y-74922095D01*
X126142761Y-75064952D02*
X126047523Y-75017333D01*
X125999904Y-74969714D01*
X125952285Y-74874476D01*
X125952285Y-74826857D01*
X125999904Y-74731619D01*
X126047523Y-74684000D01*
X126142761Y-74636380D01*
X126333238Y-74636380D01*
X126428476Y-74684000D01*
X126476095Y-74731619D01*
X126523714Y-74826857D01*
X126523714Y-74874476D01*
X126476095Y-74969714D01*
X126428476Y-75017333D01*
X126333238Y-75064952D01*
X126142761Y-75064952D01*
X126047523Y-75112571D01*
X125999904Y-75160190D01*
X125952285Y-75255428D01*
X125952285Y-75445904D01*
X125999904Y-75541142D01*
X126047523Y-75588761D01*
X126142761Y-75636380D01*
X126333238Y-75636380D01*
X126428476Y-75588761D01*
X126476095Y-75541142D01*
X126523714Y-75445904D01*
X126523714Y-75255428D01*
X126476095Y-75160190D01*
X126428476Y-75112571D01*
X126333238Y-75064952D01*
X127285619Y-75112571D02*
X127428476Y-75160190D01*
X127476095Y-75207809D01*
X127523714Y-75303047D01*
X127523714Y-75445904D01*
X127476095Y-75541142D01*
X127428476Y-75588761D01*
X127333238Y-75636380D01*
X126952285Y-75636380D01*
X126952285Y-74636380D01*
X127285619Y-74636380D01*
X127380857Y-74684000D01*
X127428476Y-74731619D01*
X127476095Y-74826857D01*
X127476095Y-74922095D01*
X127428476Y-75017333D01*
X127380857Y-75064952D01*
X127285619Y-75112571D01*
X126952285Y-75112571D01*
X127904666Y-74731619D02*
X127952285Y-74684000D01*
X128047523Y-74636380D01*
X128285619Y-74636380D01*
X128380857Y-74684000D01*
X128428476Y-74731619D01*
X128476095Y-74826857D01*
X128476095Y-74922095D01*
X128428476Y-75064952D01*
X127857047Y-75636380D01*
X128476095Y-75636380D01*
X129095142Y-74636380D02*
X129190380Y-74636380D01*
X129285619Y-74684000D01*
X129333238Y-74731619D01*
X129380857Y-74826857D01*
X129428476Y-75017333D01*
X129428476Y-75255428D01*
X129380857Y-75445904D01*
X129333238Y-75541142D01*
X129285619Y-75588761D01*
X129190380Y-75636380D01*
X129095142Y-75636380D01*
X128999904Y-75588761D01*
X128952285Y-75541142D01*
X128904666Y-75445904D01*
X128857047Y-75255428D01*
X128857047Y-75017333D01*
X128904666Y-74826857D01*
X128952285Y-74731619D01*
X128999904Y-74684000D01*
X129095142Y-74636380D01*
X81581666Y-100798380D02*
X81581666Y-101512666D01*
X81534047Y-101655523D01*
X81438809Y-101750761D01*
X81295952Y-101798380D01*
X81200714Y-101798380D01*
X82010238Y-100893619D02*
X82057857Y-100846000D01*
X82153095Y-100798380D01*
X82391190Y-100798380D01*
X82486428Y-100846000D01*
X82534047Y-100893619D01*
X82581666Y-100988857D01*
X82581666Y-101084095D01*
X82534047Y-101226952D01*
X81962619Y-101798380D01*
X82581666Y-101798380D01*
X103909904Y-98877380D02*
X103909904Y-97877380D01*
X104148000Y-97877380D01*
X104290857Y-97925000D01*
X104386095Y-98020238D01*
X104433714Y-98115476D01*
X104481333Y-98305952D01*
X104481333Y-98448809D01*
X104433714Y-98639285D01*
X104386095Y-98734523D01*
X104290857Y-98829761D01*
X104148000Y-98877380D01*
X103909904Y-98877380D01*
X105433714Y-98877380D02*
X104862285Y-98877380D01*
X105148000Y-98877380D02*
X105148000Y-97877380D01*
X105052761Y-98020238D01*
X104957523Y-98115476D01*
X104862285Y-98163095D01*
X102632142Y-95829380D02*
X102060714Y-95829380D01*
X102346428Y-95829380D02*
X102346428Y-94829380D01*
X102251190Y-94972238D01*
X102155952Y-95067476D01*
X102060714Y-95115095D01*
X103060714Y-95829380D02*
X103060714Y-94829380D01*
X103632142Y-95829380D01*
X103632142Y-94829380D01*
X104536904Y-95162714D02*
X104536904Y-95829380D01*
X104298809Y-94781761D02*
X104060714Y-95496047D01*
X104679761Y-95496047D01*
X105251190Y-94829380D02*
X105346428Y-94829380D01*
X105441666Y-94877000D01*
X105489285Y-94924619D01*
X105536904Y-95019857D01*
X105584523Y-95210333D01*
X105584523Y-95448428D01*
X105536904Y-95638904D01*
X105489285Y-95734142D01*
X105441666Y-95781761D01*
X105346428Y-95829380D01*
X105251190Y-95829380D01*
X105155952Y-95781761D01*
X105108333Y-95734142D01*
X105060714Y-95638904D01*
X105013095Y-95448428D01*
X105013095Y-95210333D01*
X105060714Y-95019857D01*
X105108333Y-94924619D01*
X105155952Y-94877000D01*
X105251190Y-94829380D01*
X106203571Y-94829380D02*
X106298809Y-94829380D01*
X106394047Y-94877000D01*
X106441666Y-94924619D01*
X106489285Y-95019857D01*
X106536904Y-95210333D01*
X106536904Y-95448428D01*
X106489285Y-95638904D01*
X106441666Y-95734142D01*
X106394047Y-95781761D01*
X106298809Y-95829380D01*
X106203571Y-95829380D01*
X106108333Y-95781761D01*
X106060714Y-95734142D01*
X106013095Y-95638904D01*
X105965476Y-95448428D01*
X105965476Y-95210333D01*
X106013095Y-95019857D01*
X106060714Y-94924619D01*
X106108333Y-94877000D01*
X106203571Y-94829380D01*
X107489285Y-95829380D02*
X106917857Y-95829380D01*
X107203571Y-95829380D02*
X107203571Y-94829380D01*
X107108333Y-94972238D01*
X107013095Y-95067476D01*
X106917857Y-95115095D01*
X111498095Y-98877380D02*
X111498095Y-97877380D01*
X112069523Y-98877380D02*
X111640952Y-98305952D01*
X112069523Y-97877380D02*
X111498095Y-98448809D01*
X77263666Y-87971380D02*
X77263666Y-88685666D01*
X77216047Y-88828523D01*
X77120809Y-88923761D01*
X76977952Y-88971380D01*
X76882714Y-88971380D01*
X78263666Y-88971380D02*
X77692238Y-88971380D01*
X77977952Y-88971380D02*
X77977952Y-87971380D01*
X77882714Y-88114238D01*
X77787476Y-88209476D01*
X77692238Y-88257095D01*
X150582380Y-84835904D02*
X151391904Y-84835904D01*
X151487142Y-84788285D01*
X151534761Y-84740666D01*
X151582380Y-84645428D01*
X151582380Y-84454952D01*
X151534761Y-84359714D01*
X151487142Y-84312095D01*
X151391904Y-84264476D01*
X150582380Y-84264476D01*
X151582380Y-83264476D02*
X151582380Y-83835904D01*
X151582380Y-83550190D02*
X150582380Y-83550190D01*
X150725238Y-83645428D01*
X150820476Y-83740666D01*
X150868095Y-83835904D01*
X114403285Y-126928571D02*
X114546142Y-126976190D01*
X114593761Y-127023809D01*
X114641380Y-127119047D01*
X114641380Y-127261904D01*
X114593761Y-127357142D01*
X114546142Y-127404761D01*
X114450904Y-127452380D01*
X114069952Y-127452380D01*
X114069952Y-126452380D01*
X114403285Y-126452380D01*
X114498523Y-126500000D01*
X114546142Y-126547619D01*
X114593761Y-126642857D01*
X114593761Y-126738095D01*
X114546142Y-126833333D01*
X114498523Y-126880952D01*
X114403285Y-126928571D01*
X114069952Y-126928571D01*
X114927095Y-126452380D02*
X115498523Y-126452380D01*
X115212809Y-127452380D02*
X115212809Y-126452380D01*
X116355666Y-127452380D02*
X115784238Y-127452380D01*
X116069952Y-127452380D02*
X116069952Y-126452380D01*
X115974714Y-126595238D01*
X115879476Y-126690476D01*
X115784238Y-126738095D01*
X116744952Y-115260380D02*
X116173523Y-115260380D01*
X116459238Y-115260380D02*
X116459238Y-114260380D01*
X116364000Y-114403238D01*
X116268761Y-114498476D01*
X116173523Y-114546095D01*
X117316380Y-114688952D02*
X117221142Y-114641333D01*
X117173523Y-114593714D01*
X117125904Y-114498476D01*
X117125904Y-114450857D01*
X117173523Y-114355619D01*
X117221142Y-114308000D01*
X117316380Y-114260380D01*
X117506857Y-114260380D01*
X117602095Y-114308000D01*
X117649714Y-114355619D01*
X117697333Y-114450857D01*
X117697333Y-114498476D01*
X117649714Y-114593714D01*
X117602095Y-114641333D01*
X117506857Y-114688952D01*
X117316380Y-114688952D01*
X117221142Y-114736571D01*
X117173523Y-114784190D01*
X117125904Y-114879428D01*
X117125904Y-115069904D01*
X117173523Y-115165142D01*
X117221142Y-115212761D01*
X117316380Y-115260380D01*
X117506857Y-115260380D01*
X117602095Y-115212761D01*
X117649714Y-115165142D01*
X117697333Y-115069904D01*
X117697333Y-114879428D01*
X117649714Y-114784190D01*
X117602095Y-114736571D01*
X117506857Y-114688952D01*
X118554476Y-114260380D02*
X118364000Y-114260380D01*
X118268761Y-114308000D01*
X118221142Y-114355619D01*
X118125904Y-114498476D01*
X118078285Y-114688952D01*
X118078285Y-115069904D01*
X118125904Y-115165142D01*
X118173523Y-115212761D01*
X118268761Y-115260380D01*
X118459238Y-115260380D01*
X118554476Y-115212761D01*
X118602095Y-115165142D01*
X118649714Y-115069904D01*
X118649714Y-114831809D01*
X118602095Y-114736571D01*
X118554476Y-114688952D01*
X118459238Y-114641333D01*
X118268761Y-114641333D01*
X118173523Y-114688952D01*
X118125904Y-114736571D01*
X118078285Y-114831809D01*
X119554476Y-114260380D02*
X119078285Y-114260380D01*
X119030666Y-114736571D01*
X119078285Y-114688952D01*
X119173523Y-114641333D01*
X119411619Y-114641333D01*
X119506857Y-114688952D01*
X119554476Y-114736571D01*
X119602095Y-114831809D01*
X119602095Y-115069904D01*
X119554476Y-115165142D01*
X119506857Y-115212761D01*
X119411619Y-115260380D01*
X119173523Y-115260380D01*
X119078285Y-115212761D01*
X119030666Y-115165142D01*
X120221142Y-114260380D02*
X120316380Y-114260380D01*
X120411619Y-114308000D01*
X120459238Y-114355619D01*
X120506857Y-114450857D01*
X120554476Y-114641333D01*
X120554476Y-114879428D01*
X120506857Y-115069904D01*
X120459238Y-115165142D01*
X120411619Y-115212761D01*
X120316380Y-115260380D01*
X120221142Y-115260380D01*
X120125904Y-115212761D01*
X120078285Y-115165142D01*
X120030666Y-115069904D01*
X119983047Y-114879428D01*
X119983047Y-114641333D01*
X120030666Y-114450857D01*
X120078285Y-114355619D01*
X120125904Y-114308000D01*
X120221142Y-114260380D01*
X107878666Y-86686380D02*
X107878666Y-87400666D01*
X107831047Y-87543523D01*
X107735809Y-87638761D01*
X107592952Y-87686380D01*
X107497714Y-87686380D01*
X108354857Y-87686380D02*
X108354857Y-86686380D01*
X108735809Y-86686380D01*
X108831047Y-86734000D01*
X108878666Y-86781619D01*
X108926285Y-86876857D01*
X108926285Y-87019714D01*
X108878666Y-87114952D01*
X108831047Y-87162571D01*
X108735809Y-87210190D01*
X108354857Y-87210190D01*
X109878666Y-87686380D02*
X109307238Y-87686380D01*
X109592952Y-87686380D02*
X109592952Y-86686380D01*
X109497714Y-86829238D01*
X109402476Y-86924476D01*
X109307238Y-86972095D01*
M02*
