M48
; DRILL file {KiCad 7.0.9} date 
; FORMAT={-:-/ absolute / inch / decimal}
; #@! TF.CreationDate,2024-03-14T23:24:27+01:00
; #@! TF.GenerationSoftware,Kicad,Pcbnew,7.0.9
; #@! TF.FileFunction,Plated,1,2,PTH
FMAT,2
INCH
; #@! TA.AperFunction,Plated,PTH,ViaDrill
T1C0.0157
; #@! TA.AperFunction,Plated,PTH,ComponentDrill
T2C0.0197
; #@! TA.AperFunction,Plated,PTH,ComponentDrill
T3C0.0295
; #@! TA.AperFunction,Plated,PTH,ComponentDrill
T4C0.0315
; #@! TA.AperFunction,Plated,PTH,ComponentDrill
T5C0.0394
; #@! TA.AperFunction,Plated,PTH,ComponentDrill
T6C0.0433
; #@! TA.AperFunction,Plated,PTH,ComponentDrill
T7C0.1260
%
G90
G05
T1
X3.3822Y-4.489
X3.5794Y-4.7957
X3.7366Y-4.0944
X4.9009Y-4.4222
X5.1429Y-4.3428
X5.2401Y-4.3169
X5.2672Y-4.2882
X5.2981Y-4.0661
X5.5363Y-3.8355
X5.8776Y-3.6237
X5.9567Y-3.6751
X6.0242Y-3.6249
X6.2374Y-4.2137
X6.3155Y-4.0847
T2
X3.0552Y-2.8741
X3.0552Y-5.2363
X3.0829Y-2.8073
X3.0829Y-2.9409
X3.0829Y-5.1695
X3.0829Y-5.3031
X3.1497Y-2.7796
X3.1497Y-2.9686
X3.1497Y-5.1418
X3.1497Y-5.3308
X3.2165Y-2.8073
X3.2165Y-2.9409
X3.2165Y-5.1695
X3.2165Y-5.3031
X3.2442Y-2.8741
X3.2442Y-5.2363
X4.7285Y-2.8741
X4.7304Y-5.2363
X4.7561Y-2.8073
X4.7561Y-2.9409
X4.7581Y-5.1695
X4.7581Y-5.3031
X4.8229Y-2.7796
X4.8229Y-2.9686
X4.8249Y-5.1418
X4.8249Y-5.3308
X4.8898Y-2.8073
X4.8898Y-2.9409
X4.8917Y-5.1695
X4.8917Y-5.3031
X4.9174Y-2.8741
X4.9194Y-5.2363
X6.4017Y-2.8741
X6.4037Y-5.2363
X6.4294Y-2.8073
X6.4294Y-2.9409
X6.4313Y-5.1695
X6.4313Y-5.3031
X6.4962Y-2.7796
X6.4962Y-2.9686
X6.4981Y-5.1418
X6.4981Y-5.3308
X6.563Y-2.8073
X6.563Y-2.9409
X6.565Y-5.1695
X6.565Y-5.3031
X6.5907Y-2.8741
X6.5926Y-5.2363
T3
X6.511Y-3.3618
X6.561Y-3.4118
X6.611Y-3.3618
T4
X3.2894Y-3.3465
X3.2894Y-3.4686
X3.2894Y-3.5906
X3.2902Y-4.1517
X3.3071Y-3.695
X3.3071Y-3.8918
X3.5669Y-3.9784
X3.6083Y-3.7619
X3.6457Y-3.9784
X3.687Y-3.7619
X3.6894Y-3.3465
X3.6894Y-3.4686
X3.6894Y-3.5906
X3.6902Y-4.1517
X3.954Y-3.81
X4.0327Y-3.81
X4.0985Y-3.2181
X4.0985Y-3.3407
X4.0987Y-3.0956
X4.0992Y-2.9728
X4.1816Y-3.81
X4.2603Y-3.81
X4.3016Y-3.98
X4.3031Y-4.11
X4.4984Y-3.98
X4.4985Y-3.2181
X4.4985Y-3.3407
X4.4987Y-3.0956
X4.4992Y-2.9728
X4.5Y-4.11
X4.6261Y-3.8493
X4.6261Y-4.1493
X4.72Y-3.72
X4.72Y-3.84
X4.72Y-3.96
X4.8193Y-4.1342
X4.9193Y-4.1342
X5.0193Y-4.1342
X5.12Y-3.72
X5.12Y-3.84
X5.12Y-3.96
X5.2441Y-3.4016
X5.2441Y-3.5256
X5.2441Y-3.6516
X5.2441Y-3.7756
X5.2441Y-3.8996
X5.2441Y-4.0236
X5.2441Y-4.1496
X5.6441Y-3.4016
X5.6441Y-3.5256
X5.6441Y-3.6516
X5.6441Y-3.7756
X5.6441Y-3.8996
X5.6441Y-4.0236
X5.6441Y-4.1496
X5.7493Y-3.3937
X5.9461Y-3.3937
X6.13Y-3.3362
X6.13Y-3.415
T5
X3.0354Y-3.4291
X3.0354Y-3.5291
X3.0354Y-3.6291
X3.0354Y-3.7291
X3.0354Y-3.8291
X3.0354Y-3.9291
X3.0354Y-4.0291
X3.0354Y-4.1291
X3.0354Y-4.2291
X3.0354Y-4.3291
X3.0354Y-4.4291
X3.0354Y-4.5291
X3.0354Y-4.6291
X3.0354Y-4.7291
X3.0354Y-4.8291
X3.0354Y-4.9291
X3.3193Y-4.008
X3.4035Y-2.7657
X3.4193Y-4.008
X3.43Y-3.02
X3.5035Y-2.7657
X3.53Y-3.02
X3.6035Y-2.7657
X3.63Y-3.02
X3.7035Y-2.7657
X3.73Y-3.02
X3.8035Y-2.7657
X3.9035Y-2.7657
X3.9488Y-3.2874
X3.9488Y-3.5197
X4.6516Y-3.3406
X5.0906Y-2.9232
X5.3673Y-5.2362
X5.4673Y-5.2362
X5.5673Y-5.2362
X5.6673Y-5.2362
X6.2165Y-2.9213
T6
X5.252Y-2.8307
X5.252Y-3.0079
X5.5079Y-2.8307
X5.5079Y-3.0079
X5.811Y-2.8307
X5.811Y-3.0079
X6.0669Y-2.8307
X6.0669Y-3.0079
T7
X3.1497Y-2.8741
X3.1497Y-5.2363
X4.8229Y-2.8741
X4.8249Y-5.2363
X6.4962Y-2.8741
X6.4981Y-5.2363
T0
M30
