M48
; DRILL file {KiCad 7.0.9} date 
; FORMAT={-:-/ absolute / inch / decimal}
; #@! TF.CreationDate,2024-02-02T01:21:54+01:00
; #@! TF.GenerationSoftware,Kicad,Pcbnew,7.0.9
; #@! TF.FileFunction,Plated,1,2,PTH
FMAT,2
INCH
; #@! TA.AperFunction,Plated,PTH,ViaDrill
T1C0.0157
; #@! TA.AperFunction,Plated,PTH,ComponentDrill
T2C0.0197
; #@! TA.AperFunction,Plated,PTH,ComponentDrill
T3C0.0236
; #@! TA.AperFunction,Plated,PTH,ComponentDrill
T4C0.0295
; #@! TA.AperFunction,Plated,PTH,ComponentDrill
T5C0.0315
; #@! TA.AperFunction,Plated,PTH,ComponentDrill
T6C0.0394
; #@! TA.AperFunction,Plated,PTH,ComponentDrill
T7C0.0433
; #@! TA.AperFunction,Plated,PTH,ComponentDrill
T8C0.1260
%
G90
G05
T1
X3.2486Y-3.7681
X3.2605Y-4.2349
X3.3119Y-3.7681
X3.6425Y-3.6352
X4.0117Y-3.5791
X4.1052Y-3.97
X4.2622Y-4.1789
X4.3071Y-3.5505
X4.4344Y-3.4073
X4.6141Y-4.0467
X4.6476Y-3.6236
X4.7797Y-3.7255
X4.8233Y-4.195
X5.0639Y-3.9031
X5.6363Y-3.967
X5.7601Y-4.1921
X5.8239Y-4.33
X5.8336Y-3.9555
T2
X3.0551Y-2.874
X3.0551Y-5.2362
X3.0828Y-2.8072
X3.0828Y-2.9408
X3.0828Y-5.1694
X3.0828Y-5.303
X3.1496Y-2.7795
X3.1496Y-2.9685
X3.1496Y-5.1417
X3.1496Y-5.3307
X3.2164Y-2.8072
X3.2164Y-2.9408
X3.2164Y-5.1694
X3.2164Y-5.303
X3.2441Y-2.874
X3.2441Y-5.2362
X4.7283Y-2.874
X4.7303Y-5.2362
X4.756Y-2.8072
X4.756Y-2.9408
X4.758Y-5.1694
X4.758Y-5.303
X4.8228Y-2.7795
X4.8228Y-2.9685
X4.8248Y-5.1417
X4.8248Y-5.3307
X4.8896Y-2.8072
X4.8896Y-2.9408
X4.8916Y-5.1694
X4.8916Y-5.303
X4.9173Y-2.874
X4.9193Y-5.2362
X6.4016Y-2.874
X6.4035Y-5.2362
X6.4292Y-2.8072
X6.4292Y-2.9408
X6.4312Y-5.1694
X6.4312Y-5.303
X6.4961Y-2.7795
X6.4961Y-2.9685
X6.498Y-5.1417
X6.498Y-5.3307
X6.5629Y-2.8072
X6.5629Y-2.9408
X6.5648Y-5.1694
X6.5648Y-5.303
X6.5906Y-2.874
X6.5925Y-5.2362
T4
X5.0Y-4.1342
X5.05Y-4.1342
X5.1Y-4.1342
X6.4958Y-3.32
X6.4958Y-3.42
X6.5458Y-3.37
T5
X3.2894Y-3.3465
X3.2894Y-3.4686
X3.2894Y-3.5906
X3.2902Y-4.1517
X3.3071Y-3.695
X3.3071Y-3.8918
X3.5669Y-3.9784
X3.6083Y-3.7619
X3.6457Y-3.9784
X3.687Y-3.7619
X3.6894Y-3.3465
X3.6894Y-3.4686
X3.6894Y-3.5906
X3.6902Y-4.1517
X3.954Y-3.81
X4.0327Y-3.81
X4.0985Y-3.2181
X4.0985Y-3.3407
X4.0987Y-3.0956
X4.0992Y-2.9728
X4.1816Y-3.81
X4.2603Y-3.81
X4.3016Y-3.98
X4.3031Y-4.11
X4.4984Y-3.98
X4.4985Y-3.2181
X4.4985Y-3.3407
X4.4987Y-3.0956
X4.4992Y-2.9728
X4.5Y-4.11
X4.6261Y-3.8493
X4.6261Y-4.1493
X4.72Y-3.72
X4.72Y-3.84
X4.72Y-3.96
X5.12Y-3.72
X5.12Y-3.84
X5.12Y-3.96
X5.2461Y-3.906
X5.2461Y-4.028
X5.2461Y-4.1501
X5.2473Y-3.4139
X5.2473Y-3.5379
X5.2473Y-3.6599
X5.2473Y-3.782
X5.6461Y-3.906
X5.6461Y-4.028
X5.6461Y-4.1501
X5.6473Y-3.4139
X5.6473Y-3.5379
X5.6473Y-3.6599
X5.6473Y-3.782
X5.7493Y-3.426
X5.9461Y-3.426
X6.13Y-3.3362
X6.13Y-3.415
T6
X3.04Y-3.53
X3.04Y-3.63
X3.04Y-3.73
X3.04Y-3.83
X3.04Y-3.93
X3.04Y-4.03
X3.04Y-4.13
X3.04Y-4.23
X3.04Y-4.33
X3.04Y-4.43
X3.04Y-4.53
X3.04Y-4.63
X3.04Y-4.73
X3.04Y-4.83
X3.04Y-4.93
X3.3193Y-4.008
X3.4193Y-4.008
X3.43Y-2.77
X3.43Y-3.02
X3.53Y-2.77
X3.53Y-3.02
X3.63Y-2.77
X3.63Y-3.02
X3.73Y-2.77
X3.73Y-3.02
X3.83Y-2.77
X3.93Y-2.77
T7
X5.2561Y-2.8314
X5.2561Y-3.0086
X5.512Y-2.8314
X5.512Y-3.0086
X5.8741Y-2.8228
X5.8741Y-3.0
X6.13Y-2.8228
X6.13Y-3.0
T8
X3.1496Y-2.874
X3.1496Y-5.2362
X4.8228Y-2.874
X4.8248Y-5.2362
X6.4961Y-2.874
X6.498Y-5.2362
T2
G00X6.38Y-4.6403
M15
G01X6.38Y-4.6797
M16
G05
T3
G00X3.54Y-4.6403
M15
G01X3.54Y-4.6797
M16
G05
T0
M30
