G04 #@! TF.FileFunction,Copper,L1,Top,Signal*
%FSLAX46Y46*%
G04 Gerber Fmt 4.6, Leading zero omitted, Abs format (unit mm)*
G04 Created by KiCad (PCBNEW 4.0.6+dfsg1-1) date Thu Nov  9 23:11:41 2017*
%MOMM*%
%LPD*%
G01*
G04 APERTURE LIST*
%ADD10C,0.100000*%
%ADD11R,5.000000X5.000000*%
%ADD12R,1.600000X1.600000*%
%ADD13C,1.600000*%
%ADD14R,3.200000X3.200000*%
%ADD15O,3.200000X3.200000*%
%ADD16R,1.350000X1.350000*%
%ADD17O,1.350000X1.350000*%
%ADD18C,4.800000*%
%ADD19R,4.800000X4.800000*%
%ADD20O,1.600000X1.600000*%
%ADD21R,2.500000X1.100000*%
%ADD22O,2.500000X1.100000*%
%ADD23O,1.100000X2.500000*%
%ADD24O,0.899160X1.501140*%
%ADD25R,0.899160X1.501140*%
%ADD26C,0.250000*%
%ADD27C,0.254000*%
G04 APERTURE END LIST*
D10*
D11*
X158750000Y-105410000D03*
X92710000Y-105410000D03*
D12*
X115570000Y-90170000D03*
D13*
X118070000Y-90170000D03*
D14*
X99060000Y-92710000D03*
D15*
X91440000Y-92710000D03*
D16*
X105410000Y-77470000D03*
D17*
X107410000Y-77470000D03*
X109410000Y-77470000D03*
D18*
X97790000Y-78990000D03*
D19*
X97790000Y-85090000D03*
D18*
X92710000Y-81280000D03*
D13*
X130000000Y-85000000D03*
D20*
X130000000Y-74840000D03*
D13*
X125730000Y-74930000D03*
D20*
X125730000Y-85090000D03*
D13*
X121920000Y-85090000D03*
D20*
X121920000Y-74930000D03*
D13*
X118110000Y-85090000D03*
D20*
X118110000Y-74930000D03*
D13*
X120650000Y-88900000D03*
D20*
X130810000Y-88900000D03*
D12*
X104140000Y-81280000D03*
D20*
X111760000Y-83820000D03*
X104140000Y-83820000D03*
X111760000Y-81280000D03*
D12*
X104140000Y-88900000D03*
D20*
X111760000Y-91440000D03*
X104140000Y-91440000D03*
X111760000Y-88900000D03*
D21*
X134300000Y-80000000D03*
D22*
X134300000Y-82000000D03*
X134300000Y-84000000D03*
X134300000Y-86000000D03*
X134300000Y-88000000D03*
X134300000Y-90000000D03*
X134300000Y-92000000D03*
X134300000Y-94000000D03*
X149700000Y-94000000D03*
X149600000Y-92000000D03*
X149700000Y-90000000D03*
X149700000Y-88000000D03*
X149700000Y-86000000D03*
X149700000Y-84000000D03*
X149700000Y-82000000D03*
X149700000Y-80000000D03*
D23*
X136990000Y-95700000D03*
X138990000Y-95700000D03*
X140990000Y-95700000D03*
X142990000Y-95700000D03*
X144990000Y-95700000D03*
X146990000Y-95700000D03*
D24*
X156210000Y-76200000D03*
X157480000Y-76200000D03*
D25*
X154940000Y-76200000D03*
D26*
X102889700Y-78990000D02*
X104409700Y-77470000D01*
X97790000Y-78990000D02*
X102889700Y-78990000D01*
X105410000Y-77470000D02*
X104409700Y-77470000D01*
X119340000Y-88900000D02*
X118070000Y-90170000D01*
X120650000Y-88900000D02*
X119340000Y-88900000D01*
X116800000Y-88900000D02*
X118070000Y-90170000D01*
X111760000Y-88900000D02*
X116800000Y-88900000D01*
X137538500Y-85000000D02*
X130000000Y-85000000D01*
X141560600Y-80977900D02*
X137538500Y-85000000D01*
X153778000Y-80977900D02*
X141560600Y-80977900D01*
X157480000Y-77275900D02*
X153778000Y-80977900D01*
X157480000Y-76200000D02*
X157480000Y-77275900D01*
X109064700Y-79124700D02*
X107410000Y-77470000D01*
X147249400Y-79124700D02*
X109064700Y-79124700D01*
X148124700Y-80000000D02*
X147249400Y-79124700D01*
X149000000Y-80000000D02*
X148124700Y-80000000D01*
X106545300Y-80000000D02*
X105265300Y-81280000D01*
X135000000Y-80000000D02*
X106545300Y-80000000D01*
X104140000Y-81280000D02*
X105265300Y-81280000D01*
X104140000Y-88900000D02*
X105265300Y-88900000D01*
X125730000Y-85090000D02*
X124604700Y-85090000D01*
X106390600Y-87774700D02*
X105265300Y-88900000D01*
X112159600Y-87774700D02*
X106390600Y-87774700D01*
X116026000Y-83908300D02*
X112159600Y-87774700D01*
X123423000Y-83908300D02*
X116026000Y-83908300D01*
X124604700Y-85090000D02*
X123423000Y-83908300D01*
X142990000Y-95000000D02*
X142990000Y-94124700D01*
X127944400Y-91114400D02*
X121920000Y-85090000D01*
X139979700Y-91114400D02*
X127944400Y-91114400D01*
X142990000Y-94124700D02*
X139979700Y-91114400D01*
X144924700Y-88900000D02*
X130810000Y-88900000D01*
X148024700Y-92000000D02*
X144924700Y-88900000D01*
X149000000Y-92000000D02*
X148024700Y-92000000D01*
X127345400Y-105410000D02*
X158750000Y-105410000D01*
X111960800Y-90025400D02*
X127345400Y-105410000D01*
X97447800Y-90025400D02*
X111960800Y-90025400D01*
X92710000Y-85287600D02*
X97447800Y-90025400D01*
X92710000Y-81280000D02*
X92710000Y-85287600D01*
D27*
G36*
X90135552Y-82996943D02*
X90988566Y-83851447D01*
X91950000Y-84250670D01*
X91950000Y-85287600D01*
X92007852Y-85578439D01*
X92172599Y-85825001D01*
X96910399Y-90562801D01*
X97021917Y-90637315D01*
X97008559Y-90645910D01*
X96863569Y-90858110D01*
X96812560Y-91110000D01*
X96812560Y-94310000D01*
X96856838Y-94545317D01*
X96995910Y-94761441D01*
X97208110Y-94906431D01*
X97460000Y-94957440D01*
X100660000Y-94957440D01*
X100895317Y-94913162D01*
X101111441Y-94774090D01*
X101256431Y-94561890D01*
X101307440Y-94310000D01*
X101307440Y-91110000D01*
X101263162Y-90874683D01*
X101205710Y-90785400D01*
X102856579Y-90785400D01*
X102786120Y-90890849D01*
X102676887Y-91440000D01*
X102786120Y-91989151D01*
X103097189Y-92454698D01*
X103562736Y-92765767D01*
X104111887Y-92875000D01*
X104168113Y-92875000D01*
X104717264Y-92765767D01*
X105182811Y-92454698D01*
X105493880Y-91989151D01*
X105533684Y-91789039D01*
X110368096Y-91789039D01*
X110528959Y-92177423D01*
X110904866Y-92592389D01*
X111410959Y-92831914D01*
X111633000Y-92710629D01*
X111633000Y-91567000D01*
X110490085Y-91567000D01*
X110368096Y-91789039D01*
X105533684Y-91789039D01*
X105603113Y-91440000D01*
X105493880Y-90890849D01*
X105423421Y-90785400D01*
X110494655Y-90785400D01*
X110368096Y-91090961D01*
X110490085Y-91313000D01*
X111633000Y-91313000D01*
X111633000Y-91293000D01*
X111887000Y-91293000D01*
X111887000Y-91313000D01*
X111907000Y-91313000D01*
X111907000Y-91567000D01*
X111887000Y-91567000D01*
X111887000Y-92710629D01*
X112109041Y-92831914D01*
X112615134Y-92592389D01*
X112991041Y-92177423D01*
X113004800Y-92144202D01*
X126807999Y-105947401D01*
X127054561Y-106112148D01*
X127345400Y-106170000D01*
X155602560Y-106170000D01*
X155602560Y-107910000D01*
X155646838Y-108145317D01*
X155785910Y-108361441D01*
X155998110Y-108506431D01*
X156250000Y-108557440D01*
X161250000Y-108557440D01*
X161290000Y-108549913D01*
X161290000Y-115690000D01*
X89710000Y-115690000D01*
X89710000Y-108305635D01*
X89745910Y-108361441D01*
X89958110Y-108506431D01*
X90210000Y-108557440D01*
X95210000Y-108557440D01*
X95445317Y-108513162D01*
X95661441Y-108374090D01*
X95806431Y-108161890D01*
X95857440Y-107910000D01*
X95857440Y-102910000D01*
X95813162Y-102674683D01*
X95674090Y-102458559D01*
X95461890Y-102313569D01*
X95210000Y-102262560D01*
X90210000Y-102262560D01*
X89974683Y-102306838D01*
X89758559Y-102445910D01*
X89710000Y-102516978D01*
X89710000Y-94131998D01*
X89815830Y-94290384D01*
X90540917Y-94774871D01*
X91396214Y-94945000D01*
X91483786Y-94945000D01*
X92339083Y-94774871D01*
X93064170Y-94290384D01*
X93548657Y-93565297D01*
X93718786Y-92710000D01*
X93548657Y-91854703D01*
X93064170Y-91129616D01*
X92339083Y-90645129D01*
X91483786Y-90475000D01*
X91396214Y-90475000D01*
X90540917Y-90645129D01*
X89815830Y-91129616D01*
X89710000Y-91288002D01*
X89710000Y-81967029D01*
X90135552Y-82996943D01*
X90135552Y-82996943D01*
G37*
X90135552Y-82996943D02*
X90988566Y-83851447D01*
X91950000Y-84250670D01*
X91950000Y-85287600D01*
X92007852Y-85578439D01*
X92172599Y-85825001D01*
X96910399Y-90562801D01*
X97021917Y-90637315D01*
X97008559Y-90645910D01*
X96863569Y-90858110D01*
X96812560Y-91110000D01*
X96812560Y-94310000D01*
X96856838Y-94545317D01*
X96995910Y-94761441D01*
X97208110Y-94906431D01*
X97460000Y-94957440D01*
X100660000Y-94957440D01*
X100895317Y-94913162D01*
X101111441Y-94774090D01*
X101256431Y-94561890D01*
X101307440Y-94310000D01*
X101307440Y-91110000D01*
X101263162Y-90874683D01*
X101205710Y-90785400D01*
X102856579Y-90785400D01*
X102786120Y-90890849D01*
X102676887Y-91440000D01*
X102786120Y-91989151D01*
X103097189Y-92454698D01*
X103562736Y-92765767D01*
X104111887Y-92875000D01*
X104168113Y-92875000D01*
X104717264Y-92765767D01*
X105182811Y-92454698D01*
X105493880Y-91989151D01*
X105533684Y-91789039D01*
X110368096Y-91789039D01*
X110528959Y-92177423D01*
X110904866Y-92592389D01*
X111410959Y-92831914D01*
X111633000Y-92710629D01*
X111633000Y-91567000D01*
X110490085Y-91567000D01*
X110368096Y-91789039D01*
X105533684Y-91789039D01*
X105603113Y-91440000D01*
X105493880Y-90890849D01*
X105423421Y-90785400D01*
X110494655Y-90785400D01*
X110368096Y-91090961D01*
X110490085Y-91313000D01*
X111633000Y-91313000D01*
X111633000Y-91293000D01*
X111887000Y-91293000D01*
X111887000Y-91313000D01*
X111907000Y-91313000D01*
X111907000Y-91567000D01*
X111887000Y-91567000D01*
X111887000Y-92710629D01*
X112109041Y-92831914D01*
X112615134Y-92592389D01*
X112991041Y-92177423D01*
X113004800Y-92144202D01*
X126807999Y-105947401D01*
X127054561Y-106112148D01*
X127345400Y-106170000D01*
X155602560Y-106170000D01*
X155602560Y-107910000D01*
X155646838Y-108145317D01*
X155785910Y-108361441D01*
X155998110Y-108506431D01*
X156250000Y-108557440D01*
X161250000Y-108557440D01*
X161290000Y-108549913D01*
X161290000Y-115690000D01*
X89710000Y-115690000D01*
X89710000Y-108305635D01*
X89745910Y-108361441D01*
X89958110Y-108506431D01*
X90210000Y-108557440D01*
X95210000Y-108557440D01*
X95445317Y-108513162D01*
X95661441Y-108374090D01*
X95806431Y-108161890D01*
X95857440Y-107910000D01*
X95857440Y-102910000D01*
X95813162Y-102674683D01*
X95674090Y-102458559D01*
X95461890Y-102313569D01*
X95210000Y-102262560D01*
X90210000Y-102262560D01*
X89974683Y-102306838D01*
X89758559Y-102445910D01*
X89710000Y-102516978D01*
X89710000Y-94131998D01*
X89815830Y-94290384D01*
X90540917Y-94774871D01*
X91396214Y-94945000D01*
X91483786Y-94945000D01*
X92339083Y-94774871D01*
X93064170Y-94290384D01*
X93548657Y-93565297D01*
X93718786Y-92710000D01*
X93548657Y-91854703D01*
X93064170Y-91129616D01*
X92339083Y-90645129D01*
X91483786Y-90475000D01*
X91396214Y-90475000D01*
X90540917Y-90645129D01*
X89815830Y-91129616D01*
X89710000Y-91288002D01*
X89710000Y-81967029D01*
X90135552Y-82996943D01*
G36*
X132273000Y-78000000D02*
X132281685Y-78046159D01*
X132282652Y-78047662D01*
X132283006Y-78049410D01*
X132296248Y-78068791D01*
X132308965Y-78088553D01*
X132310440Y-78089560D01*
X132311447Y-78091035D01*
X132331209Y-78103752D01*
X132350590Y-78116994D01*
X132352338Y-78117348D01*
X132353841Y-78118315D01*
X132400000Y-78127000D01*
X151700000Y-78127000D01*
X151746159Y-78118315D01*
X151747662Y-78117348D01*
X151749410Y-78116994D01*
X151768791Y-78103752D01*
X151788553Y-78091035D01*
X151789560Y-78089560D01*
X151791035Y-78088553D01*
X151803752Y-78068791D01*
X151816994Y-78049410D01*
X151817348Y-78047662D01*
X151818315Y-78046159D01*
X151827000Y-78000000D01*
X151827000Y-76485750D01*
X153855420Y-76485750D01*
X153855420Y-77076880D01*
X153952093Y-77310269D01*
X154130722Y-77488897D01*
X154364111Y-77585570D01*
X154654250Y-77585570D01*
X154813000Y-77426820D01*
X154813000Y-76327000D01*
X154014170Y-76327000D01*
X153855420Y-76485750D01*
X151827000Y-76485750D01*
X151827000Y-75323120D01*
X153855420Y-75323120D01*
X153855420Y-75914250D01*
X154014170Y-76073000D01*
X154813000Y-76073000D01*
X154813000Y-74973180D01*
X154654250Y-74814430D01*
X154364111Y-74814430D01*
X154130722Y-74911103D01*
X153952093Y-75089731D01*
X153855420Y-75323120D01*
X151827000Y-75323120D01*
X151827000Y-71110000D01*
X161290000Y-71110000D01*
X161290000Y-102270660D01*
X161250000Y-102262560D01*
X156250000Y-102262560D01*
X156014683Y-102306838D01*
X155798559Y-102445910D01*
X155653569Y-102658110D01*
X155602560Y-102910000D01*
X155602560Y-104650000D01*
X127660202Y-104650000D01*
X114591494Y-91581292D01*
X114770000Y-91617440D01*
X116370000Y-91617440D01*
X116605317Y-91573162D01*
X116821441Y-91434090D01*
X116966431Y-91221890D01*
X116975370Y-91177745D01*
X117241861Y-91177745D01*
X117315995Y-91423864D01*
X117853223Y-91616965D01*
X118423454Y-91589778D01*
X118824005Y-91423864D01*
X118898139Y-91177745D01*
X118070000Y-90349605D01*
X117241861Y-91177745D01*
X116975370Y-91177745D01*
X117014646Y-90983799D01*
X117062255Y-90998139D01*
X117890395Y-90170000D01*
X118249605Y-90170000D01*
X119077745Y-90998139D01*
X119323864Y-90924005D01*
X119516965Y-90386777D01*
X119494127Y-89907745D01*
X119821861Y-89907745D01*
X119895995Y-90153864D01*
X120433223Y-90346965D01*
X121003454Y-90319778D01*
X121404005Y-90153864D01*
X121478139Y-89907745D01*
X120650000Y-89079605D01*
X119821861Y-89907745D01*
X119494127Y-89907745D01*
X119489778Y-89816546D01*
X119426202Y-89663061D01*
X119642255Y-89728139D01*
X120470395Y-88900000D01*
X120829605Y-88900000D01*
X121657745Y-89728139D01*
X121903864Y-89654005D01*
X122096965Y-89116777D01*
X122069778Y-88546546D01*
X121903864Y-88145995D01*
X121657745Y-88071861D01*
X120829605Y-88900000D01*
X120470395Y-88900000D01*
X119642255Y-88071861D01*
X119396136Y-88145995D01*
X119203035Y-88683223D01*
X119230222Y-89253454D01*
X119293798Y-89406939D01*
X119077745Y-89341861D01*
X118249605Y-90170000D01*
X117890395Y-90170000D01*
X117062255Y-89341861D01*
X117014833Y-89356145D01*
X116978351Y-89162255D01*
X117241861Y-89162255D01*
X118070000Y-89990395D01*
X118898139Y-89162255D01*
X118824005Y-88916136D01*
X118286777Y-88723035D01*
X117716546Y-88750222D01*
X117315995Y-88916136D01*
X117241861Y-89162255D01*
X116978351Y-89162255D01*
X116973162Y-89134683D01*
X116834090Y-88918559D01*
X116621890Y-88773569D01*
X116370000Y-88722560D01*
X114770000Y-88722560D01*
X114534683Y-88766838D01*
X114318559Y-88905910D01*
X114173569Y-89118110D01*
X114122560Y-89370000D01*
X114122560Y-90970000D01*
X114155555Y-91145353D01*
X112827813Y-89817611D01*
X112991041Y-89637423D01*
X113151904Y-89249039D01*
X113029915Y-89027000D01*
X111887000Y-89027000D01*
X111887000Y-89047000D01*
X111633000Y-89047000D01*
X111633000Y-89027000D01*
X110490085Y-89027000D01*
X110368096Y-89249039D01*
X110374872Y-89265400D01*
X105974702Y-89265400D01*
X106705402Y-88534700D01*
X110374831Y-88534700D01*
X110368096Y-88550961D01*
X110490085Y-88773000D01*
X111633000Y-88773000D01*
X111633000Y-88753000D01*
X111887000Y-88753000D01*
X111887000Y-88773000D01*
X113029915Y-88773000D01*
X113151904Y-88550961D01*
X112991041Y-88162577D01*
X112922352Y-88086750D01*
X113116847Y-87892255D01*
X119821861Y-87892255D01*
X120650000Y-88720395D01*
X121478139Y-87892255D01*
X121404005Y-87646136D01*
X120866777Y-87453035D01*
X120296546Y-87480222D01*
X119895995Y-87646136D01*
X119821861Y-87892255D01*
X113116847Y-87892255D01*
X116340802Y-84668300D01*
X116731311Y-84668300D01*
X116675250Y-84803309D01*
X116674752Y-85374187D01*
X116892757Y-85901800D01*
X117296077Y-86305824D01*
X117823309Y-86524750D01*
X118394187Y-86525248D01*
X118921800Y-86307243D01*
X119325824Y-85903923D01*
X119544750Y-85376691D01*
X119545248Y-84805813D01*
X119488429Y-84668300D01*
X120541311Y-84668300D01*
X120485250Y-84803309D01*
X120484752Y-85374187D01*
X120702757Y-85901800D01*
X121106077Y-86305824D01*
X121633309Y-86524750D01*
X122204187Y-86525248D01*
X122258149Y-86502951D01*
X127406999Y-91651801D01*
X127653560Y-91816548D01*
X127944400Y-91874400D01*
X132403054Y-91874400D01*
X132378071Y-92000000D01*
X132468274Y-92453480D01*
X132725149Y-92837922D01*
X132967717Y-93000000D01*
X132725149Y-93162078D01*
X132468274Y-93546520D01*
X132378071Y-94000000D01*
X132468274Y-94453480D01*
X132725149Y-94837922D01*
X133109591Y-95094797D01*
X133563071Y-95185000D01*
X135036929Y-95185000D01*
X135490409Y-95094797D01*
X135823003Y-94872566D01*
X135805000Y-94963071D01*
X135805000Y-96436929D01*
X135895203Y-96890409D01*
X136152078Y-97274851D01*
X136536520Y-97531726D01*
X136990000Y-97621929D01*
X137443480Y-97531726D01*
X137827922Y-97274851D01*
X137990000Y-97032283D01*
X138152078Y-97274851D01*
X138536520Y-97531726D01*
X138990000Y-97621929D01*
X139443480Y-97531726D01*
X139827922Y-97274851D01*
X139990000Y-97032283D01*
X140152078Y-97274851D01*
X140536520Y-97531726D01*
X140990000Y-97621929D01*
X141443480Y-97531726D01*
X141827922Y-97274851D01*
X141990000Y-97032283D01*
X142152078Y-97274851D01*
X142536520Y-97531726D01*
X142990000Y-97621929D01*
X143443480Y-97531726D01*
X143827922Y-97274851D01*
X143990000Y-97032283D01*
X144152078Y-97274851D01*
X144536520Y-97531726D01*
X144990000Y-97621929D01*
X145443480Y-97531726D01*
X145827922Y-97274851D01*
X145990000Y-97032283D01*
X146152078Y-97274851D01*
X146536520Y-97531726D01*
X146990000Y-97621929D01*
X147443480Y-97531726D01*
X147827922Y-97274851D01*
X148084797Y-96890409D01*
X148175000Y-96436929D01*
X148175000Y-94963071D01*
X148144190Y-94808177D01*
X148429187Y-95046196D01*
X148873000Y-95185000D01*
X149573000Y-95185000D01*
X149573000Y-94127000D01*
X149827000Y-94127000D01*
X149827000Y-95185000D01*
X150527000Y-95185000D01*
X150970813Y-95046196D01*
X151327724Y-94748118D01*
X151543398Y-94336146D01*
X151543803Y-94309744D01*
X151418361Y-94127000D01*
X149827000Y-94127000D01*
X149573000Y-94127000D01*
X147981639Y-94127000D01*
X147904371Y-94239564D01*
X147827922Y-94125149D01*
X147443480Y-93868274D01*
X146990000Y-93778071D01*
X146536520Y-93868274D01*
X146152078Y-94125149D01*
X145990000Y-94367717D01*
X145827922Y-94125149D01*
X145443480Y-93868274D01*
X144990000Y-93778071D01*
X144536520Y-93868274D01*
X144152078Y-94125149D01*
X143990000Y-94367717D01*
X143827922Y-94125149D01*
X143738159Y-94065171D01*
X143692148Y-93833861D01*
X143527401Y-93587299D01*
X140517101Y-90576999D01*
X140270539Y-90412252D01*
X139979700Y-90354400D01*
X136151434Y-90354400D01*
X136221929Y-90000000D01*
X136154299Y-89660000D01*
X144609898Y-89660000D01*
X147487299Y-92537401D01*
X147733861Y-92702148D01*
X147965171Y-92748159D01*
X148025149Y-92837922D01*
X148326691Y-93039405D01*
X148072276Y-93251882D01*
X147856602Y-93663854D01*
X147856197Y-93690256D01*
X147981639Y-93873000D01*
X149573000Y-93873000D01*
X149573000Y-93853000D01*
X149827000Y-93853000D01*
X149827000Y-93873000D01*
X151418361Y-93873000D01*
X151543803Y-93690256D01*
X151543398Y-93663854D01*
X151327724Y-93251882D01*
X150984417Y-92965165D01*
X151174851Y-92837922D01*
X151431726Y-92453480D01*
X151521929Y-92000000D01*
X151431726Y-91546520D01*
X151174851Y-91162078D01*
X150982283Y-91033409D01*
X151274851Y-90837922D01*
X151531726Y-90453480D01*
X151621929Y-90000000D01*
X151531726Y-89546520D01*
X151274851Y-89162078D01*
X151032283Y-89000000D01*
X151274851Y-88837922D01*
X151531726Y-88453480D01*
X151621929Y-88000000D01*
X151531726Y-87546520D01*
X151274851Y-87162078D01*
X151032283Y-87000000D01*
X151274851Y-86837922D01*
X151531726Y-86453480D01*
X151621929Y-86000000D01*
X151531726Y-85546520D01*
X151274851Y-85162078D01*
X151032283Y-85000000D01*
X151274851Y-84837922D01*
X151531726Y-84453480D01*
X151621929Y-84000000D01*
X151531726Y-83546520D01*
X151274851Y-83162078D01*
X151032283Y-83000000D01*
X151274851Y-82837922D01*
X151531726Y-82453480D01*
X151621929Y-82000000D01*
X151569794Y-81737900D01*
X153778000Y-81737900D01*
X154068839Y-81680048D01*
X154315401Y-81515301D01*
X158017401Y-77813301D01*
X158182148Y-77566739D01*
X158234547Y-77303312D01*
X158246914Y-77295049D01*
X158482021Y-76943186D01*
X158564580Y-76528135D01*
X158564580Y-75871865D01*
X158482021Y-75456814D01*
X158246914Y-75104951D01*
X157895051Y-74869844D01*
X157480000Y-74787285D01*
X157064949Y-74869844D01*
X156845000Y-75016809D01*
X156625051Y-74869844D01*
X156210000Y-74787285D01*
X155794949Y-74869844D01*
X155739353Y-74906992D01*
X155515889Y-74814430D01*
X155225750Y-74814430D01*
X155067000Y-74973180D01*
X155067000Y-76073000D01*
X155087000Y-76073000D01*
X155087000Y-76327000D01*
X155067000Y-76327000D01*
X155067000Y-77426820D01*
X155225750Y-77585570D01*
X155515889Y-77585570D01*
X155739353Y-77493008D01*
X155794949Y-77530156D01*
X156091879Y-77589219D01*
X153463198Y-80217900D01*
X151578586Y-80217900D01*
X151621929Y-80000000D01*
X151531726Y-79546520D01*
X151274851Y-79162078D01*
X150890409Y-78905203D01*
X150436929Y-78815000D01*
X148963071Y-78815000D01*
X148509591Y-78905203D01*
X148266879Y-79067377D01*
X147786801Y-78587299D01*
X147540239Y-78422552D01*
X147249400Y-78364700D01*
X110374579Y-78364700D01*
X110620282Y-77996979D01*
X110720000Y-77495664D01*
X110720000Y-77444336D01*
X110620282Y-76943021D01*
X110336310Y-76518026D01*
X109911315Y-76234054D01*
X109410000Y-76134336D01*
X108908685Y-76234054D01*
X108483690Y-76518026D01*
X108410000Y-76628311D01*
X108336310Y-76518026D01*
X107911315Y-76234054D01*
X107410000Y-76134336D01*
X106908685Y-76234054D01*
X106616986Y-76428961D01*
X106444699Y-76256673D01*
X106211310Y-76160000D01*
X105695750Y-76160000D01*
X105537000Y-76318750D01*
X105537000Y-77343000D01*
X105557000Y-77343000D01*
X105557000Y-77597000D01*
X105537000Y-77597000D01*
X105537000Y-78621250D01*
X105695750Y-78780000D01*
X106211310Y-78780000D01*
X106444699Y-78683327D01*
X106616986Y-78511039D01*
X106908685Y-78705946D01*
X107410000Y-78805664D01*
X107627582Y-78762384D01*
X108105198Y-79240000D01*
X106545300Y-79240000D01*
X106254460Y-79297852D01*
X106007899Y-79462599D01*
X105418909Y-80051589D01*
X105404090Y-80028559D01*
X105191890Y-79883569D01*
X104940000Y-79832560D01*
X103340000Y-79832560D01*
X103104683Y-79876838D01*
X102888559Y-80015910D01*
X102743569Y-80228110D01*
X102692560Y-80480000D01*
X102692560Y-82080000D01*
X102736838Y-82315317D01*
X102875910Y-82531441D01*
X103088110Y-82676431D01*
X103243089Y-82707815D01*
X103097189Y-82805302D01*
X102786120Y-83270849D01*
X102676887Y-83820000D01*
X102786120Y-84369151D01*
X103097189Y-84834698D01*
X103562736Y-85145767D01*
X104111887Y-85255000D01*
X104168113Y-85255000D01*
X104717264Y-85145767D01*
X105182811Y-84834698D01*
X105493880Y-84369151D01*
X105533684Y-84169039D01*
X110368096Y-84169039D01*
X110528959Y-84557423D01*
X110904866Y-84972389D01*
X111410959Y-85211914D01*
X111633000Y-85090629D01*
X111633000Y-83947000D01*
X111887000Y-83947000D01*
X111887000Y-85090629D01*
X112109041Y-85211914D01*
X112615134Y-84972389D01*
X112991041Y-84557423D01*
X113151904Y-84169039D01*
X113029915Y-83947000D01*
X111887000Y-83947000D01*
X111633000Y-83947000D01*
X110490085Y-83947000D01*
X110368096Y-84169039D01*
X105533684Y-84169039D01*
X105603113Y-83820000D01*
X105493880Y-83270849D01*
X105182811Y-82805302D01*
X105038535Y-82708899D01*
X105175317Y-82683162D01*
X105391441Y-82544090D01*
X105536431Y-82331890D01*
X105587440Y-82080000D01*
X105587440Y-81961233D01*
X105802701Y-81817401D01*
X105991063Y-81629039D01*
X110368096Y-81629039D01*
X110528959Y-82017423D01*
X110904866Y-82432389D01*
X111153367Y-82550000D01*
X110904866Y-82667611D01*
X110528959Y-83082577D01*
X110368096Y-83470961D01*
X110490085Y-83693000D01*
X111633000Y-83693000D01*
X111633000Y-81407000D01*
X111887000Y-81407000D01*
X111887000Y-83693000D01*
X113029915Y-83693000D01*
X113151904Y-83470961D01*
X112991041Y-83082577D01*
X112615134Y-82667611D01*
X112366633Y-82550000D01*
X112615134Y-82432389D01*
X112991041Y-82017423D01*
X113151904Y-81629039D01*
X113029915Y-81407000D01*
X111887000Y-81407000D01*
X111633000Y-81407000D01*
X110490085Y-81407000D01*
X110368096Y-81629039D01*
X105991063Y-81629039D01*
X106860102Y-80760000D01*
X110438906Y-80760000D01*
X110368096Y-80930961D01*
X110490085Y-81153000D01*
X111633000Y-81153000D01*
X111633000Y-81133000D01*
X111887000Y-81133000D01*
X111887000Y-81153000D01*
X113029915Y-81153000D01*
X113151904Y-80930961D01*
X113081094Y-80760000D01*
X132442074Y-80760000D01*
X132446838Y-80785317D01*
X132585910Y-81001441D01*
X132773615Y-81129694D01*
X132725149Y-81162078D01*
X132468274Y-81546520D01*
X132378071Y-82000000D01*
X132468274Y-82453480D01*
X132725149Y-82837922D01*
X132967717Y-83000000D01*
X132725149Y-83162078D01*
X132468274Y-83546520D01*
X132378071Y-84000000D01*
X132425810Y-84240000D01*
X131238646Y-84240000D01*
X131217243Y-84188200D01*
X130813923Y-83784176D01*
X130286691Y-83565250D01*
X129715813Y-83564752D01*
X129188200Y-83782757D01*
X128784176Y-84186077D01*
X128565250Y-84713309D01*
X128564752Y-85284187D01*
X128782757Y-85811800D01*
X129186077Y-86215824D01*
X129713309Y-86434750D01*
X130284187Y-86435248D01*
X130811800Y-86217243D01*
X131215824Y-85813923D01*
X131238215Y-85760000D01*
X132425810Y-85760000D01*
X132378071Y-86000000D01*
X132468274Y-86453480D01*
X132725149Y-86837922D01*
X132967717Y-87000000D01*
X132725149Y-87162078D01*
X132468274Y-87546520D01*
X132378071Y-88000000D01*
X132405919Y-88140000D01*
X132022995Y-88140000D01*
X131852811Y-87885302D01*
X131387264Y-87574233D01*
X130838113Y-87465000D01*
X130781887Y-87465000D01*
X130232736Y-87574233D01*
X129767189Y-87885302D01*
X129456120Y-88350849D01*
X129346887Y-88900000D01*
X129456120Y-89449151D01*
X129767189Y-89914698D01*
X130232736Y-90225767D01*
X130781887Y-90335000D01*
X130838113Y-90335000D01*
X131387264Y-90225767D01*
X131852811Y-89914698D01*
X132022995Y-89660000D01*
X132445701Y-89660000D01*
X132378071Y-90000000D01*
X132448566Y-90354400D01*
X128259202Y-90354400D01*
X123333256Y-85428454D01*
X123354750Y-85376691D01*
X123355153Y-84915255D01*
X124067299Y-85627401D01*
X124313860Y-85792148D01*
X124514321Y-85832022D01*
X124715302Y-86132811D01*
X125180849Y-86443880D01*
X125730000Y-86553113D01*
X126279151Y-86443880D01*
X126744698Y-86132811D01*
X127055767Y-85667264D01*
X127165000Y-85118113D01*
X127165000Y-85061887D01*
X127055767Y-84512736D01*
X126744698Y-84047189D01*
X126279151Y-83736120D01*
X125730000Y-83626887D01*
X125180849Y-83736120D01*
X124715302Y-84047189D01*
X124683815Y-84094313D01*
X123960401Y-83370899D01*
X123713839Y-83206152D01*
X123423000Y-83148300D01*
X116026000Y-83148300D01*
X115735160Y-83206152D01*
X115488599Y-83370899D01*
X111844798Y-87014700D01*
X106390600Y-87014700D01*
X106099761Y-87072552D01*
X105853199Y-87237299D01*
X105418909Y-87671589D01*
X105404090Y-87648559D01*
X105191890Y-87503569D01*
X104940000Y-87452560D01*
X103340000Y-87452560D01*
X103104683Y-87496838D01*
X102888559Y-87635910D01*
X102743569Y-87848110D01*
X102692560Y-88100000D01*
X102692560Y-89265400D01*
X97762602Y-89265400D01*
X96634642Y-88137440D01*
X100190000Y-88137440D01*
X100425317Y-88093162D01*
X100641441Y-87954090D01*
X100786431Y-87741890D01*
X100837440Y-87490000D01*
X100837440Y-82690000D01*
X100793162Y-82454683D01*
X100654090Y-82238559D01*
X100441890Y-82093569D01*
X100190000Y-82042560D01*
X95679607Y-82042560D01*
X95744472Y-81886347D01*
X95745058Y-81214550D01*
X95805887Y-81153721D01*
X96075400Y-81566010D01*
X97191713Y-82026072D01*
X98399109Y-82023919D01*
X99504600Y-81566010D01*
X99774114Y-81153719D01*
X97790000Y-79169605D01*
X97775858Y-79183748D01*
X97596253Y-79004143D01*
X97610395Y-78990000D01*
X97969605Y-78990000D01*
X99953719Y-80974114D01*
X100366010Y-80704600D01*
X100826072Y-79588287D01*
X100823919Y-78380891D01*
X100564978Y-77755750D01*
X104100000Y-77755750D01*
X104100000Y-78271309D01*
X104196673Y-78504698D01*
X104375301Y-78683327D01*
X104608690Y-78780000D01*
X105124250Y-78780000D01*
X105283000Y-78621250D01*
X105283000Y-77597000D01*
X104258750Y-77597000D01*
X104100000Y-77755750D01*
X100564978Y-77755750D01*
X100366010Y-77275400D01*
X99953719Y-77005886D01*
X97969605Y-78990000D01*
X97610395Y-78990000D01*
X95626281Y-77005886D01*
X95213990Y-77275400D01*
X94753928Y-78391713D01*
X94755071Y-79032755D01*
X94431434Y-78708553D01*
X93316347Y-78245528D01*
X92108950Y-78244474D01*
X90993057Y-78705552D01*
X90138553Y-79558566D01*
X89710000Y-80590635D01*
X89710000Y-76826281D01*
X95805886Y-76826281D01*
X97790000Y-78810395D01*
X99774114Y-76826281D01*
X99671098Y-76668691D01*
X104100000Y-76668691D01*
X104100000Y-77184250D01*
X104258750Y-77343000D01*
X105283000Y-77343000D01*
X105283000Y-76318750D01*
X105124250Y-76160000D01*
X104608690Y-76160000D01*
X104375301Y-76256673D01*
X104196673Y-76435302D01*
X104100000Y-76668691D01*
X99671098Y-76668691D01*
X99504600Y-76413990D01*
X98388287Y-75953928D01*
X97180891Y-75956081D01*
X96075400Y-76413990D01*
X95805886Y-76826281D01*
X89710000Y-76826281D01*
X89710000Y-74901887D01*
X116675000Y-74901887D01*
X116675000Y-74958113D01*
X116784233Y-75507264D01*
X117095302Y-75972811D01*
X117560849Y-76283880D01*
X118110000Y-76393113D01*
X118659151Y-76283880D01*
X119124698Y-75972811D01*
X119435767Y-75507264D01*
X119545000Y-74958113D01*
X119545000Y-74901887D01*
X120485000Y-74901887D01*
X120485000Y-74958113D01*
X120594233Y-75507264D01*
X120905302Y-75972811D01*
X121370849Y-76283880D01*
X121920000Y-76393113D01*
X122469151Y-76283880D01*
X122934698Y-75972811D01*
X123245767Y-75507264D01*
X123304063Y-75214187D01*
X124294752Y-75214187D01*
X124512757Y-75741800D01*
X124916077Y-76145824D01*
X125443309Y-76364750D01*
X126014187Y-76365248D01*
X126541800Y-76147243D01*
X126945824Y-75743923D01*
X127164750Y-75216691D01*
X127165103Y-74811887D01*
X128565000Y-74811887D01*
X128565000Y-74868113D01*
X128674233Y-75417264D01*
X128985302Y-75882811D01*
X129450849Y-76193880D01*
X130000000Y-76303113D01*
X130549151Y-76193880D01*
X131014698Y-75882811D01*
X131325767Y-75417264D01*
X131435000Y-74868113D01*
X131435000Y-74811887D01*
X131325767Y-74262736D01*
X131014698Y-73797189D01*
X130549151Y-73486120D01*
X130000000Y-73376887D01*
X129450849Y-73486120D01*
X128985302Y-73797189D01*
X128674233Y-74262736D01*
X128565000Y-74811887D01*
X127165103Y-74811887D01*
X127165248Y-74645813D01*
X126947243Y-74118200D01*
X126543923Y-73714176D01*
X126016691Y-73495250D01*
X125445813Y-73494752D01*
X124918200Y-73712757D01*
X124514176Y-74116077D01*
X124295250Y-74643309D01*
X124294752Y-75214187D01*
X123304063Y-75214187D01*
X123355000Y-74958113D01*
X123355000Y-74901887D01*
X123245767Y-74352736D01*
X122934698Y-73887189D01*
X122469151Y-73576120D01*
X121920000Y-73466887D01*
X121370849Y-73576120D01*
X120905302Y-73887189D01*
X120594233Y-74352736D01*
X120485000Y-74901887D01*
X119545000Y-74901887D01*
X119435767Y-74352736D01*
X119124698Y-73887189D01*
X118659151Y-73576120D01*
X118110000Y-73466887D01*
X117560849Y-73576120D01*
X117095302Y-73887189D01*
X116784233Y-74352736D01*
X116675000Y-74901887D01*
X89710000Y-74901887D01*
X89710000Y-71110000D01*
X132273000Y-71110000D01*
X132273000Y-78000000D01*
X132273000Y-78000000D01*
G37*
X132273000Y-78000000D02*
X132281685Y-78046159D01*
X132282652Y-78047662D01*
X132283006Y-78049410D01*
X132296248Y-78068791D01*
X132308965Y-78088553D01*
X132310440Y-78089560D01*
X132311447Y-78091035D01*
X132331209Y-78103752D01*
X132350590Y-78116994D01*
X132352338Y-78117348D01*
X132353841Y-78118315D01*
X132400000Y-78127000D01*
X151700000Y-78127000D01*
X151746159Y-78118315D01*
X151747662Y-78117348D01*
X151749410Y-78116994D01*
X151768791Y-78103752D01*
X151788553Y-78091035D01*
X151789560Y-78089560D01*
X151791035Y-78088553D01*
X151803752Y-78068791D01*
X151816994Y-78049410D01*
X151817348Y-78047662D01*
X151818315Y-78046159D01*
X151827000Y-78000000D01*
X151827000Y-76485750D01*
X153855420Y-76485750D01*
X153855420Y-77076880D01*
X153952093Y-77310269D01*
X154130722Y-77488897D01*
X154364111Y-77585570D01*
X154654250Y-77585570D01*
X154813000Y-77426820D01*
X154813000Y-76327000D01*
X154014170Y-76327000D01*
X153855420Y-76485750D01*
X151827000Y-76485750D01*
X151827000Y-75323120D01*
X153855420Y-75323120D01*
X153855420Y-75914250D01*
X154014170Y-76073000D01*
X154813000Y-76073000D01*
X154813000Y-74973180D01*
X154654250Y-74814430D01*
X154364111Y-74814430D01*
X154130722Y-74911103D01*
X153952093Y-75089731D01*
X153855420Y-75323120D01*
X151827000Y-75323120D01*
X151827000Y-71110000D01*
X161290000Y-71110000D01*
X161290000Y-102270660D01*
X161250000Y-102262560D01*
X156250000Y-102262560D01*
X156014683Y-102306838D01*
X155798559Y-102445910D01*
X155653569Y-102658110D01*
X155602560Y-102910000D01*
X155602560Y-104650000D01*
X127660202Y-104650000D01*
X114591494Y-91581292D01*
X114770000Y-91617440D01*
X116370000Y-91617440D01*
X116605317Y-91573162D01*
X116821441Y-91434090D01*
X116966431Y-91221890D01*
X116975370Y-91177745D01*
X117241861Y-91177745D01*
X117315995Y-91423864D01*
X117853223Y-91616965D01*
X118423454Y-91589778D01*
X118824005Y-91423864D01*
X118898139Y-91177745D01*
X118070000Y-90349605D01*
X117241861Y-91177745D01*
X116975370Y-91177745D01*
X117014646Y-90983799D01*
X117062255Y-90998139D01*
X117890395Y-90170000D01*
X118249605Y-90170000D01*
X119077745Y-90998139D01*
X119323864Y-90924005D01*
X119516965Y-90386777D01*
X119494127Y-89907745D01*
X119821861Y-89907745D01*
X119895995Y-90153864D01*
X120433223Y-90346965D01*
X121003454Y-90319778D01*
X121404005Y-90153864D01*
X121478139Y-89907745D01*
X120650000Y-89079605D01*
X119821861Y-89907745D01*
X119494127Y-89907745D01*
X119489778Y-89816546D01*
X119426202Y-89663061D01*
X119642255Y-89728139D01*
X120470395Y-88900000D01*
X120829605Y-88900000D01*
X121657745Y-89728139D01*
X121903864Y-89654005D01*
X122096965Y-89116777D01*
X122069778Y-88546546D01*
X121903864Y-88145995D01*
X121657745Y-88071861D01*
X120829605Y-88900000D01*
X120470395Y-88900000D01*
X119642255Y-88071861D01*
X119396136Y-88145995D01*
X119203035Y-88683223D01*
X119230222Y-89253454D01*
X119293798Y-89406939D01*
X119077745Y-89341861D01*
X118249605Y-90170000D01*
X117890395Y-90170000D01*
X117062255Y-89341861D01*
X117014833Y-89356145D01*
X116978351Y-89162255D01*
X117241861Y-89162255D01*
X118070000Y-89990395D01*
X118898139Y-89162255D01*
X118824005Y-88916136D01*
X118286777Y-88723035D01*
X117716546Y-88750222D01*
X117315995Y-88916136D01*
X117241861Y-89162255D01*
X116978351Y-89162255D01*
X116973162Y-89134683D01*
X116834090Y-88918559D01*
X116621890Y-88773569D01*
X116370000Y-88722560D01*
X114770000Y-88722560D01*
X114534683Y-88766838D01*
X114318559Y-88905910D01*
X114173569Y-89118110D01*
X114122560Y-89370000D01*
X114122560Y-90970000D01*
X114155555Y-91145353D01*
X112827813Y-89817611D01*
X112991041Y-89637423D01*
X113151904Y-89249039D01*
X113029915Y-89027000D01*
X111887000Y-89027000D01*
X111887000Y-89047000D01*
X111633000Y-89047000D01*
X111633000Y-89027000D01*
X110490085Y-89027000D01*
X110368096Y-89249039D01*
X110374872Y-89265400D01*
X105974702Y-89265400D01*
X106705402Y-88534700D01*
X110374831Y-88534700D01*
X110368096Y-88550961D01*
X110490085Y-88773000D01*
X111633000Y-88773000D01*
X111633000Y-88753000D01*
X111887000Y-88753000D01*
X111887000Y-88773000D01*
X113029915Y-88773000D01*
X113151904Y-88550961D01*
X112991041Y-88162577D01*
X112922352Y-88086750D01*
X113116847Y-87892255D01*
X119821861Y-87892255D01*
X120650000Y-88720395D01*
X121478139Y-87892255D01*
X121404005Y-87646136D01*
X120866777Y-87453035D01*
X120296546Y-87480222D01*
X119895995Y-87646136D01*
X119821861Y-87892255D01*
X113116847Y-87892255D01*
X116340802Y-84668300D01*
X116731311Y-84668300D01*
X116675250Y-84803309D01*
X116674752Y-85374187D01*
X116892757Y-85901800D01*
X117296077Y-86305824D01*
X117823309Y-86524750D01*
X118394187Y-86525248D01*
X118921800Y-86307243D01*
X119325824Y-85903923D01*
X119544750Y-85376691D01*
X119545248Y-84805813D01*
X119488429Y-84668300D01*
X120541311Y-84668300D01*
X120485250Y-84803309D01*
X120484752Y-85374187D01*
X120702757Y-85901800D01*
X121106077Y-86305824D01*
X121633309Y-86524750D01*
X122204187Y-86525248D01*
X122258149Y-86502951D01*
X127406999Y-91651801D01*
X127653560Y-91816548D01*
X127944400Y-91874400D01*
X132403054Y-91874400D01*
X132378071Y-92000000D01*
X132468274Y-92453480D01*
X132725149Y-92837922D01*
X132967717Y-93000000D01*
X132725149Y-93162078D01*
X132468274Y-93546520D01*
X132378071Y-94000000D01*
X132468274Y-94453480D01*
X132725149Y-94837922D01*
X133109591Y-95094797D01*
X133563071Y-95185000D01*
X135036929Y-95185000D01*
X135490409Y-95094797D01*
X135823003Y-94872566D01*
X135805000Y-94963071D01*
X135805000Y-96436929D01*
X135895203Y-96890409D01*
X136152078Y-97274851D01*
X136536520Y-97531726D01*
X136990000Y-97621929D01*
X137443480Y-97531726D01*
X137827922Y-97274851D01*
X137990000Y-97032283D01*
X138152078Y-97274851D01*
X138536520Y-97531726D01*
X138990000Y-97621929D01*
X139443480Y-97531726D01*
X139827922Y-97274851D01*
X139990000Y-97032283D01*
X140152078Y-97274851D01*
X140536520Y-97531726D01*
X140990000Y-97621929D01*
X141443480Y-97531726D01*
X141827922Y-97274851D01*
X141990000Y-97032283D01*
X142152078Y-97274851D01*
X142536520Y-97531726D01*
X142990000Y-97621929D01*
X143443480Y-97531726D01*
X143827922Y-97274851D01*
X143990000Y-97032283D01*
X144152078Y-97274851D01*
X144536520Y-97531726D01*
X144990000Y-97621929D01*
X145443480Y-97531726D01*
X145827922Y-97274851D01*
X145990000Y-97032283D01*
X146152078Y-97274851D01*
X146536520Y-97531726D01*
X146990000Y-97621929D01*
X147443480Y-97531726D01*
X147827922Y-97274851D01*
X148084797Y-96890409D01*
X148175000Y-96436929D01*
X148175000Y-94963071D01*
X148144190Y-94808177D01*
X148429187Y-95046196D01*
X148873000Y-95185000D01*
X149573000Y-95185000D01*
X149573000Y-94127000D01*
X149827000Y-94127000D01*
X149827000Y-95185000D01*
X150527000Y-95185000D01*
X150970813Y-95046196D01*
X151327724Y-94748118D01*
X151543398Y-94336146D01*
X151543803Y-94309744D01*
X151418361Y-94127000D01*
X149827000Y-94127000D01*
X149573000Y-94127000D01*
X147981639Y-94127000D01*
X147904371Y-94239564D01*
X147827922Y-94125149D01*
X147443480Y-93868274D01*
X146990000Y-93778071D01*
X146536520Y-93868274D01*
X146152078Y-94125149D01*
X145990000Y-94367717D01*
X145827922Y-94125149D01*
X145443480Y-93868274D01*
X144990000Y-93778071D01*
X144536520Y-93868274D01*
X144152078Y-94125149D01*
X143990000Y-94367717D01*
X143827922Y-94125149D01*
X143738159Y-94065171D01*
X143692148Y-93833861D01*
X143527401Y-93587299D01*
X140517101Y-90576999D01*
X140270539Y-90412252D01*
X139979700Y-90354400D01*
X136151434Y-90354400D01*
X136221929Y-90000000D01*
X136154299Y-89660000D01*
X144609898Y-89660000D01*
X147487299Y-92537401D01*
X147733861Y-92702148D01*
X147965171Y-92748159D01*
X148025149Y-92837922D01*
X148326691Y-93039405D01*
X148072276Y-93251882D01*
X147856602Y-93663854D01*
X147856197Y-93690256D01*
X147981639Y-93873000D01*
X149573000Y-93873000D01*
X149573000Y-93853000D01*
X149827000Y-93853000D01*
X149827000Y-93873000D01*
X151418361Y-93873000D01*
X151543803Y-93690256D01*
X151543398Y-93663854D01*
X151327724Y-93251882D01*
X150984417Y-92965165D01*
X151174851Y-92837922D01*
X151431726Y-92453480D01*
X151521929Y-92000000D01*
X151431726Y-91546520D01*
X151174851Y-91162078D01*
X150982283Y-91033409D01*
X151274851Y-90837922D01*
X151531726Y-90453480D01*
X151621929Y-90000000D01*
X151531726Y-89546520D01*
X151274851Y-89162078D01*
X151032283Y-89000000D01*
X151274851Y-88837922D01*
X151531726Y-88453480D01*
X151621929Y-88000000D01*
X151531726Y-87546520D01*
X151274851Y-87162078D01*
X151032283Y-87000000D01*
X151274851Y-86837922D01*
X151531726Y-86453480D01*
X151621929Y-86000000D01*
X151531726Y-85546520D01*
X151274851Y-85162078D01*
X151032283Y-85000000D01*
X151274851Y-84837922D01*
X151531726Y-84453480D01*
X151621929Y-84000000D01*
X151531726Y-83546520D01*
X151274851Y-83162078D01*
X151032283Y-83000000D01*
X151274851Y-82837922D01*
X151531726Y-82453480D01*
X151621929Y-82000000D01*
X151569794Y-81737900D01*
X153778000Y-81737900D01*
X154068839Y-81680048D01*
X154315401Y-81515301D01*
X158017401Y-77813301D01*
X158182148Y-77566739D01*
X158234547Y-77303312D01*
X158246914Y-77295049D01*
X158482021Y-76943186D01*
X158564580Y-76528135D01*
X158564580Y-75871865D01*
X158482021Y-75456814D01*
X158246914Y-75104951D01*
X157895051Y-74869844D01*
X157480000Y-74787285D01*
X157064949Y-74869844D01*
X156845000Y-75016809D01*
X156625051Y-74869844D01*
X156210000Y-74787285D01*
X155794949Y-74869844D01*
X155739353Y-74906992D01*
X155515889Y-74814430D01*
X155225750Y-74814430D01*
X155067000Y-74973180D01*
X155067000Y-76073000D01*
X155087000Y-76073000D01*
X155087000Y-76327000D01*
X155067000Y-76327000D01*
X155067000Y-77426820D01*
X155225750Y-77585570D01*
X155515889Y-77585570D01*
X155739353Y-77493008D01*
X155794949Y-77530156D01*
X156091879Y-77589219D01*
X153463198Y-80217900D01*
X151578586Y-80217900D01*
X151621929Y-80000000D01*
X151531726Y-79546520D01*
X151274851Y-79162078D01*
X150890409Y-78905203D01*
X150436929Y-78815000D01*
X148963071Y-78815000D01*
X148509591Y-78905203D01*
X148266879Y-79067377D01*
X147786801Y-78587299D01*
X147540239Y-78422552D01*
X147249400Y-78364700D01*
X110374579Y-78364700D01*
X110620282Y-77996979D01*
X110720000Y-77495664D01*
X110720000Y-77444336D01*
X110620282Y-76943021D01*
X110336310Y-76518026D01*
X109911315Y-76234054D01*
X109410000Y-76134336D01*
X108908685Y-76234054D01*
X108483690Y-76518026D01*
X108410000Y-76628311D01*
X108336310Y-76518026D01*
X107911315Y-76234054D01*
X107410000Y-76134336D01*
X106908685Y-76234054D01*
X106616986Y-76428961D01*
X106444699Y-76256673D01*
X106211310Y-76160000D01*
X105695750Y-76160000D01*
X105537000Y-76318750D01*
X105537000Y-77343000D01*
X105557000Y-77343000D01*
X105557000Y-77597000D01*
X105537000Y-77597000D01*
X105537000Y-78621250D01*
X105695750Y-78780000D01*
X106211310Y-78780000D01*
X106444699Y-78683327D01*
X106616986Y-78511039D01*
X106908685Y-78705946D01*
X107410000Y-78805664D01*
X107627582Y-78762384D01*
X108105198Y-79240000D01*
X106545300Y-79240000D01*
X106254460Y-79297852D01*
X106007899Y-79462599D01*
X105418909Y-80051589D01*
X105404090Y-80028559D01*
X105191890Y-79883569D01*
X104940000Y-79832560D01*
X103340000Y-79832560D01*
X103104683Y-79876838D01*
X102888559Y-80015910D01*
X102743569Y-80228110D01*
X102692560Y-80480000D01*
X102692560Y-82080000D01*
X102736838Y-82315317D01*
X102875910Y-82531441D01*
X103088110Y-82676431D01*
X103243089Y-82707815D01*
X103097189Y-82805302D01*
X102786120Y-83270849D01*
X102676887Y-83820000D01*
X102786120Y-84369151D01*
X103097189Y-84834698D01*
X103562736Y-85145767D01*
X104111887Y-85255000D01*
X104168113Y-85255000D01*
X104717264Y-85145767D01*
X105182811Y-84834698D01*
X105493880Y-84369151D01*
X105533684Y-84169039D01*
X110368096Y-84169039D01*
X110528959Y-84557423D01*
X110904866Y-84972389D01*
X111410959Y-85211914D01*
X111633000Y-85090629D01*
X111633000Y-83947000D01*
X111887000Y-83947000D01*
X111887000Y-85090629D01*
X112109041Y-85211914D01*
X112615134Y-84972389D01*
X112991041Y-84557423D01*
X113151904Y-84169039D01*
X113029915Y-83947000D01*
X111887000Y-83947000D01*
X111633000Y-83947000D01*
X110490085Y-83947000D01*
X110368096Y-84169039D01*
X105533684Y-84169039D01*
X105603113Y-83820000D01*
X105493880Y-83270849D01*
X105182811Y-82805302D01*
X105038535Y-82708899D01*
X105175317Y-82683162D01*
X105391441Y-82544090D01*
X105536431Y-82331890D01*
X105587440Y-82080000D01*
X105587440Y-81961233D01*
X105802701Y-81817401D01*
X105991063Y-81629039D01*
X110368096Y-81629039D01*
X110528959Y-82017423D01*
X110904866Y-82432389D01*
X111153367Y-82550000D01*
X110904866Y-82667611D01*
X110528959Y-83082577D01*
X110368096Y-83470961D01*
X110490085Y-83693000D01*
X111633000Y-83693000D01*
X111633000Y-81407000D01*
X111887000Y-81407000D01*
X111887000Y-83693000D01*
X113029915Y-83693000D01*
X113151904Y-83470961D01*
X112991041Y-83082577D01*
X112615134Y-82667611D01*
X112366633Y-82550000D01*
X112615134Y-82432389D01*
X112991041Y-82017423D01*
X113151904Y-81629039D01*
X113029915Y-81407000D01*
X111887000Y-81407000D01*
X111633000Y-81407000D01*
X110490085Y-81407000D01*
X110368096Y-81629039D01*
X105991063Y-81629039D01*
X106860102Y-80760000D01*
X110438906Y-80760000D01*
X110368096Y-80930961D01*
X110490085Y-81153000D01*
X111633000Y-81153000D01*
X111633000Y-81133000D01*
X111887000Y-81133000D01*
X111887000Y-81153000D01*
X113029915Y-81153000D01*
X113151904Y-80930961D01*
X113081094Y-80760000D01*
X132442074Y-80760000D01*
X132446838Y-80785317D01*
X132585910Y-81001441D01*
X132773615Y-81129694D01*
X132725149Y-81162078D01*
X132468274Y-81546520D01*
X132378071Y-82000000D01*
X132468274Y-82453480D01*
X132725149Y-82837922D01*
X132967717Y-83000000D01*
X132725149Y-83162078D01*
X132468274Y-83546520D01*
X132378071Y-84000000D01*
X132425810Y-84240000D01*
X131238646Y-84240000D01*
X131217243Y-84188200D01*
X130813923Y-83784176D01*
X130286691Y-83565250D01*
X129715813Y-83564752D01*
X129188200Y-83782757D01*
X128784176Y-84186077D01*
X128565250Y-84713309D01*
X128564752Y-85284187D01*
X128782757Y-85811800D01*
X129186077Y-86215824D01*
X129713309Y-86434750D01*
X130284187Y-86435248D01*
X130811800Y-86217243D01*
X131215824Y-85813923D01*
X131238215Y-85760000D01*
X132425810Y-85760000D01*
X132378071Y-86000000D01*
X132468274Y-86453480D01*
X132725149Y-86837922D01*
X132967717Y-87000000D01*
X132725149Y-87162078D01*
X132468274Y-87546520D01*
X132378071Y-88000000D01*
X132405919Y-88140000D01*
X132022995Y-88140000D01*
X131852811Y-87885302D01*
X131387264Y-87574233D01*
X130838113Y-87465000D01*
X130781887Y-87465000D01*
X130232736Y-87574233D01*
X129767189Y-87885302D01*
X129456120Y-88350849D01*
X129346887Y-88900000D01*
X129456120Y-89449151D01*
X129767189Y-89914698D01*
X130232736Y-90225767D01*
X130781887Y-90335000D01*
X130838113Y-90335000D01*
X131387264Y-90225767D01*
X131852811Y-89914698D01*
X132022995Y-89660000D01*
X132445701Y-89660000D01*
X132378071Y-90000000D01*
X132448566Y-90354400D01*
X128259202Y-90354400D01*
X123333256Y-85428454D01*
X123354750Y-85376691D01*
X123355153Y-84915255D01*
X124067299Y-85627401D01*
X124313860Y-85792148D01*
X124514321Y-85832022D01*
X124715302Y-86132811D01*
X125180849Y-86443880D01*
X125730000Y-86553113D01*
X126279151Y-86443880D01*
X126744698Y-86132811D01*
X127055767Y-85667264D01*
X127165000Y-85118113D01*
X127165000Y-85061887D01*
X127055767Y-84512736D01*
X126744698Y-84047189D01*
X126279151Y-83736120D01*
X125730000Y-83626887D01*
X125180849Y-83736120D01*
X124715302Y-84047189D01*
X124683815Y-84094313D01*
X123960401Y-83370899D01*
X123713839Y-83206152D01*
X123423000Y-83148300D01*
X116026000Y-83148300D01*
X115735160Y-83206152D01*
X115488599Y-83370899D01*
X111844798Y-87014700D01*
X106390600Y-87014700D01*
X106099761Y-87072552D01*
X105853199Y-87237299D01*
X105418909Y-87671589D01*
X105404090Y-87648559D01*
X105191890Y-87503569D01*
X104940000Y-87452560D01*
X103340000Y-87452560D01*
X103104683Y-87496838D01*
X102888559Y-87635910D01*
X102743569Y-87848110D01*
X102692560Y-88100000D01*
X102692560Y-89265400D01*
X97762602Y-89265400D01*
X96634642Y-88137440D01*
X100190000Y-88137440D01*
X100425317Y-88093162D01*
X100641441Y-87954090D01*
X100786431Y-87741890D01*
X100837440Y-87490000D01*
X100837440Y-82690000D01*
X100793162Y-82454683D01*
X100654090Y-82238559D01*
X100441890Y-82093569D01*
X100190000Y-82042560D01*
X95679607Y-82042560D01*
X95744472Y-81886347D01*
X95745058Y-81214550D01*
X95805887Y-81153721D01*
X96075400Y-81566010D01*
X97191713Y-82026072D01*
X98399109Y-82023919D01*
X99504600Y-81566010D01*
X99774114Y-81153719D01*
X97790000Y-79169605D01*
X97775858Y-79183748D01*
X97596253Y-79004143D01*
X97610395Y-78990000D01*
X97969605Y-78990000D01*
X99953719Y-80974114D01*
X100366010Y-80704600D01*
X100826072Y-79588287D01*
X100823919Y-78380891D01*
X100564978Y-77755750D01*
X104100000Y-77755750D01*
X104100000Y-78271309D01*
X104196673Y-78504698D01*
X104375301Y-78683327D01*
X104608690Y-78780000D01*
X105124250Y-78780000D01*
X105283000Y-78621250D01*
X105283000Y-77597000D01*
X104258750Y-77597000D01*
X104100000Y-77755750D01*
X100564978Y-77755750D01*
X100366010Y-77275400D01*
X99953719Y-77005886D01*
X97969605Y-78990000D01*
X97610395Y-78990000D01*
X95626281Y-77005886D01*
X95213990Y-77275400D01*
X94753928Y-78391713D01*
X94755071Y-79032755D01*
X94431434Y-78708553D01*
X93316347Y-78245528D01*
X92108950Y-78244474D01*
X90993057Y-78705552D01*
X90138553Y-79558566D01*
X89710000Y-80590635D01*
X89710000Y-76826281D01*
X95805886Y-76826281D01*
X97790000Y-78810395D01*
X99774114Y-76826281D01*
X99671098Y-76668691D01*
X104100000Y-76668691D01*
X104100000Y-77184250D01*
X104258750Y-77343000D01*
X105283000Y-77343000D01*
X105283000Y-76318750D01*
X105124250Y-76160000D01*
X104608690Y-76160000D01*
X104375301Y-76256673D01*
X104196673Y-76435302D01*
X104100000Y-76668691D01*
X99671098Y-76668691D01*
X99504600Y-76413990D01*
X98388287Y-75953928D01*
X97180891Y-75956081D01*
X96075400Y-76413990D01*
X95805886Y-76826281D01*
X89710000Y-76826281D01*
X89710000Y-74901887D01*
X116675000Y-74901887D01*
X116675000Y-74958113D01*
X116784233Y-75507264D01*
X117095302Y-75972811D01*
X117560849Y-76283880D01*
X118110000Y-76393113D01*
X118659151Y-76283880D01*
X119124698Y-75972811D01*
X119435767Y-75507264D01*
X119545000Y-74958113D01*
X119545000Y-74901887D01*
X120485000Y-74901887D01*
X120485000Y-74958113D01*
X120594233Y-75507264D01*
X120905302Y-75972811D01*
X121370849Y-76283880D01*
X121920000Y-76393113D01*
X122469151Y-76283880D01*
X122934698Y-75972811D01*
X123245767Y-75507264D01*
X123304063Y-75214187D01*
X124294752Y-75214187D01*
X124512757Y-75741800D01*
X124916077Y-76145824D01*
X125443309Y-76364750D01*
X126014187Y-76365248D01*
X126541800Y-76147243D01*
X126945824Y-75743923D01*
X127164750Y-75216691D01*
X127165103Y-74811887D01*
X128565000Y-74811887D01*
X128565000Y-74868113D01*
X128674233Y-75417264D01*
X128985302Y-75882811D01*
X129450849Y-76193880D01*
X130000000Y-76303113D01*
X130549151Y-76193880D01*
X131014698Y-75882811D01*
X131325767Y-75417264D01*
X131435000Y-74868113D01*
X131435000Y-74811887D01*
X131325767Y-74262736D01*
X131014698Y-73797189D01*
X130549151Y-73486120D01*
X130000000Y-73376887D01*
X129450849Y-73486120D01*
X128985302Y-73797189D01*
X128674233Y-74262736D01*
X128565000Y-74811887D01*
X127165103Y-74811887D01*
X127165248Y-74645813D01*
X126947243Y-74118200D01*
X126543923Y-73714176D01*
X126016691Y-73495250D01*
X125445813Y-73494752D01*
X124918200Y-73712757D01*
X124514176Y-74116077D01*
X124295250Y-74643309D01*
X124294752Y-75214187D01*
X123304063Y-75214187D01*
X123355000Y-74958113D01*
X123355000Y-74901887D01*
X123245767Y-74352736D01*
X122934698Y-73887189D01*
X122469151Y-73576120D01*
X121920000Y-73466887D01*
X121370849Y-73576120D01*
X120905302Y-73887189D01*
X120594233Y-74352736D01*
X120485000Y-74901887D01*
X119545000Y-74901887D01*
X119435767Y-74352736D01*
X119124698Y-73887189D01*
X118659151Y-73576120D01*
X118110000Y-73466887D01*
X117560849Y-73576120D01*
X117095302Y-73887189D01*
X116784233Y-74352736D01*
X116675000Y-74901887D01*
X89710000Y-74901887D01*
X89710000Y-71110000D01*
X132273000Y-71110000D01*
X132273000Y-78000000D01*
M02*
