M48
; DRILL file {KiCad 5.1.5-52549c5~84~ubuntu18.04.1} date Mi 08 Apr 2020 12:20:07 CEST
; FORMAT={-:-/ absolute / inch / decimal}
; #@! TF.CreationDate,2020-04-08T12:20:07+02:00
; #@! TF.GenerationSoftware,Kicad,Pcbnew,5.1.5-52549c5~84~ubuntu18.04.1
; #@! TF.FileFunction,Plated,1,2,PTH
FMAT,2
INCH
T1C0.0157
T2C0.0197
T3C0.0236
T4C0.0256
T5C0.0295
T6C0.0315
T7C0.0354
T8C0.0374
T9C0.0433
T10C0.0866
%
G90
G05
T1
X6.33Y-5.415
X6.2841Y-3.6541
X3.445Y-3.7
X3.4641Y-3.6541
X3.4641Y-3.7459
X3.51Y-3.635
X3.51Y-3.765
X3.5559Y-3.6541
X3.5559Y-3.7459
X3.575Y-3.7
X3.445Y-5.35
X3.4641Y-5.3041
X3.4641Y-5.3959
X3.51Y-5.285
X3.51Y-5.415
X3.5559Y-5.3041
X3.5559Y-5.3959
X3.575Y-5.35
X6.265Y-5.35
X6.2841Y-5.3041
X6.2841Y-5.3959
X6.33Y-5.285
X6.3759Y-5.3041
X6.3759Y-5.3959
X6.395Y-5.35
X6.265Y-3.7
X6.2841Y-3.7459
X6.33Y-3.635
X6.33Y-3.765
X6.3759Y-3.6541
X6.3759Y-3.7459
X6.395Y-3.7
T4
X4.845Y-3.655
X4.845Y-3.7337
X4.845Y-3.8125
X4.845Y-3.8912
X4.845Y-3.97
X4.845Y-4.0487
X4.845Y-4.1274
X4.845Y-4.2062
X4.9233Y-4.2456
X5.0021Y-4.2456
X5.0808Y-4.2456
X5.1596Y-4.2456
X5.2383Y-4.2456
X5.317Y-4.2456
X5.3962Y-3.655
X5.3962Y-3.7337
X5.3962Y-3.8125
X5.3962Y-3.8912
X5.3962Y-3.97
X5.3962Y-4.0487
X5.3962Y-4.1274
X5.3962Y-4.2062
T5
X6.25Y-4.13
X6.25Y-4.23
X6.3Y-4.18
T6
X3.73Y-5.24
X4.13Y-5.24
X5.2425Y-5.37
X5.6425Y-5.37
X5.75Y-5.24
X6.15Y-5.24
X4.23Y-5.37
X4.63Y-5.37
X4.23Y-5.24
X4.63Y-5.24
X3.73Y-3.735
X3.73Y-4.235
X4.63Y-3.723
X4.63Y-3.835
X4.63Y-4.135
X4.63Y-4.247
X5.65Y-4.13
X5.65Y-4.2284
X5.2425Y-5.24
X5.6425Y-5.24
X5.75Y-5.37
X6.15Y-5.37
T7
X3.78Y-5.37
X4.08Y-5.37
T8
X4.8457Y-5.31
X4.9441Y-5.31
X5.0425Y-5.31
T9
X5.9428Y-3.7
X5.9428Y-3.9559
X6.12Y-3.7
X6.12Y-3.9559
X5.5928Y-3.7
X5.5928Y-3.9559
X5.77Y-3.7
X5.77Y-3.9559
T10
X3.51Y-5.35
X6.33Y-5.35
X6.33Y-3.7
X3.51Y-3.7
T2
G00X6.34Y-4.7303
M15
G01X6.34Y-4.7697
M16
G05
T3
G00X3.5Y-4.7303
M15
G01X3.5Y-4.7697
M16
G05
T0
M30
