G04 #@! TF.GenerationSoftware,KiCad,Pcbnew,5.1.5-52549c5~84~ubuntu18.04.1*
G04 #@! TF.CreationDate,2020-04-08T12:20:09+02:00*
G04 #@! TF.ProjectId,ltl,6c746c2e-6b69-4636-9164-5f7063625858,rev?*
G04 #@! TF.SameCoordinates,Original*
G04 #@! TF.FileFunction,Copper,L2,Bot*
G04 #@! TF.FilePolarity,Positive*
%FSLAX46Y46*%
G04 Gerber Fmt 4.6, Leading zero omitted, Abs format (unit mm)*
G04 Created by KiCad (PCBNEW 5.1.5-52549c5~84~ubuntu18.04.1) date 2020-04-08 12:20:09*
%MOMM*%
%LPD*%
G04 APERTURE LIST*
%ADD10O,2.262000X3.262000*%
%ADD11R,3.000000X3.000000*%
%ADD12C,1.524000*%
%ADD13C,0.700000*%
%ADD14C,4.400000*%
%ADD15O,1.800000X1.800000*%
%ADD16R,1.800000X1.800000*%
%ADD17O,1.600000X1.600000*%
%ADD18C,1.600000*%
%ADD19R,1.600000X1.600000*%
%ADD20C,1.300000*%
%ADD21R,1.300000X1.300000*%
%ADD22C,0.100000*%
%ADD23O,1.700000X1.950000*%
%ADD24R,2.500000X1.100000*%
%ADD25O,2.500000X1.100000*%
%ADD26O,1.100000X2.500000*%
%ADD27C,2.000000*%
%ADD28C,0.250000*%
%ADD29C,0.254000*%
G04 APERTURE END LIST*
D10*
X161036000Y-120650000D03*
D11*
X88900000Y-120650000D03*
D12*
X94742000Y-94869000D03*
X94742000Y-107569000D03*
X117602000Y-94564200D03*
X117602000Y-107873800D03*
X117602000Y-105029000D03*
X117602000Y-97409000D03*
D13*
X161948726Y-134723274D03*
X160782000Y-134240000D03*
X159615274Y-134723274D03*
X159132000Y-135890000D03*
X159615274Y-137056726D03*
X160782000Y-137540000D03*
X161948726Y-137056726D03*
X162432000Y-135890000D03*
D14*
X160782000Y-135890000D03*
X160782000Y-93980000D03*
D13*
X162432000Y-93980000D03*
X161948726Y-95146726D03*
X160782000Y-95630000D03*
X159615274Y-95146726D03*
X159132000Y-93980000D03*
X159615274Y-92813274D03*
X160782000Y-92330000D03*
X161948726Y-92813274D03*
D14*
X89154000Y-135890000D03*
D13*
X90804000Y-135890000D03*
X90320726Y-137056726D03*
X89154000Y-137540000D03*
X87987274Y-137056726D03*
X87504000Y-135890000D03*
X87987274Y-134723274D03*
X89154000Y-134240000D03*
X90320726Y-134723274D03*
X90320726Y-92813274D03*
X89154000Y-92330000D03*
X87987274Y-92813274D03*
X87504000Y-93980000D03*
X87987274Y-95146726D03*
X89154000Y-95630000D03*
X90320726Y-95146726D03*
X90804000Y-93980000D03*
D14*
X89154000Y-93980000D03*
D15*
X103632000Y-136398000D03*
D16*
X96012000Y-136398000D03*
D17*
X117602000Y-136398000D03*
D18*
X107442000Y-136398000D03*
D17*
X117602000Y-133096000D03*
D18*
X107442000Y-133096000D03*
D17*
X156210000Y-136398000D03*
D18*
X146050000Y-136398000D03*
D17*
X156210000Y-133096000D03*
D18*
X146050000Y-133096000D03*
D17*
X143320000Y-133096000D03*
D18*
X133160000Y-133096000D03*
X133160000Y-136398000D03*
D17*
X143320000Y-136398000D03*
D19*
X143510000Y-104902000D03*
D18*
X143510000Y-107402000D03*
X104902000Y-133096000D03*
D17*
X94742000Y-133096000D03*
D20*
X160020000Y-106172000D03*
X158750000Y-107442000D03*
D21*
X158750000Y-104902000D03*
G04 #@! TA.AperFunction,ComponentPad*
D22*
G36*
X128704504Y-133900204D02*
G01*
X128728773Y-133903804D01*
X128752571Y-133909765D01*
X128775671Y-133918030D01*
X128797849Y-133928520D01*
X128818893Y-133941133D01*
X128838598Y-133955747D01*
X128856777Y-133972223D01*
X128873253Y-133990402D01*
X128887867Y-134010107D01*
X128900480Y-134031151D01*
X128910970Y-134053329D01*
X128919235Y-134076429D01*
X128925196Y-134100227D01*
X128928796Y-134124496D01*
X128930000Y-134149000D01*
X128930000Y-135599000D01*
X128928796Y-135623504D01*
X128925196Y-135647773D01*
X128919235Y-135671571D01*
X128910970Y-135694671D01*
X128900480Y-135716849D01*
X128887867Y-135737893D01*
X128873253Y-135757598D01*
X128856777Y-135775777D01*
X128838598Y-135792253D01*
X128818893Y-135806867D01*
X128797849Y-135819480D01*
X128775671Y-135829970D01*
X128752571Y-135838235D01*
X128728773Y-135844196D01*
X128704504Y-135847796D01*
X128680000Y-135849000D01*
X127480000Y-135849000D01*
X127455496Y-135847796D01*
X127431227Y-135844196D01*
X127407429Y-135838235D01*
X127384329Y-135829970D01*
X127362151Y-135819480D01*
X127341107Y-135806867D01*
X127321402Y-135792253D01*
X127303223Y-135775777D01*
X127286747Y-135757598D01*
X127272133Y-135737893D01*
X127259520Y-135716849D01*
X127249030Y-135694671D01*
X127240765Y-135671571D01*
X127234804Y-135647773D01*
X127231204Y-135623504D01*
X127230000Y-135599000D01*
X127230000Y-134149000D01*
X127231204Y-134124496D01*
X127234804Y-134100227D01*
X127240765Y-134076429D01*
X127249030Y-134053329D01*
X127259520Y-134031151D01*
X127272133Y-134010107D01*
X127286747Y-133990402D01*
X127303223Y-133972223D01*
X127321402Y-133955747D01*
X127341107Y-133941133D01*
X127362151Y-133928520D01*
X127384329Y-133918030D01*
X127407429Y-133909765D01*
X127431227Y-133903804D01*
X127455496Y-133900204D01*
X127480000Y-133899000D01*
X128680000Y-133899000D01*
X128704504Y-133900204D01*
G37*
G04 #@! TD.AperFunction*
D23*
X125580000Y-134874000D03*
X123080000Y-134874000D03*
D24*
X122363000Y-92837000D03*
D25*
X122363000Y-94837000D03*
X122363000Y-96837000D03*
X122363000Y-98837000D03*
X122363000Y-100837000D03*
X122363000Y-102837000D03*
X122363000Y-104837000D03*
X122363000Y-106837000D03*
X137763000Y-106837000D03*
X137663000Y-104837000D03*
X137763000Y-102837000D03*
X137763000Y-100837000D03*
X137763000Y-98837000D03*
X137763000Y-96837000D03*
X137763000Y-94837000D03*
X137763000Y-92837000D03*
D26*
X125053000Y-108537000D03*
X127053000Y-108537000D03*
X129053000Y-108537000D03*
X131053000Y-108537000D03*
X133053000Y-108537000D03*
X135053000Y-108537000D03*
D27*
X155448000Y-100480000D03*
X150948000Y-100480000D03*
X155448000Y-93980000D03*
X150948000Y-93980000D03*
X142058000Y-93980000D03*
X146558000Y-93980000D03*
X142058000Y-100480000D03*
X146558000Y-100480000D03*
D28*
X137063000Y-106837000D02*
X137063000Y-125891000D01*
X137063000Y-125891000D02*
X128080000Y-134874000D01*
X105850500Y-133096000D02*
X104902000Y-133096000D01*
X128080000Y-134874000D02*
X125428000Y-137526000D01*
X125428000Y-137526000D02*
X110280500Y-137526000D01*
X110280500Y-137526000D02*
X105850500Y-133096000D01*
X117602000Y-107873800D02*
X105850500Y-119625300D01*
X105850500Y-119625300D02*
X105850500Y-133096000D01*
X150948000Y-93980000D02*
X150948000Y-100480000D01*
X142058000Y-100480000D02*
X142058000Y-105950000D01*
X142058000Y-105950000D02*
X143510000Y-107402000D01*
X146050000Y-133096000D02*
X146050000Y-136398000D01*
X143510000Y-106027300D02*
X143791300Y-106027300D01*
X143791300Y-106027300D02*
X146050000Y-108286000D01*
X146050000Y-108286000D02*
X146050000Y-133096000D01*
X143510000Y-104902000D02*
X143510000Y-106027300D01*
X123063000Y-96837000D02*
X123938300Y-96837000D01*
X123063000Y-106837000D02*
X123938300Y-106837000D01*
X123938300Y-106837000D02*
X123938300Y-96837000D01*
X137063000Y-100837000D02*
X136187700Y-100837000D01*
X136187700Y-100837000D02*
X130053000Y-106971700D01*
X130053000Y-106971700D02*
X130053000Y-110485000D01*
X130053000Y-110485000D02*
X107442000Y-133096000D01*
X117602000Y-136398000D02*
X117602000Y-135272700D01*
X137063000Y-96837000D02*
X137732400Y-96837000D01*
X137732400Y-96837000D02*
X139338300Y-98442900D01*
X139338300Y-98442900D02*
X139338300Y-101202100D01*
X139338300Y-101202100D02*
X138703400Y-101837000D01*
X138703400Y-101837000D02*
X136790900Y-101837000D01*
X136790900Y-101837000D02*
X132053000Y-106574900D01*
X132053000Y-106574900D02*
X132053000Y-120821700D01*
X132053000Y-120821700D02*
X117602000Y-135272700D01*
X143320000Y-131970700D02*
X140689200Y-129339900D01*
X140689200Y-129339900D02*
X140689200Y-95823000D01*
X140689200Y-95823000D02*
X137703200Y-92837000D01*
X137703200Y-92837000D02*
X137063000Y-92837000D01*
X143320000Y-133096000D02*
X143320000Y-131970700D01*
X143320000Y-136398000D02*
X143320000Y-135272700D01*
X137063000Y-94837000D02*
X137723100Y-94837000D01*
X137723100Y-94837000D02*
X139788600Y-96902500D01*
X139788600Y-96902500D02*
X139788600Y-131741300D01*
X139788600Y-131741300D02*
X143320000Y-135272700D01*
X156210000Y-133096000D02*
X156210000Y-131970700D01*
X146558000Y-100480000D02*
X146558000Y-122318700D01*
X146558000Y-122318700D02*
X156210000Y-131970700D01*
X146558000Y-93980000D02*
X146558000Y-100480000D01*
X103632000Y-136398000D02*
X103632000Y-108534200D01*
X103632000Y-108534200D02*
X117602000Y-94564200D01*
X155448000Y-100480000D02*
X157335300Y-102367300D01*
X157335300Y-102367300D02*
X157335300Y-134147400D01*
X157335300Y-134147400D02*
X156210000Y-135272700D01*
X155448000Y-93980000D02*
X155448000Y-100480000D01*
X156210000Y-136398000D02*
X156210000Y-135272700D01*
D29*
G36*
X163120000Y-138228000D02*
G01*
X162385800Y-138228000D01*
X162589207Y-138092088D01*
X162984088Y-137697207D01*
X163120000Y-137493800D01*
X163120000Y-138228000D01*
G37*
X163120000Y-138228000D02*
X162385800Y-138228000D01*
X162589207Y-138092088D01*
X162984088Y-137697207D01*
X163120000Y-137493800D01*
X163120000Y-138228000D01*
G36*
X158974793Y-91777912D02*
G01*
X158579912Y-92172793D01*
X158269656Y-92637124D01*
X158055948Y-93153061D01*
X157947000Y-93700777D01*
X157947000Y-94259223D01*
X158055948Y-94806939D01*
X158269656Y-95322876D01*
X158579912Y-95787207D01*
X158974793Y-96182088D01*
X159439124Y-96492344D01*
X159955061Y-96706052D01*
X160502777Y-96815000D01*
X161061223Y-96815000D01*
X161608939Y-96706052D01*
X162124876Y-96492344D01*
X162589207Y-96182088D01*
X162984088Y-95787207D01*
X163120001Y-95583799D01*
X163120000Y-134286200D01*
X162984088Y-134082793D01*
X162589207Y-133687912D01*
X162124876Y-133377656D01*
X161608939Y-133163948D01*
X161061223Y-133055000D01*
X160502777Y-133055000D01*
X159955061Y-133163948D01*
X159439124Y-133377656D01*
X158974793Y-133687912D01*
X158579912Y-134082793D01*
X158269656Y-134547124D01*
X158055948Y-135063061D01*
X157947000Y-135610777D01*
X157947000Y-136169223D01*
X158055948Y-136716939D01*
X158269656Y-137232876D01*
X158579912Y-137697207D01*
X158974793Y-138092088D01*
X159178200Y-138228000D01*
X125726881Y-138228000D01*
X125852276Y-138160974D01*
X125968001Y-138066001D01*
X125991804Y-138036997D01*
X127541730Y-136487072D01*
X128680000Y-136487072D01*
X128853254Y-136470008D01*
X129019850Y-136419472D01*
X129173386Y-136337405D01*
X129271768Y-136256665D01*
X131725000Y-136256665D01*
X131725000Y-136539335D01*
X131780147Y-136816574D01*
X131888320Y-137077727D01*
X132045363Y-137312759D01*
X132245241Y-137512637D01*
X132480273Y-137669680D01*
X132741426Y-137777853D01*
X133018665Y-137833000D01*
X133301335Y-137833000D01*
X133578574Y-137777853D01*
X133839727Y-137669680D01*
X134074759Y-137512637D01*
X134274637Y-137312759D01*
X134431680Y-137077727D01*
X134539853Y-136816574D01*
X134595000Y-136539335D01*
X134595000Y-136256665D01*
X134539853Y-135979426D01*
X134431680Y-135718273D01*
X134274637Y-135483241D01*
X134074759Y-135283363D01*
X133839727Y-135126320D01*
X133578574Y-135018147D01*
X133301335Y-134963000D01*
X133018665Y-134963000D01*
X132741426Y-135018147D01*
X132480273Y-135126320D01*
X132245241Y-135283363D01*
X132045363Y-135483241D01*
X131888320Y-135718273D01*
X131780147Y-135979426D01*
X131725000Y-136256665D01*
X129271768Y-136256665D01*
X129307962Y-136226962D01*
X129418405Y-136092386D01*
X129500472Y-135938850D01*
X129551008Y-135772254D01*
X129568072Y-135599000D01*
X129568072Y-134460729D01*
X131074136Y-132954665D01*
X131725000Y-132954665D01*
X131725000Y-133237335D01*
X131780147Y-133514574D01*
X131888320Y-133775727D01*
X132045363Y-134010759D01*
X132245241Y-134210637D01*
X132480273Y-134367680D01*
X132741426Y-134475853D01*
X133018665Y-134531000D01*
X133301335Y-134531000D01*
X133578574Y-134475853D01*
X133839727Y-134367680D01*
X134074759Y-134210637D01*
X134274637Y-134010759D01*
X134431680Y-133775727D01*
X134539853Y-133514574D01*
X134595000Y-133237335D01*
X134595000Y-132954665D01*
X134539853Y-132677426D01*
X134431680Y-132416273D01*
X134274637Y-132181241D01*
X134074759Y-131981363D01*
X133839727Y-131824320D01*
X133578574Y-131716147D01*
X133301335Y-131661000D01*
X133018665Y-131661000D01*
X132741426Y-131716147D01*
X132480273Y-131824320D01*
X132245241Y-131981363D01*
X132045363Y-132181241D01*
X131888320Y-132416273D01*
X131780147Y-132677426D01*
X131725000Y-132954665D01*
X131074136Y-132954665D01*
X137574008Y-126454795D01*
X137603001Y-126431001D01*
X137626795Y-126402008D01*
X137626799Y-126402004D01*
X137697973Y-126315277D01*
X137697974Y-126315276D01*
X137768546Y-126183247D01*
X137812003Y-126039986D01*
X137823000Y-125928333D01*
X137823000Y-125928324D01*
X137826676Y-125891001D01*
X137823000Y-125853678D01*
X137823000Y-108022000D01*
X138521207Y-108022000D01*
X138695300Y-108004853D01*
X138918674Y-107937094D01*
X139028600Y-107878337D01*
X139028601Y-131703967D01*
X139024924Y-131741300D01*
X139039598Y-131890285D01*
X139083054Y-132033546D01*
X139153626Y-132165576D01*
X139224801Y-132252302D01*
X139248600Y-132281301D01*
X139277598Y-132305099D01*
X142330551Y-135358053D01*
X142205363Y-135483241D01*
X142048320Y-135718273D01*
X141940147Y-135979426D01*
X141885000Y-136256665D01*
X141885000Y-136539335D01*
X141940147Y-136816574D01*
X142048320Y-137077727D01*
X142205363Y-137312759D01*
X142405241Y-137512637D01*
X142640273Y-137669680D01*
X142901426Y-137777853D01*
X143178665Y-137833000D01*
X143461335Y-137833000D01*
X143738574Y-137777853D01*
X143999727Y-137669680D01*
X144234759Y-137512637D01*
X144434637Y-137312759D01*
X144591680Y-137077727D01*
X144685000Y-136852432D01*
X144778320Y-137077727D01*
X144935363Y-137312759D01*
X145135241Y-137512637D01*
X145370273Y-137669680D01*
X145631426Y-137777853D01*
X145908665Y-137833000D01*
X146191335Y-137833000D01*
X146468574Y-137777853D01*
X146729727Y-137669680D01*
X146964759Y-137512637D01*
X147164637Y-137312759D01*
X147321680Y-137077727D01*
X147429853Y-136816574D01*
X147485000Y-136539335D01*
X147485000Y-136256665D01*
X147429853Y-135979426D01*
X147321680Y-135718273D01*
X147164637Y-135483241D01*
X146964759Y-135283363D01*
X146810000Y-135179957D01*
X146810000Y-134314043D01*
X146964759Y-134210637D01*
X147164637Y-134010759D01*
X147321680Y-133775727D01*
X147429853Y-133514574D01*
X147485000Y-133237335D01*
X147485000Y-132954665D01*
X147429853Y-132677426D01*
X147321680Y-132416273D01*
X147164637Y-132181241D01*
X146964759Y-131981363D01*
X146810000Y-131877957D01*
X146810000Y-123645501D01*
X155220551Y-132056053D01*
X155095363Y-132181241D01*
X154938320Y-132416273D01*
X154830147Y-132677426D01*
X154775000Y-132954665D01*
X154775000Y-133237335D01*
X154830147Y-133514574D01*
X154938320Y-133775727D01*
X155095363Y-134010759D01*
X155295241Y-134210637D01*
X155530273Y-134367680D01*
X155791426Y-134475853D01*
X155908715Y-134499184D01*
X155698998Y-134708901D01*
X155670000Y-134732699D01*
X155646202Y-134761697D01*
X155646201Y-134761698D01*
X155575026Y-134848424D01*
X155504454Y-134980454D01*
X155476700Y-135071949D01*
X155460998Y-135123714D01*
X155455843Y-135176052D01*
X155295241Y-135283363D01*
X155095363Y-135483241D01*
X154938320Y-135718273D01*
X154830147Y-135979426D01*
X154775000Y-136256665D01*
X154775000Y-136539335D01*
X154830147Y-136816574D01*
X154938320Y-137077727D01*
X155095363Y-137312759D01*
X155295241Y-137512637D01*
X155530273Y-137669680D01*
X155791426Y-137777853D01*
X156068665Y-137833000D01*
X156351335Y-137833000D01*
X156628574Y-137777853D01*
X156889727Y-137669680D01*
X157124759Y-137512637D01*
X157324637Y-137312759D01*
X157481680Y-137077727D01*
X157589853Y-136816574D01*
X157645000Y-136539335D01*
X157645000Y-136256665D01*
X157589853Y-135979426D01*
X157481680Y-135718273D01*
X157324637Y-135483241D01*
X157199449Y-135358053D01*
X157846303Y-134711199D01*
X157875301Y-134687401D01*
X157970274Y-134571676D01*
X158040846Y-134439647D01*
X158084303Y-134296386D01*
X158095300Y-134184733D01*
X158098977Y-134147400D01*
X158095300Y-134110067D01*
X158095300Y-120063251D01*
X159270000Y-120063251D01*
X159270000Y-121236750D01*
X159295553Y-121496196D01*
X159396535Y-121829089D01*
X159560522Y-122135884D01*
X159781209Y-122404792D01*
X160050117Y-122625479D01*
X160356912Y-122789465D01*
X160689805Y-122890447D01*
X161036000Y-122924544D01*
X161382196Y-122890447D01*
X161715089Y-122789465D01*
X162021884Y-122625479D01*
X162290792Y-122404792D01*
X162511479Y-122135884D01*
X162675465Y-121829089D01*
X162776447Y-121496196D01*
X162802000Y-121236750D01*
X162802000Y-120063250D01*
X162776447Y-119803804D01*
X162675465Y-119470911D01*
X162511479Y-119164116D01*
X162290792Y-118895208D01*
X162021883Y-118674521D01*
X161715088Y-118510535D01*
X161382195Y-118409553D01*
X161036000Y-118375456D01*
X160689804Y-118409553D01*
X160356911Y-118510535D01*
X160050116Y-118674521D01*
X159781208Y-118895208D01*
X159560521Y-119164117D01*
X159396535Y-119470912D01*
X159295553Y-119803805D01*
X159270000Y-120063251D01*
X158095300Y-120063251D01*
X158095300Y-108550001D01*
X158141324Y-108580753D01*
X158375179Y-108677619D01*
X158623439Y-108727000D01*
X158876561Y-108727000D01*
X159124821Y-108677619D01*
X159358676Y-108580753D01*
X159569140Y-108440125D01*
X159748125Y-108261140D01*
X159888753Y-108050676D01*
X159985619Y-107816821D01*
X160035000Y-107568561D01*
X160035000Y-107457000D01*
X160146561Y-107457000D01*
X160394821Y-107407619D01*
X160628676Y-107310753D01*
X160839140Y-107170125D01*
X161018125Y-106991140D01*
X161158753Y-106780676D01*
X161255619Y-106546821D01*
X161305000Y-106298561D01*
X161305000Y-106045439D01*
X161255619Y-105797179D01*
X161158753Y-105563324D01*
X161018125Y-105352860D01*
X160839140Y-105173875D01*
X160628676Y-105033247D01*
X160394821Y-104936381D01*
X160146561Y-104887000D01*
X160038072Y-104887000D01*
X160038072Y-104252000D01*
X160025812Y-104127518D01*
X159989502Y-104007820D01*
X159930537Y-103897506D01*
X159851185Y-103800815D01*
X159754494Y-103721463D01*
X159644180Y-103662498D01*
X159524482Y-103626188D01*
X159400000Y-103613928D01*
X158100000Y-103613928D01*
X158095300Y-103614391D01*
X158095300Y-102404622D01*
X158098976Y-102367299D01*
X158095300Y-102329976D01*
X158095300Y-102329967D01*
X158084303Y-102218314D01*
X158040846Y-102075053D01*
X157970274Y-101943024D01*
X157875301Y-101827299D01*
X157846304Y-101803502D01*
X157014177Y-100971375D01*
X157020168Y-100956912D01*
X157083000Y-100641033D01*
X157083000Y-100318967D01*
X157020168Y-100003088D01*
X156896918Y-99705537D01*
X156717987Y-99437748D01*
X156490252Y-99210013D01*
X156222463Y-99031082D01*
X156208000Y-99025091D01*
X156208000Y-95434909D01*
X156222463Y-95428918D01*
X156490252Y-95249987D01*
X156717987Y-95022252D01*
X156896918Y-94754463D01*
X157020168Y-94456912D01*
X157083000Y-94141033D01*
X157083000Y-93818967D01*
X157020168Y-93503088D01*
X156896918Y-93205537D01*
X156717987Y-92937748D01*
X156490252Y-92710013D01*
X156222463Y-92531082D01*
X155924912Y-92407832D01*
X155609033Y-92345000D01*
X155286967Y-92345000D01*
X154971088Y-92407832D01*
X154673537Y-92531082D01*
X154405748Y-92710013D01*
X154178013Y-92937748D01*
X153999082Y-93205537D01*
X153875832Y-93503088D01*
X153813000Y-93818967D01*
X153813000Y-94141033D01*
X153875832Y-94456912D01*
X153999082Y-94754463D01*
X154178013Y-95022252D01*
X154405748Y-95249987D01*
X154673537Y-95428918D01*
X154688000Y-95434909D01*
X154688001Y-99025091D01*
X154673537Y-99031082D01*
X154405748Y-99210013D01*
X154178013Y-99437748D01*
X153999082Y-99705537D01*
X153875832Y-100003088D01*
X153813000Y-100318967D01*
X153813000Y-100641033D01*
X153875832Y-100956912D01*
X153999082Y-101254463D01*
X154178013Y-101522252D01*
X154405748Y-101749987D01*
X154673537Y-101928918D01*
X154971088Y-102052168D01*
X155286967Y-102115000D01*
X155609033Y-102115000D01*
X155924912Y-102052168D01*
X155939375Y-102046177D01*
X156575300Y-102682102D01*
X156575301Y-131261199D01*
X147318000Y-122003899D01*
X147318000Y-101934909D01*
X147332463Y-101928918D01*
X147600252Y-101749987D01*
X147827987Y-101522252D01*
X148006918Y-101254463D01*
X148130168Y-100956912D01*
X148193000Y-100641033D01*
X148193000Y-100318967D01*
X148130168Y-100003088D01*
X148006918Y-99705537D01*
X147827987Y-99437748D01*
X147600252Y-99210013D01*
X147332463Y-99031082D01*
X147318000Y-99025091D01*
X147318000Y-95434909D01*
X147332463Y-95428918D01*
X147600252Y-95249987D01*
X147827987Y-95022252D01*
X148006918Y-94754463D01*
X148130168Y-94456912D01*
X148193000Y-94141033D01*
X148193000Y-93818967D01*
X149313000Y-93818967D01*
X149313000Y-94141033D01*
X149375832Y-94456912D01*
X149499082Y-94754463D01*
X149678013Y-95022252D01*
X149905748Y-95249987D01*
X150173537Y-95428918D01*
X150188000Y-95434909D01*
X150188001Y-99025091D01*
X150173537Y-99031082D01*
X149905748Y-99210013D01*
X149678013Y-99437748D01*
X149499082Y-99705537D01*
X149375832Y-100003088D01*
X149313000Y-100318967D01*
X149313000Y-100641033D01*
X149375832Y-100956912D01*
X149499082Y-101254463D01*
X149678013Y-101522252D01*
X149905748Y-101749987D01*
X150173537Y-101928918D01*
X150471088Y-102052168D01*
X150786967Y-102115000D01*
X151109033Y-102115000D01*
X151424912Y-102052168D01*
X151722463Y-101928918D01*
X151990252Y-101749987D01*
X152217987Y-101522252D01*
X152396918Y-101254463D01*
X152520168Y-100956912D01*
X152583000Y-100641033D01*
X152583000Y-100318967D01*
X152520168Y-100003088D01*
X152396918Y-99705537D01*
X152217987Y-99437748D01*
X151990252Y-99210013D01*
X151722463Y-99031082D01*
X151708000Y-99025091D01*
X151708000Y-95434909D01*
X151722463Y-95428918D01*
X151990252Y-95249987D01*
X152217987Y-95022252D01*
X152396918Y-94754463D01*
X152520168Y-94456912D01*
X152583000Y-94141033D01*
X152583000Y-93818967D01*
X152520168Y-93503088D01*
X152396918Y-93205537D01*
X152217987Y-92937748D01*
X151990252Y-92710013D01*
X151722463Y-92531082D01*
X151424912Y-92407832D01*
X151109033Y-92345000D01*
X150786967Y-92345000D01*
X150471088Y-92407832D01*
X150173537Y-92531082D01*
X149905748Y-92710013D01*
X149678013Y-92937748D01*
X149499082Y-93205537D01*
X149375832Y-93503088D01*
X149313000Y-93818967D01*
X148193000Y-93818967D01*
X148130168Y-93503088D01*
X148006918Y-93205537D01*
X147827987Y-92937748D01*
X147600252Y-92710013D01*
X147332463Y-92531082D01*
X147034912Y-92407832D01*
X146719033Y-92345000D01*
X146396967Y-92345000D01*
X146081088Y-92407832D01*
X145783537Y-92531082D01*
X145515748Y-92710013D01*
X145288013Y-92937748D01*
X145109082Y-93205537D01*
X144985832Y-93503088D01*
X144923000Y-93818967D01*
X144923000Y-94141033D01*
X144985832Y-94456912D01*
X145109082Y-94754463D01*
X145288013Y-95022252D01*
X145515748Y-95249987D01*
X145783537Y-95428918D01*
X145798000Y-95434909D01*
X145798001Y-99025091D01*
X145783537Y-99031082D01*
X145515748Y-99210013D01*
X145288013Y-99437748D01*
X145109082Y-99705537D01*
X144985832Y-100003088D01*
X144923000Y-100318967D01*
X144923000Y-100641033D01*
X144985832Y-100956912D01*
X145109082Y-101254463D01*
X145288013Y-101522252D01*
X145515748Y-101749987D01*
X145783537Y-101928918D01*
X145798000Y-101934909D01*
X145798000Y-106959199D01*
X144859611Y-106020810D01*
X144899502Y-105946180D01*
X144935812Y-105826482D01*
X144948072Y-105702000D01*
X144948072Y-104102000D01*
X144935812Y-103977518D01*
X144899502Y-103857820D01*
X144840537Y-103747506D01*
X144761185Y-103650815D01*
X144664494Y-103571463D01*
X144554180Y-103512498D01*
X144434482Y-103476188D01*
X144310000Y-103463928D01*
X142818000Y-103463928D01*
X142818000Y-101934909D01*
X142832463Y-101928918D01*
X143100252Y-101749987D01*
X143327987Y-101522252D01*
X143506918Y-101254463D01*
X143630168Y-100956912D01*
X143693000Y-100641033D01*
X143693000Y-100318967D01*
X143630168Y-100003088D01*
X143506918Y-99705537D01*
X143327987Y-99437748D01*
X143100252Y-99210013D01*
X142832463Y-99031082D01*
X142534912Y-98907832D01*
X142219033Y-98845000D01*
X141896967Y-98845000D01*
X141581088Y-98907832D01*
X141449200Y-98962462D01*
X141449200Y-95860325D01*
X141452876Y-95823000D01*
X141449200Y-95785675D01*
X141449200Y-95785667D01*
X141438203Y-95674014D01*
X141394746Y-95530753D01*
X141356458Y-95459123D01*
X141581088Y-95552168D01*
X141896967Y-95615000D01*
X142219033Y-95615000D01*
X142534912Y-95552168D01*
X142832463Y-95428918D01*
X143100252Y-95249987D01*
X143327987Y-95022252D01*
X143506918Y-94754463D01*
X143630168Y-94456912D01*
X143693000Y-94141033D01*
X143693000Y-93818967D01*
X143630168Y-93503088D01*
X143506918Y-93205537D01*
X143327987Y-92937748D01*
X143100252Y-92710013D01*
X142832463Y-92531082D01*
X142534912Y-92407832D01*
X142219033Y-92345000D01*
X141896967Y-92345000D01*
X141581088Y-92407832D01*
X141283537Y-92531082D01*
X141015748Y-92710013D01*
X140788013Y-92937748D01*
X140609082Y-93205537D01*
X140485832Y-93503088D01*
X140423000Y-93818967D01*
X140423000Y-94141033D01*
X140485832Y-94456912D01*
X140548000Y-94606998D01*
X139446964Y-93505962D01*
X139453058Y-93498536D01*
X139563094Y-93292674D01*
X139630853Y-93069300D01*
X139653733Y-92837000D01*
X139630853Y-92604700D01*
X139563094Y-92381326D01*
X139453058Y-92175464D01*
X139304975Y-91995025D01*
X139124536Y-91846942D01*
X138918674Y-91736906D01*
X138695300Y-91669147D01*
X138521207Y-91652000D01*
X137004793Y-91652000D01*
X136830700Y-91669147D01*
X136607326Y-91736906D01*
X136401464Y-91846942D01*
X136221025Y-91995025D01*
X136072942Y-92175464D01*
X135962906Y-92381326D01*
X135895147Y-92604700D01*
X135872267Y-92837000D01*
X135895147Y-93069300D01*
X135962906Y-93292674D01*
X136072942Y-93498536D01*
X136221025Y-93678975D01*
X136401464Y-93827058D01*
X136420064Y-93837000D01*
X136401464Y-93846942D01*
X136221025Y-93995025D01*
X136072942Y-94175464D01*
X135962906Y-94381326D01*
X135895147Y-94604700D01*
X135872267Y-94837000D01*
X135895147Y-95069300D01*
X135962906Y-95292674D01*
X136072942Y-95498536D01*
X136221025Y-95678975D01*
X136401464Y-95827058D01*
X136420064Y-95837000D01*
X136401464Y-95846942D01*
X136221025Y-95995025D01*
X136072942Y-96175464D01*
X135962906Y-96381326D01*
X135895147Y-96604700D01*
X135872267Y-96837000D01*
X135895147Y-97069300D01*
X135962906Y-97292674D01*
X136072942Y-97498536D01*
X136221025Y-97678975D01*
X136401464Y-97827058D01*
X136420064Y-97837000D01*
X136401464Y-97846942D01*
X136221025Y-97995025D01*
X136072942Y-98175464D01*
X135962906Y-98381326D01*
X135895147Y-98604700D01*
X135872267Y-98837000D01*
X135895147Y-99069300D01*
X135962906Y-99292674D01*
X136072942Y-99498536D01*
X136221025Y-99678975D01*
X136401464Y-99827058D01*
X136420064Y-99837000D01*
X136401464Y-99846942D01*
X136221025Y-99995025D01*
X136154046Y-100076639D01*
X136150377Y-100077000D01*
X136150367Y-100077000D01*
X136038714Y-100087997D01*
X135895453Y-100131454D01*
X135763423Y-100202026D01*
X135679783Y-100270668D01*
X135647699Y-100296999D01*
X135623901Y-100325997D01*
X129542003Y-106407896D01*
X129512999Y-106431699D01*
X129475986Y-106476800D01*
X129418026Y-106547424D01*
X129365193Y-106646267D01*
X129347454Y-106679454D01*
X129345080Y-106687281D01*
X129285299Y-106669147D01*
X129053000Y-106646267D01*
X128820700Y-106669147D01*
X128597326Y-106736906D01*
X128391464Y-106846942D01*
X128211025Y-106995025D01*
X128062942Y-107175465D01*
X128053000Y-107194065D01*
X128043058Y-107175464D01*
X127894975Y-106995025D01*
X127714535Y-106846942D01*
X127508673Y-106736906D01*
X127285299Y-106669147D01*
X127053000Y-106646267D01*
X126820700Y-106669147D01*
X126597326Y-106736906D01*
X126391464Y-106846942D01*
X126211025Y-106995025D01*
X126062942Y-107175465D01*
X126053000Y-107194065D01*
X126043058Y-107175464D01*
X125894975Y-106995025D01*
X125714535Y-106846942D01*
X125508673Y-106736906D01*
X125285299Y-106669147D01*
X125053000Y-106646267D01*
X124820700Y-106669147D01*
X124698300Y-106706276D01*
X124698300Y-96874333D01*
X124701977Y-96837000D01*
X124687303Y-96688014D01*
X124643846Y-96544753D01*
X124573274Y-96412724D01*
X124478301Y-96296999D01*
X124362576Y-96202026D01*
X124230547Y-96131454D01*
X124087286Y-96087997D01*
X123975633Y-96077000D01*
X123971953Y-96076638D01*
X123904975Y-95995025D01*
X123724536Y-95846942D01*
X123705936Y-95837000D01*
X123724536Y-95827058D01*
X123904975Y-95678975D01*
X124053058Y-95498536D01*
X124163094Y-95292674D01*
X124230853Y-95069300D01*
X124253733Y-94837000D01*
X124230853Y-94604700D01*
X124163094Y-94381326D01*
X124053058Y-94175464D01*
X123904975Y-93995025D01*
X123872456Y-93968337D01*
X123967494Y-93917537D01*
X124064185Y-93838185D01*
X124143537Y-93741494D01*
X124202502Y-93631180D01*
X124238812Y-93511482D01*
X124251072Y-93387000D01*
X124251072Y-92287000D01*
X124238812Y-92162518D01*
X124202502Y-92042820D01*
X124143537Y-91932506D01*
X124064185Y-91835815D01*
X123967494Y-91756463D01*
X123857180Y-91697498D01*
X123737482Y-91661188D01*
X123613000Y-91648928D01*
X121113000Y-91648928D01*
X120988518Y-91661188D01*
X120868820Y-91697498D01*
X120758506Y-91756463D01*
X120661815Y-91835815D01*
X120582463Y-91932506D01*
X120523498Y-92042820D01*
X120487188Y-92162518D01*
X120474928Y-92287000D01*
X120474928Y-93387000D01*
X120487188Y-93511482D01*
X120523498Y-93631180D01*
X120582463Y-93741494D01*
X120661815Y-93838185D01*
X120758506Y-93917537D01*
X120853544Y-93968337D01*
X120821025Y-93995025D01*
X120672942Y-94175464D01*
X120562906Y-94381326D01*
X120495147Y-94604700D01*
X120472267Y-94837000D01*
X120495147Y-95069300D01*
X120562906Y-95292674D01*
X120672942Y-95498536D01*
X120821025Y-95678975D01*
X121001464Y-95827058D01*
X121020064Y-95837000D01*
X121001464Y-95846942D01*
X120821025Y-95995025D01*
X120672942Y-96175464D01*
X120562906Y-96381326D01*
X120495147Y-96604700D01*
X120472267Y-96837000D01*
X120495147Y-97069300D01*
X120562906Y-97292674D01*
X120672942Y-97498536D01*
X120821025Y-97678975D01*
X121001464Y-97827058D01*
X121020064Y-97837000D01*
X121001464Y-97846942D01*
X120821025Y-97995025D01*
X120672942Y-98175464D01*
X120562906Y-98381326D01*
X120495147Y-98604700D01*
X120472267Y-98837000D01*
X120495147Y-99069300D01*
X120562906Y-99292674D01*
X120672942Y-99498536D01*
X120821025Y-99678975D01*
X121001464Y-99827058D01*
X121020064Y-99837000D01*
X121001464Y-99846942D01*
X120821025Y-99995025D01*
X120672942Y-100175464D01*
X120562906Y-100381326D01*
X120495147Y-100604700D01*
X120472267Y-100837000D01*
X120495147Y-101069300D01*
X120562906Y-101292674D01*
X120672942Y-101498536D01*
X120821025Y-101678975D01*
X121001464Y-101827058D01*
X121020064Y-101837000D01*
X121001464Y-101846942D01*
X120821025Y-101995025D01*
X120672942Y-102175464D01*
X120562906Y-102381326D01*
X120495147Y-102604700D01*
X120472267Y-102837000D01*
X120495147Y-103069300D01*
X120562906Y-103292674D01*
X120672942Y-103498536D01*
X120821025Y-103678975D01*
X121001464Y-103827058D01*
X121020064Y-103837000D01*
X121001464Y-103846942D01*
X120821025Y-103995025D01*
X120672942Y-104175464D01*
X120562906Y-104381326D01*
X120495147Y-104604700D01*
X120472267Y-104837000D01*
X120495147Y-105069300D01*
X120562906Y-105292674D01*
X120672942Y-105498536D01*
X120821025Y-105678975D01*
X121001464Y-105827058D01*
X121020064Y-105837000D01*
X121001464Y-105846942D01*
X120821025Y-105995025D01*
X120672942Y-106175464D01*
X120562906Y-106381326D01*
X120495147Y-106604700D01*
X120472267Y-106837000D01*
X120495147Y-107069300D01*
X120562906Y-107292674D01*
X120672942Y-107498536D01*
X120821025Y-107678975D01*
X121001464Y-107827058D01*
X121207326Y-107937094D01*
X121430700Y-108004853D01*
X121604793Y-108022000D01*
X123121207Y-108022000D01*
X123295300Y-108004853D01*
X123518674Y-107937094D01*
X123724536Y-107827058D01*
X123875445Y-107703210D01*
X123868000Y-107778794D01*
X123868000Y-109295207D01*
X123885147Y-109469300D01*
X123952906Y-109692674D01*
X124062943Y-109898536D01*
X124211026Y-110078975D01*
X124391465Y-110227058D01*
X124597327Y-110337094D01*
X124820701Y-110404853D01*
X125053000Y-110427733D01*
X125285300Y-110404853D01*
X125508674Y-110337094D01*
X125714536Y-110227058D01*
X125894975Y-110078975D01*
X126043058Y-109898536D01*
X126053000Y-109879935D01*
X126062943Y-109898536D01*
X126211026Y-110078975D01*
X126391465Y-110227058D01*
X126597327Y-110337094D01*
X126820701Y-110404853D01*
X127053000Y-110427733D01*
X127285300Y-110404853D01*
X127508674Y-110337094D01*
X127714536Y-110227058D01*
X127894975Y-110078975D01*
X128043058Y-109898536D01*
X128053000Y-109879935D01*
X128062943Y-109898536D01*
X128211026Y-110078975D01*
X128391465Y-110227058D01*
X128597327Y-110337094D01*
X128820701Y-110404853D01*
X129037037Y-110426161D01*
X107765887Y-131697312D01*
X107583335Y-131661000D01*
X107300665Y-131661000D01*
X107023426Y-131716147D01*
X106762273Y-131824320D01*
X106610500Y-131925731D01*
X106610500Y-119940101D01*
X117310430Y-109240172D01*
X117464408Y-109270800D01*
X117739592Y-109270800D01*
X118009490Y-109217114D01*
X118263727Y-109111805D01*
X118492535Y-108958920D01*
X118687120Y-108764335D01*
X118840005Y-108535527D01*
X118945314Y-108281290D01*
X118999000Y-108011392D01*
X118999000Y-107736208D01*
X118945314Y-107466310D01*
X118840005Y-107212073D01*
X118687120Y-106983265D01*
X118492535Y-106788680D01*
X118263727Y-106635795D01*
X118009490Y-106530486D01*
X117739592Y-106476800D01*
X117464408Y-106476800D01*
X117194510Y-106530486D01*
X116940273Y-106635795D01*
X116711465Y-106788680D01*
X116516880Y-106983265D01*
X116363995Y-107212073D01*
X116258686Y-107466310D01*
X116205000Y-107736208D01*
X116205000Y-108011392D01*
X116235628Y-108165370D01*
X105339503Y-119061496D01*
X105310499Y-119085299D01*
X105257401Y-119150000D01*
X105215526Y-119201024D01*
X105144955Y-119333053D01*
X105144954Y-119333054D01*
X105101497Y-119476315D01*
X105090500Y-119587968D01*
X105090500Y-119587978D01*
X105086824Y-119625300D01*
X105090500Y-119662622D01*
X105090501Y-131670382D01*
X105043335Y-131661000D01*
X104760665Y-131661000D01*
X104483426Y-131716147D01*
X104392000Y-131754017D01*
X104392000Y-108849001D01*
X108349593Y-104891408D01*
X116205000Y-104891408D01*
X116205000Y-105166592D01*
X116258686Y-105436490D01*
X116363995Y-105690727D01*
X116516880Y-105919535D01*
X116711465Y-106114120D01*
X116940273Y-106267005D01*
X117194510Y-106372314D01*
X117464408Y-106426000D01*
X117739592Y-106426000D01*
X118009490Y-106372314D01*
X118263727Y-106267005D01*
X118492535Y-106114120D01*
X118687120Y-105919535D01*
X118840005Y-105690727D01*
X118945314Y-105436490D01*
X118999000Y-105166592D01*
X118999000Y-104891408D01*
X118945314Y-104621510D01*
X118840005Y-104367273D01*
X118687120Y-104138465D01*
X118492535Y-103943880D01*
X118263727Y-103790995D01*
X118009490Y-103685686D01*
X117739592Y-103632000D01*
X117464408Y-103632000D01*
X117194510Y-103685686D01*
X116940273Y-103790995D01*
X116711465Y-103943880D01*
X116516880Y-104138465D01*
X116363995Y-104367273D01*
X116258686Y-104621510D01*
X116205000Y-104891408D01*
X108349593Y-104891408D01*
X116272258Y-96968745D01*
X116258686Y-97001510D01*
X116205000Y-97271408D01*
X116205000Y-97546592D01*
X116258686Y-97816490D01*
X116363995Y-98070727D01*
X116516880Y-98299535D01*
X116711465Y-98494120D01*
X116940273Y-98647005D01*
X117194510Y-98752314D01*
X117464408Y-98806000D01*
X117739592Y-98806000D01*
X118009490Y-98752314D01*
X118263727Y-98647005D01*
X118492535Y-98494120D01*
X118687120Y-98299535D01*
X118840005Y-98070727D01*
X118945314Y-97816490D01*
X118999000Y-97546592D01*
X118999000Y-97271408D01*
X118945314Y-97001510D01*
X118840005Y-96747273D01*
X118687120Y-96518465D01*
X118492535Y-96323880D01*
X118263727Y-96170995D01*
X118009490Y-96065686D01*
X117739592Y-96012000D01*
X117464408Y-96012000D01*
X117194510Y-96065686D01*
X117161745Y-96079258D01*
X117310431Y-95930572D01*
X117464408Y-95961200D01*
X117739592Y-95961200D01*
X118009490Y-95907514D01*
X118263727Y-95802205D01*
X118492535Y-95649320D01*
X118687120Y-95454735D01*
X118840005Y-95225927D01*
X118945314Y-94971690D01*
X118999000Y-94701792D01*
X118999000Y-94426608D01*
X118945314Y-94156710D01*
X118840005Y-93902473D01*
X118687120Y-93673665D01*
X118492535Y-93479080D01*
X118263727Y-93326195D01*
X118009490Y-93220886D01*
X117739592Y-93167200D01*
X117464408Y-93167200D01*
X117194510Y-93220886D01*
X116940273Y-93326195D01*
X116711465Y-93479080D01*
X116516880Y-93673665D01*
X116363995Y-93902473D01*
X116258686Y-94156710D01*
X116205000Y-94426608D01*
X116205000Y-94701792D01*
X116235628Y-94855769D01*
X103120998Y-107970401D01*
X103092000Y-107994199D01*
X103068202Y-108023197D01*
X103068201Y-108023198D01*
X102997026Y-108109924D01*
X102926454Y-108241954D01*
X102882998Y-108385215D01*
X102868324Y-108534200D01*
X102872001Y-108571533D01*
X102872000Y-135059687D01*
X102653495Y-135205688D01*
X102439688Y-135419495D01*
X102271701Y-135670905D01*
X102155989Y-135950257D01*
X102097000Y-136246816D01*
X102097000Y-136549184D01*
X102155989Y-136845743D01*
X102271701Y-137125095D01*
X102439688Y-137376505D01*
X102653495Y-137590312D01*
X102904905Y-137758299D01*
X103184257Y-137874011D01*
X103480816Y-137933000D01*
X103783184Y-137933000D01*
X104079743Y-137874011D01*
X104359095Y-137758299D01*
X104610505Y-137590312D01*
X104824312Y-137376505D01*
X104992299Y-137125095D01*
X105108011Y-136845743D01*
X105167000Y-136549184D01*
X105167000Y-136246816D01*
X105108011Y-135950257D01*
X104992299Y-135670905D01*
X104824312Y-135419495D01*
X104610505Y-135205688D01*
X104392000Y-135059687D01*
X104392000Y-134437983D01*
X104483426Y-134475853D01*
X104760665Y-134531000D01*
X105043335Y-134531000D01*
X105320574Y-134475853D01*
X105581727Y-134367680D01*
X105816759Y-134210637D01*
X105853547Y-134173849D01*
X106793206Y-135113507D01*
X106762273Y-135126320D01*
X106527241Y-135283363D01*
X106327363Y-135483241D01*
X106170320Y-135718273D01*
X106062147Y-135979426D01*
X106007000Y-136256665D01*
X106007000Y-136539335D01*
X106062147Y-136816574D01*
X106170320Y-137077727D01*
X106327363Y-137312759D01*
X106527241Y-137512637D01*
X106762273Y-137669680D01*
X107023426Y-137777853D01*
X107300665Y-137833000D01*
X107583335Y-137833000D01*
X107860574Y-137777853D01*
X108121727Y-137669680D01*
X108356759Y-137512637D01*
X108556637Y-137312759D01*
X108713680Y-137077727D01*
X108726493Y-137046794D01*
X109716701Y-138037003D01*
X109740499Y-138066001D01*
X109769497Y-138089799D01*
X109856223Y-138160974D01*
X109981619Y-138228000D01*
X90757800Y-138228000D01*
X90961207Y-138092088D01*
X91356088Y-137697207D01*
X91666344Y-137232876D01*
X91880052Y-136716939D01*
X91989000Y-136169223D01*
X91989000Y-135610777D01*
X91966568Y-135498000D01*
X94473928Y-135498000D01*
X94473928Y-137298000D01*
X94486188Y-137422482D01*
X94522498Y-137542180D01*
X94581463Y-137652494D01*
X94660815Y-137749185D01*
X94757506Y-137828537D01*
X94867820Y-137887502D01*
X94987518Y-137923812D01*
X95112000Y-137936072D01*
X96912000Y-137936072D01*
X97036482Y-137923812D01*
X97156180Y-137887502D01*
X97266494Y-137828537D01*
X97363185Y-137749185D01*
X97442537Y-137652494D01*
X97501502Y-137542180D01*
X97537812Y-137422482D01*
X97550072Y-137298000D01*
X97550072Y-135498000D01*
X97537812Y-135373518D01*
X97501502Y-135253820D01*
X97442537Y-135143506D01*
X97363185Y-135046815D01*
X97266494Y-134967463D01*
X97156180Y-134908498D01*
X97036482Y-134872188D01*
X96912000Y-134859928D01*
X95112000Y-134859928D01*
X94987518Y-134872188D01*
X94867820Y-134908498D01*
X94757506Y-134967463D01*
X94660815Y-135046815D01*
X94581463Y-135143506D01*
X94522498Y-135253820D01*
X94486188Y-135373518D01*
X94473928Y-135498000D01*
X91966568Y-135498000D01*
X91880052Y-135063061D01*
X91666344Y-134547124D01*
X91356088Y-134082793D01*
X90961207Y-133687912D01*
X90496876Y-133377656D01*
X89980939Y-133163948D01*
X89433223Y-133055000D01*
X88874777Y-133055000D01*
X88327061Y-133163948D01*
X87811124Y-133377656D01*
X87346793Y-133687912D01*
X86951912Y-134082793D01*
X86816000Y-134286200D01*
X86816000Y-132954665D01*
X93307000Y-132954665D01*
X93307000Y-133237335D01*
X93362147Y-133514574D01*
X93470320Y-133775727D01*
X93627363Y-134010759D01*
X93827241Y-134210637D01*
X94062273Y-134367680D01*
X94323426Y-134475853D01*
X94600665Y-134531000D01*
X94883335Y-134531000D01*
X95160574Y-134475853D01*
X95421727Y-134367680D01*
X95656759Y-134210637D01*
X95856637Y-134010759D01*
X96013680Y-133775727D01*
X96121853Y-133514574D01*
X96177000Y-133237335D01*
X96177000Y-132954665D01*
X96121853Y-132677426D01*
X96013680Y-132416273D01*
X95856637Y-132181241D01*
X95656759Y-131981363D01*
X95421727Y-131824320D01*
X95160574Y-131716147D01*
X94883335Y-131661000D01*
X94600665Y-131661000D01*
X94323426Y-131716147D01*
X94062273Y-131824320D01*
X93827241Y-131981363D01*
X93627363Y-132181241D01*
X93470320Y-132416273D01*
X93362147Y-132677426D01*
X93307000Y-132954665D01*
X86816000Y-132954665D01*
X86816000Y-122404473D01*
X86869463Y-122504494D01*
X86948815Y-122601185D01*
X87045506Y-122680537D01*
X87155820Y-122739502D01*
X87275518Y-122775812D01*
X87400000Y-122788072D01*
X90400000Y-122788072D01*
X90524482Y-122775812D01*
X90644180Y-122739502D01*
X90754494Y-122680537D01*
X90851185Y-122601185D01*
X90930537Y-122504494D01*
X90989502Y-122394180D01*
X91025812Y-122274482D01*
X91038072Y-122150000D01*
X91038072Y-119150000D01*
X91025812Y-119025518D01*
X90989502Y-118905820D01*
X90930537Y-118795506D01*
X90851185Y-118698815D01*
X90754494Y-118619463D01*
X90644180Y-118560498D01*
X90524482Y-118524188D01*
X90400000Y-118511928D01*
X87400000Y-118511928D01*
X87275518Y-118524188D01*
X87155820Y-118560498D01*
X87045506Y-118619463D01*
X86948815Y-118698815D01*
X86869463Y-118795506D01*
X86816000Y-118895527D01*
X86816000Y-107431408D01*
X93345000Y-107431408D01*
X93345000Y-107706592D01*
X93398686Y-107976490D01*
X93503995Y-108230727D01*
X93656880Y-108459535D01*
X93851465Y-108654120D01*
X94080273Y-108807005D01*
X94334510Y-108912314D01*
X94604408Y-108966000D01*
X94879592Y-108966000D01*
X95149490Y-108912314D01*
X95403727Y-108807005D01*
X95632535Y-108654120D01*
X95827120Y-108459535D01*
X95980005Y-108230727D01*
X96085314Y-107976490D01*
X96139000Y-107706592D01*
X96139000Y-107431408D01*
X96085314Y-107161510D01*
X95980005Y-106907273D01*
X95827120Y-106678465D01*
X95632535Y-106483880D01*
X95403727Y-106330995D01*
X95149490Y-106225686D01*
X94879592Y-106172000D01*
X94604408Y-106172000D01*
X94334510Y-106225686D01*
X94080273Y-106330995D01*
X93851465Y-106483880D01*
X93656880Y-106678465D01*
X93503995Y-106907273D01*
X93398686Y-107161510D01*
X93345000Y-107431408D01*
X86816000Y-107431408D01*
X86816000Y-95583800D01*
X86951912Y-95787207D01*
X87346793Y-96182088D01*
X87811124Y-96492344D01*
X88327061Y-96706052D01*
X88874777Y-96815000D01*
X89433223Y-96815000D01*
X89980939Y-96706052D01*
X90496876Y-96492344D01*
X90961207Y-96182088D01*
X91356088Y-95787207D01*
X91666344Y-95322876D01*
X91880052Y-94806939D01*
X91895076Y-94731408D01*
X93345000Y-94731408D01*
X93345000Y-95006592D01*
X93398686Y-95276490D01*
X93503995Y-95530727D01*
X93656880Y-95759535D01*
X93851465Y-95954120D01*
X94080273Y-96107005D01*
X94334510Y-96212314D01*
X94604408Y-96266000D01*
X94879592Y-96266000D01*
X95149490Y-96212314D01*
X95403727Y-96107005D01*
X95632535Y-95954120D01*
X95827120Y-95759535D01*
X95980005Y-95530727D01*
X96085314Y-95276490D01*
X96139000Y-95006592D01*
X96139000Y-94731408D01*
X96085314Y-94461510D01*
X95980005Y-94207273D01*
X95827120Y-93978465D01*
X95632535Y-93783880D01*
X95403727Y-93630995D01*
X95149490Y-93525686D01*
X94879592Y-93472000D01*
X94604408Y-93472000D01*
X94334510Y-93525686D01*
X94080273Y-93630995D01*
X93851465Y-93783880D01*
X93656880Y-93978465D01*
X93503995Y-94207273D01*
X93398686Y-94461510D01*
X93345000Y-94731408D01*
X91895076Y-94731408D01*
X91989000Y-94259223D01*
X91989000Y-93700777D01*
X91880052Y-93153061D01*
X91666344Y-92637124D01*
X91356088Y-92172793D01*
X90961207Y-91777912D01*
X90757800Y-91642000D01*
X159178200Y-91642000D01*
X158974793Y-91777912D01*
G37*
X158974793Y-91777912D02*
X158579912Y-92172793D01*
X158269656Y-92637124D01*
X158055948Y-93153061D01*
X157947000Y-93700777D01*
X157947000Y-94259223D01*
X158055948Y-94806939D01*
X158269656Y-95322876D01*
X158579912Y-95787207D01*
X158974793Y-96182088D01*
X159439124Y-96492344D01*
X159955061Y-96706052D01*
X160502777Y-96815000D01*
X161061223Y-96815000D01*
X161608939Y-96706052D01*
X162124876Y-96492344D01*
X162589207Y-96182088D01*
X162984088Y-95787207D01*
X163120001Y-95583799D01*
X163120000Y-134286200D01*
X162984088Y-134082793D01*
X162589207Y-133687912D01*
X162124876Y-133377656D01*
X161608939Y-133163948D01*
X161061223Y-133055000D01*
X160502777Y-133055000D01*
X159955061Y-133163948D01*
X159439124Y-133377656D01*
X158974793Y-133687912D01*
X158579912Y-134082793D01*
X158269656Y-134547124D01*
X158055948Y-135063061D01*
X157947000Y-135610777D01*
X157947000Y-136169223D01*
X158055948Y-136716939D01*
X158269656Y-137232876D01*
X158579912Y-137697207D01*
X158974793Y-138092088D01*
X159178200Y-138228000D01*
X125726881Y-138228000D01*
X125852276Y-138160974D01*
X125968001Y-138066001D01*
X125991804Y-138036997D01*
X127541730Y-136487072D01*
X128680000Y-136487072D01*
X128853254Y-136470008D01*
X129019850Y-136419472D01*
X129173386Y-136337405D01*
X129271768Y-136256665D01*
X131725000Y-136256665D01*
X131725000Y-136539335D01*
X131780147Y-136816574D01*
X131888320Y-137077727D01*
X132045363Y-137312759D01*
X132245241Y-137512637D01*
X132480273Y-137669680D01*
X132741426Y-137777853D01*
X133018665Y-137833000D01*
X133301335Y-137833000D01*
X133578574Y-137777853D01*
X133839727Y-137669680D01*
X134074759Y-137512637D01*
X134274637Y-137312759D01*
X134431680Y-137077727D01*
X134539853Y-136816574D01*
X134595000Y-136539335D01*
X134595000Y-136256665D01*
X134539853Y-135979426D01*
X134431680Y-135718273D01*
X134274637Y-135483241D01*
X134074759Y-135283363D01*
X133839727Y-135126320D01*
X133578574Y-135018147D01*
X133301335Y-134963000D01*
X133018665Y-134963000D01*
X132741426Y-135018147D01*
X132480273Y-135126320D01*
X132245241Y-135283363D01*
X132045363Y-135483241D01*
X131888320Y-135718273D01*
X131780147Y-135979426D01*
X131725000Y-136256665D01*
X129271768Y-136256665D01*
X129307962Y-136226962D01*
X129418405Y-136092386D01*
X129500472Y-135938850D01*
X129551008Y-135772254D01*
X129568072Y-135599000D01*
X129568072Y-134460729D01*
X131074136Y-132954665D01*
X131725000Y-132954665D01*
X131725000Y-133237335D01*
X131780147Y-133514574D01*
X131888320Y-133775727D01*
X132045363Y-134010759D01*
X132245241Y-134210637D01*
X132480273Y-134367680D01*
X132741426Y-134475853D01*
X133018665Y-134531000D01*
X133301335Y-134531000D01*
X133578574Y-134475853D01*
X133839727Y-134367680D01*
X134074759Y-134210637D01*
X134274637Y-134010759D01*
X134431680Y-133775727D01*
X134539853Y-133514574D01*
X134595000Y-133237335D01*
X134595000Y-132954665D01*
X134539853Y-132677426D01*
X134431680Y-132416273D01*
X134274637Y-132181241D01*
X134074759Y-131981363D01*
X133839727Y-131824320D01*
X133578574Y-131716147D01*
X133301335Y-131661000D01*
X133018665Y-131661000D01*
X132741426Y-131716147D01*
X132480273Y-131824320D01*
X132245241Y-131981363D01*
X132045363Y-132181241D01*
X131888320Y-132416273D01*
X131780147Y-132677426D01*
X131725000Y-132954665D01*
X131074136Y-132954665D01*
X137574008Y-126454795D01*
X137603001Y-126431001D01*
X137626795Y-126402008D01*
X137626799Y-126402004D01*
X137697973Y-126315277D01*
X137697974Y-126315276D01*
X137768546Y-126183247D01*
X137812003Y-126039986D01*
X137823000Y-125928333D01*
X137823000Y-125928324D01*
X137826676Y-125891001D01*
X137823000Y-125853678D01*
X137823000Y-108022000D01*
X138521207Y-108022000D01*
X138695300Y-108004853D01*
X138918674Y-107937094D01*
X139028600Y-107878337D01*
X139028601Y-131703967D01*
X139024924Y-131741300D01*
X139039598Y-131890285D01*
X139083054Y-132033546D01*
X139153626Y-132165576D01*
X139224801Y-132252302D01*
X139248600Y-132281301D01*
X139277598Y-132305099D01*
X142330551Y-135358053D01*
X142205363Y-135483241D01*
X142048320Y-135718273D01*
X141940147Y-135979426D01*
X141885000Y-136256665D01*
X141885000Y-136539335D01*
X141940147Y-136816574D01*
X142048320Y-137077727D01*
X142205363Y-137312759D01*
X142405241Y-137512637D01*
X142640273Y-137669680D01*
X142901426Y-137777853D01*
X143178665Y-137833000D01*
X143461335Y-137833000D01*
X143738574Y-137777853D01*
X143999727Y-137669680D01*
X144234759Y-137512637D01*
X144434637Y-137312759D01*
X144591680Y-137077727D01*
X144685000Y-136852432D01*
X144778320Y-137077727D01*
X144935363Y-137312759D01*
X145135241Y-137512637D01*
X145370273Y-137669680D01*
X145631426Y-137777853D01*
X145908665Y-137833000D01*
X146191335Y-137833000D01*
X146468574Y-137777853D01*
X146729727Y-137669680D01*
X146964759Y-137512637D01*
X147164637Y-137312759D01*
X147321680Y-137077727D01*
X147429853Y-136816574D01*
X147485000Y-136539335D01*
X147485000Y-136256665D01*
X147429853Y-135979426D01*
X147321680Y-135718273D01*
X147164637Y-135483241D01*
X146964759Y-135283363D01*
X146810000Y-135179957D01*
X146810000Y-134314043D01*
X146964759Y-134210637D01*
X147164637Y-134010759D01*
X147321680Y-133775727D01*
X147429853Y-133514574D01*
X147485000Y-133237335D01*
X147485000Y-132954665D01*
X147429853Y-132677426D01*
X147321680Y-132416273D01*
X147164637Y-132181241D01*
X146964759Y-131981363D01*
X146810000Y-131877957D01*
X146810000Y-123645501D01*
X155220551Y-132056053D01*
X155095363Y-132181241D01*
X154938320Y-132416273D01*
X154830147Y-132677426D01*
X154775000Y-132954665D01*
X154775000Y-133237335D01*
X154830147Y-133514574D01*
X154938320Y-133775727D01*
X155095363Y-134010759D01*
X155295241Y-134210637D01*
X155530273Y-134367680D01*
X155791426Y-134475853D01*
X155908715Y-134499184D01*
X155698998Y-134708901D01*
X155670000Y-134732699D01*
X155646202Y-134761697D01*
X155646201Y-134761698D01*
X155575026Y-134848424D01*
X155504454Y-134980454D01*
X155476700Y-135071949D01*
X155460998Y-135123714D01*
X155455843Y-135176052D01*
X155295241Y-135283363D01*
X155095363Y-135483241D01*
X154938320Y-135718273D01*
X154830147Y-135979426D01*
X154775000Y-136256665D01*
X154775000Y-136539335D01*
X154830147Y-136816574D01*
X154938320Y-137077727D01*
X155095363Y-137312759D01*
X155295241Y-137512637D01*
X155530273Y-137669680D01*
X155791426Y-137777853D01*
X156068665Y-137833000D01*
X156351335Y-137833000D01*
X156628574Y-137777853D01*
X156889727Y-137669680D01*
X157124759Y-137512637D01*
X157324637Y-137312759D01*
X157481680Y-137077727D01*
X157589853Y-136816574D01*
X157645000Y-136539335D01*
X157645000Y-136256665D01*
X157589853Y-135979426D01*
X157481680Y-135718273D01*
X157324637Y-135483241D01*
X157199449Y-135358053D01*
X157846303Y-134711199D01*
X157875301Y-134687401D01*
X157970274Y-134571676D01*
X158040846Y-134439647D01*
X158084303Y-134296386D01*
X158095300Y-134184733D01*
X158098977Y-134147400D01*
X158095300Y-134110067D01*
X158095300Y-120063251D01*
X159270000Y-120063251D01*
X159270000Y-121236750D01*
X159295553Y-121496196D01*
X159396535Y-121829089D01*
X159560522Y-122135884D01*
X159781209Y-122404792D01*
X160050117Y-122625479D01*
X160356912Y-122789465D01*
X160689805Y-122890447D01*
X161036000Y-122924544D01*
X161382196Y-122890447D01*
X161715089Y-122789465D01*
X162021884Y-122625479D01*
X162290792Y-122404792D01*
X162511479Y-122135884D01*
X162675465Y-121829089D01*
X162776447Y-121496196D01*
X162802000Y-121236750D01*
X162802000Y-120063250D01*
X162776447Y-119803804D01*
X162675465Y-119470911D01*
X162511479Y-119164116D01*
X162290792Y-118895208D01*
X162021883Y-118674521D01*
X161715088Y-118510535D01*
X161382195Y-118409553D01*
X161036000Y-118375456D01*
X160689804Y-118409553D01*
X160356911Y-118510535D01*
X160050116Y-118674521D01*
X159781208Y-118895208D01*
X159560521Y-119164117D01*
X159396535Y-119470912D01*
X159295553Y-119803805D01*
X159270000Y-120063251D01*
X158095300Y-120063251D01*
X158095300Y-108550001D01*
X158141324Y-108580753D01*
X158375179Y-108677619D01*
X158623439Y-108727000D01*
X158876561Y-108727000D01*
X159124821Y-108677619D01*
X159358676Y-108580753D01*
X159569140Y-108440125D01*
X159748125Y-108261140D01*
X159888753Y-108050676D01*
X159985619Y-107816821D01*
X160035000Y-107568561D01*
X160035000Y-107457000D01*
X160146561Y-107457000D01*
X160394821Y-107407619D01*
X160628676Y-107310753D01*
X160839140Y-107170125D01*
X161018125Y-106991140D01*
X161158753Y-106780676D01*
X161255619Y-106546821D01*
X161305000Y-106298561D01*
X161305000Y-106045439D01*
X161255619Y-105797179D01*
X161158753Y-105563324D01*
X161018125Y-105352860D01*
X160839140Y-105173875D01*
X160628676Y-105033247D01*
X160394821Y-104936381D01*
X160146561Y-104887000D01*
X160038072Y-104887000D01*
X160038072Y-104252000D01*
X160025812Y-104127518D01*
X159989502Y-104007820D01*
X159930537Y-103897506D01*
X159851185Y-103800815D01*
X159754494Y-103721463D01*
X159644180Y-103662498D01*
X159524482Y-103626188D01*
X159400000Y-103613928D01*
X158100000Y-103613928D01*
X158095300Y-103614391D01*
X158095300Y-102404622D01*
X158098976Y-102367299D01*
X158095300Y-102329976D01*
X158095300Y-102329967D01*
X158084303Y-102218314D01*
X158040846Y-102075053D01*
X157970274Y-101943024D01*
X157875301Y-101827299D01*
X157846304Y-101803502D01*
X157014177Y-100971375D01*
X157020168Y-100956912D01*
X157083000Y-100641033D01*
X157083000Y-100318967D01*
X157020168Y-100003088D01*
X156896918Y-99705537D01*
X156717987Y-99437748D01*
X156490252Y-99210013D01*
X156222463Y-99031082D01*
X156208000Y-99025091D01*
X156208000Y-95434909D01*
X156222463Y-95428918D01*
X156490252Y-95249987D01*
X156717987Y-95022252D01*
X156896918Y-94754463D01*
X157020168Y-94456912D01*
X157083000Y-94141033D01*
X157083000Y-93818967D01*
X157020168Y-93503088D01*
X156896918Y-93205537D01*
X156717987Y-92937748D01*
X156490252Y-92710013D01*
X156222463Y-92531082D01*
X155924912Y-92407832D01*
X155609033Y-92345000D01*
X155286967Y-92345000D01*
X154971088Y-92407832D01*
X154673537Y-92531082D01*
X154405748Y-92710013D01*
X154178013Y-92937748D01*
X153999082Y-93205537D01*
X153875832Y-93503088D01*
X153813000Y-93818967D01*
X153813000Y-94141033D01*
X153875832Y-94456912D01*
X153999082Y-94754463D01*
X154178013Y-95022252D01*
X154405748Y-95249987D01*
X154673537Y-95428918D01*
X154688000Y-95434909D01*
X154688001Y-99025091D01*
X154673537Y-99031082D01*
X154405748Y-99210013D01*
X154178013Y-99437748D01*
X153999082Y-99705537D01*
X153875832Y-100003088D01*
X153813000Y-100318967D01*
X153813000Y-100641033D01*
X153875832Y-100956912D01*
X153999082Y-101254463D01*
X154178013Y-101522252D01*
X154405748Y-101749987D01*
X154673537Y-101928918D01*
X154971088Y-102052168D01*
X155286967Y-102115000D01*
X155609033Y-102115000D01*
X155924912Y-102052168D01*
X155939375Y-102046177D01*
X156575300Y-102682102D01*
X156575301Y-131261199D01*
X147318000Y-122003899D01*
X147318000Y-101934909D01*
X147332463Y-101928918D01*
X147600252Y-101749987D01*
X147827987Y-101522252D01*
X148006918Y-101254463D01*
X148130168Y-100956912D01*
X148193000Y-100641033D01*
X148193000Y-100318967D01*
X148130168Y-100003088D01*
X148006918Y-99705537D01*
X147827987Y-99437748D01*
X147600252Y-99210013D01*
X147332463Y-99031082D01*
X147318000Y-99025091D01*
X147318000Y-95434909D01*
X147332463Y-95428918D01*
X147600252Y-95249987D01*
X147827987Y-95022252D01*
X148006918Y-94754463D01*
X148130168Y-94456912D01*
X148193000Y-94141033D01*
X148193000Y-93818967D01*
X149313000Y-93818967D01*
X149313000Y-94141033D01*
X149375832Y-94456912D01*
X149499082Y-94754463D01*
X149678013Y-95022252D01*
X149905748Y-95249987D01*
X150173537Y-95428918D01*
X150188000Y-95434909D01*
X150188001Y-99025091D01*
X150173537Y-99031082D01*
X149905748Y-99210013D01*
X149678013Y-99437748D01*
X149499082Y-99705537D01*
X149375832Y-100003088D01*
X149313000Y-100318967D01*
X149313000Y-100641033D01*
X149375832Y-100956912D01*
X149499082Y-101254463D01*
X149678013Y-101522252D01*
X149905748Y-101749987D01*
X150173537Y-101928918D01*
X150471088Y-102052168D01*
X150786967Y-102115000D01*
X151109033Y-102115000D01*
X151424912Y-102052168D01*
X151722463Y-101928918D01*
X151990252Y-101749987D01*
X152217987Y-101522252D01*
X152396918Y-101254463D01*
X152520168Y-100956912D01*
X152583000Y-100641033D01*
X152583000Y-100318967D01*
X152520168Y-100003088D01*
X152396918Y-99705537D01*
X152217987Y-99437748D01*
X151990252Y-99210013D01*
X151722463Y-99031082D01*
X151708000Y-99025091D01*
X151708000Y-95434909D01*
X151722463Y-95428918D01*
X151990252Y-95249987D01*
X152217987Y-95022252D01*
X152396918Y-94754463D01*
X152520168Y-94456912D01*
X152583000Y-94141033D01*
X152583000Y-93818967D01*
X152520168Y-93503088D01*
X152396918Y-93205537D01*
X152217987Y-92937748D01*
X151990252Y-92710013D01*
X151722463Y-92531082D01*
X151424912Y-92407832D01*
X151109033Y-92345000D01*
X150786967Y-92345000D01*
X150471088Y-92407832D01*
X150173537Y-92531082D01*
X149905748Y-92710013D01*
X149678013Y-92937748D01*
X149499082Y-93205537D01*
X149375832Y-93503088D01*
X149313000Y-93818967D01*
X148193000Y-93818967D01*
X148130168Y-93503088D01*
X148006918Y-93205537D01*
X147827987Y-92937748D01*
X147600252Y-92710013D01*
X147332463Y-92531082D01*
X147034912Y-92407832D01*
X146719033Y-92345000D01*
X146396967Y-92345000D01*
X146081088Y-92407832D01*
X145783537Y-92531082D01*
X145515748Y-92710013D01*
X145288013Y-92937748D01*
X145109082Y-93205537D01*
X144985832Y-93503088D01*
X144923000Y-93818967D01*
X144923000Y-94141033D01*
X144985832Y-94456912D01*
X145109082Y-94754463D01*
X145288013Y-95022252D01*
X145515748Y-95249987D01*
X145783537Y-95428918D01*
X145798000Y-95434909D01*
X145798001Y-99025091D01*
X145783537Y-99031082D01*
X145515748Y-99210013D01*
X145288013Y-99437748D01*
X145109082Y-99705537D01*
X144985832Y-100003088D01*
X144923000Y-100318967D01*
X144923000Y-100641033D01*
X144985832Y-100956912D01*
X145109082Y-101254463D01*
X145288013Y-101522252D01*
X145515748Y-101749987D01*
X145783537Y-101928918D01*
X145798000Y-101934909D01*
X145798000Y-106959199D01*
X144859611Y-106020810D01*
X144899502Y-105946180D01*
X144935812Y-105826482D01*
X144948072Y-105702000D01*
X144948072Y-104102000D01*
X144935812Y-103977518D01*
X144899502Y-103857820D01*
X144840537Y-103747506D01*
X144761185Y-103650815D01*
X144664494Y-103571463D01*
X144554180Y-103512498D01*
X144434482Y-103476188D01*
X144310000Y-103463928D01*
X142818000Y-103463928D01*
X142818000Y-101934909D01*
X142832463Y-101928918D01*
X143100252Y-101749987D01*
X143327987Y-101522252D01*
X143506918Y-101254463D01*
X143630168Y-100956912D01*
X143693000Y-100641033D01*
X143693000Y-100318967D01*
X143630168Y-100003088D01*
X143506918Y-99705537D01*
X143327987Y-99437748D01*
X143100252Y-99210013D01*
X142832463Y-99031082D01*
X142534912Y-98907832D01*
X142219033Y-98845000D01*
X141896967Y-98845000D01*
X141581088Y-98907832D01*
X141449200Y-98962462D01*
X141449200Y-95860325D01*
X141452876Y-95823000D01*
X141449200Y-95785675D01*
X141449200Y-95785667D01*
X141438203Y-95674014D01*
X141394746Y-95530753D01*
X141356458Y-95459123D01*
X141581088Y-95552168D01*
X141896967Y-95615000D01*
X142219033Y-95615000D01*
X142534912Y-95552168D01*
X142832463Y-95428918D01*
X143100252Y-95249987D01*
X143327987Y-95022252D01*
X143506918Y-94754463D01*
X143630168Y-94456912D01*
X143693000Y-94141033D01*
X143693000Y-93818967D01*
X143630168Y-93503088D01*
X143506918Y-93205537D01*
X143327987Y-92937748D01*
X143100252Y-92710013D01*
X142832463Y-92531082D01*
X142534912Y-92407832D01*
X142219033Y-92345000D01*
X141896967Y-92345000D01*
X141581088Y-92407832D01*
X141283537Y-92531082D01*
X141015748Y-92710013D01*
X140788013Y-92937748D01*
X140609082Y-93205537D01*
X140485832Y-93503088D01*
X140423000Y-93818967D01*
X140423000Y-94141033D01*
X140485832Y-94456912D01*
X140548000Y-94606998D01*
X139446964Y-93505962D01*
X139453058Y-93498536D01*
X139563094Y-93292674D01*
X139630853Y-93069300D01*
X139653733Y-92837000D01*
X139630853Y-92604700D01*
X139563094Y-92381326D01*
X139453058Y-92175464D01*
X139304975Y-91995025D01*
X139124536Y-91846942D01*
X138918674Y-91736906D01*
X138695300Y-91669147D01*
X138521207Y-91652000D01*
X137004793Y-91652000D01*
X136830700Y-91669147D01*
X136607326Y-91736906D01*
X136401464Y-91846942D01*
X136221025Y-91995025D01*
X136072942Y-92175464D01*
X135962906Y-92381326D01*
X135895147Y-92604700D01*
X135872267Y-92837000D01*
X135895147Y-93069300D01*
X135962906Y-93292674D01*
X136072942Y-93498536D01*
X136221025Y-93678975D01*
X136401464Y-93827058D01*
X136420064Y-93837000D01*
X136401464Y-93846942D01*
X136221025Y-93995025D01*
X136072942Y-94175464D01*
X135962906Y-94381326D01*
X135895147Y-94604700D01*
X135872267Y-94837000D01*
X135895147Y-95069300D01*
X135962906Y-95292674D01*
X136072942Y-95498536D01*
X136221025Y-95678975D01*
X136401464Y-95827058D01*
X136420064Y-95837000D01*
X136401464Y-95846942D01*
X136221025Y-95995025D01*
X136072942Y-96175464D01*
X135962906Y-96381326D01*
X135895147Y-96604700D01*
X135872267Y-96837000D01*
X135895147Y-97069300D01*
X135962906Y-97292674D01*
X136072942Y-97498536D01*
X136221025Y-97678975D01*
X136401464Y-97827058D01*
X136420064Y-97837000D01*
X136401464Y-97846942D01*
X136221025Y-97995025D01*
X136072942Y-98175464D01*
X135962906Y-98381326D01*
X135895147Y-98604700D01*
X135872267Y-98837000D01*
X135895147Y-99069300D01*
X135962906Y-99292674D01*
X136072942Y-99498536D01*
X136221025Y-99678975D01*
X136401464Y-99827058D01*
X136420064Y-99837000D01*
X136401464Y-99846942D01*
X136221025Y-99995025D01*
X136154046Y-100076639D01*
X136150377Y-100077000D01*
X136150367Y-100077000D01*
X136038714Y-100087997D01*
X135895453Y-100131454D01*
X135763423Y-100202026D01*
X135679783Y-100270668D01*
X135647699Y-100296999D01*
X135623901Y-100325997D01*
X129542003Y-106407896D01*
X129512999Y-106431699D01*
X129475986Y-106476800D01*
X129418026Y-106547424D01*
X129365193Y-106646267D01*
X129347454Y-106679454D01*
X129345080Y-106687281D01*
X129285299Y-106669147D01*
X129053000Y-106646267D01*
X128820700Y-106669147D01*
X128597326Y-106736906D01*
X128391464Y-106846942D01*
X128211025Y-106995025D01*
X128062942Y-107175465D01*
X128053000Y-107194065D01*
X128043058Y-107175464D01*
X127894975Y-106995025D01*
X127714535Y-106846942D01*
X127508673Y-106736906D01*
X127285299Y-106669147D01*
X127053000Y-106646267D01*
X126820700Y-106669147D01*
X126597326Y-106736906D01*
X126391464Y-106846942D01*
X126211025Y-106995025D01*
X126062942Y-107175465D01*
X126053000Y-107194065D01*
X126043058Y-107175464D01*
X125894975Y-106995025D01*
X125714535Y-106846942D01*
X125508673Y-106736906D01*
X125285299Y-106669147D01*
X125053000Y-106646267D01*
X124820700Y-106669147D01*
X124698300Y-106706276D01*
X124698300Y-96874333D01*
X124701977Y-96837000D01*
X124687303Y-96688014D01*
X124643846Y-96544753D01*
X124573274Y-96412724D01*
X124478301Y-96296999D01*
X124362576Y-96202026D01*
X124230547Y-96131454D01*
X124087286Y-96087997D01*
X123975633Y-96077000D01*
X123971953Y-96076638D01*
X123904975Y-95995025D01*
X123724536Y-95846942D01*
X123705936Y-95837000D01*
X123724536Y-95827058D01*
X123904975Y-95678975D01*
X124053058Y-95498536D01*
X124163094Y-95292674D01*
X124230853Y-95069300D01*
X124253733Y-94837000D01*
X124230853Y-94604700D01*
X124163094Y-94381326D01*
X124053058Y-94175464D01*
X123904975Y-93995025D01*
X123872456Y-93968337D01*
X123967494Y-93917537D01*
X124064185Y-93838185D01*
X124143537Y-93741494D01*
X124202502Y-93631180D01*
X124238812Y-93511482D01*
X124251072Y-93387000D01*
X124251072Y-92287000D01*
X124238812Y-92162518D01*
X124202502Y-92042820D01*
X124143537Y-91932506D01*
X124064185Y-91835815D01*
X123967494Y-91756463D01*
X123857180Y-91697498D01*
X123737482Y-91661188D01*
X123613000Y-91648928D01*
X121113000Y-91648928D01*
X120988518Y-91661188D01*
X120868820Y-91697498D01*
X120758506Y-91756463D01*
X120661815Y-91835815D01*
X120582463Y-91932506D01*
X120523498Y-92042820D01*
X120487188Y-92162518D01*
X120474928Y-92287000D01*
X120474928Y-93387000D01*
X120487188Y-93511482D01*
X120523498Y-93631180D01*
X120582463Y-93741494D01*
X120661815Y-93838185D01*
X120758506Y-93917537D01*
X120853544Y-93968337D01*
X120821025Y-93995025D01*
X120672942Y-94175464D01*
X120562906Y-94381326D01*
X120495147Y-94604700D01*
X120472267Y-94837000D01*
X120495147Y-95069300D01*
X120562906Y-95292674D01*
X120672942Y-95498536D01*
X120821025Y-95678975D01*
X121001464Y-95827058D01*
X121020064Y-95837000D01*
X121001464Y-95846942D01*
X120821025Y-95995025D01*
X120672942Y-96175464D01*
X120562906Y-96381326D01*
X120495147Y-96604700D01*
X120472267Y-96837000D01*
X120495147Y-97069300D01*
X120562906Y-97292674D01*
X120672942Y-97498536D01*
X120821025Y-97678975D01*
X121001464Y-97827058D01*
X121020064Y-97837000D01*
X121001464Y-97846942D01*
X120821025Y-97995025D01*
X120672942Y-98175464D01*
X120562906Y-98381326D01*
X120495147Y-98604700D01*
X120472267Y-98837000D01*
X120495147Y-99069300D01*
X120562906Y-99292674D01*
X120672942Y-99498536D01*
X120821025Y-99678975D01*
X121001464Y-99827058D01*
X121020064Y-99837000D01*
X121001464Y-99846942D01*
X120821025Y-99995025D01*
X120672942Y-100175464D01*
X120562906Y-100381326D01*
X120495147Y-100604700D01*
X120472267Y-100837000D01*
X120495147Y-101069300D01*
X120562906Y-101292674D01*
X120672942Y-101498536D01*
X120821025Y-101678975D01*
X121001464Y-101827058D01*
X121020064Y-101837000D01*
X121001464Y-101846942D01*
X120821025Y-101995025D01*
X120672942Y-102175464D01*
X120562906Y-102381326D01*
X120495147Y-102604700D01*
X120472267Y-102837000D01*
X120495147Y-103069300D01*
X120562906Y-103292674D01*
X120672942Y-103498536D01*
X120821025Y-103678975D01*
X121001464Y-103827058D01*
X121020064Y-103837000D01*
X121001464Y-103846942D01*
X120821025Y-103995025D01*
X120672942Y-104175464D01*
X120562906Y-104381326D01*
X120495147Y-104604700D01*
X120472267Y-104837000D01*
X120495147Y-105069300D01*
X120562906Y-105292674D01*
X120672942Y-105498536D01*
X120821025Y-105678975D01*
X121001464Y-105827058D01*
X121020064Y-105837000D01*
X121001464Y-105846942D01*
X120821025Y-105995025D01*
X120672942Y-106175464D01*
X120562906Y-106381326D01*
X120495147Y-106604700D01*
X120472267Y-106837000D01*
X120495147Y-107069300D01*
X120562906Y-107292674D01*
X120672942Y-107498536D01*
X120821025Y-107678975D01*
X121001464Y-107827058D01*
X121207326Y-107937094D01*
X121430700Y-108004853D01*
X121604793Y-108022000D01*
X123121207Y-108022000D01*
X123295300Y-108004853D01*
X123518674Y-107937094D01*
X123724536Y-107827058D01*
X123875445Y-107703210D01*
X123868000Y-107778794D01*
X123868000Y-109295207D01*
X123885147Y-109469300D01*
X123952906Y-109692674D01*
X124062943Y-109898536D01*
X124211026Y-110078975D01*
X124391465Y-110227058D01*
X124597327Y-110337094D01*
X124820701Y-110404853D01*
X125053000Y-110427733D01*
X125285300Y-110404853D01*
X125508674Y-110337094D01*
X125714536Y-110227058D01*
X125894975Y-110078975D01*
X126043058Y-109898536D01*
X126053000Y-109879935D01*
X126062943Y-109898536D01*
X126211026Y-110078975D01*
X126391465Y-110227058D01*
X126597327Y-110337094D01*
X126820701Y-110404853D01*
X127053000Y-110427733D01*
X127285300Y-110404853D01*
X127508674Y-110337094D01*
X127714536Y-110227058D01*
X127894975Y-110078975D01*
X128043058Y-109898536D01*
X128053000Y-109879935D01*
X128062943Y-109898536D01*
X128211026Y-110078975D01*
X128391465Y-110227058D01*
X128597327Y-110337094D01*
X128820701Y-110404853D01*
X129037037Y-110426161D01*
X107765887Y-131697312D01*
X107583335Y-131661000D01*
X107300665Y-131661000D01*
X107023426Y-131716147D01*
X106762273Y-131824320D01*
X106610500Y-131925731D01*
X106610500Y-119940101D01*
X117310430Y-109240172D01*
X117464408Y-109270800D01*
X117739592Y-109270800D01*
X118009490Y-109217114D01*
X118263727Y-109111805D01*
X118492535Y-108958920D01*
X118687120Y-108764335D01*
X118840005Y-108535527D01*
X118945314Y-108281290D01*
X118999000Y-108011392D01*
X118999000Y-107736208D01*
X118945314Y-107466310D01*
X118840005Y-107212073D01*
X118687120Y-106983265D01*
X118492535Y-106788680D01*
X118263727Y-106635795D01*
X118009490Y-106530486D01*
X117739592Y-106476800D01*
X117464408Y-106476800D01*
X117194510Y-106530486D01*
X116940273Y-106635795D01*
X116711465Y-106788680D01*
X116516880Y-106983265D01*
X116363995Y-107212073D01*
X116258686Y-107466310D01*
X116205000Y-107736208D01*
X116205000Y-108011392D01*
X116235628Y-108165370D01*
X105339503Y-119061496D01*
X105310499Y-119085299D01*
X105257401Y-119150000D01*
X105215526Y-119201024D01*
X105144955Y-119333053D01*
X105144954Y-119333054D01*
X105101497Y-119476315D01*
X105090500Y-119587968D01*
X105090500Y-119587978D01*
X105086824Y-119625300D01*
X105090500Y-119662622D01*
X105090501Y-131670382D01*
X105043335Y-131661000D01*
X104760665Y-131661000D01*
X104483426Y-131716147D01*
X104392000Y-131754017D01*
X104392000Y-108849001D01*
X108349593Y-104891408D01*
X116205000Y-104891408D01*
X116205000Y-105166592D01*
X116258686Y-105436490D01*
X116363995Y-105690727D01*
X116516880Y-105919535D01*
X116711465Y-106114120D01*
X116940273Y-106267005D01*
X117194510Y-106372314D01*
X117464408Y-106426000D01*
X117739592Y-106426000D01*
X118009490Y-106372314D01*
X118263727Y-106267005D01*
X118492535Y-106114120D01*
X118687120Y-105919535D01*
X118840005Y-105690727D01*
X118945314Y-105436490D01*
X118999000Y-105166592D01*
X118999000Y-104891408D01*
X118945314Y-104621510D01*
X118840005Y-104367273D01*
X118687120Y-104138465D01*
X118492535Y-103943880D01*
X118263727Y-103790995D01*
X118009490Y-103685686D01*
X117739592Y-103632000D01*
X117464408Y-103632000D01*
X117194510Y-103685686D01*
X116940273Y-103790995D01*
X116711465Y-103943880D01*
X116516880Y-104138465D01*
X116363995Y-104367273D01*
X116258686Y-104621510D01*
X116205000Y-104891408D01*
X108349593Y-104891408D01*
X116272258Y-96968745D01*
X116258686Y-97001510D01*
X116205000Y-97271408D01*
X116205000Y-97546592D01*
X116258686Y-97816490D01*
X116363995Y-98070727D01*
X116516880Y-98299535D01*
X116711465Y-98494120D01*
X116940273Y-98647005D01*
X117194510Y-98752314D01*
X117464408Y-98806000D01*
X117739592Y-98806000D01*
X118009490Y-98752314D01*
X118263727Y-98647005D01*
X118492535Y-98494120D01*
X118687120Y-98299535D01*
X118840005Y-98070727D01*
X118945314Y-97816490D01*
X118999000Y-97546592D01*
X118999000Y-97271408D01*
X118945314Y-97001510D01*
X118840005Y-96747273D01*
X118687120Y-96518465D01*
X118492535Y-96323880D01*
X118263727Y-96170995D01*
X118009490Y-96065686D01*
X117739592Y-96012000D01*
X117464408Y-96012000D01*
X117194510Y-96065686D01*
X117161745Y-96079258D01*
X117310431Y-95930572D01*
X117464408Y-95961200D01*
X117739592Y-95961200D01*
X118009490Y-95907514D01*
X118263727Y-95802205D01*
X118492535Y-95649320D01*
X118687120Y-95454735D01*
X118840005Y-95225927D01*
X118945314Y-94971690D01*
X118999000Y-94701792D01*
X118999000Y-94426608D01*
X118945314Y-94156710D01*
X118840005Y-93902473D01*
X118687120Y-93673665D01*
X118492535Y-93479080D01*
X118263727Y-93326195D01*
X118009490Y-93220886D01*
X117739592Y-93167200D01*
X117464408Y-93167200D01*
X117194510Y-93220886D01*
X116940273Y-93326195D01*
X116711465Y-93479080D01*
X116516880Y-93673665D01*
X116363995Y-93902473D01*
X116258686Y-94156710D01*
X116205000Y-94426608D01*
X116205000Y-94701792D01*
X116235628Y-94855769D01*
X103120998Y-107970401D01*
X103092000Y-107994199D01*
X103068202Y-108023197D01*
X103068201Y-108023198D01*
X102997026Y-108109924D01*
X102926454Y-108241954D01*
X102882998Y-108385215D01*
X102868324Y-108534200D01*
X102872001Y-108571533D01*
X102872000Y-135059687D01*
X102653495Y-135205688D01*
X102439688Y-135419495D01*
X102271701Y-135670905D01*
X102155989Y-135950257D01*
X102097000Y-136246816D01*
X102097000Y-136549184D01*
X102155989Y-136845743D01*
X102271701Y-137125095D01*
X102439688Y-137376505D01*
X102653495Y-137590312D01*
X102904905Y-137758299D01*
X103184257Y-137874011D01*
X103480816Y-137933000D01*
X103783184Y-137933000D01*
X104079743Y-137874011D01*
X104359095Y-137758299D01*
X104610505Y-137590312D01*
X104824312Y-137376505D01*
X104992299Y-137125095D01*
X105108011Y-136845743D01*
X105167000Y-136549184D01*
X105167000Y-136246816D01*
X105108011Y-135950257D01*
X104992299Y-135670905D01*
X104824312Y-135419495D01*
X104610505Y-135205688D01*
X104392000Y-135059687D01*
X104392000Y-134437983D01*
X104483426Y-134475853D01*
X104760665Y-134531000D01*
X105043335Y-134531000D01*
X105320574Y-134475853D01*
X105581727Y-134367680D01*
X105816759Y-134210637D01*
X105853547Y-134173849D01*
X106793206Y-135113507D01*
X106762273Y-135126320D01*
X106527241Y-135283363D01*
X106327363Y-135483241D01*
X106170320Y-135718273D01*
X106062147Y-135979426D01*
X106007000Y-136256665D01*
X106007000Y-136539335D01*
X106062147Y-136816574D01*
X106170320Y-137077727D01*
X106327363Y-137312759D01*
X106527241Y-137512637D01*
X106762273Y-137669680D01*
X107023426Y-137777853D01*
X107300665Y-137833000D01*
X107583335Y-137833000D01*
X107860574Y-137777853D01*
X108121727Y-137669680D01*
X108356759Y-137512637D01*
X108556637Y-137312759D01*
X108713680Y-137077727D01*
X108726493Y-137046794D01*
X109716701Y-138037003D01*
X109740499Y-138066001D01*
X109769497Y-138089799D01*
X109856223Y-138160974D01*
X109981619Y-138228000D01*
X90757800Y-138228000D01*
X90961207Y-138092088D01*
X91356088Y-137697207D01*
X91666344Y-137232876D01*
X91880052Y-136716939D01*
X91989000Y-136169223D01*
X91989000Y-135610777D01*
X91966568Y-135498000D01*
X94473928Y-135498000D01*
X94473928Y-137298000D01*
X94486188Y-137422482D01*
X94522498Y-137542180D01*
X94581463Y-137652494D01*
X94660815Y-137749185D01*
X94757506Y-137828537D01*
X94867820Y-137887502D01*
X94987518Y-137923812D01*
X95112000Y-137936072D01*
X96912000Y-137936072D01*
X97036482Y-137923812D01*
X97156180Y-137887502D01*
X97266494Y-137828537D01*
X97363185Y-137749185D01*
X97442537Y-137652494D01*
X97501502Y-137542180D01*
X97537812Y-137422482D01*
X97550072Y-137298000D01*
X97550072Y-135498000D01*
X97537812Y-135373518D01*
X97501502Y-135253820D01*
X97442537Y-135143506D01*
X97363185Y-135046815D01*
X97266494Y-134967463D01*
X97156180Y-134908498D01*
X97036482Y-134872188D01*
X96912000Y-134859928D01*
X95112000Y-134859928D01*
X94987518Y-134872188D01*
X94867820Y-134908498D01*
X94757506Y-134967463D01*
X94660815Y-135046815D01*
X94581463Y-135143506D01*
X94522498Y-135253820D01*
X94486188Y-135373518D01*
X94473928Y-135498000D01*
X91966568Y-135498000D01*
X91880052Y-135063061D01*
X91666344Y-134547124D01*
X91356088Y-134082793D01*
X90961207Y-133687912D01*
X90496876Y-133377656D01*
X89980939Y-133163948D01*
X89433223Y-133055000D01*
X88874777Y-133055000D01*
X88327061Y-133163948D01*
X87811124Y-133377656D01*
X87346793Y-133687912D01*
X86951912Y-134082793D01*
X86816000Y-134286200D01*
X86816000Y-132954665D01*
X93307000Y-132954665D01*
X93307000Y-133237335D01*
X93362147Y-133514574D01*
X93470320Y-133775727D01*
X93627363Y-134010759D01*
X93827241Y-134210637D01*
X94062273Y-134367680D01*
X94323426Y-134475853D01*
X94600665Y-134531000D01*
X94883335Y-134531000D01*
X95160574Y-134475853D01*
X95421727Y-134367680D01*
X95656759Y-134210637D01*
X95856637Y-134010759D01*
X96013680Y-133775727D01*
X96121853Y-133514574D01*
X96177000Y-133237335D01*
X96177000Y-132954665D01*
X96121853Y-132677426D01*
X96013680Y-132416273D01*
X95856637Y-132181241D01*
X95656759Y-131981363D01*
X95421727Y-131824320D01*
X95160574Y-131716147D01*
X94883335Y-131661000D01*
X94600665Y-131661000D01*
X94323426Y-131716147D01*
X94062273Y-131824320D01*
X93827241Y-131981363D01*
X93627363Y-132181241D01*
X93470320Y-132416273D01*
X93362147Y-132677426D01*
X93307000Y-132954665D01*
X86816000Y-132954665D01*
X86816000Y-122404473D01*
X86869463Y-122504494D01*
X86948815Y-122601185D01*
X87045506Y-122680537D01*
X87155820Y-122739502D01*
X87275518Y-122775812D01*
X87400000Y-122788072D01*
X90400000Y-122788072D01*
X90524482Y-122775812D01*
X90644180Y-122739502D01*
X90754494Y-122680537D01*
X90851185Y-122601185D01*
X90930537Y-122504494D01*
X90989502Y-122394180D01*
X91025812Y-122274482D01*
X91038072Y-122150000D01*
X91038072Y-119150000D01*
X91025812Y-119025518D01*
X90989502Y-118905820D01*
X90930537Y-118795506D01*
X90851185Y-118698815D01*
X90754494Y-118619463D01*
X90644180Y-118560498D01*
X90524482Y-118524188D01*
X90400000Y-118511928D01*
X87400000Y-118511928D01*
X87275518Y-118524188D01*
X87155820Y-118560498D01*
X87045506Y-118619463D01*
X86948815Y-118698815D01*
X86869463Y-118795506D01*
X86816000Y-118895527D01*
X86816000Y-107431408D01*
X93345000Y-107431408D01*
X93345000Y-107706592D01*
X93398686Y-107976490D01*
X93503995Y-108230727D01*
X93656880Y-108459535D01*
X93851465Y-108654120D01*
X94080273Y-108807005D01*
X94334510Y-108912314D01*
X94604408Y-108966000D01*
X94879592Y-108966000D01*
X95149490Y-108912314D01*
X95403727Y-108807005D01*
X95632535Y-108654120D01*
X95827120Y-108459535D01*
X95980005Y-108230727D01*
X96085314Y-107976490D01*
X96139000Y-107706592D01*
X96139000Y-107431408D01*
X96085314Y-107161510D01*
X95980005Y-106907273D01*
X95827120Y-106678465D01*
X95632535Y-106483880D01*
X95403727Y-106330995D01*
X95149490Y-106225686D01*
X94879592Y-106172000D01*
X94604408Y-106172000D01*
X94334510Y-106225686D01*
X94080273Y-106330995D01*
X93851465Y-106483880D01*
X93656880Y-106678465D01*
X93503995Y-106907273D01*
X93398686Y-107161510D01*
X93345000Y-107431408D01*
X86816000Y-107431408D01*
X86816000Y-95583800D01*
X86951912Y-95787207D01*
X87346793Y-96182088D01*
X87811124Y-96492344D01*
X88327061Y-96706052D01*
X88874777Y-96815000D01*
X89433223Y-96815000D01*
X89980939Y-96706052D01*
X90496876Y-96492344D01*
X90961207Y-96182088D01*
X91356088Y-95787207D01*
X91666344Y-95322876D01*
X91880052Y-94806939D01*
X91895076Y-94731408D01*
X93345000Y-94731408D01*
X93345000Y-95006592D01*
X93398686Y-95276490D01*
X93503995Y-95530727D01*
X93656880Y-95759535D01*
X93851465Y-95954120D01*
X94080273Y-96107005D01*
X94334510Y-96212314D01*
X94604408Y-96266000D01*
X94879592Y-96266000D01*
X95149490Y-96212314D01*
X95403727Y-96107005D01*
X95632535Y-95954120D01*
X95827120Y-95759535D01*
X95980005Y-95530727D01*
X96085314Y-95276490D01*
X96139000Y-95006592D01*
X96139000Y-94731408D01*
X96085314Y-94461510D01*
X95980005Y-94207273D01*
X95827120Y-93978465D01*
X95632535Y-93783880D01*
X95403727Y-93630995D01*
X95149490Y-93525686D01*
X94879592Y-93472000D01*
X94604408Y-93472000D01*
X94334510Y-93525686D01*
X94080273Y-93630995D01*
X93851465Y-93783880D01*
X93656880Y-93978465D01*
X93503995Y-94207273D01*
X93398686Y-94461510D01*
X93345000Y-94731408D01*
X91895076Y-94731408D01*
X91989000Y-94259223D01*
X91989000Y-93700777D01*
X91880052Y-93153061D01*
X91666344Y-92637124D01*
X91356088Y-92172793D01*
X90961207Y-91777912D01*
X90757800Y-91642000D01*
X159178200Y-91642000D01*
X158974793Y-91777912D01*
G36*
X86951912Y-137697207D02*
G01*
X87346793Y-138092088D01*
X87550200Y-138228000D01*
X86816000Y-138228000D01*
X86816000Y-137493800D01*
X86951912Y-137697207D01*
G37*
X86951912Y-137697207D02*
X87346793Y-138092088D01*
X87550200Y-138228000D01*
X86816000Y-138228000D01*
X86816000Y-137493800D01*
X86951912Y-137697207D01*
G36*
X136303000Y-107746250D02*
G01*
X136303001Y-125576196D01*
X128618271Y-133260928D01*
X127480000Y-133260928D01*
X127306746Y-133277992D01*
X127140150Y-133328528D01*
X126986614Y-133410595D01*
X126852038Y-133521038D01*
X126741595Y-133655614D01*
X126687223Y-133757337D01*
X126635134Y-133693866D01*
X126409014Y-133508294D01*
X126151034Y-133370401D01*
X125871111Y-133285487D01*
X125580000Y-133256815D01*
X125288890Y-133285487D01*
X125008967Y-133370401D01*
X124750987Y-133508294D01*
X124524866Y-133693866D01*
X124339294Y-133919986D01*
X124330000Y-133937374D01*
X124320706Y-133919986D01*
X124135134Y-133693866D01*
X123909014Y-133508294D01*
X123651034Y-133370401D01*
X123371111Y-133285487D01*
X123080000Y-133256815D01*
X122788890Y-133285487D01*
X122508967Y-133370401D01*
X122250987Y-133508294D01*
X122024866Y-133693866D01*
X121839294Y-133919986D01*
X121701401Y-134177966D01*
X121616487Y-134457889D01*
X121595000Y-134676050D01*
X121595000Y-135071949D01*
X121616487Y-135290110D01*
X121701401Y-135570033D01*
X121839294Y-135828013D01*
X122024866Y-136054134D01*
X122250986Y-136239706D01*
X122508966Y-136377599D01*
X122788889Y-136462513D01*
X123080000Y-136491185D01*
X123371110Y-136462513D01*
X123651033Y-136377599D01*
X123909013Y-136239706D01*
X124135134Y-136054134D01*
X124320706Y-135828014D01*
X124330000Y-135810626D01*
X124339294Y-135828013D01*
X124524866Y-136054134D01*
X124750986Y-136239706D01*
X125008966Y-136377599D01*
X125288889Y-136462513D01*
X125405227Y-136473971D01*
X125113199Y-136766000D01*
X118991913Y-136766000D01*
X119037000Y-136539335D01*
X119037000Y-136256665D01*
X118981853Y-135979426D01*
X118873680Y-135718273D01*
X118716637Y-135483241D01*
X118591449Y-135358053D01*
X132564003Y-121385499D01*
X132593001Y-121361701D01*
X132687974Y-121245976D01*
X132758546Y-121113947D01*
X132802003Y-120970686D01*
X132813000Y-120859033D01*
X132813000Y-120859024D01*
X132816676Y-120821701D01*
X132813000Y-120784378D01*
X132813000Y-110402517D01*
X132820701Y-110404853D01*
X133053000Y-110427733D01*
X133285300Y-110404853D01*
X133508674Y-110337094D01*
X133714536Y-110227058D01*
X133894975Y-110078975D01*
X134043058Y-109898536D01*
X134053000Y-109879935D01*
X134062943Y-109898536D01*
X134211026Y-110078975D01*
X134391465Y-110227058D01*
X134597327Y-110337094D01*
X134820701Y-110404853D01*
X135053000Y-110427733D01*
X135285300Y-110404853D01*
X135508674Y-110337094D01*
X135714536Y-110227058D01*
X135894975Y-110078975D01*
X136043058Y-109898536D01*
X136153094Y-109692674D01*
X136220853Y-109469300D01*
X136238000Y-109295207D01*
X136238000Y-107778793D01*
X136228797Y-107685353D01*
X136303000Y-107746250D01*
G37*
X136303000Y-107746250D02*
X136303001Y-125576196D01*
X128618271Y-133260928D01*
X127480000Y-133260928D01*
X127306746Y-133277992D01*
X127140150Y-133328528D01*
X126986614Y-133410595D01*
X126852038Y-133521038D01*
X126741595Y-133655614D01*
X126687223Y-133757337D01*
X126635134Y-133693866D01*
X126409014Y-133508294D01*
X126151034Y-133370401D01*
X125871111Y-133285487D01*
X125580000Y-133256815D01*
X125288890Y-133285487D01*
X125008967Y-133370401D01*
X124750987Y-133508294D01*
X124524866Y-133693866D01*
X124339294Y-133919986D01*
X124330000Y-133937374D01*
X124320706Y-133919986D01*
X124135134Y-133693866D01*
X123909014Y-133508294D01*
X123651034Y-133370401D01*
X123371111Y-133285487D01*
X123080000Y-133256815D01*
X122788890Y-133285487D01*
X122508967Y-133370401D01*
X122250987Y-133508294D01*
X122024866Y-133693866D01*
X121839294Y-133919986D01*
X121701401Y-134177966D01*
X121616487Y-134457889D01*
X121595000Y-134676050D01*
X121595000Y-135071949D01*
X121616487Y-135290110D01*
X121701401Y-135570033D01*
X121839294Y-135828013D01*
X122024866Y-136054134D01*
X122250986Y-136239706D01*
X122508966Y-136377599D01*
X122788889Y-136462513D01*
X123080000Y-136491185D01*
X123371110Y-136462513D01*
X123651033Y-136377599D01*
X123909013Y-136239706D01*
X124135134Y-136054134D01*
X124320706Y-135828014D01*
X124330000Y-135810626D01*
X124339294Y-135828013D01*
X124524866Y-136054134D01*
X124750986Y-136239706D01*
X125008966Y-136377599D01*
X125288889Y-136462513D01*
X125405227Y-136473971D01*
X125113199Y-136766000D01*
X118991913Y-136766000D01*
X119037000Y-136539335D01*
X119037000Y-136256665D01*
X118981853Y-135979426D01*
X118873680Y-135718273D01*
X118716637Y-135483241D01*
X118591449Y-135358053D01*
X132564003Y-121385499D01*
X132593001Y-121361701D01*
X132687974Y-121245976D01*
X132758546Y-121113947D01*
X132802003Y-120970686D01*
X132813000Y-120859033D01*
X132813000Y-120859024D01*
X132816676Y-120821701D01*
X132813000Y-120784378D01*
X132813000Y-110402517D01*
X132820701Y-110404853D01*
X133053000Y-110427733D01*
X133285300Y-110404853D01*
X133508674Y-110337094D01*
X133714536Y-110227058D01*
X133894975Y-110078975D01*
X134043058Y-109898536D01*
X134053000Y-109879935D01*
X134062943Y-109898536D01*
X134211026Y-110078975D01*
X134391465Y-110227058D01*
X134597327Y-110337094D01*
X134820701Y-110404853D01*
X135053000Y-110427733D01*
X135285300Y-110404853D01*
X135508674Y-110337094D01*
X135714536Y-110227058D01*
X135894975Y-110078975D01*
X136043058Y-109898536D01*
X136153094Y-109692674D01*
X136220853Y-109469300D01*
X136238000Y-109295207D01*
X136238000Y-107778793D01*
X136228797Y-107685353D01*
X136303000Y-107746250D01*
G36*
X131293001Y-120506897D02*
G01*
X119005184Y-132794715D01*
X118981853Y-132677426D01*
X118873680Y-132416273D01*
X118716637Y-132181241D01*
X118516759Y-131981363D01*
X118281727Y-131824320D01*
X118020574Y-131716147D01*
X117743335Y-131661000D01*
X117460665Y-131661000D01*
X117183426Y-131716147D01*
X116922273Y-131824320D01*
X116687241Y-131981363D01*
X116487363Y-132181241D01*
X116330320Y-132416273D01*
X116222147Y-132677426D01*
X116167000Y-132954665D01*
X116167000Y-133237335D01*
X116222147Y-133514574D01*
X116330320Y-133775727D01*
X116487363Y-134010759D01*
X116687241Y-134210637D01*
X116922273Y-134367680D01*
X117183426Y-134475853D01*
X117300715Y-134499184D01*
X117090998Y-134708901D01*
X117062000Y-134732699D01*
X117038202Y-134761697D01*
X117038201Y-134761698D01*
X116967026Y-134848424D01*
X116896454Y-134980454D01*
X116868700Y-135071949D01*
X116852998Y-135123714D01*
X116847843Y-135176052D01*
X116687241Y-135283363D01*
X116487363Y-135483241D01*
X116330320Y-135718273D01*
X116222147Y-135979426D01*
X116167000Y-136256665D01*
X116167000Y-136539335D01*
X116212087Y-136766000D01*
X110595302Y-136766000D01*
X108166839Y-134337537D01*
X108356759Y-134210637D01*
X108556637Y-134010759D01*
X108713680Y-133775727D01*
X108821853Y-133514574D01*
X108877000Y-133237335D01*
X108877000Y-132954665D01*
X108840688Y-132772113D01*
X130564003Y-111048799D01*
X130593001Y-111025001D01*
X130687974Y-110909276D01*
X130758546Y-110777247D01*
X130802003Y-110633986D01*
X130813000Y-110522333D01*
X130813000Y-110522323D01*
X130816676Y-110485000D01*
X130813000Y-110447677D01*
X130813000Y-110402517D01*
X130820701Y-110404853D01*
X131053000Y-110427733D01*
X131285300Y-110404853D01*
X131293000Y-110402517D01*
X131293001Y-120506897D01*
G37*
X131293001Y-120506897D02*
X119005184Y-132794715D01*
X118981853Y-132677426D01*
X118873680Y-132416273D01*
X118716637Y-132181241D01*
X118516759Y-131981363D01*
X118281727Y-131824320D01*
X118020574Y-131716147D01*
X117743335Y-131661000D01*
X117460665Y-131661000D01*
X117183426Y-131716147D01*
X116922273Y-131824320D01*
X116687241Y-131981363D01*
X116487363Y-132181241D01*
X116330320Y-132416273D01*
X116222147Y-132677426D01*
X116167000Y-132954665D01*
X116167000Y-133237335D01*
X116222147Y-133514574D01*
X116330320Y-133775727D01*
X116487363Y-134010759D01*
X116687241Y-134210637D01*
X116922273Y-134367680D01*
X117183426Y-134475853D01*
X117300715Y-134499184D01*
X117090998Y-134708901D01*
X117062000Y-134732699D01*
X117038202Y-134761697D01*
X117038201Y-134761698D01*
X116967026Y-134848424D01*
X116896454Y-134980454D01*
X116868700Y-135071949D01*
X116852998Y-135123714D01*
X116847843Y-135176052D01*
X116687241Y-135283363D01*
X116487363Y-135483241D01*
X116330320Y-135718273D01*
X116222147Y-135979426D01*
X116167000Y-136256665D01*
X116167000Y-136539335D01*
X116212087Y-136766000D01*
X110595302Y-136766000D01*
X108166839Y-134337537D01*
X108356759Y-134210637D01*
X108556637Y-134010759D01*
X108713680Y-133775727D01*
X108821853Y-133514574D01*
X108877000Y-133237335D01*
X108877000Y-132954665D01*
X108840688Y-132772113D01*
X130564003Y-111048799D01*
X130593001Y-111025001D01*
X130687974Y-110909276D01*
X130758546Y-110777247D01*
X130802003Y-110633986D01*
X130813000Y-110522333D01*
X130813000Y-110522323D01*
X130816676Y-110485000D01*
X130813000Y-110447677D01*
X130813000Y-110402517D01*
X130820701Y-110404853D01*
X131053000Y-110427733D01*
X131285300Y-110404853D01*
X131293000Y-110402517D01*
X131293001Y-120506897D01*
G36*
X144778320Y-133775727D02*
G01*
X144935363Y-134010759D01*
X145135241Y-134210637D01*
X145290000Y-134314044D01*
X145290001Y-135179956D01*
X145135241Y-135283363D01*
X144935363Y-135483241D01*
X144778320Y-135718273D01*
X144685000Y-135943568D01*
X144591680Y-135718273D01*
X144434637Y-135483241D01*
X144234759Y-135283363D01*
X144074158Y-135176053D01*
X144069003Y-135123714D01*
X144025546Y-134980453D01*
X143954974Y-134848424D01*
X143860001Y-134732699D01*
X143831003Y-134708901D01*
X143621285Y-134499183D01*
X143738574Y-134475853D01*
X143999727Y-134367680D01*
X144234759Y-134210637D01*
X144434637Y-134010759D01*
X144591680Y-133775727D01*
X144685000Y-133550432D01*
X144778320Y-133775727D01*
G37*
X144778320Y-133775727D02*
X144935363Y-134010759D01*
X145135241Y-134210637D01*
X145290000Y-134314044D01*
X145290001Y-135179956D01*
X145135241Y-135283363D01*
X144935363Y-135483241D01*
X144778320Y-135718273D01*
X144685000Y-135943568D01*
X144591680Y-135718273D01*
X144434637Y-135483241D01*
X144234759Y-135283363D01*
X144074158Y-135176053D01*
X144069003Y-135123714D01*
X144025546Y-134980453D01*
X143954974Y-134848424D01*
X143860001Y-134732699D01*
X143831003Y-134708901D01*
X143621285Y-134499183D01*
X143738574Y-134475853D01*
X143999727Y-134367680D01*
X144234759Y-134210637D01*
X144434637Y-134010759D01*
X144591680Y-133775727D01*
X144685000Y-133550432D01*
X144778320Y-133775727D01*
G36*
X142330551Y-132056053D02*
G01*
X142205363Y-132181241D01*
X142048320Y-132416273D01*
X141940147Y-132677426D01*
X141916816Y-132794715D01*
X140548600Y-131426499D01*
X140548600Y-130274101D01*
X142330551Y-132056053D01*
G37*
X142330551Y-132056053D02*
X142205363Y-132181241D01*
X142048320Y-132416273D01*
X141940147Y-132677426D01*
X141916816Y-132794715D01*
X140548600Y-131426499D01*
X140548600Y-130274101D01*
X142330551Y-132056053D01*
G36*
X141480145Y-106443875D02*
G01*
X141518000Y-106490001D01*
X141546998Y-106513799D01*
X142111312Y-107078114D01*
X142075000Y-107260665D01*
X142075000Y-107543335D01*
X142130147Y-107820574D01*
X142238320Y-108081727D01*
X142395363Y-108316759D01*
X142595241Y-108516637D01*
X142830273Y-108673680D01*
X143091426Y-108781853D01*
X143368665Y-108837000D01*
X143651335Y-108837000D01*
X143928574Y-108781853D01*
X144189727Y-108673680D01*
X144424759Y-108516637D01*
X144624637Y-108316759D01*
X144777372Y-108088174D01*
X145290000Y-108600802D01*
X145290001Y-131877956D01*
X145135241Y-131981363D01*
X144935363Y-132181241D01*
X144778320Y-132416273D01*
X144685000Y-132641568D01*
X144591680Y-132416273D01*
X144434637Y-132181241D01*
X144234759Y-131981363D01*
X144074158Y-131874053D01*
X144069003Y-131821714D01*
X144025546Y-131678453D01*
X143979504Y-131592315D01*
X143954974Y-131546423D01*
X143883799Y-131459697D01*
X143860001Y-131430699D01*
X143831003Y-131406901D01*
X141449200Y-129025099D01*
X141449200Y-106406169D01*
X141480145Y-106443875D01*
G37*
X141480145Y-106443875D02*
X141518000Y-106490001D01*
X141546998Y-106513799D01*
X142111312Y-107078114D01*
X142075000Y-107260665D01*
X142075000Y-107543335D01*
X142130147Y-107820574D01*
X142238320Y-108081727D01*
X142395363Y-108316759D01*
X142595241Y-108516637D01*
X142830273Y-108673680D01*
X143091426Y-108781853D01*
X143368665Y-108837000D01*
X143651335Y-108837000D01*
X143928574Y-108781853D01*
X144189727Y-108673680D01*
X144424759Y-108516637D01*
X144624637Y-108316759D01*
X144777372Y-108088174D01*
X145290000Y-108600802D01*
X145290001Y-131877956D01*
X145135241Y-131981363D01*
X144935363Y-132181241D01*
X144778320Y-132416273D01*
X144685000Y-132641568D01*
X144591680Y-132416273D01*
X144434637Y-132181241D01*
X144234759Y-131981363D01*
X144074158Y-131874053D01*
X144069003Y-131821714D01*
X144025546Y-131678453D01*
X143979504Y-131592315D01*
X143954974Y-131546423D01*
X143883799Y-131459697D01*
X143860001Y-131430699D01*
X143831003Y-131406901D01*
X141449200Y-129025099D01*
X141449200Y-106406169D01*
X141480145Y-106443875D01*
G36*
X136221025Y-103678975D02*
G01*
X136376695Y-103806730D01*
X136301464Y-103846942D01*
X136121025Y-103995025D01*
X135972942Y-104175464D01*
X135862906Y-104381326D01*
X135795147Y-104604700D01*
X135772267Y-104837000D01*
X135795147Y-105069300D01*
X135862906Y-105292674D01*
X135972942Y-105498536D01*
X136121025Y-105678975D01*
X136301464Y-105827058D01*
X136376695Y-105867270D01*
X136221025Y-105995025D01*
X136072942Y-106175464D01*
X135962906Y-106381326D01*
X135895147Y-106604700D01*
X135872267Y-106837000D01*
X135887203Y-106988647D01*
X135714535Y-106846942D01*
X135508673Y-106736906D01*
X135285299Y-106669147D01*
X135053000Y-106646267D01*
X134820700Y-106669147D01*
X134597326Y-106736906D01*
X134391464Y-106846942D01*
X134211025Y-106995025D01*
X134062942Y-107175465D01*
X134053000Y-107194065D01*
X134043058Y-107175464D01*
X133894975Y-106995025D01*
X133714535Y-106846942D01*
X133508673Y-106736906D01*
X133285299Y-106669147D01*
X133056126Y-106646575D01*
X136132092Y-103570610D01*
X136221025Y-103678975D01*
G37*
X136221025Y-103678975D02*
X136376695Y-103806730D01*
X136301464Y-103846942D01*
X136121025Y-103995025D01*
X135972942Y-104175464D01*
X135862906Y-104381326D01*
X135795147Y-104604700D01*
X135772267Y-104837000D01*
X135795147Y-105069300D01*
X135862906Y-105292674D01*
X135972942Y-105498536D01*
X136121025Y-105678975D01*
X136301464Y-105827058D01*
X136376695Y-105867270D01*
X136221025Y-105995025D01*
X136072942Y-106175464D01*
X135962906Y-106381326D01*
X135895147Y-106604700D01*
X135872267Y-106837000D01*
X135887203Y-106988647D01*
X135714535Y-106846942D01*
X135508673Y-106736906D01*
X135285299Y-106669147D01*
X135053000Y-106646267D01*
X134820700Y-106669147D01*
X134597326Y-106736906D01*
X134391464Y-106846942D01*
X134211025Y-106995025D01*
X134062942Y-107175465D01*
X134053000Y-107194065D01*
X134043058Y-107175464D01*
X133894975Y-106995025D01*
X133714535Y-106846942D01*
X133508673Y-106736906D01*
X133285299Y-106669147D01*
X133056126Y-106646575D01*
X136132092Y-103570610D01*
X136221025Y-103678975D01*
G36*
X158100000Y-106190072D02*
G01*
X158457172Y-106190072D01*
X158375179Y-106206381D01*
X158141324Y-106303247D01*
X158095300Y-106333999D01*
X158095300Y-106189609D01*
X158100000Y-106190072D01*
G37*
X158100000Y-106190072D02*
X158457172Y-106190072D01*
X158375179Y-106206381D01*
X158141324Y-106303247D01*
X158095300Y-106333999D01*
X158095300Y-106189609D01*
X158100000Y-106190072D01*
G36*
X163120001Y-92376201D02*
G01*
X162984088Y-92172793D01*
X162589207Y-91777912D01*
X162385800Y-91642000D01*
X163120001Y-91642000D01*
X163120001Y-92376201D01*
G37*
X163120001Y-92376201D02*
X162984088Y-92172793D01*
X162589207Y-91777912D01*
X162385800Y-91642000D01*
X163120001Y-91642000D01*
X163120001Y-92376201D01*
G36*
X87346793Y-91777912D02*
G01*
X86951912Y-92172793D01*
X86816000Y-92376200D01*
X86816000Y-91642000D01*
X87550200Y-91642000D01*
X87346793Y-91777912D01*
G37*
X87346793Y-91777912D02*
X86951912Y-92172793D01*
X86816000Y-92376200D01*
X86816000Y-91642000D01*
X87550200Y-91642000D01*
X87346793Y-91777912D01*
M02*
