G04 #@! TF.GenerationSoftware,KiCad,Pcbnew,5.1.5-52549c5~84~ubuntu18.04.1*
G04 #@! TF.CreationDate,2020-04-08T12:20:09+02:00*
G04 #@! TF.ProjectId,ltl,6c746c2e-6b69-4636-9164-5f7063625858,rev?*
G04 #@! TF.SameCoordinates,Original*
G04 #@! TF.FileFunction,Copper,L1,Top*
G04 #@! TF.FilePolarity,Positive*
%FSLAX46Y46*%
G04 Gerber Fmt 4.6, Leading zero omitted, Abs format (unit mm)*
G04 Created by KiCad (PCBNEW 5.1.5-52549c5~84~ubuntu18.04.1) date 2020-04-08 12:20:09*
%MOMM*%
%LPD*%
G04 APERTURE LIST*
%ADD10O,2.262000X3.262000*%
%ADD11R,3.000000X3.000000*%
%ADD12C,1.524000*%
%ADD13C,0.700000*%
%ADD14C,4.400000*%
%ADD15O,1.800000X1.800000*%
%ADD16R,1.800000X1.800000*%
%ADD17O,1.600000X1.600000*%
%ADD18C,1.600000*%
%ADD19R,1.600000X1.600000*%
%ADD20C,1.300000*%
%ADD21R,1.300000X1.300000*%
%ADD22C,0.100000*%
%ADD23O,1.700000X1.950000*%
%ADD24R,2.500000X1.100000*%
%ADD25O,2.500000X1.100000*%
%ADD26O,1.100000X2.500000*%
%ADD27C,2.000000*%
%ADD28C,0.250000*%
%ADD29C,0.254000*%
G04 APERTURE END LIST*
D10*
X161036000Y-120650000D03*
D11*
X88900000Y-120650000D03*
D12*
X94742000Y-94869000D03*
X94742000Y-107569000D03*
X117602000Y-94564200D03*
X117602000Y-107873800D03*
X117602000Y-105029000D03*
X117602000Y-97409000D03*
D13*
X161948726Y-134723274D03*
X160782000Y-134240000D03*
X159615274Y-134723274D03*
X159132000Y-135890000D03*
X159615274Y-137056726D03*
X160782000Y-137540000D03*
X161948726Y-137056726D03*
X162432000Y-135890000D03*
D14*
X160782000Y-135890000D03*
X160782000Y-93980000D03*
D13*
X162432000Y-93980000D03*
X161948726Y-95146726D03*
X160782000Y-95630000D03*
X159615274Y-95146726D03*
X159132000Y-93980000D03*
X159615274Y-92813274D03*
X160782000Y-92330000D03*
X161948726Y-92813274D03*
D14*
X89154000Y-135890000D03*
D13*
X90804000Y-135890000D03*
X90320726Y-137056726D03*
X89154000Y-137540000D03*
X87987274Y-137056726D03*
X87504000Y-135890000D03*
X87987274Y-134723274D03*
X89154000Y-134240000D03*
X90320726Y-134723274D03*
X90320726Y-92813274D03*
X89154000Y-92330000D03*
X87987274Y-92813274D03*
X87504000Y-93980000D03*
X87987274Y-95146726D03*
X89154000Y-95630000D03*
X90320726Y-95146726D03*
X90804000Y-93980000D03*
D14*
X89154000Y-93980000D03*
D15*
X103632000Y-136398000D03*
D16*
X96012000Y-136398000D03*
D17*
X117602000Y-136398000D03*
D18*
X107442000Y-136398000D03*
D17*
X117602000Y-133096000D03*
D18*
X107442000Y-133096000D03*
D17*
X156210000Y-136398000D03*
D18*
X146050000Y-136398000D03*
D17*
X156210000Y-133096000D03*
D18*
X146050000Y-133096000D03*
D17*
X143320000Y-133096000D03*
D18*
X133160000Y-133096000D03*
X133160000Y-136398000D03*
D17*
X143320000Y-136398000D03*
D19*
X143510000Y-104902000D03*
D18*
X143510000Y-107402000D03*
X104902000Y-133096000D03*
D17*
X94742000Y-133096000D03*
D20*
X160020000Y-106172000D03*
X158750000Y-107442000D03*
D21*
X158750000Y-104902000D03*
G04 #@! TA.AperFunction,ComponentPad*
D22*
G36*
X128704504Y-133900204D02*
G01*
X128728773Y-133903804D01*
X128752571Y-133909765D01*
X128775671Y-133918030D01*
X128797849Y-133928520D01*
X128818893Y-133941133D01*
X128838598Y-133955747D01*
X128856777Y-133972223D01*
X128873253Y-133990402D01*
X128887867Y-134010107D01*
X128900480Y-134031151D01*
X128910970Y-134053329D01*
X128919235Y-134076429D01*
X128925196Y-134100227D01*
X128928796Y-134124496D01*
X128930000Y-134149000D01*
X128930000Y-135599000D01*
X128928796Y-135623504D01*
X128925196Y-135647773D01*
X128919235Y-135671571D01*
X128910970Y-135694671D01*
X128900480Y-135716849D01*
X128887867Y-135737893D01*
X128873253Y-135757598D01*
X128856777Y-135775777D01*
X128838598Y-135792253D01*
X128818893Y-135806867D01*
X128797849Y-135819480D01*
X128775671Y-135829970D01*
X128752571Y-135838235D01*
X128728773Y-135844196D01*
X128704504Y-135847796D01*
X128680000Y-135849000D01*
X127480000Y-135849000D01*
X127455496Y-135847796D01*
X127431227Y-135844196D01*
X127407429Y-135838235D01*
X127384329Y-135829970D01*
X127362151Y-135819480D01*
X127341107Y-135806867D01*
X127321402Y-135792253D01*
X127303223Y-135775777D01*
X127286747Y-135757598D01*
X127272133Y-135737893D01*
X127259520Y-135716849D01*
X127249030Y-135694671D01*
X127240765Y-135671571D01*
X127234804Y-135647773D01*
X127231204Y-135623504D01*
X127230000Y-135599000D01*
X127230000Y-134149000D01*
X127231204Y-134124496D01*
X127234804Y-134100227D01*
X127240765Y-134076429D01*
X127249030Y-134053329D01*
X127259520Y-134031151D01*
X127272133Y-134010107D01*
X127286747Y-133990402D01*
X127303223Y-133972223D01*
X127321402Y-133955747D01*
X127341107Y-133941133D01*
X127362151Y-133928520D01*
X127384329Y-133918030D01*
X127407429Y-133909765D01*
X127431227Y-133903804D01*
X127455496Y-133900204D01*
X127480000Y-133899000D01*
X128680000Y-133899000D01*
X128704504Y-133900204D01*
G37*
G04 #@! TD.AperFunction*
D23*
X125580000Y-134874000D03*
X123080000Y-134874000D03*
D24*
X122363000Y-92837000D03*
D25*
X122363000Y-94837000D03*
X122363000Y-96837000D03*
X122363000Y-98837000D03*
X122363000Y-100837000D03*
X122363000Y-102837000D03*
X122363000Y-104837000D03*
X122363000Y-106837000D03*
X137763000Y-106837000D03*
X137663000Y-104837000D03*
X137763000Y-102837000D03*
X137763000Y-100837000D03*
X137763000Y-98837000D03*
X137763000Y-96837000D03*
X137763000Y-94837000D03*
X137763000Y-92837000D03*
D26*
X125053000Y-108537000D03*
X127053000Y-108537000D03*
X129053000Y-108537000D03*
X131053000Y-108537000D03*
X133053000Y-108537000D03*
X135053000Y-108537000D03*
D27*
X155448000Y-100480000D03*
X150948000Y-100480000D03*
X155448000Y-93980000D03*
X150948000Y-93980000D03*
X142058000Y-93980000D03*
X146558000Y-93980000D03*
X142058000Y-100480000D03*
X146558000Y-100480000D03*
D28*
X88900000Y-120650000D02*
X90725300Y-120650000D01*
X117602000Y-97409000D02*
X113966300Y-97409000D01*
X113966300Y-97409000D02*
X90725300Y-120650000D01*
X150948000Y-100637900D02*
X153510600Y-100637900D01*
X153510600Y-100637900D02*
X157774700Y-104902000D01*
X142058000Y-100480000D02*
X142058000Y-93980000D01*
X150948000Y-100637900D02*
X149780500Y-101805400D01*
X149780500Y-101805400D02*
X143383400Y-101805400D01*
X143383400Y-101805400D02*
X142058000Y-100480000D01*
X137063000Y-106837000D02*
X139338300Y-106837000D01*
X143510000Y-107402000D02*
X139903300Y-107402000D01*
X139903300Y-107402000D02*
X139338300Y-106837000D01*
X150948000Y-100480000D02*
X150948000Y-100637900D01*
X158750000Y-104902000D02*
X157774700Y-104902000D01*
X107442000Y-136398000D02*
X109032500Y-137988500D01*
X109032500Y-137988500D02*
X144459500Y-137988500D01*
X144459500Y-137988500D02*
X146050000Y-136398000D01*
X107442000Y-136398000D02*
X106216700Y-137623300D01*
X106216700Y-137623300D02*
X98462600Y-137623300D01*
X98462600Y-137623300D02*
X97237300Y-136398000D01*
X96012000Y-136398000D02*
X97237300Y-136398000D01*
X143510000Y-104902000D02*
X144635300Y-104902000D01*
X158750000Y-107442000D02*
X147175300Y-107442000D01*
X147175300Y-107442000D02*
X144635300Y-104902000D01*
X143510000Y-104902000D02*
X142384700Y-104902000D01*
X123063000Y-106837000D02*
X123938300Y-106837000D01*
X123938300Y-106837000D02*
X126827900Y-103947400D01*
X126827900Y-103947400D02*
X141430100Y-103947400D01*
X141430100Y-103947400D02*
X142384700Y-104902000D01*
X125580000Y-134874000D02*
X126755300Y-134874000D01*
X126755300Y-134874000D02*
X126755300Y-135755500D01*
X126755300Y-135755500D02*
X127397800Y-136398000D01*
X127397800Y-136398000D02*
X133160000Y-136398000D01*
X123080000Y-134874000D02*
X124255300Y-134874000D01*
X124255300Y-134874000D02*
X124255300Y-134359800D01*
X124255300Y-134359800D02*
X125519100Y-133096000D01*
X125519100Y-133096000D02*
X133160000Y-133096000D01*
X137063000Y-96837000D02*
X137734800Y-96837000D01*
X137734800Y-96837000D02*
X139416000Y-98518200D01*
X139416000Y-98518200D02*
X139416000Y-99712400D01*
X139416000Y-99712400D02*
X141959300Y-102255700D01*
X141959300Y-102255700D02*
X153394400Y-102255700D01*
X153394400Y-102255700D02*
X157310700Y-106172000D01*
X157310700Y-106172000D02*
X160020000Y-106172000D01*
X95867300Y-133096000D02*
X96992600Y-131970700D01*
X96992600Y-131970700D02*
X111562100Y-131970700D01*
X111562100Y-131970700D02*
X134053000Y-109479800D01*
X134053000Y-109479800D02*
X134053000Y-106871700D01*
X134053000Y-106871700D02*
X136087700Y-104837000D01*
X94742000Y-133096000D02*
X95867300Y-133096000D01*
X137063000Y-104837000D02*
X136087700Y-104837000D01*
X117602000Y-105029000D02*
X118908700Y-103722300D01*
X118908700Y-103722300D02*
X124777800Y-103722300D01*
X124777800Y-103722300D02*
X134663100Y-93837000D01*
X134663100Y-93837000D02*
X139175300Y-93837000D01*
X139175300Y-93837000D02*
X140369100Y-92643200D01*
X140369100Y-92643200D02*
X143346800Y-92643200D01*
X143346800Y-92643200D02*
X147080700Y-96377100D01*
X147080700Y-96377100D02*
X153276100Y-96377100D01*
X153276100Y-96377100D02*
X161036000Y-104137000D01*
X161036000Y-104137000D02*
X161036000Y-120650000D01*
X123063000Y-98837000D02*
X123938300Y-98837000D01*
X123938300Y-98837000D02*
X123938300Y-92837000D01*
X123063000Y-92837000D02*
X123938300Y-92837000D01*
X146558000Y-93980000D02*
X144539700Y-91961700D01*
X144539700Y-91961700D02*
X124813600Y-91961700D01*
X124813600Y-91961700D02*
X123938300Y-92837000D01*
X117602000Y-133096000D02*
X118727300Y-133096000D01*
X156210000Y-136398000D02*
X155084700Y-136398000D01*
X155084700Y-136398000D02*
X153956600Y-135269900D01*
X153956600Y-135269900D02*
X136088300Y-135269900D01*
X136088300Y-135269900D02*
X133820100Y-137538100D01*
X133820100Y-137538100D02*
X123169400Y-137538100D01*
X123169400Y-137538100D02*
X118727300Y-133096000D01*
D29*
G36*
X123952207Y-91748292D02*
G01*
X123857180Y-91697498D01*
X123737482Y-91661188D01*
X123613000Y-91648928D01*
X121113000Y-91648928D01*
X120988518Y-91661188D01*
X120868820Y-91697498D01*
X120758506Y-91756463D01*
X120661815Y-91835815D01*
X120582463Y-91932506D01*
X120523498Y-92042820D01*
X120487188Y-92162518D01*
X120474928Y-92287000D01*
X120474928Y-93387000D01*
X120487188Y-93511482D01*
X120523498Y-93631180D01*
X120582463Y-93741494D01*
X120661815Y-93838185D01*
X120758506Y-93917537D01*
X120853544Y-93968337D01*
X120821025Y-93995025D01*
X120672942Y-94175464D01*
X120562906Y-94381326D01*
X120495147Y-94604700D01*
X120472267Y-94837000D01*
X120495147Y-95069300D01*
X120562906Y-95292674D01*
X120672942Y-95498536D01*
X120821025Y-95678975D01*
X121001464Y-95827058D01*
X121020064Y-95837000D01*
X121001464Y-95846942D01*
X120821025Y-95995025D01*
X120672942Y-96175464D01*
X120562906Y-96381326D01*
X120495147Y-96604700D01*
X120472267Y-96837000D01*
X120495147Y-97069300D01*
X120562906Y-97292674D01*
X120672942Y-97498536D01*
X120821025Y-97678975D01*
X121001464Y-97827058D01*
X121020064Y-97837000D01*
X121001464Y-97846942D01*
X120821025Y-97995025D01*
X120672942Y-98175464D01*
X120562906Y-98381326D01*
X120495147Y-98604700D01*
X120472267Y-98837000D01*
X120495147Y-99069300D01*
X120562906Y-99292674D01*
X120672942Y-99498536D01*
X120821025Y-99678975D01*
X121001464Y-99827058D01*
X121020064Y-99837000D01*
X121001464Y-99846942D01*
X120821025Y-99995025D01*
X120672942Y-100175464D01*
X120562906Y-100381326D01*
X120495147Y-100604700D01*
X120472267Y-100837000D01*
X120495147Y-101069300D01*
X120562906Y-101292674D01*
X120672942Y-101498536D01*
X120821025Y-101678975D01*
X121001464Y-101827058D01*
X121020064Y-101837000D01*
X121001464Y-101846942D01*
X120821025Y-101995025D01*
X120672942Y-102175464D01*
X120562906Y-102381326D01*
X120495147Y-102604700D01*
X120472267Y-102837000D01*
X120484608Y-102962300D01*
X118946023Y-102962300D01*
X118908700Y-102958624D01*
X118871377Y-102962300D01*
X118871367Y-102962300D01*
X118759714Y-102973297D01*
X118616453Y-103016754D01*
X118484424Y-103087326D01*
X118368699Y-103182299D01*
X118344901Y-103211297D01*
X117893570Y-103662628D01*
X117739592Y-103632000D01*
X117464408Y-103632000D01*
X117194510Y-103685686D01*
X116940273Y-103790995D01*
X116711465Y-103943880D01*
X116516880Y-104138465D01*
X116363995Y-104367273D01*
X116258686Y-104621510D01*
X116205000Y-104891408D01*
X116205000Y-105166592D01*
X116258686Y-105436490D01*
X116363995Y-105690727D01*
X116516880Y-105919535D01*
X116711465Y-106114120D01*
X116940273Y-106267005D01*
X117194510Y-106372314D01*
X117464408Y-106426000D01*
X117739592Y-106426000D01*
X118009490Y-106372314D01*
X118263727Y-106267005D01*
X118492535Y-106114120D01*
X118687120Y-105919535D01*
X118840005Y-105690727D01*
X118945314Y-105436490D01*
X118999000Y-105166592D01*
X118999000Y-104891408D01*
X118968372Y-104737430D01*
X119223502Y-104482300D01*
X120532276Y-104482300D01*
X120495147Y-104604700D01*
X120472267Y-104837000D01*
X120495147Y-105069300D01*
X120562906Y-105292674D01*
X120672942Y-105498536D01*
X120821025Y-105678975D01*
X121001464Y-105827058D01*
X121020064Y-105837000D01*
X121001464Y-105846942D01*
X120821025Y-105995025D01*
X120672942Y-106175464D01*
X120562906Y-106381326D01*
X120495147Y-106604700D01*
X120472267Y-106837000D01*
X120495147Y-107069300D01*
X120562906Y-107292674D01*
X120672942Y-107498536D01*
X120821025Y-107678975D01*
X121001464Y-107827058D01*
X121207326Y-107937094D01*
X121430700Y-108004853D01*
X121604793Y-108022000D01*
X123121207Y-108022000D01*
X123295300Y-108004853D01*
X123518674Y-107937094D01*
X123724536Y-107827058D01*
X123875445Y-107703210D01*
X123868000Y-107778794D01*
X123868000Y-109295207D01*
X123885147Y-109469300D01*
X123952906Y-109692674D01*
X124062943Y-109898536D01*
X124211026Y-110078975D01*
X124391465Y-110227058D01*
X124597327Y-110337094D01*
X124820701Y-110404853D01*
X125053000Y-110427733D01*
X125285300Y-110404853D01*
X125508674Y-110337094D01*
X125714536Y-110227058D01*
X125894975Y-110078975D01*
X126043058Y-109898536D01*
X126053000Y-109879935D01*
X126062943Y-109898536D01*
X126211026Y-110078975D01*
X126391465Y-110227058D01*
X126597327Y-110337094D01*
X126820701Y-110404853D01*
X127053000Y-110427733D01*
X127285300Y-110404853D01*
X127508674Y-110337094D01*
X127714536Y-110227058D01*
X127894975Y-110078975D01*
X128043058Y-109898536D01*
X128053000Y-109879935D01*
X128062943Y-109898536D01*
X128211026Y-110078975D01*
X128391465Y-110227058D01*
X128597327Y-110337094D01*
X128820701Y-110404853D01*
X129053000Y-110427733D01*
X129285300Y-110404853D01*
X129508674Y-110337094D01*
X129714536Y-110227058D01*
X129894975Y-110078975D01*
X130043058Y-109898536D01*
X130053000Y-109879935D01*
X130062943Y-109898536D01*
X130211026Y-110078975D01*
X130391465Y-110227058D01*
X130597327Y-110337094D01*
X130820701Y-110404853D01*
X131053000Y-110427733D01*
X131285300Y-110404853D01*
X131508674Y-110337094D01*
X131714536Y-110227058D01*
X131894975Y-110078975D01*
X132043058Y-109898536D01*
X132053000Y-109879935D01*
X132062943Y-109898536D01*
X132211026Y-110078975D01*
X132303298Y-110154701D01*
X111247299Y-131210700D01*
X97029933Y-131210700D01*
X96992600Y-131207023D01*
X96955267Y-131210700D01*
X96843614Y-131221697D01*
X96700353Y-131265154D01*
X96568324Y-131335726D01*
X96452599Y-131430699D01*
X96428801Y-131459697D01*
X95781947Y-132106551D01*
X95656759Y-131981363D01*
X95421727Y-131824320D01*
X95160574Y-131716147D01*
X94883335Y-131661000D01*
X94600665Y-131661000D01*
X94323426Y-131716147D01*
X94062273Y-131824320D01*
X93827241Y-131981363D01*
X93627363Y-132181241D01*
X93470320Y-132416273D01*
X93362147Y-132677426D01*
X93307000Y-132954665D01*
X93307000Y-133237335D01*
X93362147Y-133514574D01*
X93470320Y-133775727D01*
X93627363Y-134010759D01*
X93827241Y-134210637D01*
X94062273Y-134367680D01*
X94323426Y-134475853D01*
X94600665Y-134531000D01*
X94883335Y-134531000D01*
X95160574Y-134475853D01*
X95421727Y-134367680D01*
X95656759Y-134210637D01*
X95778694Y-134088702D01*
X104088903Y-134088702D01*
X104160486Y-134332671D01*
X104415996Y-134453571D01*
X104690184Y-134522300D01*
X104972512Y-134536217D01*
X105252130Y-134494787D01*
X105518292Y-134399603D01*
X105643514Y-134332671D01*
X105715097Y-134088702D01*
X104902000Y-133275605D01*
X104088903Y-134088702D01*
X95778694Y-134088702D01*
X95856637Y-134010759D01*
X95963947Y-133850158D01*
X96016286Y-133845003D01*
X96159547Y-133801546D01*
X96291576Y-133730974D01*
X96407301Y-133636001D01*
X96431104Y-133606998D01*
X97307402Y-132730700D01*
X103514173Y-132730700D01*
X103475700Y-132884184D01*
X103461783Y-133166512D01*
X103503213Y-133446130D01*
X103598397Y-133712292D01*
X103665329Y-133837514D01*
X103909298Y-133909097D01*
X104722395Y-133096000D01*
X104708253Y-133081858D01*
X104887858Y-132902253D01*
X104902000Y-132916395D01*
X104916143Y-132902253D01*
X105095748Y-133081858D01*
X105081605Y-133096000D01*
X105894702Y-133909097D01*
X106138671Y-133837514D01*
X106169194Y-133773008D01*
X106170320Y-133775727D01*
X106327363Y-134010759D01*
X106527241Y-134210637D01*
X106762273Y-134367680D01*
X107023426Y-134475853D01*
X107300665Y-134531000D01*
X107583335Y-134531000D01*
X107860574Y-134475853D01*
X108121727Y-134367680D01*
X108356759Y-134210637D01*
X108556637Y-134010759D01*
X108713680Y-133775727D01*
X108821853Y-133514574D01*
X108877000Y-133237335D01*
X108877000Y-132954665D01*
X108832450Y-132730700D01*
X111524778Y-132730700D01*
X111562100Y-132734376D01*
X111599422Y-132730700D01*
X111599433Y-132730700D01*
X111711086Y-132719703D01*
X111854347Y-132676246D01*
X111986376Y-132605674D01*
X112102101Y-132510701D01*
X112125904Y-132481697D01*
X134385467Y-110222135D01*
X134391465Y-110227058D01*
X134597327Y-110337094D01*
X134820701Y-110404853D01*
X135053000Y-110427733D01*
X135285300Y-110404853D01*
X135508674Y-110337094D01*
X135714536Y-110227058D01*
X135894975Y-110078975D01*
X136043058Y-109898536D01*
X136153094Y-109692674D01*
X136220853Y-109469300D01*
X136238000Y-109295207D01*
X136238000Y-108394702D01*
X142696903Y-108394702D01*
X142768486Y-108638671D01*
X143023996Y-108759571D01*
X143298184Y-108828300D01*
X143580512Y-108842217D01*
X143860130Y-108800787D01*
X144126292Y-108705603D01*
X144251514Y-108638671D01*
X144323097Y-108394702D01*
X143510000Y-107581605D01*
X142696903Y-108394702D01*
X136238000Y-108394702D01*
X136238000Y-107778793D01*
X136228239Y-107679694D01*
X136299052Y-107751734D01*
X136492187Y-107883196D01*
X136707258Y-107974454D01*
X136936000Y-108022000D01*
X137636000Y-108022000D01*
X137636000Y-106964000D01*
X137890000Y-106964000D01*
X137890000Y-108022000D01*
X138590000Y-108022000D01*
X138818742Y-107974454D01*
X139033813Y-107883196D01*
X139226948Y-107751734D01*
X139390725Y-107585119D01*
X139464575Y-107472512D01*
X142069783Y-107472512D01*
X142111213Y-107752130D01*
X142206397Y-108018292D01*
X142273329Y-108143514D01*
X142517298Y-108215097D01*
X143330395Y-107402000D01*
X143689605Y-107402000D01*
X144502702Y-108215097D01*
X144746671Y-108143514D01*
X144867571Y-107888004D01*
X144936300Y-107613816D01*
X144950217Y-107331488D01*
X144908787Y-107051870D01*
X144813603Y-106785708D01*
X144746671Y-106660486D01*
X144502702Y-106588903D01*
X143689605Y-107402000D01*
X143330395Y-107402000D01*
X142517298Y-106588903D01*
X142273329Y-106660486D01*
X142152429Y-106915996D01*
X142083700Y-107190184D01*
X142069783Y-107472512D01*
X139464575Y-107472512D01*
X139518850Y-107389754D01*
X139606399Y-107173147D01*
X139606803Y-107146744D01*
X139481361Y-106964000D01*
X137890000Y-106964000D01*
X137636000Y-106964000D01*
X136044639Y-106964000D01*
X135964876Y-107080199D01*
X135894975Y-106995025D01*
X135714535Y-106846942D01*
X135508673Y-106736906D01*
X135319868Y-106679633D01*
X136230600Y-105768901D01*
X136301464Y-105827058D01*
X136378461Y-105868214D01*
X136299052Y-105922266D01*
X136135275Y-106088881D01*
X136007150Y-106284246D01*
X135919601Y-106500853D01*
X135919197Y-106527256D01*
X136044639Y-106710000D01*
X137636000Y-106710000D01*
X137636000Y-106690000D01*
X137890000Y-106690000D01*
X137890000Y-106710000D01*
X139481361Y-106710000D01*
X139606803Y-106527256D01*
X139606399Y-106500853D01*
X139518850Y-106284246D01*
X139390725Y-106088881D01*
X139226948Y-105922266D01*
X139052889Y-105803789D01*
X139204975Y-105678975D01*
X139353058Y-105498536D01*
X139463094Y-105292674D01*
X139530853Y-105069300D01*
X139553733Y-104837000D01*
X139540968Y-104707400D01*
X141115299Y-104707400D01*
X141820900Y-105413002D01*
X141844699Y-105442001D01*
X141960424Y-105536974D01*
X142071928Y-105596575D01*
X142071928Y-105702000D01*
X142084188Y-105826482D01*
X142120498Y-105946180D01*
X142179463Y-106056494D01*
X142258815Y-106153185D01*
X142355506Y-106232537D01*
X142465820Y-106291502D01*
X142585518Y-106327812D01*
X142710000Y-106340072D01*
X142717215Y-106340072D01*
X142696903Y-106409298D01*
X143510000Y-107222395D01*
X144323097Y-106409298D01*
X144302785Y-106340072D01*
X144310000Y-106340072D01*
X144434482Y-106327812D01*
X144554180Y-106291502D01*
X144664494Y-106232537D01*
X144761185Y-106153185D01*
X144783947Y-106125449D01*
X146611505Y-107953008D01*
X146635299Y-107982001D01*
X146664292Y-108005795D01*
X146664296Y-108005799D01*
X146718980Y-108050676D01*
X146751024Y-108076974D01*
X146883053Y-108147546D01*
X147026314Y-108191003D01*
X147137967Y-108202000D01*
X147137976Y-108202000D01*
X147175299Y-108205676D01*
X147212622Y-108202000D01*
X157712359Y-108202000D01*
X157751875Y-108261140D01*
X157930860Y-108440125D01*
X158141324Y-108580753D01*
X158375179Y-108677619D01*
X158623439Y-108727000D01*
X158876561Y-108727000D01*
X159124821Y-108677619D01*
X159358676Y-108580753D01*
X159569140Y-108440125D01*
X159748125Y-108261140D01*
X159888753Y-108050676D01*
X159985619Y-107816821D01*
X160035000Y-107568561D01*
X160035000Y-107457000D01*
X160146561Y-107457000D01*
X160276000Y-107431253D01*
X160276001Y-118553783D01*
X160050116Y-118674521D01*
X159781208Y-118895208D01*
X159560521Y-119164117D01*
X159396535Y-119470912D01*
X159295553Y-119803805D01*
X159270000Y-120063251D01*
X159270000Y-121236750D01*
X159295553Y-121496196D01*
X159396535Y-121829089D01*
X159560522Y-122135884D01*
X159781209Y-122404792D01*
X160050117Y-122625479D01*
X160356912Y-122789465D01*
X160689805Y-122890447D01*
X161036000Y-122924544D01*
X161382196Y-122890447D01*
X161715089Y-122789465D01*
X162021884Y-122625479D01*
X162290792Y-122404792D01*
X162511479Y-122135884D01*
X162675465Y-121829089D01*
X162776447Y-121496196D01*
X162802000Y-121236750D01*
X162802000Y-120063250D01*
X162776447Y-119803804D01*
X162675465Y-119470911D01*
X162511479Y-119164116D01*
X162290792Y-118895208D01*
X162021883Y-118674521D01*
X161796000Y-118553784D01*
X161796000Y-104174323D01*
X161799676Y-104137000D01*
X161796000Y-104099677D01*
X161796000Y-104099667D01*
X161785003Y-103988014D01*
X161741546Y-103844753D01*
X161670974Y-103712724D01*
X161576001Y-103596999D01*
X161547004Y-103573202D01*
X153839904Y-95866103D01*
X153816101Y-95837099D01*
X153700376Y-95742126D01*
X153568347Y-95671554D01*
X153425086Y-95628097D01*
X153313433Y-95617100D01*
X153313422Y-95617100D01*
X153276100Y-95613424D01*
X153238778Y-95617100D01*
X151044270Y-95617100D01*
X151329675Y-95577961D01*
X151634088Y-95472795D01*
X151808044Y-95379814D01*
X151903808Y-95115413D01*
X150948000Y-94159605D01*
X149992192Y-95115413D01*
X150087956Y-95379814D01*
X150377571Y-95520704D01*
X150689108Y-95602384D01*
X150933807Y-95617100D01*
X147395502Y-95617100D01*
X147243974Y-95465572D01*
X147332463Y-95428918D01*
X147600252Y-95249987D01*
X147827987Y-95022252D01*
X148006918Y-94754463D01*
X148130168Y-94456912D01*
X148193000Y-94141033D01*
X148193000Y-94042595D01*
X149306282Y-94042595D01*
X149350039Y-94361675D01*
X149455205Y-94666088D01*
X149548186Y-94840044D01*
X149812587Y-94935808D01*
X150768395Y-93980000D01*
X151127605Y-93980000D01*
X152083413Y-94935808D01*
X152347814Y-94840044D01*
X152488704Y-94550429D01*
X152570384Y-94238892D01*
X152589718Y-93917405D01*
X152576219Y-93818967D01*
X153813000Y-93818967D01*
X153813000Y-94141033D01*
X153875832Y-94456912D01*
X153999082Y-94754463D01*
X154178013Y-95022252D01*
X154405748Y-95249987D01*
X154673537Y-95428918D01*
X154971088Y-95552168D01*
X155286967Y-95615000D01*
X155609033Y-95615000D01*
X155924912Y-95552168D01*
X156222463Y-95428918D01*
X156490252Y-95249987D01*
X156717987Y-95022252D01*
X156896918Y-94754463D01*
X157020168Y-94456912D01*
X157083000Y-94141033D01*
X157083000Y-93818967D01*
X157020168Y-93503088D01*
X156896918Y-93205537D01*
X156717987Y-92937748D01*
X156490252Y-92710013D01*
X156222463Y-92531082D01*
X155924912Y-92407832D01*
X155609033Y-92345000D01*
X155286967Y-92345000D01*
X154971088Y-92407832D01*
X154673537Y-92531082D01*
X154405748Y-92710013D01*
X154178013Y-92937748D01*
X153999082Y-93205537D01*
X153875832Y-93503088D01*
X153813000Y-93818967D01*
X152576219Y-93818967D01*
X152545961Y-93598325D01*
X152440795Y-93293912D01*
X152347814Y-93119956D01*
X152083413Y-93024192D01*
X151127605Y-93980000D01*
X150768395Y-93980000D01*
X149812587Y-93024192D01*
X149548186Y-93119956D01*
X149407296Y-93409571D01*
X149325616Y-93721108D01*
X149306282Y-94042595D01*
X148193000Y-94042595D01*
X148193000Y-93818967D01*
X148130168Y-93503088D01*
X148006918Y-93205537D01*
X147827987Y-92937748D01*
X147734826Y-92844587D01*
X149992192Y-92844587D01*
X150948000Y-93800395D01*
X151903808Y-92844587D01*
X151808044Y-92580186D01*
X151518429Y-92439296D01*
X151206892Y-92357616D01*
X150885405Y-92338282D01*
X150566325Y-92382039D01*
X150261912Y-92487205D01*
X150087956Y-92580186D01*
X149992192Y-92844587D01*
X147734826Y-92844587D01*
X147600252Y-92710013D01*
X147332463Y-92531082D01*
X147034912Y-92407832D01*
X146719033Y-92345000D01*
X146396967Y-92345000D01*
X146081088Y-92407832D01*
X146066624Y-92413823D01*
X145294801Y-91642000D01*
X159178200Y-91642000D01*
X158974793Y-91777912D01*
X158579912Y-92172793D01*
X158269656Y-92637124D01*
X158055948Y-93153061D01*
X157947000Y-93700777D01*
X157947000Y-94259223D01*
X158055948Y-94806939D01*
X158269656Y-95322876D01*
X158579912Y-95787207D01*
X158974793Y-96182088D01*
X159439124Y-96492344D01*
X159955061Y-96706052D01*
X160502777Y-96815000D01*
X161061223Y-96815000D01*
X161608939Y-96706052D01*
X162124876Y-96492344D01*
X162589207Y-96182088D01*
X162984088Y-95787207D01*
X163120001Y-95583799D01*
X163120000Y-134286200D01*
X162984088Y-134082793D01*
X162589207Y-133687912D01*
X162124876Y-133377656D01*
X161608939Y-133163948D01*
X161061223Y-133055000D01*
X160502777Y-133055000D01*
X159955061Y-133163948D01*
X159439124Y-133377656D01*
X158974793Y-133687912D01*
X158579912Y-134082793D01*
X158269656Y-134547124D01*
X158055948Y-135063061D01*
X157947000Y-135610777D01*
X157947000Y-136169223D01*
X158055948Y-136716939D01*
X158269656Y-137232876D01*
X158579912Y-137697207D01*
X158974793Y-138092088D01*
X159178200Y-138228000D01*
X145294801Y-138228000D01*
X145726114Y-137796688D01*
X145908665Y-137833000D01*
X146191335Y-137833000D01*
X146468574Y-137777853D01*
X146729727Y-137669680D01*
X146964759Y-137512637D01*
X147164637Y-137312759D01*
X147321680Y-137077727D01*
X147429853Y-136816574D01*
X147485000Y-136539335D01*
X147485000Y-136256665D01*
X147439893Y-136029900D01*
X153641799Y-136029900D01*
X154520900Y-136909002D01*
X154544699Y-136938001D01*
X154660424Y-137032974D01*
X154792453Y-137103546D01*
X154935714Y-137147003D01*
X154988053Y-137152158D01*
X155095363Y-137312759D01*
X155295241Y-137512637D01*
X155530273Y-137669680D01*
X155791426Y-137777853D01*
X156068665Y-137833000D01*
X156351335Y-137833000D01*
X156628574Y-137777853D01*
X156889727Y-137669680D01*
X157124759Y-137512637D01*
X157324637Y-137312759D01*
X157481680Y-137077727D01*
X157589853Y-136816574D01*
X157645000Y-136539335D01*
X157645000Y-136256665D01*
X157589853Y-135979426D01*
X157481680Y-135718273D01*
X157324637Y-135483241D01*
X157124759Y-135283363D01*
X156889727Y-135126320D01*
X156628574Y-135018147D01*
X156351335Y-134963000D01*
X156068665Y-134963000D01*
X155791426Y-135018147D01*
X155530273Y-135126320D01*
X155295241Y-135283363D01*
X155170053Y-135408551D01*
X154520404Y-134758902D01*
X154496601Y-134729899D01*
X154380876Y-134634926D01*
X154248847Y-134564354D01*
X154105586Y-134520897D01*
X153993933Y-134509900D01*
X153993922Y-134509900D01*
X153956600Y-134506224D01*
X153919278Y-134509900D01*
X146297410Y-134509900D01*
X146468574Y-134475853D01*
X146729727Y-134367680D01*
X146964759Y-134210637D01*
X147164637Y-134010759D01*
X147321680Y-133775727D01*
X147429853Y-133514574D01*
X147485000Y-133237335D01*
X147485000Y-132954665D01*
X154775000Y-132954665D01*
X154775000Y-133237335D01*
X154830147Y-133514574D01*
X154938320Y-133775727D01*
X155095363Y-134010759D01*
X155295241Y-134210637D01*
X155530273Y-134367680D01*
X155791426Y-134475853D01*
X156068665Y-134531000D01*
X156351335Y-134531000D01*
X156628574Y-134475853D01*
X156889727Y-134367680D01*
X157124759Y-134210637D01*
X157324637Y-134010759D01*
X157481680Y-133775727D01*
X157589853Y-133514574D01*
X157645000Y-133237335D01*
X157645000Y-132954665D01*
X157589853Y-132677426D01*
X157481680Y-132416273D01*
X157324637Y-132181241D01*
X157124759Y-131981363D01*
X156889727Y-131824320D01*
X156628574Y-131716147D01*
X156351335Y-131661000D01*
X156068665Y-131661000D01*
X155791426Y-131716147D01*
X155530273Y-131824320D01*
X155295241Y-131981363D01*
X155095363Y-132181241D01*
X154938320Y-132416273D01*
X154830147Y-132677426D01*
X154775000Y-132954665D01*
X147485000Y-132954665D01*
X147429853Y-132677426D01*
X147321680Y-132416273D01*
X147164637Y-132181241D01*
X146964759Y-131981363D01*
X146729727Y-131824320D01*
X146468574Y-131716147D01*
X146191335Y-131661000D01*
X145908665Y-131661000D01*
X145631426Y-131716147D01*
X145370273Y-131824320D01*
X145135241Y-131981363D01*
X144935363Y-132181241D01*
X144778320Y-132416273D01*
X144685000Y-132641568D01*
X144591680Y-132416273D01*
X144434637Y-132181241D01*
X144234759Y-131981363D01*
X143999727Y-131824320D01*
X143738574Y-131716147D01*
X143461335Y-131661000D01*
X143178665Y-131661000D01*
X142901426Y-131716147D01*
X142640273Y-131824320D01*
X142405241Y-131981363D01*
X142205363Y-132181241D01*
X142048320Y-132416273D01*
X141940147Y-132677426D01*
X141885000Y-132954665D01*
X141885000Y-133237335D01*
X141940147Y-133514574D01*
X142048320Y-133775727D01*
X142205363Y-134010759D01*
X142405241Y-134210637D01*
X142640273Y-134367680D01*
X142901426Y-134475853D01*
X143072590Y-134509900D01*
X136125622Y-134509900D01*
X136088299Y-134506224D01*
X136050976Y-134509900D01*
X136050967Y-134509900D01*
X135939314Y-134520897D01*
X135796053Y-134564354D01*
X135664024Y-134634926D01*
X135548299Y-134729899D01*
X135524501Y-134758897D01*
X134470765Y-135812633D01*
X134431680Y-135718273D01*
X134274637Y-135483241D01*
X134074759Y-135283363D01*
X133839727Y-135126320D01*
X133578574Y-135018147D01*
X133301335Y-134963000D01*
X133018665Y-134963000D01*
X132741426Y-135018147D01*
X132480273Y-135126320D01*
X132245241Y-135283363D01*
X132045363Y-135483241D01*
X131941957Y-135638000D01*
X129567132Y-135638000D01*
X129565000Y-135159750D01*
X129406250Y-135001000D01*
X128207000Y-135001000D01*
X128207000Y-135021000D01*
X127953000Y-135021000D01*
X127953000Y-135001000D01*
X127933000Y-135001000D01*
X127933000Y-134747000D01*
X127953000Y-134747000D01*
X127953000Y-134727000D01*
X128207000Y-134727000D01*
X128207000Y-134747000D01*
X129406250Y-134747000D01*
X129565000Y-134588250D01*
X129568072Y-133899000D01*
X129563837Y-133856000D01*
X131941957Y-133856000D01*
X132045363Y-134010759D01*
X132245241Y-134210637D01*
X132480273Y-134367680D01*
X132741426Y-134475853D01*
X133018665Y-134531000D01*
X133301335Y-134531000D01*
X133578574Y-134475853D01*
X133839727Y-134367680D01*
X134074759Y-134210637D01*
X134274637Y-134010759D01*
X134431680Y-133775727D01*
X134539853Y-133514574D01*
X134595000Y-133237335D01*
X134595000Y-132954665D01*
X134539853Y-132677426D01*
X134431680Y-132416273D01*
X134274637Y-132181241D01*
X134074759Y-131981363D01*
X133839727Y-131824320D01*
X133578574Y-131716147D01*
X133301335Y-131661000D01*
X133018665Y-131661000D01*
X132741426Y-131716147D01*
X132480273Y-131824320D01*
X132245241Y-131981363D01*
X132045363Y-132181241D01*
X131941957Y-132336000D01*
X125556422Y-132336000D01*
X125519099Y-132332324D01*
X125481776Y-132336000D01*
X125481767Y-132336000D01*
X125370114Y-132346997D01*
X125226853Y-132390454D01*
X125094823Y-132461026D01*
X125034295Y-132510701D01*
X124979099Y-132555999D01*
X124955301Y-132584997D01*
X123976566Y-133563733D01*
X123909014Y-133508294D01*
X123651034Y-133370401D01*
X123371111Y-133285487D01*
X123080000Y-133256815D01*
X122788890Y-133285487D01*
X122508967Y-133370401D01*
X122250987Y-133508294D01*
X122024866Y-133693866D01*
X121839294Y-133919986D01*
X121701401Y-134177966D01*
X121616487Y-134457889D01*
X121595000Y-134676050D01*
X121595000Y-134888898D01*
X119291104Y-132585003D01*
X119267301Y-132555999D01*
X119151576Y-132461026D01*
X119019547Y-132390454D01*
X118876286Y-132346997D01*
X118823947Y-132341842D01*
X118716637Y-132181241D01*
X118516759Y-131981363D01*
X118281727Y-131824320D01*
X118020574Y-131716147D01*
X117743335Y-131661000D01*
X117460665Y-131661000D01*
X117183426Y-131716147D01*
X116922273Y-131824320D01*
X116687241Y-131981363D01*
X116487363Y-132181241D01*
X116330320Y-132416273D01*
X116222147Y-132677426D01*
X116167000Y-132954665D01*
X116167000Y-133237335D01*
X116222147Y-133514574D01*
X116330320Y-133775727D01*
X116487363Y-134010759D01*
X116687241Y-134210637D01*
X116922273Y-134367680D01*
X117183426Y-134475853D01*
X117460665Y-134531000D01*
X117743335Y-134531000D01*
X118020574Y-134475853D01*
X118281727Y-134367680D01*
X118516759Y-134210637D01*
X118641947Y-134085449D01*
X121784998Y-137228500D01*
X118772937Y-137228500D01*
X118873680Y-137077727D01*
X118981853Y-136816574D01*
X119037000Y-136539335D01*
X119037000Y-136256665D01*
X118981853Y-135979426D01*
X118873680Y-135718273D01*
X118716637Y-135483241D01*
X118516759Y-135283363D01*
X118281727Y-135126320D01*
X118020574Y-135018147D01*
X117743335Y-134963000D01*
X117460665Y-134963000D01*
X117183426Y-135018147D01*
X116922273Y-135126320D01*
X116687241Y-135283363D01*
X116487363Y-135483241D01*
X116330320Y-135718273D01*
X116222147Y-135979426D01*
X116167000Y-136256665D01*
X116167000Y-136539335D01*
X116222147Y-136816574D01*
X116330320Y-137077727D01*
X116431063Y-137228500D01*
X109347302Y-137228500D01*
X108840688Y-136721886D01*
X108877000Y-136539335D01*
X108877000Y-136256665D01*
X108821853Y-135979426D01*
X108713680Y-135718273D01*
X108556637Y-135483241D01*
X108356759Y-135283363D01*
X108121727Y-135126320D01*
X107860574Y-135018147D01*
X107583335Y-134963000D01*
X107300665Y-134963000D01*
X107023426Y-135018147D01*
X106762273Y-135126320D01*
X106527241Y-135283363D01*
X106327363Y-135483241D01*
X106170320Y-135718273D01*
X106062147Y-135979426D01*
X106007000Y-136256665D01*
X106007000Y-136539335D01*
X106043312Y-136721886D01*
X105901899Y-136863300D01*
X105100739Y-136863300D01*
X105108011Y-136845743D01*
X105167000Y-136549184D01*
X105167000Y-136246816D01*
X105108011Y-135950257D01*
X104992299Y-135670905D01*
X104824312Y-135419495D01*
X104610505Y-135205688D01*
X104359095Y-135037701D01*
X104079743Y-134921989D01*
X103783184Y-134863000D01*
X103480816Y-134863000D01*
X103184257Y-134921989D01*
X102904905Y-135037701D01*
X102653495Y-135205688D01*
X102439688Y-135419495D01*
X102271701Y-135670905D01*
X102155989Y-135950257D01*
X102097000Y-136246816D01*
X102097000Y-136549184D01*
X102155989Y-136845743D01*
X102163261Y-136863300D01*
X98777402Y-136863300D01*
X97801104Y-135887003D01*
X97777301Y-135857999D01*
X97661576Y-135763026D01*
X97550072Y-135703425D01*
X97550072Y-135498000D01*
X97537812Y-135373518D01*
X97501502Y-135253820D01*
X97442537Y-135143506D01*
X97363185Y-135046815D01*
X97266494Y-134967463D01*
X97156180Y-134908498D01*
X97036482Y-134872188D01*
X96912000Y-134859928D01*
X95112000Y-134859928D01*
X94987518Y-134872188D01*
X94867820Y-134908498D01*
X94757506Y-134967463D01*
X94660815Y-135046815D01*
X94581463Y-135143506D01*
X94522498Y-135253820D01*
X94486188Y-135373518D01*
X94473928Y-135498000D01*
X94473928Y-137298000D01*
X94486188Y-137422482D01*
X94522498Y-137542180D01*
X94581463Y-137652494D01*
X94660815Y-137749185D01*
X94757506Y-137828537D01*
X94867820Y-137887502D01*
X94987518Y-137923812D01*
X95112000Y-137936072D01*
X96912000Y-137936072D01*
X97036482Y-137923812D01*
X97156180Y-137887502D01*
X97266494Y-137828537D01*
X97363185Y-137749185D01*
X97431023Y-137666524D01*
X97898801Y-138134303D01*
X97922599Y-138163301D01*
X97951597Y-138187099D01*
X98001434Y-138228000D01*
X90757800Y-138228000D01*
X90961207Y-138092088D01*
X91356088Y-137697207D01*
X91666344Y-137232876D01*
X91880052Y-136716939D01*
X91989000Y-136169223D01*
X91989000Y-135610777D01*
X91880052Y-135063061D01*
X91666344Y-134547124D01*
X91356088Y-134082793D01*
X90961207Y-133687912D01*
X90496876Y-133377656D01*
X89980939Y-133163948D01*
X89433223Y-133055000D01*
X88874777Y-133055000D01*
X88327061Y-133163948D01*
X87811124Y-133377656D01*
X87346793Y-133687912D01*
X86951912Y-134082793D01*
X86816000Y-134286200D01*
X86816000Y-122404473D01*
X86869463Y-122504494D01*
X86948815Y-122601185D01*
X87045506Y-122680537D01*
X87155820Y-122739502D01*
X87275518Y-122775812D01*
X87400000Y-122788072D01*
X90400000Y-122788072D01*
X90524482Y-122775812D01*
X90644180Y-122739502D01*
X90754494Y-122680537D01*
X90851185Y-122601185D01*
X90930537Y-122504494D01*
X90989502Y-122394180D01*
X91025812Y-122274482D01*
X91038072Y-122150000D01*
X91038072Y-121344575D01*
X91149576Y-121284974D01*
X91265301Y-121190001D01*
X91289104Y-121160997D01*
X103610736Y-108839365D01*
X116816040Y-108839365D01*
X116883020Y-109079456D01*
X117132048Y-109196556D01*
X117399135Y-109262823D01*
X117674017Y-109275710D01*
X117946133Y-109234722D01*
X118205023Y-109141436D01*
X118320980Y-109079456D01*
X118387960Y-108839365D01*
X117602000Y-108053405D01*
X116816040Y-108839365D01*
X103610736Y-108839365D01*
X104504285Y-107945817D01*
X116200090Y-107945817D01*
X116241078Y-108217933D01*
X116334364Y-108476823D01*
X116396344Y-108592780D01*
X116636435Y-108659760D01*
X117422395Y-107873800D01*
X117781605Y-107873800D01*
X118567565Y-108659760D01*
X118807656Y-108592780D01*
X118924756Y-108343752D01*
X118991023Y-108076665D01*
X119003910Y-107801783D01*
X118962922Y-107529667D01*
X118869636Y-107270777D01*
X118807656Y-107154820D01*
X118567565Y-107087840D01*
X117781605Y-107873800D01*
X117422395Y-107873800D01*
X116636435Y-107087840D01*
X116396344Y-107154820D01*
X116279244Y-107403848D01*
X116212977Y-107670935D01*
X116200090Y-107945817D01*
X104504285Y-107945817D01*
X105541867Y-106908235D01*
X116816040Y-106908235D01*
X117602000Y-107694195D01*
X118387960Y-106908235D01*
X118320980Y-106668144D01*
X118071952Y-106551044D01*
X117804865Y-106484777D01*
X117529983Y-106471890D01*
X117257867Y-106512878D01*
X116998977Y-106606164D01*
X116883020Y-106668144D01*
X116816040Y-106908235D01*
X105541867Y-106908235D01*
X114281103Y-98169000D01*
X116429659Y-98169000D01*
X116516880Y-98299535D01*
X116711465Y-98494120D01*
X116940273Y-98647005D01*
X117194510Y-98752314D01*
X117464408Y-98806000D01*
X117739592Y-98806000D01*
X118009490Y-98752314D01*
X118263727Y-98647005D01*
X118492535Y-98494120D01*
X118687120Y-98299535D01*
X118840005Y-98070727D01*
X118945314Y-97816490D01*
X118999000Y-97546592D01*
X118999000Y-97271408D01*
X118945314Y-97001510D01*
X118840005Y-96747273D01*
X118687120Y-96518465D01*
X118492535Y-96323880D01*
X118263727Y-96170995D01*
X118009490Y-96065686D01*
X117739592Y-96012000D01*
X117464408Y-96012000D01*
X117194510Y-96065686D01*
X116940273Y-96170995D01*
X116711465Y-96323880D01*
X116516880Y-96518465D01*
X116429659Y-96649000D01*
X114003622Y-96649000D01*
X113966299Y-96645324D01*
X113928976Y-96649000D01*
X113928967Y-96649000D01*
X113817314Y-96659997D01*
X113674053Y-96703454D01*
X113542024Y-96774026D01*
X113542022Y-96774027D01*
X113542023Y-96774027D01*
X113455296Y-96845201D01*
X113455292Y-96845205D01*
X113426299Y-96868999D01*
X113402505Y-96897992D01*
X91038072Y-119262427D01*
X91038072Y-119150000D01*
X91025812Y-119025518D01*
X90989502Y-118905820D01*
X90930537Y-118795506D01*
X90851185Y-118698815D01*
X90754494Y-118619463D01*
X90644180Y-118560498D01*
X90524482Y-118524188D01*
X90400000Y-118511928D01*
X87400000Y-118511928D01*
X87275518Y-118524188D01*
X87155820Y-118560498D01*
X87045506Y-118619463D01*
X86948815Y-118698815D01*
X86869463Y-118795506D01*
X86816000Y-118895527D01*
X86816000Y-107431408D01*
X93345000Y-107431408D01*
X93345000Y-107706592D01*
X93398686Y-107976490D01*
X93503995Y-108230727D01*
X93656880Y-108459535D01*
X93851465Y-108654120D01*
X94080273Y-108807005D01*
X94334510Y-108912314D01*
X94604408Y-108966000D01*
X94879592Y-108966000D01*
X95149490Y-108912314D01*
X95403727Y-108807005D01*
X95632535Y-108654120D01*
X95827120Y-108459535D01*
X95980005Y-108230727D01*
X96085314Y-107976490D01*
X96139000Y-107706592D01*
X96139000Y-107431408D01*
X96085314Y-107161510D01*
X95980005Y-106907273D01*
X95827120Y-106678465D01*
X95632535Y-106483880D01*
X95403727Y-106330995D01*
X95149490Y-106225686D01*
X94879592Y-106172000D01*
X94604408Y-106172000D01*
X94334510Y-106225686D01*
X94080273Y-106330995D01*
X93851465Y-106483880D01*
X93656880Y-106678465D01*
X93503995Y-106907273D01*
X93398686Y-107161510D01*
X93345000Y-107431408D01*
X86816000Y-107431408D01*
X86816000Y-95583800D01*
X86951912Y-95787207D01*
X87346793Y-96182088D01*
X87811124Y-96492344D01*
X88327061Y-96706052D01*
X88874777Y-96815000D01*
X89433223Y-96815000D01*
X89980939Y-96706052D01*
X90496876Y-96492344D01*
X90961207Y-96182088D01*
X91356088Y-95787207D01*
X91666344Y-95322876D01*
X91880052Y-94806939D01*
X91895076Y-94731408D01*
X93345000Y-94731408D01*
X93345000Y-95006592D01*
X93398686Y-95276490D01*
X93503995Y-95530727D01*
X93656880Y-95759535D01*
X93851465Y-95954120D01*
X94080273Y-96107005D01*
X94334510Y-96212314D01*
X94604408Y-96266000D01*
X94879592Y-96266000D01*
X95149490Y-96212314D01*
X95403727Y-96107005D01*
X95632535Y-95954120D01*
X95827120Y-95759535D01*
X95980005Y-95530727D01*
X96085314Y-95276490D01*
X96139000Y-95006592D01*
X96139000Y-94731408D01*
X96085314Y-94461510D01*
X96070858Y-94426608D01*
X116205000Y-94426608D01*
X116205000Y-94701792D01*
X116258686Y-94971690D01*
X116363995Y-95225927D01*
X116516880Y-95454735D01*
X116711465Y-95649320D01*
X116940273Y-95802205D01*
X117194510Y-95907514D01*
X117464408Y-95961200D01*
X117739592Y-95961200D01*
X118009490Y-95907514D01*
X118263727Y-95802205D01*
X118492535Y-95649320D01*
X118687120Y-95454735D01*
X118840005Y-95225927D01*
X118945314Y-94971690D01*
X118999000Y-94701792D01*
X118999000Y-94426608D01*
X118945314Y-94156710D01*
X118840005Y-93902473D01*
X118687120Y-93673665D01*
X118492535Y-93479080D01*
X118263727Y-93326195D01*
X118009490Y-93220886D01*
X117739592Y-93167200D01*
X117464408Y-93167200D01*
X117194510Y-93220886D01*
X116940273Y-93326195D01*
X116711465Y-93479080D01*
X116516880Y-93673665D01*
X116363995Y-93902473D01*
X116258686Y-94156710D01*
X116205000Y-94426608D01*
X96070858Y-94426608D01*
X95980005Y-94207273D01*
X95827120Y-93978465D01*
X95632535Y-93783880D01*
X95403727Y-93630995D01*
X95149490Y-93525686D01*
X94879592Y-93472000D01*
X94604408Y-93472000D01*
X94334510Y-93525686D01*
X94080273Y-93630995D01*
X93851465Y-93783880D01*
X93656880Y-93978465D01*
X93503995Y-94207273D01*
X93398686Y-94461510D01*
X93345000Y-94731408D01*
X91895076Y-94731408D01*
X91989000Y-94259223D01*
X91989000Y-93700777D01*
X91880052Y-93153061D01*
X91666344Y-92637124D01*
X91356088Y-92172793D01*
X90961207Y-91777912D01*
X90757800Y-91642000D01*
X124058498Y-91642000D01*
X123952207Y-91748292D01*
G37*
X123952207Y-91748292D02*
X123857180Y-91697498D01*
X123737482Y-91661188D01*
X123613000Y-91648928D01*
X121113000Y-91648928D01*
X120988518Y-91661188D01*
X120868820Y-91697498D01*
X120758506Y-91756463D01*
X120661815Y-91835815D01*
X120582463Y-91932506D01*
X120523498Y-92042820D01*
X120487188Y-92162518D01*
X120474928Y-92287000D01*
X120474928Y-93387000D01*
X120487188Y-93511482D01*
X120523498Y-93631180D01*
X120582463Y-93741494D01*
X120661815Y-93838185D01*
X120758506Y-93917537D01*
X120853544Y-93968337D01*
X120821025Y-93995025D01*
X120672942Y-94175464D01*
X120562906Y-94381326D01*
X120495147Y-94604700D01*
X120472267Y-94837000D01*
X120495147Y-95069300D01*
X120562906Y-95292674D01*
X120672942Y-95498536D01*
X120821025Y-95678975D01*
X121001464Y-95827058D01*
X121020064Y-95837000D01*
X121001464Y-95846942D01*
X120821025Y-95995025D01*
X120672942Y-96175464D01*
X120562906Y-96381326D01*
X120495147Y-96604700D01*
X120472267Y-96837000D01*
X120495147Y-97069300D01*
X120562906Y-97292674D01*
X120672942Y-97498536D01*
X120821025Y-97678975D01*
X121001464Y-97827058D01*
X121020064Y-97837000D01*
X121001464Y-97846942D01*
X120821025Y-97995025D01*
X120672942Y-98175464D01*
X120562906Y-98381326D01*
X120495147Y-98604700D01*
X120472267Y-98837000D01*
X120495147Y-99069300D01*
X120562906Y-99292674D01*
X120672942Y-99498536D01*
X120821025Y-99678975D01*
X121001464Y-99827058D01*
X121020064Y-99837000D01*
X121001464Y-99846942D01*
X120821025Y-99995025D01*
X120672942Y-100175464D01*
X120562906Y-100381326D01*
X120495147Y-100604700D01*
X120472267Y-100837000D01*
X120495147Y-101069300D01*
X120562906Y-101292674D01*
X120672942Y-101498536D01*
X120821025Y-101678975D01*
X121001464Y-101827058D01*
X121020064Y-101837000D01*
X121001464Y-101846942D01*
X120821025Y-101995025D01*
X120672942Y-102175464D01*
X120562906Y-102381326D01*
X120495147Y-102604700D01*
X120472267Y-102837000D01*
X120484608Y-102962300D01*
X118946023Y-102962300D01*
X118908700Y-102958624D01*
X118871377Y-102962300D01*
X118871367Y-102962300D01*
X118759714Y-102973297D01*
X118616453Y-103016754D01*
X118484424Y-103087326D01*
X118368699Y-103182299D01*
X118344901Y-103211297D01*
X117893570Y-103662628D01*
X117739592Y-103632000D01*
X117464408Y-103632000D01*
X117194510Y-103685686D01*
X116940273Y-103790995D01*
X116711465Y-103943880D01*
X116516880Y-104138465D01*
X116363995Y-104367273D01*
X116258686Y-104621510D01*
X116205000Y-104891408D01*
X116205000Y-105166592D01*
X116258686Y-105436490D01*
X116363995Y-105690727D01*
X116516880Y-105919535D01*
X116711465Y-106114120D01*
X116940273Y-106267005D01*
X117194510Y-106372314D01*
X117464408Y-106426000D01*
X117739592Y-106426000D01*
X118009490Y-106372314D01*
X118263727Y-106267005D01*
X118492535Y-106114120D01*
X118687120Y-105919535D01*
X118840005Y-105690727D01*
X118945314Y-105436490D01*
X118999000Y-105166592D01*
X118999000Y-104891408D01*
X118968372Y-104737430D01*
X119223502Y-104482300D01*
X120532276Y-104482300D01*
X120495147Y-104604700D01*
X120472267Y-104837000D01*
X120495147Y-105069300D01*
X120562906Y-105292674D01*
X120672942Y-105498536D01*
X120821025Y-105678975D01*
X121001464Y-105827058D01*
X121020064Y-105837000D01*
X121001464Y-105846942D01*
X120821025Y-105995025D01*
X120672942Y-106175464D01*
X120562906Y-106381326D01*
X120495147Y-106604700D01*
X120472267Y-106837000D01*
X120495147Y-107069300D01*
X120562906Y-107292674D01*
X120672942Y-107498536D01*
X120821025Y-107678975D01*
X121001464Y-107827058D01*
X121207326Y-107937094D01*
X121430700Y-108004853D01*
X121604793Y-108022000D01*
X123121207Y-108022000D01*
X123295300Y-108004853D01*
X123518674Y-107937094D01*
X123724536Y-107827058D01*
X123875445Y-107703210D01*
X123868000Y-107778794D01*
X123868000Y-109295207D01*
X123885147Y-109469300D01*
X123952906Y-109692674D01*
X124062943Y-109898536D01*
X124211026Y-110078975D01*
X124391465Y-110227058D01*
X124597327Y-110337094D01*
X124820701Y-110404853D01*
X125053000Y-110427733D01*
X125285300Y-110404853D01*
X125508674Y-110337094D01*
X125714536Y-110227058D01*
X125894975Y-110078975D01*
X126043058Y-109898536D01*
X126053000Y-109879935D01*
X126062943Y-109898536D01*
X126211026Y-110078975D01*
X126391465Y-110227058D01*
X126597327Y-110337094D01*
X126820701Y-110404853D01*
X127053000Y-110427733D01*
X127285300Y-110404853D01*
X127508674Y-110337094D01*
X127714536Y-110227058D01*
X127894975Y-110078975D01*
X128043058Y-109898536D01*
X128053000Y-109879935D01*
X128062943Y-109898536D01*
X128211026Y-110078975D01*
X128391465Y-110227058D01*
X128597327Y-110337094D01*
X128820701Y-110404853D01*
X129053000Y-110427733D01*
X129285300Y-110404853D01*
X129508674Y-110337094D01*
X129714536Y-110227058D01*
X129894975Y-110078975D01*
X130043058Y-109898536D01*
X130053000Y-109879935D01*
X130062943Y-109898536D01*
X130211026Y-110078975D01*
X130391465Y-110227058D01*
X130597327Y-110337094D01*
X130820701Y-110404853D01*
X131053000Y-110427733D01*
X131285300Y-110404853D01*
X131508674Y-110337094D01*
X131714536Y-110227058D01*
X131894975Y-110078975D01*
X132043058Y-109898536D01*
X132053000Y-109879935D01*
X132062943Y-109898536D01*
X132211026Y-110078975D01*
X132303298Y-110154701D01*
X111247299Y-131210700D01*
X97029933Y-131210700D01*
X96992600Y-131207023D01*
X96955267Y-131210700D01*
X96843614Y-131221697D01*
X96700353Y-131265154D01*
X96568324Y-131335726D01*
X96452599Y-131430699D01*
X96428801Y-131459697D01*
X95781947Y-132106551D01*
X95656759Y-131981363D01*
X95421727Y-131824320D01*
X95160574Y-131716147D01*
X94883335Y-131661000D01*
X94600665Y-131661000D01*
X94323426Y-131716147D01*
X94062273Y-131824320D01*
X93827241Y-131981363D01*
X93627363Y-132181241D01*
X93470320Y-132416273D01*
X93362147Y-132677426D01*
X93307000Y-132954665D01*
X93307000Y-133237335D01*
X93362147Y-133514574D01*
X93470320Y-133775727D01*
X93627363Y-134010759D01*
X93827241Y-134210637D01*
X94062273Y-134367680D01*
X94323426Y-134475853D01*
X94600665Y-134531000D01*
X94883335Y-134531000D01*
X95160574Y-134475853D01*
X95421727Y-134367680D01*
X95656759Y-134210637D01*
X95778694Y-134088702D01*
X104088903Y-134088702D01*
X104160486Y-134332671D01*
X104415996Y-134453571D01*
X104690184Y-134522300D01*
X104972512Y-134536217D01*
X105252130Y-134494787D01*
X105518292Y-134399603D01*
X105643514Y-134332671D01*
X105715097Y-134088702D01*
X104902000Y-133275605D01*
X104088903Y-134088702D01*
X95778694Y-134088702D01*
X95856637Y-134010759D01*
X95963947Y-133850158D01*
X96016286Y-133845003D01*
X96159547Y-133801546D01*
X96291576Y-133730974D01*
X96407301Y-133636001D01*
X96431104Y-133606998D01*
X97307402Y-132730700D01*
X103514173Y-132730700D01*
X103475700Y-132884184D01*
X103461783Y-133166512D01*
X103503213Y-133446130D01*
X103598397Y-133712292D01*
X103665329Y-133837514D01*
X103909298Y-133909097D01*
X104722395Y-133096000D01*
X104708253Y-133081858D01*
X104887858Y-132902253D01*
X104902000Y-132916395D01*
X104916143Y-132902253D01*
X105095748Y-133081858D01*
X105081605Y-133096000D01*
X105894702Y-133909097D01*
X106138671Y-133837514D01*
X106169194Y-133773008D01*
X106170320Y-133775727D01*
X106327363Y-134010759D01*
X106527241Y-134210637D01*
X106762273Y-134367680D01*
X107023426Y-134475853D01*
X107300665Y-134531000D01*
X107583335Y-134531000D01*
X107860574Y-134475853D01*
X108121727Y-134367680D01*
X108356759Y-134210637D01*
X108556637Y-134010759D01*
X108713680Y-133775727D01*
X108821853Y-133514574D01*
X108877000Y-133237335D01*
X108877000Y-132954665D01*
X108832450Y-132730700D01*
X111524778Y-132730700D01*
X111562100Y-132734376D01*
X111599422Y-132730700D01*
X111599433Y-132730700D01*
X111711086Y-132719703D01*
X111854347Y-132676246D01*
X111986376Y-132605674D01*
X112102101Y-132510701D01*
X112125904Y-132481697D01*
X134385467Y-110222135D01*
X134391465Y-110227058D01*
X134597327Y-110337094D01*
X134820701Y-110404853D01*
X135053000Y-110427733D01*
X135285300Y-110404853D01*
X135508674Y-110337094D01*
X135714536Y-110227058D01*
X135894975Y-110078975D01*
X136043058Y-109898536D01*
X136153094Y-109692674D01*
X136220853Y-109469300D01*
X136238000Y-109295207D01*
X136238000Y-108394702D01*
X142696903Y-108394702D01*
X142768486Y-108638671D01*
X143023996Y-108759571D01*
X143298184Y-108828300D01*
X143580512Y-108842217D01*
X143860130Y-108800787D01*
X144126292Y-108705603D01*
X144251514Y-108638671D01*
X144323097Y-108394702D01*
X143510000Y-107581605D01*
X142696903Y-108394702D01*
X136238000Y-108394702D01*
X136238000Y-107778793D01*
X136228239Y-107679694D01*
X136299052Y-107751734D01*
X136492187Y-107883196D01*
X136707258Y-107974454D01*
X136936000Y-108022000D01*
X137636000Y-108022000D01*
X137636000Y-106964000D01*
X137890000Y-106964000D01*
X137890000Y-108022000D01*
X138590000Y-108022000D01*
X138818742Y-107974454D01*
X139033813Y-107883196D01*
X139226948Y-107751734D01*
X139390725Y-107585119D01*
X139464575Y-107472512D01*
X142069783Y-107472512D01*
X142111213Y-107752130D01*
X142206397Y-108018292D01*
X142273329Y-108143514D01*
X142517298Y-108215097D01*
X143330395Y-107402000D01*
X143689605Y-107402000D01*
X144502702Y-108215097D01*
X144746671Y-108143514D01*
X144867571Y-107888004D01*
X144936300Y-107613816D01*
X144950217Y-107331488D01*
X144908787Y-107051870D01*
X144813603Y-106785708D01*
X144746671Y-106660486D01*
X144502702Y-106588903D01*
X143689605Y-107402000D01*
X143330395Y-107402000D01*
X142517298Y-106588903D01*
X142273329Y-106660486D01*
X142152429Y-106915996D01*
X142083700Y-107190184D01*
X142069783Y-107472512D01*
X139464575Y-107472512D01*
X139518850Y-107389754D01*
X139606399Y-107173147D01*
X139606803Y-107146744D01*
X139481361Y-106964000D01*
X137890000Y-106964000D01*
X137636000Y-106964000D01*
X136044639Y-106964000D01*
X135964876Y-107080199D01*
X135894975Y-106995025D01*
X135714535Y-106846942D01*
X135508673Y-106736906D01*
X135319868Y-106679633D01*
X136230600Y-105768901D01*
X136301464Y-105827058D01*
X136378461Y-105868214D01*
X136299052Y-105922266D01*
X136135275Y-106088881D01*
X136007150Y-106284246D01*
X135919601Y-106500853D01*
X135919197Y-106527256D01*
X136044639Y-106710000D01*
X137636000Y-106710000D01*
X137636000Y-106690000D01*
X137890000Y-106690000D01*
X137890000Y-106710000D01*
X139481361Y-106710000D01*
X139606803Y-106527256D01*
X139606399Y-106500853D01*
X139518850Y-106284246D01*
X139390725Y-106088881D01*
X139226948Y-105922266D01*
X139052889Y-105803789D01*
X139204975Y-105678975D01*
X139353058Y-105498536D01*
X139463094Y-105292674D01*
X139530853Y-105069300D01*
X139553733Y-104837000D01*
X139540968Y-104707400D01*
X141115299Y-104707400D01*
X141820900Y-105413002D01*
X141844699Y-105442001D01*
X141960424Y-105536974D01*
X142071928Y-105596575D01*
X142071928Y-105702000D01*
X142084188Y-105826482D01*
X142120498Y-105946180D01*
X142179463Y-106056494D01*
X142258815Y-106153185D01*
X142355506Y-106232537D01*
X142465820Y-106291502D01*
X142585518Y-106327812D01*
X142710000Y-106340072D01*
X142717215Y-106340072D01*
X142696903Y-106409298D01*
X143510000Y-107222395D01*
X144323097Y-106409298D01*
X144302785Y-106340072D01*
X144310000Y-106340072D01*
X144434482Y-106327812D01*
X144554180Y-106291502D01*
X144664494Y-106232537D01*
X144761185Y-106153185D01*
X144783947Y-106125449D01*
X146611505Y-107953008D01*
X146635299Y-107982001D01*
X146664292Y-108005795D01*
X146664296Y-108005799D01*
X146718980Y-108050676D01*
X146751024Y-108076974D01*
X146883053Y-108147546D01*
X147026314Y-108191003D01*
X147137967Y-108202000D01*
X147137976Y-108202000D01*
X147175299Y-108205676D01*
X147212622Y-108202000D01*
X157712359Y-108202000D01*
X157751875Y-108261140D01*
X157930860Y-108440125D01*
X158141324Y-108580753D01*
X158375179Y-108677619D01*
X158623439Y-108727000D01*
X158876561Y-108727000D01*
X159124821Y-108677619D01*
X159358676Y-108580753D01*
X159569140Y-108440125D01*
X159748125Y-108261140D01*
X159888753Y-108050676D01*
X159985619Y-107816821D01*
X160035000Y-107568561D01*
X160035000Y-107457000D01*
X160146561Y-107457000D01*
X160276000Y-107431253D01*
X160276001Y-118553783D01*
X160050116Y-118674521D01*
X159781208Y-118895208D01*
X159560521Y-119164117D01*
X159396535Y-119470912D01*
X159295553Y-119803805D01*
X159270000Y-120063251D01*
X159270000Y-121236750D01*
X159295553Y-121496196D01*
X159396535Y-121829089D01*
X159560522Y-122135884D01*
X159781209Y-122404792D01*
X160050117Y-122625479D01*
X160356912Y-122789465D01*
X160689805Y-122890447D01*
X161036000Y-122924544D01*
X161382196Y-122890447D01*
X161715089Y-122789465D01*
X162021884Y-122625479D01*
X162290792Y-122404792D01*
X162511479Y-122135884D01*
X162675465Y-121829089D01*
X162776447Y-121496196D01*
X162802000Y-121236750D01*
X162802000Y-120063250D01*
X162776447Y-119803804D01*
X162675465Y-119470911D01*
X162511479Y-119164116D01*
X162290792Y-118895208D01*
X162021883Y-118674521D01*
X161796000Y-118553784D01*
X161796000Y-104174323D01*
X161799676Y-104137000D01*
X161796000Y-104099677D01*
X161796000Y-104099667D01*
X161785003Y-103988014D01*
X161741546Y-103844753D01*
X161670974Y-103712724D01*
X161576001Y-103596999D01*
X161547004Y-103573202D01*
X153839904Y-95866103D01*
X153816101Y-95837099D01*
X153700376Y-95742126D01*
X153568347Y-95671554D01*
X153425086Y-95628097D01*
X153313433Y-95617100D01*
X153313422Y-95617100D01*
X153276100Y-95613424D01*
X153238778Y-95617100D01*
X151044270Y-95617100D01*
X151329675Y-95577961D01*
X151634088Y-95472795D01*
X151808044Y-95379814D01*
X151903808Y-95115413D01*
X150948000Y-94159605D01*
X149992192Y-95115413D01*
X150087956Y-95379814D01*
X150377571Y-95520704D01*
X150689108Y-95602384D01*
X150933807Y-95617100D01*
X147395502Y-95617100D01*
X147243974Y-95465572D01*
X147332463Y-95428918D01*
X147600252Y-95249987D01*
X147827987Y-95022252D01*
X148006918Y-94754463D01*
X148130168Y-94456912D01*
X148193000Y-94141033D01*
X148193000Y-94042595D01*
X149306282Y-94042595D01*
X149350039Y-94361675D01*
X149455205Y-94666088D01*
X149548186Y-94840044D01*
X149812587Y-94935808D01*
X150768395Y-93980000D01*
X151127605Y-93980000D01*
X152083413Y-94935808D01*
X152347814Y-94840044D01*
X152488704Y-94550429D01*
X152570384Y-94238892D01*
X152589718Y-93917405D01*
X152576219Y-93818967D01*
X153813000Y-93818967D01*
X153813000Y-94141033D01*
X153875832Y-94456912D01*
X153999082Y-94754463D01*
X154178013Y-95022252D01*
X154405748Y-95249987D01*
X154673537Y-95428918D01*
X154971088Y-95552168D01*
X155286967Y-95615000D01*
X155609033Y-95615000D01*
X155924912Y-95552168D01*
X156222463Y-95428918D01*
X156490252Y-95249987D01*
X156717987Y-95022252D01*
X156896918Y-94754463D01*
X157020168Y-94456912D01*
X157083000Y-94141033D01*
X157083000Y-93818967D01*
X157020168Y-93503088D01*
X156896918Y-93205537D01*
X156717987Y-92937748D01*
X156490252Y-92710013D01*
X156222463Y-92531082D01*
X155924912Y-92407832D01*
X155609033Y-92345000D01*
X155286967Y-92345000D01*
X154971088Y-92407832D01*
X154673537Y-92531082D01*
X154405748Y-92710013D01*
X154178013Y-92937748D01*
X153999082Y-93205537D01*
X153875832Y-93503088D01*
X153813000Y-93818967D01*
X152576219Y-93818967D01*
X152545961Y-93598325D01*
X152440795Y-93293912D01*
X152347814Y-93119956D01*
X152083413Y-93024192D01*
X151127605Y-93980000D01*
X150768395Y-93980000D01*
X149812587Y-93024192D01*
X149548186Y-93119956D01*
X149407296Y-93409571D01*
X149325616Y-93721108D01*
X149306282Y-94042595D01*
X148193000Y-94042595D01*
X148193000Y-93818967D01*
X148130168Y-93503088D01*
X148006918Y-93205537D01*
X147827987Y-92937748D01*
X147734826Y-92844587D01*
X149992192Y-92844587D01*
X150948000Y-93800395D01*
X151903808Y-92844587D01*
X151808044Y-92580186D01*
X151518429Y-92439296D01*
X151206892Y-92357616D01*
X150885405Y-92338282D01*
X150566325Y-92382039D01*
X150261912Y-92487205D01*
X150087956Y-92580186D01*
X149992192Y-92844587D01*
X147734826Y-92844587D01*
X147600252Y-92710013D01*
X147332463Y-92531082D01*
X147034912Y-92407832D01*
X146719033Y-92345000D01*
X146396967Y-92345000D01*
X146081088Y-92407832D01*
X146066624Y-92413823D01*
X145294801Y-91642000D01*
X159178200Y-91642000D01*
X158974793Y-91777912D01*
X158579912Y-92172793D01*
X158269656Y-92637124D01*
X158055948Y-93153061D01*
X157947000Y-93700777D01*
X157947000Y-94259223D01*
X158055948Y-94806939D01*
X158269656Y-95322876D01*
X158579912Y-95787207D01*
X158974793Y-96182088D01*
X159439124Y-96492344D01*
X159955061Y-96706052D01*
X160502777Y-96815000D01*
X161061223Y-96815000D01*
X161608939Y-96706052D01*
X162124876Y-96492344D01*
X162589207Y-96182088D01*
X162984088Y-95787207D01*
X163120001Y-95583799D01*
X163120000Y-134286200D01*
X162984088Y-134082793D01*
X162589207Y-133687912D01*
X162124876Y-133377656D01*
X161608939Y-133163948D01*
X161061223Y-133055000D01*
X160502777Y-133055000D01*
X159955061Y-133163948D01*
X159439124Y-133377656D01*
X158974793Y-133687912D01*
X158579912Y-134082793D01*
X158269656Y-134547124D01*
X158055948Y-135063061D01*
X157947000Y-135610777D01*
X157947000Y-136169223D01*
X158055948Y-136716939D01*
X158269656Y-137232876D01*
X158579912Y-137697207D01*
X158974793Y-138092088D01*
X159178200Y-138228000D01*
X145294801Y-138228000D01*
X145726114Y-137796688D01*
X145908665Y-137833000D01*
X146191335Y-137833000D01*
X146468574Y-137777853D01*
X146729727Y-137669680D01*
X146964759Y-137512637D01*
X147164637Y-137312759D01*
X147321680Y-137077727D01*
X147429853Y-136816574D01*
X147485000Y-136539335D01*
X147485000Y-136256665D01*
X147439893Y-136029900D01*
X153641799Y-136029900D01*
X154520900Y-136909002D01*
X154544699Y-136938001D01*
X154660424Y-137032974D01*
X154792453Y-137103546D01*
X154935714Y-137147003D01*
X154988053Y-137152158D01*
X155095363Y-137312759D01*
X155295241Y-137512637D01*
X155530273Y-137669680D01*
X155791426Y-137777853D01*
X156068665Y-137833000D01*
X156351335Y-137833000D01*
X156628574Y-137777853D01*
X156889727Y-137669680D01*
X157124759Y-137512637D01*
X157324637Y-137312759D01*
X157481680Y-137077727D01*
X157589853Y-136816574D01*
X157645000Y-136539335D01*
X157645000Y-136256665D01*
X157589853Y-135979426D01*
X157481680Y-135718273D01*
X157324637Y-135483241D01*
X157124759Y-135283363D01*
X156889727Y-135126320D01*
X156628574Y-135018147D01*
X156351335Y-134963000D01*
X156068665Y-134963000D01*
X155791426Y-135018147D01*
X155530273Y-135126320D01*
X155295241Y-135283363D01*
X155170053Y-135408551D01*
X154520404Y-134758902D01*
X154496601Y-134729899D01*
X154380876Y-134634926D01*
X154248847Y-134564354D01*
X154105586Y-134520897D01*
X153993933Y-134509900D01*
X153993922Y-134509900D01*
X153956600Y-134506224D01*
X153919278Y-134509900D01*
X146297410Y-134509900D01*
X146468574Y-134475853D01*
X146729727Y-134367680D01*
X146964759Y-134210637D01*
X147164637Y-134010759D01*
X147321680Y-133775727D01*
X147429853Y-133514574D01*
X147485000Y-133237335D01*
X147485000Y-132954665D01*
X154775000Y-132954665D01*
X154775000Y-133237335D01*
X154830147Y-133514574D01*
X154938320Y-133775727D01*
X155095363Y-134010759D01*
X155295241Y-134210637D01*
X155530273Y-134367680D01*
X155791426Y-134475853D01*
X156068665Y-134531000D01*
X156351335Y-134531000D01*
X156628574Y-134475853D01*
X156889727Y-134367680D01*
X157124759Y-134210637D01*
X157324637Y-134010759D01*
X157481680Y-133775727D01*
X157589853Y-133514574D01*
X157645000Y-133237335D01*
X157645000Y-132954665D01*
X157589853Y-132677426D01*
X157481680Y-132416273D01*
X157324637Y-132181241D01*
X157124759Y-131981363D01*
X156889727Y-131824320D01*
X156628574Y-131716147D01*
X156351335Y-131661000D01*
X156068665Y-131661000D01*
X155791426Y-131716147D01*
X155530273Y-131824320D01*
X155295241Y-131981363D01*
X155095363Y-132181241D01*
X154938320Y-132416273D01*
X154830147Y-132677426D01*
X154775000Y-132954665D01*
X147485000Y-132954665D01*
X147429853Y-132677426D01*
X147321680Y-132416273D01*
X147164637Y-132181241D01*
X146964759Y-131981363D01*
X146729727Y-131824320D01*
X146468574Y-131716147D01*
X146191335Y-131661000D01*
X145908665Y-131661000D01*
X145631426Y-131716147D01*
X145370273Y-131824320D01*
X145135241Y-131981363D01*
X144935363Y-132181241D01*
X144778320Y-132416273D01*
X144685000Y-132641568D01*
X144591680Y-132416273D01*
X144434637Y-132181241D01*
X144234759Y-131981363D01*
X143999727Y-131824320D01*
X143738574Y-131716147D01*
X143461335Y-131661000D01*
X143178665Y-131661000D01*
X142901426Y-131716147D01*
X142640273Y-131824320D01*
X142405241Y-131981363D01*
X142205363Y-132181241D01*
X142048320Y-132416273D01*
X141940147Y-132677426D01*
X141885000Y-132954665D01*
X141885000Y-133237335D01*
X141940147Y-133514574D01*
X142048320Y-133775727D01*
X142205363Y-134010759D01*
X142405241Y-134210637D01*
X142640273Y-134367680D01*
X142901426Y-134475853D01*
X143072590Y-134509900D01*
X136125622Y-134509900D01*
X136088299Y-134506224D01*
X136050976Y-134509900D01*
X136050967Y-134509900D01*
X135939314Y-134520897D01*
X135796053Y-134564354D01*
X135664024Y-134634926D01*
X135548299Y-134729899D01*
X135524501Y-134758897D01*
X134470765Y-135812633D01*
X134431680Y-135718273D01*
X134274637Y-135483241D01*
X134074759Y-135283363D01*
X133839727Y-135126320D01*
X133578574Y-135018147D01*
X133301335Y-134963000D01*
X133018665Y-134963000D01*
X132741426Y-135018147D01*
X132480273Y-135126320D01*
X132245241Y-135283363D01*
X132045363Y-135483241D01*
X131941957Y-135638000D01*
X129567132Y-135638000D01*
X129565000Y-135159750D01*
X129406250Y-135001000D01*
X128207000Y-135001000D01*
X128207000Y-135021000D01*
X127953000Y-135021000D01*
X127953000Y-135001000D01*
X127933000Y-135001000D01*
X127933000Y-134747000D01*
X127953000Y-134747000D01*
X127953000Y-134727000D01*
X128207000Y-134727000D01*
X128207000Y-134747000D01*
X129406250Y-134747000D01*
X129565000Y-134588250D01*
X129568072Y-133899000D01*
X129563837Y-133856000D01*
X131941957Y-133856000D01*
X132045363Y-134010759D01*
X132245241Y-134210637D01*
X132480273Y-134367680D01*
X132741426Y-134475853D01*
X133018665Y-134531000D01*
X133301335Y-134531000D01*
X133578574Y-134475853D01*
X133839727Y-134367680D01*
X134074759Y-134210637D01*
X134274637Y-134010759D01*
X134431680Y-133775727D01*
X134539853Y-133514574D01*
X134595000Y-133237335D01*
X134595000Y-132954665D01*
X134539853Y-132677426D01*
X134431680Y-132416273D01*
X134274637Y-132181241D01*
X134074759Y-131981363D01*
X133839727Y-131824320D01*
X133578574Y-131716147D01*
X133301335Y-131661000D01*
X133018665Y-131661000D01*
X132741426Y-131716147D01*
X132480273Y-131824320D01*
X132245241Y-131981363D01*
X132045363Y-132181241D01*
X131941957Y-132336000D01*
X125556422Y-132336000D01*
X125519099Y-132332324D01*
X125481776Y-132336000D01*
X125481767Y-132336000D01*
X125370114Y-132346997D01*
X125226853Y-132390454D01*
X125094823Y-132461026D01*
X125034295Y-132510701D01*
X124979099Y-132555999D01*
X124955301Y-132584997D01*
X123976566Y-133563733D01*
X123909014Y-133508294D01*
X123651034Y-133370401D01*
X123371111Y-133285487D01*
X123080000Y-133256815D01*
X122788890Y-133285487D01*
X122508967Y-133370401D01*
X122250987Y-133508294D01*
X122024866Y-133693866D01*
X121839294Y-133919986D01*
X121701401Y-134177966D01*
X121616487Y-134457889D01*
X121595000Y-134676050D01*
X121595000Y-134888898D01*
X119291104Y-132585003D01*
X119267301Y-132555999D01*
X119151576Y-132461026D01*
X119019547Y-132390454D01*
X118876286Y-132346997D01*
X118823947Y-132341842D01*
X118716637Y-132181241D01*
X118516759Y-131981363D01*
X118281727Y-131824320D01*
X118020574Y-131716147D01*
X117743335Y-131661000D01*
X117460665Y-131661000D01*
X117183426Y-131716147D01*
X116922273Y-131824320D01*
X116687241Y-131981363D01*
X116487363Y-132181241D01*
X116330320Y-132416273D01*
X116222147Y-132677426D01*
X116167000Y-132954665D01*
X116167000Y-133237335D01*
X116222147Y-133514574D01*
X116330320Y-133775727D01*
X116487363Y-134010759D01*
X116687241Y-134210637D01*
X116922273Y-134367680D01*
X117183426Y-134475853D01*
X117460665Y-134531000D01*
X117743335Y-134531000D01*
X118020574Y-134475853D01*
X118281727Y-134367680D01*
X118516759Y-134210637D01*
X118641947Y-134085449D01*
X121784998Y-137228500D01*
X118772937Y-137228500D01*
X118873680Y-137077727D01*
X118981853Y-136816574D01*
X119037000Y-136539335D01*
X119037000Y-136256665D01*
X118981853Y-135979426D01*
X118873680Y-135718273D01*
X118716637Y-135483241D01*
X118516759Y-135283363D01*
X118281727Y-135126320D01*
X118020574Y-135018147D01*
X117743335Y-134963000D01*
X117460665Y-134963000D01*
X117183426Y-135018147D01*
X116922273Y-135126320D01*
X116687241Y-135283363D01*
X116487363Y-135483241D01*
X116330320Y-135718273D01*
X116222147Y-135979426D01*
X116167000Y-136256665D01*
X116167000Y-136539335D01*
X116222147Y-136816574D01*
X116330320Y-137077727D01*
X116431063Y-137228500D01*
X109347302Y-137228500D01*
X108840688Y-136721886D01*
X108877000Y-136539335D01*
X108877000Y-136256665D01*
X108821853Y-135979426D01*
X108713680Y-135718273D01*
X108556637Y-135483241D01*
X108356759Y-135283363D01*
X108121727Y-135126320D01*
X107860574Y-135018147D01*
X107583335Y-134963000D01*
X107300665Y-134963000D01*
X107023426Y-135018147D01*
X106762273Y-135126320D01*
X106527241Y-135283363D01*
X106327363Y-135483241D01*
X106170320Y-135718273D01*
X106062147Y-135979426D01*
X106007000Y-136256665D01*
X106007000Y-136539335D01*
X106043312Y-136721886D01*
X105901899Y-136863300D01*
X105100739Y-136863300D01*
X105108011Y-136845743D01*
X105167000Y-136549184D01*
X105167000Y-136246816D01*
X105108011Y-135950257D01*
X104992299Y-135670905D01*
X104824312Y-135419495D01*
X104610505Y-135205688D01*
X104359095Y-135037701D01*
X104079743Y-134921989D01*
X103783184Y-134863000D01*
X103480816Y-134863000D01*
X103184257Y-134921989D01*
X102904905Y-135037701D01*
X102653495Y-135205688D01*
X102439688Y-135419495D01*
X102271701Y-135670905D01*
X102155989Y-135950257D01*
X102097000Y-136246816D01*
X102097000Y-136549184D01*
X102155989Y-136845743D01*
X102163261Y-136863300D01*
X98777402Y-136863300D01*
X97801104Y-135887003D01*
X97777301Y-135857999D01*
X97661576Y-135763026D01*
X97550072Y-135703425D01*
X97550072Y-135498000D01*
X97537812Y-135373518D01*
X97501502Y-135253820D01*
X97442537Y-135143506D01*
X97363185Y-135046815D01*
X97266494Y-134967463D01*
X97156180Y-134908498D01*
X97036482Y-134872188D01*
X96912000Y-134859928D01*
X95112000Y-134859928D01*
X94987518Y-134872188D01*
X94867820Y-134908498D01*
X94757506Y-134967463D01*
X94660815Y-135046815D01*
X94581463Y-135143506D01*
X94522498Y-135253820D01*
X94486188Y-135373518D01*
X94473928Y-135498000D01*
X94473928Y-137298000D01*
X94486188Y-137422482D01*
X94522498Y-137542180D01*
X94581463Y-137652494D01*
X94660815Y-137749185D01*
X94757506Y-137828537D01*
X94867820Y-137887502D01*
X94987518Y-137923812D01*
X95112000Y-137936072D01*
X96912000Y-137936072D01*
X97036482Y-137923812D01*
X97156180Y-137887502D01*
X97266494Y-137828537D01*
X97363185Y-137749185D01*
X97431023Y-137666524D01*
X97898801Y-138134303D01*
X97922599Y-138163301D01*
X97951597Y-138187099D01*
X98001434Y-138228000D01*
X90757800Y-138228000D01*
X90961207Y-138092088D01*
X91356088Y-137697207D01*
X91666344Y-137232876D01*
X91880052Y-136716939D01*
X91989000Y-136169223D01*
X91989000Y-135610777D01*
X91880052Y-135063061D01*
X91666344Y-134547124D01*
X91356088Y-134082793D01*
X90961207Y-133687912D01*
X90496876Y-133377656D01*
X89980939Y-133163948D01*
X89433223Y-133055000D01*
X88874777Y-133055000D01*
X88327061Y-133163948D01*
X87811124Y-133377656D01*
X87346793Y-133687912D01*
X86951912Y-134082793D01*
X86816000Y-134286200D01*
X86816000Y-122404473D01*
X86869463Y-122504494D01*
X86948815Y-122601185D01*
X87045506Y-122680537D01*
X87155820Y-122739502D01*
X87275518Y-122775812D01*
X87400000Y-122788072D01*
X90400000Y-122788072D01*
X90524482Y-122775812D01*
X90644180Y-122739502D01*
X90754494Y-122680537D01*
X90851185Y-122601185D01*
X90930537Y-122504494D01*
X90989502Y-122394180D01*
X91025812Y-122274482D01*
X91038072Y-122150000D01*
X91038072Y-121344575D01*
X91149576Y-121284974D01*
X91265301Y-121190001D01*
X91289104Y-121160997D01*
X103610736Y-108839365D01*
X116816040Y-108839365D01*
X116883020Y-109079456D01*
X117132048Y-109196556D01*
X117399135Y-109262823D01*
X117674017Y-109275710D01*
X117946133Y-109234722D01*
X118205023Y-109141436D01*
X118320980Y-109079456D01*
X118387960Y-108839365D01*
X117602000Y-108053405D01*
X116816040Y-108839365D01*
X103610736Y-108839365D01*
X104504285Y-107945817D01*
X116200090Y-107945817D01*
X116241078Y-108217933D01*
X116334364Y-108476823D01*
X116396344Y-108592780D01*
X116636435Y-108659760D01*
X117422395Y-107873800D01*
X117781605Y-107873800D01*
X118567565Y-108659760D01*
X118807656Y-108592780D01*
X118924756Y-108343752D01*
X118991023Y-108076665D01*
X119003910Y-107801783D01*
X118962922Y-107529667D01*
X118869636Y-107270777D01*
X118807656Y-107154820D01*
X118567565Y-107087840D01*
X117781605Y-107873800D01*
X117422395Y-107873800D01*
X116636435Y-107087840D01*
X116396344Y-107154820D01*
X116279244Y-107403848D01*
X116212977Y-107670935D01*
X116200090Y-107945817D01*
X104504285Y-107945817D01*
X105541867Y-106908235D01*
X116816040Y-106908235D01*
X117602000Y-107694195D01*
X118387960Y-106908235D01*
X118320980Y-106668144D01*
X118071952Y-106551044D01*
X117804865Y-106484777D01*
X117529983Y-106471890D01*
X117257867Y-106512878D01*
X116998977Y-106606164D01*
X116883020Y-106668144D01*
X116816040Y-106908235D01*
X105541867Y-106908235D01*
X114281103Y-98169000D01*
X116429659Y-98169000D01*
X116516880Y-98299535D01*
X116711465Y-98494120D01*
X116940273Y-98647005D01*
X117194510Y-98752314D01*
X117464408Y-98806000D01*
X117739592Y-98806000D01*
X118009490Y-98752314D01*
X118263727Y-98647005D01*
X118492535Y-98494120D01*
X118687120Y-98299535D01*
X118840005Y-98070727D01*
X118945314Y-97816490D01*
X118999000Y-97546592D01*
X118999000Y-97271408D01*
X118945314Y-97001510D01*
X118840005Y-96747273D01*
X118687120Y-96518465D01*
X118492535Y-96323880D01*
X118263727Y-96170995D01*
X118009490Y-96065686D01*
X117739592Y-96012000D01*
X117464408Y-96012000D01*
X117194510Y-96065686D01*
X116940273Y-96170995D01*
X116711465Y-96323880D01*
X116516880Y-96518465D01*
X116429659Y-96649000D01*
X114003622Y-96649000D01*
X113966299Y-96645324D01*
X113928976Y-96649000D01*
X113928967Y-96649000D01*
X113817314Y-96659997D01*
X113674053Y-96703454D01*
X113542024Y-96774026D01*
X113542022Y-96774027D01*
X113542023Y-96774027D01*
X113455296Y-96845201D01*
X113455292Y-96845205D01*
X113426299Y-96868999D01*
X113402505Y-96897992D01*
X91038072Y-119262427D01*
X91038072Y-119150000D01*
X91025812Y-119025518D01*
X90989502Y-118905820D01*
X90930537Y-118795506D01*
X90851185Y-118698815D01*
X90754494Y-118619463D01*
X90644180Y-118560498D01*
X90524482Y-118524188D01*
X90400000Y-118511928D01*
X87400000Y-118511928D01*
X87275518Y-118524188D01*
X87155820Y-118560498D01*
X87045506Y-118619463D01*
X86948815Y-118698815D01*
X86869463Y-118795506D01*
X86816000Y-118895527D01*
X86816000Y-107431408D01*
X93345000Y-107431408D01*
X93345000Y-107706592D01*
X93398686Y-107976490D01*
X93503995Y-108230727D01*
X93656880Y-108459535D01*
X93851465Y-108654120D01*
X94080273Y-108807005D01*
X94334510Y-108912314D01*
X94604408Y-108966000D01*
X94879592Y-108966000D01*
X95149490Y-108912314D01*
X95403727Y-108807005D01*
X95632535Y-108654120D01*
X95827120Y-108459535D01*
X95980005Y-108230727D01*
X96085314Y-107976490D01*
X96139000Y-107706592D01*
X96139000Y-107431408D01*
X96085314Y-107161510D01*
X95980005Y-106907273D01*
X95827120Y-106678465D01*
X95632535Y-106483880D01*
X95403727Y-106330995D01*
X95149490Y-106225686D01*
X94879592Y-106172000D01*
X94604408Y-106172000D01*
X94334510Y-106225686D01*
X94080273Y-106330995D01*
X93851465Y-106483880D01*
X93656880Y-106678465D01*
X93503995Y-106907273D01*
X93398686Y-107161510D01*
X93345000Y-107431408D01*
X86816000Y-107431408D01*
X86816000Y-95583800D01*
X86951912Y-95787207D01*
X87346793Y-96182088D01*
X87811124Y-96492344D01*
X88327061Y-96706052D01*
X88874777Y-96815000D01*
X89433223Y-96815000D01*
X89980939Y-96706052D01*
X90496876Y-96492344D01*
X90961207Y-96182088D01*
X91356088Y-95787207D01*
X91666344Y-95322876D01*
X91880052Y-94806939D01*
X91895076Y-94731408D01*
X93345000Y-94731408D01*
X93345000Y-95006592D01*
X93398686Y-95276490D01*
X93503995Y-95530727D01*
X93656880Y-95759535D01*
X93851465Y-95954120D01*
X94080273Y-96107005D01*
X94334510Y-96212314D01*
X94604408Y-96266000D01*
X94879592Y-96266000D01*
X95149490Y-96212314D01*
X95403727Y-96107005D01*
X95632535Y-95954120D01*
X95827120Y-95759535D01*
X95980005Y-95530727D01*
X96085314Y-95276490D01*
X96139000Y-95006592D01*
X96139000Y-94731408D01*
X96085314Y-94461510D01*
X96070858Y-94426608D01*
X116205000Y-94426608D01*
X116205000Y-94701792D01*
X116258686Y-94971690D01*
X116363995Y-95225927D01*
X116516880Y-95454735D01*
X116711465Y-95649320D01*
X116940273Y-95802205D01*
X117194510Y-95907514D01*
X117464408Y-95961200D01*
X117739592Y-95961200D01*
X118009490Y-95907514D01*
X118263727Y-95802205D01*
X118492535Y-95649320D01*
X118687120Y-95454735D01*
X118840005Y-95225927D01*
X118945314Y-94971690D01*
X118999000Y-94701792D01*
X118999000Y-94426608D01*
X118945314Y-94156710D01*
X118840005Y-93902473D01*
X118687120Y-93673665D01*
X118492535Y-93479080D01*
X118263727Y-93326195D01*
X118009490Y-93220886D01*
X117739592Y-93167200D01*
X117464408Y-93167200D01*
X117194510Y-93220886D01*
X116940273Y-93326195D01*
X116711465Y-93479080D01*
X116516880Y-93673665D01*
X116363995Y-93902473D01*
X116258686Y-94156710D01*
X116205000Y-94426608D01*
X96070858Y-94426608D01*
X95980005Y-94207273D01*
X95827120Y-93978465D01*
X95632535Y-93783880D01*
X95403727Y-93630995D01*
X95149490Y-93525686D01*
X94879592Y-93472000D01*
X94604408Y-93472000D01*
X94334510Y-93525686D01*
X94080273Y-93630995D01*
X93851465Y-93783880D01*
X93656880Y-93978465D01*
X93503995Y-94207273D01*
X93398686Y-94461510D01*
X93345000Y-94731408D01*
X91895076Y-94731408D01*
X91989000Y-94259223D01*
X91989000Y-93700777D01*
X91880052Y-93153061D01*
X91666344Y-92637124D01*
X91356088Y-92172793D01*
X90961207Y-91777912D01*
X90757800Y-91642000D01*
X124058498Y-91642000D01*
X123952207Y-91748292D01*
G36*
X140435616Y-93721108D02*
G01*
X140416282Y-94042595D01*
X140460039Y-94361675D01*
X140565205Y-94666088D01*
X140658186Y-94840044D01*
X140922587Y-94935808D01*
X141878395Y-93980000D01*
X141864253Y-93965858D01*
X142043858Y-93786253D01*
X142058000Y-93800395D01*
X142072143Y-93786253D01*
X142251748Y-93965858D01*
X142237605Y-93980000D01*
X143193413Y-94935808D01*
X143457814Y-94840044D01*
X143598704Y-94550429D01*
X143680384Y-94238892D01*
X143691009Y-94062211D01*
X146516900Y-96888102D01*
X146540699Y-96917101D01*
X146569697Y-96940899D01*
X146656423Y-97012074D01*
X146763485Y-97069300D01*
X146788453Y-97082646D01*
X146931714Y-97126103D01*
X147043367Y-97137100D01*
X147043377Y-97137100D01*
X147080699Y-97140776D01*
X147118022Y-97137100D01*
X152961299Y-97137100D01*
X154802049Y-98977850D01*
X154673537Y-99031082D01*
X154405748Y-99210013D01*
X154178013Y-99437748D01*
X153999082Y-99705537D01*
X153875832Y-100003088D01*
X153813000Y-100318967D01*
X153813000Y-100641033D01*
X153875832Y-100956912D01*
X153999082Y-101254463D01*
X154178013Y-101522252D01*
X154405748Y-101749987D01*
X154673537Y-101928918D01*
X154971088Y-102052168D01*
X155286967Y-102115000D01*
X155609033Y-102115000D01*
X155924912Y-102052168D01*
X156222463Y-101928918D01*
X156490252Y-101749987D01*
X156717987Y-101522252D01*
X156896918Y-101254463D01*
X156950150Y-101125951D01*
X159442291Y-103618093D01*
X159400000Y-103613928D01*
X159035750Y-103617000D01*
X158877000Y-103775750D01*
X158877000Y-104775000D01*
X158897000Y-104775000D01*
X158897000Y-105029000D01*
X158877000Y-105029000D01*
X158877000Y-105049000D01*
X158623000Y-105049000D01*
X158623000Y-105029000D01*
X157623750Y-105029000D01*
X157465000Y-105187750D01*
X157464467Y-105250965D01*
X156465502Y-104252000D01*
X157461928Y-104252000D01*
X157465000Y-104616250D01*
X157623750Y-104775000D01*
X158623000Y-104775000D01*
X158623000Y-103775750D01*
X158464250Y-103617000D01*
X158100000Y-103613928D01*
X157975518Y-103626188D01*
X157855820Y-103662498D01*
X157745506Y-103721463D01*
X157648815Y-103800815D01*
X157569463Y-103897506D01*
X157510498Y-104007820D01*
X157474188Y-104127518D01*
X157461928Y-104252000D01*
X156465502Y-104252000D01*
X153958204Y-101744703D01*
X153934401Y-101715699D01*
X153818676Y-101620726D01*
X153686647Y-101550154D01*
X153543386Y-101506697D01*
X153431733Y-101495700D01*
X153431722Y-101495700D01*
X153394400Y-101492024D01*
X153357078Y-101495700D01*
X152143308Y-101495700D01*
X152083415Y-101435807D01*
X152347814Y-101340044D01*
X152488704Y-101050429D01*
X152570384Y-100738892D01*
X152589718Y-100417405D01*
X152545961Y-100098325D01*
X152440795Y-99793912D01*
X152347814Y-99619956D01*
X152083413Y-99524192D01*
X151127605Y-100480000D01*
X151141748Y-100494143D01*
X150962143Y-100673748D01*
X150948000Y-100659605D01*
X150933858Y-100673748D01*
X150754253Y-100494143D01*
X150768395Y-100480000D01*
X149812587Y-99524192D01*
X149548186Y-99619956D01*
X149407296Y-99909571D01*
X149325616Y-100221108D01*
X149306282Y-100542595D01*
X149350039Y-100861675D01*
X149455205Y-101166088D01*
X149548186Y-101340044D01*
X149812585Y-101435807D01*
X149752692Y-101495700D01*
X147845728Y-101495700D01*
X148006918Y-101254463D01*
X148130168Y-100956912D01*
X148193000Y-100641033D01*
X148193000Y-100318967D01*
X148130168Y-100003088D01*
X148006918Y-99705537D01*
X147827987Y-99437748D01*
X147734826Y-99344587D01*
X149992192Y-99344587D01*
X150948000Y-100300395D01*
X151903808Y-99344587D01*
X151808044Y-99080186D01*
X151518429Y-98939296D01*
X151206892Y-98857616D01*
X150885405Y-98838282D01*
X150566325Y-98882039D01*
X150261912Y-98987205D01*
X150087956Y-99080186D01*
X149992192Y-99344587D01*
X147734826Y-99344587D01*
X147600252Y-99210013D01*
X147332463Y-99031082D01*
X147034912Y-98907832D01*
X146719033Y-98845000D01*
X146396967Y-98845000D01*
X146081088Y-98907832D01*
X145783537Y-99031082D01*
X145515748Y-99210013D01*
X145288013Y-99437748D01*
X145109082Y-99705537D01*
X144985832Y-100003088D01*
X144923000Y-100318967D01*
X144923000Y-100641033D01*
X144985832Y-100956912D01*
X145109082Y-101254463D01*
X145270272Y-101495700D01*
X143253308Y-101495700D01*
X143193415Y-101435807D01*
X143457814Y-101340044D01*
X143598704Y-101050429D01*
X143680384Y-100738892D01*
X143699718Y-100417405D01*
X143655961Y-100098325D01*
X143550795Y-99793912D01*
X143457814Y-99619956D01*
X143193413Y-99524192D01*
X142237605Y-100480000D01*
X142251748Y-100494143D01*
X142072143Y-100673748D01*
X142058000Y-100659605D01*
X142043858Y-100673748D01*
X141864253Y-100494143D01*
X141878395Y-100480000D01*
X140922587Y-99524192D01*
X140658186Y-99619956D01*
X140573153Y-99794751D01*
X140176000Y-99397599D01*
X140176000Y-99344587D01*
X141102192Y-99344587D01*
X142058000Y-100300395D01*
X143013808Y-99344587D01*
X142918044Y-99080186D01*
X142628429Y-98939296D01*
X142316892Y-98857616D01*
X141995405Y-98838282D01*
X141676325Y-98882039D01*
X141371912Y-98987205D01*
X141197956Y-99080186D01*
X141102192Y-99344587D01*
X140176000Y-99344587D01*
X140176000Y-98555523D01*
X140179676Y-98518200D01*
X140176000Y-98480877D01*
X140176000Y-98480867D01*
X140165003Y-98369214D01*
X140121546Y-98225953D01*
X140050974Y-98093924D01*
X139956001Y-97978199D01*
X139927004Y-97954402D01*
X139459356Y-97486754D01*
X139563094Y-97292674D01*
X139630853Y-97069300D01*
X139653733Y-96837000D01*
X139630853Y-96604700D01*
X139563094Y-96381326D01*
X139453058Y-96175464D01*
X139304975Y-95995025D01*
X139124536Y-95846942D01*
X139105936Y-95837000D01*
X139124536Y-95827058D01*
X139304975Y-95678975D01*
X139453058Y-95498536D01*
X139563094Y-95292674D01*
X139616864Y-95115413D01*
X141102192Y-95115413D01*
X141197956Y-95379814D01*
X141487571Y-95520704D01*
X141799108Y-95602384D01*
X142120595Y-95621718D01*
X142439675Y-95577961D01*
X142744088Y-95472795D01*
X142918044Y-95379814D01*
X143013808Y-95115413D01*
X142058000Y-94159605D01*
X141102192Y-95115413D01*
X139616864Y-95115413D01*
X139630853Y-95069300D01*
X139653733Y-94837000D01*
X139630853Y-94604700D01*
X139591845Y-94476106D01*
X139599576Y-94471974D01*
X139715301Y-94377001D01*
X139739104Y-94347997D01*
X140460356Y-93626745D01*
X140435616Y-93721108D01*
G37*
X140435616Y-93721108D02*
X140416282Y-94042595D01*
X140460039Y-94361675D01*
X140565205Y-94666088D01*
X140658186Y-94840044D01*
X140922587Y-94935808D01*
X141878395Y-93980000D01*
X141864253Y-93965858D01*
X142043858Y-93786253D01*
X142058000Y-93800395D01*
X142072143Y-93786253D01*
X142251748Y-93965858D01*
X142237605Y-93980000D01*
X143193413Y-94935808D01*
X143457814Y-94840044D01*
X143598704Y-94550429D01*
X143680384Y-94238892D01*
X143691009Y-94062211D01*
X146516900Y-96888102D01*
X146540699Y-96917101D01*
X146569697Y-96940899D01*
X146656423Y-97012074D01*
X146763485Y-97069300D01*
X146788453Y-97082646D01*
X146931714Y-97126103D01*
X147043367Y-97137100D01*
X147043377Y-97137100D01*
X147080699Y-97140776D01*
X147118022Y-97137100D01*
X152961299Y-97137100D01*
X154802049Y-98977850D01*
X154673537Y-99031082D01*
X154405748Y-99210013D01*
X154178013Y-99437748D01*
X153999082Y-99705537D01*
X153875832Y-100003088D01*
X153813000Y-100318967D01*
X153813000Y-100641033D01*
X153875832Y-100956912D01*
X153999082Y-101254463D01*
X154178013Y-101522252D01*
X154405748Y-101749987D01*
X154673537Y-101928918D01*
X154971088Y-102052168D01*
X155286967Y-102115000D01*
X155609033Y-102115000D01*
X155924912Y-102052168D01*
X156222463Y-101928918D01*
X156490252Y-101749987D01*
X156717987Y-101522252D01*
X156896918Y-101254463D01*
X156950150Y-101125951D01*
X159442291Y-103618093D01*
X159400000Y-103613928D01*
X159035750Y-103617000D01*
X158877000Y-103775750D01*
X158877000Y-104775000D01*
X158897000Y-104775000D01*
X158897000Y-105029000D01*
X158877000Y-105029000D01*
X158877000Y-105049000D01*
X158623000Y-105049000D01*
X158623000Y-105029000D01*
X157623750Y-105029000D01*
X157465000Y-105187750D01*
X157464467Y-105250965D01*
X156465502Y-104252000D01*
X157461928Y-104252000D01*
X157465000Y-104616250D01*
X157623750Y-104775000D01*
X158623000Y-104775000D01*
X158623000Y-103775750D01*
X158464250Y-103617000D01*
X158100000Y-103613928D01*
X157975518Y-103626188D01*
X157855820Y-103662498D01*
X157745506Y-103721463D01*
X157648815Y-103800815D01*
X157569463Y-103897506D01*
X157510498Y-104007820D01*
X157474188Y-104127518D01*
X157461928Y-104252000D01*
X156465502Y-104252000D01*
X153958204Y-101744703D01*
X153934401Y-101715699D01*
X153818676Y-101620726D01*
X153686647Y-101550154D01*
X153543386Y-101506697D01*
X153431733Y-101495700D01*
X153431722Y-101495700D01*
X153394400Y-101492024D01*
X153357078Y-101495700D01*
X152143308Y-101495700D01*
X152083415Y-101435807D01*
X152347814Y-101340044D01*
X152488704Y-101050429D01*
X152570384Y-100738892D01*
X152589718Y-100417405D01*
X152545961Y-100098325D01*
X152440795Y-99793912D01*
X152347814Y-99619956D01*
X152083413Y-99524192D01*
X151127605Y-100480000D01*
X151141748Y-100494143D01*
X150962143Y-100673748D01*
X150948000Y-100659605D01*
X150933858Y-100673748D01*
X150754253Y-100494143D01*
X150768395Y-100480000D01*
X149812587Y-99524192D01*
X149548186Y-99619956D01*
X149407296Y-99909571D01*
X149325616Y-100221108D01*
X149306282Y-100542595D01*
X149350039Y-100861675D01*
X149455205Y-101166088D01*
X149548186Y-101340044D01*
X149812585Y-101435807D01*
X149752692Y-101495700D01*
X147845728Y-101495700D01*
X148006918Y-101254463D01*
X148130168Y-100956912D01*
X148193000Y-100641033D01*
X148193000Y-100318967D01*
X148130168Y-100003088D01*
X148006918Y-99705537D01*
X147827987Y-99437748D01*
X147734826Y-99344587D01*
X149992192Y-99344587D01*
X150948000Y-100300395D01*
X151903808Y-99344587D01*
X151808044Y-99080186D01*
X151518429Y-98939296D01*
X151206892Y-98857616D01*
X150885405Y-98838282D01*
X150566325Y-98882039D01*
X150261912Y-98987205D01*
X150087956Y-99080186D01*
X149992192Y-99344587D01*
X147734826Y-99344587D01*
X147600252Y-99210013D01*
X147332463Y-99031082D01*
X147034912Y-98907832D01*
X146719033Y-98845000D01*
X146396967Y-98845000D01*
X146081088Y-98907832D01*
X145783537Y-99031082D01*
X145515748Y-99210013D01*
X145288013Y-99437748D01*
X145109082Y-99705537D01*
X144985832Y-100003088D01*
X144923000Y-100318967D01*
X144923000Y-100641033D01*
X144985832Y-100956912D01*
X145109082Y-101254463D01*
X145270272Y-101495700D01*
X143253308Y-101495700D01*
X143193415Y-101435807D01*
X143457814Y-101340044D01*
X143598704Y-101050429D01*
X143680384Y-100738892D01*
X143699718Y-100417405D01*
X143655961Y-100098325D01*
X143550795Y-99793912D01*
X143457814Y-99619956D01*
X143193413Y-99524192D01*
X142237605Y-100480000D01*
X142251748Y-100494143D01*
X142072143Y-100673748D01*
X142058000Y-100659605D01*
X142043858Y-100673748D01*
X141864253Y-100494143D01*
X141878395Y-100480000D01*
X140922587Y-99524192D01*
X140658186Y-99619956D01*
X140573153Y-99794751D01*
X140176000Y-99397599D01*
X140176000Y-99344587D01*
X141102192Y-99344587D01*
X142058000Y-100300395D01*
X143013808Y-99344587D01*
X142918044Y-99080186D01*
X142628429Y-98939296D01*
X142316892Y-98857616D01*
X141995405Y-98838282D01*
X141676325Y-98882039D01*
X141371912Y-98987205D01*
X141197956Y-99080186D01*
X141102192Y-99344587D01*
X140176000Y-99344587D01*
X140176000Y-98555523D01*
X140179676Y-98518200D01*
X140176000Y-98480877D01*
X140176000Y-98480867D01*
X140165003Y-98369214D01*
X140121546Y-98225953D01*
X140050974Y-98093924D01*
X139956001Y-97978199D01*
X139927004Y-97954402D01*
X139459356Y-97486754D01*
X139563094Y-97292674D01*
X139630853Y-97069300D01*
X139653733Y-96837000D01*
X139630853Y-96604700D01*
X139563094Y-96381326D01*
X139453058Y-96175464D01*
X139304975Y-95995025D01*
X139124536Y-95846942D01*
X139105936Y-95837000D01*
X139124536Y-95827058D01*
X139304975Y-95678975D01*
X139453058Y-95498536D01*
X139563094Y-95292674D01*
X139616864Y-95115413D01*
X141102192Y-95115413D01*
X141197956Y-95379814D01*
X141487571Y-95520704D01*
X141799108Y-95602384D01*
X142120595Y-95621718D01*
X142439675Y-95577961D01*
X142744088Y-95472795D01*
X142918044Y-95379814D01*
X143013808Y-95115413D01*
X142058000Y-94159605D01*
X141102192Y-95115413D01*
X139616864Y-95115413D01*
X139630853Y-95069300D01*
X139653733Y-94837000D01*
X139630853Y-94604700D01*
X139591845Y-94476106D01*
X139599576Y-94471974D01*
X139715301Y-94377001D01*
X139739104Y-94347997D01*
X140460356Y-93626745D01*
X140435616Y-93721108D01*
M02*
