G04 #@! TF.GenerationSoftware,KiCad,Pcbnew,5.1.5-52549c5~84~ubuntu18.04.1*
G04 #@! TF.CreationDate,2020-03-20T00:25:39+01:00*
G04 #@! TF.ProjectId,ltl,6c746c2e-6b69-4636-9164-5f7063625858,rev?*
G04 #@! TF.SameCoordinates,Original*
G04 #@! TF.FileFunction,Copper,L1,Top*
G04 #@! TF.FilePolarity,Positive*
%FSLAX46Y46*%
G04 Gerber Fmt 4.6, Leading zero omitted, Abs format (unit mm)*
G04 Created by KiCad (PCBNEW 5.1.5-52549c5~84~ubuntu18.04.1) date 2020-03-20 00:25:39*
%MOMM*%
%LPD*%
G04 APERTURE LIST*
%ADD10C,0.800000*%
%ADD11C,5.400000*%
%ADD12O,1.600000X1.600000*%
%ADD13C,1.600000*%
%ADD14R,1.600000X1.600000*%
%ADD15C,1.300000*%
%ADD16R,1.300000X1.300000*%
%ADD17R,3.500000X3.500000*%
%ADD18C,0.100000*%
%ADD19R,2.800000X2.800000*%
%ADD20O,2.800000X2.800000*%
%ADD21O,1.950000X1.700000*%
%ADD22R,1.100000X2.500000*%
%ADD23O,1.100000X2.500000*%
%ADD24O,2.500000X1.100000*%
%ADD25R,7.340000X6.350000*%
%ADD26C,1.400000*%
%ADD27O,1.400000X1.400000*%
%ADD28C,2.000000*%
%ADD29C,0.250000*%
%ADD30C,0.254000*%
G04 APERTURE END LIST*
D10*
X78774891Y-125949109D03*
X77343000Y-125356000D03*
X75911109Y-125949109D03*
X75318000Y-127381000D03*
X75911109Y-128812891D03*
X77343000Y-129406000D03*
X78774891Y-128812891D03*
X79368000Y-127381000D03*
D11*
X77343000Y-127381000D03*
X159512000Y-127381000D03*
D10*
X161537000Y-127381000D03*
X160943891Y-128812891D03*
X159512000Y-129406000D03*
X158080109Y-128812891D03*
X157487000Y-127381000D03*
X158080109Y-125949109D03*
X159512000Y-125356000D03*
X160943891Y-125949109D03*
D11*
X159512000Y-71628000D03*
D10*
X161537000Y-71628000D03*
X160943891Y-73059891D03*
X159512000Y-73653000D03*
X158080109Y-73059891D03*
X157487000Y-71628000D03*
X158080109Y-70196109D03*
X159512000Y-69603000D03*
X160943891Y-70196109D03*
X78774891Y-70196109D03*
X77343000Y-69603000D03*
X75911109Y-70196109D03*
X75318000Y-71628000D03*
X75911109Y-73059891D03*
X77343000Y-73653000D03*
X78774891Y-73059891D03*
X79368000Y-71628000D03*
D11*
X77343000Y-71628000D03*
D12*
X122809000Y-78105000D03*
D13*
X132969000Y-78105000D03*
D12*
X122809000Y-85852000D03*
D13*
X132969000Y-85852000D03*
D12*
X122809000Y-81915000D03*
D13*
X132969000Y-81915000D03*
D12*
X146304000Y-71120000D03*
D13*
X136144000Y-71120000D03*
D12*
X153289000Y-100965000D03*
D13*
X143129000Y-100965000D03*
X143129000Y-97155000D03*
D12*
X153289000Y-97155000D03*
D14*
X131318000Y-90424000D03*
D13*
X131318000Y-92924000D03*
X122809000Y-98044000D03*
D12*
X132969000Y-98044000D03*
D15*
X126492000Y-70866000D03*
X127762000Y-72136000D03*
D16*
X125222000Y-72136000D03*
D17*
X90424000Y-95504000D03*
G04 #@! TA.AperFunction,ComponentPad*
D18*
G36*
X85247513Y-93757611D02*
G01*
X85320318Y-93768411D01*
X85391714Y-93786295D01*
X85461013Y-93811090D01*
X85527548Y-93842559D01*
X85590678Y-93880398D01*
X85649795Y-93924242D01*
X85704330Y-93973670D01*
X85753758Y-94028205D01*
X85797602Y-94087322D01*
X85835441Y-94150452D01*
X85866910Y-94216987D01*
X85891705Y-94286286D01*
X85909589Y-94357682D01*
X85920389Y-94430487D01*
X85924000Y-94504000D01*
X85924000Y-96504000D01*
X85920389Y-96577513D01*
X85909589Y-96650318D01*
X85891705Y-96721714D01*
X85866910Y-96791013D01*
X85835441Y-96857548D01*
X85797602Y-96920678D01*
X85753758Y-96979795D01*
X85704330Y-97034330D01*
X85649795Y-97083758D01*
X85590678Y-97127602D01*
X85527548Y-97165441D01*
X85461013Y-97196910D01*
X85391714Y-97221705D01*
X85320318Y-97239589D01*
X85247513Y-97250389D01*
X85174000Y-97254000D01*
X83674000Y-97254000D01*
X83600487Y-97250389D01*
X83527682Y-97239589D01*
X83456286Y-97221705D01*
X83386987Y-97196910D01*
X83320452Y-97165441D01*
X83257322Y-97127602D01*
X83198205Y-97083758D01*
X83143670Y-97034330D01*
X83094242Y-96979795D01*
X83050398Y-96920678D01*
X83012559Y-96857548D01*
X82981090Y-96791013D01*
X82956295Y-96721714D01*
X82938411Y-96650318D01*
X82927611Y-96577513D01*
X82924000Y-96504000D01*
X82924000Y-94504000D01*
X82927611Y-94430487D01*
X82938411Y-94357682D01*
X82956295Y-94286286D01*
X82981090Y-94216987D01*
X83012559Y-94150452D01*
X83050398Y-94087322D01*
X83094242Y-94028205D01*
X83143670Y-93973670D01*
X83198205Y-93924242D01*
X83257322Y-93880398D01*
X83320452Y-93842559D01*
X83386987Y-93811090D01*
X83456286Y-93786295D01*
X83527682Y-93768411D01*
X83600487Y-93757611D01*
X83674000Y-93754000D01*
X85174000Y-93754000D01*
X85247513Y-93757611D01*
G37*
G04 #@! TD.AperFunction*
G04 #@! TA.AperFunction,ComponentPad*
G36*
X88384765Y-98458213D02*
G01*
X88469704Y-98470813D01*
X88552999Y-98491677D01*
X88633848Y-98520605D01*
X88711472Y-98557319D01*
X88785124Y-98601464D01*
X88854094Y-98652616D01*
X88917718Y-98710282D01*
X88975384Y-98773906D01*
X89026536Y-98842876D01*
X89070681Y-98916528D01*
X89107395Y-98994152D01*
X89136323Y-99075001D01*
X89157187Y-99158296D01*
X89169787Y-99243235D01*
X89174000Y-99329000D01*
X89174000Y-101079000D01*
X89169787Y-101164765D01*
X89157187Y-101249704D01*
X89136323Y-101332999D01*
X89107395Y-101413848D01*
X89070681Y-101491472D01*
X89026536Y-101565124D01*
X88975384Y-101634094D01*
X88917718Y-101697718D01*
X88854094Y-101755384D01*
X88785124Y-101806536D01*
X88711472Y-101850681D01*
X88633848Y-101887395D01*
X88552999Y-101916323D01*
X88469704Y-101937187D01*
X88384765Y-101949787D01*
X88299000Y-101954000D01*
X86549000Y-101954000D01*
X86463235Y-101949787D01*
X86378296Y-101937187D01*
X86295001Y-101916323D01*
X86214152Y-101887395D01*
X86136528Y-101850681D01*
X86062876Y-101806536D01*
X85993906Y-101755384D01*
X85930282Y-101697718D01*
X85872616Y-101634094D01*
X85821464Y-101565124D01*
X85777319Y-101491472D01*
X85740605Y-101413848D01*
X85711677Y-101332999D01*
X85690813Y-101249704D01*
X85678213Y-101164765D01*
X85674000Y-101079000D01*
X85674000Y-99329000D01*
X85678213Y-99243235D01*
X85690813Y-99158296D01*
X85711677Y-99075001D01*
X85740605Y-98994152D01*
X85777319Y-98916528D01*
X85821464Y-98842876D01*
X85872616Y-98773906D01*
X85930282Y-98710282D01*
X85993906Y-98652616D01*
X86062876Y-98601464D01*
X86136528Y-98557319D01*
X86214152Y-98520605D01*
X86295001Y-98491677D01*
X86378296Y-98470813D01*
X86463235Y-98458213D01*
X86549000Y-98454000D01*
X88299000Y-98454000D01*
X88384765Y-98458213D01*
G37*
G04 #@! TD.AperFunction*
D19*
X111760000Y-95504000D03*
D20*
X99060000Y-95504000D03*
G04 #@! TA.AperFunction,ComponentPad*
D18*
G36*
X81013504Y-78907204D02*
G01*
X81037773Y-78910804D01*
X81061571Y-78916765D01*
X81084671Y-78925030D01*
X81106849Y-78935520D01*
X81127893Y-78948133D01*
X81147598Y-78962747D01*
X81165777Y-78979223D01*
X81182253Y-78997402D01*
X81196867Y-79017107D01*
X81209480Y-79038151D01*
X81219970Y-79060329D01*
X81228235Y-79083429D01*
X81234196Y-79107227D01*
X81237796Y-79131496D01*
X81239000Y-79156000D01*
X81239000Y-80356000D01*
X81237796Y-80380504D01*
X81234196Y-80404773D01*
X81228235Y-80428571D01*
X81219970Y-80451671D01*
X81209480Y-80473849D01*
X81196867Y-80494893D01*
X81182253Y-80514598D01*
X81165777Y-80532777D01*
X81147598Y-80549253D01*
X81127893Y-80563867D01*
X81106849Y-80576480D01*
X81084671Y-80586970D01*
X81061571Y-80595235D01*
X81037773Y-80601196D01*
X81013504Y-80604796D01*
X80989000Y-80606000D01*
X79539000Y-80606000D01*
X79514496Y-80604796D01*
X79490227Y-80601196D01*
X79466429Y-80595235D01*
X79443329Y-80586970D01*
X79421151Y-80576480D01*
X79400107Y-80563867D01*
X79380402Y-80549253D01*
X79362223Y-80532777D01*
X79345747Y-80514598D01*
X79331133Y-80494893D01*
X79318520Y-80473849D01*
X79308030Y-80451671D01*
X79299765Y-80428571D01*
X79293804Y-80404773D01*
X79290204Y-80380504D01*
X79289000Y-80356000D01*
X79289000Y-79156000D01*
X79290204Y-79131496D01*
X79293804Y-79107227D01*
X79299765Y-79083429D01*
X79308030Y-79060329D01*
X79318520Y-79038151D01*
X79331133Y-79017107D01*
X79345747Y-78997402D01*
X79362223Y-78979223D01*
X79380402Y-78962747D01*
X79400107Y-78948133D01*
X79421151Y-78935520D01*
X79443329Y-78925030D01*
X79466429Y-78916765D01*
X79490227Y-78910804D01*
X79514496Y-78907204D01*
X79539000Y-78906000D01*
X80989000Y-78906000D01*
X81013504Y-78907204D01*
G37*
G04 #@! TD.AperFunction*
D21*
X80264000Y-82256000D03*
X80264000Y-84756000D03*
D22*
X153670000Y-77024000D03*
D23*
X151670000Y-77024000D03*
X149670000Y-77024000D03*
X147670000Y-77024000D03*
X145670000Y-77024000D03*
X143670000Y-77024000D03*
X141670000Y-77024000D03*
X139670000Y-77024000D03*
X139670000Y-92424000D03*
X141670000Y-92324000D03*
X143670000Y-92424000D03*
X145670000Y-92424000D03*
X147670000Y-92424000D03*
X149670000Y-92424000D03*
X151670000Y-92424000D03*
X153670000Y-92424000D03*
D24*
X137970000Y-79714000D03*
X137970000Y-81714000D03*
X137970000Y-83714000D03*
X137970000Y-85714000D03*
X137970000Y-87714000D03*
X137970000Y-89714000D03*
D25*
X157694000Y-114808000D03*
X79034000Y-114808000D03*
D26*
X107442000Y-89154000D03*
D27*
X109982000Y-89154000D03*
D28*
X110894000Y-78867000D03*
X110894000Y-83367000D03*
X104394000Y-78867000D03*
X104394000Y-83367000D03*
X91694000Y-83494000D03*
X91694000Y-78994000D03*
X98194000Y-83494000D03*
X98194000Y-78994000D03*
D29*
X99060000Y-95504000D02*
X100785300Y-95504000D01*
X157694000Y-114808000D02*
X120089300Y-114808000D01*
X120089300Y-114808000D02*
X100785300Y-95504000D01*
X99060000Y-95504000D02*
X90424000Y-95504000D01*
X131318000Y-92924000D02*
X138470000Y-92924000D01*
X138470000Y-92924000D02*
X139670000Y-91724000D01*
X98194000Y-83494000D02*
X91694000Y-83494000D01*
X104394000Y-83367000D02*
X110894000Y-83367000D01*
X98194000Y-83494000D02*
X104267000Y-83494000D01*
X104267000Y-83494000D02*
X104394000Y-83367000D01*
X111760000Y-95504000D02*
X113485300Y-95504000D01*
X131318000Y-90424000D02*
X118565300Y-90424000D01*
X118565300Y-90424000D02*
X113485300Y-95504000D01*
X139670000Y-77724000D02*
X133350000Y-77724000D01*
X133350000Y-77724000D02*
X132969000Y-78105000D01*
X80264000Y-85931300D02*
X85569500Y-91236800D01*
X85569500Y-91236800D02*
X102240600Y-91236800D01*
X102240600Y-91236800D02*
X111968800Y-100965000D01*
X111968800Y-100965000D02*
X143129000Y-100965000D01*
X80264000Y-84756000D02*
X80264000Y-85931300D01*
X80264000Y-82256000D02*
X80264000Y-83431300D01*
X80264000Y-83431300D02*
X81439300Y-83431300D01*
X81439300Y-83431300D02*
X83939300Y-85931300D01*
X83939300Y-85931300D02*
X97995000Y-85931300D01*
X97995000Y-85931300D02*
X109293100Y-97229400D01*
X109293100Y-97229400D02*
X121681600Y-97229400D01*
X121681600Y-97229400D02*
X121992400Y-96918600D01*
X121992400Y-96918600D02*
X142892600Y-96918600D01*
X142892600Y-96918600D02*
X143129000Y-97155000D01*
X145670000Y-91724000D02*
X145670000Y-90848700D01*
X145670000Y-90848700D02*
X143535300Y-88714000D01*
X143535300Y-88714000D02*
X135831000Y-88714000D01*
X135831000Y-88714000D02*
X132969000Y-85852000D01*
X79034000Y-114808000D02*
X79034000Y-111307700D01*
X79034000Y-111307700D02*
X84424000Y-105917700D01*
X84424000Y-105917700D02*
X84424000Y-95504000D01*
X107442000Y-89154000D02*
X113072300Y-83523700D01*
X113072300Y-83523700D02*
X125331900Y-83523700D01*
X125331900Y-83523700D02*
X137735600Y-71120000D01*
X137735600Y-71120000D02*
X146304000Y-71120000D01*
X98194000Y-78994000D02*
X91694000Y-78994000D01*
X111007300Y-89154000D02*
X115968000Y-84193300D01*
X115968000Y-84193300D02*
X133692300Y-84193300D01*
X133692300Y-84193300D02*
X135171600Y-82714000D01*
X135171600Y-82714000D02*
X143555300Y-82714000D01*
X143555300Y-82714000D02*
X147670000Y-78599300D01*
X147670000Y-77724000D02*
X147670000Y-78599300D01*
X109982000Y-89154000D02*
X111007300Y-89154000D01*
X122809000Y-81915000D02*
X121683700Y-81915000D01*
X110894000Y-78867000D02*
X118635700Y-78867000D01*
X118635700Y-78867000D02*
X121683700Y-81915000D01*
X104394000Y-78867000D02*
X110894000Y-78867000D01*
D30*
G36*
X155448000Y-102870000D02*
G01*
X155450440Y-102894776D01*
X155457667Y-102918601D01*
X155469403Y-102940557D01*
X155485197Y-102959803D01*
X155504443Y-102975597D01*
X155526399Y-102987333D01*
X155550224Y-102994560D01*
X155575000Y-102997000D01*
X162485000Y-102997000D01*
X162485000Y-125843681D01*
X162467439Y-125801285D01*
X162102464Y-125255061D01*
X161637939Y-124790536D01*
X161091715Y-124425561D01*
X160484784Y-124174162D01*
X159840469Y-124046000D01*
X159183531Y-124046000D01*
X158539216Y-124174162D01*
X157932285Y-124425561D01*
X157386061Y-124790536D01*
X156921536Y-125255061D01*
X156556561Y-125801285D01*
X156305162Y-126408216D01*
X156177000Y-127052531D01*
X156177000Y-127709469D01*
X156305162Y-128353784D01*
X156556561Y-128960715D01*
X156921536Y-129506939D01*
X157386061Y-129971464D01*
X157932285Y-130336439D01*
X157974681Y-130354000D01*
X78880319Y-130354000D01*
X78922715Y-130336439D01*
X79468939Y-129971464D01*
X79933464Y-129506939D01*
X80298439Y-128960715D01*
X80549838Y-128353784D01*
X80678000Y-127709469D01*
X80678000Y-127052531D01*
X80549838Y-126408216D01*
X80298439Y-125801285D01*
X79933464Y-125255061D01*
X79468939Y-124790536D01*
X78922715Y-124425561D01*
X78315784Y-124174162D01*
X77671469Y-124046000D01*
X77014531Y-124046000D01*
X76370216Y-124174162D01*
X75763285Y-124425561D01*
X75217061Y-124790536D01*
X74752536Y-125255061D01*
X74387561Y-125801285D01*
X74370000Y-125843681D01*
X74370000Y-122575560D01*
X88404000Y-122575560D01*
X88404000Y-123040440D01*
X88494694Y-123496387D01*
X88672595Y-123925879D01*
X88930868Y-124312412D01*
X89259588Y-124641132D01*
X89646121Y-124899405D01*
X90075613Y-125077306D01*
X90531560Y-125168000D01*
X90996440Y-125168000D01*
X91452387Y-125077306D01*
X91881879Y-124899405D01*
X92268412Y-124641132D01*
X92597132Y-124312412D01*
X92855405Y-123925879D01*
X93033306Y-123496387D01*
X93124000Y-123040440D01*
X93124000Y-122627761D01*
X152464000Y-122627761D01*
X152464000Y-122988239D01*
X152534325Y-123341791D01*
X152672275Y-123674830D01*
X152872546Y-123974557D01*
X153127443Y-124229454D01*
X153427170Y-124429725D01*
X153760209Y-124567675D01*
X154113761Y-124638000D01*
X154474239Y-124638000D01*
X154827791Y-124567675D01*
X155160830Y-124429725D01*
X155460557Y-124229454D01*
X155715454Y-123974557D01*
X155915725Y-123674830D01*
X156053675Y-123341791D01*
X156124000Y-122988239D01*
X156124000Y-122627761D01*
X156053675Y-122274209D01*
X155915725Y-121941170D01*
X155715454Y-121641443D01*
X155460557Y-121386546D01*
X155160830Y-121186275D01*
X154827791Y-121048325D01*
X154474239Y-120978000D01*
X154113761Y-120978000D01*
X153760209Y-121048325D01*
X153427170Y-121186275D01*
X153127443Y-121386546D01*
X152872546Y-121641443D01*
X152672275Y-121941170D01*
X152534325Y-122274209D01*
X152464000Y-122627761D01*
X93124000Y-122627761D01*
X93124000Y-122575560D01*
X93033306Y-122119613D01*
X92855405Y-121690121D01*
X92597132Y-121303588D01*
X92268412Y-120974868D01*
X91881879Y-120716595D01*
X91452387Y-120538694D01*
X90996440Y-120448000D01*
X90531560Y-120448000D01*
X90075613Y-120538694D01*
X89646121Y-120716595D01*
X89259588Y-120974868D01*
X88930868Y-121303588D01*
X88672595Y-121690121D01*
X88494694Y-122119613D01*
X88404000Y-122575560D01*
X74370000Y-122575560D01*
X74370000Y-111633000D01*
X74725928Y-111633000D01*
X74725928Y-117983000D01*
X74738188Y-118107482D01*
X74774498Y-118227180D01*
X74833463Y-118337494D01*
X74912815Y-118434185D01*
X75009506Y-118513537D01*
X75119820Y-118572502D01*
X75239518Y-118608812D01*
X75364000Y-118621072D01*
X82704000Y-118621072D01*
X82828482Y-118608812D01*
X82948180Y-118572502D01*
X83058494Y-118513537D01*
X83155185Y-118434185D01*
X83234537Y-118337494D01*
X83293502Y-118227180D01*
X83329812Y-118107482D01*
X83342072Y-117983000D01*
X83342072Y-111633000D01*
X83329812Y-111508518D01*
X83293502Y-111388820D01*
X83234537Y-111278506D01*
X83155185Y-111181815D01*
X83058494Y-111102463D01*
X82948180Y-111043498D01*
X82828482Y-111007188D01*
X82704000Y-110994928D01*
X80421573Y-110994928D01*
X84935004Y-106481498D01*
X84964001Y-106457701D01*
X84990332Y-106425617D01*
X85058974Y-106341977D01*
X85129546Y-106209947D01*
X85156948Y-106119613D01*
X85173003Y-106066686D01*
X85184000Y-105955033D01*
X85184000Y-105955024D01*
X85187676Y-105917701D01*
X85184000Y-105880378D01*
X85184000Y-102357889D01*
X85222815Y-102405185D01*
X85319506Y-102484537D01*
X85429820Y-102543502D01*
X85549518Y-102579812D01*
X85674000Y-102592072D01*
X87138250Y-102589000D01*
X87297000Y-102430250D01*
X87297000Y-100331000D01*
X87551000Y-100331000D01*
X87551000Y-102430250D01*
X87709750Y-102589000D01*
X89174000Y-102592072D01*
X89298482Y-102579812D01*
X89418180Y-102543502D01*
X89528494Y-102484537D01*
X89625185Y-102405185D01*
X89704537Y-102308494D01*
X89763502Y-102198180D01*
X89799812Y-102078482D01*
X89812072Y-101954000D01*
X89809000Y-100489750D01*
X89650250Y-100331000D01*
X87551000Y-100331000D01*
X87297000Y-100331000D01*
X87277000Y-100331000D01*
X87277000Y-100077000D01*
X87297000Y-100077000D01*
X87297000Y-97977750D01*
X87551000Y-97977750D01*
X87551000Y-100077000D01*
X89650250Y-100077000D01*
X89809000Y-99918250D01*
X89812072Y-98454000D01*
X89799812Y-98329518D01*
X89763502Y-98209820D01*
X89704537Y-98099506D01*
X89625185Y-98002815D01*
X89528494Y-97923463D01*
X89469767Y-97892072D01*
X92174000Y-97892072D01*
X92298482Y-97879812D01*
X92418180Y-97843502D01*
X92528494Y-97784537D01*
X92625185Y-97705185D01*
X92704537Y-97608494D01*
X92763502Y-97498180D01*
X92799812Y-97378482D01*
X92812072Y-97254000D01*
X92812072Y-96264000D01*
X97172135Y-96264000D01*
X97256607Y-96467934D01*
X97479313Y-96801237D01*
X97762763Y-97084687D01*
X98096066Y-97307393D01*
X98466413Y-97460796D01*
X98859570Y-97539000D01*
X99260430Y-97539000D01*
X99653587Y-97460796D01*
X100023934Y-97307393D01*
X100357237Y-97084687D01*
X100640687Y-96801237D01*
X100787706Y-96581207D01*
X119525501Y-115319003D01*
X119549299Y-115348001D01*
X119578297Y-115371799D01*
X119665024Y-115442974D01*
X119797053Y-115513546D01*
X119940314Y-115557003D01*
X120089300Y-115571677D01*
X120126633Y-115568000D01*
X153385928Y-115568000D01*
X153385928Y-117983000D01*
X153398188Y-118107482D01*
X153434498Y-118227180D01*
X153493463Y-118337494D01*
X153572815Y-118434185D01*
X153669506Y-118513537D01*
X153779820Y-118572502D01*
X153899518Y-118608812D01*
X154024000Y-118621072D01*
X161364000Y-118621072D01*
X161488482Y-118608812D01*
X161608180Y-118572502D01*
X161718494Y-118513537D01*
X161815185Y-118434185D01*
X161894537Y-118337494D01*
X161953502Y-118227180D01*
X161989812Y-118107482D01*
X162002072Y-117983000D01*
X162002072Y-111633000D01*
X161989812Y-111508518D01*
X161953502Y-111388820D01*
X161894537Y-111278506D01*
X161815185Y-111181815D01*
X161718494Y-111102463D01*
X161608180Y-111043498D01*
X161488482Y-111007188D01*
X161364000Y-110994928D01*
X154024000Y-110994928D01*
X153899518Y-111007188D01*
X153779820Y-111043498D01*
X153669506Y-111102463D01*
X153572815Y-111181815D01*
X153493463Y-111278506D01*
X153434498Y-111388820D01*
X153398188Y-111508518D01*
X153385928Y-111633000D01*
X153385928Y-114048000D01*
X120404102Y-114048000D01*
X112931662Y-106575560D01*
X143604000Y-106575560D01*
X143604000Y-107040440D01*
X143694694Y-107496387D01*
X143872595Y-107925879D01*
X144130868Y-108312412D01*
X144459588Y-108641132D01*
X144846121Y-108899405D01*
X145275613Y-109077306D01*
X145731560Y-109168000D01*
X146196440Y-109168000D01*
X146652387Y-109077306D01*
X147081879Y-108899405D01*
X147468412Y-108641132D01*
X147797132Y-108312412D01*
X148055405Y-107925879D01*
X148233306Y-107496387D01*
X148324000Y-107040440D01*
X148324000Y-106575560D01*
X148233306Y-106119613D01*
X148055405Y-105690121D01*
X147797132Y-105303588D01*
X147468412Y-104974868D01*
X147081879Y-104716595D01*
X146652387Y-104538694D01*
X146196440Y-104448000D01*
X145731560Y-104448000D01*
X145275613Y-104538694D01*
X144846121Y-104716595D01*
X144459588Y-104974868D01*
X144130868Y-105303588D01*
X143872595Y-105690121D01*
X143694694Y-106119613D01*
X143604000Y-106575560D01*
X112931662Y-106575560D01*
X101349104Y-94993003D01*
X101325301Y-94963999D01*
X101209576Y-94869026D01*
X101077547Y-94798454D01*
X100955026Y-94761288D01*
X100863393Y-94540066D01*
X100640687Y-94206763D01*
X100357237Y-93923313D01*
X100023934Y-93700607D01*
X99653587Y-93547204D01*
X99260430Y-93469000D01*
X98859570Y-93469000D01*
X98466413Y-93547204D01*
X98096066Y-93700607D01*
X97762763Y-93923313D01*
X97479313Y-94206763D01*
X97256607Y-94540066D01*
X97172135Y-94744000D01*
X92812072Y-94744000D01*
X92812072Y-93754000D01*
X92799812Y-93629518D01*
X92763502Y-93509820D01*
X92704537Y-93399506D01*
X92625185Y-93302815D01*
X92528494Y-93223463D01*
X92418180Y-93164498D01*
X92298482Y-93128188D01*
X92174000Y-93115928D01*
X88674000Y-93115928D01*
X88549518Y-93128188D01*
X88429820Y-93164498D01*
X88319506Y-93223463D01*
X88222815Y-93302815D01*
X88143463Y-93399506D01*
X88084498Y-93509820D01*
X88048188Y-93629518D01*
X88035928Y-93754000D01*
X88035928Y-97254000D01*
X88048188Y-97378482D01*
X88084498Y-97498180D01*
X88143463Y-97608494D01*
X88222815Y-97705185D01*
X88319506Y-97784537D01*
X88381345Y-97817591D01*
X87709750Y-97819000D01*
X87551000Y-97977750D01*
X87297000Y-97977750D01*
X87138250Y-97819000D01*
X85674000Y-97815928D01*
X85576105Y-97825570D01*
X85705192Y-97786411D01*
X85945171Y-97658140D01*
X86155515Y-97485515D01*
X86328140Y-97275171D01*
X86456411Y-97035192D01*
X86535401Y-96774799D01*
X86562072Y-96504000D01*
X86562072Y-94504000D01*
X86535401Y-94233201D01*
X86456411Y-93972808D01*
X86328140Y-93732829D01*
X86155515Y-93522485D01*
X85945171Y-93349860D01*
X85705192Y-93221589D01*
X85444799Y-93142599D01*
X85174000Y-93115928D01*
X83674000Y-93115928D01*
X83403201Y-93142599D01*
X83142808Y-93221589D01*
X82902829Y-93349860D01*
X82692485Y-93522485D01*
X82519860Y-93732829D01*
X82391589Y-93972808D01*
X82312599Y-94233201D01*
X82285928Y-94504000D01*
X82285928Y-96504000D01*
X82312599Y-96774799D01*
X82391589Y-97035192D01*
X82519860Y-97275171D01*
X82692485Y-97485515D01*
X82902829Y-97658140D01*
X83142808Y-97786411D01*
X83403201Y-97865401D01*
X83664001Y-97891087D01*
X83664000Y-105602898D01*
X78522998Y-110743901D01*
X78494000Y-110767699D01*
X78470202Y-110796697D01*
X78470201Y-110796698D01*
X78399026Y-110883424D01*
X78339425Y-110994928D01*
X75364000Y-110994928D01*
X75239518Y-111007188D01*
X75119820Y-111043498D01*
X75009506Y-111102463D01*
X74912815Y-111181815D01*
X74833463Y-111278506D01*
X74774498Y-111388820D01*
X74738188Y-111508518D01*
X74725928Y-111633000D01*
X74370000Y-111633000D01*
X74370000Y-82256000D01*
X78646815Y-82256000D01*
X78675487Y-82547111D01*
X78760401Y-82827034D01*
X78898294Y-83085014D01*
X79083866Y-83311134D01*
X79309986Y-83496706D01*
X79327374Y-83506000D01*
X79309986Y-83515294D01*
X79083866Y-83700866D01*
X78898294Y-83926986D01*
X78760401Y-84184966D01*
X78675487Y-84464889D01*
X78646815Y-84756000D01*
X78675487Y-85047111D01*
X78760401Y-85327034D01*
X78898294Y-85585014D01*
X79083866Y-85811134D01*
X79309986Y-85996706D01*
X79524412Y-86111319D01*
X79558454Y-86223546D01*
X79629026Y-86355576D01*
X79700201Y-86442302D01*
X79724000Y-86471301D01*
X79752998Y-86495099D01*
X85005700Y-91747802D01*
X85029499Y-91776801D01*
X85058497Y-91800599D01*
X85145223Y-91871774D01*
X85256584Y-91931298D01*
X85277253Y-91942346D01*
X85420514Y-91985803D01*
X85532167Y-91996800D01*
X85532176Y-91996800D01*
X85569499Y-92000476D01*
X85606822Y-91996800D01*
X101925799Y-91996800D01*
X111405005Y-101476008D01*
X111428799Y-101505001D01*
X111457792Y-101528795D01*
X111457796Y-101528799D01*
X111528485Y-101586811D01*
X111544524Y-101599974D01*
X111676553Y-101670546D01*
X111819814Y-101714003D01*
X111931467Y-101725000D01*
X111931476Y-101725000D01*
X111968799Y-101728676D01*
X112006122Y-101725000D01*
X141910957Y-101725000D01*
X142014363Y-101879759D01*
X142214241Y-102079637D01*
X142449273Y-102236680D01*
X142710426Y-102344853D01*
X142987665Y-102400000D01*
X143270335Y-102400000D01*
X143547574Y-102344853D01*
X143808727Y-102236680D01*
X144043759Y-102079637D01*
X144243637Y-101879759D01*
X144400680Y-101644727D01*
X144508853Y-101383574D01*
X144564000Y-101106335D01*
X144564000Y-100823665D01*
X151854000Y-100823665D01*
X151854000Y-101106335D01*
X151909147Y-101383574D01*
X152017320Y-101644727D01*
X152174363Y-101879759D01*
X152374241Y-102079637D01*
X152609273Y-102236680D01*
X152870426Y-102344853D01*
X153147665Y-102400000D01*
X153430335Y-102400000D01*
X153707574Y-102344853D01*
X153968727Y-102236680D01*
X154203759Y-102079637D01*
X154403637Y-101879759D01*
X154560680Y-101644727D01*
X154668853Y-101383574D01*
X154724000Y-101106335D01*
X154724000Y-100823665D01*
X154668853Y-100546426D01*
X154560680Y-100285273D01*
X154403637Y-100050241D01*
X154203759Y-99850363D01*
X153968727Y-99693320D01*
X153707574Y-99585147D01*
X153430335Y-99530000D01*
X153147665Y-99530000D01*
X152870426Y-99585147D01*
X152609273Y-99693320D01*
X152374241Y-99850363D01*
X152174363Y-100050241D01*
X152017320Y-100285273D01*
X151909147Y-100546426D01*
X151854000Y-100823665D01*
X144564000Y-100823665D01*
X144508853Y-100546426D01*
X144400680Y-100285273D01*
X144243637Y-100050241D01*
X144043759Y-99850363D01*
X143808727Y-99693320D01*
X143547574Y-99585147D01*
X143270335Y-99530000D01*
X142987665Y-99530000D01*
X142710426Y-99585147D01*
X142449273Y-99693320D01*
X142214241Y-99850363D01*
X142014363Y-100050241D01*
X141910957Y-100205000D01*
X112283603Y-100205000D01*
X111115305Y-99036702D01*
X121995903Y-99036702D01*
X122067486Y-99280671D01*
X122322996Y-99401571D01*
X122597184Y-99470300D01*
X122879512Y-99484217D01*
X123159130Y-99442787D01*
X123425292Y-99347603D01*
X123550514Y-99280671D01*
X123622097Y-99036702D01*
X122809000Y-98223605D01*
X121995903Y-99036702D01*
X111115305Y-99036702D01*
X110068002Y-97989400D01*
X121374950Y-97989400D01*
X121368783Y-98114512D01*
X121410213Y-98394130D01*
X121505397Y-98660292D01*
X121572329Y-98785514D01*
X121816298Y-98857097D01*
X122629395Y-98044000D01*
X122615253Y-98029858D01*
X122794858Y-97850253D01*
X122809000Y-97864395D01*
X122823143Y-97850253D01*
X123002748Y-98029858D01*
X122988605Y-98044000D01*
X123801702Y-98857097D01*
X124045671Y-98785514D01*
X124166571Y-98530004D01*
X124235300Y-98255816D01*
X124249217Y-97973488D01*
X124207787Y-97693870D01*
X124202326Y-97678600D01*
X131578570Y-97678600D01*
X131534000Y-97902665D01*
X131534000Y-98185335D01*
X131589147Y-98462574D01*
X131697320Y-98723727D01*
X131854363Y-98958759D01*
X132054241Y-99158637D01*
X132289273Y-99315680D01*
X132550426Y-99423853D01*
X132827665Y-99479000D01*
X133110335Y-99479000D01*
X133387574Y-99423853D01*
X133648727Y-99315680D01*
X133883759Y-99158637D01*
X134083637Y-98958759D01*
X134240680Y-98723727D01*
X134348853Y-98462574D01*
X134404000Y-98185335D01*
X134404000Y-97902665D01*
X134359430Y-97678600D01*
X141792650Y-97678600D01*
X141857320Y-97834727D01*
X142014363Y-98069759D01*
X142214241Y-98269637D01*
X142449273Y-98426680D01*
X142710426Y-98534853D01*
X142987665Y-98590000D01*
X143270335Y-98590000D01*
X143547574Y-98534853D01*
X143808727Y-98426680D01*
X144043759Y-98269637D01*
X144243637Y-98069759D01*
X144400680Y-97834727D01*
X144508853Y-97573574D01*
X144564000Y-97296335D01*
X144564000Y-97013665D01*
X151854000Y-97013665D01*
X151854000Y-97296335D01*
X151909147Y-97573574D01*
X152017320Y-97834727D01*
X152174363Y-98069759D01*
X152374241Y-98269637D01*
X152609273Y-98426680D01*
X152870426Y-98534853D01*
X153147665Y-98590000D01*
X153430335Y-98590000D01*
X153707574Y-98534853D01*
X153968727Y-98426680D01*
X154203759Y-98269637D01*
X154403637Y-98069759D01*
X154560680Y-97834727D01*
X154668853Y-97573574D01*
X154724000Y-97296335D01*
X154724000Y-97013665D01*
X154668853Y-96736426D01*
X154560680Y-96475273D01*
X154403637Y-96240241D01*
X154203759Y-96040363D01*
X153968727Y-95883320D01*
X153707574Y-95775147D01*
X153430335Y-95720000D01*
X153147665Y-95720000D01*
X152870426Y-95775147D01*
X152609273Y-95883320D01*
X152374241Y-96040363D01*
X152174363Y-96240241D01*
X152017320Y-96475273D01*
X151909147Y-96736426D01*
X151854000Y-97013665D01*
X144564000Y-97013665D01*
X144508853Y-96736426D01*
X144400680Y-96475273D01*
X144243637Y-96240241D01*
X144043759Y-96040363D01*
X143808727Y-95883320D01*
X143547574Y-95775147D01*
X143270335Y-95720000D01*
X142987665Y-95720000D01*
X142710426Y-95775147D01*
X142449273Y-95883320D01*
X142214241Y-96040363D01*
X142096004Y-96158600D01*
X122029733Y-96158600D01*
X121992400Y-96154923D01*
X121955067Y-96158600D01*
X121843414Y-96169597D01*
X121700153Y-96213054D01*
X121568124Y-96283626D01*
X121452399Y-96378599D01*
X121428596Y-96407603D01*
X121366799Y-96469400D01*
X113798072Y-96469400D01*
X113798072Y-96198575D01*
X113909576Y-96138974D01*
X114025301Y-96044001D01*
X114049104Y-96014997D01*
X116147399Y-93916702D01*
X130504903Y-93916702D01*
X130576486Y-94160671D01*
X130831996Y-94281571D01*
X131106184Y-94350300D01*
X131388512Y-94364217D01*
X131668130Y-94322787D01*
X131934292Y-94227603D01*
X132059514Y-94160671D01*
X132131097Y-93916702D01*
X131318000Y-93103605D01*
X130504903Y-93916702D01*
X116147399Y-93916702D01*
X117069589Y-92994512D01*
X129877783Y-92994512D01*
X129919213Y-93274130D01*
X130014397Y-93540292D01*
X130081329Y-93665514D01*
X130325298Y-93737097D01*
X131138395Y-92924000D01*
X131497605Y-92924000D01*
X132310702Y-93737097D01*
X132554671Y-93665514D01*
X132675571Y-93410004D01*
X132744300Y-93135816D01*
X132758217Y-92853488D01*
X132716787Y-92573870D01*
X132708609Y-92551000D01*
X138485000Y-92551000D01*
X138485000Y-93251000D01*
X138532546Y-93479742D01*
X138623804Y-93694813D01*
X138755266Y-93887948D01*
X138921881Y-94051725D01*
X139117246Y-94179850D01*
X139333853Y-94267399D01*
X139360256Y-94267803D01*
X139543000Y-94142361D01*
X139543000Y-92551000D01*
X138485000Y-92551000D01*
X132708609Y-92551000D01*
X132621603Y-92307708D01*
X132554671Y-92182486D01*
X132310702Y-92110903D01*
X131497605Y-92924000D01*
X131138395Y-92924000D01*
X130325298Y-92110903D01*
X130081329Y-92182486D01*
X129960429Y-92437996D01*
X129891700Y-92712184D01*
X129877783Y-92994512D01*
X117069589Y-92994512D01*
X118880102Y-91184000D01*
X129879928Y-91184000D01*
X129879928Y-91224000D01*
X129892188Y-91348482D01*
X129928498Y-91468180D01*
X129987463Y-91578494D01*
X130066815Y-91675185D01*
X130163506Y-91754537D01*
X130273820Y-91813502D01*
X130393518Y-91849812D01*
X130518000Y-91862072D01*
X130525215Y-91862072D01*
X130504903Y-91931298D01*
X131318000Y-92744395D01*
X132131097Y-91931298D01*
X132110785Y-91862072D01*
X132118000Y-91862072D01*
X132242482Y-91849812D01*
X132362180Y-91813502D01*
X132472494Y-91754537D01*
X132569185Y-91675185D01*
X132648537Y-91578494D01*
X132707502Y-91468180D01*
X132743812Y-91348482D01*
X132756072Y-91224000D01*
X132756072Y-89624000D01*
X132743812Y-89499518D01*
X132707502Y-89379820D01*
X132648537Y-89269506D01*
X132569185Y-89172815D01*
X132472494Y-89093463D01*
X132362180Y-89034498D01*
X132242482Y-88998188D01*
X132118000Y-88985928D01*
X130518000Y-88985928D01*
X130393518Y-88998188D01*
X130273820Y-89034498D01*
X130163506Y-89093463D01*
X130066815Y-89172815D01*
X129987463Y-89269506D01*
X129928498Y-89379820D01*
X129892188Y-89499518D01*
X129879928Y-89624000D01*
X129879928Y-89664000D01*
X118602623Y-89664000D01*
X118565300Y-89660324D01*
X118527977Y-89664000D01*
X118527967Y-89664000D01*
X118416314Y-89674997D01*
X118287736Y-89714000D01*
X118273053Y-89718454D01*
X118141023Y-89789026D01*
X118057383Y-89857668D01*
X118025299Y-89883999D01*
X118001501Y-89912997D01*
X113798072Y-94116427D01*
X113798072Y-94104000D01*
X113785812Y-93979518D01*
X113749502Y-93859820D01*
X113690537Y-93749506D01*
X113611185Y-93652815D01*
X113514494Y-93573463D01*
X113404180Y-93514498D01*
X113284482Y-93478188D01*
X113160000Y-93465928D01*
X110360000Y-93465928D01*
X110235518Y-93478188D01*
X110115820Y-93514498D01*
X110005506Y-93573463D01*
X109908815Y-93652815D01*
X109829463Y-93749506D01*
X109770498Y-93859820D01*
X109734188Y-93979518D01*
X109721928Y-94104000D01*
X109721928Y-96469400D01*
X109607902Y-96469400D01*
X98558804Y-85420303D01*
X98535001Y-85391299D01*
X98419276Y-85296326D01*
X98287247Y-85225754D01*
X98143986Y-85182297D01*
X98032333Y-85171300D01*
X98032322Y-85171300D01*
X97995000Y-85167624D01*
X97957678Y-85171300D01*
X84254102Y-85171300D01*
X83712215Y-84629413D01*
X90738192Y-84629413D01*
X90833956Y-84893814D01*
X91123571Y-85034704D01*
X91435108Y-85116384D01*
X91756595Y-85135718D01*
X92075675Y-85091961D01*
X92380088Y-84986795D01*
X92554044Y-84893814D01*
X92649808Y-84629413D01*
X97238192Y-84629413D01*
X97333956Y-84893814D01*
X97623571Y-85034704D01*
X97935108Y-85116384D01*
X98256595Y-85135718D01*
X98575675Y-85091961D01*
X98880088Y-84986795D01*
X99054044Y-84893814D01*
X99149808Y-84629413D01*
X99022808Y-84502413D01*
X103438192Y-84502413D01*
X103533956Y-84766814D01*
X103823571Y-84907704D01*
X104135108Y-84989384D01*
X104456595Y-85008718D01*
X104775675Y-84964961D01*
X105080088Y-84859795D01*
X105254044Y-84766814D01*
X105349808Y-84502413D01*
X104394000Y-83546605D01*
X103438192Y-84502413D01*
X99022808Y-84502413D01*
X98194000Y-83673605D01*
X97238192Y-84629413D01*
X92649808Y-84629413D01*
X91694000Y-83673605D01*
X90738192Y-84629413D01*
X83712215Y-84629413D01*
X82639397Y-83556595D01*
X90052282Y-83556595D01*
X90096039Y-83875675D01*
X90201205Y-84180088D01*
X90294186Y-84354044D01*
X90558587Y-84449808D01*
X91514395Y-83494000D01*
X91873605Y-83494000D01*
X92829413Y-84449808D01*
X93093814Y-84354044D01*
X93234704Y-84064429D01*
X93316384Y-83752892D01*
X93328189Y-83556595D01*
X96552282Y-83556595D01*
X96596039Y-83875675D01*
X96701205Y-84180088D01*
X96794186Y-84354044D01*
X97058587Y-84449808D01*
X98014395Y-83494000D01*
X98373605Y-83494000D01*
X99329413Y-84449808D01*
X99593814Y-84354044D01*
X99734704Y-84064429D01*
X99816384Y-83752892D01*
X99835718Y-83431405D01*
X99835470Y-83429595D01*
X102752282Y-83429595D01*
X102796039Y-83748675D01*
X102901205Y-84053088D01*
X102994186Y-84227044D01*
X103258587Y-84322808D01*
X104214395Y-83367000D01*
X104573605Y-83367000D01*
X105529413Y-84322808D01*
X105793814Y-84227044D01*
X105934704Y-83937429D01*
X106016384Y-83625892D01*
X106028189Y-83429595D01*
X109252282Y-83429595D01*
X109296039Y-83748675D01*
X109401205Y-84053088D01*
X109494186Y-84227044D01*
X109758587Y-84322808D01*
X110714395Y-83367000D01*
X109758587Y-82411192D01*
X109494186Y-82506956D01*
X109353296Y-82796571D01*
X109271616Y-83108108D01*
X109252282Y-83429595D01*
X106028189Y-83429595D01*
X106035718Y-83304405D01*
X105991961Y-82985325D01*
X105886795Y-82680912D01*
X105793814Y-82506956D01*
X105529413Y-82411192D01*
X104573605Y-83367000D01*
X104214395Y-83367000D01*
X103258587Y-82411192D01*
X102994186Y-82506956D01*
X102853296Y-82796571D01*
X102771616Y-83108108D01*
X102752282Y-83429595D01*
X99835470Y-83429595D01*
X99791961Y-83112325D01*
X99686795Y-82807912D01*
X99593814Y-82633956D01*
X99329413Y-82538192D01*
X98373605Y-83494000D01*
X98014395Y-83494000D01*
X97058587Y-82538192D01*
X96794186Y-82633956D01*
X96653296Y-82923571D01*
X96571616Y-83235108D01*
X96552282Y-83556595D01*
X93328189Y-83556595D01*
X93335718Y-83431405D01*
X93291961Y-83112325D01*
X93186795Y-82807912D01*
X93093814Y-82633956D01*
X92829413Y-82538192D01*
X91873605Y-83494000D01*
X91514395Y-83494000D01*
X90558587Y-82538192D01*
X90294186Y-82633956D01*
X90153296Y-82923571D01*
X90071616Y-83235108D01*
X90052282Y-83556595D01*
X82639397Y-83556595D01*
X82003104Y-82920303D01*
X81979301Y-82891299D01*
X81863576Y-82796326D01*
X81789005Y-82756467D01*
X81852513Y-82547111D01*
X81871081Y-82358587D01*
X90738192Y-82358587D01*
X91694000Y-83314395D01*
X92649808Y-82358587D01*
X97238192Y-82358587D01*
X98194000Y-83314395D01*
X99149808Y-82358587D01*
X99103810Y-82231587D01*
X103438192Y-82231587D01*
X104394000Y-83187395D01*
X105349808Y-82231587D01*
X109938192Y-82231587D01*
X110894000Y-83187395D01*
X111849808Y-82231587D01*
X111754044Y-81967186D01*
X111464429Y-81826296D01*
X111152892Y-81744616D01*
X110831405Y-81725282D01*
X110512325Y-81769039D01*
X110207912Y-81874205D01*
X110033956Y-81967186D01*
X109938192Y-82231587D01*
X105349808Y-82231587D01*
X105254044Y-81967186D01*
X104964429Y-81826296D01*
X104652892Y-81744616D01*
X104331405Y-81725282D01*
X104012325Y-81769039D01*
X103707912Y-81874205D01*
X103533956Y-81967186D01*
X103438192Y-82231587D01*
X99103810Y-82231587D01*
X99054044Y-82094186D01*
X98764429Y-81953296D01*
X98452892Y-81871616D01*
X98131405Y-81852282D01*
X97812325Y-81896039D01*
X97507912Y-82001205D01*
X97333956Y-82094186D01*
X97238192Y-82358587D01*
X92649808Y-82358587D01*
X92554044Y-82094186D01*
X92264429Y-81953296D01*
X91952892Y-81871616D01*
X91631405Y-81852282D01*
X91312325Y-81896039D01*
X91007912Y-82001205D01*
X90833956Y-82094186D01*
X90738192Y-82358587D01*
X81871081Y-82358587D01*
X81881185Y-82256000D01*
X81852513Y-81964889D01*
X81767599Y-81684966D01*
X81629706Y-81426986D01*
X81448392Y-81206055D01*
X81483180Y-81195502D01*
X81593494Y-81136537D01*
X81690185Y-81057185D01*
X81769537Y-80960494D01*
X81828502Y-80850180D01*
X81864812Y-80730482D01*
X81877072Y-80606000D01*
X81874000Y-80041750D01*
X81715250Y-79883000D01*
X80391000Y-79883000D01*
X80391000Y-79903000D01*
X80137000Y-79903000D01*
X80137000Y-79883000D01*
X78812750Y-79883000D01*
X78654000Y-80041750D01*
X78650928Y-80606000D01*
X78663188Y-80730482D01*
X78699498Y-80850180D01*
X78758463Y-80960494D01*
X78837815Y-81057185D01*
X78934506Y-81136537D01*
X79044820Y-81195502D01*
X79079608Y-81206055D01*
X78898294Y-81426986D01*
X78760401Y-81684966D01*
X78675487Y-81964889D01*
X78646815Y-82256000D01*
X74370000Y-82256000D01*
X74370000Y-78906000D01*
X78650928Y-78906000D01*
X78654000Y-79470250D01*
X78812750Y-79629000D01*
X80137000Y-79629000D01*
X80137000Y-78429750D01*
X80391000Y-78429750D01*
X80391000Y-79629000D01*
X81715250Y-79629000D01*
X81874000Y-79470250D01*
X81877072Y-78906000D01*
X81869880Y-78832967D01*
X90059000Y-78832967D01*
X90059000Y-79155033D01*
X90121832Y-79470912D01*
X90245082Y-79768463D01*
X90424013Y-80036252D01*
X90651748Y-80263987D01*
X90919537Y-80442918D01*
X91217088Y-80566168D01*
X91532967Y-80629000D01*
X91855033Y-80629000D01*
X92170912Y-80566168D01*
X92468463Y-80442918D01*
X92736252Y-80263987D01*
X92963987Y-80036252D01*
X93142918Y-79768463D01*
X93148909Y-79754000D01*
X96739091Y-79754000D01*
X96745082Y-79768463D01*
X96924013Y-80036252D01*
X97151748Y-80263987D01*
X97419537Y-80442918D01*
X97717088Y-80566168D01*
X98032967Y-80629000D01*
X98355033Y-80629000D01*
X98670912Y-80566168D01*
X98968463Y-80442918D01*
X99236252Y-80263987D01*
X99463987Y-80036252D01*
X99642918Y-79768463D01*
X99766168Y-79470912D01*
X99829000Y-79155033D01*
X99829000Y-78832967D01*
X99803739Y-78705967D01*
X102759000Y-78705967D01*
X102759000Y-79028033D01*
X102821832Y-79343912D01*
X102945082Y-79641463D01*
X103124013Y-79909252D01*
X103351748Y-80136987D01*
X103619537Y-80315918D01*
X103917088Y-80439168D01*
X104232967Y-80502000D01*
X104555033Y-80502000D01*
X104870912Y-80439168D01*
X105168463Y-80315918D01*
X105436252Y-80136987D01*
X105663987Y-79909252D01*
X105842918Y-79641463D01*
X105848909Y-79627000D01*
X109439091Y-79627000D01*
X109445082Y-79641463D01*
X109624013Y-79909252D01*
X109851748Y-80136987D01*
X110119537Y-80315918D01*
X110417088Y-80439168D01*
X110732967Y-80502000D01*
X111055033Y-80502000D01*
X111370912Y-80439168D01*
X111668463Y-80315918D01*
X111936252Y-80136987D01*
X112163987Y-79909252D01*
X112342918Y-79641463D01*
X112348909Y-79627000D01*
X118320899Y-79627000D01*
X121119901Y-82426003D01*
X121143699Y-82455001D01*
X121172697Y-82478799D01*
X121259423Y-82549974D01*
X121379031Y-82613906D01*
X121391453Y-82620546D01*
X121534714Y-82664003D01*
X121587053Y-82669158D01*
X121650224Y-82763700D01*
X113109633Y-82763700D01*
X113072300Y-82760023D01*
X113034967Y-82763700D01*
X112923314Y-82774697D01*
X112780053Y-82818154D01*
X112648024Y-82888726D01*
X112532299Y-82983699D01*
X112508501Y-83012697D01*
X112497257Y-83023941D01*
X112491961Y-82985325D01*
X112386795Y-82680912D01*
X112293814Y-82506956D01*
X112029413Y-82411192D01*
X111073605Y-83367000D01*
X111087748Y-83381143D01*
X110908143Y-83560748D01*
X110894000Y-83546605D01*
X109938192Y-84502413D01*
X110033956Y-84766814D01*
X110323571Y-84907704D01*
X110553271Y-84967928D01*
X107680844Y-87840355D01*
X107573486Y-87819000D01*
X107310514Y-87819000D01*
X107052595Y-87870304D01*
X106809641Y-87970939D01*
X106590987Y-88117038D01*
X106405038Y-88302987D01*
X106258939Y-88521641D01*
X106158304Y-88764595D01*
X106107000Y-89022514D01*
X106107000Y-89285486D01*
X106158304Y-89543405D01*
X106258939Y-89786359D01*
X106405038Y-90005013D01*
X106590987Y-90190962D01*
X106809641Y-90337061D01*
X107052595Y-90437696D01*
X107310514Y-90489000D01*
X107573486Y-90489000D01*
X107831405Y-90437696D01*
X108074359Y-90337061D01*
X108293013Y-90190962D01*
X108478962Y-90005013D01*
X108625061Y-89786359D01*
X108712000Y-89576470D01*
X108798939Y-89786359D01*
X108945038Y-90005013D01*
X109130987Y-90190962D01*
X109349641Y-90337061D01*
X109592595Y-90437696D01*
X109850514Y-90489000D01*
X110113486Y-90489000D01*
X110371405Y-90437696D01*
X110614359Y-90337061D01*
X110833013Y-90190962D01*
X111018962Y-90005013D01*
X111082250Y-89910295D01*
X111156286Y-89903003D01*
X111299547Y-89859546D01*
X111431576Y-89788974D01*
X111547301Y-89694001D01*
X111571104Y-89664997D01*
X116282802Y-84953300D01*
X121683633Y-84953300D01*
X121537320Y-85172273D01*
X121429147Y-85433426D01*
X121374000Y-85710665D01*
X121374000Y-85993335D01*
X121429147Y-86270574D01*
X121537320Y-86531727D01*
X121694363Y-86766759D01*
X121894241Y-86966637D01*
X122129273Y-87123680D01*
X122390426Y-87231853D01*
X122667665Y-87287000D01*
X122950335Y-87287000D01*
X123227574Y-87231853D01*
X123488727Y-87123680D01*
X123723759Y-86966637D01*
X123923637Y-86766759D01*
X124080680Y-86531727D01*
X124188853Y-86270574D01*
X124244000Y-85993335D01*
X124244000Y-85710665D01*
X124188853Y-85433426D01*
X124080680Y-85172273D01*
X123934367Y-84953300D01*
X131843633Y-84953300D01*
X131697320Y-85172273D01*
X131589147Y-85433426D01*
X131534000Y-85710665D01*
X131534000Y-85993335D01*
X131589147Y-86270574D01*
X131697320Y-86531727D01*
X131854363Y-86766759D01*
X132054241Y-86966637D01*
X132289273Y-87123680D01*
X132550426Y-87231853D01*
X132827665Y-87287000D01*
X133110335Y-87287000D01*
X133292886Y-87250688D01*
X135267200Y-89225002D01*
X135290999Y-89254001D01*
X135406724Y-89348974D01*
X135538753Y-89419546D01*
X135682014Y-89463003D01*
X135793667Y-89474000D01*
X135793676Y-89474000D01*
X135830999Y-89477676D01*
X135868322Y-89474000D01*
X136104483Y-89474000D01*
X136102147Y-89481700D01*
X136079267Y-89714000D01*
X136102147Y-89946300D01*
X136169906Y-90169674D01*
X136279942Y-90375536D01*
X136428025Y-90555975D01*
X136608464Y-90704058D01*
X136814326Y-90814094D01*
X137037700Y-90881853D01*
X137211793Y-90899000D01*
X138728207Y-90899000D01*
X138827306Y-90889239D01*
X138755266Y-90960052D01*
X138623804Y-91153187D01*
X138532546Y-91368258D01*
X138485000Y-91597000D01*
X138485000Y-92297000D01*
X139543000Y-92297000D01*
X139543000Y-90705639D01*
X139426801Y-90625876D01*
X139511975Y-90555975D01*
X139660058Y-90375536D01*
X139770094Y-90169674D01*
X139837853Y-89946300D01*
X139860733Y-89714000D01*
X139837853Y-89481700D01*
X139835517Y-89474000D01*
X143220499Y-89474000D01*
X144738099Y-90991601D01*
X144679943Y-91062464D01*
X144670000Y-91081065D01*
X144660058Y-91062464D01*
X144511975Y-90882025D01*
X144331536Y-90733942D01*
X144125674Y-90623906D01*
X143902300Y-90556147D01*
X143670000Y-90533267D01*
X143437701Y-90556147D01*
X143214327Y-90623906D01*
X143008465Y-90733942D01*
X142828026Y-90882025D01*
X142700270Y-91037695D01*
X142660058Y-90962464D01*
X142511975Y-90782025D01*
X142331536Y-90633942D01*
X142125674Y-90523906D01*
X141902300Y-90456147D01*
X141670000Y-90433267D01*
X141437701Y-90456147D01*
X141214327Y-90523906D01*
X141008465Y-90633942D01*
X140828026Y-90782025D01*
X140679943Y-90962464D01*
X140638786Y-91039462D01*
X140584734Y-90960052D01*
X140418119Y-90796275D01*
X140222754Y-90668150D01*
X140006147Y-90580601D01*
X139979744Y-90580197D01*
X139797000Y-90705639D01*
X139797000Y-92297000D01*
X139817000Y-92297000D01*
X139817000Y-92551000D01*
X139797000Y-92551000D01*
X139797000Y-94142361D01*
X139979744Y-94267803D01*
X140006147Y-94267399D01*
X140222754Y-94179850D01*
X140418119Y-94051725D01*
X140584734Y-93887948D01*
X140703211Y-93713889D01*
X140828025Y-93865975D01*
X141008464Y-94014058D01*
X141214326Y-94124094D01*
X141437700Y-94191853D01*
X141670000Y-94214733D01*
X141902299Y-94191853D01*
X142125673Y-94124094D01*
X142331535Y-94014058D01*
X142511975Y-93865975D01*
X142639731Y-93710305D01*
X142679942Y-93785535D01*
X142828025Y-93965975D01*
X143008464Y-94114058D01*
X143214326Y-94224094D01*
X143437700Y-94291853D01*
X143670000Y-94314733D01*
X143902299Y-94291853D01*
X144125673Y-94224094D01*
X144331535Y-94114058D01*
X144511975Y-93965975D01*
X144660058Y-93785536D01*
X144670000Y-93766935D01*
X144679942Y-93785535D01*
X144828025Y-93965975D01*
X145008464Y-94114058D01*
X145214326Y-94224094D01*
X145437700Y-94291853D01*
X145670000Y-94314733D01*
X145902299Y-94291853D01*
X146125673Y-94224094D01*
X146331535Y-94114058D01*
X146511975Y-93965975D01*
X146660058Y-93785536D01*
X146670000Y-93766935D01*
X146679942Y-93785535D01*
X146828025Y-93965975D01*
X147008464Y-94114058D01*
X147214326Y-94224094D01*
X147437700Y-94291853D01*
X147670000Y-94314733D01*
X147902299Y-94291853D01*
X148125673Y-94224094D01*
X148331535Y-94114058D01*
X148511975Y-93965975D01*
X148660058Y-93785536D01*
X148670000Y-93766935D01*
X148679942Y-93785535D01*
X148828025Y-93965975D01*
X149008464Y-94114058D01*
X149214326Y-94224094D01*
X149437700Y-94291853D01*
X149670000Y-94314733D01*
X149902299Y-94291853D01*
X150125673Y-94224094D01*
X150331535Y-94114058D01*
X150511975Y-93965975D01*
X150660058Y-93785536D01*
X150670000Y-93766935D01*
X150679942Y-93785535D01*
X150828025Y-93965975D01*
X151008464Y-94114058D01*
X151214326Y-94224094D01*
X151437700Y-94291853D01*
X151670000Y-94314733D01*
X151902299Y-94291853D01*
X152125673Y-94224094D01*
X152331535Y-94114058D01*
X152511975Y-93965975D01*
X152660058Y-93785536D01*
X152670000Y-93766935D01*
X152679942Y-93785535D01*
X152828025Y-93965975D01*
X153008464Y-94114058D01*
X153214326Y-94224094D01*
X153437700Y-94291853D01*
X153670000Y-94314733D01*
X153902299Y-94291853D01*
X154125673Y-94224094D01*
X154331535Y-94114058D01*
X154511975Y-93965975D01*
X154660058Y-93785536D01*
X154770094Y-93579674D01*
X154837853Y-93356300D01*
X154855000Y-93182207D01*
X154855000Y-91665793D01*
X154837853Y-91491700D01*
X154770094Y-91268326D01*
X154660058Y-91062464D01*
X154511975Y-90882025D01*
X154331536Y-90733942D01*
X154125674Y-90623906D01*
X153902300Y-90556147D01*
X153670000Y-90533267D01*
X153437701Y-90556147D01*
X153214327Y-90623906D01*
X153008465Y-90733942D01*
X152828026Y-90882025D01*
X152679943Y-91062464D01*
X152670000Y-91081065D01*
X152660058Y-91062464D01*
X152511975Y-90882025D01*
X152331536Y-90733942D01*
X152125674Y-90623906D01*
X151902300Y-90556147D01*
X151670000Y-90533267D01*
X151437701Y-90556147D01*
X151214327Y-90623906D01*
X151008465Y-90733942D01*
X150828026Y-90882025D01*
X150679943Y-91062464D01*
X150670000Y-91081065D01*
X150660058Y-91062464D01*
X150511975Y-90882025D01*
X150331536Y-90733942D01*
X150125674Y-90623906D01*
X149902300Y-90556147D01*
X149670000Y-90533267D01*
X149437701Y-90556147D01*
X149214327Y-90623906D01*
X149008465Y-90733942D01*
X148828026Y-90882025D01*
X148679943Y-91062464D01*
X148670000Y-91081065D01*
X148660058Y-91062464D01*
X148511975Y-90882025D01*
X148331536Y-90733942D01*
X148125674Y-90623906D01*
X147902300Y-90556147D01*
X147670000Y-90533267D01*
X147437701Y-90556147D01*
X147214327Y-90623906D01*
X147008465Y-90733942D01*
X146828026Y-90882025D01*
X146679943Y-91062464D01*
X146670000Y-91081065D01*
X146660058Y-91062464D01*
X146511975Y-90882025D01*
X146430362Y-90815046D01*
X146430000Y-90811375D01*
X146430000Y-90811367D01*
X146419003Y-90699714D01*
X146375546Y-90556453D01*
X146304974Y-90424424D01*
X146210001Y-90308699D01*
X146181003Y-90284901D01*
X144099104Y-88203003D01*
X144075301Y-88173999D01*
X143959576Y-88079026D01*
X143827547Y-88008454D01*
X143684286Y-87964997D01*
X143572633Y-87954000D01*
X143572622Y-87954000D01*
X143535300Y-87950324D01*
X143497978Y-87954000D01*
X139835517Y-87954000D01*
X139837853Y-87946300D01*
X139860733Y-87714000D01*
X139837853Y-87481700D01*
X139770094Y-87258326D01*
X139660058Y-87052464D01*
X139511975Y-86872025D01*
X139331536Y-86723942D01*
X139312936Y-86714000D01*
X139331536Y-86704058D01*
X139511975Y-86555975D01*
X139660058Y-86375536D01*
X139770094Y-86169674D01*
X139837853Y-85946300D01*
X139860733Y-85714000D01*
X139837853Y-85481700D01*
X139770094Y-85258326D01*
X139660058Y-85052464D01*
X139511975Y-84872025D01*
X139331536Y-84723942D01*
X139312936Y-84714000D01*
X139331536Y-84704058D01*
X139511975Y-84555975D01*
X139660058Y-84375536D01*
X139770094Y-84169674D01*
X139837853Y-83946300D01*
X139860733Y-83714000D01*
X139837853Y-83481700D01*
X139835517Y-83474000D01*
X143517978Y-83474000D01*
X143555300Y-83477676D01*
X143592622Y-83474000D01*
X143592633Y-83474000D01*
X143704286Y-83463003D01*
X143847547Y-83419546D01*
X143979576Y-83348974D01*
X144095301Y-83254001D01*
X144119104Y-83224997D01*
X148181003Y-79163099D01*
X148210001Y-79139301D01*
X148304974Y-79023576D01*
X148375546Y-78891547D01*
X148419003Y-78748286D01*
X148430000Y-78636633D01*
X148430362Y-78632953D01*
X148511975Y-78565975D01*
X148660058Y-78385536D01*
X148670000Y-78366935D01*
X148679942Y-78385535D01*
X148828025Y-78565975D01*
X149008464Y-78714058D01*
X149214326Y-78824094D01*
X149437700Y-78891853D01*
X149670000Y-78914733D01*
X149902299Y-78891853D01*
X150125673Y-78824094D01*
X150331535Y-78714058D01*
X150511975Y-78565975D01*
X150660058Y-78385536D01*
X150670000Y-78366935D01*
X150679942Y-78385535D01*
X150828025Y-78565975D01*
X151008464Y-78714058D01*
X151214326Y-78824094D01*
X151437700Y-78891853D01*
X151670000Y-78914733D01*
X151902299Y-78891853D01*
X152125673Y-78824094D01*
X152331535Y-78714058D01*
X152511975Y-78565975D01*
X152538663Y-78533456D01*
X152589463Y-78628494D01*
X152668815Y-78725185D01*
X152765506Y-78804537D01*
X152875820Y-78863502D01*
X152995518Y-78899812D01*
X153120000Y-78912072D01*
X154220000Y-78912072D01*
X154344482Y-78899812D01*
X154464180Y-78863502D01*
X154574494Y-78804537D01*
X154671185Y-78725185D01*
X154750537Y-78628494D01*
X154809502Y-78518180D01*
X154845812Y-78398482D01*
X154858072Y-78274000D01*
X154858072Y-75774000D01*
X154845812Y-75649518D01*
X154809502Y-75529820D01*
X154750537Y-75419506D01*
X154671185Y-75322815D01*
X154574494Y-75243463D01*
X154464180Y-75184498D01*
X154344482Y-75148188D01*
X154220000Y-75135928D01*
X153120000Y-75135928D01*
X152995518Y-75148188D01*
X152875820Y-75184498D01*
X152765506Y-75243463D01*
X152668815Y-75322815D01*
X152589463Y-75419506D01*
X152538663Y-75514544D01*
X152511975Y-75482025D01*
X152331536Y-75333942D01*
X152125674Y-75223906D01*
X151902300Y-75156147D01*
X151670000Y-75133267D01*
X151437701Y-75156147D01*
X151214327Y-75223906D01*
X151008465Y-75333942D01*
X150828026Y-75482025D01*
X150679943Y-75662464D01*
X150670000Y-75681065D01*
X150660058Y-75662464D01*
X150511975Y-75482025D01*
X150331536Y-75333942D01*
X150125674Y-75223906D01*
X149902300Y-75156147D01*
X149670000Y-75133267D01*
X149437701Y-75156147D01*
X149214327Y-75223906D01*
X149008465Y-75333942D01*
X148828026Y-75482025D01*
X148679943Y-75662464D01*
X148670000Y-75681065D01*
X148660058Y-75662464D01*
X148511975Y-75482025D01*
X148331536Y-75333942D01*
X148125674Y-75223906D01*
X147902300Y-75156147D01*
X147670000Y-75133267D01*
X147437701Y-75156147D01*
X147214327Y-75223906D01*
X147008465Y-75333942D01*
X146828026Y-75482025D01*
X146679943Y-75662464D01*
X146670000Y-75681065D01*
X146660058Y-75662464D01*
X146511975Y-75482025D01*
X146331536Y-75333942D01*
X146125674Y-75223906D01*
X145902300Y-75156147D01*
X145670000Y-75133267D01*
X145437701Y-75156147D01*
X145214327Y-75223906D01*
X145008465Y-75333942D01*
X144828026Y-75482025D01*
X144679943Y-75662464D01*
X144670000Y-75681065D01*
X144660058Y-75662464D01*
X144511975Y-75482025D01*
X144331536Y-75333942D01*
X144125674Y-75223906D01*
X143902300Y-75156147D01*
X143670000Y-75133267D01*
X143437701Y-75156147D01*
X143214327Y-75223906D01*
X143008465Y-75333942D01*
X142828026Y-75482025D01*
X142679943Y-75662464D01*
X142670000Y-75681065D01*
X142660058Y-75662464D01*
X142511975Y-75482025D01*
X142331536Y-75333942D01*
X142125674Y-75223906D01*
X141902300Y-75156147D01*
X141670000Y-75133267D01*
X141437701Y-75156147D01*
X141214327Y-75223906D01*
X141008465Y-75333942D01*
X140828026Y-75482025D01*
X140679943Y-75662464D01*
X140670000Y-75681065D01*
X140660058Y-75662464D01*
X140511975Y-75482025D01*
X140331536Y-75333942D01*
X140125674Y-75223906D01*
X139902300Y-75156147D01*
X139670000Y-75133267D01*
X139437701Y-75156147D01*
X139214327Y-75223906D01*
X139008465Y-75333942D01*
X138828026Y-75482025D01*
X138679943Y-75662464D01*
X138569906Y-75868326D01*
X138502147Y-76091700D01*
X138485000Y-76265793D01*
X138485000Y-76964000D01*
X133844304Y-76964000D01*
X133648727Y-76833320D01*
X133387574Y-76725147D01*
X133235504Y-76694898D01*
X138050402Y-71880000D01*
X145085957Y-71880000D01*
X145189363Y-72034759D01*
X145389241Y-72234637D01*
X145624273Y-72391680D01*
X145885426Y-72499853D01*
X146162665Y-72555000D01*
X146445335Y-72555000D01*
X146722574Y-72499853D01*
X146983727Y-72391680D01*
X147218759Y-72234637D01*
X147418637Y-72034759D01*
X147575680Y-71799727D01*
X147683853Y-71538574D01*
X147739000Y-71261335D01*
X147739000Y-70978665D01*
X147683853Y-70701426D01*
X147575680Y-70440273D01*
X147418637Y-70205241D01*
X147218759Y-70005363D01*
X146983727Y-69848320D01*
X146722574Y-69740147D01*
X146445335Y-69685000D01*
X146162665Y-69685000D01*
X145885426Y-69740147D01*
X145624273Y-69848320D01*
X145389241Y-70005363D01*
X145189363Y-70205241D01*
X145085957Y-70360000D01*
X137772925Y-70360000D01*
X137735600Y-70356324D01*
X137698275Y-70360000D01*
X137698267Y-70360000D01*
X137586614Y-70370997D01*
X137443353Y-70414454D01*
X137410251Y-70432148D01*
X137258637Y-70205241D01*
X137058759Y-70005363D01*
X136823727Y-69848320D01*
X136562574Y-69740147D01*
X136285335Y-69685000D01*
X136002665Y-69685000D01*
X135725426Y-69740147D01*
X135464273Y-69848320D01*
X135229241Y-70005363D01*
X135029363Y-70205241D01*
X134872320Y-70440273D01*
X134764147Y-70701426D01*
X134709000Y-70978665D01*
X134709000Y-71261335D01*
X134764147Y-71538574D01*
X134872320Y-71799727D01*
X135029363Y-72034759D01*
X135229241Y-72234637D01*
X135419221Y-72361577D01*
X125017099Y-82763700D01*
X123967776Y-82763700D01*
X124080680Y-82594727D01*
X124188853Y-82333574D01*
X124244000Y-82056335D01*
X124244000Y-81773665D01*
X124188853Y-81496426D01*
X124080680Y-81235273D01*
X123923637Y-81000241D01*
X123723759Y-80800363D01*
X123488727Y-80643320D01*
X123227574Y-80535147D01*
X122950335Y-80480000D01*
X122667665Y-80480000D01*
X122390426Y-80535147D01*
X122129273Y-80643320D01*
X121894241Y-80800363D01*
X121769053Y-80925551D01*
X119199504Y-78356003D01*
X119175701Y-78326999D01*
X119059976Y-78232026D01*
X118927947Y-78161454D01*
X118784686Y-78117997D01*
X118673033Y-78107000D01*
X118673022Y-78107000D01*
X118635700Y-78103324D01*
X118598378Y-78107000D01*
X112348909Y-78107000D01*
X112342918Y-78092537D01*
X112256809Y-77963665D01*
X121374000Y-77963665D01*
X121374000Y-78246335D01*
X121429147Y-78523574D01*
X121537320Y-78784727D01*
X121694363Y-79019759D01*
X121894241Y-79219637D01*
X122129273Y-79376680D01*
X122390426Y-79484853D01*
X122667665Y-79540000D01*
X122950335Y-79540000D01*
X123227574Y-79484853D01*
X123488727Y-79376680D01*
X123723759Y-79219637D01*
X123923637Y-79019759D01*
X124080680Y-78784727D01*
X124188853Y-78523574D01*
X124244000Y-78246335D01*
X124244000Y-77963665D01*
X124188853Y-77686426D01*
X124080680Y-77425273D01*
X123923637Y-77190241D01*
X123723759Y-76990363D01*
X123488727Y-76833320D01*
X123227574Y-76725147D01*
X122950335Y-76670000D01*
X122667665Y-76670000D01*
X122390426Y-76725147D01*
X122129273Y-76833320D01*
X121894241Y-76990363D01*
X121694363Y-77190241D01*
X121537320Y-77425273D01*
X121429147Y-77686426D01*
X121374000Y-77963665D01*
X112256809Y-77963665D01*
X112163987Y-77824748D01*
X111936252Y-77597013D01*
X111668463Y-77418082D01*
X111370912Y-77294832D01*
X111055033Y-77232000D01*
X110732967Y-77232000D01*
X110417088Y-77294832D01*
X110119537Y-77418082D01*
X109851748Y-77597013D01*
X109624013Y-77824748D01*
X109445082Y-78092537D01*
X109439091Y-78107000D01*
X105848909Y-78107000D01*
X105842918Y-78092537D01*
X105663987Y-77824748D01*
X105436252Y-77597013D01*
X105168463Y-77418082D01*
X104870912Y-77294832D01*
X104555033Y-77232000D01*
X104232967Y-77232000D01*
X103917088Y-77294832D01*
X103619537Y-77418082D01*
X103351748Y-77597013D01*
X103124013Y-77824748D01*
X102945082Y-78092537D01*
X102821832Y-78390088D01*
X102759000Y-78705967D01*
X99803739Y-78705967D01*
X99766168Y-78517088D01*
X99642918Y-78219537D01*
X99463987Y-77951748D01*
X99236252Y-77724013D01*
X98968463Y-77545082D01*
X98670912Y-77421832D01*
X98355033Y-77359000D01*
X98032967Y-77359000D01*
X97717088Y-77421832D01*
X97419537Y-77545082D01*
X97151748Y-77724013D01*
X96924013Y-77951748D01*
X96745082Y-78219537D01*
X96739091Y-78234000D01*
X93148909Y-78234000D01*
X93142918Y-78219537D01*
X92963987Y-77951748D01*
X92736252Y-77724013D01*
X92468463Y-77545082D01*
X92170912Y-77421832D01*
X91855033Y-77359000D01*
X91532967Y-77359000D01*
X91217088Y-77421832D01*
X90919537Y-77545082D01*
X90651748Y-77724013D01*
X90424013Y-77951748D01*
X90245082Y-78219537D01*
X90121832Y-78517088D01*
X90059000Y-78832967D01*
X81869880Y-78832967D01*
X81864812Y-78781518D01*
X81828502Y-78661820D01*
X81769537Y-78551506D01*
X81690185Y-78454815D01*
X81593494Y-78375463D01*
X81483180Y-78316498D01*
X81363482Y-78280188D01*
X81239000Y-78267928D01*
X80549750Y-78271000D01*
X80391000Y-78429750D01*
X80137000Y-78429750D01*
X79978250Y-78271000D01*
X79289000Y-78267928D01*
X79164518Y-78280188D01*
X79044820Y-78316498D01*
X78934506Y-78375463D01*
X78837815Y-78454815D01*
X78758463Y-78551506D01*
X78699498Y-78661820D01*
X78663188Y-78781518D01*
X78650928Y-78906000D01*
X74370000Y-78906000D01*
X74370000Y-73165319D01*
X74387561Y-73207715D01*
X74752536Y-73753939D01*
X75217061Y-74218464D01*
X75763285Y-74583439D01*
X76370216Y-74834838D01*
X77014531Y-74963000D01*
X77671469Y-74963000D01*
X78315784Y-74834838D01*
X78922715Y-74583439D01*
X79468939Y-74218464D01*
X79933464Y-73753939D01*
X80298439Y-73207715D01*
X80473119Y-72786000D01*
X123933928Y-72786000D01*
X123946188Y-72910482D01*
X123982498Y-73030180D01*
X124041463Y-73140494D01*
X124120815Y-73237185D01*
X124217506Y-73316537D01*
X124327820Y-73375502D01*
X124447518Y-73411812D01*
X124572000Y-73424072D01*
X124936250Y-73421000D01*
X125095000Y-73262250D01*
X125095000Y-72263000D01*
X124095750Y-72263000D01*
X123937000Y-72421750D01*
X123933928Y-72786000D01*
X80473119Y-72786000D01*
X80549838Y-72600784D01*
X80678000Y-71956469D01*
X80678000Y-71486000D01*
X123933928Y-71486000D01*
X123937000Y-71850250D01*
X124095750Y-72009000D01*
X125095000Y-72009000D01*
X125095000Y-71989000D01*
X125349000Y-71989000D01*
X125349000Y-72009000D01*
X125369000Y-72009000D01*
X125369000Y-72263000D01*
X125349000Y-72263000D01*
X125349000Y-73262250D01*
X125507750Y-73421000D01*
X125872000Y-73424072D01*
X125996482Y-73411812D01*
X126116180Y-73375502D01*
X126226494Y-73316537D01*
X126323185Y-73237185D01*
X126402537Y-73140494D01*
X126461502Y-73030180D01*
X126497812Y-72910482D01*
X126510072Y-72786000D01*
X126507000Y-72421750D01*
X126348252Y-72263002D01*
X126477088Y-72263002D01*
X126526381Y-72510821D01*
X126623247Y-72744676D01*
X126763875Y-72955140D01*
X126942860Y-73134125D01*
X127153324Y-73274753D01*
X127387179Y-73371619D01*
X127635439Y-73421000D01*
X127888561Y-73421000D01*
X128136821Y-73371619D01*
X128370676Y-73274753D01*
X128581140Y-73134125D01*
X128760125Y-72955140D01*
X128900753Y-72744676D01*
X128997619Y-72510821D01*
X129047000Y-72262561D01*
X129047000Y-72009439D01*
X128997619Y-71761179D01*
X128900753Y-71527324D01*
X128760125Y-71316860D01*
X128581140Y-71137875D01*
X128370676Y-70997247D01*
X128136821Y-70900381D01*
X127888561Y-70851000D01*
X127777000Y-70851000D01*
X127777000Y-70739439D01*
X127727619Y-70491179D01*
X127630753Y-70257324D01*
X127490125Y-70046860D01*
X127311140Y-69867875D01*
X127100676Y-69727247D01*
X126866821Y-69630381D01*
X126618561Y-69581000D01*
X126365439Y-69581000D01*
X126117179Y-69630381D01*
X125883324Y-69727247D01*
X125672860Y-69867875D01*
X125493875Y-70046860D01*
X125353247Y-70257324D01*
X125256381Y-70491179D01*
X125207000Y-70739439D01*
X125207000Y-70851000D01*
X125094998Y-70851000D01*
X125094998Y-71009748D01*
X124936250Y-70851000D01*
X124572000Y-70847928D01*
X124447518Y-70860188D01*
X124327820Y-70896498D01*
X124217506Y-70955463D01*
X124120815Y-71034815D01*
X124041463Y-71131506D01*
X123982498Y-71241820D01*
X123946188Y-71361518D01*
X123933928Y-71486000D01*
X80678000Y-71486000D01*
X80678000Y-71299531D01*
X80549838Y-70655216D01*
X80298439Y-70048285D01*
X79933464Y-69502061D01*
X79468939Y-69037536D01*
X78922715Y-68672561D01*
X78880319Y-68655000D01*
X155448000Y-68655000D01*
X155448000Y-102870000D01*
G37*
X155448000Y-102870000D02*
X155450440Y-102894776D01*
X155457667Y-102918601D01*
X155469403Y-102940557D01*
X155485197Y-102959803D01*
X155504443Y-102975597D01*
X155526399Y-102987333D01*
X155550224Y-102994560D01*
X155575000Y-102997000D01*
X162485000Y-102997000D01*
X162485000Y-125843681D01*
X162467439Y-125801285D01*
X162102464Y-125255061D01*
X161637939Y-124790536D01*
X161091715Y-124425561D01*
X160484784Y-124174162D01*
X159840469Y-124046000D01*
X159183531Y-124046000D01*
X158539216Y-124174162D01*
X157932285Y-124425561D01*
X157386061Y-124790536D01*
X156921536Y-125255061D01*
X156556561Y-125801285D01*
X156305162Y-126408216D01*
X156177000Y-127052531D01*
X156177000Y-127709469D01*
X156305162Y-128353784D01*
X156556561Y-128960715D01*
X156921536Y-129506939D01*
X157386061Y-129971464D01*
X157932285Y-130336439D01*
X157974681Y-130354000D01*
X78880319Y-130354000D01*
X78922715Y-130336439D01*
X79468939Y-129971464D01*
X79933464Y-129506939D01*
X80298439Y-128960715D01*
X80549838Y-128353784D01*
X80678000Y-127709469D01*
X80678000Y-127052531D01*
X80549838Y-126408216D01*
X80298439Y-125801285D01*
X79933464Y-125255061D01*
X79468939Y-124790536D01*
X78922715Y-124425561D01*
X78315784Y-124174162D01*
X77671469Y-124046000D01*
X77014531Y-124046000D01*
X76370216Y-124174162D01*
X75763285Y-124425561D01*
X75217061Y-124790536D01*
X74752536Y-125255061D01*
X74387561Y-125801285D01*
X74370000Y-125843681D01*
X74370000Y-122575560D01*
X88404000Y-122575560D01*
X88404000Y-123040440D01*
X88494694Y-123496387D01*
X88672595Y-123925879D01*
X88930868Y-124312412D01*
X89259588Y-124641132D01*
X89646121Y-124899405D01*
X90075613Y-125077306D01*
X90531560Y-125168000D01*
X90996440Y-125168000D01*
X91452387Y-125077306D01*
X91881879Y-124899405D01*
X92268412Y-124641132D01*
X92597132Y-124312412D01*
X92855405Y-123925879D01*
X93033306Y-123496387D01*
X93124000Y-123040440D01*
X93124000Y-122627761D01*
X152464000Y-122627761D01*
X152464000Y-122988239D01*
X152534325Y-123341791D01*
X152672275Y-123674830D01*
X152872546Y-123974557D01*
X153127443Y-124229454D01*
X153427170Y-124429725D01*
X153760209Y-124567675D01*
X154113761Y-124638000D01*
X154474239Y-124638000D01*
X154827791Y-124567675D01*
X155160830Y-124429725D01*
X155460557Y-124229454D01*
X155715454Y-123974557D01*
X155915725Y-123674830D01*
X156053675Y-123341791D01*
X156124000Y-122988239D01*
X156124000Y-122627761D01*
X156053675Y-122274209D01*
X155915725Y-121941170D01*
X155715454Y-121641443D01*
X155460557Y-121386546D01*
X155160830Y-121186275D01*
X154827791Y-121048325D01*
X154474239Y-120978000D01*
X154113761Y-120978000D01*
X153760209Y-121048325D01*
X153427170Y-121186275D01*
X153127443Y-121386546D01*
X152872546Y-121641443D01*
X152672275Y-121941170D01*
X152534325Y-122274209D01*
X152464000Y-122627761D01*
X93124000Y-122627761D01*
X93124000Y-122575560D01*
X93033306Y-122119613D01*
X92855405Y-121690121D01*
X92597132Y-121303588D01*
X92268412Y-120974868D01*
X91881879Y-120716595D01*
X91452387Y-120538694D01*
X90996440Y-120448000D01*
X90531560Y-120448000D01*
X90075613Y-120538694D01*
X89646121Y-120716595D01*
X89259588Y-120974868D01*
X88930868Y-121303588D01*
X88672595Y-121690121D01*
X88494694Y-122119613D01*
X88404000Y-122575560D01*
X74370000Y-122575560D01*
X74370000Y-111633000D01*
X74725928Y-111633000D01*
X74725928Y-117983000D01*
X74738188Y-118107482D01*
X74774498Y-118227180D01*
X74833463Y-118337494D01*
X74912815Y-118434185D01*
X75009506Y-118513537D01*
X75119820Y-118572502D01*
X75239518Y-118608812D01*
X75364000Y-118621072D01*
X82704000Y-118621072D01*
X82828482Y-118608812D01*
X82948180Y-118572502D01*
X83058494Y-118513537D01*
X83155185Y-118434185D01*
X83234537Y-118337494D01*
X83293502Y-118227180D01*
X83329812Y-118107482D01*
X83342072Y-117983000D01*
X83342072Y-111633000D01*
X83329812Y-111508518D01*
X83293502Y-111388820D01*
X83234537Y-111278506D01*
X83155185Y-111181815D01*
X83058494Y-111102463D01*
X82948180Y-111043498D01*
X82828482Y-111007188D01*
X82704000Y-110994928D01*
X80421573Y-110994928D01*
X84935004Y-106481498D01*
X84964001Y-106457701D01*
X84990332Y-106425617D01*
X85058974Y-106341977D01*
X85129546Y-106209947D01*
X85156948Y-106119613D01*
X85173003Y-106066686D01*
X85184000Y-105955033D01*
X85184000Y-105955024D01*
X85187676Y-105917701D01*
X85184000Y-105880378D01*
X85184000Y-102357889D01*
X85222815Y-102405185D01*
X85319506Y-102484537D01*
X85429820Y-102543502D01*
X85549518Y-102579812D01*
X85674000Y-102592072D01*
X87138250Y-102589000D01*
X87297000Y-102430250D01*
X87297000Y-100331000D01*
X87551000Y-100331000D01*
X87551000Y-102430250D01*
X87709750Y-102589000D01*
X89174000Y-102592072D01*
X89298482Y-102579812D01*
X89418180Y-102543502D01*
X89528494Y-102484537D01*
X89625185Y-102405185D01*
X89704537Y-102308494D01*
X89763502Y-102198180D01*
X89799812Y-102078482D01*
X89812072Y-101954000D01*
X89809000Y-100489750D01*
X89650250Y-100331000D01*
X87551000Y-100331000D01*
X87297000Y-100331000D01*
X87277000Y-100331000D01*
X87277000Y-100077000D01*
X87297000Y-100077000D01*
X87297000Y-97977750D01*
X87551000Y-97977750D01*
X87551000Y-100077000D01*
X89650250Y-100077000D01*
X89809000Y-99918250D01*
X89812072Y-98454000D01*
X89799812Y-98329518D01*
X89763502Y-98209820D01*
X89704537Y-98099506D01*
X89625185Y-98002815D01*
X89528494Y-97923463D01*
X89469767Y-97892072D01*
X92174000Y-97892072D01*
X92298482Y-97879812D01*
X92418180Y-97843502D01*
X92528494Y-97784537D01*
X92625185Y-97705185D01*
X92704537Y-97608494D01*
X92763502Y-97498180D01*
X92799812Y-97378482D01*
X92812072Y-97254000D01*
X92812072Y-96264000D01*
X97172135Y-96264000D01*
X97256607Y-96467934D01*
X97479313Y-96801237D01*
X97762763Y-97084687D01*
X98096066Y-97307393D01*
X98466413Y-97460796D01*
X98859570Y-97539000D01*
X99260430Y-97539000D01*
X99653587Y-97460796D01*
X100023934Y-97307393D01*
X100357237Y-97084687D01*
X100640687Y-96801237D01*
X100787706Y-96581207D01*
X119525501Y-115319003D01*
X119549299Y-115348001D01*
X119578297Y-115371799D01*
X119665024Y-115442974D01*
X119797053Y-115513546D01*
X119940314Y-115557003D01*
X120089300Y-115571677D01*
X120126633Y-115568000D01*
X153385928Y-115568000D01*
X153385928Y-117983000D01*
X153398188Y-118107482D01*
X153434498Y-118227180D01*
X153493463Y-118337494D01*
X153572815Y-118434185D01*
X153669506Y-118513537D01*
X153779820Y-118572502D01*
X153899518Y-118608812D01*
X154024000Y-118621072D01*
X161364000Y-118621072D01*
X161488482Y-118608812D01*
X161608180Y-118572502D01*
X161718494Y-118513537D01*
X161815185Y-118434185D01*
X161894537Y-118337494D01*
X161953502Y-118227180D01*
X161989812Y-118107482D01*
X162002072Y-117983000D01*
X162002072Y-111633000D01*
X161989812Y-111508518D01*
X161953502Y-111388820D01*
X161894537Y-111278506D01*
X161815185Y-111181815D01*
X161718494Y-111102463D01*
X161608180Y-111043498D01*
X161488482Y-111007188D01*
X161364000Y-110994928D01*
X154024000Y-110994928D01*
X153899518Y-111007188D01*
X153779820Y-111043498D01*
X153669506Y-111102463D01*
X153572815Y-111181815D01*
X153493463Y-111278506D01*
X153434498Y-111388820D01*
X153398188Y-111508518D01*
X153385928Y-111633000D01*
X153385928Y-114048000D01*
X120404102Y-114048000D01*
X112931662Y-106575560D01*
X143604000Y-106575560D01*
X143604000Y-107040440D01*
X143694694Y-107496387D01*
X143872595Y-107925879D01*
X144130868Y-108312412D01*
X144459588Y-108641132D01*
X144846121Y-108899405D01*
X145275613Y-109077306D01*
X145731560Y-109168000D01*
X146196440Y-109168000D01*
X146652387Y-109077306D01*
X147081879Y-108899405D01*
X147468412Y-108641132D01*
X147797132Y-108312412D01*
X148055405Y-107925879D01*
X148233306Y-107496387D01*
X148324000Y-107040440D01*
X148324000Y-106575560D01*
X148233306Y-106119613D01*
X148055405Y-105690121D01*
X147797132Y-105303588D01*
X147468412Y-104974868D01*
X147081879Y-104716595D01*
X146652387Y-104538694D01*
X146196440Y-104448000D01*
X145731560Y-104448000D01*
X145275613Y-104538694D01*
X144846121Y-104716595D01*
X144459588Y-104974868D01*
X144130868Y-105303588D01*
X143872595Y-105690121D01*
X143694694Y-106119613D01*
X143604000Y-106575560D01*
X112931662Y-106575560D01*
X101349104Y-94993003D01*
X101325301Y-94963999D01*
X101209576Y-94869026D01*
X101077547Y-94798454D01*
X100955026Y-94761288D01*
X100863393Y-94540066D01*
X100640687Y-94206763D01*
X100357237Y-93923313D01*
X100023934Y-93700607D01*
X99653587Y-93547204D01*
X99260430Y-93469000D01*
X98859570Y-93469000D01*
X98466413Y-93547204D01*
X98096066Y-93700607D01*
X97762763Y-93923313D01*
X97479313Y-94206763D01*
X97256607Y-94540066D01*
X97172135Y-94744000D01*
X92812072Y-94744000D01*
X92812072Y-93754000D01*
X92799812Y-93629518D01*
X92763502Y-93509820D01*
X92704537Y-93399506D01*
X92625185Y-93302815D01*
X92528494Y-93223463D01*
X92418180Y-93164498D01*
X92298482Y-93128188D01*
X92174000Y-93115928D01*
X88674000Y-93115928D01*
X88549518Y-93128188D01*
X88429820Y-93164498D01*
X88319506Y-93223463D01*
X88222815Y-93302815D01*
X88143463Y-93399506D01*
X88084498Y-93509820D01*
X88048188Y-93629518D01*
X88035928Y-93754000D01*
X88035928Y-97254000D01*
X88048188Y-97378482D01*
X88084498Y-97498180D01*
X88143463Y-97608494D01*
X88222815Y-97705185D01*
X88319506Y-97784537D01*
X88381345Y-97817591D01*
X87709750Y-97819000D01*
X87551000Y-97977750D01*
X87297000Y-97977750D01*
X87138250Y-97819000D01*
X85674000Y-97815928D01*
X85576105Y-97825570D01*
X85705192Y-97786411D01*
X85945171Y-97658140D01*
X86155515Y-97485515D01*
X86328140Y-97275171D01*
X86456411Y-97035192D01*
X86535401Y-96774799D01*
X86562072Y-96504000D01*
X86562072Y-94504000D01*
X86535401Y-94233201D01*
X86456411Y-93972808D01*
X86328140Y-93732829D01*
X86155515Y-93522485D01*
X85945171Y-93349860D01*
X85705192Y-93221589D01*
X85444799Y-93142599D01*
X85174000Y-93115928D01*
X83674000Y-93115928D01*
X83403201Y-93142599D01*
X83142808Y-93221589D01*
X82902829Y-93349860D01*
X82692485Y-93522485D01*
X82519860Y-93732829D01*
X82391589Y-93972808D01*
X82312599Y-94233201D01*
X82285928Y-94504000D01*
X82285928Y-96504000D01*
X82312599Y-96774799D01*
X82391589Y-97035192D01*
X82519860Y-97275171D01*
X82692485Y-97485515D01*
X82902829Y-97658140D01*
X83142808Y-97786411D01*
X83403201Y-97865401D01*
X83664001Y-97891087D01*
X83664000Y-105602898D01*
X78522998Y-110743901D01*
X78494000Y-110767699D01*
X78470202Y-110796697D01*
X78470201Y-110796698D01*
X78399026Y-110883424D01*
X78339425Y-110994928D01*
X75364000Y-110994928D01*
X75239518Y-111007188D01*
X75119820Y-111043498D01*
X75009506Y-111102463D01*
X74912815Y-111181815D01*
X74833463Y-111278506D01*
X74774498Y-111388820D01*
X74738188Y-111508518D01*
X74725928Y-111633000D01*
X74370000Y-111633000D01*
X74370000Y-82256000D01*
X78646815Y-82256000D01*
X78675487Y-82547111D01*
X78760401Y-82827034D01*
X78898294Y-83085014D01*
X79083866Y-83311134D01*
X79309986Y-83496706D01*
X79327374Y-83506000D01*
X79309986Y-83515294D01*
X79083866Y-83700866D01*
X78898294Y-83926986D01*
X78760401Y-84184966D01*
X78675487Y-84464889D01*
X78646815Y-84756000D01*
X78675487Y-85047111D01*
X78760401Y-85327034D01*
X78898294Y-85585014D01*
X79083866Y-85811134D01*
X79309986Y-85996706D01*
X79524412Y-86111319D01*
X79558454Y-86223546D01*
X79629026Y-86355576D01*
X79700201Y-86442302D01*
X79724000Y-86471301D01*
X79752998Y-86495099D01*
X85005700Y-91747802D01*
X85029499Y-91776801D01*
X85058497Y-91800599D01*
X85145223Y-91871774D01*
X85256584Y-91931298D01*
X85277253Y-91942346D01*
X85420514Y-91985803D01*
X85532167Y-91996800D01*
X85532176Y-91996800D01*
X85569499Y-92000476D01*
X85606822Y-91996800D01*
X101925799Y-91996800D01*
X111405005Y-101476008D01*
X111428799Y-101505001D01*
X111457792Y-101528795D01*
X111457796Y-101528799D01*
X111528485Y-101586811D01*
X111544524Y-101599974D01*
X111676553Y-101670546D01*
X111819814Y-101714003D01*
X111931467Y-101725000D01*
X111931476Y-101725000D01*
X111968799Y-101728676D01*
X112006122Y-101725000D01*
X141910957Y-101725000D01*
X142014363Y-101879759D01*
X142214241Y-102079637D01*
X142449273Y-102236680D01*
X142710426Y-102344853D01*
X142987665Y-102400000D01*
X143270335Y-102400000D01*
X143547574Y-102344853D01*
X143808727Y-102236680D01*
X144043759Y-102079637D01*
X144243637Y-101879759D01*
X144400680Y-101644727D01*
X144508853Y-101383574D01*
X144564000Y-101106335D01*
X144564000Y-100823665D01*
X151854000Y-100823665D01*
X151854000Y-101106335D01*
X151909147Y-101383574D01*
X152017320Y-101644727D01*
X152174363Y-101879759D01*
X152374241Y-102079637D01*
X152609273Y-102236680D01*
X152870426Y-102344853D01*
X153147665Y-102400000D01*
X153430335Y-102400000D01*
X153707574Y-102344853D01*
X153968727Y-102236680D01*
X154203759Y-102079637D01*
X154403637Y-101879759D01*
X154560680Y-101644727D01*
X154668853Y-101383574D01*
X154724000Y-101106335D01*
X154724000Y-100823665D01*
X154668853Y-100546426D01*
X154560680Y-100285273D01*
X154403637Y-100050241D01*
X154203759Y-99850363D01*
X153968727Y-99693320D01*
X153707574Y-99585147D01*
X153430335Y-99530000D01*
X153147665Y-99530000D01*
X152870426Y-99585147D01*
X152609273Y-99693320D01*
X152374241Y-99850363D01*
X152174363Y-100050241D01*
X152017320Y-100285273D01*
X151909147Y-100546426D01*
X151854000Y-100823665D01*
X144564000Y-100823665D01*
X144508853Y-100546426D01*
X144400680Y-100285273D01*
X144243637Y-100050241D01*
X144043759Y-99850363D01*
X143808727Y-99693320D01*
X143547574Y-99585147D01*
X143270335Y-99530000D01*
X142987665Y-99530000D01*
X142710426Y-99585147D01*
X142449273Y-99693320D01*
X142214241Y-99850363D01*
X142014363Y-100050241D01*
X141910957Y-100205000D01*
X112283603Y-100205000D01*
X111115305Y-99036702D01*
X121995903Y-99036702D01*
X122067486Y-99280671D01*
X122322996Y-99401571D01*
X122597184Y-99470300D01*
X122879512Y-99484217D01*
X123159130Y-99442787D01*
X123425292Y-99347603D01*
X123550514Y-99280671D01*
X123622097Y-99036702D01*
X122809000Y-98223605D01*
X121995903Y-99036702D01*
X111115305Y-99036702D01*
X110068002Y-97989400D01*
X121374950Y-97989400D01*
X121368783Y-98114512D01*
X121410213Y-98394130D01*
X121505397Y-98660292D01*
X121572329Y-98785514D01*
X121816298Y-98857097D01*
X122629395Y-98044000D01*
X122615253Y-98029858D01*
X122794858Y-97850253D01*
X122809000Y-97864395D01*
X122823143Y-97850253D01*
X123002748Y-98029858D01*
X122988605Y-98044000D01*
X123801702Y-98857097D01*
X124045671Y-98785514D01*
X124166571Y-98530004D01*
X124235300Y-98255816D01*
X124249217Y-97973488D01*
X124207787Y-97693870D01*
X124202326Y-97678600D01*
X131578570Y-97678600D01*
X131534000Y-97902665D01*
X131534000Y-98185335D01*
X131589147Y-98462574D01*
X131697320Y-98723727D01*
X131854363Y-98958759D01*
X132054241Y-99158637D01*
X132289273Y-99315680D01*
X132550426Y-99423853D01*
X132827665Y-99479000D01*
X133110335Y-99479000D01*
X133387574Y-99423853D01*
X133648727Y-99315680D01*
X133883759Y-99158637D01*
X134083637Y-98958759D01*
X134240680Y-98723727D01*
X134348853Y-98462574D01*
X134404000Y-98185335D01*
X134404000Y-97902665D01*
X134359430Y-97678600D01*
X141792650Y-97678600D01*
X141857320Y-97834727D01*
X142014363Y-98069759D01*
X142214241Y-98269637D01*
X142449273Y-98426680D01*
X142710426Y-98534853D01*
X142987665Y-98590000D01*
X143270335Y-98590000D01*
X143547574Y-98534853D01*
X143808727Y-98426680D01*
X144043759Y-98269637D01*
X144243637Y-98069759D01*
X144400680Y-97834727D01*
X144508853Y-97573574D01*
X144564000Y-97296335D01*
X144564000Y-97013665D01*
X151854000Y-97013665D01*
X151854000Y-97296335D01*
X151909147Y-97573574D01*
X152017320Y-97834727D01*
X152174363Y-98069759D01*
X152374241Y-98269637D01*
X152609273Y-98426680D01*
X152870426Y-98534853D01*
X153147665Y-98590000D01*
X153430335Y-98590000D01*
X153707574Y-98534853D01*
X153968727Y-98426680D01*
X154203759Y-98269637D01*
X154403637Y-98069759D01*
X154560680Y-97834727D01*
X154668853Y-97573574D01*
X154724000Y-97296335D01*
X154724000Y-97013665D01*
X154668853Y-96736426D01*
X154560680Y-96475273D01*
X154403637Y-96240241D01*
X154203759Y-96040363D01*
X153968727Y-95883320D01*
X153707574Y-95775147D01*
X153430335Y-95720000D01*
X153147665Y-95720000D01*
X152870426Y-95775147D01*
X152609273Y-95883320D01*
X152374241Y-96040363D01*
X152174363Y-96240241D01*
X152017320Y-96475273D01*
X151909147Y-96736426D01*
X151854000Y-97013665D01*
X144564000Y-97013665D01*
X144508853Y-96736426D01*
X144400680Y-96475273D01*
X144243637Y-96240241D01*
X144043759Y-96040363D01*
X143808727Y-95883320D01*
X143547574Y-95775147D01*
X143270335Y-95720000D01*
X142987665Y-95720000D01*
X142710426Y-95775147D01*
X142449273Y-95883320D01*
X142214241Y-96040363D01*
X142096004Y-96158600D01*
X122029733Y-96158600D01*
X121992400Y-96154923D01*
X121955067Y-96158600D01*
X121843414Y-96169597D01*
X121700153Y-96213054D01*
X121568124Y-96283626D01*
X121452399Y-96378599D01*
X121428596Y-96407603D01*
X121366799Y-96469400D01*
X113798072Y-96469400D01*
X113798072Y-96198575D01*
X113909576Y-96138974D01*
X114025301Y-96044001D01*
X114049104Y-96014997D01*
X116147399Y-93916702D01*
X130504903Y-93916702D01*
X130576486Y-94160671D01*
X130831996Y-94281571D01*
X131106184Y-94350300D01*
X131388512Y-94364217D01*
X131668130Y-94322787D01*
X131934292Y-94227603D01*
X132059514Y-94160671D01*
X132131097Y-93916702D01*
X131318000Y-93103605D01*
X130504903Y-93916702D01*
X116147399Y-93916702D01*
X117069589Y-92994512D01*
X129877783Y-92994512D01*
X129919213Y-93274130D01*
X130014397Y-93540292D01*
X130081329Y-93665514D01*
X130325298Y-93737097D01*
X131138395Y-92924000D01*
X131497605Y-92924000D01*
X132310702Y-93737097D01*
X132554671Y-93665514D01*
X132675571Y-93410004D01*
X132744300Y-93135816D01*
X132758217Y-92853488D01*
X132716787Y-92573870D01*
X132708609Y-92551000D01*
X138485000Y-92551000D01*
X138485000Y-93251000D01*
X138532546Y-93479742D01*
X138623804Y-93694813D01*
X138755266Y-93887948D01*
X138921881Y-94051725D01*
X139117246Y-94179850D01*
X139333853Y-94267399D01*
X139360256Y-94267803D01*
X139543000Y-94142361D01*
X139543000Y-92551000D01*
X138485000Y-92551000D01*
X132708609Y-92551000D01*
X132621603Y-92307708D01*
X132554671Y-92182486D01*
X132310702Y-92110903D01*
X131497605Y-92924000D01*
X131138395Y-92924000D01*
X130325298Y-92110903D01*
X130081329Y-92182486D01*
X129960429Y-92437996D01*
X129891700Y-92712184D01*
X129877783Y-92994512D01*
X117069589Y-92994512D01*
X118880102Y-91184000D01*
X129879928Y-91184000D01*
X129879928Y-91224000D01*
X129892188Y-91348482D01*
X129928498Y-91468180D01*
X129987463Y-91578494D01*
X130066815Y-91675185D01*
X130163506Y-91754537D01*
X130273820Y-91813502D01*
X130393518Y-91849812D01*
X130518000Y-91862072D01*
X130525215Y-91862072D01*
X130504903Y-91931298D01*
X131318000Y-92744395D01*
X132131097Y-91931298D01*
X132110785Y-91862072D01*
X132118000Y-91862072D01*
X132242482Y-91849812D01*
X132362180Y-91813502D01*
X132472494Y-91754537D01*
X132569185Y-91675185D01*
X132648537Y-91578494D01*
X132707502Y-91468180D01*
X132743812Y-91348482D01*
X132756072Y-91224000D01*
X132756072Y-89624000D01*
X132743812Y-89499518D01*
X132707502Y-89379820D01*
X132648537Y-89269506D01*
X132569185Y-89172815D01*
X132472494Y-89093463D01*
X132362180Y-89034498D01*
X132242482Y-88998188D01*
X132118000Y-88985928D01*
X130518000Y-88985928D01*
X130393518Y-88998188D01*
X130273820Y-89034498D01*
X130163506Y-89093463D01*
X130066815Y-89172815D01*
X129987463Y-89269506D01*
X129928498Y-89379820D01*
X129892188Y-89499518D01*
X129879928Y-89624000D01*
X129879928Y-89664000D01*
X118602623Y-89664000D01*
X118565300Y-89660324D01*
X118527977Y-89664000D01*
X118527967Y-89664000D01*
X118416314Y-89674997D01*
X118287736Y-89714000D01*
X118273053Y-89718454D01*
X118141023Y-89789026D01*
X118057383Y-89857668D01*
X118025299Y-89883999D01*
X118001501Y-89912997D01*
X113798072Y-94116427D01*
X113798072Y-94104000D01*
X113785812Y-93979518D01*
X113749502Y-93859820D01*
X113690537Y-93749506D01*
X113611185Y-93652815D01*
X113514494Y-93573463D01*
X113404180Y-93514498D01*
X113284482Y-93478188D01*
X113160000Y-93465928D01*
X110360000Y-93465928D01*
X110235518Y-93478188D01*
X110115820Y-93514498D01*
X110005506Y-93573463D01*
X109908815Y-93652815D01*
X109829463Y-93749506D01*
X109770498Y-93859820D01*
X109734188Y-93979518D01*
X109721928Y-94104000D01*
X109721928Y-96469400D01*
X109607902Y-96469400D01*
X98558804Y-85420303D01*
X98535001Y-85391299D01*
X98419276Y-85296326D01*
X98287247Y-85225754D01*
X98143986Y-85182297D01*
X98032333Y-85171300D01*
X98032322Y-85171300D01*
X97995000Y-85167624D01*
X97957678Y-85171300D01*
X84254102Y-85171300D01*
X83712215Y-84629413D01*
X90738192Y-84629413D01*
X90833956Y-84893814D01*
X91123571Y-85034704D01*
X91435108Y-85116384D01*
X91756595Y-85135718D01*
X92075675Y-85091961D01*
X92380088Y-84986795D01*
X92554044Y-84893814D01*
X92649808Y-84629413D01*
X97238192Y-84629413D01*
X97333956Y-84893814D01*
X97623571Y-85034704D01*
X97935108Y-85116384D01*
X98256595Y-85135718D01*
X98575675Y-85091961D01*
X98880088Y-84986795D01*
X99054044Y-84893814D01*
X99149808Y-84629413D01*
X99022808Y-84502413D01*
X103438192Y-84502413D01*
X103533956Y-84766814D01*
X103823571Y-84907704D01*
X104135108Y-84989384D01*
X104456595Y-85008718D01*
X104775675Y-84964961D01*
X105080088Y-84859795D01*
X105254044Y-84766814D01*
X105349808Y-84502413D01*
X104394000Y-83546605D01*
X103438192Y-84502413D01*
X99022808Y-84502413D01*
X98194000Y-83673605D01*
X97238192Y-84629413D01*
X92649808Y-84629413D01*
X91694000Y-83673605D01*
X90738192Y-84629413D01*
X83712215Y-84629413D01*
X82639397Y-83556595D01*
X90052282Y-83556595D01*
X90096039Y-83875675D01*
X90201205Y-84180088D01*
X90294186Y-84354044D01*
X90558587Y-84449808D01*
X91514395Y-83494000D01*
X91873605Y-83494000D01*
X92829413Y-84449808D01*
X93093814Y-84354044D01*
X93234704Y-84064429D01*
X93316384Y-83752892D01*
X93328189Y-83556595D01*
X96552282Y-83556595D01*
X96596039Y-83875675D01*
X96701205Y-84180088D01*
X96794186Y-84354044D01*
X97058587Y-84449808D01*
X98014395Y-83494000D01*
X98373605Y-83494000D01*
X99329413Y-84449808D01*
X99593814Y-84354044D01*
X99734704Y-84064429D01*
X99816384Y-83752892D01*
X99835718Y-83431405D01*
X99835470Y-83429595D01*
X102752282Y-83429595D01*
X102796039Y-83748675D01*
X102901205Y-84053088D01*
X102994186Y-84227044D01*
X103258587Y-84322808D01*
X104214395Y-83367000D01*
X104573605Y-83367000D01*
X105529413Y-84322808D01*
X105793814Y-84227044D01*
X105934704Y-83937429D01*
X106016384Y-83625892D01*
X106028189Y-83429595D01*
X109252282Y-83429595D01*
X109296039Y-83748675D01*
X109401205Y-84053088D01*
X109494186Y-84227044D01*
X109758587Y-84322808D01*
X110714395Y-83367000D01*
X109758587Y-82411192D01*
X109494186Y-82506956D01*
X109353296Y-82796571D01*
X109271616Y-83108108D01*
X109252282Y-83429595D01*
X106028189Y-83429595D01*
X106035718Y-83304405D01*
X105991961Y-82985325D01*
X105886795Y-82680912D01*
X105793814Y-82506956D01*
X105529413Y-82411192D01*
X104573605Y-83367000D01*
X104214395Y-83367000D01*
X103258587Y-82411192D01*
X102994186Y-82506956D01*
X102853296Y-82796571D01*
X102771616Y-83108108D01*
X102752282Y-83429595D01*
X99835470Y-83429595D01*
X99791961Y-83112325D01*
X99686795Y-82807912D01*
X99593814Y-82633956D01*
X99329413Y-82538192D01*
X98373605Y-83494000D01*
X98014395Y-83494000D01*
X97058587Y-82538192D01*
X96794186Y-82633956D01*
X96653296Y-82923571D01*
X96571616Y-83235108D01*
X96552282Y-83556595D01*
X93328189Y-83556595D01*
X93335718Y-83431405D01*
X93291961Y-83112325D01*
X93186795Y-82807912D01*
X93093814Y-82633956D01*
X92829413Y-82538192D01*
X91873605Y-83494000D01*
X91514395Y-83494000D01*
X90558587Y-82538192D01*
X90294186Y-82633956D01*
X90153296Y-82923571D01*
X90071616Y-83235108D01*
X90052282Y-83556595D01*
X82639397Y-83556595D01*
X82003104Y-82920303D01*
X81979301Y-82891299D01*
X81863576Y-82796326D01*
X81789005Y-82756467D01*
X81852513Y-82547111D01*
X81871081Y-82358587D01*
X90738192Y-82358587D01*
X91694000Y-83314395D01*
X92649808Y-82358587D01*
X97238192Y-82358587D01*
X98194000Y-83314395D01*
X99149808Y-82358587D01*
X99103810Y-82231587D01*
X103438192Y-82231587D01*
X104394000Y-83187395D01*
X105349808Y-82231587D01*
X109938192Y-82231587D01*
X110894000Y-83187395D01*
X111849808Y-82231587D01*
X111754044Y-81967186D01*
X111464429Y-81826296D01*
X111152892Y-81744616D01*
X110831405Y-81725282D01*
X110512325Y-81769039D01*
X110207912Y-81874205D01*
X110033956Y-81967186D01*
X109938192Y-82231587D01*
X105349808Y-82231587D01*
X105254044Y-81967186D01*
X104964429Y-81826296D01*
X104652892Y-81744616D01*
X104331405Y-81725282D01*
X104012325Y-81769039D01*
X103707912Y-81874205D01*
X103533956Y-81967186D01*
X103438192Y-82231587D01*
X99103810Y-82231587D01*
X99054044Y-82094186D01*
X98764429Y-81953296D01*
X98452892Y-81871616D01*
X98131405Y-81852282D01*
X97812325Y-81896039D01*
X97507912Y-82001205D01*
X97333956Y-82094186D01*
X97238192Y-82358587D01*
X92649808Y-82358587D01*
X92554044Y-82094186D01*
X92264429Y-81953296D01*
X91952892Y-81871616D01*
X91631405Y-81852282D01*
X91312325Y-81896039D01*
X91007912Y-82001205D01*
X90833956Y-82094186D01*
X90738192Y-82358587D01*
X81871081Y-82358587D01*
X81881185Y-82256000D01*
X81852513Y-81964889D01*
X81767599Y-81684966D01*
X81629706Y-81426986D01*
X81448392Y-81206055D01*
X81483180Y-81195502D01*
X81593494Y-81136537D01*
X81690185Y-81057185D01*
X81769537Y-80960494D01*
X81828502Y-80850180D01*
X81864812Y-80730482D01*
X81877072Y-80606000D01*
X81874000Y-80041750D01*
X81715250Y-79883000D01*
X80391000Y-79883000D01*
X80391000Y-79903000D01*
X80137000Y-79903000D01*
X80137000Y-79883000D01*
X78812750Y-79883000D01*
X78654000Y-80041750D01*
X78650928Y-80606000D01*
X78663188Y-80730482D01*
X78699498Y-80850180D01*
X78758463Y-80960494D01*
X78837815Y-81057185D01*
X78934506Y-81136537D01*
X79044820Y-81195502D01*
X79079608Y-81206055D01*
X78898294Y-81426986D01*
X78760401Y-81684966D01*
X78675487Y-81964889D01*
X78646815Y-82256000D01*
X74370000Y-82256000D01*
X74370000Y-78906000D01*
X78650928Y-78906000D01*
X78654000Y-79470250D01*
X78812750Y-79629000D01*
X80137000Y-79629000D01*
X80137000Y-78429750D01*
X80391000Y-78429750D01*
X80391000Y-79629000D01*
X81715250Y-79629000D01*
X81874000Y-79470250D01*
X81877072Y-78906000D01*
X81869880Y-78832967D01*
X90059000Y-78832967D01*
X90059000Y-79155033D01*
X90121832Y-79470912D01*
X90245082Y-79768463D01*
X90424013Y-80036252D01*
X90651748Y-80263987D01*
X90919537Y-80442918D01*
X91217088Y-80566168D01*
X91532967Y-80629000D01*
X91855033Y-80629000D01*
X92170912Y-80566168D01*
X92468463Y-80442918D01*
X92736252Y-80263987D01*
X92963987Y-80036252D01*
X93142918Y-79768463D01*
X93148909Y-79754000D01*
X96739091Y-79754000D01*
X96745082Y-79768463D01*
X96924013Y-80036252D01*
X97151748Y-80263987D01*
X97419537Y-80442918D01*
X97717088Y-80566168D01*
X98032967Y-80629000D01*
X98355033Y-80629000D01*
X98670912Y-80566168D01*
X98968463Y-80442918D01*
X99236252Y-80263987D01*
X99463987Y-80036252D01*
X99642918Y-79768463D01*
X99766168Y-79470912D01*
X99829000Y-79155033D01*
X99829000Y-78832967D01*
X99803739Y-78705967D01*
X102759000Y-78705967D01*
X102759000Y-79028033D01*
X102821832Y-79343912D01*
X102945082Y-79641463D01*
X103124013Y-79909252D01*
X103351748Y-80136987D01*
X103619537Y-80315918D01*
X103917088Y-80439168D01*
X104232967Y-80502000D01*
X104555033Y-80502000D01*
X104870912Y-80439168D01*
X105168463Y-80315918D01*
X105436252Y-80136987D01*
X105663987Y-79909252D01*
X105842918Y-79641463D01*
X105848909Y-79627000D01*
X109439091Y-79627000D01*
X109445082Y-79641463D01*
X109624013Y-79909252D01*
X109851748Y-80136987D01*
X110119537Y-80315918D01*
X110417088Y-80439168D01*
X110732967Y-80502000D01*
X111055033Y-80502000D01*
X111370912Y-80439168D01*
X111668463Y-80315918D01*
X111936252Y-80136987D01*
X112163987Y-79909252D01*
X112342918Y-79641463D01*
X112348909Y-79627000D01*
X118320899Y-79627000D01*
X121119901Y-82426003D01*
X121143699Y-82455001D01*
X121172697Y-82478799D01*
X121259423Y-82549974D01*
X121379031Y-82613906D01*
X121391453Y-82620546D01*
X121534714Y-82664003D01*
X121587053Y-82669158D01*
X121650224Y-82763700D01*
X113109633Y-82763700D01*
X113072300Y-82760023D01*
X113034967Y-82763700D01*
X112923314Y-82774697D01*
X112780053Y-82818154D01*
X112648024Y-82888726D01*
X112532299Y-82983699D01*
X112508501Y-83012697D01*
X112497257Y-83023941D01*
X112491961Y-82985325D01*
X112386795Y-82680912D01*
X112293814Y-82506956D01*
X112029413Y-82411192D01*
X111073605Y-83367000D01*
X111087748Y-83381143D01*
X110908143Y-83560748D01*
X110894000Y-83546605D01*
X109938192Y-84502413D01*
X110033956Y-84766814D01*
X110323571Y-84907704D01*
X110553271Y-84967928D01*
X107680844Y-87840355D01*
X107573486Y-87819000D01*
X107310514Y-87819000D01*
X107052595Y-87870304D01*
X106809641Y-87970939D01*
X106590987Y-88117038D01*
X106405038Y-88302987D01*
X106258939Y-88521641D01*
X106158304Y-88764595D01*
X106107000Y-89022514D01*
X106107000Y-89285486D01*
X106158304Y-89543405D01*
X106258939Y-89786359D01*
X106405038Y-90005013D01*
X106590987Y-90190962D01*
X106809641Y-90337061D01*
X107052595Y-90437696D01*
X107310514Y-90489000D01*
X107573486Y-90489000D01*
X107831405Y-90437696D01*
X108074359Y-90337061D01*
X108293013Y-90190962D01*
X108478962Y-90005013D01*
X108625061Y-89786359D01*
X108712000Y-89576470D01*
X108798939Y-89786359D01*
X108945038Y-90005013D01*
X109130987Y-90190962D01*
X109349641Y-90337061D01*
X109592595Y-90437696D01*
X109850514Y-90489000D01*
X110113486Y-90489000D01*
X110371405Y-90437696D01*
X110614359Y-90337061D01*
X110833013Y-90190962D01*
X111018962Y-90005013D01*
X111082250Y-89910295D01*
X111156286Y-89903003D01*
X111299547Y-89859546D01*
X111431576Y-89788974D01*
X111547301Y-89694001D01*
X111571104Y-89664997D01*
X116282802Y-84953300D01*
X121683633Y-84953300D01*
X121537320Y-85172273D01*
X121429147Y-85433426D01*
X121374000Y-85710665D01*
X121374000Y-85993335D01*
X121429147Y-86270574D01*
X121537320Y-86531727D01*
X121694363Y-86766759D01*
X121894241Y-86966637D01*
X122129273Y-87123680D01*
X122390426Y-87231853D01*
X122667665Y-87287000D01*
X122950335Y-87287000D01*
X123227574Y-87231853D01*
X123488727Y-87123680D01*
X123723759Y-86966637D01*
X123923637Y-86766759D01*
X124080680Y-86531727D01*
X124188853Y-86270574D01*
X124244000Y-85993335D01*
X124244000Y-85710665D01*
X124188853Y-85433426D01*
X124080680Y-85172273D01*
X123934367Y-84953300D01*
X131843633Y-84953300D01*
X131697320Y-85172273D01*
X131589147Y-85433426D01*
X131534000Y-85710665D01*
X131534000Y-85993335D01*
X131589147Y-86270574D01*
X131697320Y-86531727D01*
X131854363Y-86766759D01*
X132054241Y-86966637D01*
X132289273Y-87123680D01*
X132550426Y-87231853D01*
X132827665Y-87287000D01*
X133110335Y-87287000D01*
X133292886Y-87250688D01*
X135267200Y-89225002D01*
X135290999Y-89254001D01*
X135406724Y-89348974D01*
X135538753Y-89419546D01*
X135682014Y-89463003D01*
X135793667Y-89474000D01*
X135793676Y-89474000D01*
X135830999Y-89477676D01*
X135868322Y-89474000D01*
X136104483Y-89474000D01*
X136102147Y-89481700D01*
X136079267Y-89714000D01*
X136102147Y-89946300D01*
X136169906Y-90169674D01*
X136279942Y-90375536D01*
X136428025Y-90555975D01*
X136608464Y-90704058D01*
X136814326Y-90814094D01*
X137037700Y-90881853D01*
X137211793Y-90899000D01*
X138728207Y-90899000D01*
X138827306Y-90889239D01*
X138755266Y-90960052D01*
X138623804Y-91153187D01*
X138532546Y-91368258D01*
X138485000Y-91597000D01*
X138485000Y-92297000D01*
X139543000Y-92297000D01*
X139543000Y-90705639D01*
X139426801Y-90625876D01*
X139511975Y-90555975D01*
X139660058Y-90375536D01*
X139770094Y-90169674D01*
X139837853Y-89946300D01*
X139860733Y-89714000D01*
X139837853Y-89481700D01*
X139835517Y-89474000D01*
X143220499Y-89474000D01*
X144738099Y-90991601D01*
X144679943Y-91062464D01*
X144670000Y-91081065D01*
X144660058Y-91062464D01*
X144511975Y-90882025D01*
X144331536Y-90733942D01*
X144125674Y-90623906D01*
X143902300Y-90556147D01*
X143670000Y-90533267D01*
X143437701Y-90556147D01*
X143214327Y-90623906D01*
X143008465Y-90733942D01*
X142828026Y-90882025D01*
X142700270Y-91037695D01*
X142660058Y-90962464D01*
X142511975Y-90782025D01*
X142331536Y-90633942D01*
X142125674Y-90523906D01*
X141902300Y-90456147D01*
X141670000Y-90433267D01*
X141437701Y-90456147D01*
X141214327Y-90523906D01*
X141008465Y-90633942D01*
X140828026Y-90782025D01*
X140679943Y-90962464D01*
X140638786Y-91039462D01*
X140584734Y-90960052D01*
X140418119Y-90796275D01*
X140222754Y-90668150D01*
X140006147Y-90580601D01*
X139979744Y-90580197D01*
X139797000Y-90705639D01*
X139797000Y-92297000D01*
X139817000Y-92297000D01*
X139817000Y-92551000D01*
X139797000Y-92551000D01*
X139797000Y-94142361D01*
X139979744Y-94267803D01*
X140006147Y-94267399D01*
X140222754Y-94179850D01*
X140418119Y-94051725D01*
X140584734Y-93887948D01*
X140703211Y-93713889D01*
X140828025Y-93865975D01*
X141008464Y-94014058D01*
X141214326Y-94124094D01*
X141437700Y-94191853D01*
X141670000Y-94214733D01*
X141902299Y-94191853D01*
X142125673Y-94124094D01*
X142331535Y-94014058D01*
X142511975Y-93865975D01*
X142639731Y-93710305D01*
X142679942Y-93785535D01*
X142828025Y-93965975D01*
X143008464Y-94114058D01*
X143214326Y-94224094D01*
X143437700Y-94291853D01*
X143670000Y-94314733D01*
X143902299Y-94291853D01*
X144125673Y-94224094D01*
X144331535Y-94114058D01*
X144511975Y-93965975D01*
X144660058Y-93785536D01*
X144670000Y-93766935D01*
X144679942Y-93785535D01*
X144828025Y-93965975D01*
X145008464Y-94114058D01*
X145214326Y-94224094D01*
X145437700Y-94291853D01*
X145670000Y-94314733D01*
X145902299Y-94291853D01*
X146125673Y-94224094D01*
X146331535Y-94114058D01*
X146511975Y-93965975D01*
X146660058Y-93785536D01*
X146670000Y-93766935D01*
X146679942Y-93785535D01*
X146828025Y-93965975D01*
X147008464Y-94114058D01*
X147214326Y-94224094D01*
X147437700Y-94291853D01*
X147670000Y-94314733D01*
X147902299Y-94291853D01*
X148125673Y-94224094D01*
X148331535Y-94114058D01*
X148511975Y-93965975D01*
X148660058Y-93785536D01*
X148670000Y-93766935D01*
X148679942Y-93785535D01*
X148828025Y-93965975D01*
X149008464Y-94114058D01*
X149214326Y-94224094D01*
X149437700Y-94291853D01*
X149670000Y-94314733D01*
X149902299Y-94291853D01*
X150125673Y-94224094D01*
X150331535Y-94114058D01*
X150511975Y-93965975D01*
X150660058Y-93785536D01*
X150670000Y-93766935D01*
X150679942Y-93785535D01*
X150828025Y-93965975D01*
X151008464Y-94114058D01*
X151214326Y-94224094D01*
X151437700Y-94291853D01*
X151670000Y-94314733D01*
X151902299Y-94291853D01*
X152125673Y-94224094D01*
X152331535Y-94114058D01*
X152511975Y-93965975D01*
X152660058Y-93785536D01*
X152670000Y-93766935D01*
X152679942Y-93785535D01*
X152828025Y-93965975D01*
X153008464Y-94114058D01*
X153214326Y-94224094D01*
X153437700Y-94291853D01*
X153670000Y-94314733D01*
X153902299Y-94291853D01*
X154125673Y-94224094D01*
X154331535Y-94114058D01*
X154511975Y-93965975D01*
X154660058Y-93785536D01*
X154770094Y-93579674D01*
X154837853Y-93356300D01*
X154855000Y-93182207D01*
X154855000Y-91665793D01*
X154837853Y-91491700D01*
X154770094Y-91268326D01*
X154660058Y-91062464D01*
X154511975Y-90882025D01*
X154331536Y-90733942D01*
X154125674Y-90623906D01*
X153902300Y-90556147D01*
X153670000Y-90533267D01*
X153437701Y-90556147D01*
X153214327Y-90623906D01*
X153008465Y-90733942D01*
X152828026Y-90882025D01*
X152679943Y-91062464D01*
X152670000Y-91081065D01*
X152660058Y-91062464D01*
X152511975Y-90882025D01*
X152331536Y-90733942D01*
X152125674Y-90623906D01*
X151902300Y-90556147D01*
X151670000Y-90533267D01*
X151437701Y-90556147D01*
X151214327Y-90623906D01*
X151008465Y-90733942D01*
X150828026Y-90882025D01*
X150679943Y-91062464D01*
X150670000Y-91081065D01*
X150660058Y-91062464D01*
X150511975Y-90882025D01*
X150331536Y-90733942D01*
X150125674Y-90623906D01*
X149902300Y-90556147D01*
X149670000Y-90533267D01*
X149437701Y-90556147D01*
X149214327Y-90623906D01*
X149008465Y-90733942D01*
X148828026Y-90882025D01*
X148679943Y-91062464D01*
X148670000Y-91081065D01*
X148660058Y-91062464D01*
X148511975Y-90882025D01*
X148331536Y-90733942D01*
X148125674Y-90623906D01*
X147902300Y-90556147D01*
X147670000Y-90533267D01*
X147437701Y-90556147D01*
X147214327Y-90623906D01*
X147008465Y-90733942D01*
X146828026Y-90882025D01*
X146679943Y-91062464D01*
X146670000Y-91081065D01*
X146660058Y-91062464D01*
X146511975Y-90882025D01*
X146430362Y-90815046D01*
X146430000Y-90811375D01*
X146430000Y-90811367D01*
X146419003Y-90699714D01*
X146375546Y-90556453D01*
X146304974Y-90424424D01*
X146210001Y-90308699D01*
X146181003Y-90284901D01*
X144099104Y-88203003D01*
X144075301Y-88173999D01*
X143959576Y-88079026D01*
X143827547Y-88008454D01*
X143684286Y-87964997D01*
X143572633Y-87954000D01*
X143572622Y-87954000D01*
X143535300Y-87950324D01*
X143497978Y-87954000D01*
X139835517Y-87954000D01*
X139837853Y-87946300D01*
X139860733Y-87714000D01*
X139837853Y-87481700D01*
X139770094Y-87258326D01*
X139660058Y-87052464D01*
X139511975Y-86872025D01*
X139331536Y-86723942D01*
X139312936Y-86714000D01*
X139331536Y-86704058D01*
X139511975Y-86555975D01*
X139660058Y-86375536D01*
X139770094Y-86169674D01*
X139837853Y-85946300D01*
X139860733Y-85714000D01*
X139837853Y-85481700D01*
X139770094Y-85258326D01*
X139660058Y-85052464D01*
X139511975Y-84872025D01*
X139331536Y-84723942D01*
X139312936Y-84714000D01*
X139331536Y-84704058D01*
X139511975Y-84555975D01*
X139660058Y-84375536D01*
X139770094Y-84169674D01*
X139837853Y-83946300D01*
X139860733Y-83714000D01*
X139837853Y-83481700D01*
X139835517Y-83474000D01*
X143517978Y-83474000D01*
X143555300Y-83477676D01*
X143592622Y-83474000D01*
X143592633Y-83474000D01*
X143704286Y-83463003D01*
X143847547Y-83419546D01*
X143979576Y-83348974D01*
X144095301Y-83254001D01*
X144119104Y-83224997D01*
X148181003Y-79163099D01*
X148210001Y-79139301D01*
X148304974Y-79023576D01*
X148375546Y-78891547D01*
X148419003Y-78748286D01*
X148430000Y-78636633D01*
X148430362Y-78632953D01*
X148511975Y-78565975D01*
X148660058Y-78385536D01*
X148670000Y-78366935D01*
X148679942Y-78385535D01*
X148828025Y-78565975D01*
X149008464Y-78714058D01*
X149214326Y-78824094D01*
X149437700Y-78891853D01*
X149670000Y-78914733D01*
X149902299Y-78891853D01*
X150125673Y-78824094D01*
X150331535Y-78714058D01*
X150511975Y-78565975D01*
X150660058Y-78385536D01*
X150670000Y-78366935D01*
X150679942Y-78385535D01*
X150828025Y-78565975D01*
X151008464Y-78714058D01*
X151214326Y-78824094D01*
X151437700Y-78891853D01*
X151670000Y-78914733D01*
X151902299Y-78891853D01*
X152125673Y-78824094D01*
X152331535Y-78714058D01*
X152511975Y-78565975D01*
X152538663Y-78533456D01*
X152589463Y-78628494D01*
X152668815Y-78725185D01*
X152765506Y-78804537D01*
X152875820Y-78863502D01*
X152995518Y-78899812D01*
X153120000Y-78912072D01*
X154220000Y-78912072D01*
X154344482Y-78899812D01*
X154464180Y-78863502D01*
X154574494Y-78804537D01*
X154671185Y-78725185D01*
X154750537Y-78628494D01*
X154809502Y-78518180D01*
X154845812Y-78398482D01*
X154858072Y-78274000D01*
X154858072Y-75774000D01*
X154845812Y-75649518D01*
X154809502Y-75529820D01*
X154750537Y-75419506D01*
X154671185Y-75322815D01*
X154574494Y-75243463D01*
X154464180Y-75184498D01*
X154344482Y-75148188D01*
X154220000Y-75135928D01*
X153120000Y-75135928D01*
X152995518Y-75148188D01*
X152875820Y-75184498D01*
X152765506Y-75243463D01*
X152668815Y-75322815D01*
X152589463Y-75419506D01*
X152538663Y-75514544D01*
X152511975Y-75482025D01*
X152331536Y-75333942D01*
X152125674Y-75223906D01*
X151902300Y-75156147D01*
X151670000Y-75133267D01*
X151437701Y-75156147D01*
X151214327Y-75223906D01*
X151008465Y-75333942D01*
X150828026Y-75482025D01*
X150679943Y-75662464D01*
X150670000Y-75681065D01*
X150660058Y-75662464D01*
X150511975Y-75482025D01*
X150331536Y-75333942D01*
X150125674Y-75223906D01*
X149902300Y-75156147D01*
X149670000Y-75133267D01*
X149437701Y-75156147D01*
X149214327Y-75223906D01*
X149008465Y-75333942D01*
X148828026Y-75482025D01*
X148679943Y-75662464D01*
X148670000Y-75681065D01*
X148660058Y-75662464D01*
X148511975Y-75482025D01*
X148331536Y-75333942D01*
X148125674Y-75223906D01*
X147902300Y-75156147D01*
X147670000Y-75133267D01*
X147437701Y-75156147D01*
X147214327Y-75223906D01*
X147008465Y-75333942D01*
X146828026Y-75482025D01*
X146679943Y-75662464D01*
X146670000Y-75681065D01*
X146660058Y-75662464D01*
X146511975Y-75482025D01*
X146331536Y-75333942D01*
X146125674Y-75223906D01*
X145902300Y-75156147D01*
X145670000Y-75133267D01*
X145437701Y-75156147D01*
X145214327Y-75223906D01*
X145008465Y-75333942D01*
X144828026Y-75482025D01*
X144679943Y-75662464D01*
X144670000Y-75681065D01*
X144660058Y-75662464D01*
X144511975Y-75482025D01*
X144331536Y-75333942D01*
X144125674Y-75223906D01*
X143902300Y-75156147D01*
X143670000Y-75133267D01*
X143437701Y-75156147D01*
X143214327Y-75223906D01*
X143008465Y-75333942D01*
X142828026Y-75482025D01*
X142679943Y-75662464D01*
X142670000Y-75681065D01*
X142660058Y-75662464D01*
X142511975Y-75482025D01*
X142331536Y-75333942D01*
X142125674Y-75223906D01*
X141902300Y-75156147D01*
X141670000Y-75133267D01*
X141437701Y-75156147D01*
X141214327Y-75223906D01*
X141008465Y-75333942D01*
X140828026Y-75482025D01*
X140679943Y-75662464D01*
X140670000Y-75681065D01*
X140660058Y-75662464D01*
X140511975Y-75482025D01*
X140331536Y-75333942D01*
X140125674Y-75223906D01*
X139902300Y-75156147D01*
X139670000Y-75133267D01*
X139437701Y-75156147D01*
X139214327Y-75223906D01*
X139008465Y-75333942D01*
X138828026Y-75482025D01*
X138679943Y-75662464D01*
X138569906Y-75868326D01*
X138502147Y-76091700D01*
X138485000Y-76265793D01*
X138485000Y-76964000D01*
X133844304Y-76964000D01*
X133648727Y-76833320D01*
X133387574Y-76725147D01*
X133235504Y-76694898D01*
X138050402Y-71880000D01*
X145085957Y-71880000D01*
X145189363Y-72034759D01*
X145389241Y-72234637D01*
X145624273Y-72391680D01*
X145885426Y-72499853D01*
X146162665Y-72555000D01*
X146445335Y-72555000D01*
X146722574Y-72499853D01*
X146983727Y-72391680D01*
X147218759Y-72234637D01*
X147418637Y-72034759D01*
X147575680Y-71799727D01*
X147683853Y-71538574D01*
X147739000Y-71261335D01*
X147739000Y-70978665D01*
X147683853Y-70701426D01*
X147575680Y-70440273D01*
X147418637Y-70205241D01*
X147218759Y-70005363D01*
X146983727Y-69848320D01*
X146722574Y-69740147D01*
X146445335Y-69685000D01*
X146162665Y-69685000D01*
X145885426Y-69740147D01*
X145624273Y-69848320D01*
X145389241Y-70005363D01*
X145189363Y-70205241D01*
X145085957Y-70360000D01*
X137772925Y-70360000D01*
X137735600Y-70356324D01*
X137698275Y-70360000D01*
X137698267Y-70360000D01*
X137586614Y-70370997D01*
X137443353Y-70414454D01*
X137410251Y-70432148D01*
X137258637Y-70205241D01*
X137058759Y-70005363D01*
X136823727Y-69848320D01*
X136562574Y-69740147D01*
X136285335Y-69685000D01*
X136002665Y-69685000D01*
X135725426Y-69740147D01*
X135464273Y-69848320D01*
X135229241Y-70005363D01*
X135029363Y-70205241D01*
X134872320Y-70440273D01*
X134764147Y-70701426D01*
X134709000Y-70978665D01*
X134709000Y-71261335D01*
X134764147Y-71538574D01*
X134872320Y-71799727D01*
X135029363Y-72034759D01*
X135229241Y-72234637D01*
X135419221Y-72361577D01*
X125017099Y-82763700D01*
X123967776Y-82763700D01*
X124080680Y-82594727D01*
X124188853Y-82333574D01*
X124244000Y-82056335D01*
X124244000Y-81773665D01*
X124188853Y-81496426D01*
X124080680Y-81235273D01*
X123923637Y-81000241D01*
X123723759Y-80800363D01*
X123488727Y-80643320D01*
X123227574Y-80535147D01*
X122950335Y-80480000D01*
X122667665Y-80480000D01*
X122390426Y-80535147D01*
X122129273Y-80643320D01*
X121894241Y-80800363D01*
X121769053Y-80925551D01*
X119199504Y-78356003D01*
X119175701Y-78326999D01*
X119059976Y-78232026D01*
X118927947Y-78161454D01*
X118784686Y-78117997D01*
X118673033Y-78107000D01*
X118673022Y-78107000D01*
X118635700Y-78103324D01*
X118598378Y-78107000D01*
X112348909Y-78107000D01*
X112342918Y-78092537D01*
X112256809Y-77963665D01*
X121374000Y-77963665D01*
X121374000Y-78246335D01*
X121429147Y-78523574D01*
X121537320Y-78784727D01*
X121694363Y-79019759D01*
X121894241Y-79219637D01*
X122129273Y-79376680D01*
X122390426Y-79484853D01*
X122667665Y-79540000D01*
X122950335Y-79540000D01*
X123227574Y-79484853D01*
X123488727Y-79376680D01*
X123723759Y-79219637D01*
X123923637Y-79019759D01*
X124080680Y-78784727D01*
X124188853Y-78523574D01*
X124244000Y-78246335D01*
X124244000Y-77963665D01*
X124188853Y-77686426D01*
X124080680Y-77425273D01*
X123923637Y-77190241D01*
X123723759Y-76990363D01*
X123488727Y-76833320D01*
X123227574Y-76725147D01*
X122950335Y-76670000D01*
X122667665Y-76670000D01*
X122390426Y-76725147D01*
X122129273Y-76833320D01*
X121894241Y-76990363D01*
X121694363Y-77190241D01*
X121537320Y-77425273D01*
X121429147Y-77686426D01*
X121374000Y-77963665D01*
X112256809Y-77963665D01*
X112163987Y-77824748D01*
X111936252Y-77597013D01*
X111668463Y-77418082D01*
X111370912Y-77294832D01*
X111055033Y-77232000D01*
X110732967Y-77232000D01*
X110417088Y-77294832D01*
X110119537Y-77418082D01*
X109851748Y-77597013D01*
X109624013Y-77824748D01*
X109445082Y-78092537D01*
X109439091Y-78107000D01*
X105848909Y-78107000D01*
X105842918Y-78092537D01*
X105663987Y-77824748D01*
X105436252Y-77597013D01*
X105168463Y-77418082D01*
X104870912Y-77294832D01*
X104555033Y-77232000D01*
X104232967Y-77232000D01*
X103917088Y-77294832D01*
X103619537Y-77418082D01*
X103351748Y-77597013D01*
X103124013Y-77824748D01*
X102945082Y-78092537D01*
X102821832Y-78390088D01*
X102759000Y-78705967D01*
X99803739Y-78705967D01*
X99766168Y-78517088D01*
X99642918Y-78219537D01*
X99463987Y-77951748D01*
X99236252Y-77724013D01*
X98968463Y-77545082D01*
X98670912Y-77421832D01*
X98355033Y-77359000D01*
X98032967Y-77359000D01*
X97717088Y-77421832D01*
X97419537Y-77545082D01*
X97151748Y-77724013D01*
X96924013Y-77951748D01*
X96745082Y-78219537D01*
X96739091Y-78234000D01*
X93148909Y-78234000D01*
X93142918Y-78219537D01*
X92963987Y-77951748D01*
X92736252Y-77724013D01*
X92468463Y-77545082D01*
X92170912Y-77421832D01*
X91855033Y-77359000D01*
X91532967Y-77359000D01*
X91217088Y-77421832D01*
X90919537Y-77545082D01*
X90651748Y-77724013D01*
X90424013Y-77951748D01*
X90245082Y-78219537D01*
X90121832Y-78517088D01*
X90059000Y-78832967D01*
X81869880Y-78832967D01*
X81864812Y-78781518D01*
X81828502Y-78661820D01*
X81769537Y-78551506D01*
X81690185Y-78454815D01*
X81593494Y-78375463D01*
X81483180Y-78316498D01*
X81363482Y-78280188D01*
X81239000Y-78267928D01*
X80549750Y-78271000D01*
X80391000Y-78429750D01*
X80137000Y-78429750D01*
X79978250Y-78271000D01*
X79289000Y-78267928D01*
X79164518Y-78280188D01*
X79044820Y-78316498D01*
X78934506Y-78375463D01*
X78837815Y-78454815D01*
X78758463Y-78551506D01*
X78699498Y-78661820D01*
X78663188Y-78781518D01*
X78650928Y-78906000D01*
X74370000Y-78906000D01*
X74370000Y-73165319D01*
X74387561Y-73207715D01*
X74752536Y-73753939D01*
X75217061Y-74218464D01*
X75763285Y-74583439D01*
X76370216Y-74834838D01*
X77014531Y-74963000D01*
X77671469Y-74963000D01*
X78315784Y-74834838D01*
X78922715Y-74583439D01*
X79468939Y-74218464D01*
X79933464Y-73753939D01*
X80298439Y-73207715D01*
X80473119Y-72786000D01*
X123933928Y-72786000D01*
X123946188Y-72910482D01*
X123982498Y-73030180D01*
X124041463Y-73140494D01*
X124120815Y-73237185D01*
X124217506Y-73316537D01*
X124327820Y-73375502D01*
X124447518Y-73411812D01*
X124572000Y-73424072D01*
X124936250Y-73421000D01*
X125095000Y-73262250D01*
X125095000Y-72263000D01*
X124095750Y-72263000D01*
X123937000Y-72421750D01*
X123933928Y-72786000D01*
X80473119Y-72786000D01*
X80549838Y-72600784D01*
X80678000Y-71956469D01*
X80678000Y-71486000D01*
X123933928Y-71486000D01*
X123937000Y-71850250D01*
X124095750Y-72009000D01*
X125095000Y-72009000D01*
X125095000Y-71989000D01*
X125349000Y-71989000D01*
X125349000Y-72009000D01*
X125369000Y-72009000D01*
X125369000Y-72263000D01*
X125349000Y-72263000D01*
X125349000Y-73262250D01*
X125507750Y-73421000D01*
X125872000Y-73424072D01*
X125996482Y-73411812D01*
X126116180Y-73375502D01*
X126226494Y-73316537D01*
X126323185Y-73237185D01*
X126402537Y-73140494D01*
X126461502Y-73030180D01*
X126497812Y-72910482D01*
X126510072Y-72786000D01*
X126507000Y-72421750D01*
X126348252Y-72263002D01*
X126477088Y-72263002D01*
X126526381Y-72510821D01*
X126623247Y-72744676D01*
X126763875Y-72955140D01*
X126942860Y-73134125D01*
X127153324Y-73274753D01*
X127387179Y-73371619D01*
X127635439Y-73421000D01*
X127888561Y-73421000D01*
X128136821Y-73371619D01*
X128370676Y-73274753D01*
X128581140Y-73134125D01*
X128760125Y-72955140D01*
X128900753Y-72744676D01*
X128997619Y-72510821D01*
X129047000Y-72262561D01*
X129047000Y-72009439D01*
X128997619Y-71761179D01*
X128900753Y-71527324D01*
X128760125Y-71316860D01*
X128581140Y-71137875D01*
X128370676Y-70997247D01*
X128136821Y-70900381D01*
X127888561Y-70851000D01*
X127777000Y-70851000D01*
X127777000Y-70739439D01*
X127727619Y-70491179D01*
X127630753Y-70257324D01*
X127490125Y-70046860D01*
X127311140Y-69867875D01*
X127100676Y-69727247D01*
X126866821Y-69630381D01*
X126618561Y-69581000D01*
X126365439Y-69581000D01*
X126117179Y-69630381D01*
X125883324Y-69727247D01*
X125672860Y-69867875D01*
X125493875Y-70046860D01*
X125353247Y-70257324D01*
X125256381Y-70491179D01*
X125207000Y-70739439D01*
X125207000Y-70851000D01*
X125094998Y-70851000D01*
X125094998Y-71009748D01*
X124936250Y-70851000D01*
X124572000Y-70847928D01*
X124447518Y-70860188D01*
X124327820Y-70896498D01*
X124217506Y-70955463D01*
X124120815Y-71034815D01*
X124041463Y-71131506D01*
X123982498Y-71241820D01*
X123946188Y-71361518D01*
X123933928Y-71486000D01*
X80678000Y-71486000D01*
X80678000Y-71299531D01*
X80549838Y-70655216D01*
X80298439Y-70048285D01*
X79933464Y-69502061D01*
X79468939Y-69037536D01*
X78922715Y-68672561D01*
X78880319Y-68655000D01*
X155448000Y-68655000D01*
X155448000Y-102870000D01*
M02*
