M48
; DRILL file {KiCad 7.0.9} date 
; FORMAT={-:-/ absolute / inch / decimal}
; #@! TF.CreationDate,2024-01-09T09:24:11+01:00
; #@! TF.GenerationSoftware,Kicad,Pcbnew,7.0.9
; #@! TF.FileFunction,Plated,1,2,PTH
FMAT,2
INCH
; #@! TA.AperFunction,Plated,PTH,ViaDrill
T1C0.0157
; #@! TA.AperFunction,Plated,PTH,ComponentDrill
T2C0.0197
; #@! TA.AperFunction,Plated,PTH,ComponentDrill
T3C0.0236
; #@! TA.AperFunction,Plated,PTH,ComponentDrill
T4C0.0295
; #@! TA.AperFunction,Plated,PTH,ComponentDrill
T5C0.0315
; #@! TA.AperFunction,Plated,PTH,ComponentDrill
T6C0.0394
; #@! TA.AperFunction,Plated,PTH,ComponentDrill
T7C0.0433
; #@! TA.AperFunction,Plated,PTH,ComponentDrill
T8C0.0472
; #@! TA.AperFunction,Plated,PTH,ComponentDrill
T9C0.1260
%
G90
G05
T1
X3.7516Y-3.6564
X4.4796Y-3.5841
X4.8903Y-3.7418
X5.8038Y-2.8519
X5.8433Y-3.4514
X5.9882Y-4.0438
X6.0084Y-4.114
X6.0539Y-4.289
X6.1118Y-4.1182
X6.1335Y-3.1663
X6.2134Y-4.1182
X6.4024Y-4.1005
X6.4672Y-4.115
T2
X3.0855Y-2.87
X3.0855Y-4.985
X3.1132Y-2.8032
X3.1132Y-2.9368
X3.1132Y-4.9182
X3.1132Y-5.0518
X3.18Y-2.7755
X3.18Y-2.9645
X3.18Y-4.8905
X3.18Y-5.0795
X3.2468Y-2.8032
X3.2468Y-2.9368
X3.2468Y-4.9182
X3.2468Y-5.0518
X3.2745Y-2.87
X3.2745Y-4.985
X6.6055Y-2.865
X6.6055Y-4.985
X6.6332Y-2.7982
X6.6332Y-2.9318
X6.6332Y-4.9182
X6.6332Y-5.0518
X6.7Y-2.7705
X6.7Y-2.9595
X6.7Y-4.8905
X6.7Y-5.0795
X6.7668Y-2.7982
X6.7668Y-2.9318
X6.7668Y-4.9182
X6.7668Y-5.0518
X6.7945Y-2.865
X6.7945Y-4.985
T4
X4.29Y-3.62
X4.34Y-3.62
X4.39Y-3.62
X6.72Y-4.55
X6.72Y-4.65
X6.77Y-4.6
T5
X3.1316Y-3.72
X3.3284Y-3.72
X3.58Y-3.77
X3.5813Y-4.01
X3.6587Y-3.77
X3.66Y-4.01
X3.81Y-3.65
X3.8624Y-3.92
X3.9411Y-3.92
X4.0613Y-2.93
X4.11Y-3.65
X4.14Y-2.93
X4.18Y-4.1
X4.18Y-4.26
X4.2124Y-3.92
X4.2911Y-3.92
X4.2913Y-2.93
X4.37Y-2.93
X4.3769Y-4.1
X4.3769Y-4.26
X5.883Y-3.3111
X5.883Y-3.508
X6.0313Y-3.43
X6.11Y-3.43
T6
X3.19Y-3.8898
X3.19Y-3.9898
X4.56Y-3.11
X4.66Y-3.11
X4.76Y-3.11
X4.86Y-3.11
X4.96Y-3.11
X5.06Y-3.11
X5.26Y-2.77
X5.36Y-2.77
X5.46Y-2.77
X5.56Y-2.77
X5.66Y-2.77
X5.76Y-2.77
X5.86Y-2.77
X5.96Y-2.77
X6.06Y-2.77
X6.16Y-2.77
X6.26Y-2.77
X6.36Y-2.77
T7
X6.2578Y-3.192
X6.2578Y-3.4479
X6.435Y-3.192
X6.435Y-3.4479
X6.6014Y-3.192
X6.6014Y-3.448
X6.7786Y-3.192
X6.7786Y-3.448
T8
X3.15Y-3.22
X3.15Y-3.39
X3.15Y-3.56
X3.16Y-4.22
X3.65Y-3.22
X3.65Y-3.39
X3.65Y-3.56
X3.66Y-4.22
X3.83Y-3.14
X3.83Y-3.31
X3.83Y-3.48
X4.33Y-3.14
X4.33Y-3.31
X4.33Y-3.48
X4.569Y-3.425
X4.57Y-3.59
X4.57Y-3.76
X4.57Y-3.93
X5.069Y-3.425
X5.07Y-3.59
X5.07Y-3.76
X5.07Y-3.93
X5.25Y-3.22
X5.25Y-3.39
X5.25Y-3.56
X5.25Y-3.73
X5.25Y-3.9
X5.25Y-4.07
X5.25Y-4.241
X5.75Y-3.22
X5.75Y-3.39
X5.75Y-3.56
X5.75Y-3.73
X5.75Y-3.9
X5.75Y-4.07
X5.75Y-4.241
T9
X3.18Y-2.87
X3.18Y-4.985
X6.7Y-2.865
X6.7Y-4.985
T2
G00X6.29Y-4.7303
M15
G01X6.29Y-4.7697
M16
G05
T3
G00X3.45Y-4.7303
M15
G01X3.45Y-4.7697
M16
G05
T0
M30
