G04 #@! TF.GenerationSoftware,KiCad,Pcbnew,7.0.9*
G04 #@! TF.CreationDate,2024-01-09T09:24:08+01:00*
G04 #@! TF.ProjectId,ltl,6c746c2e-6b69-4636-9164-5f7063625858,rev?*
G04 #@! TF.SameCoordinates,Original*
G04 #@! TF.FileFunction,Legend,Bot*
G04 #@! TF.FilePolarity,Positive*
%FSLAX46Y46*%
G04 Gerber Fmt 4.6, Leading zero omitted, Abs format (unit mm)*
G04 Created by KiCad (PCBNEW 7.0.9) date 2024-01-09 09:24:08*
%MOMM*%
%LPD*%
G01*
G04 APERTURE LIST*
%ADD10C,0.150000*%
%ADD11C,0.100000*%
%ADD12C,0.300000*%
G04 APERTURE END LIST*
D10*
X107442000Y-112776000D02*
X107442000Y-118364000D01*
D11*
X138938000Y-118110000D02*
X135128000Y-118110000D01*
X135128000Y-113030000D01*
X138938000Y-113030000D01*
X138938000Y-118110000D01*
G36*
X138938000Y-118110000D02*
G01*
X135128000Y-118110000D01*
X135128000Y-113030000D01*
X138938000Y-113030000D01*
X138938000Y-118110000D01*
G37*
X143256000Y-118110000D02*
X139446000Y-118110000D01*
X139446000Y-113030000D01*
X143256000Y-113030000D01*
X143256000Y-118110000D01*
G36*
X143256000Y-118110000D02*
G01*
X139446000Y-118110000D01*
X139446000Y-113030000D01*
X143256000Y-113030000D01*
X143256000Y-118110000D01*
G37*
D10*
X143764000Y-118618000D02*
X107188000Y-118618000D01*
X143764000Y-112522000D02*
X143764000Y-118618000D01*
X107188000Y-118618000D02*
X107188000Y-112522000D01*
X134874000Y-118364000D02*
X134874000Y-112776000D01*
X143510000Y-112776000D02*
X107442000Y-112776000D01*
D11*
X134620000Y-118110000D02*
X130810000Y-118110000D01*
X130810000Y-113030000D01*
X134620000Y-113030000D01*
X134620000Y-118110000D01*
G36*
X134620000Y-118110000D02*
G01*
X130810000Y-118110000D01*
X130810000Y-113030000D01*
X134620000Y-113030000D01*
X134620000Y-118110000D01*
G37*
D10*
X107442000Y-118364000D02*
X143510000Y-118364000D01*
X107188000Y-112522000D02*
X143764000Y-112522000D01*
X143510000Y-118364000D02*
X143510000Y-112776000D01*
X130556000Y-118364000D02*
X130556000Y-112776000D01*
X139192000Y-118364000D02*
X139192000Y-112776000D01*
D12*
X109348189Y-114279361D02*
X108681522Y-115231742D01*
X108205332Y-114279361D02*
X108205332Y-116279361D01*
X108205332Y-116279361D02*
X108967237Y-116279361D01*
X108967237Y-116279361D02*
X109157713Y-116184123D01*
X109157713Y-116184123D02*
X109252951Y-116088885D01*
X109252951Y-116088885D02*
X109348189Y-115898409D01*
X109348189Y-115898409D02*
X109348189Y-115612695D01*
X109348189Y-115612695D02*
X109252951Y-115422219D01*
X109252951Y-115422219D02*
X109157713Y-115326980D01*
X109157713Y-115326980D02*
X108967237Y-115231742D01*
X108967237Y-115231742D02*
X108205332Y-115231742D01*
X110967237Y-114374600D02*
X110776761Y-114279361D01*
X110776761Y-114279361D02*
X110395808Y-114279361D01*
X110395808Y-114279361D02*
X110205332Y-114374600D01*
X110205332Y-114374600D02*
X110110094Y-114565076D01*
X110110094Y-114565076D02*
X110110094Y-115326980D01*
X110110094Y-115326980D02*
X110205332Y-115517457D01*
X110205332Y-115517457D02*
X110395808Y-115612695D01*
X110395808Y-115612695D02*
X110776761Y-115612695D01*
X110776761Y-115612695D02*
X110967237Y-115517457D01*
X110967237Y-115517457D02*
X111062475Y-115326980D01*
X111062475Y-115326980D02*
X111062475Y-115136504D01*
X111062475Y-115136504D02*
X110110094Y-114946028D01*
X111729142Y-115612695D02*
X112205332Y-114279361D01*
X112205332Y-114279361D02*
X112681523Y-115612695D01*
X113443428Y-114469838D02*
X113538666Y-114374600D01*
X113538666Y-114374600D02*
X113443428Y-114279361D01*
X113443428Y-114279361D02*
X113348190Y-114374600D01*
X113348190Y-114374600D02*
X113443428Y-114469838D01*
X113443428Y-114469838D02*
X113443428Y-114279361D01*
X114300571Y-116088885D02*
X114395809Y-116184123D01*
X114395809Y-116184123D02*
X114586285Y-116279361D01*
X114586285Y-116279361D02*
X115062476Y-116279361D01*
X115062476Y-116279361D02*
X115252952Y-116184123D01*
X115252952Y-116184123D02*
X115348190Y-116088885D01*
X115348190Y-116088885D02*
X115443428Y-115898409D01*
X115443428Y-115898409D02*
X115443428Y-115707933D01*
X115443428Y-115707933D02*
X115348190Y-115422219D01*
X115348190Y-115422219D02*
X114205333Y-114279361D01*
X114205333Y-114279361D02*
X115443428Y-114279361D01*
X116300571Y-114469838D02*
X116395809Y-114374600D01*
X116395809Y-114374600D02*
X116300571Y-114279361D01*
X116300571Y-114279361D02*
X116205333Y-114374600D01*
X116205333Y-114374600D02*
X116300571Y-114469838D01*
X116300571Y-114469838D02*
X116300571Y-114279361D01*
X117633904Y-116279361D02*
X117824381Y-116279361D01*
X117824381Y-116279361D02*
X118014857Y-116184123D01*
X118014857Y-116184123D02*
X118110095Y-116088885D01*
X118110095Y-116088885D02*
X118205333Y-115898409D01*
X118205333Y-115898409D02*
X118300571Y-115517457D01*
X118300571Y-115517457D02*
X118300571Y-115041266D01*
X118300571Y-115041266D02*
X118205333Y-114660314D01*
X118205333Y-114660314D02*
X118110095Y-114469838D01*
X118110095Y-114469838D02*
X118014857Y-114374600D01*
X118014857Y-114374600D02*
X117824381Y-114279361D01*
X117824381Y-114279361D02*
X117633904Y-114279361D01*
X117633904Y-114279361D02*
X117443428Y-114374600D01*
X117443428Y-114374600D02*
X117348190Y-114469838D01*
X117348190Y-114469838D02*
X117252952Y-114660314D01*
X117252952Y-114660314D02*
X117157714Y-115041266D01*
X117157714Y-115041266D02*
X117157714Y-115517457D01*
X117157714Y-115517457D02*
X117252952Y-115898409D01*
X117252952Y-115898409D02*
X117348190Y-116088885D01*
X117348190Y-116088885D02*
X117443428Y-116184123D01*
X117443428Y-116184123D02*
X117633904Y-116279361D01*
X121633905Y-114279361D02*
X120681524Y-114279361D01*
X120681524Y-114279361D02*
X120681524Y-116279361D01*
X122014858Y-115612695D02*
X122776762Y-115612695D01*
X122300572Y-114279361D02*
X122300572Y-115993647D01*
X122300572Y-115993647D02*
X122395810Y-116184123D01*
X122395810Y-116184123D02*
X122586286Y-116279361D01*
X122586286Y-116279361D02*
X122776762Y-116279361D01*
X124300572Y-114279361D02*
X124300572Y-116279361D01*
X124300572Y-114374600D02*
X124110096Y-114279361D01*
X124110096Y-114279361D02*
X123729143Y-114279361D01*
X123729143Y-114279361D02*
X123538667Y-114374600D01*
X123538667Y-114374600D02*
X123443429Y-114469838D01*
X123443429Y-114469838D02*
X123348191Y-114660314D01*
X123348191Y-114660314D02*
X123348191Y-115231742D01*
X123348191Y-115231742D02*
X123443429Y-115422219D01*
X123443429Y-115422219D02*
X123538667Y-115517457D01*
X123538667Y-115517457D02*
X123729143Y-115612695D01*
X123729143Y-115612695D02*
X124110096Y-115612695D01*
X124110096Y-115612695D02*
X124300572Y-115517457D01*
X125252953Y-114469838D02*
X125348191Y-114374600D01*
X125348191Y-114374600D02*
X125252953Y-114279361D01*
X125252953Y-114279361D02*
X125157715Y-114374600D01*
X125157715Y-114374600D02*
X125252953Y-114469838D01*
X125252953Y-114469838D02*
X125252953Y-114279361D01*
X126205334Y-114279361D02*
X126205334Y-116279361D01*
X126205334Y-116279361D02*
X127348191Y-114279361D01*
X127348191Y-114279361D02*
X127348191Y-116279361D01*
X128300572Y-114279361D02*
X128300572Y-115612695D01*
X128300572Y-115231742D02*
X128395810Y-115422219D01*
X128395810Y-115422219D02*
X128491048Y-115517457D01*
X128491048Y-115517457D02*
X128681524Y-115612695D01*
X128681524Y-115612695D02*
X128872001Y-115612695D01*
X129538667Y-114469838D02*
X129633905Y-114374600D01*
X129633905Y-114374600D02*
X129538667Y-114279361D01*
X129538667Y-114279361D02*
X129443429Y-114374600D01*
X129443429Y-114374600D02*
X129538667Y-114469838D01*
X129538667Y-114469838D02*
X129538667Y-114279361D01*
M02*
