G04 #@! TF.FileFunction,Legend,Top*
%FSLAX46Y46*%
G04 Gerber Fmt 4.6, Leading zero omitted, Abs format (unit mm)*
G04 Created by KiCad (PCBNEW 4.0.6+dfsg1-1) date Thu Nov  9 23:11:41 2017*
%MOMM*%
%LPD*%
G01*
G04 APERTURE LIST*
%ADD10C,0.100000*%
%ADD11C,0.150000*%
%ADD12C,0.120000*%
%ADD13C,0.152400*%
G04 APERTURE END LIST*
D10*
D11*
X90170000Y-95250000D02*
X161290000Y-95250000D01*
X161290000Y-115570000D02*
X161290000Y-95250000D01*
X90170000Y-115570000D02*
X161290000Y-115570000D01*
X90170000Y-95250000D02*
X90170000Y-115570000D01*
D12*
X119908440Y-89190643D02*
G75*
G03X113731764Y-89190000I-3088440J-979357D01*
G01*
X119908440Y-91149357D02*
G75*
G02X113731764Y-91150000I-3088440J979357D01*
G01*
X119908440Y-91149357D02*
G75*
G03X119908236Y-89190000I-3088440J979357D01*
G01*
X116820000Y-86970000D02*
X116820000Y-93370000D01*
X116860000Y-86970000D02*
X116860000Y-93370000D01*
X116900000Y-86970000D02*
X116900000Y-93370000D01*
X116940000Y-86972000D02*
X116940000Y-93368000D01*
X116980000Y-86973000D02*
X116980000Y-93367000D01*
X117020000Y-86976000D02*
X117020000Y-93364000D01*
X117060000Y-86978000D02*
X117060000Y-93362000D01*
X117100000Y-86982000D02*
X117100000Y-89190000D01*
X117100000Y-91150000D02*
X117100000Y-93358000D01*
X117140000Y-86985000D02*
X117140000Y-89190000D01*
X117140000Y-91150000D02*
X117140000Y-93355000D01*
X117180000Y-86990000D02*
X117180000Y-89190000D01*
X117180000Y-91150000D02*
X117180000Y-93350000D01*
X117220000Y-86994000D02*
X117220000Y-89190000D01*
X117220000Y-91150000D02*
X117220000Y-93346000D01*
X117260000Y-87000000D02*
X117260000Y-89190000D01*
X117260000Y-91150000D02*
X117260000Y-93340000D01*
X117300000Y-87005000D02*
X117300000Y-89190000D01*
X117300000Y-91150000D02*
X117300000Y-93335000D01*
X117340000Y-87012000D02*
X117340000Y-89190000D01*
X117340000Y-91150000D02*
X117340000Y-93328000D01*
X117380000Y-87018000D02*
X117380000Y-89190000D01*
X117380000Y-91150000D02*
X117380000Y-93322000D01*
X117420000Y-87026000D02*
X117420000Y-89190000D01*
X117420000Y-91150000D02*
X117420000Y-93314000D01*
X117460000Y-87033000D02*
X117460000Y-89190000D01*
X117460000Y-91150000D02*
X117460000Y-93307000D01*
X117500000Y-87042000D02*
X117500000Y-89190000D01*
X117500000Y-91150000D02*
X117500000Y-93298000D01*
X117541000Y-87051000D02*
X117541000Y-89190000D01*
X117541000Y-91150000D02*
X117541000Y-93289000D01*
X117581000Y-87060000D02*
X117581000Y-89190000D01*
X117581000Y-91150000D02*
X117581000Y-93280000D01*
X117621000Y-87070000D02*
X117621000Y-89190000D01*
X117621000Y-91150000D02*
X117621000Y-93270000D01*
X117661000Y-87080000D02*
X117661000Y-89190000D01*
X117661000Y-91150000D02*
X117661000Y-93260000D01*
X117701000Y-87091000D02*
X117701000Y-89190000D01*
X117701000Y-91150000D02*
X117701000Y-93249000D01*
X117741000Y-87103000D02*
X117741000Y-89190000D01*
X117741000Y-91150000D02*
X117741000Y-93237000D01*
X117781000Y-87115000D02*
X117781000Y-89190000D01*
X117781000Y-91150000D02*
X117781000Y-93225000D01*
X117821000Y-87128000D02*
X117821000Y-89190000D01*
X117821000Y-91150000D02*
X117821000Y-93212000D01*
X117861000Y-87141000D02*
X117861000Y-89190000D01*
X117861000Y-91150000D02*
X117861000Y-93199000D01*
X117901000Y-87155000D02*
X117901000Y-89190000D01*
X117901000Y-91150000D02*
X117901000Y-93185000D01*
X117941000Y-87169000D02*
X117941000Y-89190000D01*
X117941000Y-91150000D02*
X117941000Y-93171000D01*
X117981000Y-87184000D02*
X117981000Y-89190000D01*
X117981000Y-91150000D02*
X117981000Y-93156000D01*
X118021000Y-87200000D02*
X118021000Y-89190000D01*
X118021000Y-91150000D02*
X118021000Y-93140000D01*
X118061000Y-87216000D02*
X118061000Y-89190000D01*
X118061000Y-91150000D02*
X118061000Y-93124000D01*
X118101000Y-87233000D02*
X118101000Y-89190000D01*
X118101000Y-91150000D02*
X118101000Y-93107000D01*
X118141000Y-87251000D02*
X118141000Y-89190000D01*
X118141000Y-91150000D02*
X118141000Y-93089000D01*
X118181000Y-87269000D02*
X118181000Y-89190000D01*
X118181000Y-91150000D02*
X118181000Y-93071000D01*
X118221000Y-87288000D02*
X118221000Y-89190000D01*
X118221000Y-91150000D02*
X118221000Y-93052000D01*
X118261000Y-87307000D02*
X118261000Y-89190000D01*
X118261000Y-91150000D02*
X118261000Y-93033000D01*
X118301000Y-87327000D02*
X118301000Y-89190000D01*
X118301000Y-91150000D02*
X118301000Y-93013000D01*
X118341000Y-87348000D02*
X118341000Y-89190000D01*
X118341000Y-91150000D02*
X118341000Y-92992000D01*
X118381000Y-87370000D02*
X118381000Y-89190000D01*
X118381000Y-91150000D02*
X118381000Y-92970000D01*
X118421000Y-87392000D02*
X118421000Y-89190000D01*
X118421000Y-91150000D02*
X118421000Y-92948000D01*
X118461000Y-87415000D02*
X118461000Y-89190000D01*
X118461000Y-91150000D02*
X118461000Y-92925000D01*
X118501000Y-87439000D02*
X118501000Y-89190000D01*
X118501000Y-91150000D02*
X118501000Y-92901000D01*
X118541000Y-87464000D02*
X118541000Y-89190000D01*
X118541000Y-91150000D02*
X118541000Y-92876000D01*
X118581000Y-87489000D02*
X118581000Y-89190000D01*
X118581000Y-91150000D02*
X118581000Y-92851000D01*
X118621000Y-87516000D02*
X118621000Y-89190000D01*
X118621000Y-91150000D02*
X118621000Y-92824000D01*
X118661000Y-87543000D02*
X118661000Y-89190000D01*
X118661000Y-91150000D02*
X118661000Y-92797000D01*
X118701000Y-87571000D02*
X118701000Y-89190000D01*
X118701000Y-91150000D02*
X118701000Y-92769000D01*
X118741000Y-87600000D02*
X118741000Y-89190000D01*
X118741000Y-91150000D02*
X118741000Y-92740000D01*
X118781000Y-87630000D02*
X118781000Y-89190000D01*
X118781000Y-91150000D02*
X118781000Y-92710000D01*
X118821000Y-87660000D02*
X118821000Y-89190000D01*
X118821000Y-91150000D02*
X118821000Y-92680000D01*
X118861000Y-87692000D02*
X118861000Y-89190000D01*
X118861000Y-91150000D02*
X118861000Y-92648000D01*
X118901000Y-87725000D02*
X118901000Y-89190000D01*
X118901000Y-91150000D02*
X118901000Y-92615000D01*
X118941000Y-87759000D02*
X118941000Y-89190000D01*
X118941000Y-91150000D02*
X118941000Y-92581000D01*
X118981000Y-87795000D02*
X118981000Y-89190000D01*
X118981000Y-91150000D02*
X118981000Y-92545000D01*
X119021000Y-87831000D02*
X119021000Y-89190000D01*
X119021000Y-91150000D02*
X119021000Y-92509000D01*
X119061000Y-87869000D02*
X119061000Y-92471000D01*
X119101000Y-87908000D02*
X119101000Y-92432000D01*
X119141000Y-87948000D02*
X119141000Y-92392000D01*
X119181000Y-87990000D02*
X119181000Y-92350000D01*
X119221000Y-88033000D02*
X119221000Y-92307000D01*
X119261000Y-88078000D02*
X119261000Y-92262000D01*
X119301000Y-88125000D02*
X119301000Y-92215000D01*
X119341000Y-88173000D02*
X119341000Y-92167000D01*
X119381000Y-88224000D02*
X119381000Y-92116000D01*
X119421000Y-88276000D02*
X119421000Y-92064000D01*
X119461000Y-88331000D02*
X119461000Y-92009000D01*
X119501000Y-88389000D02*
X119501000Y-91951000D01*
X119541000Y-88449000D02*
X119541000Y-91891000D01*
X119581000Y-88512000D02*
X119581000Y-91828000D01*
X119621000Y-88579000D02*
X119621000Y-91761000D01*
X119661000Y-88650000D02*
X119661000Y-91690000D01*
X119701000Y-88725000D02*
X119701000Y-91615000D01*
X119741000Y-88806000D02*
X119741000Y-91534000D01*
X119781000Y-88892000D02*
X119781000Y-91448000D01*
X119821000Y-88986000D02*
X119821000Y-91354000D01*
X119861000Y-89089000D02*
X119861000Y-91251000D01*
X119901000Y-89204000D02*
X119901000Y-91136000D01*
X119941000Y-89336000D02*
X119941000Y-91004000D01*
X119981000Y-89494000D02*
X119981000Y-90846000D01*
X120021000Y-89702000D02*
X120021000Y-90638000D01*
X113370000Y-90170000D02*
X114570000Y-90170000D01*
X113970000Y-89520000D02*
X113970000Y-90820000D01*
X103120000Y-92710000D02*
G75*
G03X103120000Y-92710000I-4060000J0D01*
G01*
X95000000Y-92710000D02*
X93340000Y-92710000D01*
X96139000Y-94043500D02*
X96139000Y-91376500D01*
X96139000Y-92710000D02*
X94361000Y-94043500D01*
X94361000Y-94043500D02*
X94361000Y-91376500D01*
X94361000Y-91376500D02*
X96139000Y-92710000D01*
X104290000Y-76090000D02*
X106410000Y-76090000D01*
X106410000Y-76090000D02*
X106410000Y-74350000D01*
X106410000Y-74350000D02*
X104290000Y-74350000D01*
X104290000Y-74350000D02*
X104290000Y-76090000D01*
X105040000Y-74350000D02*
X105780000Y-74350000D01*
X105780000Y-74350000D02*
X105780000Y-70350000D01*
X105780000Y-70350000D02*
X105040000Y-70350000D01*
X105040000Y-70350000D02*
X105040000Y-74350000D01*
X105040000Y-76675000D02*
X105040000Y-76090000D01*
X105780000Y-76675000D02*
X105780000Y-76090000D01*
X105160000Y-74350000D02*
X105160000Y-70350000D01*
X105280000Y-74350000D02*
X105280000Y-70350000D01*
X105400000Y-74350000D02*
X105400000Y-70350000D01*
X105520000Y-74350000D02*
X105520000Y-70350000D01*
X105640000Y-74350000D02*
X105640000Y-70350000D01*
X105760000Y-74350000D02*
X105760000Y-70350000D01*
X106410000Y-76090000D02*
X108410000Y-76090000D01*
X108410000Y-76090000D02*
X108410000Y-74350000D01*
X108410000Y-74350000D02*
X106410000Y-74350000D01*
X106410000Y-74350000D02*
X106410000Y-76090000D01*
X107040000Y-74350000D02*
X107780000Y-74350000D01*
X107780000Y-74350000D02*
X107780000Y-70350000D01*
X107780000Y-70350000D02*
X107040000Y-70350000D01*
X107040000Y-70350000D02*
X107040000Y-74350000D01*
X107040000Y-76675000D02*
X107040000Y-76090000D01*
X107780000Y-76675000D02*
X107780000Y-76090000D01*
X108410000Y-76090000D02*
X110530000Y-76090000D01*
X110530000Y-76090000D02*
X110530000Y-74350000D01*
X110530000Y-74350000D02*
X108410000Y-74350000D01*
X108410000Y-74350000D02*
X108410000Y-76090000D01*
X109040000Y-74350000D02*
X109780000Y-74350000D01*
X109780000Y-74350000D02*
X109780000Y-70350000D01*
X109780000Y-70350000D02*
X109040000Y-70350000D01*
X109040000Y-70350000D02*
X109040000Y-74350000D01*
X109040000Y-76675000D02*
X109040000Y-76090000D01*
X109780000Y-76675000D02*
X109780000Y-76090000D01*
X105410000Y-78470000D02*
X104410000Y-78470000D01*
X104410000Y-78470000D02*
X104410000Y-77470000D01*
X102190000Y-74940000D02*
X93390000Y-74940000D01*
X93390000Y-78740000D02*
X93390000Y-71040000D01*
X93390000Y-71040000D02*
X102190000Y-71040000D01*
X102190000Y-71040000D02*
X102190000Y-71240000D01*
X95240000Y-84640000D02*
X93390000Y-84640000D01*
X93390000Y-84640000D02*
X93390000Y-83790000D01*
X102190000Y-71140000D02*
X102190000Y-84640000D01*
X102190000Y-84640000D02*
X100340000Y-84640000D01*
X128690000Y-83130000D02*
X131310000Y-83130000D01*
X131310000Y-83130000D02*
X131310000Y-76710000D01*
X131310000Y-76710000D02*
X128690000Y-76710000D01*
X128690000Y-76710000D02*
X128690000Y-83130000D01*
X130000000Y-84020000D02*
X130000000Y-83130000D01*
X130000000Y-75820000D02*
X130000000Y-76710000D01*
X127040000Y-76800000D02*
X124420000Y-76800000D01*
X124420000Y-76800000D02*
X124420000Y-83220000D01*
X124420000Y-83220000D02*
X127040000Y-83220000D01*
X127040000Y-83220000D02*
X127040000Y-76800000D01*
X125730000Y-75910000D02*
X125730000Y-76800000D01*
X125730000Y-84110000D02*
X125730000Y-83220000D01*
X120610000Y-83220000D02*
X123230000Y-83220000D01*
X123230000Y-83220000D02*
X123230000Y-76800000D01*
X123230000Y-76800000D02*
X120610000Y-76800000D01*
X120610000Y-76800000D02*
X120610000Y-83220000D01*
X121920000Y-84110000D02*
X121920000Y-83220000D01*
X121920000Y-75910000D02*
X121920000Y-76800000D01*
X116800000Y-83220000D02*
X119420000Y-83220000D01*
X119420000Y-83220000D02*
X119420000Y-76800000D01*
X119420000Y-76800000D02*
X116800000Y-76800000D01*
X116800000Y-76800000D02*
X116800000Y-83220000D01*
X118110000Y-84110000D02*
X118110000Y-83220000D01*
X118110000Y-75910000D02*
X118110000Y-76800000D01*
X122520000Y-87590000D02*
X122520000Y-90210000D01*
X122520000Y-90210000D02*
X128940000Y-90210000D01*
X128940000Y-90210000D02*
X128940000Y-87590000D01*
X128940000Y-87590000D02*
X122520000Y-87590000D01*
X121630000Y-88900000D02*
X122520000Y-88900000D01*
X129830000Y-88900000D02*
X128940000Y-88900000D01*
X105180000Y-79110000D02*
X110720000Y-79110000D01*
X110720000Y-79110000D02*
X110720000Y-85990000D01*
X110720000Y-85990000D02*
X105180000Y-85990000D01*
X105180000Y-85990000D02*
X105180000Y-82550000D01*
X106140000Y-80645000D02*
X106140000Y-81915000D01*
X106140000Y-81915000D02*
X109760000Y-81915000D01*
X109760000Y-81915000D02*
X109760000Y-80645000D01*
X109760000Y-80645000D02*
X106140000Y-80645000D01*
X107950000Y-80645000D02*
X107950000Y-81915000D01*
X106140000Y-83185000D02*
X106140000Y-84455000D01*
X106140000Y-84455000D02*
X109760000Y-84455000D01*
X109760000Y-84455000D02*
X109760000Y-83185000D01*
X109760000Y-83185000D02*
X106140000Y-83185000D01*
X107950000Y-83185000D02*
X107950000Y-84455000D01*
X105180000Y-86730000D02*
X110720000Y-86730000D01*
X110720000Y-86730000D02*
X110720000Y-93610000D01*
X110720000Y-93610000D02*
X105180000Y-93610000D01*
X105180000Y-93610000D02*
X105180000Y-90170000D01*
X106140000Y-88265000D02*
X106140000Y-89535000D01*
X106140000Y-89535000D02*
X109760000Y-89535000D01*
X109760000Y-89535000D02*
X109760000Y-88265000D01*
X109760000Y-88265000D02*
X106140000Y-88265000D01*
X107950000Y-88265000D02*
X107950000Y-89535000D01*
X106140000Y-90805000D02*
X106140000Y-92075000D01*
X106140000Y-92075000D02*
X109760000Y-92075000D01*
X109760000Y-92075000D02*
X109760000Y-90805000D01*
X109760000Y-90805000D02*
X106140000Y-90805000D01*
X107950000Y-90805000D02*
X107950000Y-92075000D01*
D13*
X133984000Y-94859000D02*
X133984000Y-95621000D01*
X133984000Y-95621000D02*
X149986000Y-95621000D01*
X149986000Y-95621000D02*
X149986000Y-94859000D01*
D12*
X154410000Y-78050000D02*
X158010000Y-78050000D01*
X154371522Y-78038478D02*
G75*
G02X156210000Y-73600000I1838478J1838478D01*
G01*
X158048478Y-78038478D02*
G75*
G03X156210000Y-73600000I-1838478J1838478D01*
G01*
D11*
X126214286Y-105838571D02*
X126357143Y-105886190D01*
X126404762Y-105933810D01*
X126452381Y-106029048D01*
X126452381Y-106171905D01*
X126404762Y-106267143D01*
X126357143Y-106314762D01*
X126261905Y-106362381D01*
X125880952Y-106362381D01*
X125880952Y-105362381D01*
X126214286Y-105362381D01*
X126309524Y-105410000D01*
X126357143Y-105457619D01*
X126404762Y-105552857D01*
X126404762Y-105648095D01*
X126357143Y-105743333D01*
X126309524Y-105790952D01*
X126214286Y-105838571D01*
X125880952Y-105838571D01*
X126738095Y-105362381D02*
X127309524Y-105362381D01*
X127023809Y-106362381D02*
X127023809Y-105362381D01*
X128166667Y-106362381D02*
X127595238Y-106362381D01*
X127880952Y-106362381D02*
X127880952Y-105362381D01*
X127785714Y-105505238D01*
X127690476Y-105600476D01*
X127595238Y-105648095D01*
X91186191Y-100615714D02*
X94233810Y-100615714D01*
X157226191Y-100615714D02*
X160273810Y-100615714D01*
X158750000Y-102139524D02*
X158750000Y-99091905D01*
X116653334Y-86317143D02*
X116605715Y-86364762D01*
X116462858Y-86412381D01*
X116367620Y-86412381D01*
X116224762Y-86364762D01*
X116129524Y-86269524D01*
X116081905Y-86174286D01*
X116034286Y-85983810D01*
X116034286Y-85840952D01*
X116081905Y-85650476D01*
X116129524Y-85555238D01*
X116224762Y-85460000D01*
X116367620Y-85412381D01*
X116462858Y-85412381D01*
X116605715Y-85460000D01*
X116653334Y-85507619D01*
X117605715Y-86412381D02*
X117034286Y-86412381D01*
X117320000Y-86412381D02*
X117320000Y-85412381D01*
X117224762Y-85555238D01*
X117129524Y-85650476D01*
X117034286Y-85698095D01*
X94511905Y-98222381D02*
X94511905Y-97222381D01*
X94750000Y-97222381D01*
X94892858Y-97270000D01*
X94988096Y-97365238D01*
X95035715Y-97460476D01*
X95083334Y-97650952D01*
X95083334Y-97793810D01*
X95035715Y-97984286D01*
X94988096Y-98079524D01*
X94892858Y-98174762D01*
X94750000Y-98222381D01*
X94511905Y-98222381D01*
X96035715Y-98222381D02*
X95464286Y-98222381D01*
X95750000Y-98222381D02*
X95750000Y-97222381D01*
X95654762Y-97365238D01*
X95559524Y-97460476D01*
X95464286Y-97508095D01*
X102862381Y-74803333D02*
X103576667Y-74803333D01*
X103719524Y-74850953D01*
X103814762Y-74946191D01*
X103862381Y-75089048D01*
X103862381Y-75184286D01*
X103862381Y-73803333D02*
X103862381Y-74374762D01*
X103862381Y-74089048D02*
X102862381Y-74089048D01*
X103005238Y-74184286D01*
X103100476Y-74279524D01*
X103148095Y-74374762D01*
X102832381Y-79583333D02*
X103546667Y-79583333D01*
X103689524Y-79630953D01*
X103784762Y-79726191D01*
X103832381Y-79869048D01*
X103832381Y-79964286D01*
X102927619Y-79154762D02*
X102880000Y-79107143D01*
X102832381Y-79011905D01*
X102832381Y-78773809D01*
X102880000Y-78678571D01*
X102927619Y-78630952D01*
X103022857Y-78583333D01*
X103118095Y-78583333D01*
X103260952Y-78630952D01*
X103832381Y-79202381D01*
X103832381Y-78583333D01*
X128142381Y-80086666D02*
X127666190Y-80420000D01*
X128142381Y-80658095D02*
X127142381Y-80658095D01*
X127142381Y-80277142D01*
X127190000Y-80181904D01*
X127237619Y-80134285D01*
X127332857Y-80086666D01*
X127475714Y-80086666D01*
X127570952Y-80134285D01*
X127618571Y-80181904D01*
X127666190Y-80277142D01*
X127666190Y-80658095D01*
X128142381Y-79134285D02*
X128142381Y-79705714D01*
X128142381Y-79420000D02*
X127142381Y-79420000D01*
X127285238Y-79515238D01*
X127380476Y-79610476D01*
X127428095Y-79705714D01*
X128492381Y-80176666D02*
X128016190Y-80510000D01*
X128492381Y-80748095D02*
X127492381Y-80748095D01*
X127492381Y-80367142D01*
X127540000Y-80271904D01*
X127587619Y-80224285D01*
X127682857Y-80176666D01*
X127825714Y-80176666D01*
X127920952Y-80224285D01*
X127968571Y-80271904D01*
X128016190Y-80367142D01*
X128016190Y-80748095D01*
X127587619Y-79795714D02*
X127540000Y-79748095D01*
X127492381Y-79652857D01*
X127492381Y-79414761D01*
X127540000Y-79319523D01*
X127587619Y-79271904D01*
X127682857Y-79224285D01*
X127778095Y-79224285D01*
X127920952Y-79271904D01*
X128492381Y-79843333D01*
X128492381Y-79224285D01*
X120062381Y-80176666D02*
X119586190Y-80510000D01*
X120062381Y-80748095D02*
X119062381Y-80748095D01*
X119062381Y-80367142D01*
X119110000Y-80271904D01*
X119157619Y-80224285D01*
X119252857Y-80176666D01*
X119395714Y-80176666D01*
X119490952Y-80224285D01*
X119538571Y-80271904D01*
X119586190Y-80367142D01*
X119586190Y-80748095D01*
X119062381Y-79843333D02*
X119062381Y-79224285D01*
X119443333Y-79557619D01*
X119443333Y-79414761D01*
X119490952Y-79319523D01*
X119538571Y-79271904D01*
X119633810Y-79224285D01*
X119871905Y-79224285D01*
X119967143Y-79271904D01*
X120014762Y-79319523D01*
X120062381Y-79414761D01*
X120062381Y-79700476D01*
X120014762Y-79795714D01*
X119967143Y-79843333D01*
X116252381Y-80176666D02*
X115776190Y-80510000D01*
X116252381Y-80748095D02*
X115252381Y-80748095D01*
X115252381Y-80367142D01*
X115300000Y-80271904D01*
X115347619Y-80224285D01*
X115442857Y-80176666D01*
X115585714Y-80176666D01*
X115680952Y-80224285D01*
X115728571Y-80271904D01*
X115776190Y-80367142D01*
X115776190Y-80748095D01*
X115585714Y-79319523D02*
X116252381Y-79319523D01*
X115204762Y-79557619D02*
X115919048Y-79795714D01*
X115919048Y-79176666D01*
X125563334Y-87042381D02*
X125230000Y-86566190D01*
X124991905Y-87042381D02*
X124991905Y-86042381D01*
X125372858Y-86042381D01*
X125468096Y-86090000D01*
X125515715Y-86137619D01*
X125563334Y-86232857D01*
X125563334Y-86375714D01*
X125515715Y-86470952D01*
X125468096Y-86518571D01*
X125372858Y-86566190D01*
X124991905Y-86566190D01*
X126468096Y-86042381D02*
X125991905Y-86042381D01*
X125944286Y-86518571D01*
X125991905Y-86470952D01*
X126087143Y-86423333D01*
X126325239Y-86423333D01*
X126420477Y-86470952D01*
X126468096Y-86518571D01*
X126515715Y-86613810D01*
X126515715Y-86851905D01*
X126468096Y-86947143D01*
X126420477Y-86994762D01*
X126325239Y-87042381D01*
X126087143Y-87042381D01*
X125991905Y-86994762D01*
X125944286Y-86947143D01*
X106616667Y-78514762D02*
X106759524Y-78562381D01*
X106997620Y-78562381D01*
X107092858Y-78514762D01*
X107140477Y-78467143D01*
X107188096Y-78371905D01*
X107188096Y-78276667D01*
X107140477Y-78181429D01*
X107092858Y-78133810D01*
X106997620Y-78086190D01*
X106807143Y-78038571D01*
X106711905Y-77990952D01*
X106664286Y-77943333D01*
X106616667Y-77848095D01*
X106616667Y-77752857D01*
X106664286Y-77657619D01*
X106711905Y-77610000D01*
X106807143Y-77562381D01*
X107045239Y-77562381D01*
X107188096Y-77610000D01*
X107521429Y-77562381D02*
X107759524Y-78562381D01*
X107950001Y-77848095D01*
X108140477Y-78562381D01*
X108378572Y-77562381D01*
X109283334Y-78562381D02*
X108711905Y-78562381D01*
X108997619Y-78562381D02*
X108997619Y-77562381D01*
X108902381Y-77705238D01*
X108807143Y-77800476D01*
X108711905Y-77848095D01*
X106616667Y-86134762D02*
X106759524Y-86182381D01*
X106997620Y-86182381D01*
X107092858Y-86134762D01*
X107140477Y-86087143D01*
X107188096Y-85991905D01*
X107188096Y-85896667D01*
X107140477Y-85801429D01*
X107092858Y-85753810D01*
X106997620Y-85706190D01*
X106807143Y-85658571D01*
X106711905Y-85610952D01*
X106664286Y-85563333D01*
X106616667Y-85468095D01*
X106616667Y-85372857D01*
X106664286Y-85277619D01*
X106711905Y-85230000D01*
X106807143Y-85182381D01*
X107045239Y-85182381D01*
X107188096Y-85230000D01*
X107521429Y-85182381D02*
X107759524Y-86182381D01*
X107950001Y-85468095D01*
X108140477Y-86182381D01*
X108378572Y-85182381D01*
X108711905Y-85277619D02*
X108759524Y-85230000D01*
X108854762Y-85182381D01*
X109092858Y-85182381D01*
X109188096Y-85230000D01*
X109235715Y-85277619D01*
X109283334Y-85372857D01*
X109283334Y-85468095D01*
X109235715Y-85610952D01*
X108664286Y-86182381D01*
X109283334Y-86182381D01*
X140588095Y-81992381D02*
X140588095Y-82801905D01*
X140635714Y-82897143D01*
X140683333Y-82944762D01*
X140778571Y-82992381D01*
X140969048Y-82992381D01*
X141064286Y-82944762D01*
X141111905Y-82897143D01*
X141159524Y-82801905D01*
X141159524Y-81992381D01*
X142159524Y-82992381D02*
X141588095Y-82992381D01*
X141873809Y-82992381D02*
X141873809Y-81992381D01*
X141778571Y-82135238D01*
X141683333Y-82230476D01*
X141588095Y-82278095D01*
X155448095Y-72096381D02*
X155448095Y-72905905D01*
X155495714Y-73001143D01*
X155543333Y-73048762D01*
X155638571Y-73096381D01*
X155829048Y-73096381D01*
X155924286Y-73048762D01*
X155971905Y-73001143D01*
X156019524Y-72905905D01*
X156019524Y-72096381D01*
X156448095Y-72191619D02*
X156495714Y-72144000D01*
X156590952Y-72096381D01*
X156829048Y-72096381D01*
X156924286Y-72144000D01*
X156971905Y-72191619D01*
X157019524Y-72286857D01*
X157019524Y-72382095D01*
X156971905Y-72524952D01*
X156400476Y-73096381D01*
X157019524Y-73096381D01*
M02*
