G04 #@! TF.GenerationSoftware,KiCad,Pcbnew,5.1.5-52549c5~84~ubuntu18.04.1*
G04 #@! TF.CreationDate,2020-04-08T12:20:09+02:00*
G04 #@! TF.ProjectId,ltl,6c746c2e-6b69-4636-9164-5f7063625858,rev?*
G04 #@! TF.SameCoordinates,Original*
G04 #@! TF.FileFunction,Legend,Bot*
G04 #@! TF.FilePolarity,Positive*
%FSLAX46Y46*%
G04 Gerber Fmt 4.6, Leading zero omitted, Abs format (unit mm)*
G04 Created by KiCad (PCBNEW 5.1.5-52549c5~84~ubuntu18.04.1) date 2020-04-08 12:20:09*
%MOMM*%
%LPD*%
G04 APERTURE LIST*
%ADD10C,0.100000*%
%ADD11C,0.150000*%
%ADD12C,0.300000*%
G04 APERTURE END LIST*
D10*
G36*
X141732000Y-123444000D02*
G01*
X137922000Y-123444000D01*
X137922000Y-118364000D01*
X141732000Y-118364000D01*
X141732000Y-123444000D01*
G37*
X141732000Y-123444000D02*
X137922000Y-123444000D01*
X137922000Y-118364000D01*
X141732000Y-118364000D01*
X141732000Y-123444000D01*
G36*
X137414000Y-123444000D02*
G01*
X133604000Y-123444000D01*
X133604000Y-118364000D01*
X137414000Y-118364000D01*
X137414000Y-123444000D01*
G37*
X137414000Y-123444000D02*
X133604000Y-123444000D01*
X133604000Y-118364000D01*
X137414000Y-118364000D01*
X137414000Y-123444000D01*
G36*
X133096000Y-123444000D02*
G01*
X129286000Y-123444000D01*
X129286000Y-118364000D01*
X133096000Y-118364000D01*
X133096000Y-123444000D01*
G37*
X133096000Y-123444000D02*
X129286000Y-123444000D01*
X129286000Y-118364000D01*
X133096000Y-118364000D01*
X133096000Y-123444000D01*
D11*
X105918000Y-123698000D02*
X141986000Y-123698000D01*
X142240000Y-123952000D02*
X105664000Y-123952000D01*
X141986000Y-118110000D02*
X105918000Y-118110000D01*
X137668000Y-123698000D02*
X137668000Y-118110000D01*
X133350000Y-123698000D02*
X133350000Y-118110000D01*
X129032000Y-123698000D02*
X129032000Y-118110000D01*
D12*
X107824190Y-119618238D02*
X107157523Y-120570619D01*
X106681333Y-119618238D02*
X106681333Y-121618238D01*
X107443238Y-121618238D01*
X107633714Y-121523000D01*
X107728952Y-121427761D01*
X107824190Y-121237285D01*
X107824190Y-120951571D01*
X107728952Y-120761095D01*
X107633714Y-120665857D01*
X107443238Y-120570619D01*
X106681333Y-120570619D01*
X109443238Y-119713476D02*
X109252761Y-119618238D01*
X108871809Y-119618238D01*
X108681333Y-119713476D01*
X108586095Y-119903952D01*
X108586095Y-120665857D01*
X108681333Y-120856333D01*
X108871809Y-120951571D01*
X109252761Y-120951571D01*
X109443238Y-120856333D01*
X109538476Y-120665857D01*
X109538476Y-120475380D01*
X108586095Y-120284904D01*
X110205142Y-120951571D02*
X110681333Y-119618238D01*
X111157523Y-120951571D01*
X111919428Y-119808714D02*
X112014666Y-119713476D01*
X111919428Y-119618238D01*
X111824190Y-119713476D01*
X111919428Y-119808714D01*
X111919428Y-119618238D01*
X113919428Y-119618238D02*
X112776571Y-119618238D01*
X113347999Y-119618238D02*
X113347999Y-121618238D01*
X113157523Y-121332523D01*
X112967047Y-121142047D01*
X112776571Y-121046809D01*
X114776571Y-119808714D02*
X114871809Y-119713476D01*
X114776571Y-119618238D01*
X114681333Y-119713476D01*
X114776571Y-119808714D01*
X114776571Y-119618238D01*
X115633714Y-121427761D02*
X115728952Y-121523000D01*
X115919428Y-121618238D01*
X116395619Y-121618238D01*
X116586095Y-121523000D01*
X116681333Y-121427761D01*
X116776571Y-121237285D01*
X116776571Y-121046809D01*
X116681333Y-120761095D01*
X115538476Y-119618238D01*
X116776571Y-119618238D01*
X120109904Y-119618238D02*
X119157523Y-119618238D01*
X119157523Y-121618238D01*
X120490857Y-120951571D02*
X121252761Y-120951571D01*
X120776571Y-119618238D02*
X120776571Y-121332523D01*
X120871809Y-121523000D01*
X121062285Y-121618238D01*
X121252761Y-121618238D01*
X122776571Y-119618238D02*
X122776571Y-121618238D01*
X122776571Y-119713476D02*
X122586095Y-119618238D01*
X122205142Y-119618238D01*
X122014666Y-119713476D01*
X121919428Y-119808714D01*
X121824190Y-119999190D01*
X121824190Y-120570619D01*
X121919428Y-120761095D01*
X122014666Y-120856333D01*
X122205142Y-120951571D01*
X122586095Y-120951571D01*
X122776571Y-120856333D01*
X123728952Y-119808714D02*
X123824190Y-119713476D01*
X123728952Y-119618238D01*
X123633714Y-119713476D01*
X123728952Y-119808714D01*
X123728952Y-119618238D01*
X124681333Y-119618238D02*
X124681333Y-121618238D01*
X125824190Y-119618238D01*
X125824190Y-121618238D01*
X126776571Y-119618238D02*
X126776571Y-120951571D01*
X126776571Y-120570619D02*
X126871809Y-120761095D01*
X126967047Y-120856333D01*
X127157523Y-120951571D01*
X127347999Y-120951571D01*
X128014666Y-119808714D02*
X128109904Y-119713476D01*
X128014666Y-119618238D01*
X127919428Y-119713476D01*
X128014666Y-119808714D01*
X128014666Y-119618238D01*
D11*
X105918000Y-118110000D02*
X105918000Y-123698000D01*
X141986000Y-123698000D02*
X141986000Y-118110000D01*
X142240000Y-117856000D02*
X142240000Y-123952000D01*
X105664000Y-117856000D02*
X142240000Y-117856000D01*
X105664000Y-123952000D02*
X105664000Y-117856000D01*
M02*
