G04 #@! TF.GenerationSoftware,KiCad,Pcbnew,7.0.9*
G04 #@! TF.CreationDate,2024-02-02T01:21:52+01:00*
G04 #@! TF.ProjectId,ltl,6c746c2e-6b69-4636-9164-5f7063625858,rev?*
G04 #@! TF.SameCoordinates,Original*
G04 #@! TF.FileFunction,Soldermask,Bot*
G04 #@! TF.FilePolarity,Negative*
%FSLAX46Y46*%
G04 Gerber Fmt 4.6, Leading zero omitted, Abs format (unit mm)*
G04 Created by KiCad (PCBNEW 7.0.9) date 2024-02-02 01:21:52*
%MOMM*%
%LPD*%
G01*
G04 APERTURE LIST*
%ADD10C,1.600000*%
%ADD11O,1.600000X1.600000*%
%ADD12R,3.000000X3.000000*%
%ADD13O,2.262000X3.262000*%
%ADD14R,1.600000X1.600000*%
%ADD15R,1.300000X1.300000*%
%ADD16C,1.300000*%
%ADD17C,0.800000*%
%ADD18C,6.400000*%
%ADD19R,1.050000X1.500000*%
%ADD20O,1.050000X1.500000*%
%ADD21C,2.000000*%
%ADD22R,1.700000X1.700000*%
%ADD23O,1.700000X1.700000*%
G04 APERTURE END LIST*
D10*
X133252000Y-105412000D03*
D11*
X143412000Y-105412000D03*
D10*
X133252000Y-102312000D03*
D11*
X143412000Y-102312000D03*
D10*
X133282000Y-86712000D03*
D11*
X143442000Y-86712000D03*
D10*
X133282000Y-89862000D03*
D11*
X143442000Y-89862000D03*
D10*
X133282000Y-96062000D03*
D11*
X143442000Y-96062000D03*
D12*
X89916000Y-118364000D03*
D13*
X162052000Y-118364000D03*
D10*
X133282000Y-92962000D03*
D11*
X143442000Y-92962000D03*
D14*
X155702000Y-86740000D03*
D10*
X155702000Y-84740000D03*
X109260000Y-101092000D03*
X114260000Y-101092000D03*
D15*
X164994000Y-84328000D03*
D16*
X166264000Y-85598000D03*
X164994000Y-86868000D03*
D10*
X83550000Y-88102000D03*
D11*
X93710000Y-88102000D03*
D14*
X117502000Y-97771900D03*
D11*
X117502000Y-105391900D03*
D17*
X120150000Y-133000000D03*
X120852944Y-131302944D03*
X120852944Y-134697056D03*
X122550000Y-130600000D03*
D18*
X122550000Y-133000000D03*
D17*
X122550000Y-135400000D03*
X124247056Y-131302944D03*
X124247056Y-134697056D03*
X124950000Y-133000000D03*
D10*
X119888000Y-97536000D03*
D11*
X130048000Y-97536000D03*
D19*
X127000000Y-105008000D03*
D20*
X128270000Y-105008000D03*
X129540000Y-105008000D03*
D10*
X83550000Y-91202000D03*
D11*
X93710000Y-91202000D03*
D21*
X140006000Y-76418000D03*
X133506000Y-76418000D03*
X140006000Y-71918000D03*
X133506000Y-71918000D03*
D17*
X77600000Y-73000000D03*
X78302944Y-71302944D03*
X78302944Y-74697056D03*
X80000000Y-70600000D03*
D18*
X80000000Y-73000000D03*
D17*
X80000000Y-75400000D03*
X81697056Y-71302944D03*
X81697056Y-74697056D03*
X82400000Y-73000000D03*
X77600000Y-133000000D03*
X78302944Y-131302944D03*
X78302944Y-134697056D03*
X80000000Y-130600000D03*
D18*
X80000000Y-133000000D03*
D17*
X80000000Y-135400000D03*
X81697056Y-131302944D03*
X81697056Y-134697056D03*
X82400000Y-133000000D03*
D22*
X87122000Y-76708000D03*
D23*
X89662000Y-76708000D03*
X92202000Y-76708000D03*
X94742000Y-76708000D03*
D10*
X146032000Y-87020000D03*
X151032000Y-87020000D03*
D14*
X100430900Y-96774000D03*
D10*
X102430900Y-96774000D03*
X104102800Y-84853200D03*
D11*
X114262800Y-84853200D03*
D10*
X119888000Y-100584000D03*
D11*
X130048000Y-100584000D03*
D14*
X106212000Y-96774000D03*
D10*
X108212000Y-96774000D03*
X104107700Y-78628600D03*
D11*
X114267700Y-78628600D03*
D10*
X133252000Y-99212000D03*
D11*
X143412000Y-99212000D03*
D14*
X91650000Y-95552000D03*
D10*
X93650000Y-95552000D03*
X119888000Y-94488000D03*
D11*
X130048000Y-94488000D03*
D22*
X77216000Y-89662000D03*
D23*
X77216000Y-92202000D03*
X77216000Y-94742000D03*
X77216000Y-97282000D03*
X77216000Y-99822000D03*
X77216000Y-102362000D03*
X77216000Y-104902000D03*
X77216000Y-107442000D03*
X77216000Y-109982000D03*
X77216000Y-112522000D03*
X77216000Y-115062000D03*
X77216000Y-117602000D03*
X77216000Y-120142000D03*
X77216000Y-122682000D03*
X77216000Y-125222000D03*
D10*
X104119700Y-75509100D03*
D11*
X114279700Y-75509100D03*
D10*
X84000000Y-98852000D03*
X84000000Y-93852000D03*
D22*
X87122000Y-70358000D03*
D23*
X89662000Y-70358000D03*
X92202000Y-70358000D03*
X94742000Y-70358000D03*
X97282000Y-70358000D03*
X99822000Y-70358000D03*
D17*
X162650000Y-133000000D03*
X163352944Y-131302944D03*
X163352944Y-134697056D03*
X165050000Y-130600000D03*
D18*
X165050000Y-133000000D03*
D17*
X165050000Y-135400000D03*
X166747056Y-131302944D03*
X166747056Y-134697056D03*
X167450000Y-133000000D03*
D10*
X83550000Y-85002000D03*
D11*
X93710000Y-85002000D03*
D10*
X109300000Y-104394000D03*
X114300000Y-104394000D03*
X104102800Y-81738500D03*
D11*
X114262800Y-81738500D03*
D21*
X155702000Y-76200000D03*
X149202000Y-76200000D03*
X155702000Y-71700000D03*
X149202000Y-71700000D03*
D17*
X120100000Y-73000000D03*
X120802944Y-71302944D03*
X120802944Y-74697056D03*
X122500000Y-70600000D03*
D18*
X122500000Y-73000000D03*
D17*
X122500000Y-75400000D03*
X124197056Y-71302944D03*
X124197056Y-74697056D03*
X124900000Y-73000000D03*
X162600000Y-73000000D03*
X163302944Y-71302944D03*
X163302944Y-74697056D03*
X165000000Y-70600000D03*
D18*
X165000000Y-73000000D03*
D17*
X165000000Y-75400000D03*
X166697056Y-71302944D03*
X166697056Y-74697056D03*
X167400000Y-73000000D03*
D22*
X86850000Y-101802000D03*
D23*
X84310000Y-101802000D03*
D14*
X90600000Y-101052000D03*
D10*
X92600000Y-101052000D03*
X83570000Y-105452000D03*
D11*
X93730000Y-105452000D03*
M02*
