M48
;DRILL file {KiCad 4.0.6+dfsg1-1} date Thu Nov  9 23:10:20 2017
;FORMAT={-:-/ absolute / inch / decimal}
FMAT,2
INCH,TZ
T1C0.024
T2C0.026
T3C0.030
T4C0.031
T5C0.040
T6C0.063
%
G90
G05
M72
T1
X6.1Y-3.
X6.15Y-3.
X6.2Y-3.
T2
X5.315Y-3.1496
X5.315Y-3.2283
X5.315Y-3.3071
X5.315Y-3.3858
X5.315Y-3.4646
X5.315Y-3.5433
X5.315Y-3.622
X5.315Y-3.7008
X5.3933Y-3.7402
X5.472Y-3.7402
X5.5508Y-3.7402
X5.6295Y-3.7402
X5.7083Y-3.7402
X5.787Y-3.7402
X5.8661Y-3.1496
X5.8661Y-3.2283
X5.8661Y-3.3071
X5.8661Y-3.3858
X5.8661Y-3.4646
X5.8661Y-3.5433
X5.8661Y-3.622
X5.8661Y-3.7008
T3
X3.65Y-4.15
X6.25Y-4.15
T4
X4.1Y-3.2
X4.1Y-3.3
X4.1Y-3.5
X4.1Y-3.6
X4.15Y-3.05
X4.2287Y-3.05
X4.3075Y-3.05
X4.4Y-3.2
X4.4Y-3.3
X4.4Y-3.5
X4.4Y-3.6
X4.55Y-3.55
X4.6484Y-3.55
X4.65Y-2.95
X4.65Y-3.35
X4.75Y-3.5
X4.8Y-2.95
X4.8Y-3.35
X4.95Y-2.95
X4.95Y-3.35
X5.1181Y-2.9465
X5.1181Y-3.3465
X5.15Y-3.5
T6
X3.6Y-3.65
X3.9Y-3.65
T5
X3.65Y-3.1701G85X3.65Y-3.2299
G05
X3.8799Y-3.1098G85X3.8201Y-3.1098
G05
X3.8799Y-3.35G85X3.8201Y-3.35
G05
T0
M30
